%TF.GenerationSoftware,KiCad,Pcbnew,8.0.4*%
%TF.CreationDate,2024-08-09T12:11:37-04:00*%
%TF.ProjectId,Drive Circuit,44726976-6520-4436-9972-637569742e6b,rev?*%
%TF.SameCoordinates,Original*%
%TF.FileFunction,Copper,L3,Inr*%
%TF.FilePolarity,Positive*%
%FSLAX46Y46*%
G04 Gerber Fmt 4.6, Leading zero omitted, Abs format (unit mm)*
G04 Created by KiCad (PCBNEW 8.0.4) date 2024-08-09 12:11:37*
%MOMM*%
%LPD*%
G01*
G04 APERTURE LIST*
%TA.AperFunction,ComponentPad*%
%ADD10R,1.700000X1.700000*%
%TD*%
%TA.AperFunction,ComponentPad*%
%ADD11O,1.700000X1.700000*%
%TD*%
%TA.AperFunction,ViaPad*%
%ADD12C,0.800000*%
%TD*%
%TA.AperFunction,Conductor*%
%ADD13C,2.000000*%
%TD*%
%TA.AperFunction,Conductor*%
%ADD14C,0.500000*%
%TD*%
%TA.AperFunction,Conductor*%
%ADD15C,0.250000*%
%TD*%
G04 APERTURE END LIST*
D10*
%TO.N,/GRID.A_Y1*%
%TO.C,Y1*%
X24950000Y-13500000D03*
D11*
%TO.N,/GRID.B_Y2*%
X27490000Y-13500000D03*
%TO.N,/GRID.A_Y3*%
X30030000Y-13500000D03*
%TO.N,/GRID.B_Y4*%
X32570000Y-13500000D03*
%TO.N,/GRID.A_Y5*%
X35110000Y-13500000D03*
%TO.N,/GRID.B_Y6*%
X37650000Y-13500000D03*
%TO.N,/GRID.A_Y7*%
X40190000Y-13500000D03*
%TO.N,/GRID.B_Y8*%
X42730000Y-13500000D03*
%TO.N,/GRID.A_Y9*%
X45270000Y-13500000D03*
%TO.N,/GRID.B_Y10*%
X47810000Y-13500000D03*
%TO.N,/GRID.A_Y11*%
X50350000Y-13500000D03*
%TO.N,/GRID.B_Y12*%
X52890000Y-13500000D03*
%TO.N,/GRID.A_Y13*%
X55430000Y-13500000D03*
%TO.N,/GRID.B_Y14*%
X57970000Y-13500000D03*
%TO.N,/GRID.A_Y15*%
X60510000Y-13500000D03*
%TO.N,/GRID.B_Y16*%
X63050000Y-13500000D03*
%TD*%
D10*
%TO.N,/GRID.A_X1*%
%TO.C,X1*%
X13500000Y-24950000D03*
D11*
%TO.N,/GRID.B_X2*%
X13500000Y-27490000D03*
%TO.N,/GRID.A_X3*%
X13500000Y-30030000D03*
%TO.N,/GRID.B_X4*%
X13500000Y-32570000D03*
%TO.N,/GRID.A_X5*%
X13500000Y-35110000D03*
%TO.N,/GRID.B_X6*%
X13500000Y-37650000D03*
%TO.N,/GRID.A_X7*%
X13500000Y-40190000D03*
%TO.N,/GRID.B_X8*%
X13500000Y-42730000D03*
%TO.N,/GRID.A_X9*%
X13500000Y-45270000D03*
%TO.N,/GRID.B_X10*%
X13500000Y-47810000D03*
%TO.N,/GRID.A_X11*%
X13500000Y-50350000D03*
%TO.N,/GRID.B_X12*%
X13500000Y-52890000D03*
%TO.N,/GRID.A_X13*%
X13500000Y-55430000D03*
%TO.N,/GRID.B_X14*%
X13500000Y-57970000D03*
%TO.N,/GRID.A_X15*%
X13500000Y-60510000D03*
%TO.N,/GRID.B_X16*%
X13500000Y-63050000D03*
%TD*%
D10*
%TO.N,/MAD.X1*%
%TO.C,MADX1*%
X32570000Y-35110000D03*
D11*
%TO.N,/MAD.X3*%
X32570000Y-37650000D03*
%TO.N,/MAD.X5*%
X32570000Y-40190000D03*
%TO.N,/MAD.X7*%
X32570000Y-42730000D03*
%TO.N,/MAD.X9*%
X32570000Y-45270000D03*
%TO.N,/MAD.X11*%
X32570000Y-47810000D03*
%TO.N,/MAD.X13*%
X32570000Y-50350000D03*
%TO.N,/MAD.X15*%
X32570000Y-52890000D03*
%TD*%
D10*
%TO.N,/MAD.Y2*%
%TO.C,MADY2*%
X35110000Y-55430000D03*
D11*
%TO.N,/MAD.Y4*%
X37650000Y-55430000D03*
%TO.N,/MAD.Y6*%
X40190000Y-55430000D03*
%TO.N,/MAD.Y8*%
X42730000Y-55430000D03*
%TO.N,/MAD.Y10*%
X45270000Y-55430000D03*
%TO.N,/MAD.Y12*%
X47810000Y-55430000D03*
%TO.N,/MAD.Y14*%
X50350000Y-55430000D03*
%TO.N,/MAD.Y16*%
X52890000Y-55430000D03*
%TD*%
D10*
%TO.N,/GRID.B_X1*%
%TO.C,X2*%
X74500000Y-24950000D03*
D11*
%TO.N,/GRID.A_X2*%
X74500000Y-27490000D03*
%TO.N,/GRID.B_X3*%
X74500000Y-30030000D03*
%TO.N,/GRID.A_X4*%
X74500000Y-32570000D03*
%TO.N,/GRID.B_X5*%
X74500000Y-35110000D03*
%TO.N,/GRID.A_X6*%
X74500000Y-37650000D03*
%TO.N,/GRID.B_X7*%
X74500000Y-40190000D03*
%TO.N,/GRID.A_X8*%
X74500000Y-42730000D03*
%TO.N,/GRID.B_X9*%
X74500000Y-45270000D03*
%TO.N,/GRID.A_X10*%
X74500000Y-47810000D03*
%TO.N,/GRID.B_X11*%
X74500000Y-50350000D03*
%TO.N,/GRID.A_X12*%
X74500000Y-52890000D03*
%TO.N,/GRID.B_X13*%
X74500000Y-55430000D03*
%TO.N,/GRID.A_X14*%
X74500000Y-57970000D03*
%TO.N,/GRID.B_X15*%
X74500000Y-60510000D03*
%TO.N,/GRID.A_X16*%
X74500000Y-63050000D03*
%TD*%
D10*
%TO.N,VCC*%
%TO.C,PWR1*%
X13500000Y-13500000D03*
D11*
%TO.N,GND*%
X13500000Y-16040000D03*
%TD*%
D10*
%TO.N,/Drive Circuit/Read REQ*%
%TO.C,DAT1*%
X35110000Y-35110000D03*
D11*
%TO.N,/Drive Circuit/Write REQ*%
X35110000Y-37650000D03*
%TD*%
D10*
%TO.N,/MAD.X2*%
%TO.C,MADX2*%
X55430000Y-35110000D03*
D11*
%TO.N,/MAD.X4*%
X55430000Y-37650000D03*
%TO.N,/MAD.X6*%
X55430000Y-40190000D03*
%TO.N,/MAD.X8*%
X55430000Y-42730000D03*
%TO.N,/MAD.X10*%
X55430000Y-45270000D03*
%TO.N,/MAD.X12*%
X55430000Y-47810000D03*
%TO.N,/MAD.X14*%
X55430000Y-50350000D03*
%TO.N,/MAD.X16*%
X55430000Y-52890000D03*
%TD*%
D10*
%TO.N,/GRID.B_Y1*%
%TO.C,Y2*%
X24950000Y-74500000D03*
D11*
%TO.N,/GRID.A_Y2*%
X27490000Y-74500000D03*
%TO.N,/GRID.B_Y3*%
X30030000Y-74500000D03*
%TO.N,/GRID.A_Y4*%
X32570000Y-74500000D03*
%TO.N,/GRID.B_Y5*%
X35110000Y-74500000D03*
%TO.N,/GRID.A_Y6*%
X37650000Y-74500000D03*
%TO.N,/GRID.B_Y7*%
X40190000Y-74500000D03*
%TO.N,/GRID.A_Y8*%
X42730000Y-74500000D03*
%TO.N,/GRID.B_Y9*%
X45270000Y-74500000D03*
%TO.N,/GRID.A_Y10*%
X47810000Y-74500000D03*
%TO.N,/GRID.B_Y11*%
X50350000Y-74500000D03*
%TO.N,/GRID.A_Y12*%
X52890000Y-74500000D03*
%TO.N,/GRID.B_Y13*%
X55430000Y-74500000D03*
%TO.N,/GRID.A_Y14*%
X57970000Y-74500000D03*
%TO.N,/GRID.B_Y15*%
X60510000Y-74500000D03*
%TO.N,/GRID.A_Y16*%
X63050000Y-74500000D03*
%TD*%
D10*
%TO.N,/MAD.Y1*%
%TO.C,MADY1*%
X35110000Y-32570000D03*
D11*
%TO.N,/MAD.Y3*%
X37650000Y-32570000D03*
%TO.N,/MAD.Y5*%
X40190000Y-32570000D03*
%TO.N,/MAD.Y7*%
X42730000Y-32570000D03*
%TO.N,/MAD.Y9*%
X45270000Y-32570000D03*
%TO.N,/MAD.Y11*%
X47810000Y-32570000D03*
%TO.N,/MAD.Y13*%
X50350000Y-32570000D03*
%TO.N,/MAD.Y15*%
X52890000Y-32570000D03*
%TD*%
D12*
%TO.N,GND*%
X40000000Y-63000000D03*
X25000000Y-44500000D03*
X25000000Y-58000000D03*
X31000000Y-63000000D03*
X29500000Y-25000000D03*
X38500000Y-25000000D03*
X58000000Y-63000000D03*
X34000000Y-25000000D03*
X52000000Y-25000000D03*
X24949847Y-31050153D03*
X25000000Y-26500000D03*
X43000000Y-25000000D03*
X25000000Y-49000000D03*
X26500000Y-63000000D03*
X49000000Y-63000000D03*
X63000000Y-38500000D03*
X63000000Y-61000000D03*
X63000000Y-29500000D03*
X63000000Y-52000000D03*
X63000000Y-43000000D03*
X56500000Y-25000000D03*
X24949847Y-35550153D03*
X47500000Y-25000000D03*
X25000000Y-53500000D03*
X61000000Y-25000000D03*
X63000000Y-56500000D03*
X63000000Y-34000000D03*
X35500000Y-63000000D03*
X53500000Y-63000000D03*
X63000000Y-47500000D03*
X25000000Y-40000000D03*
X44500000Y-63000000D03*
%TO.N,VCC*%
X19500000Y-61000000D03*
X48000000Y-19500000D03*
X68500000Y-39000000D03*
X68500000Y-48000000D03*
X68500000Y-33000000D03*
X27000000Y-19500000D03*
X19500000Y-58000000D03*
X19500000Y-67000000D03*
X52000000Y-68500000D03*
X68500000Y-66000000D03*
X43000000Y-68500000D03*
X21000000Y-19500000D03*
X25000000Y-68500000D03*
X55000000Y-68500000D03*
X63000000Y-19500000D03*
X19500000Y-46000000D03*
X46000000Y-68500000D03*
X30000000Y-19500000D03*
X67000000Y-68500000D03*
X42000000Y-19500000D03*
X68500000Y-21000000D03*
X33000000Y-19500000D03*
X64000000Y-68500000D03*
X19500000Y-37000000D03*
X68500000Y-51000000D03*
X34000000Y-68500000D03*
X19500000Y-40000000D03*
X49000000Y-68500000D03*
X68500000Y-24000000D03*
X61000000Y-68500000D03*
X19500000Y-43000000D03*
X19500000Y-22000000D03*
X68500000Y-27000000D03*
X19500000Y-31000000D03*
X19500000Y-52000000D03*
X58000000Y-68500000D03*
X39000000Y-19500000D03*
X19500000Y-25000000D03*
X68500000Y-54000000D03*
X24000000Y-19500000D03*
X68500000Y-57000000D03*
X19500000Y-49000000D03*
X68500000Y-63000000D03*
X31000000Y-68500000D03*
X57028698Y-19493205D03*
X37000000Y-68500000D03*
X36000000Y-19500000D03*
X68500000Y-42000000D03*
X54000000Y-19500000D03*
X28000000Y-68500000D03*
X68500000Y-45000000D03*
X22000000Y-68500000D03*
X68500000Y-36000000D03*
X19500000Y-55000000D03*
X19500000Y-34000000D03*
X40000000Y-68500000D03*
X19500000Y-64000000D03*
X51000000Y-19500000D03*
X68500000Y-30000000D03*
X60000000Y-19500000D03*
X68500000Y-60000000D03*
X66000000Y-19500000D03*
X19500000Y-28000000D03*
X45000000Y-19500000D03*
%TO.N,Net-(Q1-D)*%
X47012653Y-71512653D03*
X49987347Y-16487347D03*
%TO.N,/Drive Circuit/H Bridge/DIR 1*%
X51650000Y-17500000D03*
X48350000Y-70500000D03*
X17500000Y-63350000D03*
X17500000Y-51350000D03*
X57650000Y-17500000D03*
X66350000Y-70500000D03*
X45650000Y-17500000D03*
X36350000Y-70500000D03*
X63650000Y-17500000D03*
X24350000Y-70500000D03*
X17500000Y-57350000D03*
X21650000Y-17500000D03*
X41500000Y-38000000D03*
X17500000Y-21350000D03*
X54350000Y-70500000D03*
X70500000Y-30650000D03*
X27650000Y-17500000D03*
X30350000Y-70500000D03*
X70500000Y-24650000D03*
X17500000Y-45350000D03*
X70500000Y-54650000D03*
X70500000Y-66650000D03*
X70500000Y-48650000D03*
X33650000Y-17500000D03*
X17500000Y-39350000D03*
X70500000Y-42650000D03*
X70500000Y-60650000D03*
X17500000Y-27350000D03*
X42350000Y-70500000D03*
X70500000Y-36650000D03*
X60350000Y-70500000D03*
X17500000Y-33350000D03*
X39650000Y-17500000D03*
%TO.N,/Drive Circuit/H Bridge/DIR 2*%
X27350000Y-70500000D03*
X41500000Y-35500000D03*
X17500000Y-66350000D03*
X66650000Y-17500000D03*
X24650000Y-17500000D03*
X70500000Y-51650000D03*
X17500000Y-36350000D03*
X57350000Y-70500000D03*
X70500000Y-57650000D03*
X42650000Y-17500000D03*
X17500000Y-24350000D03*
X39350000Y-70500000D03*
X70500000Y-63650000D03*
X54650000Y-17500000D03*
X17500000Y-42350000D03*
X63350000Y-70500000D03*
X33350000Y-70500000D03*
X17500000Y-30350000D03*
X70500000Y-21650000D03*
X17500000Y-54350000D03*
X17500000Y-48350000D03*
X51350000Y-70500000D03*
X48650000Y-17500000D03*
X70500000Y-27650000D03*
X70500000Y-33650000D03*
X21350000Y-70500000D03*
X36650000Y-17500000D03*
X17500000Y-60350000D03*
X70500000Y-39650000D03*
X70500000Y-45650000D03*
X60650000Y-17500000D03*
X30650000Y-17500000D03*
X45350000Y-70500000D03*
%TO.N,Net-(Q4-D)*%
X46987347Y-16487347D03*
X44012653Y-71512653D03*
%TO.N,Net-(Q7-D)*%
X50012653Y-71512653D03*
X52987347Y-16487347D03*
%TO.N,Net-(Q10-D)*%
X55987347Y-16487347D03*
X53012653Y-71512653D03*
%TO.N,Net-(Q13-D)*%
X22987347Y-16487347D03*
X20000000Y-71500000D03*
%TO.N,Net-(Q16-D)*%
X23025306Y-71500000D03*
X25989595Y-16485098D03*
%TO.N,Net-(Q19-D)*%
X31987347Y-16487347D03*
X29012653Y-71512653D03*
%TO.N,Net-(Q22-D)*%
X26012653Y-71512653D03*
X28996138Y-16478556D03*
%TO.N,Net-(Q25-D)*%
X16487347Y-47012653D03*
X71512653Y-49987347D03*
%TO.N,Net-(Q28-D)*%
X16487347Y-50012653D03*
X71512653Y-52987347D03*
%TO.N,Net-(Q31-D)*%
X16487347Y-44012653D03*
X71512653Y-46987347D03*
%TO.N,Net-(Q34-D)*%
X16487347Y-26012653D03*
X71512653Y-28987347D03*
%TO.N,Net-(Q37-D)*%
X16500000Y-20000000D03*
X71512653Y-22987347D03*
%TO.N,Net-(Q40-D)*%
X16500000Y-23025306D03*
X71512653Y-25987347D03*
%TO.N,Net-(Q43-D)*%
X35012653Y-71512653D03*
X37987347Y-16487347D03*
%TO.N,Net-(Q46-D)*%
X32012653Y-71512653D03*
X34987347Y-16487347D03*
%TO.N,Net-(Q49-D)*%
X41012653Y-71512653D03*
X43987347Y-16487347D03*
%TO.N,Net-(Q52-D)*%
X40987347Y-16487347D03*
X38012653Y-71512653D03*
%TO.N,Net-(Q55-D)*%
X58987347Y-16487347D03*
X56012653Y-71512653D03*
%TO.N,Net-(Q58-D)*%
X65012653Y-71512653D03*
X68000000Y-16500000D03*
%TO.N,Net-(Q61-D)*%
X59012653Y-71512653D03*
X61987347Y-16487347D03*
%TO.N,Net-(Q64-D)*%
X64987347Y-16487347D03*
X62012653Y-71512653D03*
%TO.N,Net-(Q67-D)*%
X16487347Y-56012653D03*
X71512653Y-58987347D03*
%TO.N,Net-(Q70-D)*%
X71512653Y-55987347D03*
X16487347Y-53012653D03*
%TO.N,Net-(Q73-D)*%
X71512653Y-43987347D03*
X16487347Y-41012653D03*
%TO.N,Net-(Q76-D)*%
X16487347Y-38012653D03*
X71512653Y-40987347D03*
%TO.N,Net-(Q79-D)*%
X16487347Y-35012653D03*
X71512653Y-37987347D03*
%TO.N,Net-(Q82-D)*%
X71512653Y-31987347D03*
X16487347Y-29012653D03*
%TO.N,Net-(Q85-D)*%
X16487347Y-32012653D03*
X71512653Y-34987347D03*
%TO.N,Net-(Q88-D)*%
X16487347Y-59012653D03*
X71512653Y-61987347D03*
%TO.N,Net-(Q91-D)*%
X16487347Y-62012653D03*
X71512653Y-64987347D03*
%TO.N,Net-(Q94-D)*%
X71500000Y-68000000D03*
X16487347Y-65012653D03*
%TD*%
D13*
%TO.N,VCC*%
X21000000Y-19500000D02*
X19500000Y-21000000D01*
X19500000Y-21000000D02*
X19500000Y-22000000D01*
D14*
%TO.N,Net-(Q1-D)*%
X58500000Y-29000000D02*
X49987347Y-20487347D01*
X49987347Y-20487347D02*
X49987347Y-16487347D01*
X58500000Y-56000000D02*
X58500000Y-29000000D01*
X47012653Y-71512653D02*
X47012653Y-67487347D01*
X47012653Y-67487347D02*
X58500000Y-56000000D01*
D15*
%TO.N,/Drive Circuit/H Bridge/DIR 2*%
X72500000Y-64500000D02*
X71650000Y-63650000D01*
X72500000Y-46500000D02*
X71650000Y-45650000D01*
X50500000Y-72500000D02*
X56500000Y-72500000D01*
X72500000Y-58500000D02*
X71650000Y-57650000D01*
X72500000Y-47000000D02*
X72500000Y-46500000D01*
X71650000Y-51650000D02*
X70500000Y-51650000D01*
X20500000Y-72500000D02*
X26500000Y-72500000D01*
X44000000Y-62000000D02*
X42000000Y-64000000D01*
X72500000Y-41000000D02*
X72500000Y-34500000D01*
X72500000Y-41000000D02*
X72500000Y-40500000D01*
X15500000Y-53500000D02*
X15500000Y-59500000D01*
X43500000Y-15500000D02*
X42650000Y-16350000D01*
X36650000Y-16350000D02*
X36650000Y-17500000D01*
X24650000Y-16350000D02*
X24650000Y-17500000D01*
X19000000Y-72500000D02*
X20500000Y-72500000D01*
X26500000Y-72500000D02*
X32500000Y-72500000D01*
X50500000Y-72500000D02*
X51350000Y-71650000D01*
X44000000Y-23000000D02*
X46000000Y-21000000D01*
X56500000Y-72500000D02*
X62500000Y-72500000D01*
X41500000Y-35500000D02*
X44000000Y-38000000D01*
X71650000Y-21650000D02*
X70500000Y-21650000D01*
X42000000Y-69000000D02*
X43075000Y-70075000D01*
X72500000Y-28500000D02*
X72500000Y-22500000D01*
X44000000Y-33500000D02*
X44000000Y-23000000D01*
X27350000Y-71650000D02*
X27350000Y-70500000D01*
X44925000Y-16575000D02*
X46000000Y-15500000D01*
X15500000Y-53500000D02*
X16350000Y-54350000D01*
X42000000Y-64000000D02*
X42000000Y-69000000D01*
X72500000Y-40500000D02*
X71650000Y-39650000D01*
X44500000Y-72500000D02*
X45350000Y-71650000D01*
X38500000Y-72500000D02*
X39350000Y-71650000D01*
X31500000Y-15500000D02*
X30650000Y-16350000D01*
X25500000Y-15500000D02*
X24650000Y-16350000D01*
X16350000Y-30350000D02*
X17500000Y-30350000D01*
X45350000Y-71650000D02*
X45350000Y-70500000D01*
X62500000Y-72500000D02*
X63350000Y-71650000D01*
X55500000Y-15500000D02*
X49500000Y-15500000D01*
X20500000Y-72500000D02*
X21350000Y-71650000D01*
X72500000Y-34500000D02*
X71650000Y-33650000D01*
X72500000Y-53000000D02*
X72500000Y-52500000D01*
X15500000Y-41500000D02*
X15500000Y-47500000D01*
X51350000Y-71650000D02*
X51350000Y-70500000D01*
X31500000Y-15500000D02*
X25500000Y-15500000D01*
X15500000Y-59500000D02*
X15500000Y-65500000D01*
X16350000Y-66350000D02*
X17500000Y-66350000D01*
X38500000Y-72500000D02*
X42500000Y-72500000D01*
X15500000Y-47500000D02*
X15500000Y-53500000D01*
X15500000Y-29500000D02*
X16350000Y-30350000D01*
X32500000Y-72500000D02*
X33350000Y-71650000D01*
X32500000Y-72500000D02*
X38500000Y-72500000D01*
X63350000Y-71650000D02*
X63350000Y-70500000D01*
X72500000Y-22500000D02*
X72500000Y-19000000D01*
X43075000Y-70075000D02*
X43075000Y-71425000D01*
X16350000Y-36350000D02*
X17500000Y-36350000D01*
X72500000Y-47000000D02*
X72500000Y-41000000D01*
X43500000Y-15500000D02*
X37500000Y-15500000D01*
X55500000Y-15500000D02*
X54650000Y-16350000D01*
X42500000Y-72500000D02*
X44500000Y-72500000D01*
X72500000Y-53000000D02*
X72500000Y-47000000D01*
X72500000Y-22500000D02*
X71650000Y-21650000D01*
X15500000Y-65500000D02*
X15500000Y-69000000D01*
X49500000Y-15500000D02*
X48650000Y-16350000D01*
X43075000Y-71425000D02*
X42000000Y-72500000D01*
X16324694Y-24350000D02*
X15500000Y-23525306D01*
X37500000Y-15500000D02*
X31500000Y-15500000D01*
X57350000Y-71650000D02*
X57350000Y-70500000D01*
X67500000Y-15500000D02*
X66650000Y-16350000D01*
X72500000Y-69000000D02*
X72500000Y-64500000D01*
X30650000Y-16350000D02*
X30650000Y-17500000D01*
X71650000Y-39650000D02*
X70500000Y-39650000D01*
X15500000Y-35500000D02*
X16350000Y-36350000D01*
X61500000Y-15500000D02*
X55500000Y-15500000D01*
X44500000Y-72500000D02*
X50500000Y-72500000D01*
X44925000Y-17925000D02*
X44925000Y-16575000D01*
X42000000Y-35500000D02*
X44000000Y-33500000D01*
X46000000Y-19000000D02*
X44925000Y-17925000D01*
X72500000Y-52500000D02*
X71650000Y-51650000D01*
X69000000Y-15500000D02*
X67500000Y-15500000D01*
X72500000Y-34500000D02*
X72500000Y-28500000D01*
X19500000Y-15500000D02*
X15500000Y-19500000D01*
X16350000Y-42350000D02*
X17500000Y-42350000D01*
X72500000Y-28500000D02*
X71650000Y-27650000D01*
X48650000Y-16350000D02*
X48650000Y-17500000D01*
X16350000Y-60350000D02*
X17500000Y-60350000D01*
X71650000Y-57650000D02*
X70500000Y-57650000D01*
X15500000Y-23525306D02*
X15500000Y-29500000D01*
X71650000Y-27650000D02*
X70500000Y-27650000D01*
X39350000Y-71650000D02*
X39350000Y-70500000D01*
X46000000Y-21000000D02*
X46000000Y-19000000D01*
X72500000Y-19000000D02*
X69000000Y-15500000D01*
X21350000Y-71650000D02*
X21350000Y-70500000D01*
X26500000Y-72500000D02*
X27350000Y-71650000D01*
X33350000Y-71650000D02*
X33350000Y-70500000D01*
X15500000Y-29500000D02*
X15500000Y-35500000D01*
X62500000Y-72500000D02*
X69000000Y-72500000D01*
X49500000Y-15500000D02*
X46000000Y-15500000D01*
X69000000Y-72500000D02*
X72500000Y-69000000D01*
X71650000Y-33650000D02*
X70500000Y-33650000D01*
X46000000Y-15500000D02*
X43500000Y-15500000D01*
X71650000Y-63650000D02*
X70500000Y-63650000D01*
X37500000Y-15500000D02*
X36650000Y-16350000D01*
X72500000Y-64500000D02*
X72500000Y-58500000D01*
X15500000Y-69000000D02*
X19000000Y-72500000D01*
X16350000Y-54350000D02*
X17500000Y-54350000D01*
X60650000Y-16350000D02*
X60650000Y-17500000D01*
X66650000Y-16350000D02*
X66650000Y-17500000D01*
X15500000Y-65500000D02*
X16350000Y-66350000D01*
X71650000Y-45650000D02*
X70500000Y-45650000D01*
X25500000Y-15500000D02*
X19500000Y-15500000D01*
X15500000Y-59500000D02*
X16350000Y-60350000D01*
X17500000Y-24350000D02*
X16324694Y-24350000D01*
X56500000Y-72500000D02*
X57350000Y-71650000D01*
X16350000Y-48350000D02*
X17500000Y-48350000D01*
X72500000Y-58500000D02*
X72500000Y-53000000D01*
X15500000Y-47500000D02*
X16350000Y-48350000D01*
X67500000Y-15500000D02*
X61500000Y-15500000D01*
X42650000Y-16350000D02*
X42650000Y-17500000D01*
X15500000Y-35500000D02*
X15500000Y-41500000D01*
X15500000Y-41500000D02*
X16350000Y-42350000D01*
X61500000Y-15500000D02*
X60650000Y-16350000D01*
X41500000Y-35500000D02*
X42000000Y-35500000D01*
X54650000Y-16350000D02*
X54650000Y-17500000D01*
X44000000Y-38000000D02*
X44000000Y-62000000D01*
X15500000Y-19500000D02*
X15500000Y-23525306D01*
D14*
%TO.N,Net-(Q4-D)*%
X48500000Y-61500000D02*
X50500000Y-61500000D01*
X57500000Y-32500000D02*
X46987347Y-21987347D01*
X44012653Y-71512653D02*
X44012653Y-65987347D01*
X57500000Y-54500000D02*
X57500000Y-32500000D01*
X50500000Y-61500000D02*
X57500000Y-54500000D01*
X46987347Y-21987347D02*
X46987347Y-16487347D01*
X44012653Y-65987347D02*
X48500000Y-61500000D01*
%TO.N,Net-(Q7-D)*%
X52987347Y-20112347D02*
X52987347Y-16487347D01*
X50012653Y-68987347D02*
X59500000Y-59500000D01*
X50012653Y-71512653D02*
X50012653Y-68987347D01*
X59500000Y-59500000D02*
X59500000Y-26625000D01*
X59500000Y-26625000D02*
X52987347Y-20112347D01*
%TO.N,Net-(Q10-D)*%
X53012653Y-68487347D02*
X53012653Y-71512653D01*
X57000000Y-64500000D02*
X53012653Y-68487347D01*
X60500000Y-63000000D02*
X59000000Y-64500000D01*
X55987347Y-21487347D02*
X60500000Y-26000000D01*
X59000000Y-64500000D02*
X57000000Y-64500000D01*
X55987347Y-16487347D02*
X55987347Y-21487347D01*
X60500000Y-26000000D02*
X60500000Y-63000000D01*
%TO.N,Net-(Q13-D)*%
X21000000Y-67500000D02*
X21000000Y-22500000D01*
X20000000Y-71500000D02*
X20000000Y-68500000D01*
X20000000Y-68500000D02*
X21000000Y-67500000D01*
X22987347Y-20512653D02*
X22987347Y-16487347D01*
X21000000Y-22500000D02*
X22987347Y-20512653D01*
%TO.N,Net-(Q16-D)*%
X22000000Y-23500000D02*
X25989595Y-19510405D01*
X23025306Y-71500000D02*
X23000000Y-71474694D01*
X25989595Y-19510405D02*
X25989595Y-16485098D01*
X23000000Y-67648959D02*
X22000000Y-66648959D01*
X23000000Y-71474694D02*
X23000000Y-67648959D01*
X22000000Y-66648959D02*
X22000000Y-23500000D01*
%TO.N,Net-(Q19-D)*%
X29012653Y-63512653D02*
X26500000Y-61000000D01*
X26500000Y-61000000D02*
X26500000Y-25500000D01*
X31987347Y-20012653D02*
X31987347Y-16487347D01*
X26500000Y-25500000D02*
X31987347Y-20012653D01*
X29012653Y-71512653D02*
X29012653Y-63512653D01*
%TO.N,Net-(Q22-D)*%
X26012653Y-66512653D02*
X26012653Y-71512653D01*
X28996138Y-16478556D02*
X28996138Y-19016515D01*
X28996138Y-19016515D02*
X23000000Y-25012653D01*
X23000000Y-63500000D02*
X26012653Y-66512653D01*
X23000000Y-25012653D02*
X23000000Y-63500000D01*
%TO.N,Net-(Q43-D)*%
X28500000Y-57500000D02*
X28500000Y-32000000D01*
X37987347Y-22512653D02*
X37987347Y-16487347D01*
X35012653Y-71512653D02*
X35012653Y-64012653D01*
X35012653Y-64012653D02*
X28500000Y-57500000D01*
X28500000Y-32000000D02*
X37987347Y-22512653D01*
%TO.N,Net-(Q46-D)*%
X32012653Y-71512653D02*
X32012653Y-62512653D01*
X32012653Y-62512653D02*
X27500000Y-58000000D01*
X27500000Y-58000000D02*
X27500000Y-29500000D01*
X27500000Y-29500000D02*
X34987347Y-22012653D01*
X34987347Y-22012653D02*
X34987347Y-16487347D01*
%TO.N,Net-(Q49-D)*%
X38500000Y-62000000D02*
X30500000Y-54000000D01*
X30500000Y-54000000D02*
X30500000Y-33500000D01*
X41012653Y-62512653D02*
X40500000Y-62000000D01*
X30500000Y-33500000D02*
X37500000Y-26500000D01*
X39000000Y-26500000D02*
X43987347Y-21512653D01*
X43987347Y-21512653D02*
X43987347Y-16487347D01*
X40500000Y-62000000D02*
X38500000Y-62000000D01*
X37500000Y-26500000D02*
X39000000Y-26500000D01*
X41012653Y-71512653D02*
X41012653Y-62512653D01*
%TO.N,Net-(Q52-D)*%
X37650000Y-24659337D02*
X37650000Y-24647918D01*
X37650000Y-24647918D02*
X38147918Y-24150000D01*
X38159337Y-24150000D02*
X40987347Y-21321990D01*
X29500000Y-32809337D02*
X37650000Y-24659337D01*
X29500000Y-54750000D02*
X29500000Y-32809337D01*
X38012653Y-71512653D02*
X38012653Y-63262653D01*
X38147918Y-24150000D02*
X38159337Y-24150000D01*
X40987347Y-21321990D02*
X40987347Y-16487347D01*
X38012653Y-63262653D02*
X29500000Y-54750000D01*
%TO.N,Net-(Q55-D)*%
X56000000Y-69449389D02*
X56000000Y-69000000D01*
X59000000Y-16500000D02*
X58987347Y-16487347D01*
X56000000Y-69000000D02*
X62000000Y-63000000D01*
X56012653Y-71512653D02*
X56012653Y-69462042D01*
X62000000Y-24000000D02*
X59000000Y-21000000D01*
X56012653Y-69462042D02*
X56000000Y-69449389D01*
X62000000Y-63000000D02*
X62000000Y-24000000D01*
X59000000Y-21000000D02*
X59000000Y-16500000D01*
%TO.N,Net-(Q58-D)*%
X68000000Y-16500000D02*
X68000000Y-19500000D01*
X67000000Y-67000000D02*
X65012653Y-68987347D01*
X65012653Y-68987347D02*
X65012653Y-71512653D01*
X68000000Y-19500000D02*
X67000000Y-20500000D01*
X67000000Y-20500000D02*
X67000000Y-67000000D01*
%TO.N,Net-(Q61-D)*%
X59012653Y-68487347D02*
X64500000Y-63000000D01*
X64500000Y-23000000D02*
X61987347Y-20487347D01*
X64500000Y-63000000D02*
X64500000Y-23000000D01*
X61987347Y-20487347D02*
X61987347Y-16487347D01*
X59012653Y-71512653D02*
X59012653Y-68487347D01*
%TO.N,Net-(Q64-D)*%
X65500000Y-20525305D02*
X65500000Y-65500000D01*
X64987347Y-16487347D02*
X64987347Y-20012652D01*
X64987347Y-20012652D02*
X65500000Y-20525305D01*
X65500000Y-65500000D02*
X62012653Y-68987347D01*
X62012653Y-68987347D02*
X62012653Y-71512653D01*
%TD*%
M02*
