%TF.GenerationSoftware,KiCad,Pcbnew,8.0.4*%
%TF.CreationDate,2024-08-09T12:11:37-04:00*%
%TF.ProjectId,Drive Circuit,44726976-6520-4436-9972-637569742e6b,rev?*%
%TF.SameCoordinates,Original*%
%TF.FileFunction,Legend,Top*%
%TF.FilePolarity,Positive*%
%FSLAX46Y46*%
G04 Gerber Fmt 4.6, Leading zero omitted, Abs format (unit mm)*
G04 Created by KiCad (PCBNEW 8.0.4) date 2024-08-09 12:11:37*
%MOMM*%
%LPD*%
G01*
G04 APERTURE LIST*
%ADD10C,0.150000*%
%ADD11C,0.120000*%
%ADD12C,0.200000*%
G04 APERTURE END LIST*
D10*
X38833333Y-39884819D02*
X38500000Y-39408628D01*
X38261905Y-39884819D02*
X38261905Y-38884819D01*
X38261905Y-38884819D02*
X38642857Y-38884819D01*
X38642857Y-38884819D02*
X38738095Y-38932438D01*
X38738095Y-38932438D02*
X38785714Y-38980057D01*
X38785714Y-38980057D02*
X38833333Y-39075295D01*
X38833333Y-39075295D02*
X38833333Y-39218152D01*
X38833333Y-39218152D02*
X38785714Y-39313390D01*
X38785714Y-39313390D02*
X38738095Y-39361009D01*
X38738095Y-39361009D02*
X38642857Y-39408628D01*
X38642857Y-39408628D02*
X38261905Y-39408628D01*
X39214286Y-38980057D02*
X39261905Y-38932438D01*
X39261905Y-38932438D02*
X39357143Y-38884819D01*
X39357143Y-38884819D02*
X39595238Y-38884819D01*
X39595238Y-38884819D02*
X39690476Y-38932438D01*
X39690476Y-38932438D02*
X39738095Y-38980057D01*
X39738095Y-38980057D02*
X39785714Y-39075295D01*
X39785714Y-39075295D02*
X39785714Y-39170533D01*
X39785714Y-39170533D02*
X39738095Y-39313390D01*
X39738095Y-39313390D02*
X39166667Y-39884819D01*
X39166667Y-39884819D02*
X39785714Y-39884819D01*
X41333333Y-36954819D02*
X41000000Y-36478628D01*
X40761905Y-36954819D02*
X40761905Y-35954819D01*
X40761905Y-35954819D02*
X41142857Y-35954819D01*
X41142857Y-35954819D02*
X41238095Y-36002438D01*
X41238095Y-36002438D02*
X41285714Y-36050057D01*
X41285714Y-36050057D02*
X41333333Y-36145295D01*
X41333333Y-36145295D02*
X41333333Y-36288152D01*
X41333333Y-36288152D02*
X41285714Y-36383390D01*
X41285714Y-36383390D02*
X41238095Y-36431009D01*
X41238095Y-36431009D02*
X41142857Y-36478628D01*
X41142857Y-36478628D02*
X40761905Y-36478628D01*
X42285714Y-36954819D02*
X41714286Y-36954819D01*
X42000000Y-36954819D02*
X42000000Y-35954819D01*
X42000000Y-35954819D02*
X41904762Y-36097676D01*
X41904762Y-36097676D02*
X41809524Y-36192914D01*
X41809524Y-36192914D02*
X41714286Y-36240533D01*
X22023809Y-13478628D02*
X22023809Y-13954819D01*
X21690476Y-12954819D02*
X22023809Y-13478628D01*
X22023809Y-13478628D02*
X22357142Y-12954819D01*
X23214285Y-13954819D02*
X22642857Y-13954819D01*
X22928571Y-13954819D02*
X22928571Y-12954819D01*
X22928571Y-12954819D02*
X22833333Y-13097676D01*
X22833333Y-13097676D02*
X22738095Y-13192914D01*
X22738095Y-13192914D02*
X22642857Y-13240533D01*
X12690476Y-22074819D02*
X13357142Y-23074819D01*
X13357142Y-22074819D02*
X12690476Y-23074819D01*
X14261904Y-23074819D02*
X13690476Y-23074819D01*
X13976190Y-23074819D02*
X13976190Y-22074819D01*
X13976190Y-22074819D02*
X13880952Y-22217676D01*
X13880952Y-22217676D02*
X13785714Y-22312914D01*
X13785714Y-22312914D02*
X13690476Y-22360533D01*
X34785714Y-44454819D02*
X34785714Y-43454819D01*
X34785714Y-43454819D02*
X35119047Y-44169104D01*
X35119047Y-44169104D02*
X35452380Y-43454819D01*
X35452380Y-43454819D02*
X35452380Y-44454819D01*
X35880952Y-44169104D02*
X36357142Y-44169104D01*
X35785714Y-44454819D02*
X36119047Y-43454819D01*
X36119047Y-43454819D02*
X36452380Y-44454819D01*
X36785714Y-44454819D02*
X36785714Y-43454819D01*
X36785714Y-43454819D02*
X37023809Y-43454819D01*
X37023809Y-43454819D02*
X37166666Y-43502438D01*
X37166666Y-43502438D02*
X37261904Y-43597676D01*
X37261904Y-43597676D02*
X37309523Y-43692914D01*
X37309523Y-43692914D02*
X37357142Y-43883390D01*
X37357142Y-43883390D02*
X37357142Y-44026247D01*
X37357142Y-44026247D02*
X37309523Y-44216723D01*
X37309523Y-44216723D02*
X37261904Y-44311961D01*
X37261904Y-44311961D02*
X37166666Y-44407200D01*
X37166666Y-44407200D02*
X37023809Y-44454819D01*
X37023809Y-44454819D02*
X36785714Y-44454819D01*
X37690476Y-43454819D02*
X38357142Y-44454819D01*
X38357142Y-43454819D02*
X37690476Y-44454819D01*
X39261904Y-44454819D02*
X38690476Y-44454819D01*
X38976190Y-44454819D02*
X38976190Y-43454819D01*
X38976190Y-43454819D02*
X38880952Y-43597676D01*
X38880952Y-43597676D02*
X38785714Y-43692914D01*
X38785714Y-43692914D02*
X38690476Y-43740533D01*
X41833333Y-53454819D02*
X41833333Y-52454819D01*
X41833333Y-52454819D02*
X42166666Y-53169104D01*
X42166666Y-53169104D02*
X42499999Y-52454819D01*
X42499999Y-52454819D02*
X42499999Y-53454819D01*
X42928571Y-53169104D02*
X43404761Y-53169104D01*
X42833333Y-53454819D02*
X43166666Y-52454819D01*
X43166666Y-52454819D02*
X43499999Y-53454819D01*
X43833333Y-53454819D02*
X43833333Y-52454819D01*
X43833333Y-52454819D02*
X44071428Y-52454819D01*
X44071428Y-52454819D02*
X44214285Y-52502438D01*
X44214285Y-52502438D02*
X44309523Y-52597676D01*
X44309523Y-52597676D02*
X44357142Y-52692914D01*
X44357142Y-52692914D02*
X44404761Y-52883390D01*
X44404761Y-52883390D02*
X44404761Y-53026247D01*
X44404761Y-53026247D02*
X44357142Y-53216723D01*
X44357142Y-53216723D02*
X44309523Y-53311961D01*
X44309523Y-53311961D02*
X44214285Y-53407200D01*
X44214285Y-53407200D02*
X44071428Y-53454819D01*
X44071428Y-53454819D02*
X43833333Y-53454819D01*
X45023809Y-52978628D02*
X45023809Y-53454819D01*
X44690476Y-52454819D02*
X45023809Y-52978628D01*
X45023809Y-52978628D02*
X45357142Y-52454819D01*
X45642857Y-52550057D02*
X45690476Y-52502438D01*
X45690476Y-52502438D02*
X45785714Y-52454819D01*
X45785714Y-52454819D02*
X46023809Y-52454819D01*
X46023809Y-52454819D02*
X46119047Y-52502438D01*
X46119047Y-52502438D02*
X46166666Y-52550057D01*
X46166666Y-52550057D02*
X46214285Y-52645295D01*
X46214285Y-52645295D02*
X46214285Y-52740533D01*
X46214285Y-52740533D02*
X46166666Y-52883390D01*
X46166666Y-52883390D02*
X45595238Y-53454819D01*
X45595238Y-53454819D02*
X46214285Y-53454819D01*
X73690476Y-22074819D02*
X74357142Y-23074819D01*
X74357142Y-22074819D02*
X73690476Y-23074819D01*
X74690476Y-22170057D02*
X74738095Y-22122438D01*
X74738095Y-22122438D02*
X74833333Y-22074819D01*
X74833333Y-22074819D02*
X75071428Y-22074819D01*
X75071428Y-22074819D02*
X75166666Y-22122438D01*
X75166666Y-22122438D02*
X75214285Y-22170057D01*
X75214285Y-22170057D02*
X75261904Y-22265295D01*
X75261904Y-22265295D02*
X75261904Y-22360533D01*
X75261904Y-22360533D02*
X75214285Y-22503390D01*
X75214285Y-22503390D02*
X74642857Y-23074819D01*
X74642857Y-23074819D02*
X75261904Y-23074819D01*
X15190476Y-13954819D02*
X15190476Y-12954819D01*
X15190476Y-12954819D02*
X15571428Y-12954819D01*
X15571428Y-12954819D02*
X15666666Y-13002438D01*
X15666666Y-13002438D02*
X15714285Y-13050057D01*
X15714285Y-13050057D02*
X15761904Y-13145295D01*
X15761904Y-13145295D02*
X15761904Y-13288152D01*
X15761904Y-13288152D02*
X15714285Y-13383390D01*
X15714285Y-13383390D02*
X15666666Y-13431009D01*
X15666666Y-13431009D02*
X15571428Y-13478628D01*
X15571428Y-13478628D02*
X15190476Y-13478628D01*
X16095238Y-12954819D02*
X16333333Y-13954819D01*
X16333333Y-13954819D02*
X16523809Y-13240533D01*
X16523809Y-13240533D02*
X16714285Y-13954819D01*
X16714285Y-13954819D02*
X16952381Y-12954819D01*
X17904761Y-13954819D02*
X17571428Y-13478628D01*
X17333333Y-13954819D02*
X17333333Y-12954819D01*
X17333333Y-12954819D02*
X17714285Y-12954819D01*
X17714285Y-12954819D02*
X17809523Y-13002438D01*
X17809523Y-13002438D02*
X17857142Y-13050057D01*
X17857142Y-13050057D02*
X17904761Y-13145295D01*
X17904761Y-13145295D02*
X17904761Y-13288152D01*
X17904761Y-13288152D02*
X17857142Y-13383390D01*
X17857142Y-13383390D02*
X17809523Y-13431009D01*
X17809523Y-13431009D02*
X17714285Y-13478628D01*
X17714285Y-13478628D02*
X17333333Y-13478628D01*
X18857142Y-13954819D02*
X18285714Y-13954819D01*
X18571428Y-13954819D02*
X18571428Y-12954819D01*
X18571428Y-12954819D02*
X18476190Y-13097676D01*
X18476190Y-13097676D02*
X18380952Y-13192914D01*
X18380952Y-13192914D02*
X18285714Y-13240533D01*
X34452381Y-40454819D02*
X34452381Y-39454819D01*
X34452381Y-39454819D02*
X34690476Y-39454819D01*
X34690476Y-39454819D02*
X34833333Y-39502438D01*
X34833333Y-39502438D02*
X34928571Y-39597676D01*
X34928571Y-39597676D02*
X34976190Y-39692914D01*
X34976190Y-39692914D02*
X35023809Y-39883390D01*
X35023809Y-39883390D02*
X35023809Y-40026247D01*
X35023809Y-40026247D02*
X34976190Y-40216723D01*
X34976190Y-40216723D02*
X34928571Y-40311961D01*
X34928571Y-40311961D02*
X34833333Y-40407200D01*
X34833333Y-40407200D02*
X34690476Y-40454819D01*
X34690476Y-40454819D02*
X34452381Y-40454819D01*
X35404762Y-40169104D02*
X35880952Y-40169104D01*
X35309524Y-40454819D02*
X35642857Y-39454819D01*
X35642857Y-39454819D02*
X35976190Y-40454819D01*
X36166667Y-39454819D02*
X36738095Y-39454819D01*
X36452381Y-40454819D02*
X36452381Y-39454819D01*
X37595238Y-40454819D02*
X37023810Y-40454819D01*
X37309524Y-40454819D02*
X37309524Y-39454819D01*
X37309524Y-39454819D02*
X37214286Y-39597676D01*
X37214286Y-39597676D02*
X37119048Y-39692914D01*
X37119048Y-39692914D02*
X37023810Y-39740533D01*
X48785714Y-44454819D02*
X48785714Y-43454819D01*
X48785714Y-43454819D02*
X49119047Y-44169104D01*
X49119047Y-44169104D02*
X49452380Y-43454819D01*
X49452380Y-43454819D02*
X49452380Y-44454819D01*
X49880952Y-44169104D02*
X50357142Y-44169104D01*
X49785714Y-44454819D02*
X50119047Y-43454819D01*
X50119047Y-43454819D02*
X50452380Y-44454819D01*
X50785714Y-44454819D02*
X50785714Y-43454819D01*
X50785714Y-43454819D02*
X51023809Y-43454819D01*
X51023809Y-43454819D02*
X51166666Y-43502438D01*
X51166666Y-43502438D02*
X51261904Y-43597676D01*
X51261904Y-43597676D02*
X51309523Y-43692914D01*
X51309523Y-43692914D02*
X51357142Y-43883390D01*
X51357142Y-43883390D02*
X51357142Y-44026247D01*
X51357142Y-44026247D02*
X51309523Y-44216723D01*
X51309523Y-44216723D02*
X51261904Y-44311961D01*
X51261904Y-44311961D02*
X51166666Y-44407200D01*
X51166666Y-44407200D02*
X51023809Y-44454819D01*
X51023809Y-44454819D02*
X50785714Y-44454819D01*
X51690476Y-43454819D02*
X52357142Y-44454819D01*
X52357142Y-43454819D02*
X51690476Y-44454819D01*
X52690476Y-43550057D02*
X52738095Y-43502438D01*
X52738095Y-43502438D02*
X52833333Y-43454819D01*
X52833333Y-43454819D02*
X53071428Y-43454819D01*
X53071428Y-43454819D02*
X53166666Y-43502438D01*
X53166666Y-43502438D02*
X53214285Y-43550057D01*
X53214285Y-43550057D02*
X53261904Y-43645295D01*
X53261904Y-43645295D02*
X53261904Y-43740533D01*
X53261904Y-43740533D02*
X53214285Y-43883390D01*
X53214285Y-43883390D02*
X52642857Y-44454819D01*
X52642857Y-44454819D02*
X53261904Y-44454819D01*
X22023809Y-74478628D02*
X22023809Y-74954819D01*
X21690476Y-73954819D02*
X22023809Y-74478628D01*
X22023809Y-74478628D02*
X22357142Y-73954819D01*
X22642857Y-74050057D02*
X22690476Y-74002438D01*
X22690476Y-74002438D02*
X22785714Y-73954819D01*
X22785714Y-73954819D02*
X23023809Y-73954819D01*
X23023809Y-73954819D02*
X23119047Y-74002438D01*
X23119047Y-74002438D02*
X23166666Y-74050057D01*
X23166666Y-74050057D02*
X23214285Y-74145295D01*
X23214285Y-74145295D02*
X23214285Y-74240533D01*
X23214285Y-74240533D02*
X23166666Y-74383390D01*
X23166666Y-74383390D02*
X22595238Y-74954819D01*
X22595238Y-74954819D02*
X23214285Y-74954819D01*
X41833333Y-35454819D02*
X41833333Y-34454819D01*
X41833333Y-34454819D02*
X42166666Y-35169104D01*
X42166666Y-35169104D02*
X42499999Y-34454819D01*
X42499999Y-34454819D02*
X42499999Y-35454819D01*
X42928571Y-35169104D02*
X43404761Y-35169104D01*
X42833333Y-35454819D02*
X43166666Y-34454819D01*
X43166666Y-34454819D02*
X43499999Y-35454819D01*
X43833333Y-35454819D02*
X43833333Y-34454819D01*
X43833333Y-34454819D02*
X44071428Y-34454819D01*
X44071428Y-34454819D02*
X44214285Y-34502438D01*
X44214285Y-34502438D02*
X44309523Y-34597676D01*
X44309523Y-34597676D02*
X44357142Y-34692914D01*
X44357142Y-34692914D02*
X44404761Y-34883390D01*
X44404761Y-34883390D02*
X44404761Y-35026247D01*
X44404761Y-35026247D02*
X44357142Y-35216723D01*
X44357142Y-35216723D02*
X44309523Y-35311961D01*
X44309523Y-35311961D02*
X44214285Y-35407200D01*
X44214285Y-35407200D02*
X44071428Y-35454819D01*
X44071428Y-35454819D02*
X43833333Y-35454819D01*
X45023809Y-34978628D02*
X45023809Y-35454819D01*
X44690476Y-34454819D02*
X45023809Y-34978628D01*
X45023809Y-34978628D02*
X45357142Y-34454819D01*
X46214285Y-35454819D02*
X45642857Y-35454819D01*
X45928571Y-35454819D02*
X45928571Y-34454819D01*
X45928571Y-34454819D02*
X45833333Y-34597676D01*
X45833333Y-34597676D02*
X45738095Y-34692914D01*
X45738095Y-34692914D02*
X45642857Y-34740533D01*
D11*
%TO.C,R34*%
X53022500Y-59245276D02*
X53022500Y-59754724D01*
X51977500Y-59245276D02*
X51977500Y-59754724D01*
%TO.C,R33*%
X51977500Y-28754724D02*
X51977500Y-28245276D01*
X53022500Y-28754724D02*
X53022500Y-28245276D01*
%TO.C,R32*%
X50522500Y-59245276D02*
X50522500Y-59754724D01*
X49477500Y-59245276D02*
X49477500Y-59754724D01*
%TO.C,R31*%
X49477500Y-28754724D02*
X49477500Y-28245276D01*
X50522500Y-28754724D02*
X50522500Y-28245276D01*
%TO.C,R30*%
X48022500Y-59245276D02*
X48022500Y-59754724D01*
X46977500Y-59245276D02*
X46977500Y-59754724D01*
%TO.C,R29*%
X46977500Y-28754724D02*
X46977500Y-28245276D01*
X48022500Y-28754724D02*
X48022500Y-28245276D01*
%TO.C,R28*%
X45522500Y-59245276D02*
X45522500Y-59754724D01*
X44477500Y-59245276D02*
X44477500Y-59754724D01*
%TO.C,R27*%
X44477500Y-28754724D02*
X44477500Y-28245276D01*
X45522500Y-28754724D02*
X45522500Y-28245276D01*
%TO.C,R26*%
X43022500Y-59245276D02*
X43022500Y-59754724D01*
X41977500Y-59245276D02*
X41977500Y-59754724D01*
%TO.C,R25*%
X41977500Y-28754724D02*
X41977500Y-28245276D01*
X43022500Y-28754724D02*
X43022500Y-28245276D01*
%TO.C,R24*%
X40522500Y-59245276D02*
X40522500Y-59754724D01*
X39477500Y-59245276D02*
X39477500Y-59754724D01*
%TO.C,R23*%
X39477500Y-28754724D02*
X39477500Y-28245276D01*
X40522500Y-28754724D02*
X40522500Y-28245276D01*
%TO.C,R22*%
X38022500Y-59245276D02*
X38022500Y-59754724D01*
X36977500Y-59245276D02*
X36977500Y-59754724D01*
%TO.C,R21*%
X36977500Y-28754724D02*
X36977500Y-28245276D01*
X38022500Y-28754724D02*
X38022500Y-28245276D01*
%TO.C,R20*%
X35522500Y-59245276D02*
X35522500Y-59754724D01*
X34477500Y-59245276D02*
X34477500Y-59754724D01*
%TO.C,R19*%
X34477500Y-28754724D02*
X34477500Y-28245276D01*
X35522500Y-28754724D02*
X35522500Y-28245276D01*
%TO.C,R18*%
X59245276Y-51977500D02*
X59754724Y-51977500D01*
X59245276Y-53022500D02*
X59754724Y-53022500D01*
%TO.C,R17*%
X28754724Y-53022500D02*
X28245276Y-53022500D01*
X28754724Y-51977500D02*
X28245276Y-51977500D01*
%TO.C,R16*%
X59245276Y-49477500D02*
X59754724Y-49477500D01*
X59245276Y-50522500D02*
X59754724Y-50522500D01*
%TO.C,R15*%
X28754724Y-50522500D02*
X28245276Y-50522500D01*
X28754724Y-49477500D02*
X28245276Y-49477500D01*
%TO.C,R14*%
X59245276Y-46977500D02*
X59754724Y-46977500D01*
X59245276Y-48022500D02*
X59754724Y-48022500D01*
%TO.C,R13*%
X28754724Y-48022500D02*
X28245276Y-48022500D01*
X28754724Y-46977500D02*
X28245276Y-46977500D01*
%TO.C,R12*%
X59245276Y-44477500D02*
X59754724Y-44477500D01*
X59245276Y-45522500D02*
X59754724Y-45522500D01*
%TO.C,R11*%
X28754724Y-45522500D02*
X28245276Y-45522500D01*
X28754724Y-44477500D02*
X28245276Y-44477500D01*
%TO.C,R10*%
X59245276Y-41977500D02*
X59754724Y-41977500D01*
X59245276Y-43022500D02*
X59754724Y-43022500D01*
%TO.C,R9*%
X28754724Y-43022500D02*
X28245276Y-43022500D01*
X28754724Y-41977500D02*
X28245276Y-41977500D01*
%TO.C,R8*%
X59245276Y-39477500D02*
X59754724Y-39477500D01*
X59245276Y-40522500D02*
X59754724Y-40522500D01*
%TO.C,R7*%
X28754724Y-40522500D02*
X28245276Y-40522500D01*
X28754724Y-39477500D02*
X28245276Y-39477500D01*
%TO.C,R6*%
X59245276Y-36977500D02*
X59754724Y-36977500D01*
X59245276Y-38022500D02*
X59754724Y-38022500D01*
%TO.C,R5*%
X28754724Y-38022500D02*
X28245276Y-38022500D01*
X28754724Y-36977500D02*
X28245276Y-36977500D01*
%TO.C,R4*%
X59245276Y-34477500D02*
X59754724Y-34477500D01*
X59245276Y-35522500D02*
X59754724Y-35522500D01*
%TO.C,R3*%
X28754724Y-35522500D02*
X28245276Y-35522500D01*
X28754724Y-34477500D02*
X28245276Y-34477500D01*
%TO.C,R2*%
X39254724Y-38522500D02*
X38745276Y-38522500D01*
X39254724Y-37477500D02*
X38745276Y-37477500D01*
%TO.C,R1*%
X38745276Y-34977500D02*
X39254724Y-34977500D01*
X38745276Y-36022500D02*
X39254724Y-36022500D01*
%TO.C,Q52*%
X39940000Y-22937500D02*
X39940000Y-22287500D01*
X39940000Y-22937500D02*
X39940000Y-23587500D01*
X43060000Y-22937500D02*
X43060000Y-22287500D01*
X43060000Y-22937500D02*
X43060000Y-23587500D01*
X39990000Y-24100000D02*
X39660000Y-24340000D01*
X39660000Y-23860000D01*
X39990000Y-24100000D01*
G36*
X39990000Y-24100000D02*
G01*
X39660000Y-24340000D01*
X39660000Y-23860000D01*
X39990000Y-24100000D01*
G37*
%TO.C,Q10*%
X48940000Y-65062500D02*
X48940000Y-64412500D01*
X48940000Y-65062500D02*
X48940000Y-65712500D01*
X52060000Y-65062500D02*
X52060000Y-64412500D01*
X52060000Y-65062500D02*
X52060000Y-65712500D01*
X52340000Y-64140000D02*
X52010000Y-63900000D01*
X52340000Y-63660000D01*
X52340000Y-64140000D01*
G36*
X52340000Y-64140000D02*
G01*
X52010000Y-63900000D01*
X52340000Y-63660000D01*
X52340000Y-64140000D01*
G37*
%TO.C,Y1*%
X23620000Y-14830000D02*
X23620000Y-13500000D01*
X24950000Y-14830000D02*
X23620000Y-14830000D01*
X26220000Y-12170000D02*
X64380000Y-12170000D01*
X26220000Y-14830000D02*
X26220000Y-12170000D01*
X26220000Y-14830000D02*
X64380000Y-14830000D01*
X64380000Y-14830000D02*
X64380000Y-12170000D01*
D12*
%TO.C,Q77*%
X16000000Y-38150000D02*
X17000000Y-38150000D01*
X17350000Y-38350000D02*
X17650000Y-38350000D01*
X17350000Y-40350000D02*
X17350000Y-38350000D01*
X17650000Y-38350000D02*
X17650000Y-40350000D01*
X17650000Y-40350000D02*
X17350000Y-40350000D01*
%TO.C,Q81*%
X16000000Y-35150000D02*
X17000000Y-35150000D01*
X17350000Y-35350000D02*
X17650000Y-35350000D01*
X17350000Y-37350000D02*
X17350000Y-35350000D01*
X17650000Y-35350000D02*
X17650000Y-37350000D01*
X17650000Y-37350000D02*
X17350000Y-37350000D01*
D11*
%TO.C,Q82*%
X65062500Y-30940000D02*
X64412500Y-30940000D01*
X65062500Y-30940000D02*
X65712500Y-30940000D01*
X65062500Y-34060000D02*
X64412500Y-34060000D01*
X65062500Y-34060000D02*
X65712500Y-34060000D01*
X63900000Y-30990000D02*
X63660000Y-30660000D01*
X64140000Y-30660000D01*
X63900000Y-30990000D01*
G36*
X63900000Y-30990000D02*
G01*
X63660000Y-30660000D01*
X64140000Y-30660000D01*
X63900000Y-30990000D01*
G37*
%TO.C,Q46*%
X35440000Y-22937500D02*
X35440000Y-22287500D01*
X35440000Y-22937500D02*
X35440000Y-23587500D01*
X38560000Y-22937500D02*
X38560000Y-22287500D01*
X38560000Y-22937500D02*
X38560000Y-23587500D01*
X35490000Y-24100000D02*
X35160000Y-24340000D01*
X35160000Y-23860000D01*
X35490000Y-24100000D01*
G36*
X35490000Y-24100000D02*
G01*
X35160000Y-24340000D01*
X35160000Y-23860000D01*
X35490000Y-24100000D01*
G37*
%TO.C,Q79*%
X65062500Y-35440000D02*
X64412500Y-35440000D01*
X65062500Y-35440000D02*
X65712500Y-35440000D01*
X65062500Y-38560000D02*
X64412500Y-38560000D01*
X65062500Y-38560000D02*
X65712500Y-38560000D01*
X63900000Y-35490000D02*
X63660000Y-35160000D01*
X64140000Y-35160000D01*
X63900000Y-35490000D01*
G36*
X63900000Y-35490000D02*
G01*
X63660000Y-35160000D01*
X64140000Y-35160000D01*
X63900000Y-35490000D01*
G37*
%TO.C,X1*%
X12170000Y-23620000D02*
X13500000Y-23620000D01*
X12170000Y-24950000D02*
X12170000Y-23620000D01*
X12170000Y-26220000D02*
X12170000Y-64380000D01*
X12170000Y-26220000D02*
X14830000Y-26220000D01*
X12170000Y-64380000D02*
X14830000Y-64380000D01*
X14830000Y-26220000D02*
X14830000Y-64380000D01*
D12*
%TO.C,Q24*%
X26150000Y-72000000D02*
X26150000Y-71000000D01*
X26350000Y-70350000D02*
X28350000Y-70350000D01*
X26350000Y-70650000D02*
X26350000Y-70350000D01*
X28350000Y-70350000D02*
X28350000Y-70650000D01*
X28350000Y-70650000D02*
X26350000Y-70650000D01*
D11*
%TO.C,Q19*%
X30940000Y-65062500D02*
X30940000Y-64412500D01*
X30940000Y-65062500D02*
X30940000Y-65712500D01*
X34060000Y-65062500D02*
X34060000Y-64412500D01*
X34060000Y-65062500D02*
X34060000Y-65712500D01*
X34340000Y-64140000D02*
X34010000Y-63900000D01*
X34340000Y-63660000D01*
X34340000Y-64140000D01*
G36*
X34340000Y-64140000D02*
G01*
X34010000Y-63900000D01*
X34340000Y-63660000D01*
X34340000Y-64140000D01*
G37*
D12*
%TO.C,Q57*%
X56150000Y-72000000D02*
X56150000Y-71000000D01*
X56350000Y-70350000D02*
X58350000Y-70350000D01*
X56350000Y-70650000D02*
X56350000Y-70350000D01*
X58350000Y-70350000D02*
X58350000Y-70650000D01*
X58350000Y-70650000D02*
X56350000Y-70650000D01*
D11*
%TO.C,Q34*%
X22937500Y-30940000D02*
X22287500Y-30940000D01*
X22937500Y-30940000D02*
X23587500Y-30940000D01*
X22937500Y-34060000D02*
X22287500Y-34060000D01*
X22937500Y-34060000D02*
X23587500Y-34060000D01*
X24340000Y-34340000D02*
X23860000Y-34340000D01*
X24100000Y-34010000D01*
X24340000Y-34340000D01*
G36*
X24340000Y-34340000D02*
G01*
X23860000Y-34340000D01*
X24100000Y-34010000D01*
X24340000Y-34340000D01*
G37*
%TO.C,Q25*%
X65062500Y-44440000D02*
X64412500Y-44440000D01*
X65062500Y-44440000D02*
X65712500Y-44440000D01*
X65062500Y-47560000D02*
X64412500Y-47560000D01*
X65062500Y-47560000D02*
X65712500Y-47560000D01*
X63900000Y-44490000D02*
X63660000Y-44160000D01*
X64140000Y-44160000D01*
X63900000Y-44490000D01*
G36*
X63900000Y-44490000D02*
G01*
X63660000Y-44160000D01*
X64140000Y-44160000D01*
X63900000Y-44490000D01*
G37*
D12*
%TO.C,Q44*%
X35150000Y-72000000D02*
X35150000Y-71000000D01*
X35350000Y-70350000D02*
X37350000Y-70350000D01*
X35350000Y-70650000D02*
X35350000Y-70350000D01*
X37350000Y-70350000D02*
X37350000Y-70650000D01*
X37350000Y-70650000D02*
X35350000Y-70650000D01*
%TO.C,Q78*%
X70350000Y-38650000D02*
X70650000Y-38650000D01*
X70350000Y-40650000D02*
X70350000Y-38650000D01*
X70650000Y-38650000D02*
X70650000Y-40650000D01*
X70650000Y-40650000D02*
X70350000Y-40650000D01*
X72000000Y-40850000D02*
X71000000Y-40850000D01*
D11*
%TO.C,Q28*%
X22937500Y-48990000D02*
X22287500Y-48990000D01*
X22937500Y-48990000D02*
X23587500Y-48990000D01*
X22937500Y-52110000D02*
X22287500Y-52110000D01*
X22937500Y-52110000D02*
X23587500Y-52110000D01*
X24340000Y-52390000D02*
X23860000Y-52390000D01*
X24100000Y-52060000D01*
X24340000Y-52390000D01*
G36*
X24340000Y-52390000D02*
G01*
X23860000Y-52390000D01*
X24100000Y-52060000D01*
X24340000Y-52390000D01*
G37*
%TO.C,MADX1*%
X31240000Y-33780000D02*
X32570000Y-33780000D01*
X31240000Y-35110000D02*
X31240000Y-33780000D01*
X31240000Y-36380000D02*
X31240000Y-54220000D01*
X31240000Y-36380000D02*
X33900000Y-36380000D01*
X31240000Y-54220000D02*
X33900000Y-54220000D01*
X33900000Y-36380000D02*
X33900000Y-54220000D01*
%TO.C,Q49*%
X39940000Y-65062500D02*
X39940000Y-64412500D01*
X39940000Y-65062500D02*
X39940000Y-65712500D01*
X43060000Y-65062500D02*
X43060000Y-64412500D01*
X43060000Y-65062500D02*
X43060000Y-65712500D01*
X43340000Y-64140000D02*
X43010000Y-63900000D01*
X43340000Y-63660000D01*
X43340000Y-64140000D01*
G36*
X43340000Y-64140000D02*
G01*
X43010000Y-63900000D01*
X43340000Y-63660000D01*
X43340000Y-64140000D01*
G37*
%TO.C,Q67*%
X22937500Y-53440000D02*
X22287500Y-53440000D01*
X22937500Y-53440000D02*
X23587500Y-53440000D01*
X22937500Y-56560000D02*
X22287500Y-56560000D01*
X22937500Y-56560000D02*
X23587500Y-56560000D01*
X24340000Y-56840000D02*
X23860000Y-56840000D01*
X24100000Y-56510000D01*
X24340000Y-56840000D01*
G36*
X24340000Y-56840000D02*
G01*
X23860000Y-56840000D01*
X24100000Y-56510000D01*
X24340000Y-56840000D01*
G37*
D12*
%TO.C,Q87*%
X70350000Y-32650000D02*
X70650000Y-32650000D01*
X70350000Y-34650000D02*
X70350000Y-32650000D01*
X70650000Y-32650000D02*
X70650000Y-34650000D01*
X70650000Y-34650000D02*
X70350000Y-34650000D01*
X72000000Y-34850000D02*
X71000000Y-34850000D01*
D11*
%TO.C,MADY2*%
X33780000Y-56760000D02*
X33780000Y-55430000D01*
X35110000Y-56760000D02*
X33780000Y-56760000D01*
X36380000Y-54100000D02*
X54220000Y-54100000D01*
X36380000Y-56760000D02*
X36380000Y-54100000D01*
X36380000Y-56760000D02*
X54220000Y-56760000D01*
X54220000Y-56760000D02*
X54220000Y-54100000D01*
D12*
%TO.C,Q54*%
X38150000Y-72000000D02*
X38150000Y-71000000D01*
X38350000Y-70350000D02*
X40350000Y-70350000D01*
X38350000Y-70650000D02*
X38350000Y-70350000D01*
X40350000Y-70350000D02*
X40350000Y-70650000D01*
X40350000Y-70650000D02*
X38350000Y-70650000D01*
D11*
%TO.C,Q61*%
X53440000Y-65062500D02*
X53440000Y-64412500D01*
X53440000Y-65062500D02*
X53440000Y-65712500D01*
X56560000Y-65062500D02*
X56560000Y-64412500D01*
X56560000Y-65062500D02*
X56560000Y-65712500D01*
X56840000Y-64140000D02*
X56510000Y-63900000D01*
X56840000Y-63660000D01*
X56840000Y-64140000D01*
G36*
X56840000Y-64140000D02*
G01*
X56510000Y-63900000D01*
X56840000Y-63660000D01*
X56840000Y-64140000D01*
G37*
%TO.C,X2*%
X73170000Y-23620000D02*
X74500000Y-23620000D01*
X73170000Y-24950000D02*
X73170000Y-23620000D01*
X73170000Y-26220000D02*
X73170000Y-64380000D01*
X73170000Y-26220000D02*
X75830000Y-26220000D01*
X73170000Y-64380000D02*
X75830000Y-64380000D01*
X75830000Y-26220000D02*
X75830000Y-64380000D01*
%TO.C,Q1*%
X44440000Y-65062500D02*
X44440000Y-64412500D01*
X44440000Y-65062500D02*
X44440000Y-65712500D01*
X47560000Y-65062500D02*
X47560000Y-64412500D01*
X47560000Y-65062500D02*
X47560000Y-65712500D01*
X47840000Y-64140000D02*
X47510000Y-63900000D01*
X47840000Y-63660000D01*
X47840000Y-64140000D01*
G36*
X47840000Y-64140000D02*
G01*
X47510000Y-63900000D01*
X47840000Y-63660000D01*
X47840000Y-64140000D01*
G37*
%TO.C,PWR1*%
X12170000Y-12170000D02*
X13500000Y-12170000D01*
X12170000Y-13500000D02*
X12170000Y-12170000D01*
X12170000Y-14770000D02*
X12170000Y-17370000D01*
X12170000Y-14770000D02*
X14830000Y-14770000D01*
X12170000Y-17370000D02*
X14830000Y-17370000D01*
X14830000Y-14770000D02*
X14830000Y-17370000D01*
D12*
%TO.C,Q5*%
X44650000Y-17350000D02*
X46650000Y-17350000D01*
X44650000Y-17650000D02*
X44650000Y-17350000D01*
X46650000Y-17350000D02*
X46650000Y-17650000D01*
X46650000Y-17650000D02*
X44650000Y-17650000D01*
X46850000Y-16000000D02*
X46850000Y-17000000D01*
D11*
%TO.C,DAT1*%
X33780000Y-33780000D02*
X35110000Y-33780000D01*
X33780000Y-35110000D02*
X33780000Y-33780000D01*
X33780000Y-36380000D02*
X33780000Y-38980000D01*
X33780000Y-36380000D02*
X36440000Y-36380000D01*
X33780000Y-38980000D02*
X36440000Y-38980000D01*
X36440000Y-36380000D02*
X36440000Y-38980000D01*
D12*
%TO.C,Q93*%
X70350000Y-62650000D02*
X70650000Y-62650000D01*
X70350000Y-64650000D02*
X70350000Y-62650000D01*
X70650000Y-62650000D02*
X70650000Y-64650000D01*
X70650000Y-64650000D02*
X70350000Y-64650000D01*
X72000000Y-64850000D02*
X71000000Y-64850000D01*
D11*
%TO.C,Q73*%
X65062500Y-39940000D02*
X64412500Y-39940000D01*
X65062500Y-39940000D02*
X65712500Y-39940000D01*
X65062500Y-43060000D02*
X64412500Y-43060000D01*
X65062500Y-43060000D02*
X65712500Y-43060000D01*
X63900000Y-39990000D02*
X63660000Y-39660000D01*
X64140000Y-39660000D01*
X63900000Y-39990000D01*
G36*
X63900000Y-39990000D02*
G01*
X63660000Y-39660000D01*
X64140000Y-39660000D01*
X63900000Y-39990000D01*
G37*
D12*
%TO.C,Q51*%
X41650000Y-17350000D02*
X43650000Y-17350000D01*
X41650000Y-17650000D02*
X41650000Y-17350000D01*
X43650000Y-17350000D02*
X43650000Y-17650000D01*
X43650000Y-17650000D02*
X41650000Y-17650000D01*
X43850000Y-16000000D02*
X43850000Y-17000000D01*
%TO.C,Q38*%
X16000000Y-20150000D02*
X17000000Y-20150000D01*
X17350000Y-20350000D02*
X17650000Y-20350000D01*
X17350000Y-22350000D02*
X17350000Y-20350000D01*
X17650000Y-20350000D02*
X17650000Y-22350000D01*
X17650000Y-22350000D02*
X17350000Y-22350000D01*
D11*
%TO.C,MADX2*%
X54100000Y-33780000D02*
X55430000Y-33780000D01*
X54100000Y-35110000D02*
X54100000Y-33780000D01*
X54100000Y-36380000D02*
X54100000Y-54220000D01*
X54100000Y-36380000D02*
X56760000Y-36380000D01*
X54100000Y-54220000D02*
X56760000Y-54220000D01*
X56760000Y-36380000D02*
X56760000Y-54220000D01*
D12*
%TO.C,Q41*%
X70350000Y-23650000D02*
X70650000Y-23650000D01*
X70350000Y-25650000D02*
X70350000Y-23650000D01*
X70650000Y-23650000D02*
X70650000Y-25650000D01*
X70650000Y-25650000D02*
X70350000Y-25650000D01*
X72000000Y-25850000D02*
X71000000Y-25850000D01*
%TO.C,Q11*%
X53150000Y-72000000D02*
X53150000Y-71000000D01*
X53350000Y-70350000D02*
X55350000Y-70350000D01*
X53350000Y-70650000D02*
X53350000Y-70350000D01*
X55350000Y-70350000D02*
X55350000Y-70650000D01*
X55350000Y-70650000D02*
X53350000Y-70650000D01*
%TO.C,Q92*%
X16000000Y-62150000D02*
X17000000Y-62150000D01*
X17350000Y-62350000D02*
X17650000Y-62350000D01*
X17350000Y-64350000D02*
X17350000Y-62350000D01*
X17650000Y-62350000D02*
X17650000Y-64350000D01*
X17650000Y-64350000D02*
X17350000Y-64350000D01*
%TO.C,Q80*%
X70350000Y-35650000D02*
X70650000Y-35650000D01*
X70350000Y-37650000D02*
X70350000Y-35650000D01*
X70650000Y-35650000D02*
X70650000Y-37650000D01*
X70650000Y-37650000D02*
X70350000Y-37650000D01*
X72000000Y-37850000D02*
X71000000Y-37850000D01*
%TO.C,Q60*%
X65650000Y-17350000D02*
X67650000Y-17350000D01*
X65650000Y-17650000D02*
X65650000Y-17350000D01*
X67650000Y-17350000D02*
X67650000Y-17650000D01*
X67650000Y-17650000D02*
X65650000Y-17650000D01*
X67850000Y-16000000D02*
X67850000Y-17000000D01*
D11*
%TO.C,Q70*%
X65062500Y-48940000D02*
X64412500Y-48940000D01*
X65062500Y-48940000D02*
X65712500Y-48940000D01*
X65062500Y-52060000D02*
X64412500Y-52060000D01*
X65062500Y-52060000D02*
X65712500Y-52060000D01*
X63900000Y-48990000D02*
X63660000Y-48660000D01*
X64140000Y-48660000D01*
X63900000Y-48990000D01*
G36*
X63900000Y-48990000D02*
G01*
X63660000Y-48660000D01*
X64140000Y-48660000D01*
X63900000Y-48990000D01*
G37*
D12*
%TO.C,Q20*%
X29150000Y-72000000D02*
X29150000Y-71000000D01*
X29350000Y-70350000D02*
X31350000Y-70350000D01*
X29350000Y-70650000D02*
X29350000Y-70350000D01*
X31350000Y-70350000D02*
X31350000Y-70650000D01*
X31350000Y-70650000D02*
X29350000Y-70650000D01*
D11*
%TO.C,Q7*%
X48940000Y-22937500D02*
X48940000Y-22287500D01*
X48940000Y-22937500D02*
X48940000Y-23587500D01*
X52060000Y-22937500D02*
X52060000Y-22287500D01*
X52060000Y-22937500D02*
X52060000Y-23587500D01*
X48990000Y-24100000D02*
X48660000Y-24340000D01*
X48660000Y-23860000D01*
X48990000Y-24100000D01*
G36*
X48990000Y-24100000D02*
G01*
X48660000Y-24340000D01*
X48660000Y-23860000D01*
X48990000Y-24100000D01*
G37*
D12*
%TO.C,Q66*%
X62150000Y-72000000D02*
X62150000Y-71000000D01*
X62350000Y-70350000D02*
X64350000Y-70350000D01*
X62350000Y-70650000D02*
X62350000Y-70350000D01*
X64350000Y-70350000D02*
X64350000Y-70650000D01*
X64350000Y-70650000D02*
X62350000Y-70650000D01*
%TO.C,Q53*%
X38650000Y-17350000D02*
X40650000Y-17350000D01*
X38650000Y-17650000D02*
X38650000Y-17350000D01*
X40650000Y-17350000D02*
X40650000Y-17650000D01*
X40650000Y-17650000D02*
X38650000Y-17650000D01*
X40850000Y-16000000D02*
X40850000Y-17000000D01*
%TO.C,Q86*%
X16000000Y-32150000D02*
X17000000Y-32150000D01*
X17350000Y-32350000D02*
X17650000Y-32350000D01*
X17350000Y-34350000D02*
X17350000Y-32350000D01*
X17650000Y-32350000D02*
X17650000Y-34350000D01*
X17650000Y-34350000D02*
X17350000Y-34350000D01*
D11*
%TO.C,Q76*%
X22937500Y-39940000D02*
X22287500Y-39940000D01*
X22937500Y-39940000D02*
X23587500Y-39940000D01*
X22937500Y-43060000D02*
X22287500Y-43060000D01*
X22937500Y-43060000D02*
X23587500Y-43060000D01*
X24340000Y-43340000D02*
X23860000Y-43340000D01*
X24100000Y-43010000D01*
X24340000Y-43340000D01*
G36*
X24340000Y-43340000D02*
G01*
X23860000Y-43340000D01*
X24100000Y-43010000D01*
X24340000Y-43340000D01*
G37*
D12*
%TO.C,Q23*%
X26650000Y-17350000D02*
X28650000Y-17350000D01*
X26650000Y-17650000D02*
X26650000Y-17350000D01*
X28650000Y-17350000D02*
X28650000Y-17650000D01*
X28650000Y-17650000D02*
X26650000Y-17650000D01*
X28850000Y-16000000D02*
X28850000Y-17000000D01*
%TO.C,Q35*%
X16000000Y-26150000D02*
X17000000Y-26150000D01*
X17350000Y-26350000D02*
X17650000Y-26350000D01*
X17350000Y-28350000D02*
X17350000Y-26350000D01*
X17650000Y-26350000D02*
X17650000Y-28350000D01*
X17650000Y-28350000D02*
X17350000Y-28350000D01*
%TO.C,Q3*%
X47650000Y-17350000D02*
X49650000Y-17350000D01*
X47650000Y-17650000D02*
X47650000Y-17350000D01*
X49650000Y-17350000D02*
X49650000Y-17650000D01*
X49650000Y-17650000D02*
X47650000Y-17650000D01*
X49850000Y-16000000D02*
X49850000Y-17000000D01*
%TO.C,Q72*%
X16000000Y-53150000D02*
X17000000Y-53150000D01*
X17350000Y-53350000D02*
X17650000Y-53350000D01*
X17350000Y-55350000D02*
X17350000Y-53350000D01*
X17650000Y-53350000D02*
X17650000Y-55350000D01*
X17650000Y-55350000D02*
X17350000Y-55350000D01*
%TO.C,Q36*%
X70350000Y-26650000D02*
X70650000Y-26650000D01*
X70350000Y-28650000D02*
X70350000Y-26650000D01*
X70650000Y-26650000D02*
X70650000Y-28650000D01*
X70650000Y-28650000D02*
X70350000Y-28650000D01*
X72000000Y-28850000D02*
X71000000Y-28850000D01*
%TO.C,Q48*%
X32150000Y-72000000D02*
X32150000Y-71000000D01*
X32350000Y-70350000D02*
X34350000Y-70350000D01*
X32350000Y-70650000D02*
X32350000Y-70350000D01*
X34350000Y-70350000D02*
X34350000Y-70650000D01*
X34350000Y-70650000D02*
X32350000Y-70650000D01*
D11*
%TO.C,Q64*%
X57940000Y-22937500D02*
X57940000Y-22287500D01*
X57940000Y-22937500D02*
X57940000Y-23587500D01*
X61060000Y-22937500D02*
X61060000Y-22287500D01*
X61060000Y-22937500D02*
X61060000Y-23587500D01*
X57990000Y-24100000D02*
X57660000Y-24340000D01*
X57660000Y-23860000D01*
X57990000Y-24100000D01*
G36*
X57990000Y-24100000D02*
G01*
X57660000Y-24340000D01*
X57660000Y-23860000D01*
X57990000Y-24100000D01*
G37*
D12*
%TO.C,Q27*%
X16000000Y-47150000D02*
X17000000Y-47150000D01*
X17350000Y-47350000D02*
X17650000Y-47350000D01*
X17350000Y-49350000D02*
X17350000Y-47350000D01*
X17650000Y-47350000D02*
X17650000Y-49350000D01*
X17650000Y-49350000D02*
X17350000Y-49350000D01*
%TO.C,Q18*%
X23650000Y-17350000D02*
X25650000Y-17350000D01*
X23650000Y-17650000D02*
X23650000Y-17350000D01*
X25650000Y-17350000D02*
X25650000Y-17650000D01*
X25650000Y-17650000D02*
X23650000Y-17650000D01*
X25850000Y-16000000D02*
X25850000Y-17000000D01*
D11*
%TO.C,Q88*%
X65062500Y-53440000D02*
X64412500Y-53440000D01*
X65062500Y-53440000D02*
X65712500Y-53440000D01*
X65062500Y-56560000D02*
X64412500Y-56560000D01*
X65062500Y-56560000D02*
X65712500Y-56560000D01*
X63900000Y-53490000D02*
X63660000Y-53160000D01*
X64140000Y-53160000D01*
X63900000Y-53490000D01*
G36*
X63900000Y-53490000D02*
G01*
X63660000Y-53160000D01*
X64140000Y-53160000D01*
X63900000Y-53490000D01*
G37*
%TO.C,Y2*%
X23620000Y-75830000D02*
X23620000Y-74500000D01*
X24950000Y-75830000D02*
X23620000Y-75830000D01*
X26220000Y-73170000D02*
X64380000Y-73170000D01*
X26220000Y-75830000D02*
X26220000Y-73170000D01*
X26220000Y-75830000D02*
X64380000Y-75830000D01*
X64380000Y-75830000D02*
X64380000Y-73170000D01*
%TO.C,Q31*%
X22937500Y-44440000D02*
X22287500Y-44440000D01*
X22937500Y-44440000D02*
X23587500Y-44440000D01*
X22937500Y-47560000D02*
X22287500Y-47560000D01*
X22937500Y-47560000D02*
X23587500Y-47560000D01*
X24340000Y-47840000D02*
X23860000Y-47840000D01*
X24100000Y-47510000D01*
X24340000Y-47840000D01*
G36*
X24340000Y-47840000D02*
G01*
X23860000Y-47840000D01*
X24100000Y-47510000D01*
X24340000Y-47840000D01*
G37*
D12*
%TO.C,Q83*%
X70350000Y-29650000D02*
X70650000Y-29650000D01*
X70350000Y-31650000D02*
X70350000Y-29650000D01*
X70650000Y-29650000D02*
X70650000Y-31650000D01*
X70650000Y-31650000D02*
X70350000Y-31650000D01*
X72000000Y-31850000D02*
X71000000Y-31850000D01*
%TO.C,Q33*%
X70350000Y-44650000D02*
X70650000Y-44650000D01*
X70350000Y-46650000D02*
X70350000Y-44650000D01*
X70650000Y-44650000D02*
X70650000Y-46650000D01*
X70650000Y-46650000D02*
X70350000Y-46650000D01*
X72000000Y-46850000D02*
X71000000Y-46850000D01*
%TO.C,Q14*%
X20650000Y-17350000D02*
X22650000Y-17350000D01*
X20650000Y-17650000D02*
X20650000Y-17350000D01*
X22650000Y-17350000D02*
X22650000Y-17650000D01*
X22650000Y-17650000D02*
X20650000Y-17650000D01*
X22850000Y-16000000D02*
X22850000Y-17000000D01*
%TO.C,Q2*%
X47150000Y-72000000D02*
X47150000Y-71000000D01*
X47350000Y-70350000D02*
X49350000Y-70350000D01*
X47350000Y-70650000D02*
X47350000Y-70350000D01*
X49350000Y-70350000D02*
X49350000Y-70650000D01*
X49350000Y-70650000D02*
X47350000Y-70650000D01*
D11*
%TO.C,Q4*%
X44440000Y-22937500D02*
X44440000Y-22287500D01*
X44440000Y-22937500D02*
X44440000Y-23587500D01*
X47560000Y-22937500D02*
X47560000Y-22287500D01*
X47560000Y-22937500D02*
X47560000Y-23587500D01*
X44490000Y-24100000D02*
X44160000Y-24340000D01*
X44160000Y-23860000D01*
X44490000Y-24100000D01*
G36*
X44490000Y-24100000D02*
G01*
X44160000Y-24340000D01*
X44160000Y-23860000D01*
X44490000Y-24100000D01*
G37*
D12*
%TO.C,Q30*%
X70350000Y-50650000D02*
X70650000Y-50650000D01*
X70350000Y-52650000D02*
X70350000Y-50650000D01*
X70650000Y-50650000D02*
X70650000Y-52650000D01*
X70650000Y-52650000D02*
X70350000Y-52650000D01*
X72000000Y-52850000D02*
X71000000Y-52850000D01*
%TO.C,Q21*%
X29650000Y-17350000D02*
X31650000Y-17350000D01*
X29650000Y-17650000D02*
X29650000Y-17350000D01*
X31650000Y-17350000D02*
X31650000Y-17650000D01*
X31650000Y-17650000D02*
X29650000Y-17650000D01*
X31850000Y-16000000D02*
X31850000Y-17000000D01*
%TO.C,Q45*%
X35650000Y-17350000D02*
X37650000Y-17350000D01*
X35650000Y-17650000D02*
X35650000Y-17350000D01*
X37650000Y-17350000D02*
X37650000Y-17650000D01*
X37650000Y-17650000D02*
X35650000Y-17650000D01*
X37850000Y-16000000D02*
X37850000Y-17000000D01*
%TO.C,Q90*%
X16000000Y-59150000D02*
X17000000Y-59150000D01*
X17350000Y-59350000D02*
X17650000Y-59350000D01*
X17350000Y-61350000D02*
X17350000Y-59350000D01*
X17650000Y-59350000D02*
X17650000Y-61350000D01*
X17650000Y-61350000D02*
X17350000Y-61350000D01*
%TO.C,Q89*%
X70350000Y-59650000D02*
X70650000Y-59650000D01*
X70350000Y-61650000D02*
X70350000Y-59650000D01*
X70650000Y-59650000D02*
X70650000Y-61650000D01*
X70650000Y-61650000D02*
X70350000Y-61650000D01*
X72000000Y-61850000D02*
X71000000Y-61850000D01*
%TO.C,Q84*%
X16000000Y-29150000D02*
X17000000Y-29150000D01*
X17350000Y-29350000D02*
X17650000Y-29350000D01*
X17350000Y-31350000D02*
X17350000Y-29350000D01*
X17650000Y-29350000D02*
X17650000Y-31350000D01*
X17650000Y-31350000D02*
X17350000Y-31350000D01*
%TO.C,Q96*%
X16000000Y-65150000D02*
X17000000Y-65150000D01*
X17350000Y-65350000D02*
X17650000Y-65350000D01*
X17350000Y-67350000D02*
X17350000Y-65350000D01*
X17650000Y-65350000D02*
X17650000Y-67350000D01*
X17650000Y-67350000D02*
X17350000Y-67350000D01*
%TO.C,Q9*%
X50150000Y-72000000D02*
X50150000Y-71000000D01*
X50350000Y-70350000D02*
X52350000Y-70350000D01*
X50350000Y-70650000D02*
X50350000Y-70350000D01*
X52350000Y-70350000D02*
X52350000Y-70650000D01*
X52350000Y-70650000D02*
X50350000Y-70650000D01*
%TO.C,Q6*%
X44150000Y-72000000D02*
X44150000Y-71000000D01*
X44350000Y-70350000D02*
X46350000Y-70350000D01*
X44350000Y-70650000D02*
X44350000Y-70350000D01*
X46350000Y-70350000D02*
X46350000Y-70650000D01*
X46350000Y-70650000D02*
X44350000Y-70650000D01*
%TO.C,Q71*%
X70350000Y-53650000D02*
X70650000Y-53650000D01*
X70350000Y-55650000D02*
X70350000Y-53650000D01*
X70650000Y-53650000D02*
X70650000Y-55650000D01*
X70650000Y-55650000D02*
X70350000Y-55650000D01*
X72000000Y-55850000D02*
X71000000Y-55850000D01*
%TO.C,Q17*%
X23150000Y-72000000D02*
X23150000Y-71000000D01*
X23350000Y-70350000D02*
X25350000Y-70350000D01*
X23350000Y-70650000D02*
X23350000Y-70350000D01*
X25350000Y-70350000D02*
X25350000Y-70650000D01*
X25350000Y-70650000D02*
X23350000Y-70650000D01*
%TO.C,Q56*%
X56650000Y-17350000D02*
X58650000Y-17350000D01*
X56650000Y-17650000D02*
X56650000Y-17350000D01*
X58650000Y-17350000D02*
X58650000Y-17650000D01*
X58650000Y-17650000D02*
X56650000Y-17650000D01*
X58850000Y-16000000D02*
X58850000Y-17000000D01*
D11*
%TO.C,Q43*%
X35440000Y-65062500D02*
X35440000Y-64412500D01*
X35440000Y-65062500D02*
X35440000Y-65712500D01*
X38560000Y-65062500D02*
X38560000Y-64412500D01*
X38560000Y-65062500D02*
X38560000Y-65712500D01*
X38840000Y-64140000D02*
X38510000Y-63900000D01*
X38840000Y-63660000D01*
X38840000Y-64140000D01*
G36*
X38840000Y-64140000D02*
G01*
X38510000Y-63900000D01*
X38840000Y-63660000D01*
X38840000Y-64140000D01*
G37*
D12*
%TO.C,Q32*%
X16000000Y-44150000D02*
X17000000Y-44150000D01*
X17350000Y-44350000D02*
X17650000Y-44350000D01*
X17350000Y-46350000D02*
X17350000Y-44350000D01*
X17650000Y-44350000D02*
X17650000Y-46350000D01*
X17650000Y-46350000D02*
X17350000Y-46350000D01*
%TO.C,Q8*%
X50650000Y-17350000D02*
X52650000Y-17350000D01*
X50650000Y-17650000D02*
X50650000Y-17350000D01*
X52650000Y-17350000D02*
X52650000Y-17650000D01*
X52650000Y-17650000D02*
X50650000Y-17650000D01*
X52850000Y-16000000D02*
X52850000Y-17000000D01*
D11*
%TO.C,Q58*%
X57940000Y-65062500D02*
X57940000Y-64412500D01*
X57940000Y-65062500D02*
X57940000Y-65712500D01*
X61060000Y-65062500D02*
X61060000Y-64412500D01*
X61060000Y-65062500D02*
X61060000Y-65712500D01*
X61340000Y-64140000D02*
X61010000Y-63900000D01*
X61340000Y-63660000D01*
X61340000Y-64140000D01*
G36*
X61340000Y-64140000D02*
G01*
X61010000Y-63900000D01*
X61340000Y-63660000D01*
X61340000Y-64140000D01*
G37*
%TO.C,MADY1*%
X33780000Y-33900000D02*
X33780000Y-32570000D01*
X35110000Y-33900000D02*
X33780000Y-33900000D01*
X36380000Y-31240000D02*
X54220000Y-31240000D01*
X36380000Y-33900000D02*
X36380000Y-31240000D01*
X36380000Y-33900000D02*
X54220000Y-33900000D01*
X54220000Y-33900000D02*
X54220000Y-31240000D01*
D12*
%TO.C,Q47*%
X32650000Y-17350000D02*
X34650000Y-17350000D01*
X32650000Y-17650000D02*
X32650000Y-17350000D01*
X34650000Y-17350000D02*
X34650000Y-17650000D01*
X34650000Y-17650000D02*
X32650000Y-17650000D01*
X34850000Y-16000000D02*
X34850000Y-17000000D01*
%TO.C,Q29*%
X16000000Y-50150000D02*
X17000000Y-50150000D01*
X17350000Y-50350000D02*
X17650000Y-50350000D01*
X17350000Y-52350000D02*
X17350000Y-50350000D01*
X17650000Y-50350000D02*
X17650000Y-52350000D01*
X17650000Y-52350000D02*
X17350000Y-52350000D01*
%TO.C,Q15*%
X20150000Y-72000000D02*
X20150000Y-71000000D01*
X20350000Y-70350000D02*
X22350000Y-70350000D01*
X20350000Y-70650000D02*
X20350000Y-70350000D01*
X22350000Y-70350000D02*
X22350000Y-70650000D01*
X22350000Y-70650000D02*
X20350000Y-70650000D01*
%TO.C,Q63*%
X59650000Y-17350000D02*
X61650000Y-17350000D01*
X59650000Y-17650000D02*
X59650000Y-17350000D01*
X61650000Y-17350000D02*
X61650000Y-17650000D01*
X61650000Y-17650000D02*
X59650000Y-17650000D01*
X61850000Y-16000000D02*
X61850000Y-17000000D01*
D11*
%TO.C,Q13*%
X26440000Y-22937500D02*
X26440000Y-22287500D01*
X26440000Y-22937500D02*
X26440000Y-23587500D01*
X29560000Y-22937500D02*
X29560000Y-22287500D01*
X29560000Y-22937500D02*
X29560000Y-23587500D01*
X26490000Y-24100000D02*
X26160000Y-24340000D01*
X26160000Y-23860000D01*
X26490000Y-24100000D01*
G36*
X26490000Y-24100000D02*
G01*
X26160000Y-24340000D01*
X26160000Y-23860000D01*
X26490000Y-24100000D01*
G37*
%TO.C,Q40*%
X65062500Y-26440000D02*
X64412500Y-26440000D01*
X65062500Y-26440000D02*
X65712500Y-26440000D01*
X65062500Y-29560000D02*
X64412500Y-29560000D01*
X65062500Y-29560000D02*
X65712500Y-29560000D01*
X63900000Y-26490000D02*
X63660000Y-26160000D01*
X64140000Y-26160000D01*
X63900000Y-26490000D01*
G36*
X63900000Y-26490000D02*
G01*
X63660000Y-26160000D01*
X64140000Y-26160000D01*
X63900000Y-26490000D01*
G37*
D12*
%TO.C,Q75*%
X16000000Y-41150000D02*
X17000000Y-41150000D01*
X17350000Y-41350000D02*
X17650000Y-41350000D01*
X17350000Y-43350000D02*
X17350000Y-41350000D01*
X17650000Y-41350000D02*
X17650000Y-43350000D01*
X17650000Y-43350000D02*
X17350000Y-43350000D01*
%TO.C,Q68*%
X16000000Y-56150000D02*
X17000000Y-56150000D01*
X17350000Y-56350000D02*
X17650000Y-56350000D01*
X17350000Y-58350000D02*
X17350000Y-56350000D01*
X17650000Y-56350000D02*
X17650000Y-58350000D01*
X17650000Y-58350000D02*
X17350000Y-58350000D01*
%TO.C,Q26*%
X70350000Y-47650000D02*
X70650000Y-47650000D01*
X70350000Y-49650000D02*
X70350000Y-47650000D01*
X70650000Y-47650000D02*
X70650000Y-49650000D01*
X70650000Y-49650000D02*
X70350000Y-49650000D01*
X72000000Y-49850000D02*
X71000000Y-49850000D01*
%TO.C,Q69*%
X70350000Y-56650000D02*
X70650000Y-56650000D01*
X70350000Y-58650000D02*
X70350000Y-56650000D01*
X70650000Y-56650000D02*
X70650000Y-58650000D01*
X70650000Y-58650000D02*
X70350000Y-58650000D01*
X72000000Y-58850000D02*
X71000000Y-58850000D01*
%TO.C,Q59*%
X65150000Y-72000000D02*
X65150000Y-71000000D01*
X65350000Y-70350000D02*
X67350000Y-70350000D01*
X65350000Y-70650000D02*
X65350000Y-70350000D01*
X67350000Y-70350000D02*
X67350000Y-70650000D01*
X67350000Y-70650000D02*
X65350000Y-70650000D01*
%TO.C,Q12*%
X53650000Y-17350000D02*
X55650000Y-17350000D01*
X53650000Y-17650000D02*
X53650000Y-17350000D01*
X55650000Y-17350000D02*
X55650000Y-17650000D01*
X55650000Y-17650000D02*
X53650000Y-17650000D01*
X55850000Y-16000000D02*
X55850000Y-17000000D01*
D11*
%TO.C,Q37*%
X22937500Y-26440000D02*
X22287500Y-26440000D01*
X22937500Y-26440000D02*
X23587500Y-26440000D01*
X22937500Y-29560000D02*
X22287500Y-29560000D01*
X22937500Y-29560000D02*
X23587500Y-29560000D01*
X24340000Y-29840000D02*
X23860000Y-29840000D01*
X24100000Y-29510000D01*
X24340000Y-29840000D01*
G36*
X24340000Y-29840000D02*
G01*
X23860000Y-29840000D01*
X24100000Y-29510000D01*
X24340000Y-29840000D01*
G37*
%TO.C,Q85*%
X22937500Y-35440000D02*
X22287500Y-35440000D01*
X22937500Y-35440000D02*
X23587500Y-35440000D01*
X22937500Y-38560000D02*
X22287500Y-38560000D01*
X22937500Y-38560000D02*
X23587500Y-38560000D01*
X24340000Y-38840000D02*
X23860000Y-38840000D01*
X24100000Y-38510000D01*
X24340000Y-38840000D01*
G36*
X24340000Y-38840000D02*
G01*
X23860000Y-38840000D01*
X24100000Y-38510000D01*
X24340000Y-38840000D01*
G37*
%TO.C,Q55*%
X53440000Y-22937500D02*
X53440000Y-22287500D01*
X53440000Y-22937500D02*
X53440000Y-23587500D01*
X56560000Y-22937500D02*
X56560000Y-22287500D01*
X56560000Y-22937500D02*
X56560000Y-23587500D01*
X53490000Y-24100000D02*
X53160000Y-24340000D01*
X53160000Y-23860000D01*
X53490000Y-24100000D01*
G36*
X53490000Y-24100000D02*
G01*
X53160000Y-24340000D01*
X53160000Y-23860000D01*
X53490000Y-24100000D01*
G37*
D12*
%TO.C,Q50*%
X41150000Y-72000000D02*
X41150000Y-71000000D01*
X41350000Y-70350000D02*
X43350000Y-70350000D01*
X41350000Y-70650000D02*
X41350000Y-70350000D01*
X43350000Y-70350000D02*
X43350000Y-70650000D01*
X43350000Y-70650000D02*
X41350000Y-70650000D01*
D11*
%TO.C,Q91*%
X22937500Y-57940000D02*
X22287500Y-57940000D01*
X22937500Y-57940000D02*
X23587500Y-57940000D01*
X22937500Y-61060000D02*
X22287500Y-61060000D01*
X22937500Y-61060000D02*
X23587500Y-61060000D01*
X24340000Y-61340000D02*
X23860000Y-61340000D01*
X24100000Y-61010000D01*
X24340000Y-61340000D01*
G36*
X24340000Y-61340000D02*
G01*
X23860000Y-61340000D01*
X24100000Y-61010000D01*
X24340000Y-61340000D01*
G37*
%TO.C,Q22*%
X30940000Y-22937500D02*
X30940000Y-22287500D01*
X30940000Y-22937500D02*
X30940000Y-23587500D01*
X34060000Y-22937500D02*
X34060000Y-22287500D01*
X34060000Y-22937500D02*
X34060000Y-23587500D01*
X30990000Y-24100000D02*
X30660000Y-24340000D01*
X30660000Y-23860000D01*
X30990000Y-24100000D01*
G36*
X30990000Y-24100000D02*
G01*
X30660000Y-24340000D01*
X30660000Y-23860000D01*
X30990000Y-24100000D01*
G37*
%TO.C,Q94*%
X65062500Y-57940000D02*
X64412500Y-57940000D01*
X65062500Y-57940000D02*
X65712500Y-57940000D01*
X65062500Y-61060000D02*
X64412500Y-61060000D01*
X65062500Y-61060000D02*
X65712500Y-61060000D01*
X63900000Y-57990000D02*
X63660000Y-57660000D01*
X64140000Y-57660000D01*
X63900000Y-57990000D01*
G36*
X63900000Y-57990000D02*
G01*
X63660000Y-57660000D01*
X64140000Y-57660000D01*
X63900000Y-57990000D01*
G37*
D12*
%TO.C,Q65*%
X62650000Y-17350000D02*
X64650000Y-17350000D01*
X62650000Y-17650000D02*
X62650000Y-17350000D01*
X64650000Y-17350000D02*
X64650000Y-17650000D01*
X64650000Y-17650000D02*
X62650000Y-17650000D01*
X64850000Y-16000000D02*
X64850000Y-17000000D01*
%TO.C,Q74*%
X70350000Y-41650000D02*
X70650000Y-41650000D01*
X70350000Y-43650000D02*
X70350000Y-41650000D01*
X70650000Y-41650000D02*
X70650000Y-43650000D01*
X70650000Y-43650000D02*
X70350000Y-43650000D01*
X72000000Y-43850000D02*
X71000000Y-43850000D01*
%TO.C,Q95*%
X70350000Y-65650000D02*
X70650000Y-65650000D01*
X70350000Y-67650000D02*
X70350000Y-65650000D01*
X70650000Y-65650000D02*
X70650000Y-67650000D01*
X70650000Y-67650000D02*
X70350000Y-67650000D01*
X72000000Y-67850000D02*
X71000000Y-67850000D01*
%TO.C,Q62*%
X59150000Y-72000000D02*
X59150000Y-71000000D01*
X59350000Y-70350000D02*
X61350000Y-70350000D01*
X59350000Y-70650000D02*
X59350000Y-70350000D01*
X61350000Y-70350000D02*
X61350000Y-70650000D01*
X61350000Y-70650000D02*
X59350000Y-70650000D01*
%TO.C,Q42*%
X16000000Y-23150000D02*
X17000000Y-23150000D01*
X17350000Y-23350000D02*
X17650000Y-23350000D01*
X17350000Y-25350000D02*
X17350000Y-23350000D01*
X17650000Y-23350000D02*
X17650000Y-25350000D01*
X17650000Y-25350000D02*
X17350000Y-25350000D01*
%TO.C,Q39*%
X70350000Y-20650000D02*
X70650000Y-20650000D01*
X70350000Y-22650000D02*
X70350000Y-20650000D01*
X70650000Y-20650000D02*
X70650000Y-22650000D01*
X70650000Y-22650000D02*
X70350000Y-22650000D01*
X72000000Y-22850000D02*
X71000000Y-22850000D01*
D11*
%TO.C,Q16*%
X26440000Y-65062500D02*
X26440000Y-64412500D01*
X26440000Y-65062500D02*
X26440000Y-65712500D01*
X29560000Y-65062500D02*
X29560000Y-64412500D01*
X29560000Y-65062500D02*
X29560000Y-65712500D01*
X29840000Y-64140000D02*
X29510000Y-63900000D01*
X29840000Y-63660000D01*
X29840000Y-64140000D01*
G36*
X29840000Y-64140000D02*
G01*
X29510000Y-63900000D01*
X29840000Y-63660000D01*
X29840000Y-64140000D01*
G37*
%TD*%
M02*
