%TF.GenerationSoftware,KiCad,Pcbnew,8.0.4*%
%TF.CreationDate,2024-08-09T12:11:37-04:00*%
%TF.ProjectId,Drive Circuit,44726976-6520-4436-9972-637569742e6b,rev?*%
%TF.SameCoordinates,Original*%
%TF.FileFunction,Copper,L2,Inr*%
%TF.FilePolarity,Positive*%
%FSLAX46Y46*%
G04 Gerber Fmt 4.6, Leading zero omitted, Abs format (unit mm)*
G04 Created by KiCad (PCBNEW 8.0.4) date 2024-08-09 12:11:37*
%MOMM*%
%LPD*%
G01*
G04 APERTURE LIST*
%TA.AperFunction,ComponentPad*%
%ADD10R,1.700000X1.700000*%
%TD*%
%TA.AperFunction,ComponentPad*%
%ADD11O,1.700000X1.700000*%
%TD*%
%TA.AperFunction,ViaPad*%
%ADD12C,0.800000*%
%TD*%
%TA.AperFunction,Conductor*%
%ADD13C,0.250000*%
%TD*%
%TA.AperFunction,Conductor*%
%ADD14C,0.500000*%
%TD*%
G04 APERTURE END LIST*
D10*
%TO.N,/GRID.A_Y1*%
%TO.C,Y1*%
X24950000Y-13500000D03*
D11*
%TO.N,/GRID.B_Y2*%
X27490000Y-13500000D03*
%TO.N,/GRID.A_Y3*%
X30030000Y-13500000D03*
%TO.N,/GRID.B_Y4*%
X32570000Y-13500000D03*
%TO.N,/GRID.A_Y5*%
X35110000Y-13500000D03*
%TO.N,/GRID.B_Y6*%
X37650000Y-13500000D03*
%TO.N,/GRID.A_Y7*%
X40190000Y-13500000D03*
%TO.N,/GRID.B_Y8*%
X42730000Y-13500000D03*
%TO.N,/GRID.A_Y9*%
X45270000Y-13500000D03*
%TO.N,/GRID.B_Y10*%
X47810000Y-13500000D03*
%TO.N,/GRID.A_Y11*%
X50350000Y-13500000D03*
%TO.N,/GRID.B_Y12*%
X52890000Y-13500000D03*
%TO.N,/GRID.A_Y13*%
X55430000Y-13500000D03*
%TO.N,/GRID.B_Y14*%
X57970000Y-13500000D03*
%TO.N,/GRID.A_Y15*%
X60510000Y-13500000D03*
%TO.N,/GRID.B_Y16*%
X63050000Y-13500000D03*
%TD*%
D10*
%TO.N,/GRID.A_X1*%
%TO.C,X1*%
X13500000Y-24950000D03*
D11*
%TO.N,/GRID.B_X2*%
X13500000Y-27490000D03*
%TO.N,/GRID.A_X3*%
X13500000Y-30030000D03*
%TO.N,/GRID.B_X4*%
X13500000Y-32570000D03*
%TO.N,/GRID.A_X5*%
X13500000Y-35110000D03*
%TO.N,/GRID.B_X6*%
X13500000Y-37650000D03*
%TO.N,/GRID.A_X7*%
X13500000Y-40190000D03*
%TO.N,/GRID.B_X8*%
X13500000Y-42730000D03*
%TO.N,/GRID.A_X9*%
X13500000Y-45270000D03*
%TO.N,/GRID.B_X10*%
X13500000Y-47810000D03*
%TO.N,/GRID.A_X11*%
X13500000Y-50350000D03*
%TO.N,/GRID.B_X12*%
X13500000Y-52890000D03*
%TO.N,/GRID.A_X13*%
X13500000Y-55430000D03*
%TO.N,/GRID.B_X14*%
X13500000Y-57970000D03*
%TO.N,/GRID.A_X15*%
X13500000Y-60510000D03*
%TO.N,/GRID.B_X16*%
X13500000Y-63050000D03*
%TD*%
D10*
%TO.N,/MAD.X1*%
%TO.C,MADX1*%
X32570000Y-35110000D03*
D11*
%TO.N,/MAD.X3*%
X32570000Y-37650000D03*
%TO.N,/MAD.X5*%
X32570000Y-40190000D03*
%TO.N,/MAD.X7*%
X32570000Y-42730000D03*
%TO.N,/MAD.X9*%
X32570000Y-45270000D03*
%TO.N,/MAD.X11*%
X32570000Y-47810000D03*
%TO.N,/MAD.X13*%
X32570000Y-50350000D03*
%TO.N,/MAD.X15*%
X32570000Y-52890000D03*
%TD*%
D10*
%TO.N,/MAD.Y2*%
%TO.C,MADY2*%
X35110000Y-55430000D03*
D11*
%TO.N,/MAD.Y4*%
X37650000Y-55430000D03*
%TO.N,/MAD.Y6*%
X40190000Y-55430000D03*
%TO.N,/MAD.Y8*%
X42730000Y-55430000D03*
%TO.N,/MAD.Y10*%
X45270000Y-55430000D03*
%TO.N,/MAD.Y12*%
X47810000Y-55430000D03*
%TO.N,/MAD.Y14*%
X50350000Y-55430000D03*
%TO.N,/MAD.Y16*%
X52890000Y-55430000D03*
%TD*%
D10*
%TO.N,/GRID.B_X1*%
%TO.C,X2*%
X74500000Y-24950000D03*
D11*
%TO.N,/GRID.A_X2*%
X74500000Y-27490000D03*
%TO.N,/GRID.B_X3*%
X74500000Y-30030000D03*
%TO.N,/GRID.A_X4*%
X74500000Y-32570000D03*
%TO.N,/GRID.B_X5*%
X74500000Y-35110000D03*
%TO.N,/GRID.A_X6*%
X74500000Y-37650000D03*
%TO.N,/GRID.B_X7*%
X74500000Y-40190000D03*
%TO.N,/GRID.A_X8*%
X74500000Y-42730000D03*
%TO.N,/GRID.B_X9*%
X74500000Y-45270000D03*
%TO.N,/GRID.A_X10*%
X74500000Y-47810000D03*
%TO.N,/GRID.B_X11*%
X74500000Y-50350000D03*
%TO.N,/GRID.A_X12*%
X74500000Y-52890000D03*
%TO.N,/GRID.B_X13*%
X74500000Y-55430000D03*
%TO.N,/GRID.A_X14*%
X74500000Y-57970000D03*
%TO.N,/GRID.B_X15*%
X74500000Y-60510000D03*
%TO.N,/GRID.A_X16*%
X74500000Y-63050000D03*
%TD*%
D10*
%TO.N,VCC*%
%TO.C,PWR1*%
X13500000Y-13500000D03*
D11*
%TO.N,GND*%
X13500000Y-16040000D03*
%TD*%
D10*
%TO.N,/Drive Circuit/Read REQ*%
%TO.C,DAT1*%
X35110000Y-35110000D03*
D11*
%TO.N,/Drive Circuit/Write REQ*%
X35110000Y-37650000D03*
%TD*%
D10*
%TO.N,/MAD.X2*%
%TO.C,MADX2*%
X55430000Y-35110000D03*
D11*
%TO.N,/MAD.X4*%
X55430000Y-37650000D03*
%TO.N,/MAD.X6*%
X55430000Y-40190000D03*
%TO.N,/MAD.X8*%
X55430000Y-42730000D03*
%TO.N,/MAD.X10*%
X55430000Y-45270000D03*
%TO.N,/MAD.X12*%
X55430000Y-47810000D03*
%TO.N,/MAD.X14*%
X55430000Y-50350000D03*
%TO.N,/MAD.X16*%
X55430000Y-52890000D03*
%TD*%
D10*
%TO.N,/GRID.B_Y1*%
%TO.C,Y2*%
X24950000Y-74500000D03*
D11*
%TO.N,/GRID.A_Y2*%
X27490000Y-74500000D03*
%TO.N,/GRID.B_Y3*%
X30030000Y-74500000D03*
%TO.N,/GRID.A_Y4*%
X32570000Y-74500000D03*
%TO.N,/GRID.B_Y5*%
X35110000Y-74500000D03*
%TO.N,/GRID.A_Y6*%
X37650000Y-74500000D03*
%TO.N,/GRID.B_Y7*%
X40190000Y-74500000D03*
%TO.N,/GRID.A_Y8*%
X42730000Y-74500000D03*
%TO.N,/GRID.B_Y9*%
X45270000Y-74500000D03*
%TO.N,/GRID.A_Y10*%
X47810000Y-74500000D03*
%TO.N,/GRID.B_Y11*%
X50350000Y-74500000D03*
%TO.N,/GRID.A_Y12*%
X52890000Y-74500000D03*
%TO.N,/GRID.B_Y13*%
X55430000Y-74500000D03*
%TO.N,/GRID.A_Y14*%
X57970000Y-74500000D03*
%TO.N,/GRID.B_Y15*%
X60510000Y-74500000D03*
%TO.N,/GRID.A_Y16*%
X63050000Y-74500000D03*
%TD*%
D10*
%TO.N,/MAD.Y1*%
%TO.C,MADY1*%
X35110000Y-32570000D03*
D11*
%TO.N,/MAD.Y3*%
X37650000Y-32570000D03*
%TO.N,/MAD.Y5*%
X40190000Y-32570000D03*
%TO.N,/MAD.Y7*%
X42730000Y-32570000D03*
%TO.N,/MAD.Y9*%
X45270000Y-32570000D03*
%TO.N,/MAD.Y11*%
X47810000Y-32570000D03*
%TO.N,/MAD.Y13*%
X50350000Y-32570000D03*
%TO.N,/MAD.Y15*%
X52890000Y-32570000D03*
%TD*%
D12*
%TO.N,GND*%
X40000000Y-63000000D03*
X25000000Y-44500000D03*
X25000000Y-58000000D03*
X31000000Y-63000000D03*
X29500000Y-25000000D03*
X38500000Y-25000000D03*
X58000000Y-63000000D03*
X34000000Y-25000000D03*
X52000000Y-25000000D03*
X24949847Y-31050153D03*
X25000000Y-26500000D03*
X43000000Y-25000000D03*
X25000000Y-49000000D03*
X26500000Y-63000000D03*
X49000000Y-63000000D03*
X63000000Y-38500000D03*
X63000000Y-61000000D03*
X63000000Y-29500000D03*
X63000000Y-52000000D03*
X63000000Y-43000000D03*
X56500000Y-25000000D03*
X24949847Y-35550153D03*
X47500000Y-25000000D03*
X25000000Y-53500000D03*
X61000000Y-25000000D03*
X63000000Y-56500000D03*
X63000000Y-34000000D03*
X35500000Y-63000000D03*
X53500000Y-63000000D03*
X63000000Y-47500000D03*
X25000000Y-40000000D03*
X44500000Y-63000000D03*
%TO.N,VCC*%
X19500000Y-61000000D03*
X48000000Y-19500000D03*
X68500000Y-39000000D03*
X68500000Y-48000000D03*
X68500000Y-33000000D03*
X27000000Y-19500000D03*
X19500000Y-58000000D03*
X19500000Y-67000000D03*
X52000000Y-68500000D03*
X68500000Y-66000000D03*
X43000000Y-68500000D03*
X21000000Y-19500000D03*
X25000000Y-68500000D03*
X55000000Y-68500000D03*
X63000000Y-19500000D03*
X19500000Y-46000000D03*
X46000000Y-68500000D03*
X30000000Y-19500000D03*
X67000000Y-68500000D03*
X42000000Y-19500000D03*
X68500000Y-21000000D03*
X33000000Y-19500000D03*
X64000000Y-68500000D03*
X19500000Y-37000000D03*
X68500000Y-51000000D03*
X34000000Y-68500000D03*
X19500000Y-40000000D03*
X49000000Y-68500000D03*
X68500000Y-24000000D03*
X61000000Y-68500000D03*
X19500000Y-43000000D03*
X19500000Y-22000000D03*
X68500000Y-27000000D03*
X19500000Y-31000000D03*
X19500000Y-52000000D03*
X58000000Y-68500000D03*
X39000000Y-19500000D03*
X19500000Y-25000000D03*
X68500000Y-54000000D03*
X24000000Y-19500000D03*
X68500000Y-57000000D03*
X19500000Y-49000000D03*
X68500000Y-63000000D03*
X31000000Y-68500000D03*
X57028698Y-19493205D03*
X37000000Y-68500000D03*
X36000000Y-19500000D03*
X68500000Y-42000000D03*
X54000000Y-19500000D03*
X28000000Y-68500000D03*
X68500000Y-45000000D03*
X22000000Y-68500000D03*
X68500000Y-36000000D03*
X19500000Y-55000000D03*
X19500000Y-34000000D03*
X40000000Y-68500000D03*
X19500000Y-64000000D03*
X51000000Y-19500000D03*
X68500000Y-30000000D03*
X60000000Y-19500000D03*
X68500000Y-60000000D03*
X66000000Y-19500000D03*
X19500000Y-28000000D03*
X45000000Y-19500000D03*
%TO.N,Net-(Q1-D)*%
X47012653Y-71512653D03*
X49987347Y-16487347D03*
%TO.N,/Drive Circuit/H Bridge/DIR 1*%
X51650000Y-17500000D03*
X48350000Y-70500000D03*
X17500000Y-63350000D03*
X17500000Y-51350000D03*
X57650000Y-17500000D03*
X66350000Y-70500000D03*
X45650000Y-17500000D03*
X36350000Y-70500000D03*
X63650000Y-17500000D03*
X24350000Y-70500000D03*
X17500000Y-57350000D03*
X21650000Y-17500000D03*
X41500000Y-38000000D03*
X17500000Y-21350000D03*
X54350000Y-70500000D03*
X70500000Y-30650000D03*
X27650000Y-17500000D03*
X30350000Y-70500000D03*
X70500000Y-24650000D03*
X17500000Y-45350000D03*
X70500000Y-54650000D03*
X70500000Y-66650000D03*
X70500000Y-48650000D03*
X33650000Y-17500000D03*
X17500000Y-39350000D03*
X70500000Y-42650000D03*
X70500000Y-60650000D03*
X17500000Y-27350000D03*
X42350000Y-70500000D03*
X70500000Y-36650000D03*
X60350000Y-70500000D03*
X17500000Y-33350000D03*
X39650000Y-17500000D03*
%TO.N,/Drive Circuit/H Bridge/DIR 2*%
X27350000Y-70500000D03*
X41500000Y-35500000D03*
X17500000Y-66350000D03*
X66650000Y-17500000D03*
X24650000Y-17500000D03*
X70500000Y-51650000D03*
X17500000Y-36350000D03*
X57350000Y-70500000D03*
X70500000Y-57650000D03*
X42650000Y-17500000D03*
X17500000Y-24350000D03*
X39350000Y-70500000D03*
X70500000Y-63650000D03*
X54650000Y-17500000D03*
X17500000Y-42350000D03*
X63350000Y-70500000D03*
X33350000Y-70500000D03*
X17500000Y-30350000D03*
X70500000Y-21650000D03*
X17500000Y-54350000D03*
X17500000Y-48350000D03*
X51350000Y-70500000D03*
X48650000Y-17500000D03*
X70500000Y-27650000D03*
X70500000Y-33650000D03*
X21350000Y-70500000D03*
X36650000Y-17500000D03*
X17500000Y-60350000D03*
X70500000Y-39650000D03*
X70500000Y-45650000D03*
X60650000Y-17500000D03*
X30650000Y-17500000D03*
X45350000Y-70500000D03*
%TO.N,Net-(Q4-D)*%
X46987347Y-16487347D03*
X44012653Y-71512653D03*
%TO.N,Net-(Q7-D)*%
X50012653Y-71512653D03*
X52987347Y-16487347D03*
%TO.N,Net-(Q10-D)*%
X55987347Y-16487347D03*
X53012653Y-71512653D03*
%TO.N,Net-(Q13-D)*%
X22987347Y-16487347D03*
X20000000Y-71500000D03*
%TO.N,Net-(Q16-D)*%
X23025306Y-71500000D03*
X25989595Y-16485098D03*
%TO.N,Net-(Q19-D)*%
X31987347Y-16487347D03*
X29012653Y-71512653D03*
%TO.N,Net-(Q22-D)*%
X26012653Y-71512653D03*
X28996138Y-16478556D03*
%TO.N,Net-(Q25-D)*%
X16487347Y-47012653D03*
X71512653Y-49987347D03*
%TO.N,Net-(Q28-D)*%
X16487347Y-50012653D03*
X71512653Y-52987347D03*
%TO.N,Net-(Q31-D)*%
X16487347Y-44012653D03*
X71512653Y-46987347D03*
%TO.N,Net-(Q34-D)*%
X16487347Y-26012653D03*
X71512653Y-28987347D03*
%TO.N,Net-(Q37-D)*%
X16500000Y-20000000D03*
X71512653Y-22987347D03*
%TO.N,Net-(Q40-D)*%
X16500000Y-23025306D03*
X71512653Y-25987347D03*
%TO.N,Net-(Q43-D)*%
X35012653Y-71512653D03*
X37987347Y-16487347D03*
%TO.N,Net-(Q46-D)*%
X32012653Y-71512653D03*
X34987347Y-16487347D03*
%TO.N,Net-(Q49-D)*%
X41012653Y-71512653D03*
X43987347Y-16487347D03*
%TO.N,Net-(Q52-D)*%
X40987347Y-16487347D03*
X38012653Y-71512653D03*
%TO.N,Net-(Q55-D)*%
X58987347Y-16487347D03*
X56012653Y-71512653D03*
%TO.N,Net-(Q58-D)*%
X65012653Y-71512653D03*
X68000000Y-16500000D03*
%TO.N,Net-(Q61-D)*%
X59012653Y-71512653D03*
X61987347Y-16487347D03*
%TO.N,Net-(Q64-D)*%
X64987347Y-16487347D03*
X62012653Y-71512653D03*
%TO.N,Net-(Q67-D)*%
X16487347Y-56012653D03*
X71512653Y-58987347D03*
%TO.N,Net-(Q70-D)*%
X71512653Y-55987347D03*
X16487347Y-53012653D03*
%TO.N,Net-(Q73-D)*%
X71512653Y-43987347D03*
X16487347Y-41012653D03*
%TO.N,Net-(Q76-D)*%
X16487347Y-38012653D03*
X71512653Y-40987347D03*
%TO.N,Net-(Q79-D)*%
X16487347Y-35012653D03*
X71512653Y-37987347D03*
%TO.N,Net-(Q82-D)*%
X71512653Y-31987347D03*
X16487347Y-29012653D03*
%TO.N,Net-(Q85-D)*%
X16487347Y-32012653D03*
X71512653Y-34987347D03*
%TO.N,Net-(Q88-D)*%
X16487347Y-59012653D03*
X71512653Y-61987347D03*
%TO.N,Net-(Q91-D)*%
X16487347Y-62012653D03*
X71512653Y-64987347D03*
%TO.N,Net-(Q94-D)*%
X71500000Y-68000000D03*
X16487347Y-65012653D03*
%TD*%
D13*
%TO.N,/Drive Circuit/H Bridge/DIR 1*%
X17500000Y-21350000D02*
X16650000Y-21350000D01*
X47595000Y-44095000D02*
X65595000Y-44095000D01*
X69000000Y-15500000D02*
X72500000Y-19000000D01*
X41500000Y-72500000D02*
X42350000Y-71650000D01*
X15500000Y-62500000D02*
X16350000Y-63350000D01*
X71400000Y-36650000D02*
X70500000Y-36650000D01*
X16350000Y-63350000D02*
X17500000Y-63350000D01*
X60350000Y-71650000D02*
X60350000Y-70500000D01*
X71200611Y-48650000D02*
X72500000Y-49949389D01*
X70500000Y-60650000D02*
X71650000Y-60650000D01*
X15500000Y-32275305D02*
X16574695Y-33350000D01*
X72500000Y-37750000D02*
X71400000Y-36650000D01*
X15500000Y-50500000D02*
X16350000Y-51350000D01*
X27650000Y-16635099D02*
X27650000Y-17500000D01*
X72500000Y-25750000D02*
X71400000Y-24650000D01*
X35275305Y-72500000D02*
X36350000Y-71425305D01*
X72500000Y-46000000D02*
X72500000Y-43500000D01*
X21650000Y-17500000D02*
X21650000Y-16737500D01*
X35050611Y-72500000D02*
X41000000Y-72500000D01*
X39650000Y-16650000D02*
X39650000Y-17500000D01*
X26225000Y-42275000D02*
X18800000Y-42275000D01*
X72500000Y-67487347D02*
X72500000Y-69256326D01*
X15500000Y-44050611D02*
X15500000Y-44275305D01*
X56000000Y-15500000D02*
X56512653Y-15500000D01*
X19000000Y-72500000D02*
X23500000Y-72500000D01*
X47050611Y-72500000D02*
X47525306Y-72500000D01*
X41000000Y-72500000D02*
X41500000Y-72500000D01*
X72500000Y-32000000D02*
X72500000Y-31500000D01*
X15500000Y-69000000D02*
X19000000Y-72500000D01*
X69087348Y-45725000D02*
X69887348Y-44925000D01*
X72500000Y-31500000D02*
X71650000Y-30650000D01*
X18800000Y-42275000D02*
X18000000Y-43075000D01*
X53500000Y-72500000D02*
X54350000Y-71650000D01*
X15500000Y-56050611D02*
X15500000Y-56500000D01*
X33650000Y-16650000D02*
X33650000Y-17500000D01*
X71400000Y-24650000D02*
X70500000Y-24650000D01*
X59050611Y-72500000D02*
X65500000Y-72500000D01*
X71650000Y-60650000D02*
X72500000Y-61500000D01*
X53000000Y-72500000D02*
X53500000Y-72500000D01*
X16324694Y-39350000D02*
X17500000Y-39350000D01*
X59500000Y-72500000D02*
X60350000Y-71650000D01*
X72500000Y-69256326D02*
X69256326Y-72500000D01*
X72500000Y-67487347D02*
X72500000Y-61500000D01*
X15500000Y-50050611D02*
X15500000Y-56050611D01*
X16574695Y-45350000D02*
X17500000Y-45350000D01*
X15500000Y-56050611D02*
X15500000Y-62500000D01*
X66350000Y-71650000D02*
X66350000Y-70500000D01*
X44000000Y-15500000D02*
X44500000Y-15500000D01*
X47525306Y-72500000D02*
X48350000Y-71675306D01*
X71662653Y-66650000D02*
X70500000Y-66650000D01*
X69887348Y-44925000D02*
X71425000Y-44925000D01*
X32000000Y-15500000D02*
X38500000Y-15500000D01*
X32500000Y-15500000D02*
X33650000Y-16650000D01*
X19500000Y-15500000D02*
X15500000Y-19500000D01*
X16350000Y-27350000D02*
X17500000Y-27350000D01*
X26029802Y-15500000D02*
X32000000Y-15500000D01*
X41500000Y-38000000D02*
X38000000Y-41500000D01*
X70500000Y-54650000D02*
X71650000Y-54650000D01*
X38000000Y-41500000D02*
X27000000Y-41500000D01*
X72500000Y-67487347D02*
X71662653Y-66650000D01*
X26029802Y-15500000D02*
X26514901Y-15500000D01*
X15500000Y-26525306D02*
X15500000Y-32000000D01*
X63650000Y-16650000D02*
X63650000Y-17500000D01*
X65500000Y-72500000D02*
X66350000Y-71650000D01*
X67225000Y-45725000D02*
X69087348Y-45725000D01*
X69256326Y-72500000D02*
X65500000Y-72500000D01*
X35050611Y-72500000D02*
X35275305Y-72500000D01*
X16650000Y-21350000D02*
X15500000Y-22500000D01*
X62500000Y-15500000D02*
X69000000Y-15500000D01*
X29000000Y-72500000D02*
X29500000Y-72500000D01*
X45650000Y-16650000D02*
X45650000Y-17500000D01*
X72500000Y-38000000D02*
X72500000Y-32000000D01*
X51650000Y-16650000D02*
X51650000Y-17500000D01*
X71650000Y-54650000D02*
X72500000Y-55500000D01*
X56000000Y-15500000D02*
X62500000Y-15500000D01*
X50500000Y-15500000D02*
X51650000Y-16650000D01*
X16350000Y-51350000D02*
X17500000Y-51350000D01*
X47050611Y-72500000D02*
X53000000Y-72500000D01*
X65595000Y-44095000D02*
X67225000Y-45725000D01*
X70500000Y-48650000D02*
X71200611Y-48650000D01*
X15500000Y-38050611D02*
X15500000Y-42000000D01*
X15500000Y-32000000D02*
X15500000Y-32275305D01*
X62500000Y-15500000D02*
X63650000Y-16650000D01*
X57650000Y-16637347D02*
X57650000Y-17500000D01*
X15500000Y-32000000D02*
X15500000Y-38050611D01*
X23500000Y-72500000D02*
X29000000Y-72500000D01*
X72500000Y-50000000D02*
X72500000Y-46000000D01*
X29000000Y-72500000D02*
X35050611Y-72500000D01*
X50500000Y-15500000D02*
X56000000Y-15500000D01*
X26514901Y-15500000D02*
X27650000Y-16635099D01*
X41000000Y-72500000D02*
X47050611Y-72500000D01*
X16575000Y-43075000D02*
X15500000Y-42000000D01*
X54350000Y-71650000D02*
X54350000Y-70500000D01*
X30350000Y-71650000D02*
X30350000Y-70500000D01*
X16574695Y-33350000D02*
X17500000Y-33350000D01*
X15500000Y-44275305D02*
X16574695Y-45350000D01*
X72500000Y-43949388D02*
X71200612Y-42650000D01*
X44500000Y-15500000D02*
X45650000Y-16650000D01*
X56512653Y-15500000D02*
X57650000Y-16637347D01*
X15525306Y-26525306D02*
X16350000Y-27350000D01*
X72500000Y-61500000D02*
X72500000Y-55500000D01*
X71425000Y-44925000D02*
X72500000Y-46000000D01*
X36350000Y-71425305D02*
X36350000Y-70500000D01*
X71200612Y-42650000D02*
X70500000Y-42650000D01*
X24350000Y-71650000D02*
X24350000Y-70500000D01*
X15500000Y-38050611D02*
X15500000Y-38525306D01*
X15500000Y-22500000D02*
X15500000Y-26525306D01*
X71650000Y-30650000D02*
X70500000Y-30650000D01*
X15500000Y-50050611D02*
X15500000Y-50500000D01*
X72500000Y-38000000D02*
X72500000Y-37750000D01*
X20412500Y-15500000D02*
X19500000Y-15500000D01*
X15500000Y-42000000D02*
X15500000Y-44050611D01*
X38500000Y-15500000D02*
X39650000Y-16650000D01*
X72500000Y-32000000D02*
X72500000Y-25750000D01*
X15500000Y-19500000D02*
X15500000Y-22500000D01*
X72500000Y-43500000D02*
X72500000Y-38000000D01*
X59050611Y-72500000D02*
X59500000Y-72500000D01*
X21650000Y-16737500D02*
X20412500Y-15500000D01*
X53000000Y-72500000D02*
X59050611Y-72500000D01*
X42350000Y-71650000D02*
X42350000Y-70500000D01*
X72500000Y-55500000D02*
X72500000Y-50000000D01*
X15500000Y-38525306D02*
X16324694Y-39350000D01*
X18000000Y-43075000D02*
X16575000Y-43075000D01*
X20412500Y-15500000D02*
X26029802Y-15500000D01*
X23500000Y-72500000D02*
X24350000Y-71650000D01*
X72500000Y-19000000D02*
X72500000Y-25750000D01*
X32000000Y-15500000D02*
X32500000Y-15500000D01*
X38500000Y-15500000D02*
X44000000Y-15500000D01*
X29500000Y-72500000D02*
X30350000Y-71650000D01*
X15500000Y-44050611D02*
X15500000Y-50050611D01*
X27000000Y-41500000D02*
X26225000Y-42275000D01*
X41500000Y-38000000D02*
X47595000Y-44095000D01*
X16350000Y-57350000D02*
X17500000Y-57350000D01*
X15500000Y-26525306D02*
X15525306Y-26525306D01*
X15500000Y-56500000D02*
X16350000Y-57350000D01*
X48350000Y-71675306D02*
X48350000Y-70500000D01*
X15500000Y-62500000D02*
X15500000Y-69000000D01*
X72500000Y-49949389D02*
X72500000Y-50000000D01*
X44000000Y-15500000D02*
X50500000Y-15500000D01*
D14*
%TO.N,Net-(Q25-D)*%
X71512653Y-49987347D02*
X67012653Y-49987347D01*
X32500000Y-58500000D02*
X21012653Y-47012653D01*
X67012653Y-49987347D02*
X58500000Y-58500000D01*
X21012653Y-47012653D02*
X16487347Y-47012653D01*
X58500000Y-58500000D02*
X32500000Y-58500000D01*
%TO.N,Net-(Q28-D)*%
X29500000Y-59500000D02*
X61500000Y-59500000D01*
X68012653Y-52987347D02*
X71512653Y-52987347D01*
X16487347Y-50012653D02*
X20012653Y-50012653D01*
X61500000Y-59500000D02*
X68012653Y-52987347D01*
X20012653Y-50012653D02*
X29500000Y-59500000D01*
%TO.N,Net-(Q31-D)*%
X33500000Y-57500000D02*
X55000000Y-57500000D01*
X22512653Y-44012653D02*
X30000000Y-51500000D01*
X30000000Y-51500000D02*
X30000000Y-54000000D01*
X16487347Y-44012653D02*
X22512653Y-44012653D01*
X55000000Y-57500000D02*
X65512653Y-46987347D01*
X65512653Y-46987347D02*
X71512653Y-46987347D01*
X30000000Y-54000000D02*
X33500000Y-57500000D01*
%TO.N,Net-(Q34-D)*%
X69285265Y-28987347D02*
X71512653Y-28987347D01*
X64297918Y-24000000D02*
X69285265Y-28987347D01*
X16487347Y-26012653D02*
X20487347Y-26012653D01*
X22500000Y-24000000D02*
X64297918Y-24000000D01*
X20487347Y-26012653D02*
X22500000Y-24000000D01*
%TO.N,Net-(Q37-D)*%
X68987347Y-22987347D02*
X71512653Y-22987347D01*
X67000000Y-21000000D02*
X68987347Y-22987347D01*
X17352082Y-20000000D02*
X18352082Y-21000000D01*
X18352082Y-21000000D02*
X67000000Y-21000000D01*
X16500000Y-20000000D02*
X17352082Y-20000000D01*
%TO.N,Net-(Q40-D)*%
X65500000Y-22500000D02*
X68987347Y-25987347D01*
X16500000Y-23025306D02*
X20474694Y-23025306D01*
X21000000Y-22500000D02*
X65500000Y-22500000D01*
X68987347Y-25987347D02*
X71512653Y-25987347D01*
X20474694Y-23025306D02*
X21000000Y-22500000D01*
%TO.N,Net-(Q67-D)*%
X67512653Y-58987347D02*
X71512653Y-58987347D01*
X20512653Y-56012653D02*
X26500000Y-62000000D01*
X26500000Y-62000000D02*
X64500000Y-62000000D01*
X16487347Y-56012653D02*
X20512653Y-56012653D01*
X64500000Y-62000000D02*
X67512653Y-58987347D01*
%TO.N,Net-(Q70-D)*%
X29000000Y-60500000D02*
X62000000Y-60500000D01*
X21512653Y-53012653D02*
X29000000Y-60500000D01*
X66512653Y-55987347D02*
X71512653Y-55987347D01*
X16487347Y-53012653D02*
X21512653Y-53012653D01*
X62000000Y-60500000D02*
X66512653Y-55987347D01*
%TO.N,Net-(Q73-D)*%
X53500000Y-30500000D02*
X66987347Y-43987347D01*
X30000000Y-34000000D02*
X33500000Y-30500000D01*
X66987347Y-43987347D02*
X71512653Y-43987347D01*
X30000000Y-36750000D02*
X30000000Y-34000000D01*
X25737347Y-41012653D02*
X30000000Y-36750000D01*
X16487347Y-41012653D02*
X25737347Y-41012653D01*
X33500000Y-30500000D02*
X53500000Y-30500000D01*
%TO.N,Net-(Q76-D)*%
X67987347Y-40987347D02*
X71512653Y-40987347D01*
X33000000Y-29500000D02*
X56500000Y-29500000D01*
X16487347Y-38012653D02*
X24487347Y-38012653D01*
X56500000Y-29500000D02*
X67987347Y-40987347D01*
X24487347Y-38012653D02*
X33000000Y-29500000D01*
%TO.N,Net-(Q79-D)*%
X68987347Y-37987347D02*
X59500000Y-28500000D01*
X59500000Y-28500000D02*
X30500000Y-28500000D01*
X71512653Y-37987347D02*
X68987347Y-37987347D01*
X23987347Y-35012653D02*
X16487347Y-35012653D01*
X30500000Y-28500000D02*
X23987347Y-35012653D01*
%TO.N,Net-(Q82-D)*%
X67487347Y-31987347D02*
X71512653Y-31987347D01*
X16487347Y-29012653D02*
X16500000Y-29000000D01*
X24500000Y-29000000D02*
X27000000Y-26500000D01*
X27000000Y-26500000D02*
X62000000Y-26500000D01*
X62000000Y-26500000D02*
X67487347Y-31987347D01*
X16500000Y-29000000D02*
X24500000Y-29000000D01*
%TO.N,Net-(Q85-D)*%
X16487347Y-32012653D02*
X25487347Y-32012653D01*
X59797918Y-27500000D02*
X67285265Y-34987347D01*
X30000000Y-27500000D02*
X59797918Y-27500000D01*
X25487347Y-32012653D02*
X30000000Y-27500000D01*
X67285265Y-34987347D02*
X71512653Y-34987347D01*
%TO.N,Net-(Q88-D)*%
X25500000Y-64500000D02*
X64987347Y-64500000D01*
X67500000Y-61987347D02*
X71512653Y-61987347D01*
X64987347Y-64500000D02*
X67500000Y-61987347D01*
X16487347Y-59012653D02*
X20012653Y-59012653D01*
X20012653Y-59012653D02*
X25500000Y-64500000D01*
%TO.N,Net-(Q91-D)*%
X67512653Y-64987347D02*
X71512653Y-64987347D01*
X20512653Y-62012653D02*
X24500000Y-66000000D01*
X16487347Y-62012653D02*
X20512653Y-62012653D01*
X66500000Y-66000000D02*
X67512653Y-64987347D01*
X24500000Y-66000000D02*
X66500000Y-66000000D01*
%TO.N,Net-(Q94-D)*%
X16487347Y-65012653D02*
X21012653Y-65012653D01*
X69000000Y-68000000D02*
X71500000Y-68000000D01*
X23000000Y-67000000D02*
X68000000Y-67000000D01*
X68000000Y-67000000D02*
X69000000Y-68000000D01*
X21012653Y-65012653D02*
X23000000Y-67000000D01*
%TD*%
M02*
