%TF.GenerationSoftware,KiCad,Pcbnew,8.0.4*%
%TF.CreationDate,2024-08-09T12:11:29-04:00*%
%TF.ProjectId,Drive Circuit,44726976-6520-4436-9972-637569742e6b,rev?*%
%TF.SameCoordinates,Original*%
%TF.FileFunction,Drillmap*%
%TF.FilePolarity,Positive*%
%FSLAX45Y45*%
G04 Gerber Fmt 4.5, Leading zero omitted, Abs format (unit mm)*
G04 Created by KiCad (PCBNEW 8.0.4) date 2024-08-09 12:11:29*
%MOMM*%
%LPD*%
G01*
G04 APERTURE LIST*
%ADD10C,0.100000*%
%ADD11C,0.200000*%
G04 APERTURE END LIST*
D10*
X1200000Y-1200000D02*
X7600000Y-1200000D01*
X7600000Y-7600000D01*
X1200000Y-7600000D01*
X1200000Y-1200000D01*
D11*
X1455777Y-7916484D02*
X1455777Y-7716484D01*
X1455777Y-7716484D02*
X1503396Y-7716484D01*
X1503396Y-7716484D02*
X1531967Y-7726008D01*
X1531967Y-7726008D02*
X1551015Y-7745055D01*
X1551015Y-7745055D02*
X1560539Y-7764103D01*
X1560539Y-7764103D02*
X1570062Y-7802198D01*
X1570062Y-7802198D02*
X1570062Y-7830769D01*
X1570062Y-7830769D02*
X1560539Y-7868865D01*
X1560539Y-7868865D02*
X1551015Y-7887912D01*
X1551015Y-7887912D02*
X1531967Y-7906960D01*
X1531967Y-7906960D02*
X1503396Y-7916484D01*
X1503396Y-7916484D02*
X1455777Y-7916484D01*
X1655777Y-7916484D02*
X1655777Y-7783150D01*
X1655777Y-7821246D02*
X1665301Y-7802198D01*
X1665301Y-7802198D02*
X1674824Y-7792674D01*
X1674824Y-7792674D02*
X1693872Y-7783150D01*
X1693872Y-7783150D02*
X1712920Y-7783150D01*
X1779586Y-7916484D02*
X1779586Y-7783150D01*
X1779586Y-7716484D02*
X1770062Y-7726008D01*
X1770062Y-7726008D02*
X1779586Y-7735531D01*
X1779586Y-7735531D02*
X1789110Y-7726008D01*
X1789110Y-7726008D02*
X1779586Y-7716484D01*
X1779586Y-7716484D02*
X1779586Y-7735531D01*
X1903396Y-7916484D02*
X1884348Y-7906960D01*
X1884348Y-7906960D02*
X1874824Y-7887912D01*
X1874824Y-7887912D02*
X1874824Y-7716484D01*
X2008158Y-7916484D02*
X1989110Y-7906960D01*
X1989110Y-7906960D02*
X1979586Y-7887912D01*
X1979586Y-7887912D02*
X1979586Y-7716484D01*
X2236729Y-7916484D02*
X2236729Y-7716484D01*
X2236729Y-7716484D02*
X2303396Y-7859341D01*
X2303396Y-7859341D02*
X2370063Y-7716484D01*
X2370063Y-7716484D02*
X2370063Y-7916484D01*
X2551015Y-7916484D02*
X2551015Y-7811722D01*
X2551015Y-7811722D02*
X2541491Y-7792674D01*
X2541491Y-7792674D02*
X2522444Y-7783150D01*
X2522444Y-7783150D02*
X2484348Y-7783150D01*
X2484348Y-7783150D02*
X2465301Y-7792674D01*
X2551015Y-7906960D02*
X2531967Y-7916484D01*
X2531967Y-7916484D02*
X2484348Y-7916484D01*
X2484348Y-7916484D02*
X2465301Y-7906960D01*
X2465301Y-7906960D02*
X2455777Y-7887912D01*
X2455777Y-7887912D02*
X2455777Y-7868865D01*
X2455777Y-7868865D02*
X2465301Y-7849817D01*
X2465301Y-7849817D02*
X2484348Y-7840293D01*
X2484348Y-7840293D02*
X2531967Y-7840293D01*
X2531967Y-7840293D02*
X2551015Y-7830769D01*
X2646253Y-7783150D02*
X2646253Y-7983150D01*
X2646253Y-7792674D02*
X2665301Y-7783150D01*
X2665301Y-7783150D02*
X2703396Y-7783150D01*
X2703396Y-7783150D02*
X2722444Y-7792674D01*
X2722444Y-7792674D02*
X2731967Y-7802198D01*
X2731967Y-7802198D02*
X2741491Y-7821246D01*
X2741491Y-7821246D02*
X2741491Y-7878388D01*
X2741491Y-7878388D02*
X2731967Y-7897436D01*
X2731967Y-7897436D02*
X2722444Y-7906960D01*
X2722444Y-7906960D02*
X2703396Y-7916484D01*
X2703396Y-7916484D02*
X2665301Y-7916484D01*
X2665301Y-7916484D02*
X2646253Y-7906960D01*
X2827205Y-7897436D02*
X2836729Y-7906960D01*
X2836729Y-7906960D02*
X2827205Y-7916484D01*
X2827205Y-7916484D02*
X2817682Y-7906960D01*
X2817682Y-7906960D02*
X2827205Y-7897436D01*
X2827205Y-7897436D02*
X2827205Y-7916484D01*
X2827205Y-7792674D02*
X2836729Y-7802198D01*
X2836729Y-7802198D02*
X2827205Y-7811722D01*
X2827205Y-7811722D02*
X2817682Y-7802198D01*
X2817682Y-7802198D02*
X2827205Y-7792674D01*
X2827205Y-7792674D02*
X2827205Y-7811722D01*
M02*
