%TF.GenerationSoftware,KiCad,Pcbnew,8.0.4*%
%TF.CreationDate,2024-08-09T12:11:38-04:00*%
%TF.ProjectId,Drive Circuit,44726976-6520-4436-9972-637569742e6b,rev?*%
%TF.SameCoordinates,Original*%
%TF.FileFunction,Soldermask,Bot*%
%TF.FilePolarity,Negative*%
%FSLAX46Y46*%
G04 Gerber Fmt 4.6, Leading zero omitted, Abs format (unit mm)*
G04 Created by KiCad (PCBNEW 8.0.4) date 2024-08-09 12:11:38*
%MOMM*%
%LPD*%
G01*
G04 APERTURE LIST*
G04 Aperture macros list*
%AMRoundRect*
0 Rectangle with rounded corners*
0 $1 Rounding radius*
0 $2 $3 $4 $5 $6 $7 $8 $9 X,Y pos of 4 corners*
0 Add a 4 corners polygon primitive as box body*
4,1,4,$2,$3,$4,$5,$6,$7,$8,$9,$2,$3,0*
0 Add four circle primitives for the rounded corners*
1,1,$1+$1,$2,$3*
1,1,$1+$1,$4,$5*
1,1,$1+$1,$6,$7*
1,1,$1+$1,$8,$9*
0 Add four rect primitives between the rounded corners*
20,1,$1+$1,$2,$3,$4,$5,0*
20,1,$1+$1,$4,$5,$6,$7,0*
20,1,$1+$1,$6,$7,$8,$9,0*
20,1,$1+$1,$8,$9,$2,$3,0*%
G04 Aperture macros list end*
%ADD10RoundRect,0.237500X-0.300000X-0.237500X0.300000X-0.237500X0.300000X0.237500X-0.300000X0.237500X0*%
%ADD11RoundRect,0.237500X0.300000X0.237500X-0.300000X0.237500X-0.300000X-0.237500X0.300000X-0.237500X0*%
%ADD12RoundRect,0.237500X-0.237500X0.300000X-0.237500X-0.300000X0.237500X-0.300000X0.237500X0.300000X0*%
%ADD13RoundRect,0.237500X0.237500X-0.300000X0.237500X0.300000X-0.237500X0.300000X-0.237500X-0.300000X0*%
%ADD14R,1.700000X1.700000*%
%ADD15O,1.700000X1.700000*%
G04 APERTURE END LIST*
D10*
%TO.C,C32*%
X64675000Y-54000000D03*
X66400000Y-54000000D03*
%TD*%
%TO.C,C31*%
X64675000Y-36000000D03*
X66400000Y-36000000D03*
%TD*%
D11*
%TO.C,C30*%
X23325000Y-40000000D03*
X21600000Y-40000000D03*
%TD*%
%TO.C,C29*%
X23325000Y-61000000D03*
X21600000Y-61000000D03*
%TD*%
D12*
%TO.C,C28*%
X34000000Y-64675000D03*
X34000000Y-66400000D03*
%TD*%
D13*
%TO.C,C27*%
X54000000Y-23325000D03*
X54000000Y-21600000D03*
%TD*%
%TO.C,C26*%
X30000000Y-23325000D03*
X30000000Y-21600000D03*
%TD*%
D10*
%TO.C,C25*%
X64675000Y-60000000D03*
X66400000Y-60000000D03*
%TD*%
D11*
%TO.C,C24*%
X23325000Y-46000000D03*
X21600000Y-46000000D03*
%TD*%
D13*
%TO.C,C23*%
X42000000Y-23325000D03*
X42000000Y-21600000D03*
%TD*%
%TO.C,C22*%
X63000000Y-23325000D03*
X63000000Y-21600000D03*
%TD*%
D10*
%TO.C,C21*%
X64675000Y-63000000D03*
X66400000Y-63000000D03*
%TD*%
D12*
%TO.C,C20*%
X40000000Y-64675000D03*
X40000000Y-66400000D03*
%TD*%
%TO.C,C19*%
X25000000Y-64675000D03*
X25000000Y-66400000D03*
%TD*%
D10*
%TO.C,C18*%
X64675000Y-30000000D03*
X66400000Y-30000000D03*
%TD*%
D12*
%TO.C,C17*%
X46000000Y-64675000D03*
X46000000Y-66400000D03*
%TD*%
%TO.C,C16*%
X58000000Y-64637500D03*
X58000000Y-66362500D03*
%TD*%
%TO.C,C15*%
X28000000Y-64675000D03*
X28000000Y-66400000D03*
%TD*%
D10*
%TO.C,C14*%
X64675000Y-27000000D03*
X66400000Y-27000000D03*
%TD*%
D13*
%TO.C,C13*%
X27000000Y-23325000D03*
X27000000Y-21600000D03*
%TD*%
D12*
%TO.C,C12*%
X61000000Y-64675000D03*
X61000000Y-66400000D03*
%TD*%
D11*
%TO.C,C11*%
X23362500Y-58000000D03*
X21637500Y-58000000D03*
%TD*%
%TO.C,C10*%
X23325000Y-34000000D03*
X21600000Y-34000000D03*
%TD*%
D12*
%TO.C,C9*%
X52000000Y-64675000D03*
X52000000Y-66400000D03*
%TD*%
D13*
%TO.C,C8*%
X36000000Y-23325000D03*
X36000000Y-21600000D03*
%TD*%
D10*
%TO.C,C7*%
X64675000Y-42000000D03*
X66400000Y-42000000D03*
%TD*%
D13*
%TO.C,C6*%
X48000000Y-23325000D03*
X48000000Y-21600000D03*
%TD*%
%TO.C,C5*%
X60000000Y-23325000D03*
X60000000Y-21600000D03*
%TD*%
D11*
%TO.C,C4*%
X23325000Y-52000000D03*
X21600000Y-52000000D03*
%TD*%
D10*
%TO.C,C3*%
X64675000Y-48000000D03*
X66400000Y-48000000D03*
%TD*%
D11*
%TO.C,C2*%
X22825000Y-25000000D03*
X21100000Y-25000000D03*
%TD*%
%TO.C,C1*%
X23325000Y-28000000D03*
X21600000Y-28000000D03*
%TD*%
D14*
%TO.C,Y1*%
X24950000Y-13500000D03*
D15*
X27490000Y-13500000D03*
X30030000Y-13500000D03*
X32570000Y-13500000D03*
X35110000Y-13500000D03*
X37650000Y-13500000D03*
X40190000Y-13500000D03*
X42730000Y-13500000D03*
X45270000Y-13500000D03*
X47810000Y-13500000D03*
X50350000Y-13500000D03*
X52890000Y-13500000D03*
X55430000Y-13500000D03*
X57970000Y-13500000D03*
X60510000Y-13500000D03*
X63050000Y-13500000D03*
%TD*%
D14*
%TO.C,X1*%
X13500000Y-24950000D03*
D15*
X13500000Y-27490000D03*
X13500000Y-30030000D03*
X13500000Y-32570000D03*
X13500000Y-35110000D03*
X13500000Y-37650000D03*
X13500000Y-40190000D03*
X13500000Y-42730000D03*
X13500000Y-45270000D03*
X13500000Y-47810000D03*
X13500000Y-50350000D03*
X13500000Y-52890000D03*
X13500000Y-55430000D03*
X13500000Y-57970000D03*
X13500000Y-60510000D03*
X13500000Y-63050000D03*
%TD*%
D14*
%TO.C,MADX1*%
X32570000Y-35110000D03*
D15*
X32570000Y-37650000D03*
X32570000Y-40190000D03*
X32570000Y-42730000D03*
X32570000Y-45270000D03*
X32570000Y-47810000D03*
X32570000Y-50350000D03*
X32570000Y-52890000D03*
%TD*%
D14*
%TO.C,MADY2*%
X35110000Y-55430000D03*
D15*
X37650000Y-55430000D03*
X40190000Y-55430000D03*
X42730000Y-55430000D03*
X45270000Y-55430000D03*
X47810000Y-55430000D03*
X50350000Y-55430000D03*
X52890000Y-55430000D03*
%TD*%
D14*
%TO.C,X2*%
X74500000Y-24950000D03*
D15*
X74500000Y-27490000D03*
X74500000Y-30030000D03*
X74500000Y-32570000D03*
X74500000Y-35110000D03*
X74500000Y-37650000D03*
X74500000Y-40190000D03*
X74500000Y-42730000D03*
X74500000Y-45270000D03*
X74500000Y-47810000D03*
X74500000Y-50350000D03*
X74500000Y-52890000D03*
X74500000Y-55430000D03*
X74500000Y-57970000D03*
X74500000Y-60510000D03*
X74500000Y-63050000D03*
%TD*%
D14*
%TO.C,PWR1*%
X13500000Y-13500000D03*
D15*
X13500000Y-16040000D03*
%TD*%
D14*
%TO.C,DAT1*%
X35110000Y-35110000D03*
D15*
X35110000Y-37650000D03*
%TD*%
D14*
%TO.C,MADX2*%
X55430000Y-35110000D03*
D15*
X55430000Y-37650000D03*
X55430000Y-40190000D03*
X55430000Y-42730000D03*
X55430000Y-45270000D03*
X55430000Y-47810000D03*
X55430000Y-50350000D03*
X55430000Y-52890000D03*
%TD*%
D14*
%TO.C,Y2*%
X24950000Y-74500000D03*
D15*
X27490000Y-74500000D03*
X30030000Y-74500000D03*
X32570000Y-74500000D03*
X35110000Y-74500000D03*
X37650000Y-74500000D03*
X40190000Y-74500000D03*
X42730000Y-74500000D03*
X45270000Y-74500000D03*
X47810000Y-74500000D03*
X50350000Y-74500000D03*
X52890000Y-74500000D03*
X55430000Y-74500000D03*
X57970000Y-74500000D03*
X60510000Y-74500000D03*
X63050000Y-74500000D03*
%TD*%
D14*
%TO.C,MADY1*%
X35110000Y-32570000D03*
D15*
X37650000Y-32570000D03*
X40190000Y-32570000D03*
X42730000Y-32570000D03*
X45270000Y-32570000D03*
X47810000Y-32570000D03*
X50350000Y-32570000D03*
X52890000Y-32570000D03*
%TD*%
M02*
