M48
; DRILL file {KiCad 8.0.4} date 2024-08-09T12:11:25-0400
; FORMAT={-:-/ absolute / inch / decimal}
; #@! TF.CreationDate,2024-08-09T12:11:25-04:00
; #@! TF.GenerationSoftware,Kicad,Pcbnew,8.0.4
; #@! TF.FileFunction,Plated,1,4,PTH
FMAT,2
INCH
; #@! TA.AperFunction,Plated,PTH,ViaDrill
T1C0.0157
; #@! TA.AperFunction,Plated,PTH,ComponentDrill
T2C0.0394
%
G90
G05
T1
X0.6491Y-1.0241
X0.6491Y-1.1422
X0.6491Y-1.2603
X0.6491Y-1.3785
X0.6491Y-1.4966
X0.6491Y-1.6147
X0.6491Y-1.7328
X0.6491Y-1.8509
X0.6491Y-1.969
X0.6491Y-2.0871
X0.6491Y-2.2052
X0.6491Y-2.3233
X0.6491Y-2.4414
X0.6491Y-2.5596
X0.6496Y-0.7874
X0.6496Y-0.9065
X0.689Y-0.8406
X0.689Y-0.9587
X0.689Y-1.0768
X0.689Y-1.1949
X0.689Y-1.313
X0.689Y-1.4311
X0.689Y-1.5492
X0.689Y-1.6673
X0.689Y-1.7854
X0.689Y-1.9035
X0.689Y-2.0217
X0.689Y-2.1398
X0.689Y-2.2579
X0.689Y-2.376
X0.689Y-2.4941
X0.689Y-2.6122
X0.7677Y-0.8661
X0.7677Y-0.9843
X0.7677Y-1.1024
X0.7677Y-1.2205
X0.7677Y-1.3386
X0.7677Y-1.4567
X0.7677Y-1.5748
X0.7677Y-1.6929
X0.7677Y-1.811
X0.7677Y-1.9291
X0.7677Y-2.0472
X0.7677Y-2.1654
X0.7677Y-2.2835
X0.7677Y-2.4016
X0.7677Y-2.5197
X0.7677Y-2.6378
X0.7874Y-2.815
X0.8268Y-0.7677
X0.8406Y-2.7756
X0.8524Y-0.689
X0.8661Y-2.6969
X0.905Y-0.6491
X0.9065Y-2.815
X0.9449Y-0.7677
X0.9587Y-2.7756
X0.9705Y-0.689
X0.9823Y-1.2224
X0.9823Y-1.3996
X0.9843Y-1.0433
X0.9843Y-1.5748
X0.9843Y-1.752
X0.9843Y-1.9291
X0.9843Y-2.1063
X0.9843Y-2.2835
X0.9843Y-2.6969
X1.0232Y-0.649
X1.0241Y-2.8155
X1.0433Y-2.4803
X1.063Y-0.7677
X1.0768Y-2.7756
X1.0886Y-0.689
X1.1024Y-2.6969
X1.1416Y-0.6488
X1.1422Y-2.8155
X1.1614Y-0.9843
X1.1811Y-0.7677
X1.1949Y-2.7756
X1.2067Y-0.689
X1.2205Y-2.4803
X1.2205Y-2.6969
X1.2593Y-0.6491
X1.2603Y-2.8155
X1.2992Y-0.7677
X1.313Y-2.7756
X1.3248Y-0.689
X1.3386Y-0.9843
X1.3386Y-2.6969
X1.3775Y-0.6491
X1.3785Y-2.8155
X1.3976Y-2.4803
X1.4173Y-0.7677
X1.4311Y-2.7756
X1.4429Y-0.689
X1.4567Y-2.6969
X1.4956Y-0.6491
X1.4966Y-2.8155
X1.5157Y-0.9843
X1.5354Y-0.7677
X1.5492Y-2.7756
X1.561Y-0.689
X1.5748Y-2.4803
X1.5748Y-2.6969
X1.6137Y-0.6491
X1.6147Y-2.8155
X1.6339Y-1.3976
X1.6339Y-1.4961
X1.6535Y-0.7677
X1.6673Y-2.7756
X1.6791Y-0.689
X1.6929Y-0.9843
X1.6929Y-2.6969
X1.7318Y-0.6491
X1.7328Y-2.8155
X1.752Y-2.4803
X1.7717Y-0.7677
X1.7854Y-2.7756
X1.7972Y-0.689
X1.811Y-2.6969
X1.8499Y-0.6491
X1.8509Y-2.8155
X1.8701Y-0.9843
X1.8898Y-0.7677
X1.9035Y-2.7756
X1.9154Y-0.689
X1.9291Y-2.4803
X1.9291Y-2.6969
X1.968Y-0.6491
X1.969Y-2.8155
X2.0079Y-0.7677
X2.0217Y-2.7756
X2.0335Y-0.689
X2.0472Y-0.9843
X2.0472Y-2.6969
X2.0861Y-0.6491
X2.0871Y-2.8155
X2.1063Y-2.4803
X2.126Y-0.7677
X2.1398Y-2.7756
X2.1516Y-0.689
X2.1654Y-2.6969
X2.2042Y-0.6491
X2.2052Y-2.8155
X2.2244Y-0.9843
X2.2452Y-0.7674
X2.2579Y-2.7756
X2.2697Y-0.689
X2.2835Y-2.4803
X2.2835Y-2.6969
X2.3223Y-0.6491
X2.3233Y-2.8155
X2.3622Y-0.7677
X2.376Y-2.7756
X2.3878Y-0.689
X2.4016Y-0.9843
X2.4016Y-2.6969
X2.4404Y-0.6491
X2.4414Y-2.8155
X2.4803Y-0.7677
X2.4803Y-1.1614
X2.4803Y-1.3386
X2.4803Y-1.5157
X2.4803Y-1.6929
X2.4803Y-1.8701
X2.4803Y-2.0472
X2.4803Y-2.2244
X2.4803Y-2.4016
X2.4941Y-2.7756
X2.5059Y-0.689
X2.5197Y-2.6969
X2.5586Y-0.6491
X2.5596Y-2.8155
X2.5984Y-0.7677
X2.6122Y-2.7756
X2.624Y-0.689
X2.6378Y-2.6969
X2.6772Y-0.6496
X2.6969Y-0.8268
X2.6969Y-0.9449
X2.6969Y-1.063
X2.6969Y-1.1811
X2.6969Y-1.2992
X2.6969Y-1.4173
X2.6969Y-1.5354
X2.6969Y-1.6535
X2.6969Y-1.7717
X2.6969Y-1.8898
X2.6969Y-2.0079
X2.6969Y-2.126
X2.6969Y-2.2441
X2.6969Y-2.3622
X2.6969Y-2.4803
X2.6969Y-2.5984
X2.7756Y-0.8524
X2.7756Y-0.9705
X2.7756Y-1.0886
X2.7756Y-1.2067
X2.7756Y-1.3248
X2.7756Y-1.4429
X2.7756Y-1.561
X2.7756Y-1.6791
X2.7756Y-1.7972
X2.7756Y-1.9154
X2.7756Y-2.0335
X2.7756Y-2.1516
X2.7756Y-2.2697
X2.7756Y-2.3878
X2.7756Y-2.5059
X2.7756Y-2.624
X2.815Y-2.6772
X2.8155Y-0.905
X2.8155Y-1.0231
X2.8155Y-1.1412
X2.8155Y-1.2593
X2.8155Y-1.3775
X2.8155Y-1.4956
X2.8155Y-1.6137
X2.8155Y-1.7318
X2.8155Y-1.8499
X2.8155Y-1.968
X2.8155Y-2.0861
X2.8155Y-2.2042
X2.8155Y-2.3223
X2.8155Y-2.4404
X2.8155Y-2.5586
T2
X0.5315Y-0.5315
X0.5315Y-0.6315
X0.5315Y-0.9823
X0.5315Y-1.0823
X0.5315Y-1.1823
X0.5315Y-1.2823
X0.5315Y-1.3823
X0.5315Y-1.4823
X0.5315Y-1.5823
X0.5315Y-1.6823
X0.5315Y-1.7823
X0.5315Y-1.8823
X0.5315Y-1.9823
X0.5315Y-2.0823
X0.5315Y-2.1823
X0.5315Y-2.2823
X0.5315Y-2.3823
X0.5315Y-2.4823
X0.9823Y-0.5315
X0.9823Y-2.9331
X1.0823Y-0.5315
X1.0823Y-2.9331
X1.1823Y-0.5315
X1.1823Y-2.9331
X1.2823Y-0.5315
X1.2823Y-1.3823
X1.2823Y-1.4823
X1.2823Y-1.5823
X1.2823Y-1.6823
X1.2823Y-1.7823
X1.2823Y-1.8823
X1.2823Y-1.9823
X1.2823Y-2.0823
X1.2823Y-2.9331
X1.3823Y-0.5315
X1.3823Y-1.2823
X1.3823Y-1.3823
X1.3823Y-1.4823
X1.3823Y-2.1823
X1.3823Y-2.9331
X1.4823Y-0.5315
X1.4823Y-1.2823
X1.4823Y-2.1823
X1.4823Y-2.9331
X1.5823Y-0.5315
X1.5823Y-1.2823
X1.5823Y-2.1823
X1.5823Y-2.9331
X1.6823Y-0.5315
X1.6823Y-1.2823
X1.6823Y-2.1823
X1.6823Y-2.9331
X1.7823Y-0.5315
X1.7823Y-1.2823
X1.7823Y-2.1823
X1.7823Y-2.9331
X1.8823Y-0.5315
X1.8823Y-1.2823
X1.8823Y-2.1823
X1.8823Y-2.9331
X1.9823Y-0.5315
X1.9823Y-1.2823
X1.9823Y-2.1823
X1.9823Y-2.9331
X2.0823Y-0.5315
X2.0823Y-1.2823
X2.0823Y-2.1823
X2.0823Y-2.9331
X2.1823Y-0.5315
X2.1823Y-1.3823
X2.1823Y-1.4823
X2.1823Y-1.5823
X2.1823Y-1.6823
X2.1823Y-1.7823
X2.1823Y-1.8823
X2.1823Y-1.9823
X2.1823Y-2.0823
X2.1823Y-2.9331
X2.2823Y-0.5315
X2.2823Y-2.9331
X2.3823Y-0.5315
X2.3823Y-2.9331
X2.4823Y-0.5315
X2.4823Y-2.9331
X2.9331Y-0.9823
X2.9331Y-1.0823
X2.9331Y-1.1823
X2.9331Y-1.2823
X2.9331Y-1.3823
X2.9331Y-1.4823
X2.9331Y-1.5823
X2.9331Y-1.6823
X2.9331Y-1.7823
X2.9331Y-1.8823
X2.9331Y-1.9823
X2.9331Y-2.0823
X2.9331Y-2.1823
X2.9331Y-2.2823
X2.9331Y-2.3823
X2.9331Y-2.4823
M30
