M48
; DRILL file {KiCad 8.0.4} date 2024-08-11T12:09:26-0400
; FORMAT={-:-/ absolute / inch / decimal}
; #@! TF.CreationDate,2024-08-11T12:09:26-04:00
; #@! TF.GenerationSoftware,Kicad,Pcbnew,8.0.4
; #@! TF.FileFunction,Plated,1,4,PTH
FMAT,2
INCH
; #@! TA.AperFunction,Plated,PTH,ViaDrill
T1C0.0157
; #@! TA.AperFunction,Plated,PTH,ComponentDrill
T2C0.0315
; #@! TA.AperFunction,Plated,PTH,ComponentDrill
T3C0.0394
%
G90
G05
T1
X0.6693Y-2.0079
X0.7087Y-0.689
X0.7874Y-1.5886
X0.7874Y-1.7126
X0.7972Y-1.8996
X0.8465Y-2.815
X0.8661Y-2.5984
X0.9055Y-2.3425
X0.9252Y-1.6137
X0.9252Y-1.6929
X0.9257Y-1.653
X0.9449Y-2.2441
X0.9646Y-1.5945
X0.9843Y-1.8504
X1.0433Y-2.1063
X1.0827Y-1.5551
X1.0827Y-2.2441
X1.1614Y-1.811
X1.1614Y-2.0276
X1.1614Y-2.3819
X1.1629Y-1.6904
X1.1909Y-1.7431
X1.2008Y-1.2205
X1.2008Y-1.6339
X1.4764Y-2.3819
X1.5354Y-0.8858
X1.5354Y-1.1811
X1.5453Y-1.0925
X1.5748Y-1.5748
X1.5748Y-1.8898
X1.6082Y-2.4016
X1.6804Y-1.0978
X1.6924Y-2.4011
X1.6929Y-0.9567
X1.6929Y-2.5984
X1.7004Y-1.0159
X1.7717Y-0.9646
X1.7717Y-1.0236
X1.7717Y-2.5984
X1.7717Y-2.7953
X1.7805Y-1.1083
X1.7913Y-2.4016
X1.8279Y-2.6066
X1.8898Y-0.8396
X1.8898Y-1.5748
X1.8898Y-1.8898
X1.9094Y-1.0763
X1.9094Y-1.1417
X1.94Y-1.1811
X1.9488Y-2.5128
X1.9596Y-1.1048
X2.0472Y-2.6378
X2.2047Y-0.8661
X2.4606Y-1.752
X2.5197Y-2.6181
X2.6181Y-1.0433
X2.6969Y-2.4213
X2.7559Y-2.7756
X2.874Y-2.4803
T2
X1.2177Y-2.8752
X1.3177Y-2.8752
X1.4177Y-2.8752
X1.6323Y-2.874
X1.7323Y-2.874
X1.8323Y-2.874
X2.0457Y-2.874
X2.1457Y-2.874
X2.2457Y-2.874
T3
X0.5512Y-1.1323
X0.5512Y-1.2323
X0.5512Y-1.3323
X0.5512Y-1.4323
X0.5512Y-1.5323
X0.5512Y-1.6323
X0.5512Y-1.7323
X0.5512Y-1.8323
X0.5512Y-1.9323
X0.5512Y-2.0323
X0.5512Y-2.1323
X0.5512Y-2.2323
X0.5512Y-2.3323
X1.1323Y-0.5512
X1.2323Y-0.5512
X1.2823Y-1.3823
X1.2823Y-1.4823
X1.2823Y-1.5823
X1.2823Y-1.6823
X1.2823Y-1.7823
X1.2823Y-1.8823
X1.2823Y-1.9823
X1.2823Y-2.0823
X1.3323Y-0.5512
X1.3823Y-1.2823
X1.3823Y-1.3823
X1.3823Y-1.4823
X1.3823Y-2.1823
X1.4323Y-0.5512
X1.4823Y-1.2823
X1.4823Y-2.1823
X1.5323Y-0.5512
X1.5823Y-1.2823
X1.5823Y-2.1823
X1.6323Y-0.5512
X1.6823Y-1.2823
X1.6823Y-2.1823
X1.7323Y-0.5512
X1.7823Y-1.2823
X1.7823Y-2.1823
X1.8323Y-0.5512
X1.8823Y-1.2823
X1.8823Y-2.1823
X1.9323Y-0.5512
X1.9823Y-1.2823
X1.9823Y-2.1823
X2.0323Y-0.5512
X2.0823Y-1.2823
X2.0823Y-2.1823
X2.1323Y-0.5512
X2.1823Y-1.3823
X2.1823Y-1.4823
X2.1823Y-1.5823
X2.1823Y-1.6823
X2.1823Y-1.7823
X2.1823Y-1.8823
X2.1823Y-1.9823
X2.1823Y-2.0823
X2.2323Y-0.5512
X2.3323Y-0.5512
X2.9134Y-1.4823
X2.9134Y-1.5823
X2.9134Y-1.6823
X2.9134Y-1.7823
X2.9134Y-1.8823
X2.9134Y-1.9823
M30
