%TF.GenerationSoftware,KiCad,Pcbnew,8.0.4*%
%TF.CreationDate,2024-08-11T12:24:47-04:00*%
%TF.ProjectId,Logic Circuit,4c6f6769-6320-4436-9972-637569742e6b,rev?*%
%TF.SameCoordinates,Original*%
%TF.FileFunction,Copper,L3,Inr*%
%TF.FilePolarity,Positive*%
%FSLAX46Y46*%
G04 Gerber Fmt 4.6, Leading zero omitted, Abs format (unit mm)*
G04 Created by KiCad (PCBNEW 8.0.4) date 2024-08-11 12:24:47*
%MOMM*%
%LPD*%
G01*
G04 APERTURE LIST*
%TA.AperFunction,ComponentPad*%
%ADD10R,1.700000X1.700000*%
%TD*%
%TA.AperFunction,ComponentPad*%
%ADD11O,1.700000X1.700000*%
%TD*%
%TA.AperFunction,ComponentPad*%
%ADD12C,1.440000*%
%TD*%
%TA.AperFunction,ViaPad*%
%ADD13C,1.000000*%
%TD*%
%TA.AperFunction,ViaPad*%
%ADD14C,0.800000*%
%TD*%
%TA.AperFunction,Conductor*%
%ADD15C,0.250000*%
%TD*%
G04 APERTURE END LIST*
D10*
%TO.N,VDD*%
%TO.C,IS_OUT1*%
X28760000Y-14000000D03*
D11*
%TO.N,GND*%
X31300000Y-14000000D03*
%TO.N,/BUS1*%
X33840000Y-14000000D03*
%TO.N,/BUS2*%
X36380000Y-14000000D03*
%TO.N,/BUS3*%
X38920000Y-14000000D03*
%TO.N,/BUS4*%
X41460000Y-14000000D03*
%TO.N,/BUS5*%
X44000000Y-14000000D03*
%TO.N,/BUS6*%
X46540000Y-14000000D03*
%TO.N,/BUS7*%
X49080000Y-14000000D03*
%TO.N,/BUS8*%
X51620000Y-14000000D03*
%TO.N,/RST Pulse*%
X54160000Y-14000000D03*
%TO.N,/Read Out*%
X56700000Y-14000000D03*
%TO.N,/Inhibit EN*%
X59240000Y-14000000D03*
%TD*%
D12*
%TO.N,Net-(R44-Pad2)*%
%TO.C,RV1*%
X36010000Y-73030000D03*
%TO.N,/Pulse Circuit/Y Trig*%
X33470000Y-73030000D03*
%TO.N,unconnected-(RV1-Pad3)*%
X30930000Y-73030000D03*
%TD*%
D10*
%TO.N,/MAD.Y1*%
%TO.C,Y1*%
X35110000Y-32570000D03*
D11*
%TO.N,/MAD.Y3*%
X37650000Y-32570000D03*
%TO.N,/MAD.Y5*%
X40190000Y-32570000D03*
%TO.N,/MAD.Y7*%
X42730000Y-32570000D03*
%TO.N,/MAD.Y9*%
X45270000Y-32570000D03*
%TO.N,/MAD.Y11*%
X47810000Y-32570000D03*
%TO.N,/MAD.Y13*%
X50350000Y-32570000D03*
%TO.N,/MAD.Y15*%
X52890000Y-32570000D03*
%TD*%
D10*
%TO.N,/MAD In*%
%TO.C,D_DAT1*%
X35110000Y-35110000D03*
D11*
%TO.N,/Write Req*%
X35110000Y-37650000D03*
%TD*%
D12*
%TO.N,Net-(R43-Pad1)*%
%TO.C,RV3*%
X57040000Y-73000000D03*
%TO.N,VDD*%
X54500000Y-73000000D03*
%TO.N,unconnected-(RV3-Pad3)*%
X51960000Y-73000000D03*
%TD*%
D10*
%TO.N,/MAD.X2*%
%TO.C,X2*%
X55430000Y-35110000D03*
D11*
%TO.N,/MAD.X4*%
X55430000Y-37650000D03*
%TO.N,/MAD.X6*%
X55430000Y-40190000D03*
%TO.N,/MAD.X8*%
X55430000Y-42730000D03*
%TO.N,/MAD.X10*%
X55430000Y-45270000D03*
%TO.N,/MAD.X12*%
X55430000Y-47810000D03*
%TO.N,/MAD.X14*%
X55430000Y-50350000D03*
%TO.N,/MAD.X16*%
X55430000Y-52890000D03*
%TD*%
D12*
%TO.N,Net-(R42-Pad2)*%
%TO.C,RV2*%
X46540000Y-73000000D03*
%TO.N,VDD*%
X44000000Y-73000000D03*
%TO.N,unconnected-(RV2-Pad3)*%
X41460000Y-73000000D03*
%TD*%
D10*
%TO.N,/X Pulse*%
%TO.C,PULSE_DBG1*%
X74000000Y-37650000D03*
D11*
%TO.N,/MAD Buffer/MAD X DIS*%
X74000000Y-40190000D03*
%TO.N,/Pulse Circuit/Y Pulse*%
X74000000Y-42730000D03*
%TO.N,/MAD Buffer/MAD Y DIS*%
X74000000Y-45270000D03*
%TO.N,/RST Pulse*%
X74000000Y-47810000D03*
%TO.N,/Pulse Circuit/~{RST Pulse}*%
X74000000Y-50350000D03*
%TD*%
D10*
%TO.N,/MAD.Y2*%
%TO.C,Y2*%
X35110000Y-55430000D03*
D11*
%TO.N,/MAD.Y4*%
X37650000Y-55430000D03*
%TO.N,/MAD.Y6*%
X40190000Y-55430000D03*
%TO.N,/MAD.Y8*%
X42730000Y-55430000D03*
%TO.N,/MAD.Y10*%
X45270000Y-55430000D03*
%TO.N,/MAD.Y12*%
X47810000Y-55430000D03*
%TO.N,/MAD.Y14*%
X50350000Y-55430000D03*
%TO.N,/MAD.Y16*%
X52890000Y-55430000D03*
%TD*%
D10*
%TO.N,/MAD.X1*%
%TO.C,X1*%
X32570000Y-35110000D03*
D11*
%TO.N,/MAD.X3*%
X32570000Y-37650000D03*
%TO.N,/MAD.X5*%
X32570000Y-40190000D03*
%TO.N,/MAD.X7*%
X32570000Y-42730000D03*
%TO.N,/MAD.X9*%
X32570000Y-45270000D03*
%TO.N,/MAD.X11*%
X32570000Y-47810000D03*
%TO.N,/MAD.X13*%
X32570000Y-50350000D03*
%TO.N,/MAD.X15*%
X32570000Y-52890000D03*
%TD*%
D10*
%TO.N,VDD*%
%TO.C,IN1*%
X14000000Y-28760000D03*
D11*
%TO.N,GND*%
X14000000Y-31300000D03*
%TO.N,/BUS1*%
X14000000Y-33840000D03*
%TO.N,/BUS2*%
X14000000Y-36380000D03*
%TO.N,/BUS3*%
X14000000Y-38920000D03*
%TO.N,/BUS4*%
X14000000Y-41460000D03*
%TO.N,/BUS5*%
X14000000Y-44000000D03*
%TO.N,/BUS6*%
X14000000Y-46540000D03*
%TO.N,/BUS7*%
X14000000Y-49080000D03*
%TO.N,/BUS8*%
X14000000Y-51620000D03*
%TO.N,/MAD In*%
X14000000Y-54160000D03*
%TO.N,/Read Out*%
X14000000Y-56700000D03*
%TO.N,/Write Req*%
X14000000Y-59240000D03*
%TD*%
D13*
%TO.N,VDD*%
X26500000Y-53500000D03*
X20250000Y-48250000D03*
X27500000Y-57000000D03*
X49500000Y-63825000D03*
X64000000Y-66500000D03*
X48000000Y-21325000D03*
D14*
%TO.N,GND*%
X27500000Y-39500000D03*
X70000000Y-70500000D03*
X22000000Y-66000000D03*
X30500000Y-31000000D03*
X17000000Y-51000000D03*
X62500000Y-44500000D03*
X21500000Y-71500000D03*
X52000000Y-67000000D03*
X66500000Y-26500000D03*
X40849089Y-61000000D03*
X24000000Y-57000000D03*
X48000000Y-48000000D03*
X45000000Y-24500000D03*
X56000000Y-22000000D03*
X29500000Y-51500000D03*
X37500000Y-60500000D03*
X18000000Y-17500000D03*
X39000000Y-30000000D03*
X46427557Y-66207222D03*
X40000000Y-40000000D03*
X45000000Y-71000000D03*
X68500000Y-61500000D03*
X48000000Y-40000000D03*
X40000000Y-48000000D03*
%TO.N,/MAD Buffer/MAD X DIS*%
X45500000Y-61000000D03*
%TO.N,/Pulse Circuit/Y Pulse*%
X42987347Y-60987347D03*
%TO.N,/MAD Buffer/MAD Y DIS*%
X43000000Y-66000000D03*
%TO.N,/MAD.X10*%
X24500000Y-40500000D03*
%TO.N,/MAD.X6*%
X30249696Y-44275001D03*
%TO.N,/MAD.X2*%
X30500000Y-41500000D03*
%TO.N,/MAD.X4*%
X29537347Y-42937347D03*
%TO.N,/MAD.X13*%
X23499839Y-40987427D03*
%TO.N,/MAD.X8*%
X29500000Y-46000000D03*
%TO.N,/MAD.X16*%
X23512653Y-41987347D03*
%TO.N,/MAD.X12*%
X20000000Y-43500000D03*
%TO.N,/MAD.X15*%
X23500000Y-43000000D03*
%TO.N,/MAD.X14*%
X20000000Y-40350000D03*
%TO.N,/MAD.Y8*%
X43000000Y-24300000D03*
%TO.N,/MAD.Y16*%
X49775000Y-28062403D03*
%TO.N,/MAD.Y4*%
X42682688Y-27882882D03*
%TO.N,/MAD.Y14*%
X49275000Y-30000000D03*
%TO.N,/MAD.Y13*%
X48500000Y-29000000D03*
%TO.N,/MAD.Y10*%
X45225000Y-28150403D03*
%TO.N,/MAD.Y12*%
X45000000Y-26000000D03*
%TO.N,/MAD.Y2*%
X39250000Y-27750000D03*
%TO.N,/MAD.Y15*%
X48500000Y-27337403D03*
%TO.N,/MAD.Y6*%
X43189963Y-25802596D03*
%TO.N,/MAD In*%
X39000000Y-22500000D03*
X25000000Y-47000000D03*
X73000000Y-63000000D03*
%TO.N,/X Pulse*%
X45000000Y-66000000D03*
X23000000Y-59500000D03*
%TO.N,/Inhibit EN*%
X29500000Y-60500000D03*
%TD*%
D15*
%TO.N,/MAD.Y8*%
X42730000Y-55430000D02*
X43914963Y-54245037D01*
X43914963Y-54245037D02*
X43914963Y-25214963D01*
X43914963Y-25214963D02*
X43000000Y-24300000D01*
%TO.N,/MAD.Y16*%
X49775000Y-28062403D02*
X50062403Y-28062403D01*
X54065000Y-32065000D02*
X54065000Y-54255000D01*
X50062403Y-28062403D02*
X54065000Y-32065000D01*
X54065000Y-54255000D02*
X52890000Y-55430000D01*
%TO.N,/MAD.Y4*%
X38825000Y-54255000D02*
X38825000Y-31740570D01*
X38825000Y-31740570D02*
X42682688Y-27882882D01*
X37650000Y-55430000D02*
X38825000Y-54255000D01*
%TO.N,/MAD.Y14*%
X49275000Y-30000000D02*
X49500000Y-30000000D01*
X51525000Y-32025000D02*
X51525000Y-54255000D01*
X49500000Y-30000000D02*
X51525000Y-32025000D01*
X51525000Y-54255000D02*
X50350000Y-55430000D01*
%TO.N,/MAD.Y13*%
X48500000Y-30720000D02*
X48500000Y-29000000D01*
X50350000Y-32570000D02*
X48500000Y-30720000D01*
%TO.N,/MAD.Y10*%
X46635000Y-29560403D02*
X45225000Y-28150403D01*
X46635000Y-54065000D02*
X46635000Y-29560403D01*
X45270000Y-55430000D02*
X46635000Y-54065000D01*
%TO.N,/MAD.Y12*%
X47500000Y-28500000D02*
X45000000Y-26000000D01*
X48985000Y-31985000D02*
X47500000Y-30500000D01*
X47810000Y-55430000D02*
X48985000Y-54255000D01*
X47500000Y-30500000D02*
X47500000Y-28500000D01*
X48985000Y-54255000D02*
X48985000Y-31985000D01*
%TO.N,/MAD.Y2*%
X36475000Y-54065000D02*
X35110000Y-55430000D01*
X39250000Y-27750000D02*
X36475000Y-30525000D01*
X36475000Y-30525000D02*
X36475000Y-54065000D01*
%TO.N,/MAD.Y15*%
X48500000Y-27812708D02*
X48500000Y-27337403D01*
X52890000Y-32570000D02*
X52890000Y-32202708D01*
X52890000Y-32202708D02*
X48500000Y-27812708D01*
%TO.N,/MAD.Y6*%
X41365000Y-30635000D02*
X41365000Y-54255000D01*
X43189963Y-25802596D02*
X43407688Y-26020321D01*
X41365000Y-54255000D02*
X40190000Y-55430000D01*
X43407688Y-28592312D02*
X41365000Y-30635000D01*
X43407688Y-26020321D02*
X43407688Y-28592312D01*
%TO.N,/MAD In*%
X73000000Y-63000000D02*
X16000000Y-63000000D01*
X35110000Y-35110000D02*
X33935000Y-33935000D01*
X33935000Y-27565000D02*
X39000000Y-22500000D01*
X25000000Y-47000000D02*
X25000000Y-43558299D01*
X33935000Y-36285000D02*
X35110000Y-35110000D01*
X12825000Y-55335000D02*
X14000000Y-54160000D01*
X16000000Y-63000000D02*
X12825000Y-59825000D01*
X14000000Y-54160000D02*
X17840000Y-54160000D01*
X33935000Y-33935000D02*
X33935000Y-27565000D01*
X25000000Y-43558299D02*
X32273299Y-36285000D01*
X17840000Y-54160000D02*
X25000000Y-47000000D01*
X12825000Y-59825000D02*
X12825000Y-55335000D01*
X32273299Y-36285000D02*
X33935000Y-36285000D01*
%TO.N,/Write Req*%
X25725000Y-45249695D02*
X31974695Y-39000000D01*
X33760000Y-39000000D02*
X35110000Y-37650000D01*
X14000000Y-59240000D02*
X25725000Y-47515000D01*
X25725000Y-47515000D02*
X25725000Y-45249695D01*
X31974695Y-39000000D02*
X33760000Y-39000000D01*
%TO.N,/RST Pulse*%
X54160000Y-14000000D02*
X55660000Y-12500000D01*
X72000000Y-45810000D02*
X74000000Y-47810000D01*
X72000000Y-24500000D02*
X72000000Y-45810000D01*
X60000000Y-12500000D02*
X72000000Y-24500000D01*
X55660000Y-12500000D02*
X60000000Y-12500000D01*
%TO.N,/Inhibit EN*%
X32500000Y-57500000D02*
X34500000Y-57500000D01*
X34500000Y-57500000D02*
X54500000Y-57500000D01*
X59240000Y-52760000D02*
X59240000Y-14000000D01*
X54500000Y-57500000D02*
X59240000Y-52760000D01*
X29500000Y-60500000D02*
X32500000Y-57500000D01*
%TD*%
M02*
