%TF.GenerationSoftware,KiCad,Pcbnew,8.0.4*%
%TF.CreationDate,2024-08-11T12:09:25-04:00*%
%TF.ProjectId,Logic Circuit,4c6f6769-6320-4436-9972-637569742e6b,rev?*%
%TF.SameCoordinates,Original*%
%TF.FileFunction,Drillmap*%
%TF.FilePolarity,Positive*%
%FSLAX45Y45*%
G04 Gerber Fmt 4.5, Leading zero omitted, Abs format (unit mm)*
G04 Created by KiCad (PCBNEW 8.0.4) date 2024-08-11 12:09:25*
%MOMM*%
%LPD*%
G01*
G04 APERTURE LIST*
%ADD10C,0.100000*%
%ADD11C,0.200000*%
G04 APERTURE END LIST*
D10*
X1200000Y-1200000D02*
X7600000Y-1200000D01*
X7600000Y-7600000D01*
X1200000Y-7600000D01*
X1200000Y-1200000D01*
D11*
D10*
X1680000Y-5080000D02*
X1720000Y-5120000D01*
X1720000Y-5080000D02*
X1680000Y-5120000D01*
X1780000Y-1730000D02*
X1820000Y-1770000D01*
X1820000Y-1730000D02*
X1780000Y-1770000D01*
X1980000Y-4015000D02*
X2020000Y-4055000D01*
X2020000Y-4015000D02*
X1980000Y-4055000D01*
X1980000Y-4330000D02*
X2020000Y-4370000D01*
X2020000Y-4330000D02*
X1980000Y-4370000D01*
X2005000Y-4805000D02*
X2045000Y-4845000D01*
X2045000Y-4805000D02*
X2005000Y-4845000D01*
X2130000Y-7130000D02*
X2170000Y-7170000D01*
X2170000Y-7130000D02*
X2130000Y-7170000D01*
X2180000Y-6580000D02*
X2220000Y-6620000D01*
X2220000Y-6580000D02*
X2180000Y-6620000D01*
X2280000Y-5930000D02*
X2320000Y-5970000D01*
X2320000Y-5930000D02*
X2280000Y-5970000D01*
X2329984Y-4078743D02*
X2369984Y-4118743D01*
X2369984Y-4078743D02*
X2329984Y-4118743D01*
X2330000Y-4280000D02*
X2370000Y-4320000D01*
X2370000Y-4280000D02*
X2330000Y-4320000D01*
X2331265Y-4178735D02*
X2371265Y-4218735D01*
X2371265Y-4178735D02*
X2331265Y-4218735D01*
X2380000Y-5680000D02*
X2420000Y-5720000D01*
X2420000Y-5680000D02*
X2380000Y-5720000D01*
X2430000Y-4030000D02*
X2470000Y-4070000D01*
X2470000Y-4030000D02*
X2430000Y-4070000D01*
X2480000Y-4680000D02*
X2520000Y-4720000D01*
X2520000Y-4680000D02*
X2480000Y-4720000D01*
X2630000Y-5330000D02*
X2670000Y-5370000D01*
X2670000Y-5330000D02*
X2630000Y-5370000D01*
X2730000Y-3930000D02*
X2770000Y-3970000D01*
X2770000Y-3930000D02*
X2730000Y-3970000D01*
X2730000Y-5680000D02*
X2770000Y-5720000D01*
X2770000Y-5680000D02*
X2730000Y-5720000D01*
X2930000Y-4580000D02*
X2970000Y-4620000D01*
X2970000Y-4580000D02*
X2930000Y-4620000D01*
X2930000Y-5130000D02*
X2970000Y-5170000D01*
X2970000Y-5130000D02*
X2930000Y-5170000D01*
X2930000Y-6030000D02*
X2970000Y-6070000D01*
X2970000Y-6030000D02*
X2930000Y-6070000D01*
X2933735Y-4273735D02*
X2973735Y-4313735D01*
X2973735Y-4273735D02*
X2933735Y-4313735D01*
X3004970Y-4407500D02*
X3044970Y-4447500D01*
X3044970Y-4407500D02*
X3004970Y-4447500D01*
X3030000Y-3080000D02*
X3070000Y-3120000D01*
X3070000Y-3080000D02*
X3030000Y-3120000D01*
X3030000Y-4130000D02*
X3070000Y-4170000D01*
X3070000Y-4130000D02*
X3030000Y-4170000D01*
X3730000Y-6030000D02*
X3770000Y-6070000D01*
X3770000Y-6030000D02*
X3730000Y-6070000D01*
X3880000Y-2230000D02*
X3920000Y-2270000D01*
X3920000Y-2230000D02*
X3880000Y-2270000D01*
X3880000Y-2980000D02*
X3920000Y-3020000D01*
X3920000Y-2980000D02*
X3880000Y-3020000D01*
X3905000Y-2755000D02*
X3945000Y-2795000D01*
X3945000Y-2755000D02*
X3905000Y-2795000D01*
X3980000Y-3980000D02*
X4020000Y-4020000D01*
X4020000Y-3980000D02*
X3980000Y-4020000D01*
X3980000Y-4780000D02*
X4020000Y-4820000D01*
X4020000Y-4780000D02*
X3980000Y-4820000D01*
X4064909Y-6080000D02*
X4104909Y-6120000D01*
X4104909Y-6080000D02*
X4064909Y-6120000D01*
X4248269Y-2768288D02*
X4288269Y-2808288D01*
X4288269Y-2768288D02*
X4248269Y-2808288D01*
X4278735Y-6078735D02*
X4318735Y-6118735D01*
X4318735Y-6078735D02*
X4278735Y-6118735D01*
X4280000Y-2410000D02*
X4320000Y-2450000D01*
X4320000Y-2410000D02*
X4280000Y-2450000D01*
X4280000Y-6580000D02*
X4320000Y-6620000D01*
X4320000Y-6580000D02*
X4280000Y-6620000D01*
X4298996Y-2560260D02*
X4338996Y-2600260D01*
X4338996Y-2560260D02*
X4298996Y-2600260D01*
X4480000Y-2430000D02*
X4520000Y-2470000D01*
X4520000Y-2430000D02*
X4480000Y-2470000D01*
X4480000Y-2580000D02*
X4520000Y-2620000D01*
X4520000Y-2580000D02*
X4480000Y-2620000D01*
X4480000Y-6580000D02*
X4520000Y-6620000D01*
X4520000Y-6580000D02*
X4480000Y-6620000D01*
X4480000Y-7080000D02*
X4520000Y-7120000D01*
X4520000Y-7080000D02*
X4480000Y-7120000D01*
X4502500Y-2795040D02*
X4542500Y-2835040D01*
X4542500Y-2795040D02*
X4502500Y-2835040D01*
X4530000Y-6080000D02*
X4570000Y-6120000D01*
X4570000Y-6080000D02*
X4530000Y-6120000D01*
X4622756Y-6600722D02*
X4662756Y-6640722D01*
X4662756Y-6600722D02*
X4622756Y-6640722D01*
X4780000Y-2112500D02*
X4820000Y-2152500D01*
X4820000Y-2112500D02*
X4780000Y-2152500D01*
X4780000Y-3980000D02*
X4820000Y-4020000D01*
X4820000Y-3980000D02*
X4780000Y-4020000D01*
X4780000Y-4780000D02*
X4820000Y-4820000D01*
X4820000Y-4780000D02*
X4780000Y-4820000D01*
X4830000Y-2713740D02*
X4870000Y-2753740D01*
X4870000Y-2713740D02*
X4830000Y-2753740D01*
X4830000Y-2880000D02*
X4870000Y-2920000D01*
X4870000Y-2880000D02*
X4830000Y-2920000D01*
X4907500Y-2980000D02*
X4947500Y-3020000D01*
X4947500Y-2980000D02*
X4907500Y-3020000D01*
X4930000Y-6362500D02*
X4970000Y-6402500D01*
X4970000Y-6362500D02*
X4930000Y-6402500D01*
X4957500Y-2786240D02*
X4997500Y-2826240D01*
X4997500Y-2786240D02*
X4957500Y-2826240D01*
X5180000Y-6680000D02*
X5220000Y-6720000D01*
X5220000Y-6680000D02*
X5180000Y-6720000D01*
X5580000Y-2180000D02*
X5620000Y-2220000D01*
X5620000Y-2180000D02*
X5580000Y-2220000D01*
X6230000Y-4430000D02*
X6270000Y-4470000D01*
X6270000Y-4430000D02*
X6230000Y-4470000D01*
X6380000Y-6630000D02*
X6420000Y-6670000D01*
X6420000Y-6630000D02*
X6380000Y-6670000D01*
X6630000Y-2630000D02*
X6670000Y-2670000D01*
X6670000Y-2630000D02*
X6630000Y-2670000D01*
X6830000Y-6130000D02*
X6870000Y-6170000D01*
X6870000Y-6130000D02*
X6830000Y-6170000D01*
X6980000Y-7030000D02*
X7020000Y-7070000D01*
X7020000Y-7030000D02*
X6980000Y-7070000D01*
X7280000Y-6280000D02*
X7320000Y-6320000D01*
X7320000Y-6280000D02*
X7280000Y-6320000D01*
X3133000Y-7303000D02*
G75*
G02*
X3053000Y-7303000I-40000J0D01*
G01*
X3053000Y-7303000D02*
G75*
G02*
X3133000Y-7303000I40000J0D01*
G01*
X3387000Y-7303000D02*
G75*
G02*
X3307000Y-7303000I-40000J0D01*
G01*
X3307000Y-7303000D02*
G75*
G02*
X3387000Y-7303000I40000J0D01*
G01*
X3641000Y-7303000D02*
G75*
G02*
X3561000Y-7303000I-40000J0D01*
G01*
X3561000Y-7303000D02*
G75*
G02*
X3641000Y-7303000I40000J0D01*
G01*
X4186000Y-7300000D02*
G75*
G02*
X4106000Y-7300000I-40000J0D01*
G01*
X4106000Y-7300000D02*
G75*
G02*
X4186000Y-7300000I40000J0D01*
G01*
X4440000Y-7300000D02*
G75*
G02*
X4360000Y-7300000I-40000J0D01*
G01*
X4360000Y-7300000D02*
G75*
G02*
X4440000Y-7300000I40000J0D01*
G01*
X4694000Y-7300000D02*
G75*
G02*
X4614000Y-7300000I-40000J0D01*
G01*
X4614000Y-7300000D02*
G75*
G02*
X4694000Y-7300000I40000J0D01*
G01*
X5236000Y-7300000D02*
G75*
G02*
X5156000Y-7300000I-40000J0D01*
G01*
X5156000Y-7300000D02*
G75*
G02*
X5236000Y-7300000I40000J0D01*
G01*
X5490000Y-7300000D02*
G75*
G02*
X5410000Y-7300000I-40000J0D01*
G01*
X5410000Y-7300000D02*
G75*
G02*
X5490000Y-7300000I40000J0D01*
G01*
X5744000Y-7300000D02*
G75*
G02*
X5664000Y-7300000I-40000J0D01*
G01*
X5664000Y-7300000D02*
G75*
G02*
X5744000Y-7300000I40000J0D01*
G01*
X1400000Y-2826000D02*
X1400000Y-2926000D01*
X1350000Y-2876000D02*
X1450000Y-2876000D01*
X1400000Y-3080000D02*
X1400000Y-3180000D01*
X1350000Y-3130000D02*
X1450000Y-3130000D01*
X1400000Y-3334000D02*
X1400000Y-3434000D01*
X1350000Y-3384000D02*
X1450000Y-3384000D01*
X1400000Y-3588000D02*
X1400000Y-3688000D01*
X1350000Y-3638000D02*
X1450000Y-3638000D01*
X1400000Y-3842000D02*
X1400000Y-3942000D01*
X1350000Y-3892000D02*
X1450000Y-3892000D01*
X1400000Y-4096000D02*
X1400000Y-4196000D01*
X1350000Y-4146000D02*
X1450000Y-4146000D01*
X1400000Y-4350000D02*
X1400000Y-4450000D01*
X1350000Y-4400000D02*
X1450000Y-4400000D01*
X1400000Y-4604000D02*
X1400000Y-4704000D01*
X1350000Y-4654000D02*
X1450000Y-4654000D01*
X1400000Y-4858000D02*
X1400000Y-4958000D01*
X1350000Y-4908000D02*
X1450000Y-4908000D01*
X1400000Y-5112000D02*
X1400000Y-5212000D01*
X1350000Y-5162000D02*
X1450000Y-5162000D01*
X1400000Y-5366000D02*
X1400000Y-5466000D01*
X1350000Y-5416000D02*
X1450000Y-5416000D01*
X1400000Y-5620000D02*
X1400000Y-5720000D01*
X1350000Y-5670000D02*
X1450000Y-5670000D01*
X1400000Y-5874000D02*
X1400000Y-5974000D01*
X1350000Y-5924000D02*
X1450000Y-5924000D01*
X2876000Y-1350000D02*
X2876000Y-1450000D01*
X2826000Y-1400000D02*
X2926000Y-1400000D01*
X3130000Y-1350000D02*
X3130000Y-1450000D01*
X3080000Y-1400000D02*
X3180000Y-1400000D01*
X3257000Y-3461000D02*
X3257000Y-3561000D01*
X3207000Y-3511000D02*
X3307000Y-3511000D01*
X3257000Y-3715000D02*
X3257000Y-3815000D01*
X3207000Y-3765000D02*
X3307000Y-3765000D01*
X3257000Y-3969000D02*
X3257000Y-4069000D01*
X3207000Y-4019000D02*
X3307000Y-4019000D01*
X3257000Y-4223000D02*
X3257000Y-4323000D01*
X3207000Y-4273000D02*
X3307000Y-4273000D01*
X3257000Y-4477000D02*
X3257000Y-4577000D01*
X3207000Y-4527000D02*
X3307000Y-4527000D01*
X3257000Y-4731000D02*
X3257000Y-4831000D01*
X3207000Y-4781000D02*
X3307000Y-4781000D01*
X3257000Y-4985000D02*
X3257000Y-5085000D01*
X3207000Y-5035000D02*
X3307000Y-5035000D01*
X3257000Y-5239000D02*
X3257000Y-5339000D01*
X3207000Y-5289000D02*
X3307000Y-5289000D01*
X3384000Y-1350000D02*
X3384000Y-1450000D01*
X3334000Y-1400000D02*
X3434000Y-1400000D01*
X3511000Y-3207000D02*
X3511000Y-3307000D01*
X3461000Y-3257000D02*
X3561000Y-3257000D01*
X3511000Y-3461000D02*
X3511000Y-3561000D01*
X3461000Y-3511000D02*
X3561000Y-3511000D01*
X3511000Y-3715000D02*
X3511000Y-3815000D01*
X3461000Y-3765000D02*
X3561000Y-3765000D01*
X3511000Y-5493000D02*
X3511000Y-5593000D01*
X3461000Y-5543000D02*
X3561000Y-5543000D01*
X3638000Y-1350000D02*
X3638000Y-1450000D01*
X3588000Y-1400000D02*
X3688000Y-1400000D01*
X3765000Y-3207000D02*
X3765000Y-3307000D01*
X3715000Y-3257000D02*
X3815000Y-3257000D01*
X3765000Y-5493000D02*
X3765000Y-5593000D01*
X3715000Y-5543000D02*
X3815000Y-5543000D01*
X3892000Y-1350000D02*
X3892000Y-1450000D01*
X3842000Y-1400000D02*
X3942000Y-1400000D01*
X4019000Y-3207000D02*
X4019000Y-3307000D01*
X3969000Y-3257000D02*
X4069000Y-3257000D01*
X4019000Y-5493000D02*
X4019000Y-5593000D01*
X3969000Y-5543000D02*
X4069000Y-5543000D01*
X4146000Y-1350000D02*
X4146000Y-1450000D01*
X4096000Y-1400000D02*
X4196000Y-1400000D01*
X4273000Y-3207000D02*
X4273000Y-3307000D01*
X4223000Y-3257000D02*
X4323000Y-3257000D01*
X4273000Y-5493000D02*
X4273000Y-5593000D01*
X4223000Y-5543000D02*
X4323000Y-5543000D01*
X4400000Y-1350000D02*
X4400000Y-1450000D01*
X4350000Y-1400000D02*
X4450000Y-1400000D01*
X4527000Y-3207000D02*
X4527000Y-3307000D01*
X4477000Y-3257000D02*
X4577000Y-3257000D01*
X4527000Y-5493000D02*
X4527000Y-5593000D01*
X4477000Y-5543000D02*
X4577000Y-5543000D01*
X4654000Y-1350000D02*
X4654000Y-1450000D01*
X4604000Y-1400000D02*
X4704000Y-1400000D01*
X4781000Y-3207000D02*
X4781000Y-3307000D01*
X4731000Y-3257000D02*
X4831000Y-3257000D01*
X4781000Y-5493000D02*
X4781000Y-5593000D01*
X4731000Y-5543000D02*
X4831000Y-5543000D01*
X4908000Y-1350000D02*
X4908000Y-1450000D01*
X4858000Y-1400000D02*
X4958000Y-1400000D01*
X5035000Y-3207000D02*
X5035000Y-3307000D01*
X4985000Y-3257000D02*
X5085000Y-3257000D01*
X5035000Y-5493000D02*
X5035000Y-5593000D01*
X4985000Y-5543000D02*
X5085000Y-5543000D01*
X5162000Y-1350000D02*
X5162000Y-1450000D01*
X5112000Y-1400000D02*
X5212000Y-1400000D01*
X5289000Y-3207000D02*
X5289000Y-3307000D01*
X5239000Y-3257000D02*
X5339000Y-3257000D01*
X5289000Y-5493000D02*
X5289000Y-5593000D01*
X5239000Y-5543000D02*
X5339000Y-5543000D01*
X5416000Y-1350000D02*
X5416000Y-1450000D01*
X5366000Y-1400000D02*
X5466000Y-1400000D01*
X5543000Y-3461000D02*
X5543000Y-3561000D01*
X5493000Y-3511000D02*
X5593000Y-3511000D01*
X5543000Y-3715000D02*
X5543000Y-3815000D01*
X5493000Y-3765000D02*
X5593000Y-3765000D01*
X5543000Y-3969000D02*
X5543000Y-4069000D01*
X5493000Y-4019000D02*
X5593000Y-4019000D01*
X5543000Y-4223000D02*
X5543000Y-4323000D01*
X5493000Y-4273000D02*
X5593000Y-4273000D01*
X5543000Y-4477000D02*
X5543000Y-4577000D01*
X5493000Y-4527000D02*
X5593000Y-4527000D01*
X5543000Y-4731000D02*
X5543000Y-4831000D01*
X5493000Y-4781000D02*
X5593000Y-4781000D01*
X5543000Y-4985000D02*
X5543000Y-5085000D01*
X5493000Y-5035000D02*
X5593000Y-5035000D01*
X5543000Y-5239000D02*
X5543000Y-5339000D01*
X5493000Y-5289000D02*
X5593000Y-5289000D01*
X5670000Y-1350000D02*
X5670000Y-1450000D01*
X5620000Y-1400000D02*
X5720000Y-1400000D01*
X5924000Y-1350000D02*
X5924000Y-1450000D01*
X5874000Y-1400000D02*
X5974000Y-1400000D01*
X7400000Y-3715000D02*
X7400000Y-3815000D01*
X7350000Y-3765000D02*
X7450000Y-3765000D01*
X7400000Y-3969000D02*
X7400000Y-4069000D01*
X7350000Y-4019000D02*
X7450000Y-4019000D01*
X7400000Y-4223000D02*
X7400000Y-4323000D01*
X7350000Y-4273000D02*
X7450000Y-4273000D01*
X7400000Y-4477000D02*
X7400000Y-4577000D01*
X7350000Y-4527000D02*
X7450000Y-4527000D01*
X7400000Y-4731000D02*
X7400000Y-4831000D01*
X7350000Y-4781000D02*
X7450000Y-4781000D01*
X7400000Y-4985000D02*
X7400000Y-5085000D01*
X7350000Y-5035000D02*
X7450000Y-5035000D01*
D11*
X1455777Y-7916484D02*
X1455777Y-7716484D01*
X1455777Y-7716484D02*
X1503396Y-7716484D01*
X1503396Y-7716484D02*
X1531967Y-7726008D01*
X1531967Y-7726008D02*
X1551015Y-7745055D01*
X1551015Y-7745055D02*
X1560539Y-7764103D01*
X1560539Y-7764103D02*
X1570062Y-7802198D01*
X1570062Y-7802198D02*
X1570062Y-7830769D01*
X1570062Y-7830769D02*
X1560539Y-7868865D01*
X1560539Y-7868865D02*
X1551015Y-7887912D01*
X1551015Y-7887912D02*
X1531967Y-7906960D01*
X1531967Y-7906960D02*
X1503396Y-7916484D01*
X1503396Y-7916484D02*
X1455777Y-7916484D01*
X1655777Y-7916484D02*
X1655777Y-7783150D01*
X1655777Y-7821246D02*
X1665301Y-7802198D01*
X1665301Y-7802198D02*
X1674824Y-7792674D01*
X1674824Y-7792674D02*
X1693872Y-7783150D01*
X1693872Y-7783150D02*
X1712920Y-7783150D01*
X1779586Y-7916484D02*
X1779586Y-7783150D01*
X1779586Y-7716484D02*
X1770062Y-7726008D01*
X1770062Y-7726008D02*
X1779586Y-7735531D01*
X1779586Y-7735531D02*
X1789110Y-7726008D01*
X1789110Y-7726008D02*
X1779586Y-7716484D01*
X1779586Y-7716484D02*
X1779586Y-7735531D01*
X1903396Y-7916484D02*
X1884348Y-7906960D01*
X1884348Y-7906960D02*
X1874824Y-7887912D01*
X1874824Y-7887912D02*
X1874824Y-7716484D01*
X2008158Y-7916484D02*
X1989110Y-7906960D01*
X1989110Y-7906960D02*
X1979586Y-7887912D01*
X1979586Y-7887912D02*
X1979586Y-7716484D01*
X2236729Y-7916484D02*
X2236729Y-7716484D01*
X2236729Y-7716484D02*
X2303396Y-7859341D01*
X2303396Y-7859341D02*
X2370063Y-7716484D01*
X2370063Y-7716484D02*
X2370063Y-7916484D01*
X2551015Y-7916484D02*
X2551015Y-7811722D01*
X2551015Y-7811722D02*
X2541491Y-7792674D01*
X2541491Y-7792674D02*
X2522444Y-7783150D01*
X2522444Y-7783150D02*
X2484348Y-7783150D01*
X2484348Y-7783150D02*
X2465301Y-7792674D01*
X2551015Y-7906960D02*
X2531967Y-7916484D01*
X2531967Y-7916484D02*
X2484348Y-7916484D01*
X2484348Y-7916484D02*
X2465301Y-7906960D01*
X2465301Y-7906960D02*
X2455777Y-7887912D01*
X2455777Y-7887912D02*
X2455777Y-7868865D01*
X2455777Y-7868865D02*
X2465301Y-7849817D01*
X2465301Y-7849817D02*
X2484348Y-7840293D01*
X2484348Y-7840293D02*
X2531967Y-7840293D01*
X2531967Y-7840293D02*
X2551015Y-7830769D01*
X2646253Y-7783150D02*
X2646253Y-7983150D01*
X2646253Y-7792674D02*
X2665301Y-7783150D01*
X2665301Y-7783150D02*
X2703396Y-7783150D01*
X2703396Y-7783150D02*
X2722444Y-7792674D01*
X2722444Y-7792674D02*
X2731967Y-7802198D01*
X2731967Y-7802198D02*
X2741491Y-7821246D01*
X2741491Y-7821246D02*
X2741491Y-7878388D01*
X2741491Y-7878388D02*
X2731967Y-7897436D01*
X2731967Y-7897436D02*
X2722444Y-7906960D01*
X2722444Y-7906960D02*
X2703396Y-7916484D01*
X2703396Y-7916484D02*
X2665301Y-7916484D01*
X2665301Y-7916484D02*
X2646253Y-7906960D01*
X2827205Y-7897436D02*
X2836729Y-7906960D01*
X2836729Y-7906960D02*
X2827205Y-7916484D01*
X2827205Y-7916484D02*
X2817682Y-7906960D01*
X2817682Y-7906960D02*
X2827205Y-7897436D01*
X2827205Y-7897436D02*
X2827205Y-7916484D01*
X2827205Y-7792674D02*
X2836729Y-7802198D01*
X2836729Y-7802198D02*
X2827205Y-7811722D01*
X2827205Y-7811722D02*
X2817682Y-7802198D01*
X2817682Y-7802198D02*
X2827205Y-7792674D01*
X2827205Y-7792674D02*
X2827205Y-7811722D01*
D10*
X1155000Y-8225000D02*
X1195000Y-8265000D01*
X1195000Y-8225000D02*
X1155000Y-8265000D01*
D11*
X1493872Y-8136484D02*
X1512920Y-8136484D01*
X1512920Y-8136484D02*
X1531967Y-8146008D01*
X1531967Y-8146008D02*
X1541491Y-8155531D01*
X1541491Y-8155531D02*
X1551015Y-8174579D01*
X1551015Y-8174579D02*
X1560539Y-8212674D01*
X1560539Y-8212674D02*
X1560539Y-8260293D01*
X1560539Y-8260293D02*
X1551015Y-8298388D01*
X1551015Y-8298388D02*
X1541491Y-8317436D01*
X1541491Y-8317436D02*
X1531967Y-8326960D01*
X1531967Y-8326960D02*
X1512920Y-8336484D01*
X1512920Y-8336484D02*
X1493872Y-8336484D01*
X1493872Y-8336484D02*
X1474824Y-8326960D01*
X1474824Y-8326960D02*
X1465301Y-8317436D01*
X1465301Y-8317436D02*
X1455777Y-8298388D01*
X1455777Y-8298388D02*
X1446253Y-8260293D01*
X1446253Y-8260293D02*
X1446253Y-8212674D01*
X1446253Y-8212674D02*
X1455777Y-8174579D01*
X1455777Y-8174579D02*
X1465301Y-8155531D01*
X1465301Y-8155531D02*
X1474824Y-8146008D01*
X1474824Y-8146008D02*
X1493872Y-8136484D01*
X1646253Y-8317436D02*
X1655777Y-8326960D01*
X1655777Y-8326960D02*
X1646253Y-8336484D01*
X1646253Y-8336484D02*
X1636729Y-8326960D01*
X1636729Y-8326960D02*
X1646253Y-8317436D01*
X1646253Y-8317436D02*
X1646253Y-8336484D01*
X1827205Y-8203150D02*
X1827205Y-8336484D01*
X1779586Y-8126960D02*
X1731967Y-8269817D01*
X1731967Y-8269817D02*
X1855777Y-8269817D01*
X1970062Y-8136484D02*
X1989110Y-8136484D01*
X1989110Y-8136484D02*
X2008158Y-8146008D01*
X2008158Y-8146008D02*
X2017682Y-8155531D01*
X2017682Y-8155531D02*
X2027205Y-8174579D01*
X2027205Y-8174579D02*
X2036729Y-8212674D01*
X2036729Y-8212674D02*
X2036729Y-8260293D01*
X2036729Y-8260293D02*
X2027205Y-8298388D01*
X2027205Y-8298388D02*
X2017682Y-8317436D01*
X2017682Y-8317436D02*
X2008158Y-8326960D01*
X2008158Y-8326960D02*
X1989110Y-8336484D01*
X1989110Y-8336484D02*
X1970062Y-8336484D01*
X1970062Y-8336484D02*
X1951015Y-8326960D01*
X1951015Y-8326960D02*
X1941491Y-8317436D01*
X1941491Y-8317436D02*
X1931967Y-8298388D01*
X1931967Y-8298388D02*
X1922443Y-8260293D01*
X1922443Y-8260293D02*
X1922443Y-8212674D01*
X1922443Y-8212674D02*
X1931967Y-8174579D01*
X1931967Y-8174579D02*
X1941491Y-8155531D01*
X1941491Y-8155531D02*
X1951015Y-8146008D01*
X1951015Y-8146008D02*
X1970062Y-8136484D01*
X2160539Y-8136484D02*
X2179586Y-8136484D01*
X2179586Y-8136484D02*
X2198634Y-8146008D01*
X2198634Y-8146008D02*
X2208158Y-8155531D01*
X2208158Y-8155531D02*
X2217682Y-8174579D01*
X2217682Y-8174579D02*
X2227205Y-8212674D01*
X2227205Y-8212674D02*
X2227205Y-8260293D01*
X2227205Y-8260293D02*
X2217682Y-8298388D01*
X2217682Y-8298388D02*
X2208158Y-8317436D01*
X2208158Y-8317436D02*
X2198634Y-8326960D01*
X2198634Y-8326960D02*
X2179586Y-8336484D01*
X2179586Y-8336484D02*
X2160539Y-8336484D01*
X2160539Y-8336484D02*
X2141491Y-8326960D01*
X2141491Y-8326960D02*
X2131967Y-8317436D01*
X2131967Y-8317436D02*
X2122444Y-8298388D01*
X2122444Y-8298388D02*
X2112920Y-8260293D01*
X2112920Y-8260293D02*
X2112920Y-8212674D01*
X2112920Y-8212674D02*
X2122444Y-8174579D01*
X2122444Y-8174579D02*
X2131967Y-8155531D01*
X2131967Y-8155531D02*
X2141491Y-8146008D01*
X2141491Y-8146008D02*
X2160539Y-8136484D01*
X2312920Y-8336484D02*
X2312920Y-8203150D01*
X2312920Y-8222198D02*
X2322444Y-8212674D01*
X2322444Y-8212674D02*
X2341491Y-8203150D01*
X2341491Y-8203150D02*
X2370063Y-8203150D01*
X2370063Y-8203150D02*
X2389110Y-8212674D01*
X2389110Y-8212674D02*
X2398634Y-8231722D01*
X2398634Y-8231722D02*
X2398634Y-8336484D01*
X2398634Y-8231722D02*
X2408158Y-8212674D01*
X2408158Y-8212674D02*
X2427205Y-8203150D01*
X2427205Y-8203150D02*
X2455777Y-8203150D01*
X2455777Y-8203150D02*
X2474825Y-8212674D01*
X2474825Y-8212674D02*
X2484348Y-8231722D01*
X2484348Y-8231722D02*
X2484348Y-8336484D01*
X2579586Y-8336484D02*
X2579586Y-8203150D01*
X2579586Y-8222198D02*
X2589110Y-8212674D01*
X2589110Y-8212674D02*
X2608158Y-8203150D01*
X2608158Y-8203150D02*
X2636729Y-8203150D01*
X2636729Y-8203150D02*
X2655777Y-8212674D01*
X2655777Y-8212674D02*
X2665301Y-8231722D01*
X2665301Y-8231722D02*
X2665301Y-8336484D01*
X2665301Y-8231722D02*
X2674825Y-8212674D01*
X2674825Y-8212674D02*
X2693872Y-8203150D01*
X2693872Y-8203150D02*
X2722444Y-8203150D01*
X2722444Y-8203150D02*
X2741491Y-8212674D01*
X2741491Y-8212674D02*
X2751015Y-8231722D01*
X2751015Y-8231722D02*
X2751015Y-8336484D01*
X3141491Y-8126960D02*
X2970063Y-8384103D01*
X3398634Y-8136484D02*
X3417682Y-8136484D01*
X3417682Y-8136484D02*
X3436729Y-8146008D01*
X3436729Y-8146008D02*
X3446253Y-8155531D01*
X3446253Y-8155531D02*
X3455777Y-8174579D01*
X3455777Y-8174579D02*
X3465301Y-8212674D01*
X3465301Y-8212674D02*
X3465301Y-8260293D01*
X3465301Y-8260293D02*
X3455777Y-8298388D01*
X3455777Y-8298388D02*
X3446253Y-8317436D01*
X3446253Y-8317436D02*
X3436729Y-8326960D01*
X3436729Y-8326960D02*
X3417682Y-8336484D01*
X3417682Y-8336484D02*
X3398634Y-8336484D01*
X3398634Y-8336484D02*
X3379586Y-8326960D01*
X3379586Y-8326960D02*
X3370063Y-8317436D01*
X3370063Y-8317436D02*
X3360539Y-8298388D01*
X3360539Y-8298388D02*
X3351015Y-8260293D01*
X3351015Y-8260293D02*
X3351015Y-8212674D01*
X3351015Y-8212674D02*
X3360539Y-8174579D01*
X3360539Y-8174579D02*
X3370063Y-8155531D01*
X3370063Y-8155531D02*
X3379586Y-8146008D01*
X3379586Y-8146008D02*
X3398634Y-8136484D01*
X3551015Y-8317436D02*
X3560539Y-8326960D01*
X3560539Y-8326960D02*
X3551015Y-8336484D01*
X3551015Y-8336484D02*
X3541491Y-8326960D01*
X3541491Y-8326960D02*
X3551015Y-8317436D01*
X3551015Y-8317436D02*
X3551015Y-8336484D01*
X3684348Y-8136484D02*
X3703396Y-8136484D01*
X3703396Y-8136484D02*
X3722444Y-8146008D01*
X3722444Y-8146008D02*
X3731967Y-8155531D01*
X3731967Y-8155531D02*
X3741491Y-8174579D01*
X3741491Y-8174579D02*
X3751015Y-8212674D01*
X3751015Y-8212674D02*
X3751015Y-8260293D01*
X3751015Y-8260293D02*
X3741491Y-8298388D01*
X3741491Y-8298388D02*
X3731967Y-8317436D01*
X3731967Y-8317436D02*
X3722444Y-8326960D01*
X3722444Y-8326960D02*
X3703396Y-8336484D01*
X3703396Y-8336484D02*
X3684348Y-8336484D01*
X3684348Y-8336484D02*
X3665301Y-8326960D01*
X3665301Y-8326960D02*
X3655777Y-8317436D01*
X3655777Y-8317436D02*
X3646253Y-8298388D01*
X3646253Y-8298388D02*
X3636729Y-8260293D01*
X3636729Y-8260293D02*
X3636729Y-8212674D01*
X3636729Y-8212674D02*
X3646253Y-8174579D01*
X3646253Y-8174579D02*
X3655777Y-8155531D01*
X3655777Y-8155531D02*
X3665301Y-8146008D01*
X3665301Y-8146008D02*
X3684348Y-8136484D01*
X3941491Y-8336484D02*
X3827206Y-8336484D01*
X3884348Y-8336484D02*
X3884348Y-8136484D01*
X3884348Y-8136484D02*
X3865301Y-8165055D01*
X3865301Y-8165055D02*
X3846253Y-8184103D01*
X3846253Y-8184103D02*
X3827206Y-8193627D01*
X4122444Y-8136484D02*
X4027206Y-8136484D01*
X4027206Y-8136484D02*
X4017682Y-8231722D01*
X4017682Y-8231722D02*
X4027206Y-8222198D01*
X4027206Y-8222198D02*
X4046253Y-8212674D01*
X4046253Y-8212674D02*
X4093872Y-8212674D01*
X4093872Y-8212674D02*
X4112920Y-8222198D01*
X4112920Y-8222198D02*
X4122444Y-8231722D01*
X4122444Y-8231722D02*
X4131967Y-8250769D01*
X4131967Y-8250769D02*
X4131967Y-8298388D01*
X4131967Y-8298388D02*
X4122444Y-8317436D01*
X4122444Y-8317436D02*
X4112920Y-8326960D01*
X4112920Y-8326960D02*
X4093872Y-8336484D01*
X4093872Y-8336484D02*
X4046253Y-8336484D01*
X4046253Y-8336484D02*
X4027206Y-8326960D01*
X4027206Y-8326960D02*
X4017682Y-8317436D01*
X4198634Y-8136484D02*
X4331968Y-8136484D01*
X4331968Y-8136484D02*
X4246253Y-8336484D01*
X4398634Y-8136484D02*
X4398634Y-8174579D01*
X4474825Y-8136484D02*
X4474825Y-8174579D01*
X4770063Y-8412674D02*
X4760539Y-8403150D01*
X4760539Y-8403150D02*
X4741491Y-8374579D01*
X4741491Y-8374579D02*
X4731968Y-8355531D01*
X4731968Y-8355531D02*
X4722444Y-8326960D01*
X4722444Y-8326960D02*
X4712920Y-8279341D01*
X4712920Y-8279341D02*
X4712920Y-8241246D01*
X4712920Y-8241246D02*
X4722444Y-8193627D01*
X4722444Y-8193627D02*
X4731968Y-8165055D01*
X4731968Y-8165055D02*
X4741491Y-8146008D01*
X4741491Y-8146008D02*
X4760539Y-8117436D01*
X4760539Y-8117436D02*
X4770063Y-8107912D01*
X4941491Y-8136484D02*
X4846253Y-8136484D01*
X4846253Y-8136484D02*
X4836730Y-8231722D01*
X4836730Y-8231722D02*
X4846253Y-8222198D01*
X4846253Y-8222198D02*
X4865301Y-8212674D01*
X4865301Y-8212674D02*
X4912920Y-8212674D01*
X4912920Y-8212674D02*
X4931968Y-8222198D01*
X4931968Y-8222198D02*
X4941491Y-8231722D01*
X4941491Y-8231722D02*
X4951015Y-8250769D01*
X4951015Y-8250769D02*
X4951015Y-8298388D01*
X4951015Y-8298388D02*
X4941491Y-8317436D01*
X4941491Y-8317436D02*
X4931968Y-8326960D01*
X4931968Y-8326960D02*
X4912920Y-8336484D01*
X4912920Y-8336484D02*
X4865301Y-8336484D01*
X4865301Y-8336484D02*
X4846253Y-8326960D01*
X4846253Y-8326960D02*
X4836730Y-8317436D01*
X5046253Y-8336484D02*
X5084349Y-8336484D01*
X5084349Y-8336484D02*
X5103396Y-8326960D01*
X5103396Y-8326960D02*
X5112920Y-8317436D01*
X5112920Y-8317436D02*
X5131968Y-8288865D01*
X5131968Y-8288865D02*
X5141491Y-8250769D01*
X5141491Y-8250769D02*
X5141491Y-8174579D01*
X5141491Y-8174579D02*
X5131968Y-8155531D01*
X5131968Y-8155531D02*
X5122444Y-8146008D01*
X5122444Y-8146008D02*
X5103396Y-8136484D01*
X5103396Y-8136484D02*
X5065301Y-8136484D01*
X5065301Y-8136484D02*
X5046253Y-8146008D01*
X5046253Y-8146008D02*
X5036730Y-8155531D01*
X5036730Y-8155531D02*
X5027206Y-8174579D01*
X5027206Y-8174579D02*
X5027206Y-8222198D01*
X5027206Y-8222198D02*
X5036730Y-8241246D01*
X5036730Y-8241246D02*
X5046253Y-8250769D01*
X5046253Y-8250769D02*
X5065301Y-8260293D01*
X5065301Y-8260293D02*
X5103396Y-8260293D01*
X5103396Y-8260293D02*
X5122444Y-8250769D01*
X5122444Y-8250769D02*
X5131968Y-8241246D01*
X5131968Y-8241246D02*
X5141491Y-8222198D01*
X5379587Y-8336484D02*
X5379587Y-8136484D01*
X5465301Y-8336484D02*
X5465301Y-8231722D01*
X5465301Y-8231722D02*
X5455777Y-8212674D01*
X5455777Y-8212674D02*
X5436730Y-8203150D01*
X5436730Y-8203150D02*
X5408158Y-8203150D01*
X5408158Y-8203150D02*
X5389111Y-8212674D01*
X5389111Y-8212674D02*
X5379587Y-8222198D01*
X5589111Y-8336484D02*
X5570063Y-8326960D01*
X5570063Y-8326960D02*
X5560539Y-8317436D01*
X5560539Y-8317436D02*
X5551015Y-8298388D01*
X5551015Y-8298388D02*
X5551015Y-8241246D01*
X5551015Y-8241246D02*
X5560539Y-8222198D01*
X5560539Y-8222198D02*
X5570063Y-8212674D01*
X5570063Y-8212674D02*
X5589111Y-8203150D01*
X5589111Y-8203150D02*
X5617682Y-8203150D01*
X5617682Y-8203150D02*
X5636730Y-8212674D01*
X5636730Y-8212674D02*
X5646253Y-8222198D01*
X5646253Y-8222198D02*
X5655777Y-8241246D01*
X5655777Y-8241246D02*
X5655777Y-8298388D01*
X5655777Y-8298388D02*
X5646253Y-8317436D01*
X5646253Y-8317436D02*
X5636730Y-8326960D01*
X5636730Y-8326960D02*
X5617682Y-8336484D01*
X5617682Y-8336484D02*
X5589111Y-8336484D01*
X5770063Y-8336484D02*
X5751015Y-8326960D01*
X5751015Y-8326960D02*
X5741491Y-8307912D01*
X5741491Y-8307912D02*
X5741491Y-8136484D01*
X5922444Y-8326960D02*
X5903396Y-8336484D01*
X5903396Y-8336484D02*
X5865301Y-8336484D01*
X5865301Y-8336484D02*
X5846253Y-8326960D01*
X5846253Y-8326960D02*
X5836730Y-8307912D01*
X5836730Y-8307912D02*
X5836730Y-8231722D01*
X5836730Y-8231722D02*
X5846253Y-8212674D01*
X5846253Y-8212674D02*
X5865301Y-8203150D01*
X5865301Y-8203150D02*
X5903396Y-8203150D01*
X5903396Y-8203150D02*
X5922444Y-8212674D01*
X5922444Y-8212674D02*
X5931968Y-8231722D01*
X5931968Y-8231722D02*
X5931968Y-8250769D01*
X5931968Y-8250769D02*
X5836730Y-8269817D01*
X6008158Y-8326960D02*
X6027206Y-8336484D01*
X6027206Y-8336484D02*
X6065301Y-8336484D01*
X6065301Y-8336484D02*
X6084349Y-8326960D01*
X6084349Y-8326960D02*
X6093872Y-8307912D01*
X6093872Y-8307912D02*
X6093872Y-8298388D01*
X6093872Y-8298388D02*
X6084349Y-8279341D01*
X6084349Y-8279341D02*
X6065301Y-8269817D01*
X6065301Y-8269817D02*
X6036730Y-8269817D01*
X6036730Y-8269817D02*
X6017682Y-8260293D01*
X6017682Y-8260293D02*
X6008158Y-8241246D01*
X6008158Y-8241246D02*
X6008158Y-8231722D01*
X6008158Y-8231722D02*
X6017682Y-8212674D01*
X6017682Y-8212674D02*
X6036730Y-8203150D01*
X6036730Y-8203150D02*
X6065301Y-8203150D01*
X6065301Y-8203150D02*
X6084349Y-8212674D01*
X6160539Y-8412674D02*
X6170063Y-8403150D01*
X6170063Y-8403150D02*
X6189111Y-8374579D01*
X6189111Y-8374579D02*
X6198634Y-8355531D01*
X6198634Y-8355531D02*
X6208158Y-8326960D01*
X6208158Y-8326960D02*
X6217682Y-8279341D01*
X6217682Y-8279341D02*
X6217682Y-8241246D01*
X6217682Y-8241246D02*
X6208158Y-8193627D01*
X6208158Y-8193627D02*
X6198634Y-8165055D01*
X6198634Y-8165055D02*
X6189111Y-8146008D01*
X6189111Y-8146008D02*
X6170063Y-8117436D01*
X6170063Y-8117436D02*
X6160539Y-8107912D01*
D10*
X1195000Y-8509000D02*
G75*
G02*
X1115000Y-8509000I-40000J0D01*
G01*
X1115000Y-8509000D02*
G75*
G02*
X1195000Y-8509000I40000J0D01*
G01*
D11*
X1493872Y-8400484D02*
X1512920Y-8400484D01*
X1512920Y-8400484D02*
X1531967Y-8410008D01*
X1531967Y-8410008D02*
X1541491Y-8419531D01*
X1541491Y-8419531D02*
X1551015Y-8438579D01*
X1551015Y-8438579D02*
X1560539Y-8476674D01*
X1560539Y-8476674D02*
X1560539Y-8524293D01*
X1560539Y-8524293D02*
X1551015Y-8562389D01*
X1551015Y-8562389D02*
X1541491Y-8581436D01*
X1541491Y-8581436D02*
X1531967Y-8590960D01*
X1531967Y-8590960D02*
X1512920Y-8600484D01*
X1512920Y-8600484D02*
X1493872Y-8600484D01*
X1493872Y-8600484D02*
X1474824Y-8590960D01*
X1474824Y-8590960D02*
X1465301Y-8581436D01*
X1465301Y-8581436D02*
X1455777Y-8562389D01*
X1455777Y-8562389D02*
X1446253Y-8524293D01*
X1446253Y-8524293D02*
X1446253Y-8476674D01*
X1446253Y-8476674D02*
X1455777Y-8438579D01*
X1455777Y-8438579D02*
X1465301Y-8419531D01*
X1465301Y-8419531D02*
X1474824Y-8410008D01*
X1474824Y-8410008D02*
X1493872Y-8400484D01*
X1646253Y-8581436D02*
X1655777Y-8590960D01*
X1655777Y-8590960D02*
X1646253Y-8600484D01*
X1646253Y-8600484D02*
X1636729Y-8590960D01*
X1636729Y-8590960D02*
X1646253Y-8581436D01*
X1646253Y-8581436D02*
X1646253Y-8600484D01*
X1770062Y-8486198D02*
X1751015Y-8476674D01*
X1751015Y-8476674D02*
X1741491Y-8467150D01*
X1741491Y-8467150D02*
X1731967Y-8448103D01*
X1731967Y-8448103D02*
X1731967Y-8438579D01*
X1731967Y-8438579D02*
X1741491Y-8419531D01*
X1741491Y-8419531D02*
X1751015Y-8410008D01*
X1751015Y-8410008D02*
X1770062Y-8400484D01*
X1770062Y-8400484D02*
X1808158Y-8400484D01*
X1808158Y-8400484D02*
X1827205Y-8410008D01*
X1827205Y-8410008D02*
X1836729Y-8419531D01*
X1836729Y-8419531D02*
X1846253Y-8438579D01*
X1846253Y-8438579D02*
X1846253Y-8448103D01*
X1846253Y-8448103D02*
X1836729Y-8467150D01*
X1836729Y-8467150D02*
X1827205Y-8476674D01*
X1827205Y-8476674D02*
X1808158Y-8486198D01*
X1808158Y-8486198D02*
X1770062Y-8486198D01*
X1770062Y-8486198D02*
X1751015Y-8495722D01*
X1751015Y-8495722D02*
X1741491Y-8505246D01*
X1741491Y-8505246D02*
X1731967Y-8524293D01*
X1731967Y-8524293D02*
X1731967Y-8562389D01*
X1731967Y-8562389D02*
X1741491Y-8581436D01*
X1741491Y-8581436D02*
X1751015Y-8590960D01*
X1751015Y-8590960D02*
X1770062Y-8600484D01*
X1770062Y-8600484D02*
X1808158Y-8600484D01*
X1808158Y-8600484D02*
X1827205Y-8590960D01*
X1827205Y-8590960D02*
X1836729Y-8581436D01*
X1836729Y-8581436D02*
X1846253Y-8562389D01*
X1846253Y-8562389D02*
X1846253Y-8524293D01*
X1846253Y-8524293D02*
X1836729Y-8505246D01*
X1836729Y-8505246D02*
X1827205Y-8495722D01*
X1827205Y-8495722D02*
X1808158Y-8486198D01*
X1970062Y-8400484D02*
X1989110Y-8400484D01*
X1989110Y-8400484D02*
X2008158Y-8410008D01*
X2008158Y-8410008D02*
X2017682Y-8419531D01*
X2017682Y-8419531D02*
X2027205Y-8438579D01*
X2027205Y-8438579D02*
X2036729Y-8476674D01*
X2036729Y-8476674D02*
X2036729Y-8524293D01*
X2036729Y-8524293D02*
X2027205Y-8562389D01*
X2027205Y-8562389D02*
X2017682Y-8581436D01*
X2017682Y-8581436D02*
X2008158Y-8590960D01*
X2008158Y-8590960D02*
X1989110Y-8600484D01*
X1989110Y-8600484D02*
X1970062Y-8600484D01*
X1970062Y-8600484D02*
X1951015Y-8590960D01*
X1951015Y-8590960D02*
X1941491Y-8581436D01*
X1941491Y-8581436D02*
X1931967Y-8562389D01*
X1931967Y-8562389D02*
X1922443Y-8524293D01*
X1922443Y-8524293D02*
X1922443Y-8476674D01*
X1922443Y-8476674D02*
X1931967Y-8438579D01*
X1931967Y-8438579D02*
X1941491Y-8419531D01*
X1941491Y-8419531D02*
X1951015Y-8410008D01*
X1951015Y-8410008D02*
X1970062Y-8400484D01*
X2160539Y-8400484D02*
X2179586Y-8400484D01*
X2179586Y-8400484D02*
X2198634Y-8410008D01*
X2198634Y-8410008D02*
X2208158Y-8419531D01*
X2208158Y-8419531D02*
X2217682Y-8438579D01*
X2217682Y-8438579D02*
X2227205Y-8476674D01*
X2227205Y-8476674D02*
X2227205Y-8524293D01*
X2227205Y-8524293D02*
X2217682Y-8562389D01*
X2217682Y-8562389D02*
X2208158Y-8581436D01*
X2208158Y-8581436D02*
X2198634Y-8590960D01*
X2198634Y-8590960D02*
X2179586Y-8600484D01*
X2179586Y-8600484D02*
X2160539Y-8600484D01*
X2160539Y-8600484D02*
X2141491Y-8590960D01*
X2141491Y-8590960D02*
X2131967Y-8581436D01*
X2131967Y-8581436D02*
X2122444Y-8562389D01*
X2122444Y-8562389D02*
X2112920Y-8524293D01*
X2112920Y-8524293D02*
X2112920Y-8476674D01*
X2112920Y-8476674D02*
X2122444Y-8438579D01*
X2122444Y-8438579D02*
X2131967Y-8419531D01*
X2131967Y-8419531D02*
X2141491Y-8410008D01*
X2141491Y-8410008D02*
X2160539Y-8400484D01*
X2312920Y-8600484D02*
X2312920Y-8467150D01*
X2312920Y-8486198D02*
X2322444Y-8476674D01*
X2322444Y-8476674D02*
X2341491Y-8467150D01*
X2341491Y-8467150D02*
X2370063Y-8467150D01*
X2370063Y-8467150D02*
X2389110Y-8476674D01*
X2389110Y-8476674D02*
X2398634Y-8495722D01*
X2398634Y-8495722D02*
X2398634Y-8600484D01*
X2398634Y-8495722D02*
X2408158Y-8476674D01*
X2408158Y-8476674D02*
X2427205Y-8467150D01*
X2427205Y-8467150D02*
X2455777Y-8467150D01*
X2455777Y-8467150D02*
X2474825Y-8476674D01*
X2474825Y-8476674D02*
X2484348Y-8495722D01*
X2484348Y-8495722D02*
X2484348Y-8600484D01*
X2579586Y-8600484D02*
X2579586Y-8467150D01*
X2579586Y-8486198D02*
X2589110Y-8476674D01*
X2589110Y-8476674D02*
X2608158Y-8467150D01*
X2608158Y-8467150D02*
X2636729Y-8467150D01*
X2636729Y-8467150D02*
X2655777Y-8476674D01*
X2655777Y-8476674D02*
X2665301Y-8495722D01*
X2665301Y-8495722D02*
X2665301Y-8600484D01*
X2665301Y-8495722D02*
X2674825Y-8476674D01*
X2674825Y-8476674D02*
X2693872Y-8467150D01*
X2693872Y-8467150D02*
X2722444Y-8467150D01*
X2722444Y-8467150D02*
X2741491Y-8476674D01*
X2741491Y-8476674D02*
X2751015Y-8495722D01*
X2751015Y-8495722D02*
X2751015Y-8600484D01*
X3141491Y-8390960D02*
X2970063Y-8648103D01*
X3398634Y-8400484D02*
X3417682Y-8400484D01*
X3417682Y-8400484D02*
X3436729Y-8410008D01*
X3436729Y-8410008D02*
X3446253Y-8419531D01*
X3446253Y-8419531D02*
X3455777Y-8438579D01*
X3455777Y-8438579D02*
X3465301Y-8476674D01*
X3465301Y-8476674D02*
X3465301Y-8524293D01*
X3465301Y-8524293D02*
X3455777Y-8562389D01*
X3455777Y-8562389D02*
X3446253Y-8581436D01*
X3446253Y-8581436D02*
X3436729Y-8590960D01*
X3436729Y-8590960D02*
X3417682Y-8600484D01*
X3417682Y-8600484D02*
X3398634Y-8600484D01*
X3398634Y-8600484D02*
X3379586Y-8590960D01*
X3379586Y-8590960D02*
X3370063Y-8581436D01*
X3370063Y-8581436D02*
X3360539Y-8562389D01*
X3360539Y-8562389D02*
X3351015Y-8524293D01*
X3351015Y-8524293D02*
X3351015Y-8476674D01*
X3351015Y-8476674D02*
X3360539Y-8438579D01*
X3360539Y-8438579D02*
X3370063Y-8419531D01*
X3370063Y-8419531D02*
X3379586Y-8410008D01*
X3379586Y-8410008D02*
X3398634Y-8400484D01*
X3551015Y-8581436D02*
X3560539Y-8590960D01*
X3560539Y-8590960D02*
X3551015Y-8600484D01*
X3551015Y-8600484D02*
X3541491Y-8590960D01*
X3541491Y-8590960D02*
X3551015Y-8581436D01*
X3551015Y-8581436D02*
X3551015Y-8600484D01*
X3684348Y-8400484D02*
X3703396Y-8400484D01*
X3703396Y-8400484D02*
X3722444Y-8410008D01*
X3722444Y-8410008D02*
X3731967Y-8419531D01*
X3731967Y-8419531D02*
X3741491Y-8438579D01*
X3741491Y-8438579D02*
X3751015Y-8476674D01*
X3751015Y-8476674D02*
X3751015Y-8524293D01*
X3751015Y-8524293D02*
X3741491Y-8562389D01*
X3741491Y-8562389D02*
X3731967Y-8581436D01*
X3731967Y-8581436D02*
X3722444Y-8590960D01*
X3722444Y-8590960D02*
X3703396Y-8600484D01*
X3703396Y-8600484D02*
X3684348Y-8600484D01*
X3684348Y-8600484D02*
X3665301Y-8590960D01*
X3665301Y-8590960D02*
X3655777Y-8581436D01*
X3655777Y-8581436D02*
X3646253Y-8562389D01*
X3646253Y-8562389D02*
X3636729Y-8524293D01*
X3636729Y-8524293D02*
X3636729Y-8476674D01*
X3636729Y-8476674D02*
X3646253Y-8438579D01*
X3646253Y-8438579D02*
X3655777Y-8419531D01*
X3655777Y-8419531D02*
X3665301Y-8410008D01*
X3665301Y-8410008D02*
X3684348Y-8400484D01*
X3817682Y-8400484D02*
X3941491Y-8400484D01*
X3941491Y-8400484D02*
X3874825Y-8476674D01*
X3874825Y-8476674D02*
X3903396Y-8476674D01*
X3903396Y-8476674D02*
X3922444Y-8486198D01*
X3922444Y-8486198D02*
X3931967Y-8495722D01*
X3931967Y-8495722D02*
X3941491Y-8514770D01*
X3941491Y-8514770D02*
X3941491Y-8562389D01*
X3941491Y-8562389D02*
X3931967Y-8581436D01*
X3931967Y-8581436D02*
X3922444Y-8590960D01*
X3922444Y-8590960D02*
X3903396Y-8600484D01*
X3903396Y-8600484D02*
X3846253Y-8600484D01*
X3846253Y-8600484D02*
X3827206Y-8590960D01*
X3827206Y-8590960D02*
X3817682Y-8581436D01*
X4131967Y-8600484D02*
X4017682Y-8600484D01*
X4074825Y-8600484D02*
X4074825Y-8400484D01*
X4074825Y-8400484D02*
X4055777Y-8429055D01*
X4055777Y-8429055D02*
X4036729Y-8448103D01*
X4036729Y-8448103D02*
X4017682Y-8457627D01*
X4312920Y-8400484D02*
X4217682Y-8400484D01*
X4217682Y-8400484D02*
X4208158Y-8495722D01*
X4208158Y-8495722D02*
X4217682Y-8486198D01*
X4217682Y-8486198D02*
X4236729Y-8476674D01*
X4236729Y-8476674D02*
X4284349Y-8476674D01*
X4284349Y-8476674D02*
X4303396Y-8486198D01*
X4303396Y-8486198D02*
X4312920Y-8495722D01*
X4312920Y-8495722D02*
X4322444Y-8514770D01*
X4322444Y-8514770D02*
X4322444Y-8562389D01*
X4322444Y-8562389D02*
X4312920Y-8581436D01*
X4312920Y-8581436D02*
X4303396Y-8590960D01*
X4303396Y-8590960D02*
X4284349Y-8600484D01*
X4284349Y-8600484D02*
X4236729Y-8600484D01*
X4236729Y-8600484D02*
X4217682Y-8590960D01*
X4217682Y-8590960D02*
X4208158Y-8581436D01*
X4398634Y-8400484D02*
X4398634Y-8438579D01*
X4474825Y-8400484D02*
X4474825Y-8438579D01*
X4770063Y-8676674D02*
X4760539Y-8667150D01*
X4760539Y-8667150D02*
X4741491Y-8638579D01*
X4741491Y-8638579D02*
X4731968Y-8619531D01*
X4731968Y-8619531D02*
X4722444Y-8590960D01*
X4722444Y-8590960D02*
X4712920Y-8543341D01*
X4712920Y-8543341D02*
X4712920Y-8505246D01*
X4712920Y-8505246D02*
X4722444Y-8457627D01*
X4722444Y-8457627D02*
X4731968Y-8429055D01*
X4731968Y-8429055D02*
X4741491Y-8410008D01*
X4741491Y-8410008D02*
X4760539Y-8381436D01*
X4760539Y-8381436D02*
X4770063Y-8371912D01*
X4855777Y-8600484D02*
X4893872Y-8600484D01*
X4893872Y-8600484D02*
X4912920Y-8590960D01*
X4912920Y-8590960D02*
X4922444Y-8581436D01*
X4922444Y-8581436D02*
X4941491Y-8552865D01*
X4941491Y-8552865D02*
X4951015Y-8514770D01*
X4951015Y-8514770D02*
X4951015Y-8438579D01*
X4951015Y-8438579D02*
X4941491Y-8419531D01*
X4941491Y-8419531D02*
X4931968Y-8410008D01*
X4931968Y-8410008D02*
X4912920Y-8400484D01*
X4912920Y-8400484D02*
X4874825Y-8400484D01*
X4874825Y-8400484D02*
X4855777Y-8410008D01*
X4855777Y-8410008D02*
X4846253Y-8419531D01*
X4846253Y-8419531D02*
X4836730Y-8438579D01*
X4836730Y-8438579D02*
X4836730Y-8486198D01*
X4836730Y-8486198D02*
X4846253Y-8505246D01*
X4846253Y-8505246D02*
X4855777Y-8514770D01*
X4855777Y-8514770D02*
X4874825Y-8524293D01*
X4874825Y-8524293D02*
X4912920Y-8524293D01*
X4912920Y-8524293D02*
X4931968Y-8514770D01*
X4931968Y-8514770D02*
X4941491Y-8505246D01*
X4941491Y-8505246D02*
X4951015Y-8486198D01*
X5189111Y-8600484D02*
X5189111Y-8400484D01*
X5274825Y-8600484D02*
X5274825Y-8495722D01*
X5274825Y-8495722D02*
X5265301Y-8476674D01*
X5265301Y-8476674D02*
X5246253Y-8467150D01*
X5246253Y-8467150D02*
X5217682Y-8467150D01*
X5217682Y-8467150D02*
X5198634Y-8476674D01*
X5198634Y-8476674D02*
X5189111Y-8486198D01*
X5398634Y-8600484D02*
X5379587Y-8590960D01*
X5379587Y-8590960D02*
X5370063Y-8581436D01*
X5370063Y-8581436D02*
X5360539Y-8562389D01*
X5360539Y-8562389D02*
X5360539Y-8505246D01*
X5360539Y-8505246D02*
X5370063Y-8486198D01*
X5370063Y-8486198D02*
X5379587Y-8476674D01*
X5379587Y-8476674D02*
X5398634Y-8467150D01*
X5398634Y-8467150D02*
X5427206Y-8467150D01*
X5427206Y-8467150D02*
X5446253Y-8476674D01*
X5446253Y-8476674D02*
X5455777Y-8486198D01*
X5455777Y-8486198D02*
X5465301Y-8505246D01*
X5465301Y-8505246D02*
X5465301Y-8562389D01*
X5465301Y-8562389D02*
X5455777Y-8581436D01*
X5455777Y-8581436D02*
X5446253Y-8590960D01*
X5446253Y-8590960D02*
X5427206Y-8600484D01*
X5427206Y-8600484D02*
X5398634Y-8600484D01*
X5579587Y-8600484D02*
X5560539Y-8590960D01*
X5560539Y-8590960D02*
X5551015Y-8571912D01*
X5551015Y-8571912D02*
X5551015Y-8400484D01*
X5731968Y-8590960D02*
X5712920Y-8600484D01*
X5712920Y-8600484D02*
X5674825Y-8600484D01*
X5674825Y-8600484D02*
X5655777Y-8590960D01*
X5655777Y-8590960D02*
X5646253Y-8571912D01*
X5646253Y-8571912D02*
X5646253Y-8495722D01*
X5646253Y-8495722D02*
X5655777Y-8476674D01*
X5655777Y-8476674D02*
X5674825Y-8467150D01*
X5674825Y-8467150D02*
X5712920Y-8467150D01*
X5712920Y-8467150D02*
X5731968Y-8476674D01*
X5731968Y-8476674D02*
X5741491Y-8495722D01*
X5741491Y-8495722D02*
X5741491Y-8514770D01*
X5741491Y-8514770D02*
X5646253Y-8533817D01*
X5817682Y-8590960D02*
X5836730Y-8600484D01*
X5836730Y-8600484D02*
X5874825Y-8600484D01*
X5874825Y-8600484D02*
X5893872Y-8590960D01*
X5893872Y-8590960D02*
X5903396Y-8571912D01*
X5903396Y-8571912D02*
X5903396Y-8562389D01*
X5903396Y-8562389D02*
X5893872Y-8543341D01*
X5893872Y-8543341D02*
X5874825Y-8533817D01*
X5874825Y-8533817D02*
X5846253Y-8533817D01*
X5846253Y-8533817D02*
X5827206Y-8524293D01*
X5827206Y-8524293D02*
X5817682Y-8505246D01*
X5817682Y-8505246D02*
X5817682Y-8495722D01*
X5817682Y-8495722D02*
X5827206Y-8476674D01*
X5827206Y-8476674D02*
X5846253Y-8467150D01*
X5846253Y-8467150D02*
X5874825Y-8467150D01*
X5874825Y-8467150D02*
X5893872Y-8476674D01*
X5970063Y-8676674D02*
X5979587Y-8667150D01*
X5979587Y-8667150D02*
X5998634Y-8638579D01*
X5998634Y-8638579D02*
X6008158Y-8619531D01*
X6008158Y-8619531D02*
X6017682Y-8590960D01*
X6017682Y-8590960D02*
X6027206Y-8543341D01*
X6027206Y-8543341D02*
X6027206Y-8505246D01*
X6027206Y-8505246D02*
X6017682Y-8457627D01*
X6017682Y-8457627D02*
X6008158Y-8429055D01*
X6008158Y-8429055D02*
X5998634Y-8410008D01*
X5998634Y-8410008D02*
X5979587Y-8381436D01*
X5979587Y-8381436D02*
X5970063Y-8371912D01*
D10*
X1145000Y-8723000D02*
X1145000Y-8823000D01*
X1095000Y-8773000D02*
X1195000Y-8773000D01*
D11*
X1560539Y-8864484D02*
X1446253Y-8864484D01*
X1503396Y-8864484D02*
X1503396Y-8664484D01*
X1503396Y-8664484D02*
X1484348Y-8693055D01*
X1484348Y-8693055D02*
X1465301Y-8712103D01*
X1465301Y-8712103D02*
X1446253Y-8721627D01*
X1646253Y-8845436D02*
X1655777Y-8854960D01*
X1655777Y-8854960D02*
X1646253Y-8864484D01*
X1646253Y-8864484D02*
X1636729Y-8854960D01*
X1636729Y-8854960D02*
X1646253Y-8845436D01*
X1646253Y-8845436D02*
X1646253Y-8864484D01*
X1779586Y-8664484D02*
X1798634Y-8664484D01*
X1798634Y-8664484D02*
X1817682Y-8674008D01*
X1817682Y-8674008D02*
X1827205Y-8683531D01*
X1827205Y-8683531D02*
X1836729Y-8702579D01*
X1836729Y-8702579D02*
X1846253Y-8740674D01*
X1846253Y-8740674D02*
X1846253Y-8788293D01*
X1846253Y-8788293D02*
X1836729Y-8826389D01*
X1836729Y-8826389D02*
X1827205Y-8845436D01*
X1827205Y-8845436D02*
X1817682Y-8854960D01*
X1817682Y-8854960D02*
X1798634Y-8864484D01*
X1798634Y-8864484D02*
X1779586Y-8864484D01*
X1779586Y-8864484D02*
X1760539Y-8854960D01*
X1760539Y-8854960D02*
X1751015Y-8845436D01*
X1751015Y-8845436D02*
X1741491Y-8826389D01*
X1741491Y-8826389D02*
X1731967Y-8788293D01*
X1731967Y-8788293D02*
X1731967Y-8740674D01*
X1731967Y-8740674D02*
X1741491Y-8702579D01*
X1741491Y-8702579D02*
X1751015Y-8683531D01*
X1751015Y-8683531D02*
X1760539Y-8674008D01*
X1760539Y-8674008D02*
X1779586Y-8664484D01*
X1970062Y-8664484D02*
X1989110Y-8664484D01*
X1989110Y-8664484D02*
X2008158Y-8674008D01*
X2008158Y-8674008D02*
X2017682Y-8683531D01*
X2017682Y-8683531D02*
X2027205Y-8702579D01*
X2027205Y-8702579D02*
X2036729Y-8740674D01*
X2036729Y-8740674D02*
X2036729Y-8788293D01*
X2036729Y-8788293D02*
X2027205Y-8826389D01*
X2027205Y-8826389D02*
X2017682Y-8845436D01*
X2017682Y-8845436D02*
X2008158Y-8854960D01*
X2008158Y-8854960D02*
X1989110Y-8864484D01*
X1989110Y-8864484D02*
X1970062Y-8864484D01*
X1970062Y-8864484D02*
X1951015Y-8854960D01*
X1951015Y-8854960D02*
X1941491Y-8845436D01*
X1941491Y-8845436D02*
X1931967Y-8826389D01*
X1931967Y-8826389D02*
X1922443Y-8788293D01*
X1922443Y-8788293D02*
X1922443Y-8740674D01*
X1922443Y-8740674D02*
X1931967Y-8702579D01*
X1931967Y-8702579D02*
X1941491Y-8683531D01*
X1941491Y-8683531D02*
X1951015Y-8674008D01*
X1951015Y-8674008D02*
X1970062Y-8664484D01*
X2160539Y-8664484D02*
X2179586Y-8664484D01*
X2179586Y-8664484D02*
X2198634Y-8674008D01*
X2198634Y-8674008D02*
X2208158Y-8683531D01*
X2208158Y-8683531D02*
X2217682Y-8702579D01*
X2217682Y-8702579D02*
X2227205Y-8740674D01*
X2227205Y-8740674D02*
X2227205Y-8788293D01*
X2227205Y-8788293D02*
X2217682Y-8826389D01*
X2217682Y-8826389D02*
X2208158Y-8845436D01*
X2208158Y-8845436D02*
X2198634Y-8854960D01*
X2198634Y-8854960D02*
X2179586Y-8864484D01*
X2179586Y-8864484D02*
X2160539Y-8864484D01*
X2160539Y-8864484D02*
X2141491Y-8854960D01*
X2141491Y-8854960D02*
X2131967Y-8845436D01*
X2131967Y-8845436D02*
X2122444Y-8826389D01*
X2122444Y-8826389D02*
X2112920Y-8788293D01*
X2112920Y-8788293D02*
X2112920Y-8740674D01*
X2112920Y-8740674D02*
X2122444Y-8702579D01*
X2122444Y-8702579D02*
X2131967Y-8683531D01*
X2131967Y-8683531D02*
X2141491Y-8674008D01*
X2141491Y-8674008D02*
X2160539Y-8664484D01*
X2312920Y-8864484D02*
X2312920Y-8731150D01*
X2312920Y-8750198D02*
X2322444Y-8740674D01*
X2322444Y-8740674D02*
X2341491Y-8731150D01*
X2341491Y-8731150D02*
X2370063Y-8731150D01*
X2370063Y-8731150D02*
X2389110Y-8740674D01*
X2389110Y-8740674D02*
X2398634Y-8759722D01*
X2398634Y-8759722D02*
X2398634Y-8864484D01*
X2398634Y-8759722D02*
X2408158Y-8740674D01*
X2408158Y-8740674D02*
X2427205Y-8731150D01*
X2427205Y-8731150D02*
X2455777Y-8731150D01*
X2455777Y-8731150D02*
X2474825Y-8740674D01*
X2474825Y-8740674D02*
X2484348Y-8759722D01*
X2484348Y-8759722D02*
X2484348Y-8864484D01*
X2579586Y-8864484D02*
X2579586Y-8731150D01*
X2579586Y-8750198D02*
X2589110Y-8740674D01*
X2589110Y-8740674D02*
X2608158Y-8731150D01*
X2608158Y-8731150D02*
X2636729Y-8731150D01*
X2636729Y-8731150D02*
X2655777Y-8740674D01*
X2655777Y-8740674D02*
X2665301Y-8759722D01*
X2665301Y-8759722D02*
X2665301Y-8864484D01*
X2665301Y-8759722D02*
X2674825Y-8740674D01*
X2674825Y-8740674D02*
X2693872Y-8731150D01*
X2693872Y-8731150D02*
X2722444Y-8731150D01*
X2722444Y-8731150D02*
X2741491Y-8740674D01*
X2741491Y-8740674D02*
X2751015Y-8759722D01*
X2751015Y-8759722D02*
X2751015Y-8864484D01*
X3141491Y-8654960D02*
X2970063Y-8912103D01*
X3398634Y-8664484D02*
X3417682Y-8664484D01*
X3417682Y-8664484D02*
X3436729Y-8674008D01*
X3436729Y-8674008D02*
X3446253Y-8683531D01*
X3446253Y-8683531D02*
X3455777Y-8702579D01*
X3455777Y-8702579D02*
X3465301Y-8740674D01*
X3465301Y-8740674D02*
X3465301Y-8788293D01*
X3465301Y-8788293D02*
X3455777Y-8826389D01*
X3455777Y-8826389D02*
X3446253Y-8845436D01*
X3446253Y-8845436D02*
X3436729Y-8854960D01*
X3436729Y-8854960D02*
X3417682Y-8864484D01*
X3417682Y-8864484D02*
X3398634Y-8864484D01*
X3398634Y-8864484D02*
X3379586Y-8854960D01*
X3379586Y-8854960D02*
X3370063Y-8845436D01*
X3370063Y-8845436D02*
X3360539Y-8826389D01*
X3360539Y-8826389D02*
X3351015Y-8788293D01*
X3351015Y-8788293D02*
X3351015Y-8740674D01*
X3351015Y-8740674D02*
X3360539Y-8702579D01*
X3360539Y-8702579D02*
X3370063Y-8683531D01*
X3370063Y-8683531D02*
X3379586Y-8674008D01*
X3379586Y-8674008D02*
X3398634Y-8664484D01*
X3551015Y-8845436D02*
X3560539Y-8854960D01*
X3560539Y-8854960D02*
X3551015Y-8864484D01*
X3551015Y-8864484D02*
X3541491Y-8854960D01*
X3541491Y-8854960D02*
X3551015Y-8845436D01*
X3551015Y-8845436D02*
X3551015Y-8864484D01*
X3684348Y-8664484D02*
X3703396Y-8664484D01*
X3703396Y-8664484D02*
X3722444Y-8674008D01*
X3722444Y-8674008D02*
X3731967Y-8683531D01*
X3731967Y-8683531D02*
X3741491Y-8702579D01*
X3741491Y-8702579D02*
X3751015Y-8740674D01*
X3751015Y-8740674D02*
X3751015Y-8788293D01*
X3751015Y-8788293D02*
X3741491Y-8826389D01*
X3741491Y-8826389D02*
X3731967Y-8845436D01*
X3731967Y-8845436D02*
X3722444Y-8854960D01*
X3722444Y-8854960D02*
X3703396Y-8864484D01*
X3703396Y-8864484D02*
X3684348Y-8864484D01*
X3684348Y-8864484D02*
X3665301Y-8854960D01*
X3665301Y-8854960D02*
X3655777Y-8845436D01*
X3655777Y-8845436D02*
X3646253Y-8826389D01*
X3646253Y-8826389D02*
X3636729Y-8788293D01*
X3636729Y-8788293D02*
X3636729Y-8740674D01*
X3636729Y-8740674D02*
X3646253Y-8702579D01*
X3646253Y-8702579D02*
X3655777Y-8683531D01*
X3655777Y-8683531D02*
X3665301Y-8674008D01*
X3665301Y-8674008D02*
X3684348Y-8664484D01*
X3817682Y-8664484D02*
X3941491Y-8664484D01*
X3941491Y-8664484D02*
X3874825Y-8740674D01*
X3874825Y-8740674D02*
X3903396Y-8740674D01*
X3903396Y-8740674D02*
X3922444Y-8750198D01*
X3922444Y-8750198D02*
X3931967Y-8759722D01*
X3931967Y-8759722D02*
X3941491Y-8778770D01*
X3941491Y-8778770D02*
X3941491Y-8826389D01*
X3941491Y-8826389D02*
X3931967Y-8845436D01*
X3931967Y-8845436D02*
X3922444Y-8854960D01*
X3922444Y-8854960D02*
X3903396Y-8864484D01*
X3903396Y-8864484D02*
X3846253Y-8864484D01*
X3846253Y-8864484D02*
X3827206Y-8854960D01*
X3827206Y-8854960D02*
X3817682Y-8845436D01*
X4036729Y-8864484D02*
X4074825Y-8864484D01*
X4074825Y-8864484D02*
X4093872Y-8854960D01*
X4093872Y-8854960D02*
X4103396Y-8845436D01*
X4103396Y-8845436D02*
X4122444Y-8816865D01*
X4122444Y-8816865D02*
X4131967Y-8778770D01*
X4131967Y-8778770D02*
X4131967Y-8702579D01*
X4131967Y-8702579D02*
X4122444Y-8683531D01*
X4122444Y-8683531D02*
X4112920Y-8674008D01*
X4112920Y-8674008D02*
X4093872Y-8664484D01*
X4093872Y-8664484D02*
X4055777Y-8664484D01*
X4055777Y-8664484D02*
X4036729Y-8674008D01*
X4036729Y-8674008D02*
X4027206Y-8683531D01*
X4027206Y-8683531D02*
X4017682Y-8702579D01*
X4017682Y-8702579D02*
X4017682Y-8750198D01*
X4017682Y-8750198D02*
X4027206Y-8769246D01*
X4027206Y-8769246D02*
X4036729Y-8778770D01*
X4036729Y-8778770D02*
X4055777Y-8788293D01*
X4055777Y-8788293D02*
X4093872Y-8788293D01*
X4093872Y-8788293D02*
X4112920Y-8778770D01*
X4112920Y-8778770D02*
X4122444Y-8769246D01*
X4122444Y-8769246D02*
X4131967Y-8750198D01*
X4303396Y-8731150D02*
X4303396Y-8864484D01*
X4255777Y-8654960D02*
X4208158Y-8797817D01*
X4208158Y-8797817D02*
X4331968Y-8797817D01*
X4398634Y-8664484D02*
X4398634Y-8702579D01*
X4474825Y-8664484D02*
X4474825Y-8702579D01*
X4770063Y-8940674D02*
X4760539Y-8931150D01*
X4760539Y-8931150D02*
X4741491Y-8902579D01*
X4741491Y-8902579D02*
X4731968Y-8883531D01*
X4731968Y-8883531D02*
X4722444Y-8854960D01*
X4722444Y-8854960D02*
X4712920Y-8807341D01*
X4712920Y-8807341D02*
X4712920Y-8769246D01*
X4712920Y-8769246D02*
X4722444Y-8721627D01*
X4722444Y-8721627D02*
X4731968Y-8693055D01*
X4731968Y-8693055D02*
X4741491Y-8674008D01*
X4741491Y-8674008D02*
X4760539Y-8645436D01*
X4760539Y-8645436D02*
X4770063Y-8635912D01*
X4931968Y-8664484D02*
X4893872Y-8664484D01*
X4893872Y-8664484D02*
X4874825Y-8674008D01*
X4874825Y-8674008D02*
X4865301Y-8683531D01*
X4865301Y-8683531D02*
X4846253Y-8712103D01*
X4846253Y-8712103D02*
X4836730Y-8750198D01*
X4836730Y-8750198D02*
X4836730Y-8826389D01*
X4836730Y-8826389D02*
X4846253Y-8845436D01*
X4846253Y-8845436D02*
X4855777Y-8854960D01*
X4855777Y-8854960D02*
X4874825Y-8864484D01*
X4874825Y-8864484D02*
X4912920Y-8864484D01*
X4912920Y-8864484D02*
X4931968Y-8854960D01*
X4931968Y-8854960D02*
X4941491Y-8845436D01*
X4941491Y-8845436D02*
X4951015Y-8826389D01*
X4951015Y-8826389D02*
X4951015Y-8778770D01*
X4951015Y-8778770D02*
X4941491Y-8759722D01*
X4941491Y-8759722D02*
X4931968Y-8750198D01*
X4931968Y-8750198D02*
X4912920Y-8740674D01*
X4912920Y-8740674D02*
X4874825Y-8740674D01*
X4874825Y-8740674D02*
X4855777Y-8750198D01*
X4855777Y-8750198D02*
X4846253Y-8759722D01*
X4846253Y-8759722D02*
X4836730Y-8778770D01*
X5122444Y-8664484D02*
X5084349Y-8664484D01*
X5084349Y-8664484D02*
X5065301Y-8674008D01*
X5065301Y-8674008D02*
X5055777Y-8683531D01*
X5055777Y-8683531D02*
X5036730Y-8712103D01*
X5036730Y-8712103D02*
X5027206Y-8750198D01*
X5027206Y-8750198D02*
X5027206Y-8826389D01*
X5027206Y-8826389D02*
X5036730Y-8845436D01*
X5036730Y-8845436D02*
X5046253Y-8854960D01*
X5046253Y-8854960D02*
X5065301Y-8864484D01*
X5065301Y-8864484D02*
X5103396Y-8864484D01*
X5103396Y-8864484D02*
X5122444Y-8854960D01*
X5122444Y-8854960D02*
X5131968Y-8845436D01*
X5131968Y-8845436D02*
X5141491Y-8826389D01*
X5141491Y-8826389D02*
X5141491Y-8778770D01*
X5141491Y-8778770D02*
X5131968Y-8759722D01*
X5131968Y-8759722D02*
X5122444Y-8750198D01*
X5122444Y-8750198D02*
X5103396Y-8740674D01*
X5103396Y-8740674D02*
X5065301Y-8740674D01*
X5065301Y-8740674D02*
X5046253Y-8750198D01*
X5046253Y-8750198D02*
X5036730Y-8759722D01*
X5036730Y-8759722D02*
X5027206Y-8778770D01*
X5379587Y-8864484D02*
X5379587Y-8664484D01*
X5465301Y-8864484D02*
X5465301Y-8759722D01*
X5465301Y-8759722D02*
X5455777Y-8740674D01*
X5455777Y-8740674D02*
X5436730Y-8731150D01*
X5436730Y-8731150D02*
X5408158Y-8731150D01*
X5408158Y-8731150D02*
X5389111Y-8740674D01*
X5389111Y-8740674D02*
X5379587Y-8750198D01*
X5589111Y-8864484D02*
X5570063Y-8854960D01*
X5570063Y-8854960D02*
X5560539Y-8845436D01*
X5560539Y-8845436D02*
X5551015Y-8826389D01*
X5551015Y-8826389D02*
X5551015Y-8769246D01*
X5551015Y-8769246D02*
X5560539Y-8750198D01*
X5560539Y-8750198D02*
X5570063Y-8740674D01*
X5570063Y-8740674D02*
X5589111Y-8731150D01*
X5589111Y-8731150D02*
X5617682Y-8731150D01*
X5617682Y-8731150D02*
X5636730Y-8740674D01*
X5636730Y-8740674D02*
X5646253Y-8750198D01*
X5646253Y-8750198D02*
X5655777Y-8769246D01*
X5655777Y-8769246D02*
X5655777Y-8826389D01*
X5655777Y-8826389D02*
X5646253Y-8845436D01*
X5646253Y-8845436D02*
X5636730Y-8854960D01*
X5636730Y-8854960D02*
X5617682Y-8864484D01*
X5617682Y-8864484D02*
X5589111Y-8864484D01*
X5770063Y-8864484D02*
X5751015Y-8854960D01*
X5751015Y-8854960D02*
X5741491Y-8835912D01*
X5741491Y-8835912D02*
X5741491Y-8664484D01*
X5922444Y-8854960D02*
X5903396Y-8864484D01*
X5903396Y-8864484D02*
X5865301Y-8864484D01*
X5865301Y-8864484D02*
X5846253Y-8854960D01*
X5846253Y-8854960D02*
X5836730Y-8835912D01*
X5836730Y-8835912D02*
X5836730Y-8759722D01*
X5836730Y-8759722D02*
X5846253Y-8740674D01*
X5846253Y-8740674D02*
X5865301Y-8731150D01*
X5865301Y-8731150D02*
X5903396Y-8731150D01*
X5903396Y-8731150D02*
X5922444Y-8740674D01*
X5922444Y-8740674D02*
X5931968Y-8759722D01*
X5931968Y-8759722D02*
X5931968Y-8778770D01*
X5931968Y-8778770D02*
X5836730Y-8797817D01*
X6008158Y-8854960D02*
X6027206Y-8864484D01*
X6027206Y-8864484D02*
X6065301Y-8864484D01*
X6065301Y-8864484D02*
X6084349Y-8854960D01*
X6084349Y-8854960D02*
X6093872Y-8835912D01*
X6093872Y-8835912D02*
X6093872Y-8826389D01*
X6093872Y-8826389D02*
X6084349Y-8807341D01*
X6084349Y-8807341D02*
X6065301Y-8797817D01*
X6065301Y-8797817D02*
X6036730Y-8797817D01*
X6036730Y-8797817D02*
X6017682Y-8788293D01*
X6017682Y-8788293D02*
X6008158Y-8769246D01*
X6008158Y-8769246D02*
X6008158Y-8759722D01*
X6008158Y-8759722D02*
X6017682Y-8740674D01*
X6017682Y-8740674D02*
X6036730Y-8731150D01*
X6036730Y-8731150D02*
X6065301Y-8731150D01*
X6065301Y-8731150D02*
X6084349Y-8740674D01*
X6160539Y-8940674D02*
X6170063Y-8931150D01*
X6170063Y-8931150D02*
X6189111Y-8902579D01*
X6189111Y-8902579D02*
X6198634Y-8883531D01*
X6198634Y-8883531D02*
X6208158Y-8854960D01*
X6208158Y-8854960D02*
X6217682Y-8807341D01*
X6217682Y-8807341D02*
X6217682Y-8769246D01*
X6217682Y-8769246D02*
X6208158Y-8721627D01*
X6208158Y-8721627D02*
X6198634Y-8693055D01*
X6198634Y-8693055D02*
X6189111Y-8674008D01*
X6189111Y-8674008D02*
X6170063Y-8645436D01*
X6170063Y-8645436D02*
X6160539Y-8635912D01*
M02*
