%TF.GenerationSoftware,KiCad,Pcbnew,8.0.4*%
%TF.CreationDate,2024-08-11T12:24:47-04:00*%
%TF.ProjectId,Logic Circuit,4c6f6769-6320-4436-9972-637569742e6b,rev?*%
%TF.SameCoordinates,Original*%
%TF.FileFunction,Copper,L1,Top*%
%TF.FilePolarity,Positive*%
%FSLAX46Y46*%
G04 Gerber Fmt 4.6, Leading zero omitted, Abs format (unit mm)*
G04 Created by KiCad (PCBNEW 8.0.4) date 2024-08-11 12:24:47*
%MOMM*%
%LPD*%
G01*
G04 APERTURE LIST*
G04 Aperture macros list*
%AMRoundRect*
0 Rectangle with rounded corners*
0 $1 Rounding radius*
0 $2 $3 $4 $5 $6 $7 $8 $9 X,Y pos of 4 corners*
0 Add a 4 corners polygon primitive as box body*
4,1,4,$2,$3,$4,$5,$6,$7,$8,$9,$2,$3,0*
0 Add four circle primitives for the rounded corners*
1,1,$1+$1,$2,$3*
1,1,$1+$1,$4,$5*
1,1,$1+$1,$6,$7*
1,1,$1+$1,$8,$9*
0 Add four rect primitives between the rounded corners*
20,1,$1+$1,$2,$3,$4,$5,0*
20,1,$1+$1,$4,$5,$6,$7,0*
20,1,$1+$1,$6,$7,$8,$9,0*
20,1,$1+$1,$8,$9,$2,$3,0*%
G04 Aperture macros list end*
%TA.AperFunction,SMDPad,CuDef*%
%ADD10RoundRect,0.237500X-0.237500X0.250000X-0.237500X-0.250000X0.237500X-0.250000X0.237500X0.250000X0*%
%TD*%
%TA.AperFunction,SMDPad,CuDef*%
%ADD11RoundRect,0.237500X-0.237500X0.300000X-0.237500X-0.300000X0.237500X-0.300000X0.237500X0.300000X0*%
%TD*%
%TA.AperFunction,SMDPad,CuDef*%
%ADD12RoundRect,0.237500X-0.250000X-0.237500X0.250000X-0.237500X0.250000X0.237500X-0.250000X0.237500X0*%
%TD*%
%TA.AperFunction,SMDPad,CuDef*%
%ADD13RoundRect,0.237500X0.237500X-0.300000X0.237500X0.300000X-0.237500X0.300000X-0.237500X-0.300000X0*%
%TD*%
%TA.AperFunction,SMDPad,CuDef*%
%ADD14RoundRect,0.237500X0.250000X0.237500X-0.250000X0.237500X-0.250000X-0.237500X0.250000X-0.237500X0*%
%TD*%
%TA.AperFunction,SMDPad,CuDef*%
%ADD15R,1.475000X0.450000*%
%TD*%
%TA.AperFunction,ComponentPad*%
%ADD16R,1.700000X1.700000*%
%TD*%
%TA.AperFunction,ComponentPad*%
%ADD17O,1.700000X1.700000*%
%TD*%
%TA.AperFunction,ComponentPad*%
%ADD18C,1.440000*%
%TD*%
%TA.AperFunction,SMDPad,CuDef*%
%ADD19R,1.550000X0.700000*%
%TD*%
%TA.AperFunction,SMDPad,CuDef*%
%ADD20RoundRect,0.237500X0.237500X-0.250000X0.237500X0.250000X-0.237500X0.250000X-0.237500X-0.250000X0*%
%TD*%
%TA.AperFunction,SMDPad,CuDef*%
%ADD21R,0.700000X1.550000*%
%TD*%
%TA.AperFunction,SMDPad,CuDef*%
%ADD22RoundRect,0.237500X0.300000X0.237500X-0.300000X0.237500X-0.300000X-0.237500X0.300000X-0.237500X0*%
%TD*%
%TA.AperFunction,SMDPad,CuDef*%
%ADD23RoundRect,0.162500X-0.617500X-0.162500X0.617500X-0.162500X0.617500X0.162500X-0.617500X0.162500X0*%
%TD*%
%TA.AperFunction,SMDPad,CuDef*%
%ADD24RoundRect,0.100000X-0.650000X-0.100000X0.650000X-0.100000X0.650000X0.100000X-0.650000X0.100000X0*%
%TD*%
%TA.AperFunction,ViaPad*%
%ADD25C,1.000000*%
%TD*%
%TA.AperFunction,ViaPad*%
%ADD26C,0.800000*%
%TD*%
%TA.AperFunction,Conductor*%
%ADD27C,0.250000*%
%TD*%
%TA.AperFunction,Conductor*%
%ADD28C,0.500000*%
%TD*%
%TA.AperFunction,Conductor*%
%ADD29C,1.250000*%
%TD*%
G04 APERTURE END LIST*
D10*
%TO.P,R24,1*%
%TO.N,GND*%
X40500000Y-50587500D03*
%TO.P,R24,2*%
%TO.N,/MAD.Y2*%
X40500000Y-52412500D03*
%TD*%
D11*
%TO.P,C4,1*%
%TO.N,GND*%
X64000000Y-62137500D03*
%TO.P,C4,2*%
%TO.N,Net-(IC5-1REXT{slash}CEXT)*%
X64000000Y-63862500D03*
%TD*%
D10*
%TO.P,R37,1*%
%TO.N,GND*%
X45000000Y-50587500D03*
%TO.P,R37,2*%
%TO.N,/MAD.Y8*%
X45000000Y-52412500D03*
%TD*%
D12*
%TO.P,R14,1*%
%TO.N,GND*%
X50587500Y-38500000D03*
%TO.P,R14,2*%
%TO.N,/MAD.X4*%
X52412500Y-38500000D03*
%TD*%
D13*
%TO.P,C2,1*%
%TO.N,GND*%
X44000000Y-69362500D03*
%TO.P,C2,2*%
%TO.N,Net-(IC4-1REXT{slash}CEXT)*%
X44000000Y-67637500D03*
%TD*%
D14*
%TO.P,R2,1*%
%TO.N,GND*%
X37412500Y-42500000D03*
%TO.P,R2,2*%
%TO.N,/MAD.X3*%
X35587500Y-42500000D03*
%TD*%
D12*
%TO.P,R34,1*%
%TO.N,GND*%
X50587500Y-46000000D03*
%TO.P,R34,2*%
%TO.N,/MAD.X14*%
X52412500Y-46000000D03*
%TD*%
D14*
%TO.P,R25,1*%
%TO.N,GND*%
X37412500Y-47000000D03*
%TO.P,R25,2*%
%TO.N,/MAD.X9*%
X35587500Y-47000000D03*
%TD*%
D10*
%TO.P,R41,1*%
%TO.N,GND*%
X48000000Y-50587500D03*
%TO.P,R41,2*%
%TO.N,/MAD.Y12*%
X48000000Y-52412500D03*
%TD*%
D14*
%TO.P,R3,1*%
%TO.N,GND*%
X37412500Y-41000000D03*
%TO.P,R3,2*%
%TO.N,/MAD.X1*%
X35587500Y-41000000D03*
%TD*%
D15*
%TO.P,IC3,1,LE*%
%TO.N,/MAD In*%
X27438000Y-47575000D03*
%TO.P,IC3,2,A0*%
%TO.N,/BUS1*%
X27438000Y-46925000D03*
%TO.P,IC3,3,A1*%
%TO.N,/BUS2*%
X27438000Y-46275000D03*
%TO.P,IC3,4,Q7*%
%TO.N,/MAD.X8*%
X27438000Y-45625000D03*
%TO.P,IC3,5,Q6*%
%TO.N,/MAD.X7*%
X27438000Y-44975000D03*
%TO.P,IC3,6,Q5*%
%TO.N,/MAD.X6*%
X27438000Y-44325000D03*
%TO.P,IC3,7,Q4*%
%TO.N,/MAD.X5*%
X27438000Y-43675000D03*
%TO.P,IC3,8,Q3*%
%TO.N,/MAD.X4*%
X27438000Y-43025000D03*
%TO.P,IC3,9,Q1*%
%TO.N,/MAD.X2*%
X27438000Y-42375000D03*
%TO.P,IC3,10,Q2*%
%TO.N,/MAD.X3*%
X27438000Y-41725000D03*
%TO.P,IC3,11,Q0*%
%TO.N,/MAD.X1*%
X27438000Y-41075000D03*
%TO.P,IC3,12,GND*%
%TO.N,GND*%
X27438000Y-40425000D03*
%TO.P,IC3,13,Q13*%
%TO.N,/MAD.X14*%
X21562000Y-40425000D03*
%TO.P,IC3,14,Q12*%
%TO.N,/MAD.X13*%
X21562000Y-41075000D03*
%TO.P,IC3,15,Q15*%
%TO.N,/MAD.X16*%
X21562000Y-41725000D03*
%TO.P,IC3,16,Q14*%
%TO.N,/MAD.X15*%
X21562000Y-42375000D03*
%TO.P,IC3,17,Q9*%
%TO.N,/MAD.X10*%
X21562000Y-43025000D03*
%TO.P,IC3,18,Q8*%
%TO.N,/MAD.X9*%
X21562000Y-43675000D03*
%TO.P,IC3,19,Q11*%
%TO.N,/MAD.X12*%
X21562000Y-44325000D03*
%TO.P,IC3,20,Q10*%
%TO.N,/MAD.X11*%
X21562000Y-44975000D03*
%TO.P,IC3,21,A2*%
%TO.N,/BUS3*%
X21562000Y-45625000D03*
%TO.P,IC3,22,A3*%
%TO.N,/BUS4*%
X21562000Y-46275000D03*
%TO.P,IC3,23,~{E}*%
%TO.N,/MAD Buffer/MAD X DIS*%
X21562000Y-46925000D03*
%TO.P,IC3,24,VCC*%
%TO.N,VDD*%
X21562000Y-47575000D03*
%TD*%
D12*
%TO.P,R40,1*%
%TO.N,GND*%
X50587500Y-41500000D03*
%TO.P,R40,2*%
%TO.N,/MAD.X8*%
X52412500Y-41500000D03*
%TD*%
D10*
%TO.P,R32,1*%
%TO.N,GND*%
X43500000Y-50587500D03*
%TO.P,R32,2*%
%TO.N,/MAD.Y6*%
X43500000Y-52412500D03*
%TD*%
%TO.P,R42,1*%
%TO.N,Net-(IC4-1REXT{slash}CEXT)*%
X46500000Y-67587500D03*
%TO.P,R42,2*%
%TO.N,Net-(R42-Pad2)*%
X46500000Y-69412500D03*
%TD*%
D16*
%TO.P,IS_OUT1,1,Pin_1*%
%TO.N,VDD*%
X28760000Y-14000000D03*
D17*
%TO.P,IS_OUT1,2,Pin_2*%
%TO.N,GND*%
X31300000Y-14000000D03*
%TO.P,IS_OUT1,3,Pin_3*%
%TO.N,/BUS1*%
X33840000Y-14000000D03*
%TO.P,IS_OUT1,4,Pin_4*%
%TO.N,/BUS2*%
X36380000Y-14000000D03*
%TO.P,IS_OUT1,5,Pin_5*%
%TO.N,/BUS3*%
X38920000Y-14000000D03*
%TO.P,IS_OUT1,6,Pin_6*%
%TO.N,/BUS4*%
X41460000Y-14000000D03*
%TO.P,IS_OUT1,7,Pin_7*%
%TO.N,/BUS5*%
X44000000Y-14000000D03*
%TO.P,IS_OUT1,8,Pin_8*%
%TO.N,/BUS6*%
X46540000Y-14000000D03*
%TO.P,IS_OUT1,9,Pin_9*%
%TO.N,/BUS7*%
X49080000Y-14000000D03*
%TO.P,IS_OUT1,10,Pin_10*%
%TO.N,/BUS8*%
X51620000Y-14000000D03*
%TO.P,IS_OUT1,11,Pin_11*%
%TO.N,/RST Pulse*%
X54160000Y-14000000D03*
%TO.P,IS_OUT1,12,Pin_12*%
%TO.N,/Read Out*%
X56700000Y-14000000D03*
%TO.P,IS_OUT1,13,Pin_13*%
%TO.N,/Inhibit EN*%
X59240000Y-14000000D03*
%TD*%
D18*
%TO.P,RV1,1,1*%
%TO.N,Net-(R44-Pad2)*%
X36010000Y-73030000D03*
%TO.P,RV1,2,2*%
%TO.N,/Pulse Circuit/Y Trig*%
X33470000Y-73030000D03*
%TO.P,RV1,3,3*%
%TO.N,unconnected-(RV1-Pad3)*%
X30930000Y-73030000D03*
%TD*%
D19*
%TO.P,IC5,1,1~{A}*%
%TO.N,VDD*%
X71225000Y-64945000D03*
%TO.P,IC5,2,1B*%
%TO.N,/MAD In*%
X71225000Y-63675000D03*
%TO.P,IC5,3,1~{RD}*%
%TO.N,VDD*%
X71225000Y-62405000D03*
%TO.P,IC5,4,1~{Q}*%
%TO.N,/Pulse Circuit/~{RST Pulse}*%
X71225000Y-61135000D03*
%TO.P,IC5,5,2Q*%
%TO.N,unconnected-(IC5-2Q-Pad5)*%
X71225000Y-59865000D03*
%TO.P,IC5,6,2CEXT*%
%TO.N,unconnected-(IC5-2CEXT-Pad6)*%
X71225000Y-58595000D03*
%TO.P,IC5,7,2REXT/CEXT*%
%TO.N,unconnected-(IC5-2REXT{slash}CEXT-Pad7)*%
X71225000Y-57325000D03*
%TO.P,IC5,8,GND*%
%TO.N,GND*%
X71225000Y-56055000D03*
%TO.P,IC5,9,2~{A}*%
%TO.N,unconnected-(IC5-2~{A}-Pad9)*%
X65775000Y-56055000D03*
%TO.P,IC5,10,2B*%
%TO.N,unconnected-(IC5-2B-Pad10)*%
X65775000Y-57325000D03*
%TO.P,IC5,11,2~{RD}*%
%TO.N,unconnected-(IC5-2~{RD}-Pad11)*%
X65775000Y-58595000D03*
%TO.P,IC5,12,2~{Q}*%
%TO.N,unconnected-(IC5-2~{Q}-Pad12)*%
X65775000Y-59865000D03*
%TO.P,IC5,13,1Q*%
%TO.N,/RST Pulse*%
X65775000Y-61135000D03*
%TO.P,IC5,14,1CEXT*%
%TO.N,GND*%
X65775000Y-62405000D03*
%TO.P,IC5,15,1REXT/CEXT*%
%TO.N,Net-(IC5-1REXT{slash}CEXT)*%
X65775000Y-63675000D03*
%TO.P,IC5,16,VCC*%
%TO.N,VDD*%
X65775000Y-64945000D03*
%TD*%
D11*
%TO.P,C1,1*%
%TO.N,Net-(IC4-2REXT{slash}CEXT)*%
X54490000Y-67637500D03*
%TO.P,C1,2*%
%TO.N,GND*%
X54490000Y-69362500D03*
%TD*%
D16*
%TO.P,Y1,1,Pin_1*%
%TO.N,/MAD.Y1*%
X35110000Y-32570000D03*
D17*
%TO.P,Y1,2,Pin_2*%
%TO.N,/MAD.Y3*%
X37650000Y-32570000D03*
%TO.P,Y1,3,Pin_3*%
%TO.N,/MAD.Y5*%
X40190000Y-32570000D03*
%TO.P,Y1,4,Pin_4*%
%TO.N,/MAD.Y7*%
X42730000Y-32570000D03*
%TO.P,Y1,5,Pin_5*%
%TO.N,/MAD.Y9*%
X45270000Y-32570000D03*
%TO.P,Y1,6,Pin_6*%
%TO.N,/MAD.Y11*%
X47810000Y-32570000D03*
%TO.P,Y1,7,Pin_7*%
%TO.N,/MAD.Y13*%
X50350000Y-32570000D03*
%TO.P,Y1,8,Pin_8*%
%TO.N,/MAD.Y15*%
X52890000Y-32570000D03*
%TD*%
D20*
%TO.P,R16,1*%
%TO.N,GND*%
X45500000Y-37412500D03*
%TO.P,R16,2*%
%TO.N,/MAD.Y11*%
X45500000Y-35587500D03*
%TD*%
D21*
%TO.P,IC4,1,1~{A}*%
%TO.N,VDD*%
X48445000Y-59275000D03*
%TO.P,IC4,2,1B*%
%TO.N,/XY TRIG*%
X47175000Y-59275000D03*
%TO.P,IC4,3,1~{RD}*%
%TO.N,VDD*%
X45905000Y-59275000D03*
%TO.P,IC4,4,1~{Q}*%
%TO.N,/MAD Buffer/MAD X DIS*%
X44635000Y-59275000D03*
%TO.P,IC4,5,2Q*%
%TO.N,/Pulse Circuit/Y Pulse*%
X43365000Y-59275000D03*
%TO.P,IC4,6,2CEXT*%
%TO.N,GND*%
X42095000Y-59275000D03*
%TO.P,IC4,7,2REXT/CEXT*%
%TO.N,Net-(IC4-2REXT{slash}CEXT)*%
X40825000Y-59275000D03*
%TO.P,IC4,8,GND*%
%TO.N,GND*%
X39555000Y-59275000D03*
%TO.P,IC4,9,2~{A}*%
%TO.N,VDD*%
X39555000Y-64725000D03*
%TO.P,IC4,10,2B*%
%TO.N,/Pulse Circuit/Y Trig*%
X40825000Y-64725000D03*
%TO.P,IC4,11,2~{RD}*%
%TO.N,VDD*%
X42095000Y-64725000D03*
%TO.P,IC4,12,2~{Q}*%
%TO.N,/MAD Buffer/MAD Y DIS*%
X43365000Y-64725000D03*
%TO.P,IC4,13,1Q*%
%TO.N,/X Pulse*%
X44635000Y-64725000D03*
%TO.P,IC4,14,1CEXT*%
%TO.N,GND*%
X45905000Y-64725000D03*
%TO.P,IC4,15,1REXT/CEXT*%
%TO.N,Net-(IC4-1REXT{slash}CEXT)*%
X47175000Y-64725000D03*
%TO.P,IC4,16,VCC*%
%TO.N,VDD*%
X48445000Y-64725000D03*
%TD*%
D20*
%TO.P,R8,1*%
%TO.N,GND*%
X42500000Y-37412500D03*
%TO.P,R8,2*%
%TO.N,/MAD.Y7*%
X42500000Y-35587500D03*
%TD*%
D12*
%TO.P,R35,1*%
%TO.N,GND*%
X50587500Y-43000000D03*
%TO.P,R35,2*%
%TO.N,/MAD.X10*%
X52412500Y-43000000D03*
%TD*%
D20*
%TO.P,R1,1*%
%TO.N,GND*%
X39500000Y-37412500D03*
%TO.P,R1,2*%
%TO.N,/MAD.Y3*%
X39500000Y-35587500D03*
%TD*%
D14*
%TO.P,R26,1*%
%TO.N,GND*%
X37412500Y-51500000D03*
%TO.P,R26,2*%
%TO.N,/MAD.X15*%
X35587500Y-51500000D03*
%TD*%
D20*
%TO.P,R43,1*%
%TO.N,Net-(R43-Pad1)*%
X56990000Y-69412500D03*
%TO.P,R43,2*%
%TO.N,Net-(IC4-2REXT{slash}CEXT)*%
X56990000Y-67587500D03*
%TD*%
D13*
%TO.P,C7,1*%
%TO.N,GND*%
X65500000Y-68362500D03*
%TO.P,C7,2*%
%TO.N,VDD*%
X65500000Y-66637500D03*
%TD*%
D10*
%TO.P,R38,1*%
%TO.N,GND*%
X51000000Y-50587500D03*
%TO.P,R38,2*%
%TO.N,/MAD.Y16*%
X51000000Y-52412500D03*
%TD*%
D16*
%TO.P,D_DAT1,1,Pin_1*%
%TO.N,/MAD In*%
X35110000Y-35110000D03*
D17*
%TO.P,D_DAT1,2,Pin_2*%
%TO.N,/Write Req*%
X35110000Y-37650000D03*
%TD*%
D18*
%TO.P,RV3,1,1*%
%TO.N,Net-(R43-Pad1)*%
X57040000Y-73000000D03*
%TO.P,RV3,2,2*%
%TO.N,VDD*%
X54500000Y-73000000D03*
%TO.P,RV3,3,3*%
%TO.N,unconnected-(RV3-Pad3)*%
X51960000Y-73000000D03*
%TD*%
D15*
%TO.P,IC1,1,LE*%
%TO.N,/MAD In*%
X41062000Y-22425000D03*
%TO.P,IC1,2,A0*%
%TO.N,/BUS5*%
X41062000Y-23075000D03*
%TO.P,IC1,3,A1*%
%TO.N,/BUS6*%
X41062000Y-23725000D03*
%TO.P,IC1,4,Q7*%
%TO.N,/MAD.Y8*%
X41062000Y-24375000D03*
%TO.P,IC1,5,Q6*%
%TO.N,/MAD.Y7*%
X41062000Y-25025000D03*
%TO.P,IC1,6,Q5*%
%TO.N,/MAD.Y6*%
X41062000Y-25675000D03*
%TO.P,IC1,7,Q4*%
%TO.N,/MAD.Y5*%
X41062000Y-26325000D03*
%TO.P,IC1,8,Q3*%
%TO.N,/MAD.Y4*%
X41062000Y-26975000D03*
%TO.P,IC1,9,Q1*%
%TO.N,/MAD.Y2*%
X41062000Y-27625000D03*
%TO.P,IC1,10,Q2*%
%TO.N,/MAD.Y3*%
X41062000Y-28275000D03*
%TO.P,IC1,11,Q0*%
%TO.N,/MAD.Y1*%
X41062000Y-28925000D03*
%TO.P,IC1,12,GND*%
%TO.N,GND*%
X41062000Y-29575000D03*
%TO.P,IC1,13,Q13*%
%TO.N,/MAD.Y14*%
X46938000Y-29575000D03*
%TO.P,IC1,14,Q12*%
%TO.N,/MAD.Y13*%
X46938000Y-28925000D03*
%TO.P,IC1,15,Q15*%
%TO.N,/MAD.Y16*%
X46938000Y-28275000D03*
%TO.P,IC1,16,Q14*%
%TO.N,/MAD.Y15*%
X46938000Y-27625000D03*
%TO.P,IC1,17,Q9*%
%TO.N,/MAD.Y10*%
X46938000Y-26975000D03*
%TO.P,IC1,18,Q8*%
%TO.N,/MAD.Y9*%
X46938000Y-26325000D03*
%TO.P,IC1,19,Q11*%
%TO.N,/MAD.Y12*%
X46938000Y-25675000D03*
%TO.P,IC1,20,Q10*%
%TO.N,/MAD.Y11*%
X46938000Y-25025000D03*
%TO.P,IC1,21,A2*%
%TO.N,/BUS7*%
X46938000Y-24375000D03*
%TO.P,IC1,22,A3*%
%TO.N,/BUS8*%
X46938000Y-23725000D03*
%TO.P,IC1,23,~{E}*%
%TO.N,/MAD Buffer/MAD Y DIS*%
X46938000Y-23075000D03*
%TO.P,IC1,24,VCC*%
%TO.N,VDD*%
X46938000Y-22425000D03*
%TD*%
D20*
%TO.P,R18,1*%
%TO.N,GND*%
X47000000Y-37412500D03*
%TO.P,R18,2*%
%TO.N,/MAD.Y13*%
X47000000Y-35587500D03*
%TD*%
D16*
%TO.P,X2,1,Pin_1*%
%TO.N,/MAD.X2*%
X55430000Y-35110000D03*
D17*
%TO.P,X2,2,Pin_2*%
%TO.N,/MAD.X4*%
X55430000Y-37650000D03*
%TO.P,X2,3,Pin_3*%
%TO.N,/MAD.X6*%
X55430000Y-40190000D03*
%TO.P,X2,4,Pin_4*%
%TO.N,/MAD.X8*%
X55430000Y-42730000D03*
%TO.P,X2,5,Pin_5*%
%TO.N,/MAD.X10*%
X55430000Y-45270000D03*
%TO.P,X2,6,Pin_6*%
%TO.N,/MAD.X12*%
X55430000Y-47810000D03*
%TO.P,X2,7,Pin_7*%
%TO.N,/MAD.X14*%
X55430000Y-50350000D03*
%TO.P,X2,8,Pin_8*%
%TO.N,/MAD.X16*%
X55430000Y-52890000D03*
%TD*%
D18*
%TO.P,RV2,1,1*%
%TO.N,Net-(R42-Pad2)*%
X46540000Y-73000000D03*
%TO.P,RV2,2,2*%
%TO.N,VDD*%
X44000000Y-73000000D03*
%TO.P,RV2,3,3*%
%TO.N,unconnected-(RV2-Pad3)*%
X41460000Y-73000000D03*
%TD*%
D16*
%TO.P,PULSE_DBG1,1,Pin_1*%
%TO.N,/X Pulse*%
X74000000Y-37650000D03*
D17*
%TO.P,PULSE_DBG1,2,Pin_2*%
%TO.N,/MAD Buffer/MAD X DIS*%
X74000000Y-40190000D03*
%TO.P,PULSE_DBG1,3,Pin_3*%
%TO.N,/Pulse Circuit/Y Pulse*%
X74000000Y-42730000D03*
%TO.P,PULSE_DBG1,4,Pin_4*%
%TO.N,/MAD Buffer/MAD Y DIS*%
X74000000Y-45270000D03*
%TO.P,PULSE_DBG1,5,Pin_5*%
%TO.N,/RST Pulse*%
X74000000Y-47810000D03*
%TO.P,PULSE_DBG1,6,Pin_6*%
%TO.N,/Pulse Circuit/~{RST Pulse}*%
X74000000Y-50350000D03*
%TD*%
D12*
%TO.P,R30,1*%
%TO.N,GND*%
X50587500Y-40000000D03*
%TO.P,R30,2*%
%TO.N,/MAD.X6*%
X52412500Y-40000000D03*
%TD*%
D22*
%TO.P,C8,1*%
%TO.N,GND*%
X50725000Y-22500000D03*
%TO.P,C8,2*%
%TO.N,VDD*%
X49000000Y-22500000D03*
%TD*%
D10*
%TO.P,R39,1*%
%TO.N,Net-(IC5-1REXT{slash}CEXT)*%
X62500000Y-63587500D03*
%TO.P,R39,2*%
%TO.N,VDD*%
X62500000Y-65412500D03*
%TD*%
D20*
%TO.P,R15,1*%
%TO.N,GND*%
X41000000Y-37412500D03*
%TO.P,R15,2*%
%TO.N,/MAD.Y5*%
X41000000Y-35587500D03*
%TD*%
D16*
%TO.P,Y2,1,Pin_1*%
%TO.N,/MAD.Y2*%
X35110000Y-55430000D03*
D17*
%TO.P,Y2,2,Pin_2*%
%TO.N,/MAD.Y4*%
X37650000Y-55430000D03*
%TO.P,Y2,3,Pin_3*%
%TO.N,/MAD.Y6*%
X40190000Y-55430000D03*
%TO.P,Y2,4,Pin_4*%
%TO.N,/MAD.Y8*%
X42730000Y-55430000D03*
%TO.P,Y2,5,Pin_5*%
%TO.N,/MAD.Y10*%
X45270000Y-55430000D03*
%TO.P,Y2,6,Pin_6*%
%TO.N,/MAD.Y12*%
X47810000Y-55430000D03*
%TO.P,Y2,7,Pin_7*%
%TO.N,/MAD.Y14*%
X50350000Y-55430000D03*
%TO.P,Y2,8,Pin_8*%
%TO.N,/MAD.Y16*%
X52890000Y-55430000D03*
%TD*%
D12*
%TO.P,R36,1*%
%TO.N,GND*%
X50587500Y-47500000D03*
%TO.P,R36,2*%
%TO.N,/MAD.X16*%
X52412500Y-47500000D03*
%TD*%
D10*
%TO.P,R29,1*%
%TO.N,GND*%
X46500000Y-50587500D03*
%TO.P,R29,2*%
%TO.N,/MAD.Y10*%
X46500000Y-52412500D03*
%TD*%
D20*
%TO.P,R4,1*%
%TO.N,GND*%
X38000000Y-37412500D03*
%TO.P,R4,2*%
%TO.N,/MAD.Y1*%
X38000000Y-35587500D03*
%TD*%
D13*
%TO.P,C9,1*%
%TO.N,GND*%
X21500000Y-50862500D03*
%TO.P,C9,2*%
%TO.N,VDD*%
X21500000Y-49137500D03*
%TD*%
D10*
%TO.P,R28,1*%
%TO.N,GND*%
X42000000Y-50587500D03*
%TO.P,R28,2*%
%TO.N,/MAD.Y4*%
X42000000Y-52412500D03*
%TD*%
D23*
%TO.P,U2,1*%
%TO.N,/Write Req*%
X24800000Y-58500000D03*
%TO.P,U2,2*%
%TO.N,/X Pulse*%
X24800000Y-59450000D03*
%TO.P,U2,3,GND*%
%TO.N,GND*%
X24800000Y-60400000D03*
%TO.P,U2,4*%
%TO.N,/Inhibit EN*%
X27500000Y-60400000D03*
%TO.P,U2,5,VCC*%
%TO.N,VDD*%
X27500000Y-58500000D03*
%TD*%
D24*
%TO.P,U1,1*%
%TO.N,/MAD In*%
X22500000Y-53500000D03*
%TO.P,U1,2*%
%TO.N,/Write Req*%
X22500000Y-54150000D03*
%TO.P,U1,3,GND*%
%TO.N,GND*%
X22500000Y-54800000D03*
%TO.P,U1,4*%
%TO.N,/XY TRIG*%
X25160000Y-54800000D03*
%TO.P,U1,5,VCC*%
%TO.N,VDD*%
X25160000Y-53500000D03*
%TD*%
D10*
%TO.P,R33,1*%
%TO.N,GND*%
X49500000Y-50587500D03*
%TO.P,R33,2*%
%TO.N,/MAD.Y14*%
X49500000Y-52412500D03*
%TD*%
D12*
%TO.P,R17,1*%
%TO.N,GND*%
X50587500Y-37000000D03*
%TO.P,R17,2*%
%TO.N,/MAD.X2*%
X52412500Y-37000000D03*
%TD*%
D22*
%TO.P,C6,1*%
%TO.N,GND*%
X51862500Y-65000000D03*
%TO.P,C6,2*%
%TO.N,VDD*%
X50137500Y-65000000D03*
%TD*%
D14*
%TO.P,R22,1*%
%TO.N,GND*%
X37412500Y-48500000D03*
%TO.P,R22,2*%
%TO.N,/MAD.X11*%
X35587500Y-48500000D03*
%TD*%
D12*
%TO.P,R31,1*%
%TO.N,GND*%
X50587500Y-44500000D03*
%TO.P,R31,2*%
%TO.N,/MAD.X12*%
X52412500Y-44500000D03*
%TD*%
D16*
%TO.P,X1,1,Pin_1*%
%TO.N,/MAD.X1*%
X32570000Y-35110000D03*
D17*
%TO.P,X1,2,Pin_2*%
%TO.N,/MAD.X3*%
X32570000Y-37650000D03*
%TO.P,X1,3,Pin_3*%
%TO.N,/MAD.X5*%
X32570000Y-40190000D03*
%TO.P,X1,4,Pin_4*%
%TO.N,/MAD.X7*%
X32570000Y-42730000D03*
%TO.P,X1,5,Pin_5*%
%TO.N,/MAD.X9*%
X32570000Y-45270000D03*
%TO.P,X1,6,Pin_6*%
%TO.N,/MAD.X11*%
X32570000Y-47810000D03*
%TO.P,X1,7,Pin_7*%
%TO.N,/MAD.X13*%
X32570000Y-50350000D03*
%TO.P,X1,8,Pin_8*%
%TO.N,/MAD.X15*%
X32570000Y-52890000D03*
%TD*%
D14*
%TO.P,R27,1*%
%TO.N,GND*%
X37412500Y-50000000D03*
%TO.P,R27,2*%
%TO.N,/MAD.X13*%
X35587500Y-50000000D03*
%TD*%
D13*
%TO.P,C3,1*%
%TO.N,/Pulse Circuit/Y Trig*%
X33500000Y-69362500D03*
%TO.P,C3,2*%
%TO.N,GND*%
X33500000Y-67637500D03*
%TD*%
D10*
%TO.P,R44,1*%
%TO.N,/XY TRIG*%
X36000000Y-67587500D03*
%TO.P,R44,2*%
%TO.N,Net-(R44-Pad2)*%
X36000000Y-69412500D03*
%TD*%
D16*
%TO.P,IN1,1,Pin_1*%
%TO.N,VDD*%
X14000000Y-28760000D03*
D17*
%TO.P,IN1,2,Pin_2*%
%TO.N,GND*%
X14000000Y-31300000D03*
%TO.P,IN1,3,Pin_3*%
%TO.N,/BUS1*%
X14000000Y-33840000D03*
%TO.P,IN1,4,Pin_4*%
%TO.N,/BUS2*%
X14000000Y-36380000D03*
%TO.P,IN1,5,Pin_5*%
%TO.N,/BUS3*%
X14000000Y-38920000D03*
%TO.P,IN1,6,Pin_6*%
%TO.N,/BUS4*%
X14000000Y-41460000D03*
%TO.P,IN1,7,Pin_7*%
%TO.N,/BUS5*%
X14000000Y-44000000D03*
%TO.P,IN1,8,Pin_8*%
%TO.N,/BUS6*%
X14000000Y-46540000D03*
%TO.P,IN1,9,Pin_9*%
%TO.N,/BUS7*%
X14000000Y-49080000D03*
%TO.P,IN1,10,Pin_10*%
%TO.N,/BUS8*%
X14000000Y-51620000D03*
%TO.P,IN1,11,Pin_11*%
%TO.N,/MAD In*%
X14000000Y-54160000D03*
%TO.P,IN1,12,Pin_12*%
%TO.N,/Read Out*%
X14000000Y-56700000D03*
%TO.P,IN1,13,Pin_13*%
%TO.N,/Write Req*%
X14000000Y-59240000D03*
%TD*%
D14*
%TO.P,R21,1*%
%TO.N,GND*%
X37412500Y-44000000D03*
%TO.P,R21,2*%
%TO.N,/MAD.X5*%
X35587500Y-44000000D03*
%TD*%
%TO.P,R23,1*%
%TO.N,GND*%
X37412500Y-45500000D03*
%TO.P,R23,2*%
%TO.N,/MAD.X7*%
X35587500Y-45500000D03*
%TD*%
D20*
%TO.P,R11,1*%
%TO.N,GND*%
X44000000Y-37412500D03*
%TO.P,R11,2*%
%TO.N,/MAD.Y9*%
X44000000Y-35587500D03*
%TD*%
%TO.P,R6,1*%
%TO.N,GND*%
X48500000Y-37412500D03*
%TO.P,R6,2*%
%TO.N,/MAD.Y15*%
X48500000Y-35587500D03*
%TD*%
D25*
%TO.N,VDD*%
X26500000Y-53500000D03*
X20250000Y-48250000D03*
X27500000Y-57000000D03*
X49500000Y-63825000D03*
X64000000Y-66500000D03*
X48000000Y-21325000D03*
D26*
%TO.N,GND*%
X27500000Y-39500000D03*
X70000000Y-70500000D03*
X22000000Y-66000000D03*
X30500000Y-31000000D03*
X17000000Y-51000000D03*
X62500000Y-44500000D03*
X21500000Y-71500000D03*
X52000000Y-67000000D03*
X66500000Y-26500000D03*
X40849089Y-61000000D03*
X24000000Y-57000000D03*
X48000000Y-48000000D03*
X45000000Y-24500000D03*
X56000000Y-22000000D03*
X29500000Y-51500000D03*
X37500000Y-60500000D03*
X18000000Y-17500000D03*
X39000000Y-30000000D03*
X46427557Y-66207222D03*
X40000000Y-40000000D03*
X45000000Y-71000000D03*
X68500000Y-61500000D03*
X48000000Y-40000000D03*
X40000000Y-48000000D03*
%TO.N,/MAD Buffer/MAD X DIS*%
X45500000Y-61000000D03*
%TO.N,/Pulse Circuit/Y Pulse*%
X42987347Y-60987347D03*
%TO.N,/MAD Buffer/MAD Y DIS*%
X43000000Y-66000000D03*
%TO.N,/MAD.X10*%
X24500000Y-40500000D03*
%TO.N,/MAD.X6*%
X30249696Y-44275001D03*
%TO.N,/MAD.X2*%
X30500000Y-41500000D03*
%TO.N,/MAD.X4*%
X29537347Y-42937347D03*
%TO.N,/MAD.X13*%
X23499839Y-40987427D03*
%TO.N,/MAD.X8*%
X29500000Y-46000000D03*
%TO.N,/MAD.X16*%
X23512653Y-41987347D03*
%TO.N,/MAD.X12*%
X20000000Y-43500000D03*
%TO.N,/MAD.X15*%
X23500000Y-43000000D03*
%TO.N,/MAD.X14*%
X20000000Y-40350000D03*
%TO.N,/MAD.Y8*%
X43000000Y-24300000D03*
%TO.N,/MAD.Y16*%
X49775000Y-28062403D03*
%TO.N,/MAD.Y4*%
X42682688Y-27882882D03*
%TO.N,/MAD.Y14*%
X49275000Y-30000000D03*
%TO.N,/MAD.Y13*%
X48500000Y-29000000D03*
%TO.N,/MAD.Y10*%
X45225000Y-28150403D03*
%TO.N,/MAD.Y12*%
X45000000Y-26000000D03*
%TO.N,/MAD.Y2*%
X39250000Y-27750000D03*
%TO.N,/MAD.Y15*%
X48500000Y-27337403D03*
%TO.N,/MAD.Y6*%
X43189963Y-25802596D03*
%TO.N,/MAD In*%
X39000000Y-22500000D03*
X25000000Y-47000000D03*
X73000000Y-63000000D03*
%TO.N,/X Pulse*%
X45000000Y-66000000D03*
X23000000Y-59500000D03*
%TO.N,/Inhibit EN*%
X29500000Y-60500000D03*
%TD*%
D27*
%TO.N,/BUS7*%
X45000000Y-23424500D02*
X45000000Y-21500000D01*
X45000000Y-21500000D02*
X49080000Y-17420000D01*
X46938000Y-24375000D02*
X45950500Y-24375000D01*
X45950500Y-24375000D02*
X45000000Y-23424500D01*
X49080000Y-17420000D02*
X49080000Y-14000000D01*
%TO.N,/BUS3*%
X14000000Y-38920000D02*
X20705000Y-45625000D01*
X20705000Y-45625000D02*
X21562000Y-45625000D01*
%TO.N,/BUS5*%
X44000000Y-21124500D02*
X44000000Y-14000000D01*
X41062000Y-23075000D02*
X42049500Y-23075000D01*
X42049500Y-23075000D02*
X44000000Y-21124500D01*
%TO.N,/BUS6*%
X41062000Y-23725000D02*
X42049500Y-23725000D01*
X46540000Y-19234500D02*
X46540000Y-14000000D01*
X42049500Y-23725000D02*
X46540000Y-19234500D01*
%TO.N,/BUS4*%
X14000000Y-41460000D02*
X18815000Y-46275000D01*
X18815000Y-46275000D02*
X21562000Y-46275000D01*
%TO.N,/BUS1*%
X25623000Y-46123000D02*
X26425000Y-46925000D01*
X18865305Y-33840000D02*
X25623000Y-40597695D01*
X25623000Y-40597695D02*
X25623000Y-46123000D01*
X14000000Y-33840000D02*
X18865305Y-33840000D01*
X26425000Y-46925000D02*
X27438000Y-46925000D01*
%TO.N,/BUS2*%
X12500000Y-34880000D02*
X12500000Y-33500000D01*
X26000000Y-45824500D02*
X26450500Y-46275000D01*
X19000000Y-32500000D02*
X26000000Y-39500000D01*
X26450500Y-46275000D02*
X27438000Y-46275000D01*
X26000000Y-39500000D02*
X26000000Y-45824500D01*
X12500000Y-33500000D02*
X13500000Y-32500000D01*
X13500000Y-32500000D02*
X19000000Y-32500000D01*
X14000000Y-36380000D02*
X12500000Y-34880000D01*
%TO.N,/BUS8*%
X45500000Y-23274500D02*
X45500000Y-21875250D01*
X51620000Y-15755250D02*
X51620000Y-14000000D01*
X45500000Y-21875250D02*
X51620000Y-15755250D01*
X45950500Y-23725000D02*
X45500000Y-23274500D01*
X46938000Y-23725000D02*
X45950500Y-23725000D01*
D28*
%TO.N,VDD*%
X48445000Y-63055000D02*
X48445000Y-59275000D01*
X65500000Y-65220000D02*
X65500000Y-66637500D01*
X48900000Y-22400000D02*
X49000000Y-22500000D01*
X48000000Y-21363000D02*
X46963000Y-22400000D01*
X70000000Y-64475000D02*
X70470000Y-64945000D01*
X48445000Y-64725000D02*
X48445000Y-66945000D01*
X47975000Y-58050000D02*
X48445000Y-58520000D01*
X39555000Y-64725000D02*
X39555000Y-63970000D01*
X64137500Y-66637500D02*
X64000000Y-66500000D01*
X42095000Y-64725000D02*
X42095000Y-63970000D01*
X48445000Y-63970000D02*
X48445000Y-64725000D01*
X20250000Y-48250000D02*
X20900000Y-47600000D01*
X39555000Y-63970000D02*
X40025000Y-63500000D01*
X40025000Y-63500000D02*
X41625000Y-63500000D01*
X46375000Y-58050000D02*
X47975000Y-58050000D01*
X48445000Y-63055000D02*
X48730000Y-63055000D01*
X65775000Y-64945000D02*
X71225000Y-64945000D01*
X70470000Y-62405000D02*
X70000000Y-62875000D01*
X47500000Y-63500000D02*
X48000000Y-63500000D01*
X71225000Y-62405000D02*
X70470000Y-62405000D01*
X49862500Y-64725000D02*
X50137500Y-65000000D01*
X50137500Y-64462500D02*
X49500000Y-63825000D01*
X48730000Y-63055000D02*
X49500000Y-63825000D01*
X48000000Y-63500000D02*
X48445000Y-63055000D01*
X48445000Y-66945000D02*
X54500000Y-73000000D01*
X47500000Y-63500000D02*
X47975000Y-63500000D01*
X62500000Y-65412500D02*
X62912500Y-65412500D01*
X49000000Y-22325000D02*
X48000000Y-21325000D01*
X65775000Y-64945000D02*
X65500000Y-65220000D01*
X48445000Y-58520000D02*
X48445000Y-59275000D01*
X21500000Y-47662000D02*
X21562000Y-47600000D01*
X49000000Y-22500000D02*
X49000000Y-22325000D01*
X20250000Y-48250000D02*
X21137500Y-49137500D01*
X50137500Y-65000000D02*
X50137500Y-64462500D01*
X45905000Y-58520000D02*
X46375000Y-58050000D01*
X70470000Y-64945000D02*
X71225000Y-64945000D01*
X48000000Y-21325000D02*
X48000000Y-21363000D01*
X65307500Y-65412500D02*
X62500000Y-65412500D01*
X25160000Y-53500000D02*
X26500000Y-53500000D01*
X65775000Y-64945000D02*
X65307500Y-65412500D01*
X62912500Y-65412500D02*
X64000000Y-66500000D01*
X21500000Y-49137500D02*
X21500000Y-47662000D01*
X45905000Y-59275000D02*
X45905000Y-58520000D01*
X27500000Y-58500000D02*
X27500000Y-57000000D01*
X48445000Y-64725000D02*
X49862500Y-64725000D01*
X47975000Y-63500000D02*
X48445000Y-63970000D01*
X42565000Y-63500000D02*
X47500000Y-63500000D01*
X65500000Y-66637500D02*
X64137500Y-66637500D01*
X41625000Y-63500000D02*
X42095000Y-63970000D01*
X46963000Y-22400000D02*
X48900000Y-22400000D01*
X42095000Y-71095000D02*
X44000000Y-73000000D01*
X42095000Y-64725000D02*
X42095000Y-71095000D01*
X20900000Y-47600000D02*
X21562000Y-47600000D01*
X70000000Y-62875000D02*
X70000000Y-64475000D01*
X42095000Y-63970000D02*
X42565000Y-63500000D01*
X21137500Y-49137500D02*
X21500000Y-49137500D01*
%TO.N,GND*%
X42095000Y-60550000D02*
X42095000Y-59275000D01*
X22500000Y-54800000D02*
X22500000Y-55500000D01*
X27500000Y-39500000D02*
X27500000Y-40363000D01*
D29*
X31300000Y-14000000D02*
X31300000Y-15202081D01*
X23251040Y-23251040D02*
X15202081Y-31300000D01*
D28*
X41645000Y-61000000D02*
X42095000Y-60550000D01*
X22500000Y-55500000D02*
X24000000Y-57000000D01*
X64267500Y-62405000D02*
X64000000Y-62137500D01*
D29*
X23251040Y-22751040D02*
X18000000Y-17500000D01*
D28*
X45905000Y-64725000D02*
X45905000Y-65684665D01*
X68500000Y-61500000D02*
X67595000Y-62405000D01*
X27463000Y-40400000D02*
X27438000Y-40400000D01*
D29*
X31300000Y-15202081D02*
X23251040Y-23251040D01*
D28*
X27500000Y-40363000D02*
X27463000Y-40400000D01*
X67595000Y-62405000D02*
X65775000Y-62405000D01*
X40849089Y-61000000D02*
X40005000Y-61000000D01*
X45905000Y-65684665D02*
X46427557Y-66207222D01*
X40005000Y-61000000D02*
X39555000Y-60550000D01*
X39400000Y-29600000D02*
X41062000Y-29600000D01*
X39555000Y-60550000D02*
X39555000Y-59275000D01*
D29*
X23251040Y-23251040D02*
X23251040Y-22751040D01*
D28*
X39000000Y-30000000D02*
X39400000Y-29600000D01*
D29*
X15202081Y-31300000D02*
X14000000Y-31300000D01*
D28*
X65775000Y-62405000D02*
X64267500Y-62405000D01*
X40849089Y-61000000D02*
X41645000Y-61000000D01*
D27*
%TO.N,Net-(IC4-2REXT{slash}CEXT)*%
X48500000Y-57000000D02*
X42595000Y-57000000D01*
X56940000Y-67637500D02*
X56990000Y-67587500D01*
X54490000Y-67637500D02*
X54490000Y-62990000D01*
X40825000Y-59780000D02*
X40825000Y-59275000D01*
X54490000Y-62990000D02*
X48500000Y-57000000D01*
X42595000Y-57000000D02*
X40825000Y-58770000D01*
X54490000Y-67637500D02*
X56940000Y-67637500D01*
X40825000Y-58770000D02*
X40825000Y-59275000D01*
%TO.N,Net-(IC5-1REXT{slash}CEXT)*%
X62775000Y-63862500D02*
X62500000Y-63587500D01*
X64000000Y-63862500D02*
X62775000Y-63862500D01*
X65775000Y-63675000D02*
X64187500Y-63675000D01*
X64187500Y-63675000D02*
X64000000Y-63862500D01*
%TO.N,/Pulse Circuit/Y Trig*%
X40825000Y-64725000D02*
X40825000Y-64300000D01*
X37475000Y-68500000D02*
X34362500Y-68500000D01*
X33500000Y-73000000D02*
X33470000Y-73030000D01*
X33500000Y-69362500D02*
X33500000Y-73000000D01*
X40825000Y-64725000D02*
X40825000Y-65150000D01*
X40825000Y-65150000D02*
X37475000Y-68500000D01*
X34362500Y-68500000D02*
X33500000Y-69362500D01*
%TO.N,Net-(IC4-1REXT{slash}CEXT)*%
X46500000Y-67587500D02*
X47175000Y-66912500D01*
X46450000Y-67637500D02*
X46500000Y-67587500D01*
X44000000Y-67637500D02*
X46450000Y-67637500D01*
X47175000Y-66912500D02*
X47175000Y-64725000D01*
%TO.N,/MAD Buffer/MAD X DIS*%
X22549500Y-46925000D02*
X21562000Y-46925000D01*
X23123000Y-48689316D02*
X23123000Y-47498500D01*
X24377000Y-49877000D02*
X24310684Y-49877000D01*
X23123000Y-47498500D02*
X22549500Y-46925000D01*
X43000000Y-62000000D02*
X36500000Y-62000000D01*
X44635000Y-60365000D02*
X43000000Y-62000000D01*
X44635000Y-59275000D02*
X44635000Y-60365000D01*
X24310684Y-49877000D02*
X23123000Y-48689316D01*
X36500000Y-62000000D02*
X24377000Y-49877000D01*
X45500000Y-61000000D02*
X44635000Y-60135000D01*
X44635000Y-60135000D02*
X44635000Y-59275000D01*
%TO.N,/Pulse Circuit/Y Pulse*%
X43365000Y-60609694D02*
X43365000Y-59275000D01*
X42987347Y-60987347D02*
X43365000Y-60609694D01*
%TO.N,/MAD Buffer/MAD Y DIS*%
X70120500Y-45270000D02*
X74000000Y-45270000D01*
X43365000Y-64725000D02*
X43365000Y-65635000D01*
X43365000Y-65635000D02*
X43000000Y-66000000D01*
X47925500Y-23075000D02*
X70120500Y-45270000D01*
X46938000Y-23075000D02*
X47925500Y-23075000D01*
%TO.N,/MAD.X10*%
X24500000Y-43025305D02*
X23800305Y-43725000D01*
X22432658Y-43025000D02*
X21562000Y-43025000D01*
X23800305Y-43725000D02*
X23132658Y-43725000D01*
X24500000Y-40500000D02*
X24500000Y-43025305D01*
X23132658Y-43725000D02*
X22432658Y-43025000D01*
X52412500Y-43000000D02*
X53160000Y-43000000D01*
X53160000Y-43000000D02*
X55430000Y-45270000D01*
%TO.N,/MAD.X6*%
X52412500Y-40000000D02*
X55240000Y-40000000D01*
X30249696Y-44275001D02*
X30199697Y-44325000D01*
X55240000Y-40000000D02*
X55430000Y-40190000D01*
X30199697Y-44325000D02*
X27438000Y-44325000D01*
%TO.N,/MAD.X2*%
X29049695Y-42375000D02*
X27438000Y-42375000D01*
X30500000Y-41500000D02*
X29924695Y-41500000D01*
X52412500Y-37000000D02*
X53540000Y-37000000D01*
X53540000Y-37000000D02*
X55430000Y-35110000D01*
X29924695Y-41500000D02*
X29049695Y-42375000D01*
%TO.N,/MAD.X9*%
X22549500Y-43675000D02*
X24000000Y-45125500D01*
X24000000Y-45125500D02*
X24000000Y-48500000D01*
X24500000Y-49000000D02*
X28840000Y-49000000D01*
X24000000Y-48500000D02*
X24500000Y-49000000D01*
X21562000Y-43675000D02*
X22549500Y-43675000D01*
X34300000Y-47000000D02*
X32570000Y-45270000D01*
X28840000Y-49000000D02*
X32570000Y-45270000D01*
X35587500Y-47000000D02*
X34300000Y-47000000D01*
%TO.N,/MAD.X4*%
X27525653Y-42937347D02*
X27438000Y-43025000D01*
X29537347Y-42937347D02*
X27525653Y-42937347D01*
X52412500Y-38500000D02*
X54580000Y-38500000D01*
X54580000Y-38500000D02*
X55430000Y-37650000D01*
%TO.N,/MAD.X13*%
X23412266Y-41075000D02*
X21562000Y-41075000D01*
X23499839Y-40987427D02*
X23412266Y-41075000D01*
X32920000Y-50000000D02*
X32570000Y-50350000D01*
X35587500Y-50000000D02*
X32920000Y-50000000D01*
%TO.N,/MAD.X8*%
X29125000Y-45625000D02*
X27438000Y-45625000D01*
X52412500Y-41500000D02*
X54200000Y-41500000D01*
X54200000Y-41500000D02*
X55430000Y-42730000D01*
X29500000Y-46000000D02*
X29125000Y-45625000D01*
%TO.N,/MAD.X11*%
X23500000Y-48533158D02*
X24466842Y-49500000D01*
X22549500Y-44975000D02*
X23500000Y-45925500D01*
X35587500Y-48500000D02*
X33260000Y-48500000D01*
X30880000Y-49500000D02*
X32570000Y-47810000D01*
X21562000Y-44975000D02*
X22549500Y-44975000D01*
X23500000Y-45925500D02*
X23500000Y-48533158D01*
X24466842Y-49500000D02*
X30880000Y-49500000D01*
X33260000Y-48500000D02*
X32570000Y-47810000D01*
%TO.N,/MAD.X7*%
X35340000Y-45500000D02*
X32570000Y-42730000D01*
X32570000Y-43430000D02*
X32570000Y-42730000D01*
X27438000Y-44975000D02*
X27463000Y-45000000D01*
X31000000Y-45000000D02*
X32570000Y-43430000D01*
X27463000Y-45000000D02*
X31000000Y-45000000D01*
X35587500Y-45500000D02*
X35340000Y-45500000D01*
%TO.N,/MAD.X16*%
X52412500Y-49872500D02*
X55430000Y-52890000D01*
X23250306Y-41725000D02*
X21562000Y-41725000D01*
X52412500Y-47500000D02*
X52412500Y-49872500D01*
X23512653Y-41987347D02*
X23250306Y-41725000D01*
%TO.N,/MAD.X5*%
X32570000Y-40982500D02*
X32570000Y-40190000D01*
X27438000Y-43675000D02*
X29825000Y-43675000D01*
X35587500Y-44000000D02*
X32570000Y-40982500D01*
X29825000Y-43675000D02*
X32570000Y-40930000D01*
X32570000Y-40930000D02*
X32570000Y-40190000D01*
%TO.N,/MAD.X1*%
X35587500Y-41000000D02*
X35587500Y-40337500D01*
X29000000Y-40500500D02*
X29000000Y-38680000D01*
X28425500Y-41075000D02*
X29000000Y-40500500D01*
X29000000Y-38680000D02*
X32570000Y-35110000D01*
X27438000Y-41075000D02*
X28425500Y-41075000D01*
X33935000Y-38685000D02*
X33935000Y-36475000D01*
X35587500Y-40337500D02*
X33935000Y-38685000D01*
X33935000Y-36475000D02*
X32570000Y-35110000D01*
%TO.N,/MAD.X12*%
X20000000Y-43750500D02*
X20574500Y-44325000D01*
X52412500Y-44500000D02*
X55430000Y-47517500D01*
X55430000Y-47517500D02*
X55430000Y-47810000D01*
X20000000Y-43500000D02*
X20000000Y-43750500D01*
X20574500Y-44325000D02*
X21562000Y-44325000D01*
%TO.N,/MAD.X15*%
X23500000Y-43000000D02*
X22875000Y-42375000D01*
X35587500Y-51500000D02*
X33960000Y-51500000D01*
X33960000Y-51500000D02*
X32570000Y-52890000D01*
X22875000Y-42375000D02*
X21562000Y-42375000D01*
%TO.N,/MAD.X14*%
X20000000Y-40350000D02*
X21487000Y-40350000D01*
X21487000Y-40350000D02*
X21562000Y-40425000D01*
X52412500Y-46000000D02*
X54000000Y-47587500D01*
X54000000Y-48920000D02*
X55430000Y-50350000D01*
X54000000Y-47587500D02*
X54000000Y-48920000D01*
%TO.N,/MAD.X3*%
X28495000Y-41725000D02*
X32570000Y-37650000D01*
X34000000Y-39790000D02*
X32570000Y-38360000D01*
X32570000Y-38360000D02*
X32570000Y-37650000D01*
X34000000Y-40912500D02*
X34000000Y-39790000D01*
X27438000Y-41725000D02*
X28495000Y-41725000D01*
X35587500Y-42500000D02*
X34000000Y-40912500D01*
%TO.N,/MAD.Y8*%
X45000000Y-52412500D02*
X45000000Y-53160000D01*
X43000000Y-24300000D02*
X41137000Y-24300000D01*
X45000000Y-53160000D02*
X42730000Y-55430000D01*
X41137000Y-24300000D02*
X41062000Y-24375000D01*
%TO.N,/MAD.Y16*%
X51000000Y-52412500D02*
X51000000Y-53540000D01*
X47725500Y-28275000D02*
X46938000Y-28275000D01*
X51000000Y-53540000D02*
X52890000Y-55430000D01*
X47938097Y-28062403D02*
X47725500Y-28275000D01*
X49775000Y-28062403D02*
X47938097Y-28062403D01*
%TO.N,/MAD.Y5*%
X41000000Y-33380000D02*
X40190000Y-32570000D01*
X42325000Y-26325000D02*
X43500000Y-27500000D01*
X41062000Y-26325000D02*
X42325000Y-26325000D01*
X41068299Y-32570000D02*
X40190000Y-32570000D01*
X43500000Y-27500000D02*
X43500000Y-30138299D01*
X41000000Y-35587500D02*
X41000000Y-33380000D01*
X43500000Y-30138299D02*
X41068299Y-32570000D01*
%TO.N,/MAD.Y7*%
X44000000Y-25500000D02*
X44000000Y-31300000D01*
X42500000Y-35587500D02*
X42500000Y-32800000D01*
X43525000Y-25025000D02*
X44000000Y-25500000D01*
X42500000Y-32800000D02*
X42730000Y-32570000D01*
X41062000Y-25025000D02*
X43525000Y-25025000D01*
X44000000Y-31300000D02*
X42730000Y-32570000D01*
%TO.N,/MAD.Y11*%
X50500000Y-29880000D02*
X47810000Y-32570000D01*
X47925500Y-25025000D02*
X50500000Y-27599500D01*
X46938000Y-25025000D02*
X47925500Y-25025000D01*
X45500000Y-34880000D02*
X47810000Y-32570000D01*
X45500000Y-35587500D02*
X45500000Y-34880000D01*
X50500000Y-27599500D02*
X50500000Y-29880000D01*
%TO.N,/MAD.Y4*%
X42000000Y-52412500D02*
X40412500Y-54000000D01*
X39080000Y-54000000D02*
X37650000Y-55430000D01*
X40412500Y-54000000D02*
X39080000Y-54000000D01*
X42049500Y-26975000D02*
X41062000Y-26975000D01*
X42682688Y-27608188D02*
X42049500Y-26975000D01*
X42682688Y-27882882D02*
X42682688Y-27608188D01*
%TO.N,/MAD.Y14*%
X49500000Y-52412500D02*
X49500000Y-54580000D01*
X47363000Y-30000000D02*
X46938000Y-29575000D01*
X49500000Y-54580000D02*
X50350000Y-55430000D01*
X49275000Y-30000000D02*
X47363000Y-30000000D01*
%TO.N,/MAD.Y9*%
X45950500Y-26325000D02*
X44500000Y-27775500D01*
X46938000Y-26325000D02*
X45950500Y-26325000D01*
X44000000Y-35587500D02*
X44000000Y-33840000D01*
X44000000Y-33840000D02*
X45270000Y-32570000D01*
X44500000Y-27775500D02*
X44500000Y-31800000D01*
X44500000Y-31800000D02*
X45270000Y-32570000D01*
%TO.N,/MAD.Y3*%
X42049500Y-28275000D02*
X42500000Y-28725500D01*
X41062000Y-28275000D02*
X42049500Y-28275000D01*
X42500000Y-28725500D02*
X42500000Y-30062500D01*
X42500000Y-30062500D02*
X41562500Y-31000000D01*
X41562500Y-31000000D02*
X39220000Y-31000000D01*
X39500000Y-34420000D02*
X39500000Y-35587500D01*
X39220000Y-31000000D02*
X37650000Y-32570000D01*
X37650000Y-32570000D02*
X39500000Y-34420000D01*
%TO.N,/MAD.Y13*%
X47013000Y-29000000D02*
X46938000Y-28925000D01*
X48500000Y-29000000D02*
X47013000Y-29000000D01*
X47000000Y-35587500D02*
X50017500Y-32570000D01*
X50017500Y-32570000D02*
X50350000Y-32570000D01*
%TO.N,/MAD.Y10*%
X45225000Y-28150403D02*
X45225000Y-27700500D01*
X45225000Y-27700500D02*
X45950500Y-26975000D01*
X46500000Y-52412500D02*
X46500000Y-54200000D01*
X46500000Y-54200000D02*
X45270000Y-55430000D01*
X45950500Y-26975000D02*
X46938000Y-26975000D01*
%TO.N,/MAD.Y12*%
X45000000Y-26000000D02*
X45325000Y-25675000D01*
X45325000Y-25675000D02*
X46938000Y-25675000D01*
X48000000Y-55240000D02*
X47810000Y-55430000D01*
X48000000Y-52412500D02*
X48000000Y-55240000D01*
%TO.N,/MAD.Y2*%
X38127500Y-52412500D02*
X35110000Y-55430000D01*
X39250000Y-27750000D02*
X39375000Y-27625000D01*
X40500000Y-52412500D02*
X38127500Y-52412500D01*
X39375000Y-27625000D02*
X41062000Y-27625000D01*
%TO.N,/MAD.Y1*%
X35110000Y-32697500D02*
X38000000Y-35587500D01*
X38755000Y-28925000D02*
X35110000Y-32570000D01*
X35110000Y-32570000D02*
X35110000Y-32697500D01*
X41062000Y-28925000D02*
X38755000Y-28925000D01*
%TO.N,/MAD.Y15*%
X48212403Y-27625000D02*
X46938000Y-27625000D01*
X48500000Y-27337403D02*
X48212403Y-27625000D01*
X48500000Y-35587500D02*
X49872500Y-35587500D01*
X49872500Y-35587500D02*
X52890000Y-32570000D01*
%TO.N,/MAD.Y6*%
X40482500Y-55430000D02*
X40190000Y-55430000D01*
X43500000Y-52412500D02*
X40482500Y-55430000D01*
X43062367Y-25675000D02*
X41062000Y-25675000D01*
X43189963Y-25802596D02*
X43062367Y-25675000D01*
%TO.N,/MAD In*%
X40987000Y-22500000D02*
X41062000Y-22425000D01*
X14000000Y-54160000D02*
X14660000Y-53500000D01*
X25000000Y-47000000D02*
X25575000Y-47575000D01*
X25575000Y-47575000D02*
X27438000Y-47575000D01*
X73000000Y-63000000D02*
X72325000Y-63675000D01*
X39000000Y-22500000D02*
X40987000Y-22500000D01*
X14660000Y-53500000D02*
X22500000Y-53500000D01*
X72325000Y-63675000D02*
X71225000Y-63675000D01*
%TO.N,/Write Req*%
X19090000Y-54150000D02*
X22500000Y-54150000D01*
X14000000Y-59240000D02*
X14740000Y-58500000D01*
X14740000Y-58500000D02*
X24800000Y-58500000D01*
X14000000Y-59240000D02*
X19090000Y-54150000D01*
%TO.N,/XY TRIG*%
X36000000Y-67587500D02*
X36000000Y-64000000D01*
X47175000Y-60575000D02*
X47175000Y-59275000D01*
X36000000Y-64000000D02*
X37500000Y-62500000D01*
X25160000Y-54800000D02*
X26800000Y-54800000D01*
X26800000Y-54800000D02*
X36000000Y-64000000D01*
X37500000Y-62500000D02*
X45250000Y-62500000D01*
X45250000Y-62500000D02*
X47175000Y-60575000D01*
%TO.N,/Pulse Circuit/~{RST Pulse}*%
X68671579Y-55678421D02*
X74000000Y-50350000D01*
X70800000Y-61135000D02*
X68671579Y-59006579D01*
X68671579Y-59006579D02*
X68671579Y-55678421D01*
X71225000Y-61135000D02*
X70800000Y-61135000D01*
%TO.N,Net-(R42-Pad2)*%
X46490000Y-72950000D02*
X46540000Y-73000000D01*
X46500000Y-72960000D02*
X46540000Y-73000000D01*
X46500000Y-69412500D02*
X46500000Y-72960000D01*
%TO.N,Net-(R43-Pad1)*%
X56990000Y-69412500D02*
X56990000Y-72950000D01*
X56990000Y-72950000D02*
X57040000Y-73000000D01*
%TO.N,Net-(R44-Pad2)*%
X36000000Y-73020000D02*
X36010000Y-73030000D01*
X36000000Y-69412500D02*
X36000000Y-73020000D01*
%TO.N,/RST Pulse*%
X67500000Y-54310000D02*
X74000000Y-47810000D01*
X67500000Y-59835000D02*
X67500000Y-54310000D01*
X66200000Y-61135000D02*
X67500000Y-59835000D01*
X65775000Y-61135000D02*
X66200000Y-61135000D01*
%TO.N,/X Pulse*%
X23050000Y-59450000D02*
X23000000Y-59500000D01*
X24800000Y-59450000D02*
X23050000Y-59450000D01*
X44635000Y-65635000D02*
X45000000Y-66000000D01*
X44635000Y-64725000D02*
X44635000Y-65635000D01*
%TO.N,/Inhibit EN*%
X29400000Y-60400000D02*
X29500000Y-60500000D01*
X27500000Y-60400000D02*
X29400000Y-60400000D01*
%TD*%
%TA.AperFunction,Conductor*%
%TO.N,GND*%
G36*
X75943039Y-12019685D02*
G01*
X75988794Y-12072489D01*
X76000000Y-12124000D01*
X76000000Y-75876000D01*
X75980315Y-75943039D01*
X75927511Y-75988794D01*
X75876000Y-76000000D01*
X12124000Y-76000000D01*
X12056961Y-75980315D01*
X12011206Y-75927511D01*
X12000000Y-75876000D01*
X12000000Y-67288345D01*
X32525000Y-67288345D01*
X32525000Y-67387500D01*
X33250000Y-67387500D01*
X33750000Y-67387500D01*
X34474999Y-67387500D01*
X34474999Y-67288360D01*
X34474998Y-67288345D01*
X34464680Y-67187347D01*
X34410453Y-67023699D01*
X34410448Y-67023688D01*
X34319947Y-66876965D01*
X34319944Y-66876961D01*
X34198038Y-66755055D01*
X34198034Y-66755052D01*
X34051311Y-66664551D01*
X34051300Y-66664546D01*
X33887652Y-66610319D01*
X33786654Y-66600000D01*
X33750000Y-66600000D01*
X33750000Y-67387500D01*
X33250000Y-67387500D01*
X33250000Y-66600000D01*
X33213361Y-66600000D01*
X33213343Y-66600001D01*
X33112347Y-66610319D01*
X32948699Y-66664546D01*
X32948688Y-66664551D01*
X32801965Y-66755052D01*
X32801961Y-66755055D01*
X32680055Y-66876961D01*
X32680052Y-66876965D01*
X32589551Y-67023688D01*
X32589546Y-67023699D01*
X32535319Y-67187347D01*
X32525000Y-67288345D01*
X12000000Y-67288345D01*
X12000000Y-60650000D01*
X23523085Y-60650000D01*
X23526064Y-60682792D01*
X23526067Y-60682802D01*
X23573927Y-60836392D01*
X23657163Y-60974080D01*
X23770919Y-61087836D01*
X23908603Y-61171070D01*
X24062207Y-61218934D01*
X24128957Y-61225000D01*
X24550000Y-61225000D01*
X24550000Y-60650000D01*
X23523085Y-60650000D01*
X12000000Y-60650000D01*
X12000000Y-35563952D01*
X12019685Y-35496913D01*
X12072489Y-35451158D01*
X12141647Y-35441214D01*
X12205203Y-35470239D01*
X12211681Y-35476271D01*
X12659762Y-35924352D01*
X12693247Y-35985675D01*
X12691856Y-36044126D01*
X12664938Y-36144586D01*
X12664936Y-36144596D01*
X12644341Y-36379999D01*
X12644341Y-36380000D01*
X12664936Y-36615403D01*
X12664938Y-36615413D01*
X12726094Y-36843655D01*
X12726096Y-36843659D01*
X12726097Y-36843663D01*
X12804756Y-37012347D01*
X12825965Y-37057830D01*
X12825967Y-37057834D01*
X12961501Y-37251395D01*
X12961506Y-37251402D01*
X13128597Y-37418493D01*
X13128603Y-37418498D01*
X13314158Y-37548425D01*
X13357783Y-37603002D01*
X13364977Y-37672500D01*
X13333454Y-37734855D01*
X13314158Y-37751575D01*
X13128597Y-37881505D01*
X12961505Y-38048597D01*
X12825965Y-38242169D01*
X12825964Y-38242171D01*
X12726098Y-38456335D01*
X12726094Y-38456344D01*
X12664938Y-38684586D01*
X12664936Y-38684596D01*
X12644341Y-38919999D01*
X12644341Y-38920000D01*
X12664936Y-39155403D01*
X12664938Y-39155413D01*
X12726094Y-39383655D01*
X12726096Y-39383659D01*
X12726097Y-39383663D01*
X12816814Y-39578206D01*
X12825965Y-39597830D01*
X12825967Y-39597834D01*
X12961501Y-39791395D01*
X12961506Y-39791402D01*
X13128597Y-39958493D01*
X13128603Y-39958498D01*
X13314158Y-40088425D01*
X13357783Y-40143002D01*
X13364977Y-40212500D01*
X13333454Y-40274855D01*
X13314158Y-40291575D01*
X13128597Y-40421505D01*
X12961505Y-40588597D01*
X12825965Y-40782169D01*
X12825964Y-40782171D01*
X12726098Y-40996335D01*
X12726094Y-40996344D01*
X12664938Y-41224586D01*
X12664936Y-41224596D01*
X12644341Y-41459999D01*
X12644341Y-41460000D01*
X12664936Y-41695403D01*
X12664938Y-41695413D01*
X12726094Y-41923655D01*
X12726096Y-41923659D01*
X12726097Y-41923663D01*
X12791188Y-42063250D01*
X12825965Y-42137830D01*
X12825967Y-42137834D01*
X12921559Y-42274352D01*
X12957005Y-42324975D01*
X12961501Y-42331395D01*
X12961506Y-42331402D01*
X13128597Y-42498493D01*
X13128603Y-42498498D01*
X13314158Y-42628425D01*
X13357783Y-42683002D01*
X13364977Y-42752500D01*
X13333454Y-42814855D01*
X13314158Y-42831575D01*
X13128597Y-42961505D01*
X12961505Y-43128597D01*
X12825965Y-43322169D01*
X12825964Y-43322171D01*
X12726098Y-43536335D01*
X12726094Y-43536344D01*
X12664938Y-43764586D01*
X12664936Y-43764596D01*
X12644341Y-43999999D01*
X12644341Y-44000000D01*
X12664936Y-44235403D01*
X12664938Y-44235413D01*
X12726094Y-44463655D01*
X12726096Y-44463659D01*
X12726097Y-44463663D01*
X12808156Y-44639639D01*
X12825965Y-44677830D01*
X12825967Y-44677834D01*
X12921559Y-44814352D01*
X12957005Y-44864975D01*
X12961501Y-44871395D01*
X12961506Y-44871402D01*
X13128597Y-45038493D01*
X13128603Y-45038498D01*
X13314158Y-45168425D01*
X13357783Y-45223002D01*
X13364977Y-45292500D01*
X13333454Y-45354855D01*
X13314158Y-45371575D01*
X13128597Y-45501505D01*
X12961505Y-45668597D01*
X12825965Y-45862169D01*
X12825964Y-45862171D01*
X12726098Y-46076335D01*
X12726094Y-46076344D01*
X12664938Y-46304586D01*
X12664936Y-46304596D01*
X12644341Y-46539999D01*
X12644341Y-46540000D01*
X12664936Y-46775403D01*
X12664938Y-46775413D01*
X12726094Y-47003655D01*
X12726096Y-47003659D01*
X12726097Y-47003663D01*
X12794779Y-47150951D01*
X12825965Y-47217830D01*
X12825967Y-47217834D01*
X12934281Y-47372521D01*
X12944946Y-47387753D01*
X12961501Y-47411395D01*
X12961506Y-47411402D01*
X13128597Y-47578493D01*
X13128603Y-47578498D01*
X13314158Y-47708425D01*
X13357783Y-47763002D01*
X13364977Y-47832500D01*
X13333454Y-47894855D01*
X13314158Y-47911575D01*
X13128597Y-48041505D01*
X12961505Y-48208597D01*
X12825965Y-48402169D01*
X12825964Y-48402171D01*
X12726098Y-48616335D01*
X12726094Y-48616344D01*
X12664938Y-48844586D01*
X12664936Y-48844596D01*
X12644341Y-49079999D01*
X12644341Y-49080000D01*
X12664936Y-49315403D01*
X12664938Y-49315413D01*
X12726094Y-49543655D01*
X12726096Y-49543659D01*
X12726097Y-49543663D01*
X12805221Y-49713345D01*
X12825965Y-49757830D01*
X12825967Y-49757834D01*
X12924358Y-49898350D01*
X12957005Y-49944975D01*
X12961501Y-49951395D01*
X12961506Y-49951402D01*
X13128597Y-50118493D01*
X13128603Y-50118498D01*
X13314158Y-50248425D01*
X13357783Y-50303002D01*
X13364977Y-50372500D01*
X13333454Y-50434855D01*
X13314158Y-50451575D01*
X13128597Y-50581505D01*
X12961505Y-50748597D01*
X12825965Y-50942169D01*
X12825964Y-50942171D01*
X12726098Y-51156335D01*
X12726094Y-51156344D01*
X12664938Y-51384586D01*
X12664936Y-51384596D01*
X12644341Y-51619999D01*
X12644341Y-51620000D01*
X12664936Y-51855403D01*
X12664938Y-51855413D01*
X12726094Y-52083655D01*
X12726096Y-52083659D01*
X12726097Y-52083663D01*
X12825965Y-52297830D01*
X12825967Y-52297834D01*
X12917193Y-52428117D01*
X12957005Y-52484975D01*
X12961501Y-52491395D01*
X12961506Y-52491402D01*
X13128597Y-52658493D01*
X13128603Y-52658498D01*
X13314158Y-52788425D01*
X13357783Y-52843002D01*
X13364977Y-52912500D01*
X13333454Y-52974855D01*
X13314158Y-52991575D01*
X13128597Y-53121505D01*
X12961505Y-53288597D01*
X12825965Y-53482169D01*
X12825964Y-53482171D01*
X12726098Y-53696335D01*
X12726094Y-53696344D01*
X12664938Y-53924586D01*
X12664936Y-53924596D01*
X12644341Y-54159999D01*
X12644341Y-54160000D01*
X12664936Y-54395403D01*
X12664938Y-54395413D01*
X12726094Y-54623655D01*
X12726096Y-54623659D01*
X12726097Y-54623663D01*
X12806079Y-54795185D01*
X12825965Y-54837830D01*
X12825967Y-54837834D01*
X12961501Y-55031395D01*
X12961506Y-55031402D01*
X13128597Y-55198493D01*
X13128603Y-55198498D01*
X13314158Y-55328425D01*
X13357783Y-55383002D01*
X13364977Y-55452500D01*
X13333454Y-55514855D01*
X13314158Y-55531575D01*
X13128597Y-55661505D01*
X12961505Y-55828597D01*
X12825965Y-56022169D01*
X12825964Y-56022171D01*
X12726098Y-56236335D01*
X12726094Y-56236344D01*
X12664938Y-56464586D01*
X12664936Y-56464596D01*
X12644341Y-56699999D01*
X12644341Y-56700000D01*
X12664936Y-56935403D01*
X12664938Y-56935413D01*
X12726094Y-57163655D01*
X12726096Y-57163659D01*
X12726097Y-57163663D01*
X12741238Y-57196132D01*
X12825965Y-57377830D01*
X12825967Y-57377834D01*
X12901496Y-57485699D01*
X12952301Y-57558257D01*
X12961501Y-57571395D01*
X12961506Y-57571402D01*
X13128597Y-57738493D01*
X13128603Y-57738498D01*
X13314158Y-57868425D01*
X13357783Y-57923002D01*
X13364977Y-57992500D01*
X13333454Y-58054855D01*
X13314158Y-58071575D01*
X13128597Y-58201505D01*
X12961505Y-58368597D01*
X12825965Y-58562169D01*
X12825964Y-58562171D01*
X12726098Y-58776335D01*
X12726094Y-58776344D01*
X12664938Y-59004586D01*
X12664936Y-59004596D01*
X12644341Y-59239999D01*
X12644341Y-59240000D01*
X12664936Y-59475403D01*
X12664938Y-59475413D01*
X12726094Y-59703655D01*
X12726096Y-59703659D01*
X12726097Y-59703663D01*
X12814325Y-59892868D01*
X12825965Y-59917830D01*
X12825967Y-59917834D01*
X12906059Y-60032216D01*
X12961505Y-60111401D01*
X13128599Y-60278495D01*
X13191422Y-60322484D01*
X13322165Y-60414032D01*
X13322167Y-60414033D01*
X13322170Y-60414035D01*
X13536337Y-60513903D01*
X13764592Y-60575063D01*
X13952918Y-60591539D01*
X13999999Y-60595659D01*
X14000000Y-60595659D01*
X14000001Y-60595659D01*
X14039234Y-60592226D01*
X14235408Y-60575063D01*
X14463663Y-60513903D01*
X14677830Y-60414035D01*
X14871401Y-60278495D01*
X15038495Y-60111401D01*
X15174035Y-59917830D01*
X15273903Y-59703663D01*
X15335063Y-59475408D01*
X15349382Y-59311744D01*
X15355774Y-59238692D01*
X15381227Y-59173623D01*
X15437818Y-59132645D01*
X15479302Y-59125500D01*
X22004169Y-59125500D01*
X22071208Y-59145185D01*
X22116963Y-59197989D01*
X22126907Y-59267147D01*
X22122099Y-59287818D01*
X22114326Y-59311744D01*
X22094540Y-59500000D01*
X22114326Y-59688256D01*
X22114327Y-59688259D01*
X22172818Y-59868277D01*
X22172821Y-59868284D01*
X22267467Y-60032216D01*
X22380158Y-60157372D01*
X22394129Y-60172888D01*
X22547265Y-60284148D01*
X22547270Y-60284151D01*
X22720192Y-60361142D01*
X22720197Y-60361144D01*
X22905354Y-60400500D01*
X22905355Y-60400500D01*
X23094644Y-60400500D01*
X23094646Y-60400500D01*
X23279803Y-60361144D01*
X23452730Y-60284151D01*
X23522126Y-60233732D01*
X23604779Y-60173682D01*
X23670585Y-60150202D01*
X23677664Y-60150000D01*
X23755504Y-60150000D01*
X23819653Y-60167882D01*
X23908398Y-60221531D01*
X24062113Y-60269430D01*
X24128909Y-60275500D01*
X24926001Y-60275499D01*
X24993039Y-60295183D01*
X25038794Y-60347987D01*
X25050000Y-60399499D01*
X25050000Y-61225000D01*
X25471043Y-61225000D01*
X25537792Y-61218934D01*
X25691396Y-61171070D01*
X25829080Y-61087836D01*
X25942836Y-60974080D01*
X26026070Y-60836396D01*
X26031350Y-60819451D01*
X26070086Y-60761302D01*
X26134110Y-60733326D01*
X26203096Y-60744405D01*
X26255140Y-60791021D01*
X26268121Y-60819443D01*
X26273467Y-60836598D01*
X26273468Y-60836600D01*
X26273469Y-60836602D01*
X26292622Y-60868284D01*
X26356766Y-60974391D01*
X26470608Y-61088233D01*
X26470610Y-61088234D01*
X26470612Y-61088236D01*
X26608398Y-61171531D01*
X26762113Y-61219430D01*
X26828909Y-61225500D01*
X28171090Y-61225499D01*
X28171097Y-61225499D01*
X28237882Y-61219431D01*
X28237885Y-61219430D01*
X28237887Y-61219430D01*
X28391602Y-61171531D01*
X28529388Y-61088236D01*
X28529788Y-61087836D01*
X28555806Y-61061819D01*
X28617129Y-61028334D01*
X28643487Y-61025500D01*
X28706212Y-61025500D01*
X28773251Y-61045185D01*
X28798360Y-61066527D01*
X28858007Y-61132771D01*
X28894129Y-61172888D01*
X29047265Y-61284148D01*
X29047270Y-61284151D01*
X29220192Y-61361142D01*
X29220197Y-61361144D01*
X29405354Y-61400500D01*
X29405355Y-61400500D01*
X29594644Y-61400500D01*
X29594646Y-61400500D01*
X29779803Y-61361144D01*
X29952730Y-61284151D01*
X30105871Y-61172888D01*
X30232533Y-61032216D01*
X30327179Y-60868284D01*
X30385674Y-60688256D01*
X30405460Y-60500000D01*
X30385674Y-60311744D01*
X30331112Y-60143823D01*
X30327181Y-60131722D01*
X30327180Y-60131721D01*
X30327179Y-60131716D01*
X30232533Y-59967784D01*
X30105871Y-59827112D01*
X30105870Y-59827111D01*
X29952734Y-59715851D01*
X29952729Y-59715848D01*
X29779807Y-59638857D01*
X29779802Y-59638855D01*
X29634001Y-59607865D01*
X29594646Y-59599500D01*
X29405354Y-59599500D01*
X29372897Y-59606398D01*
X29220197Y-59638855D01*
X29220192Y-59638857D01*
X29047270Y-59715848D01*
X29047265Y-59715851D01*
X28999138Y-59750818D01*
X28933331Y-59774298D01*
X28926253Y-59774500D01*
X28643487Y-59774500D01*
X28576448Y-59754815D01*
X28555806Y-59738181D01*
X28529391Y-59711766D01*
X28391602Y-59628469D01*
X28298636Y-59599500D01*
X28237887Y-59580570D01*
X28237885Y-59580569D01*
X28237883Y-59580569D01*
X28191117Y-59576319D01*
X28171091Y-59574500D01*
X28171088Y-59574500D01*
X26828901Y-59574500D01*
X26762117Y-59580568D01*
X26762106Y-59580571D01*
X26608401Y-59628467D01*
X26470608Y-59711766D01*
X26356766Y-59825608D01*
X26273467Y-59963401D01*
X26268121Y-59980557D01*
X26229382Y-60038704D01*
X26165356Y-60066675D01*
X26096371Y-60055592D01*
X26044329Y-60008971D01*
X26031351Y-59980550D01*
X26025798Y-59962728D01*
X26024648Y-59892868D01*
X26025799Y-59888951D01*
X26032241Y-59868277D01*
X26074430Y-59732887D01*
X26080500Y-59666091D01*
X26080499Y-59233910D01*
X26080499Y-59233901D01*
X26074431Y-59167117D01*
X26074429Y-59167109D01*
X26026061Y-59011890D01*
X26024909Y-58942029D01*
X26026060Y-58938110D01*
X26026528Y-58936605D01*
X26026531Y-58936602D01*
X26031616Y-58920284D01*
X26070350Y-58862141D01*
X26134375Y-58834166D01*
X26203360Y-58845247D01*
X26255404Y-58891865D01*
X26268383Y-58920284D01*
X26273467Y-58936598D01*
X26273468Y-58936600D01*
X26273469Y-58936602D01*
X26356764Y-59074388D01*
X26356766Y-59074391D01*
X26470608Y-59188233D01*
X26470610Y-59188234D01*
X26470612Y-59188236D01*
X26608398Y-59271531D01*
X26762113Y-59319430D01*
X26828909Y-59325500D01*
X28171090Y-59325499D01*
X28171097Y-59325499D01*
X28237882Y-59319431D01*
X28237885Y-59319430D01*
X28237887Y-59319430D01*
X28391602Y-59271531D01*
X28529388Y-59188236D01*
X28643236Y-59074388D01*
X28726531Y-58936602D01*
X28774430Y-58782887D01*
X28780500Y-58716091D01*
X28780499Y-58283910D01*
X28780499Y-58283909D01*
X28780499Y-58283901D01*
X28774431Y-58217117D01*
X28774428Y-58217106D01*
X28726532Y-58063401D01*
X28726531Y-58063400D01*
X28726531Y-58063398D01*
X28643236Y-57925612D01*
X28643234Y-57925610D01*
X28643233Y-57925608D01*
X28529391Y-57811766D01*
X28529388Y-57811764D01*
X28391602Y-57728469D01*
X28391600Y-57728468D01*
X28385183Y-57724589D01*
X28386302Y-57722737D01*
X28341472Y-57684321D01*
X28321420Y-57617391D01*
X28336060Y-57558257D01*
X28374843Y-57485698D01*
X28423806Y-57435855D01*
X28491943Y-57420395D01*
X28557623Y-57444227D01*
X28571882Y-57456472D01*
X35338181Y-64222771D01*
X35371666Y-64284094D01*
X35374500Y-64310452D01*
X35374500Y-66640518D01*
X35354815Y-66707557D01*
X35315600Y-66746055D01*
X35301650Y-66754660D01*
X35301649Y-66754660D01*
X35179661Y-66876648D01*
X35089093Y-67023481D01*
X35089091Y-67023486D01*
X35077478Y-67058532D01*
X35034826Y-67187247D01*
X35034826Y-67187248D01*
X35034825Y-67187248D01*
X35024500Y-67288315D01*
X35024500Y-67288323D01*
X35024500Y-67547951D01*
X35024501Y-67750500D01*
X35004817Y-67817539D01*
X34952013Y-67863294D01*
X34900501Y-67874500D01*
X34424107Y-67874500D01*
X34300893Y-67874500D01*
X34247510Y-67885118D01*
X34223320Y-67887500D01*
X32525001Y-67887500D01*
X32525001Y-67986654D01*
X32535319Y-68087652D01*
X32589546Y-68251300D01*
X32589551Y-68251311D01*
X32680052Y-68398034D01*
X32680055Y-68398038D01*
X32693982Y-68411965D01*
X32727467Y-68473288D01*
X32722483Y-68542980D01*
X32693984Y-68587325D01*
X32679661Y-68601648D01*
X32589093Y-68748481D01*
X32589091Y-68748486D01*
X32586680Y-68755763D01*
X32534826Y-68912247D01*
X32534826Y-68912248D01*
X32534825Y-68912248D01*
X32524500Y-69013315D01*
X32524500Y-69711669D01*
X32524501Y-69711687D01*
X32534825Y-69812752D01*
X32558933Y-69885502D01*
X32589021Y-69976303D01*
X32589092Y-69976515D01*
X32589093Y-69976518D01*
X32623395Y-70032129D01*
X32679660Y-70123350D01*
X32801650Y-70245340D01*
X32813920Y-70252908D01*
X32815596Y-70253942D01*
X32862321Y-70305890D01*
X32874500Y-70359481D01*
X32874500Y-71892468D01*
X32854815Y-71959507D01*
X32821623Y-71994043D01*
X32682478Y-72091472D01*
X32531472Y-72242478D01*
X32408977Y-72417421D01*
X32318725Y-72610968D01*
X32316870Y-72616064D01*
X32314749Y-72615292D01*
X32283406Y-72666710D01*
X32220558Y-72697237D01*
X32151183Y-72688939D01*
X32097307Y-72644452D01*
X32084169Y-72615685D01*
X32083130Y-72616064D01*
X32081279Y-72610983D01*
X32081276Y-72610970D01*
X31991021Y-72417419D01*
X31868529Y-72242481D01*
X31868527Y-72242478D01*
X31717521Y-72091472D01*
X31542578Y-71968977D01*
X31542579Y-71968977D01*
X31384924Y-71895462D01*
X31349030Y-71878724D01*
X31349026Y-71878723D01*
X31349022Y-71878721D01*
X31142752Y-71823452D01*
X31142748Y-71823451D01*
X31142747Y-71823451D01*
X31142746Y-71823450D01*
X31142741Y-71823450D01*
X30930002Y-71804838D01*
X30929998Y-71804838D01*
X30717258Y-71823450D01*
X30717247Y-71823452D01*
X30510977Y-71878721D01*
X30510968Y-71878725D01*
X30317421Y-71968977D01*
X30142478Y-72091472D01*
X29991472Y-72242478D01*
X29868977Y-72417421D01*
X29778725Y-72610968D01*
X29778721Y-72610977D01*
X29723452Y-72817247D01*
X29723450Y-72817258D01*
X29704838Y-73029998D01*
X29704838Y-73030001D01*
X29723450Y-73242741D01*
X29723452Y-73242752D01*
X29778721Y-73449022D01*
X29778723Y-73449026D01*
X29778724Y-73449030D01*
X29821171Y-73540058D01*
X29868977Y-73642578D01*
X29991472Y-73817521D01*
X30142478Y-73968527D01*
X30142481Y-73968529D01*
X30317419Y-74091021D01*
X30317421Y-74091022D01*
X30317420Y-74091022D01*
X30381936Y-74121106D01*
X30510970Y-74181276D01*
X30717253Y-74236549D01*
X30869215Y-74249844D01*
X30929998Y-74255162D01*
X30930000Y-74255162D01*
X30930002Y-74255162D01*
X30983186Y-74250508D01*
X31142747Y-74236549D01*
X31349030Y-74181276D01*
X31542581Y-74091021D01*
X31717519Y-73968529D01*
X31868529Y-73817519D01*
X31991021Y-73642581D01*
X32081276Y-73449030D01*
X32081280Y-73449013D01*
X32083130Y-73443936D01*
X32085253Y-73444709D01*
X32116576Y-73393305D01*
X32179419Y-73362766D01*
X32248796Y-73371050D01*
X32302680Y-73415528D01*
X32315827Y-73444315D01*
X32316870Y-73443936D01*
X32318722Y-73449022D01*
X32318724Y-73449030D01*
X32361171Y-73540058D01*
X32408977Y-73642578D01*
X32531472Y-73817521D01*
X32682478Y-73968527D01*
X32682481Y-73968529D01*
X32857419Y-74091021D01*
X32857421Y-74091022D01*
X32857420Y-74091022D01*
X32921936Y-74121106D01*
X33050970Y-74181276D01*
X33257253Y-74236549D01*
X33409215Y-74249844D01*
X33469998Y-74255162D01*
X33470000Y-74255162D01*
X33470002Y-74255162D01*
X33523186Y-74250508D01*
X33682747Y-74236549D01*
X33889030Y-74181276D01*
X34082581Y-74091021D01*
X34257519Y-73968529D01*
X34408529Y-73817519D01*
X34531021Y-73642581D01*
X34621276Y-73449030D01*
X34621280Y-73449013D01*
X34623130Y-73443936D01*
X34625253Y-73444709D01*
X34656576Y-73393305D01*
X34719419Y-73362766D01*
X34788796Y-73371050D01*
X34842680Y-73415528D01*
X34855827Y-73444315D01*
X34856870Y-73443936D01*
X34858722Y-73449022D01*
X34858724Y-73449030D01*
X34901171Y-73540058D01*
X34948977Y-73642578D01*
X35071472Y-73817521D01*
X35222478Y-73968527D01*
X35222481Y-73968529D01*
X35397419Y-74091021D01*
X35397421Y-74091022D01*
X35397420Y-74091022D01*
X35461936Y-74121106D01*
X35590970Y-74181276D01*
X35797253Y-74236549D01*
X35949215Y-74249844D01*
X36009998Y-74255162D01*
X36010000Y-74255162D01*
X36010002Y-74255162D01*
X36063186Y-74250508D01*
X36222747Y-74236549D01*
X36429030Y-74181276D01*
X36622581Y-74091021D01*
X36797519Y-73968529D01*
X36948529Y-73817519D01*
X37071021Y-73642581D01*
X37161276Y-73449030D01*
X37216549Y-73242747D01*
X37235162Y-73030000D01*
X37232537Y-73000001D01*
X37216549Y-72817258D01*
X37216549Y-72817253D01*
X37161276Y-72610970D01*
X37071021Y-72417419D01*
X36948529Y-72242481D01*
X36797519Y-72091471D01*
X36678376Y-72008046D01*
X36634751Y-71953469D01*
X36625500Y-71906471D01*
X36625500Y-70359481D01*
X36645185Y-70292442D01*
X36684404Y-70253942D01*
X36685295Y-70253392D01*
X36698350Y-70245340D01*
X36820340Y-70123350D01*
X36910908Y-69976516D01*
X36965174Y-69812753D01*
X36975500Y-69711677D01*
X36975499Y-69249499D01*
X36995183Y-69182461D01*
X37047987Y-69136706D01*
X37099499Y-69125500D01*
X37536608Y-69125500D01*
X37536608Y-69125499D01*
X37597826Y-69113323D01*
X37597829Y-69113323D01*
X37633993Y-69106129D01*
X37657452Y-69101463D01*
X37690792Y-69087652D01*
X37771286Y-69054312D01*
X37832627Y-69013324D01*
X37873733Y-68985858D01*
X37960858Y-68898733D01*
X37960858Y-68898731D01*
X37971066Y-68888524D01*
X37971067Y-68888521D01*
X40822772Y-66036818D01*
X40884095Y-66003333D01*
X40910453Y-66000499D01*
X41220500Y-66000499D01*
X41287539Y-66020184D01*
X41333294Y-66072988D01*
X41344500Y-66124499D01*
X41344500Y-71168918D01*
X41344500Y-71168920D01*
X41344499Y-71168920D01*
X41373340Y-71313907D01*
X41373343Y-71313917D01*
X41429914Y-71450492D01*
X41462812Y-71499727D01*
X41462813Y-71499730D01*
X41512048Y-71573416D01*
X41513677Y-71575402D01*
X41514203Y-71576642D01*
X41515432Y-71578481D01*
X41515083Y-71578714D01*
X41540982Y-71639716D01*
X41529182Y-71708582D01*
X41482023Y-71760136D01*
X41428622Y-71777583D01*
X41247257Y-71793450D01*
X41247247Y-71793452D01*
X41040977Y-71848721D01*
X41040968Y-71848725D01*
X40847421Y-71938977D01*
X40672478Y-72061472D01*
X40521472Y-72212478D01*
X40398977Y-72387421D01*
X40308725Y-72580968D01*
X40308721Y-72580977D01*
X40253452Y-72787247D01*
X40253450Y-72787258D01*
X40234838Y-72999998D01*
X40234838Y-73000001D01*
X40253450Y-73212741D01*
X40253452Y-73212752D01*
X40308721Y-73419022D01*
X40308723Y-73419026D01*
X40308724Y-73419030D01*
X40322714Y-73449031D01*
X40398977Y-73612578D01*
X40521472Y-73787521D01*
X40672478Y-73938527D01*
X40672481Y-73938529D01*
X40847419Y-74061021D01*
X40847421Y-74061022D01*
X40847420Y-74061022D01*
X40911754Y-74091021D01*
X41040970Y-74151276D01*
X41247253Y-74206549D01*
X41399215Y-74219844D01*
X41459998Y-74225162D01*
X41460000Y-74225162D01*
X41460002Y-74225162D01*
X41513186Y-74220508D01*
X41672747Y-74206549D01*
X41879030Y-74151276D01*
X42072581Y-74061021D01*
X42247519Y-73938529D01*
X42398529Y-73787519D01*
X42521021Y-73612581D01*
X42611276Y-73419030D01*
X42611280Y-73419013D01*
X42613130Y-73413936D01*
X42615253Y-73414709D01*
X42646576Y-73363305D01*
X42709419Y-73332766D01*
X42778796Y-73341050D01*
X42832680Y-73385528D01*
X42845827Y-73414315D01*
X42846870Y-73413936D01*
X42848722Y-73419022D01*
X42848724Y-73419030D01*
X42862714Y-73449031D01*
X42938977Y-73612578D01*
X43061472Y-73787521D01*
X43212478Y-73938527D01*
X43212481Y-73938529D01*
X43387419Y-74061021D01*
X43387421Y-74061022D01*
X43387420Y-74061022D01*
X43451754Y-74091021D01*
X43580970Y-74151276D01*
X43787253Y-74206549D01*
X43939215Y-74219844D01*
X43999998Y-74225162D01*
X44000000Y-74225162D01*
X44000002Y-74225162D01*
X44053186Y-74220508D01*
X44212747Y-74206549D01*
X44419030Y-74151276D01*
X44612581Y-74061021D01*
X44787519Y-73938529D01*
X44938529Y-73787519D01*
X45061021Y-73612581D01*
X45151276Y-73419030D01*
X45151280Y-73419013D01*
X45153130Y-73413936D01*
X45155253Y-73414709D01*
X45186576Y-73363305D01*
X45249419Y-73332766D01*
X45318796Y-73341050D01*
X45372680Y-73385528D01*
X45385827Y-73414315D01*
X45386870Y-73413936D01*
X45388722Y-73419022D01*
X45388724Y-73419030D01*
X45402714Y-73449031D01*
X45478977Y-73612578D01*
X45601472Y-73787521D01*
X45752478Y-73938527D01*
X45752481Y-73938529D01*
X45927419Y-74061021D01*
X45927421Y-74061022D01*
X45927420Y-74061022D01*
X45991754Y-74091021D01*
X46120970Y-74151276D01*
X46327253Y-74206549D01*
X46479215Y-74219844D01*
X46539998Y-74225162D01*
X46540000Y-74225162D01*
X46540002Y-74225162D01*
X46593186Y-74220508D01*
X46752747Y-74206549D01*
X46959030Y-74151276D01*
X47152581Y-74061021D01*
X47327519Y-73938529D01*
X47478529Y-73787519D01*
X47601021Y-73612581D01*
X47691276Y-73419030D01*
X47746549Y-73212747D01*
X47765162Y-73000000D01*
X47746549Y-72787253D01*
X47700578Y-72615685D01*
X47691278Y-72580977D01*
X47691277Y-72580976D01*
X47691276Y-72580970D01*
X47601021Y-72387419D01*
X47478529Y-72212481D01*
X47478527Y-72212478D01*
X47327521Y-72061472D01*
X47178377Y-71957041D01*
X47134752Y-71902464D01*
X47125500Y-71855466D01*
X47125500Y-70359481D01*
X47145185Y-70292442D01*
X47184404Y-70253942D01*
X47185295Y-70253392D01*
X47198350Y-70245340D01*
X47320340Y-70123350D01*
X47410908Y-69976516D01*
X47465174Y-69812753D01*
X47475500Y-69711677D01*
X47475499Y-69113324D01*
X47474287Y-69101463D01*
X47465174Y-69012247D01*
X47410908Y-68848484D01*
X47320340Y-68701650D01*
X47206371Y-68587681D01*
X47172886Y-68526358D01*
X47177870Y-68456666D01*
X47206371Y-68412319D01*
X47229598Y-68389092D01*
X47320340Y-68298350D01*
X47410908Y-68151516D01*
X47465174Y-67987753D01*
X47475500Y-67886677D01*
X47475499Y-67547950D01*
X47495183Y-67480912D01*
X47511813Y-67460275D01*
X47566664Y-67405425D01*
X47566671Y-67405419D01*
X47573731Y-67398358D01*
X47573733Y-67398358D01*
X47629689Y-67342402D01*
X47691012Y-67308917D01*
X47760704Y-67313901D01*
X47816637Y-67355773D01*
X47820473Y-67361194D01*
X47862043Y-67423410D01*
X47862047Y-67423415D01*
X47862048Y-67423416D01*
X50051132Y-69612500D01*
X52005046Y-71566413D01*
X52038531Y-71627736D01*
X52033547Y-71697428D01*
X51991675Y-71753361D01*
X51928173Y-71777622D01*
X51747257Y-71793450D01*
X51747247Y-71793452D01*
X51540977Y-71848721D01*
X51540968Y-71848725D01*
X51347421Y-71938977D01*
X51172478Y-72061472D01*
X51021472Y-72212478D01*
X50898977Y-72387421D01*
X50808725Y-72580968D01*
X50808721Y-72580977D01*
X50753452Y-72787247D01*
X50753450Y-72787258D01*
X50734838Y-72999998D01*
X50734838Y-73000001D01*
X50753450Y-73212741D01*
X50753452Y-73212752D01*
X50808721Y-73419022D01*
X50808723Y-73419026D01*
X50808724Y-73419030D01*
X50822714Y-73449031D01*
X50898977Y-73612578D01*
X51021472Y-73787521D01*
X51172478Y-73938527D01*
X51172481Y-73938529D01*
X51347419Y-74061021D01*
X51347421Y-74061022D01*
X51347420Y-74061022D01*
X51411754Y-74091021D01*
X51540970Y-74151276D01*
X51747253Y-74206549D01*
X51899215Y-74219844D01*
X51959998Y-74225162D01*
X51960000Y-74225162D01*
X51960002Y-74225162D01*
X52013186Y-74220508D01*
X52172747Y-74206549D01*
X52379030Y-74151276D01*
X52572581Y-74061021D01*
X52747519Y-73938529D01*
X52898529Y-73787519D01*
X53021021Y-73612581D01*
X53111276Y-73419030D01*
X53111280Y-73419013D01*
X53113130Y-73413936D01*
X53115253Y-73414709D01*
X53146576Y-73363305D01*
X53209419Y-73332766D01*
X53278796Y-73341050D01*
X53332680Y-73385528D01*
X53345827Y-73414315D01*
X53346870Y-73413936D01*
X53348722Y-73419022D01*
X53348724Y-73419030D01*
X53362714Y-73449031D01*
X53438977Y-73612578D01*
X53561472Y-73787521D01*
X53712478Y-73938527D01*
X53712481Y-73938529D01*
X53887419Y-74061021D01*
X53887421Y-74061022D01*
X53887420Y-74061022D01*
X53951754Y-74091021D01*
X54080970Y-74151276D01*
X54287253Y-74206549D01*
X54439215Y-74219844D01*
X54499998Y-74225162D01*
X54500000Y-74225162D01*
X54500002Y-74225162D01*
X54553186Y-74220508D01*
X54712747Y-74206549D01*
X54919030Y-74151276D01*
X55112581Y-74061021D01*
X55287519Y-73938529D01*
X55438529Y-73787519D01*
X55561021Y-73612581D01*
X55651276Y-73419030D01*
X55651280Y-73419013D01*
X55653130Y-73413936D01*
X55655253Y-73414709D01*
X55686576Y-73363305D01*
X55749419Y-73332766D01*
X55818796Y-73341050D01*
X55872680Y-73385528D01*
X55885827Y-73414315D01*
X55886870Y-73413936D01*
X55888722Y-73419022D01*
X55888724Y-73419030D01*
X55902714Y-73449031D01*
X55978977Y-73612578D01*
X56101472Y-73787521D01*
X56252478Y-73938527D01*
X56252481Y-73938529D01*
X56427419Y-74061021D01*
X56427421Y-74061022D01*
X56427420Y-74061022D01*
X56491754Y-74091021D01*
X56620970Y-74151276D01*
X56827253Y-74206549D01*
X56979215Y-74219844D01*
X57039998Y-74225162D01*
X57040000Y-74225162D01*
X57040002Y-74225162D01*
X57093186Y-74220508D01*
X57252747Y-74206549D01*
X57459030Y-74151276D01*
X57652581Y-74061021D01*
X57827519Y-73938529D01*
X57978529Y-73787519D01*
X58101021Y-73612581D01*
X58191276Y-73419030D01*
X58246549Y-73212747D01*
X58265162Y-73000000D01*
X58246549Y-72787253D01*
X58200578Y-72615685D01*
X58191278Y-72580977D01*
X58191277Y-72580976D01*
X58191276Y-72580970D01*
X58101021Y-72387419D01*
X57978529Y-72212481D01*
X57978527Y-72212478D01*
X57827521Y-72061472D01*
X57668377Y-71950039D01*
X57624752Y-71895462D01*
X57615500Y-71848464D01*
X57615500Y-70359481D01*
X57635185Y-70292442D01*
X57674404Y-70253942D01*
X57675295Y-70253392D01*
X57688350Y-70245340D01*
X57810340Y-70123350D01*
X57900908Y-69976516D01*
X57955174Y-69812753D01*
X57965500Y-69711677D01*
X57965499Y-69113324D01*
X57964287Y-69101463D01*
X57955174Y-69012247D01*
X57900908Y-68848484D01*
X57816511Y-68711654D01*
X64525001Y-68711654D01*
X64535319Y-68812652D01*
X64589546Y-68976300D01*
X64589551Y-68976311D01*
X64680052Y-69123034D01*
X64680055Y-69123038D01*
X64801961Y-69244944D01*
X64801965Y-69244947D01*
X64948688Y-69335448D01*
X64948699Y-69335453D01*
X65112347Y-69389680D01*
X65213352Y-69399999D01*
X65250000Y-69399999D01*
X65750000Y-69399999D01*
X65786640Y-69399999D01*
X65786654Y-69399998D01*
X65887652Y-69389680D01*
X66051300Y-69335453D01*
X66051311Y-69335448D01*
X66198034Y-69244947D01*
X66198038Y-69244944D01*
X66319944Y-69123038D01*
X66319947Y-69123034D01*
X66410448Y-68976311D01*
X66410453Y-68976300D01*
X66464680Y-68812652D01*
X66474999Y-68711654D01*
X66475000Y-68711641D01*
X66475000Y-68612500D01*
X65750000Y-68612500D01*
X65750000Y-69399999D01*
X65250000Y-69399999D01*
X65250000Y-68612500D01*
X64525001Y-68612500D01*
X64525001Y-68711654D01*
X57816511Y-68711654D01*
X57810340Y-68701650D01*
X57696371Y-68587681D01*
X57662886Y-68526358D01*
X57667870Y-68456666D01*
X57696371Y-68412319D01*
X57719598Y-68389092D01*
X57810340Y-68298350D01*
X57900908Y-68151516D01*
X57955174Y-67987753D01*
X57965500Y-67886677D01*
X57965499Y-67288324D01*
X57955174Y-67187247D01*
X57900908Y-67023484D01*
X57810340Y-66876650D01*
X57688350Y-66754660D01*
X57551826Y-66670451D01*
X57541518Y-66664093D01*
X57541513Y-66664091D01*
X57540069Y-66663612D01*
X57377753Y-66609826D01*
X57377751Y-66609825D01*
X57276678Y-66599500D01*
X56703330Y-66599500D01*
X56703312Y-66599501D01*
X56602247Y-66609825D01*
X56438484Y-66664092D01*
X56438481Y-66664093D01*
X56291648Y-66754661D01*
X56169660Y-66876649D01*
X56169657Y-66876653D01*
X56122506Y-66953097D01*
X56070558Y-66999822D01*
X56016968Y-67012000D01*
X55463032Y-67012000D01*
X55395993Y-66992315D01*
X55357494Y-66953097D01*
X55310342Y-66876653D01*
X55310339Y-66876649D01*
X55188350Y-66754660D01*
X55174400Y-66746055D01*
X55127677Y-66694105D01*
X55115500Y-66640518D01*
X55115500Y-62928395D01*
X55113242Y-62917044D01*
X55097140Y-62836088D01*
X55097140Y-62836087D01*
X55091464Y-62807553D01*
X55091463Y-62807552D01*
X55091463Y-62807548D01*
X55044311Y-62693714D01*
X55044310Y-62693713D01*
X55044307Y-62693707D01*
X54975858Y-62591267D01*
X54975855Y-62591263D01*
X54885637Y-62501045D01*
X54885606Y-62501016D01*
X54172935Y-61788345D01*
X63025000Y-61788345D01*
X63025000Y-61887500D01*
X63750000Y-61887500D01*
X63750000Y-61100000D01*
X63713361Y-61100000D01*
X63713343Y-61100001D01*
X63612347Y-61110319D01*
X63448699Y-61164546D01*
X63448688Y-61164551D01*
X63301965Y-61255052D01*
X63301961Y-61255055D01*
X63180055Y-61376961D01*
X63180052Y-61376965D01*
X63089551Y-61523688D01*
X63089546Y-61523699D01*
X63035319Y-61687347D01*
X63025000Y-61788345D01*
X54172935Y-61788345D01*
X48990198Y-56605608D01*
X48990178Y-56605586D01*
X48898733Y-56514141D01*
X48866718Y-56492750D01*
X48821913Y-56439138D01*
X48813206Y-56369813D01*
X48843360Y-56306786D01*
X48847919Y-56301976D01*
X48848495Y-56301401D01*
X48978426Y-56115840D01*
X49033001Y-56072217D01*
X49102499Y-56065023D01*
X49164854Y-56096546D01*
X49181574Y-56115841D01*
X49215357Y-56164088D01*
X49311505Y-56301401D01*
X49478599Y-56468495D01*
X49568157Y-56531204D01*
X49672165Y-56604032D01*
X49672167Y-56604033D01*
X49672170Y-56604035D01*
X49886337Y-56703903D01*
X49886343Y-56703904D01*
X49886344Y-56703905D01*
X49932828Y-56716360D01*
X50114592Y-56765063D01*
X50291034Y-56780500D01*
X50349999Y-56785659D01*
X50350000Y-56785659D01*
X50350001Y-56785659D01*
X50408966Y-56780500D01*
X50585408Y-56765063D01*
X50813663Y-56703903D01*
X51027830Y-56604035D01*
X51221401Y-56468495D01*
X51388495Y-56301401D01*
X51518426Y-56115841D01*
X51573002Y-56072217D01*
X51642500Y-56065023D01*
X51704855Y-56096546D01*
X51721575Y-56115842D01*
X51851500Y-56301395D01*
X51851505Y-56301401D01*
X52018599Y-56468495D01*
X52108157Y-56531204D01*
X52212165Y-56604032D01*
X52212167Y-56604033D01*
X52212170Y-56604035D01*
X52426337Y-56703903D01*
X52426343Y-56703904D01*
X52426344Y-56703905D01*
X52472828Y-56716360D01*
X52654592Y-56765063D01*
X52831034Y-56780500D01*
X52889999Y-56785659D01*
X52890000Y-56785659D01*
X52890001Y-56785659D01*
X52948966Y-56780500D01*
X53125408Y-56765063D01*
X53353663Y-56703903D01*
X53567830Y-56604035D01*
X53761401Y-56468495D01*
X53928495Y-56301401D01*
X54064035Y-56107830D01*
X54163903Y-55893663D01*
X54225063Y-55665408D01*
X54245659Y-55430000D01*
X54243690Y-55407500D01*
X54236760Y-55328282D01*
X54225063Y-55194592D01*
X54163903Y-54966337D01*
X54064035Y-54752171D01*
X53974054Y-54623663D01*
X53928494Y-54558597D01*
X53761402Y-54391506D01*
X53761395Y-54391501D01*
X53567834Y-54255967D01*
X53567830Y-54255965D01*
X53530788Y-54238692D01*
X53353663Y-54156097D01*
X53353659Y-54156096D01*
X53353655Y-54156094D01*
X53125413Y-54094938D01*
X53125403Y-54094936D01*
X52890001Y-54074341D01*
X52889999Y-54074341D01*
X52654596Y-54094936D01*
X52654586Y-54094938D01*
X52554126Y-54121856D01*
X52484276Y-54120193D01*
X52434352Y-54089762D01*
X51731821Y-53387231D01*
X51698336Y-53325908D01*
X51703320Y-53256216D01*
X51731821Y-53211869D01*
X51750000Y-53193690D01*
X51820340Y-53123350D01*
X51910908Y-52976516D01*
X51965174Y-52812753D01*
X51975500Y-52711677D01*
X51975499Y-52113324D01*
X51965174Y-52012247D01*
X51910908Y-51848484D01*
X51820340Y-51701650D01*
X51706017Y-51587327D01*
X51672532Y-51526004D01*
X51677516Y-51456312D01*
X51706017Y-51411964D01*
X51819948Y-51298033D01*
X51910448Y-51151311D01*
X51910453Y-51151300D01*
X51964680Y-50987652D01*
X51974999Y-50886654D01*
X51975000Y-50886641D01*
X51975000Y-50837500D01*
X39525001Y-50837500D01*
X39525001Y-50886654D01*
X39535319Y-50987652D01*
X39589546Y-51151300D01*
X39589551Y-51151311D01*
X39680052Y-51298034D01*
X39680055Y-51298038D01*
X39793982Y-51411965D01*
X39827467Y-51473288D01*
X39822483Y-51542980D01*
X39793983Y-51587327D01*
X39679658Y-51701652D01*
X39663348Y-51728096D01*
X39611400Y-51774821D01*
X39557809Y-51787000D01*
X38488362Y-51787000D01*
X38421323Y-51767315D01*
X38400681Y-51750681D01*
X38400000Y-51750000D01*
X37286500Y-51750000D01*
X37219461Y-51730315D01*
X37173706Y-51677511D01*
X37162500Y-51626000D01*
X37162500Y-51250000D01*
X37662500Y-51250000D01*
X38399999Y-51250000D01*
X38399999Y-51213360D01*
X38399998Y-51213345D01*
X38389680Y-51112347D01*
X38335453Y-50948699D01*
X38335450Y-50948692D01*
X38253047Y-50815098D01*
X38234606Y-50747705D01*
X38253047Y-50684902D01*
X38335450Y-50551307D01*
X38335453Y-50551300D01*
X38389680Y-50387652D01*
X38399826Y-50288345D01*
X39525000Y-50288345D01*
X39525000Y-50337500D01*
X40250000Y-50337500D01*
X40750000Y-50337500D01*
X41750000Y-50337500D01*
X42250000Y-50337500D01*
X43250000Y-50337500D01*
X43750000Y-50337500D01*
X44750000Y-50337500D01*
X45250000Y-50337500D01*
X46250000Y-50337500D01*
X46750000Y-50337500D01*
X47750000Y-50337500D01*
X48250000Y-50337500D01*
X49250000Y-50337500D01*
X49750000Y-50337500D01*
X50750000Y-50337500D01*
X50750000Y-49600000D01*
X50713361Y-49600000D01*
X50713343Y-49600001D01*
X50612347Y-49610319D01*
X50448699Y-49664546D01*
X50448694Y-49664548D01*
X50315097Y-49746953D01*
X50247705Y-49765393D01*
X50184903Y-49746953D01*
X50051305Y-49664548D01*
X50051300Y-49664546D01*
X49887652Y-49610319D01*
X49786654Y-49600000D01*
X49750000Y-49600000D01*
X49750000Y-50337500D01*
X49250000Y-50337500D01*
X49250000Y-49600000D01*
X49213361Y-49600000D01*
X49213343Y-49600001D01*
X49112347Y-49610319D01*
X48948699Y-49664546D01*
X48948694Y-49664548D01*
X48815097Y-49746953D01*
X48747705Y-49765393D01*
X48684903Y-49746953D01*
X48551305Y-49664548D01*
X48551300Y-49664546D01*
X48387652Y-49610319D01*
X48286654Y-49600000D01*
X48250000Y-49600000D01*
X48250000Y-50337500D01*
X47750000Y-50337500D01*
X47750000Y-49600000D01*
X47713361Y-49600000D01*
X47713343Y-49600001D01*
X47612347Y-49610319D01*
X47448699Y-49664546D01*
X47448694Y-49664548D01*
X47315097Y-49746953D01*
X47247705Y-49765393D01*
X47184903Y-49746953D01*
X47051305Y-49664548D01*
X47051300Y-49664546D01*
X46887652Y-49610319D01*
X46786654Y-49600000D01*
X46750000Y-49600000D01*
X46750000Y-50337500D01*
X46250000Y-50337500D01*
X46250000Y-49600000D01*
X46213361Y-49600000D01*
X46213343Y-49600001D01*
X46112347Y-49610319D01*
X45948699Y-49664546D01*
X45948694Y-49664548D01*
X45815097Y-49746953D01*
X45747705Y-49765393D01*
X45684903Y-49746953D01*
X45551305Y-49664548D01*
X45551300Y-49664546D01*
X45387652Y-49610319D01*
X45286654Y-49600000D01*
X45250000Y-49600000D01*
X45250000Y-50337500D01*
X44750000Y-50337500D01*
X44750000Y-49600000D01*
X44713361Y-49600000D01*
X44713343Y-49600001D01*
X44612347Y-49610319D01*
X44448699Y-49664546D01*
X44448694Y-49664548D01*
X44315097Y-49746953D01*
X44247705Y-49765393D01*
X44184903Y-49746953D01*
X44051305Y-49664548D01*
X44051300Y-49664546D01*
X43887652Y-49610319D01*
X43786654Y-49600000D01*
X43750000Y-49600000D01*
X43750000Y-50337500D01*
X43250000Y-50337500D01*
X43250000Y-49600000D01*
X43213361Y-49600000D01*
X43213343Y-49600001D01*
X43112347Y-49610319D01*
X42948699Y-49664546D01*
X42948694Y-49664548D01*
X42815097Y-49746953D01*
X42747705Y-49765393D01*
X42684903Y-49746953D01*
X42551305Y-49664548D01*
X42551300Y-49664546D01*
X42387652Y-49610319D01*
X42286654Y-49600000D01*
X42250000Y-49600000D01*
X42250000Y-50337500D01*
X41750000Y-50337500D01*
X41750000Y-49600000D01*
X41713361Y-49600000D01*
X41713343Y-49600001D01*
X41612347Y-49610319D01*
X41448699Y-49664546D01*
X41448694Y-49664548D01*
X41315097Y-49746953D01*
X41247705Y-49765393D01*
X41184903Y-49746953D01*
X41051305Y-49664548D01*
X41051300Y-49664546D01*
X40887652Y-49610319D01*
X40786654Y-49600000D01*
X40750000Y-49600000D01*
X40750000Y-50337500D01*
X40250000Y-50337500D01*
X40250000Y-49600000D01*
X40213361Y-49600000D01*
X40213343Y-49600001D01*
X40112347Y-49610319D01*
X39948699Y-49664546D01*
X39948688Y-49664551D01*
X39801965Y-49755052D01*
X39801961Y-49755055D01*
X39680055Y-49876961D01*
X39680052Y-49876965D01*
X39589551Y-50023688D01*
X39589546Y-50023699D01*
X39535319Y-50187347D01*
X39525000Y-50288345D01*
X38399826Y-50288345D01*
X38399999Y-50286654D01*
X38400000Y-50286641D01*
X38400000Y-50250000D01*
X37662500Y-50250000D01*
X37662500Y-51250000D01*
X37162500Y-51250000D01*
X37162500Y-49750000D01*
X37662500Y-49750000D01*
X38399999Y-49750000D01*
X38399999Y-49713360D01*
X38399998Y-49713345D01*
X38389680Y-49612347D01*
X38335453Y-49448699D01*
X38335450Y-49448692D01*
X38253047Y-49315098D01*
X38234606Y-49247705D01*
X38253047Y-49184902D01*
X38335450Y-49051307D01*
X38335453Y-49051300D01*
X38389680Y-48887652D01*
X38399999Y-48786654D01*
X38400000Y-48786641D01*
X38400000Y-48750000D01*
X37662500Y-48750000D01*
X37662500Y-49750000D01*
X37162500Y-49750000D01*
X37162500Y-48250000D01*
X37662500Y-48250000D01*
X38399999Y-48250000D01*
X38399999Y-48213360D01*
X38399998Y-48213345D01*
X38389680Y-48112347D01*
X38335453Y-47948699D01*
X38335450Y-47948692D01*
X38253047Y-47815098D01*
X38245264Y-47786654D01*
X49600001Y-47786654D01*
X49610319Y-47887652D01*
X49664546Y-48051300D01*
X49664551Y-48051311D01*
X49755052Y-48198034D01*
X49755055Y-48198038D01*
X49876961Y-48319944D01*
X49876965Y-48319947D01*
X50023688Y-48410448D01*
X50023699Y-48410453D01*
X50187347Y-48464680D01*
X50288351Y-48474999D01*
X50337499Y-48474998D01*
X50337500Y-48474998D01*
X50337500Y-47750000D01*
X49600001Y-47750000D01*
X49600001Y-47786654D01*
X38245264Y-47786654D01*
X38234606Y-47747705D01*
X38253047Y-47684902D01*
X38335450Y-47551307D01*
X38335453Y-47551300D01*
X38389680Y-47387652D01*
X38399999Y-47286654D01*
X38400000Y-47286641D01*
X38400000Y-47250000D01*
X37662500Y-47250000D01*
X37662500Y-48250000D01*
X37162500Y-48250000D01*
X37162500Y-47213345D01*
X49600000Y-47213345D01*
X49600000Y-47250000D01*
X50337500Y-47250000D01*
X50337500Y-46250000D01*
X49600001Y-46250000D01*
X49600001Y-46286654D01*
X49610319Y-46387652D01*
X49664546Y-46551300D01*
X49664548Y-46551305D01*
X49746953Y-46684903D01*
X49765393Y-46752295D01*
X49746953Y-46815097D01*
X49664548Y-46948694D01*
X49664546Y-46948699D01*
X49610319Y-47112347D01*
X49600000Y-47213345D01*
X37162500Y-47213345D01*
X37162500Y-46750000D01*
X37662500Y-46750000D01*
X38399999Y-46750000D01*
X38399999Y-46713360D01*
X38399998Y-46713345D01*
X38389680Y-46612347D01*
X38335453Y-46448699D01*
X38335450Y-46448692D01*
X38253047Y-46315098D01*
X38234606Y-46247705D01*
X38253047Y-46184902D01*
X38335450Y-46051307D01*
X38335453Y-46051300D01*
X38389680Y-45887652D01*
X38399999Y-45786654D01*
X38400000Y-45786641D01*
X38400000Y-45750000D01*
X37662500Y-45750000D01*
X37662500Y-46750000D01*
X37162500Y-46750000D01*
X37162500Y-45713345D01*
X49600000Y-45713345D01*
X49600000Y-45750000D01*
X50337500Y-45750000D01*
X50337500Y-44750000D01*
X49600001Y-44750000D01*
X49600001Y-44786654D01*
X49610319Y-44887652D01*
X49664546Y-45051300D01*
X49664548Y-45051305D01*
X49746953Y-45184903D01*
X49765393Y-45252295D01*
X49746953Y-45315097D01*
X49664548Y-45448694D01*
X49664546Y-45448699D01*
X49610319Y-45612347D01*
X49600000Y-45713345D01*
X37162500Y-45713345D01*
X37162500Y-45250000D01*
X37662500Y-45250000D01*
X38399999Y-45250000D01*
X38399999Y-45213360D01*
X38399998Y-45213345D01*
X38389680Y-45112347D01*
X38335453Y-44948699D01*
X38335450Y-44948692D01*
X38253047Y-44815098D01*
X38234606Y-44747705D01*
X38253047Y-44684902D01*
X38335450Y-44551307D01*
X38335453Y-44551300D01*
X38389680Y-44387652D01*
X38399999Y-44286654D01*
X38400000Y-44286641D01*
X38400000Y-44250000D01*
X37662500Y-44250000D01*
X37662500Y-45250000D01*
X37162500Y-45250000D01*
X37162500Y-44213345D01*
X49600000Y-44213345D01*
X49600000Y-44250000D01*
X50337500Y-44250000D01*
X50337500Y-43250000D01*
X49600001Y-43250000D01*
X49600001Y-43286654D01*
X49610319Y-43387652D01*
X49664546Y-43551300D01*
X49664548Y-43551305D01*
X49746953Y-43684903D01*
X49765393Y-43752295D01*
X49746953Y-43815097D01*
X49664548Y-43948694D01*
X49664546Y-43948699D01*
X49610319Y-44112347D01*
X49600000Y-44213345D01*
X37162500Y-44213345D01*
X37162500Y-43750000D01*
X37662500Y-43750000D01*
X38399999Y-43750000D01*
X38399999Y-43713360D01*
X38399998Y-43713345D01*
X38389680Y-43612347D01*
X38335453Y-43448699D01*
X38335450Y-43448692D01*
X38253047Y-43315098D01*
X38234606Y-43247705D01*
X38253047Y-43184902D01*
X38335450Y-43051307D01*
X38335453Y-43051300D01*
X38389680Y-42887652D01*
X38399999Y-42786654D01*
X38400000Y-42786641D01*
X38400000Y-42750000D01*
X37662500Y-42750000D01*
X37662500Y-43750000D01*
X37162500Y-43750000D01*
X37162500Y-42713345D01*
X49600000Y-42713345D01*
X49600000Y-42750000D01*
X50337500Y-42750000D01*
X50337500Y-41750000D01*
X49600001Y-41750000D01*
X49600001Y-41786654D01*
X49610319Y-41887652D01*
X49664546Y-42051300D01*
X49664548Y-42051305D01*
X49746953Y-42184903D01*
X49765393Y-42252295D01*
X49746953Y-42315097D01*
X49664548Y-42448694D01*
X49664546Y-42448699D01*
X49610319Y-42612347D01*
X49600000Y-42713345D01*
X37162500Y-42713345D01*
X37162500Y-42250000D01*
X37662500Y-42250000D01*
X38399999Y-42250000D01*
X38399999Y-42213360D01*
X38399998Y-42213345D01*
X38389680Y-42112347D01*
X38335453Y-41948699D01*
X38335450Y-41948692D01*
X38253047Y-41815098D01*
X38234606Y-41747705D01*
X38253047Y-41684902D01*
X38335450Y-41551307D01*
X38335453Y-41551300D01*
X38389680Y-41387652D01*
X38399999Y-41286654D01*
X38400000Y-41286641D01*
X38400000Y-41250000D01*
X37662500Y-41250000D01*
X37662500Y-42250000D01*
X37162500Y-42250000D01*
X37162500Y-41213345D01*
X49600000Y-41213345D01*
X49600000Y-41250000D01*
X50337500Y-41250000D01*
X50337500Y-40250000D01*
X49600001Y-40250000D01*
X49600001Y-40286654D01*
X49610319Y-40387652D01*
X49664546Y-40551300D01*
X49664548Y-40551305D01*
X49746953Y-40684903D01*
X49765393Y-40752295D01*
X49746953Y-40815097D01*
X49664548Y-40948694D01*
X49664546Y-40948699D01*
X49610319Y-41112347D01*
X49600000Y-41213345D01*
X37162500Y-41213345D01*
X37162500Y-40750000D01*
X37662500Y-40750000D01*
X38399999Y-40750000D01*
X38399999Y-40713360D01*
X38399998Y-40713345D01*
X38389680Y-40612347D01*
X38335453Y-40448699D01*
X38335448Y-40448688D01*
X38244947Y-40301965D01*
X38244944Y-40301961D01*
X38123038Y-40180055D01*
X38123034Y-40180052D01*
X37976311Y-40089551D01*
X37976300Y-40089546D01*
X37812652Y-40035319D01*
X37711654Y-40025000D01*
X37662500Y-40025000D01*
X37662500Y-40750000D01*
X37162500Y-40750000D01*
X37162500Y-40025000D01*
X37162499Y-40024999D01*
X37113361Y-40025000D01*
X37113343Y-40025001D01*
X37012347Y-40035319D01*
X36848699Y-40089546D01*
X36848688Y-40089551D01*
X36701965Y-40180052D01*
X36588034Y-40293983D01*
X36526711Y-40327467D01*
X36457019Y-40322483D01*
X36412672Y-40293982D01*
X36298350Y-40179660D01*
X36298346Y-40179657D01*
X36199240Y-40118527D01*
X36152515Y-40066579D01*
X36149776Y-40060442D01*
X36141810Y-40041211D01*
X36141809Y-40041210D01*
X36111756Y-39996233D01*
X36111755Y-39996231D01*
X36073361Y-39938771D01*
X36073355Y-39938763D01*
X35983137Y-39848545D01*
X35983106Y-39848516D01*
X35847935Y-39713345D01*
X49600000Y-39713345D01*
X49600000Y-39750000D01*
X50337500Y-39750000D01*
X50337500Y-38750000D01*
X49600001Y-38750000D01*
X49600001Y-38786654D01*
X49610319Y-38887652D01*
X49664546Y-39051300D01*
X49664548Y-39051305D01*
X49746953Y-39184903D01*
X49765393Y-39252295D01*
X49746953Y-39315097D01*
X49664548Y-39448694D01*
X49664546Y-39448699D01*
X49610319Y-39612347D01*
X49600000Y-39713345D01*
X35847935Y-39713345D01*
X35319228Y-39184638D01*
X35285743Y-39123315D01*
X35290727Y-39053623D01*
X35332599Y-38997690D01*
X35374812Y-38977184D01*
X35524567Y-38937057D01*
X35573653Y-38923906D01*
X35573654Y-38923905D01*
X35573663Y-38923903D01*
X35787830Y-38824035D01*
X35981401Y-38688495D01*
X36148495Y-38521401D01*
X36284035Y-38327830D01*
X36383903Y-38113663D01*
X36445063Y-37885408D01*
X36460265Y-37711654D01*
X37025001Y-37711654D01*
X37035319Y-37812652D01*
X37089546Y-37976300D01*
X37089551Y-37976311D01*
X37180052Y-38123034D01*
X37180055Y-38123038D01*
X37301961Y-38244944D01*
X37301965Y-38244947D01*
X37448688Y-38335448D01*
X37448699Y-38335453D01*
X37612347Y-38389680D01*
X37713352Y-38399999D01*
X37750000Y-38399999D01*
X38250000Y-38399999D01*
X38286640Y-38399999D01*
X38286654Y-38399998D01*
X38387652Y-38389680D01*
X38551300Y-38335453D01*
X38551307Y-38335450D01*
X38684902Y-38253047D01*
X38752295Y-38234606D01*
X38815098Y-38253047D01*
X38948692Y-38335450D01*
X38948699Y-38335453D01*
X39112347Y-38389680D01*
X39213352Y-38399999D01*
X39250000Y-38399999D01*
X39750000Y-38399999D01*
X39786640Y-38399999D01*
X39786654Y-38399998D01*
X39887652Y-38389680D01*
X40051300Y-38335453D01*
X40051307Y-38335450D01*
X40184902Y-38253047D01*
X40252295Y-38234606D01*
X40315098Y-38253047D01*
X40448692Y-38335450D01*
X40448699Y-38335453D01*
X40612347Y-38389680D01*
X40713352Y-38399999D01*
X40750000Y-38399999D01*
X41250000Y-38399999D01*
X41286640Y-38399999D01*
X41286654Y-38399998D01*
X41387652Y-38389680D01*
X41551300Y-38335453D01*
X41551307Y-38335450D01*
X41684902Y-38253047D01*
X41752295Y-38234606D01*
X41815098Y-38253047D01*
X41948692Y-38335450D01*
X41948699Y-38335453D01*
X42112347Y-38389680D01*
X42213352Y-38399999D01*
X42250000Y-38399999D01*
X42750000Y-38399999D01*
X42786640Y-38399999D01*
X42786654Y-38399998D01*
X42887652Y-38389680D01*
X43051300Y-38335453D01*
X43051307Y-38335450D01*
X43184902Y-38253047D01*
X43252295Y-38234606D01*
X43315098Y-38253047D01*
X43448692Y-38335450D01*
X43448699Y-38335453D01*
X43612347Y-38389680D01*
X43713352Y-38399999D01*
X43750000Y-38399999D01*
X44250000Y-38399999D01*
X44286640Y-38399999D01*
X44286654Y-38399998D01*
X44387652Y-38389680D01*
X44551300Y-38335453D01*
X44551307Y-38335450D01*
X44684902Y-38253047D01*
X44752295Y-38234606D01*
X44815098Y-38253047D01*
X44948692Y-38335450D01*
X44948699Y-38335453D01*
X45112347Y-38389680D01*
X45213352Y-38399999D01*
X45250000Y-38399999D01*
X45750000Y-38399999D01*
X45786640Y-38399999D01*
X45786654Y-38399998D01*
X45887652Y-38389680D01*
X46051300Y-38335453D01*
X46051307Y-38335450D01*
X46184902Y-38253047D01*
X46252295Y-38234606D01*
X46315098Y-38253047D01*
X46448692Y-38335450D01*
X46448699Y-38335453D01*
X46612347Y-38389680D01*
X46713352Y-38399999D01*
X46750000Y-38399999D01*
X47250000Y-38399999D01*
X47286640Y-38399999D01*
X47286654Y-38399998D01*
X47387652Y-38389680D01*
X47551300Y-38335453D01*
X47551307Y-38335450D01*
X47684902Y-38253047D01*
X47752295Y-38234606D01*
X47815098Y-38253047D01*
X47948692Y-38335450D01*
X47948699Y-38335453D01*
X48112347Y-38389680D01*
X48213352Y-38399999D01*
X48250000Y-38399999D01*
X48250000Y-37662500D01*
X47250000Y-37662500D01*
X47250000Y-38399999D01*
X46750000Y-38399999D01*
X46750000Y-37662500D01*
X45750000Y-37662500D01*
X45750000Y-38399999D01*
X45250000Y-38399999D01*
X45250000Y-37662500D01*
X44250000Y-37662500D01*
X44250000Y-38399999D01*
X43750000Y-38399999D01*
X43750000Y-37662500D01*
X42750000Y-37662500D01*
X42750000Y-38399999D01*
X42250000Y-38399999D01*
X42250000Y-37662500D01*
X41250000Y-37662500D01*
X41250000Y-38399999D01*
X40750000Y-38399999D01*
X40750000Y-37662500D01*
X39750000Y-37662500D01*
X39750000Y-38399999D01*
X39250000Y-38399999D01*
X39250000Y-37662500D01*
X38250000Y-37662500D01*
X38250000Y-38399999D01*
X37750000Y-38399999D01*
X37750000Y-37662500D01*
X37025001Y-37662500D01*
X37025001Y-37711654D01*
X36460265Y-37711654D01*
X36465659Y-37650000D01*
X36465658Y-37649994D01*
X36459966Y-37584935D01*
X36445063Y-37414592D01*
X36383903Y-37186337D01*
X36284035Y-36972171D01*
X36197579Y-36848699D01*
X36148496Y-36778600D01*
X36088660Y-36718764D01*
X36026567Y-36656671D01*
X35993084Y-36595351D01*
X35998068Y-36525659D01*
X36039939Y-36469725D01*
X36070915Y-36452810D01*
X36202331Y-36403796D01*
X36317546Y-36317546D01*
X36403796Y-36202331D01*
X36454091Y-36067483D01*
X36460500Y-36007873D01*
X36460499Y-35231950D01*
X36480183Y-35164912D01*
X36532987Y-35119157D01*
X36602146Y-35109213D01*
X36665702Y-35138238D01*
X36672180Y-35144270D01*
X36988181Y-35460271D01*
X37021666Y-35521594D01*
X37024500Y-35547952D01*
X37024500Y-35886668D01*
X37024501Y-35886687D01*
X37034825Y-35987752D01*
X37050588Y-36035319D01*
X37085876Y-36141812D01*
X37089092Y-36151515D01*
X37089093Y-36151518D01*
X37117485Y-36197549D01*
X37179658Y-36298347D01*
X37179661Y-36298351D01*
X37293982Y-36412672D01*
X37327467Y-36473995D01*
X37322483Y-36543687D01*
X37293983Y-36588034D01*
X37180052Y-36701965D01*
X37089551Y-36848688D01*
X37089546Y-36848699D01*
X37035319Y-37012347D01*
X37025000Y-37113345D01*
X37025000Y-37162500D01*
X48626000Y-37162500D01*
X48693039Y-37182185D01*
X48738794Y-37234989D01*
X48750000Y-37286500D01*
X48750000Y-38399999D01*
X48786640Y-38399999D01*
X48786654Y-38399998D01*
X48887652Y-38389680D01*
X49051300Y-38335453D01*
X49051311Y-38335448D01*
X49198034Y-38244947D01*
X49198038Y-38244944D01*
X49319945Y-38123037D01*
X49383965Y-38019244D01*
X49435913Y-37972519D01*
X49504875Y-37961296D01*
X49568957Y-37989139D01*
X49607814Y-38047208D01*
X49610539Y-38105566D01*
X49611007Y-38105614D01*
X49610687Y-38108737D01*
X49610760Y-38110281D01*
X49610320Y-38112337D01*
X49600000Y-38213345D01*
X49600000Y-38250000D01*
X50337500Y-38250000D01*
X50337500Y-36058451D01*
X50347322Y-36025000D01*
X50837500Y-36025000D01*
X50837500Y-48474999D01*
X50886640Y-48474999D01*
X50886654Y-48474998D01*
X50987652Y-48464680D01*
X51151300Y-48410453D01*
X51151311Y-48410448D01*
X51298033Y-48319948D01*
X51411964Y-48206017D01*
X51473287Y-48172532D01*
X51542979Y-48177516D01*
X51587327Y-48206017D01*
X51701650Y-48320340D01*
X51728096Y-48336652D01*
X51774821Y-48388600D01*
X51787000Y-48442191D01*
X51787000Y-49587751D01*
X51767315Y-49654790D01*
X51714511Y-49700545D01*
X51645353Y-49710489D01*
X51597904Y-49693290D01*
X51551309Y-49664551D01*
X51551300Y-49664546D01*
X51387652Y-49610319D01*
X51286654Y-49600000D01*
X51250000Y-49600000D01*
X51250000Y-50337500D01*
X51941548Y-50337500D01*
X52008587Y-50357185D01*
X52029229Y-50373819D01*
X54089761Y-52434352D01*
X54123246Y-52495675D01*
X54121855Y-52554124D01*
X54094937Y-52654589D01*
X54094937Y-52654590D01*
X54074341Y-52889999D01*
X54074341Y-52890000D01*
X54094936Y-53125403D01*
X54094938Y-53125413D01*
X54156094Y-53353655D01*
X54156096Y-53353659D01*
X54156097Y-53353663D01*
X54220355Y-53491464D01*
X54255965Y-53567830D01*
X54255967Y-53567834D01*
X54364227Y-53722444D01*
X54391505Y-53761401D01*
X54558599Y-53928495D01*
X54640298Y-53985701D01*
X54752165Y-54064032D01*
X54752167Y-54064033D01*
X54752170Y-54064035D01*
X54966337Y-54163903D01*
X55194592Y-54225063D01*
X55382918Y-54241539D01*
X55429999Y-54245659D01*
X55430000Y-54245659D01*
X55430001Y-54245659D01*
X55469234Y-54242226D01*
X55665408Y-54225063D01*
X55893663Y-54163903D01*
X56107830Y-54064035D01*
X56301401Y-53928495D01*
X56468495Y-53761401D01*
X56604035Y-53567830D01*
X56703903Y-53353663D01*
X56765063Y-53125408D01*
X56785659Y-52890000D01*
X56765063Y-52654592D01*
X56717076Y-52475499D01*
X56703905Y-52426344D01*
X56703904Y-52426343D01*
X56703903Y-52426337D01*
X56604035Y-52212171D01*
X56594358Y-52198350D01*
X56468494Y-52018597D01*
X56301402Y-51851506D01*
X56301396Y-51851501D01*
X56115842Y-51721575D01*
X56072217Y-51666998D01*
X56065023Y-51597500D01*
X56096546Y-51535145D01*
X56115842Y-51518425D01*
X56175987Y-51476311D01*
X56301401Y-51388495D01*
X56468495Y-51221401D01*
X56604035Y-51027830D01*
X56703903Y-50813663D01*
X56765063Y-50585408D01*
X56785659Y-50350000D01*
X56784537Y-50337181D01*
X56775460Y-50233428D01*
X56765063Y-50114592D01*
X56703903Y-49886337D01*
X56604035Y-49672171D01*
X56598700Y-49664551D01*
X56468494Y-49478597D01*
X56301402Y-49311506D01*
X56301396Y-49311501D01*
X56115842Y-49181575D01*
X56072217Y-49126998D01*
X56065023Y-49057500D01*
X56096546Y-48995145D01*
X56115842Y-48978425D01*
X56140894Y-48960883D01*
X56301401Y-48848495D01*
X56468495Y-48681401D01*
X56604035Y-48487830D01*
X56703903Y-48273663D01*
X56765063Y-48045408D01*
X56785659Y-47810000D01*
X56784928Y-47801650D01*
X56780209Y-47747705D01*
X56765063Y-47574592D01*
X56703903Y-47346337D01*
X56604035Y-47132171D01*
X56591754Y-47114631D01*
X56468494Y-46938597D01*
X56301402Y-46771506D01*
X56301396Y-46771501D01*
X56115842Y-46641575D01*
X56072217Y-46586998D01*
X56065023Y-46517500D01*
X56096546Y-46455145D01*
X56115842Y-46438425D01*
X56139858Y-46421609D01*
X56301401Y-46308495D01*
X56468495Y-46141401D01*
X56604035Y-45947830D01*
X56703903Y-45733663D01*
X56765063Y-45505408D01*
X56785659Y-45270000D01*
X56783690Y-45247500D01*
X56775757Y-45156818D01*
X56765063Y-45034592D01*
X56710033Y-44829215D01*
X56703905Y-44806344D01*
X56703904Y-44806343D01*
X56703903Y-44806337D01*
X56604035Y-44592171D01*
X56603652Y-44591623D01*
X56468494Y-44398597D01*
X56301402Y-44231506D01*
X56301396Y-44231501D01*
X56115842Y-44101575D01*
X56072217Y-44046998D01*
X56065023Y-43977500D01*
X56096546Y-43915145D01*
X56115842Y-43898425D01*
X56184521Y-43850335D01*
X56301401Y-43768495D01*
X56468495Y-43601401D01*
X56604035Y-43407830D01*
X56703903Y-43193663D01*
X56765063Y-42965408D01*
X56785659Y-42730000D01*
X56765063Y-42494592D01*
X56703903Y-42266337D01*
X56604035Y-42052171D01*
X56603577Y-42051516D01*
X56468494Y-41858597D01*
X56301402Y-41691506D01*
X56301396Y-41691501D01*
X56115842Y-41561575D01*
X56072217Y-41506998D01*
X56065023Y-41437500D01*
X56096546Y-41375145D01*
X56115842Y-41358425D01*
X56146621Y-41336873D01*
X56301401Y-41228495D01*
X56468495Y-41061401D01*
X56604035Y-40867830D01*
X56703903Y-40653663D01*
X56765063Y-40425408D01*
X56785659Y-40190000D01*
X56765063Y-39954592D01*
X56703903Y-39726337D01*
X56604035Y-39512171D01*
X56587711Y-39488857D01*
X56468494Y-39318597D01*
X56301401Y-39151505D01*
X56301396Y-39151501D01*
X56115842Y-39021575D01*
X56072217Y-38966998D01*
X56065023Y-38897500D01*
X56096546Y-38835145D01*
X56115842Y-38818425D01*
X56161184Y-38786676D01*
X56301401Y-38688495D01*
X56468495Y-38521401D01*
X56604035Y-38327830D01*
X56703903Y-38113663D01*
X56765063Y-37885408D01*
X56785659Y-37650000D01*
X56785658Y-37649994D01*
X56779966Y-37584935D01*
X56765063Y-37414592D01*
X56703903Y-37186337D01*
X56604035Y-36972171D01*
X56517579Y-36848699D01*
X56468496Y-36778600D01*
X56408660Y-36718764D01*
X56346567Y-36656671D01*
X56313084Y-36595351D01*
X56318068Y-36525659D01*
X56359939Y-36469725D01*
X56390915Y-36452810D01*
X56522331Y-36403796D01*
X56637546Y-36317546D01*
X56723796Y-36202331D01*
X56774091Y-36067483D01*
X56780500Y-36007873D01*
X56780499Y-34212128D01*
X56774091Y-34152517D01*
X56773320Y-34150451D01*
X56723797Y-34017671D01*
X56723793Y-34017664D01*
X56637547Y-33902455D01*
X56637544Y-33902452D01*
X56522335Y-33816206D01*
X56522328Y-33816202D01*
X56387482Y-33765908D01*
X56387483Y-33765908D01*
X56327883Y-33759501D01*
X56327881Y-33759500D01*
X56327873Y-33759500D01*
X56327864Y-33759500D01*
X54532129Y-33759500D01*
X54532123Y-33759501D01*
X54472516Y-33765908D01*
X54337671Y-33816202D01*
X54337664Y-33816206D01*
X54222455Y-33902452D01*
X54222452Y-33902455D01*
X54136206Y-34017664D01*
X54136202Y-34017671D01*
X54085908Y-34152517D01*
X54079501Y-34212116D01*
X54079501Y-34212123D01*
X54079500Y-34212135D01*
X54079500Y-35524546D01*
X54059815Y-35591585D01*
X54043181Y-35612227D01*
X53387230Y-36268178D01*
X53325907Y-36301663D01*
X53256215Y-36296679D01*
X53211868Y-36268178D01*
X53123351Y-36179661D01*
X53123350Y-36179660D01*
X53032129Y-36123395D01*
X52976518Y-36089093D01*
X52976513Y-36089091D01*
X52929034Y-36073358D01*
X52812753Y-36034826D01*
X52812751Y-36034825D01*
X52711678Y-36024500D01*
X52113330Y-36024500D01*
X52113312Y-36024501D01*
X52012247Y-36034825D01*
X51848484Y-36089092D01*
X51848481Y-36089093D01*
X51701651Y-36179659D01*
X51587327Y-36293983D01*
X51526004Y-36327467D01*
X51456312Y-36322483D01*
X51411965Y-36293982D01*
X51298038Y-36180055D01*
X51298034Y-36180052D01*
X51151311Y-36089551D01*
X51151300Y-36089546D01*
X50987652Y-36035319D01*
X50886654Y-36025000D01*
X50837500Y-36025000D01*
X50347322Y-36025000D01*
X50357185Y-35991412D01*
X50373819Y-35970770D01*
X51418908Y-34925681D01*
X52434354Y-33910235D01*
X52495675Y-33876752D01*
X52554123Y-33878142D01*
X52654592Y-33905063D01*
X52840303Y-33921311D01*
X52889999Y-33925659D01*
X52890000Y-33925659D01*
X52890001Y-33925659D01*
X52929234Y-33922226D01*
X53125408Y-33905063D01*
X53353663Y-33843903D01*
X53567830Y-33744035D01*
X53761401Y-33608495D01*
X53928495Y-33441401D01*
X54064035Y-33247830D01*
X54163903Y-33033663D01*
X54225063Y-32805408D01*
X54245659Y-32570000D01*
X54225063Y-32334592D01*
X54163903Y-32106337D01*
X54064035Y-31892171D01*
X54060078Y-31886519D01*
X53928494Y-31698597D01*
X53761402Y-31531506D01*
X53761395Y-31531501D01*
X53567834Y-31395967D01*
X53567830Y-31395965D01*
X53503197Y-31365826D01*
X53353663Y-31296097D01*
X53353659Y-31296096D01*
X53353655Y-31296094D01*
X53125413Y-31234938D01*
X53125403Y-31234936D01*
X52890001Y-31214341D01*
X52889999Y-31214341D01*
X52654596Y-31234936D01*
X52654586Y-31234938D01*
X52426344Y-31296094D01*
X52426335Y-31296098D01*
X52212171Y-31395964D01*
X52212169Y-31395965D01*
X52018597Y-31531505D01*
X51851505Y-31698597D01*
X51721575Y-31884158D01*
X51666998Y-31927783D01*
X51597500Y-31934977D01*
X51535145Y-31903454D01*
X51518425Y-31884158D01*
X51388494Y-31698597D01*
X51221402Y-31531506D01*
X51221395Y-31531501D01*
X51027834Y-31395967D01*
X51027830Y-31395965D01*
X50963197Y-31365826D01*
X50813663Y-31296097D01*
X50813659Y-31296096D01*
X50813655Y-31296094D01*
X50585413Y-31234938D01*
X50585403Y-31234936D01*
X50350001Y-31214341D01*
X50349612Y-31214341D01*
X50349446Y-31214292D01*
X50344606Y-31213869D01*
X50344691Y-31212896D01*
X50282573Y-31194656D01*
X50236818Y-31141852D01*
X50226874Y-31072694D01*
X50255899Y-31009138D01*
X50261931Y-31002660D01*
X50985857Y-30278734D01*
X51022334Y-30224142D01*
X51054311Y-30176286D01*
X51101463Y-30062452D01*
X51125500Y-29941607D01*
X51125500Y-29818394D01*
X51125500Y-27537894D01*
X51125500Y-27537889D01*
X51123067Y-27525661D01*
X51123066Y-27525656D01*
X51111314Y-27466574D01*
X51117541Y-27396982D01*
X51160404Y-27341805D01*
X51226294Y-27318561D01*
X51294291Y-27334629D01*
X51320612Y-27354702D01*
X69631516Y-45665606D01*
X69631545Y-45665637D01*
X69721764Y-45755856D01*
X69721767Y-45755858D01*
X69767887Y-45786675D01*
X69767889Y-45786677D01*
X69801744Y-45809298D01*
X69824214Y-45824312D01*
X69904707Y-45857652D01*
X69938048Y-45871463D01*
X69998471Y-45883481D01*
X70058893Y-45895500D01*
X70058894Y-45895500D01*
X72724773Y-45895500D01*
X72791812Y-45915185D01*
X72826348Y-45948377D01*
X72961501Y-46141396D01*
X72961506Y-46141402D01*
X73128597Y-46308493D01*
X73128603Y-46308498D01*
X73314158Y-46438425D01*
X73357783Y-46493002D01*
X73364977Y-46562500D01*
X73333454Y-46624855D01*
X73314158Y-46641575D01*
X73128597Y-46771505D01*
X72961505Y-46938597D01*
X72825965Y-47132169D01*
X72825964Y-47132171D01*
X72726098Y-47346335D01*
X72726094Y-47346344D01*
X72664938Y-47574586D01*
X72664936Y-47574596D01*
X72644341Y-47809999D01*
X72644341Y-47810000D01*
X72664936Y-48045403D01*
X72664938Y-48045413D01*
X72691856Y-48145872D01*
X72690193Y-48215722D01*
X72659762Y-48265646D01*
X69813162Y-51112247D01*
X67101270Y-53824139D01*
X67101267Y-53824142D01*
X67062749Y-53862660D01*
X67014144Y-53911264D01*
X67014142Y-53911267D01*
X66995790Y-53938733D01*
X66995789Y-53938735D01*
X66995788Y-53938734D01*
X66945689Y-54013712D01*
X66945685Y-54013719D01*
X66914756Y-54088391D01*
X66898538Y-54127543D01*
X66898538Y-54127545D01*
X66898537Y-54127548D01*
X66875044Y-54245659D01*
X66874500Y-54248396D01*
X66874500Y-55113257D01*
X66854815Y-55180296D01*
X66802011Y-55226051D01*
X66732853Y-55235995D01*
X66707168Y-55229439D01*
X66657485Y-55210909D01*
X66657483Y-55210908D01*
X66597883Y-55204501D01*
X66597881Y-55204500D01*
X66597873Y-55204500D01*
X66597864Y-55204500D01*
X64952129Y-55204500D01*
X64952123Y-55204501D01*
X64892516Y-55210908D01*
X64757671Y-55261202D01*
X64757664Y-55261206D01*
X64642455Y-55347452D01*
X64642452Y-55347455D01*
X64556206Y-55462664D01*
X64556202Y-55462671D01*
X64505908Y-55597517D01*
X64499501Y-55657116D01*
X64499500Y-55657135D01*
X64499500Y-56452870D01*
X64499501Y-56452876D01*
X64505909Y-56512484D01*
X64555955Y-56646668D01*
X64560939Y-56716360D01*
X64555955Y-56733332D01*
X64505909Y-56867514D01*
X64505908Y-56867516D01*
X64499501Y-56927116D01*
X64499501Y-56927123D01*
X64499500Y-56927135D01*
X64499500Y-57722870D01*
X64499501Y-57722876D01*
X64505909Y-57782484D01*
X64555955Y-57916668D01*
X64560939Y-57986360D01*
X64555955Y-58003332D01*
X64505909Y-58137514D01*
X64505908Y-58137516D01*
X64499501Y-58197116D01*
X64499501Y-58197123D01*
X64499500Y-58197135D01*
X64499500Y-58992870D01*
X64499501Y-58992876D01*
X64505909Y-59052484D01*
X64555955Y-59186668D01*
X64560939Y-59256360D01*
X64555955Y-59273332D01*
X64505909Y-59407514D01*
X64505908Y-59407516D01*
X64499501Y-59467116D01*
X64499501Y-59467123D01*
X64499500Y-59467135D01*
X64499500Y-60262870D01*
X64499501Y-60262876D01*
X64505909Y-60322484D01*
X64555955Y-60456668D01*
X64560939Y-60526360D01*
X64555955Y-60543332D01*
X64505909Y-60677514D01*
X64505908Y-60677516D01*
X64499501Y-60737116D01*
X64499501Y-60737123D01*
X64499500Y-60737135D01*
X64499500Y-60984432D01*
X64479815Y-61051471D01*
X64427011Y-61097226D01*
X64362897Y-61107790D01*
X64286654Y-61100000D01*
X64250000Y-61100000D01*
X64250000Y-62263500D01*
X64230315Y-62330539D01*
X64177511Y-62376294D01*
X64126000Y-62387500D01*
X63025001Y-62387500D01*
X63025001Y-62486533D01*
X63005316Y-62553572D01*
X62952512Y-62599327D01*
X62888400Y-62609891D01*
X62786680Y-62599500D01*
X62213330Y-62599500D01*
X62213312Y-62599501D01*
X62112247Y-62609825D01*
X61948484Y-62664092D01*
X61948481Y-62664093D01*
X61801648Y-62754661D01*
X61679661Y-62876648D01*
X61589093Y-63023481D01*
X61589091Y-63023486D01*
X61578241Y-63056229D01*
X61534826Y-63187247D01*
X61534826Y-63187248D01*
X61534825Y-63187248D01*
X61524500Y-63288315D01*
X61524500Y-63886669D01*
X61524501Y-63886687D01*
X61534825Y-63987752D01*
X61562246Y-64070500D01*
X61584460Y-64137539D01*
X61589092Y-64151515D01*
X61589093Y-64151518D01*
X61594854Y-64160858D01*
X61676321Y-64292937D01*
X61679661Y-64298351D01*
X61793629Y-64412319D01*
X61827114Y-64473642D01*
X61822130Y-64543334D01*
X61793629Y-64587681D01*
X61679661Y-64701648D01*
X61589093Y-64848481D01*
X61589092Y-64848484D01*
X61534826Y-65012247D01*
X61534826Y-65012248D01*
X61534825Y-65012248D01*
X61524500Y-65113315D01*
X61524500Y-65711669D01*
X61524501Y-65711687D01*
X61534825Y-65812752D01*
X61567665Y-65911853D01*
X61588755Y-65975500D01*
X61589092Y-65976515D01*
X61589093Y-65976518D01*
X61599086Y-65992719D01*
X61679660Y-66123350D01*
X61801650Y-66245340D01*
X61948484Y-66335908D01*
X62112247Y-66390174D01*
X62213323Y-66400500D01*
X62786676Y-66400499D01*
X62787769Y-66400499D01*
X62854808Y-66420183D01*
X62875450Y-66436818D01*
X62969405Y-66530773D01*
X63002890Y-66592096D01*
X63005127Y-66606298D01*
X63013975Y-66696129D01*
X63013976Y-66696132D01*
X63070753Y-66883301D01*
X63071188Y-66884733D01*
X63164086Y-67058532D01*
X63164090Y-67058539D01*
X63289116Y-67210883D01*
X63441460Y-67335909D01*
X63441467Y-67335913D01*
X63615266Y-67428811D01*
X63615269Y-67428811D01*
X63615273Y-67428814D01*
X63803868Y-67486024D01*
X64000000Y-67505341D01*
X64196132Y-67486024D01*
X64384727Y-67428814D01*
X64433692Y-67402641D01*
X64492145Y-67388000D01*
X64594655Y-67388000D01*
X64661694Y-67407685D01*
X64707449Y-67460489D01*
X64717393Y-67529647D01*
X64688368Y-67593203D01*
X64682336Y-67599681D01*
X64680055Y-67601961D01*
X64680052Y-67601965D01*
X64589551Y-67748688D01*
X64589546Y-67748699D01*
X64535319Y-67912347D01*
X64525000Y-68013345D01*
X64525000Y-68112500D01*
X66474999Y-68112500D01*
X66474999Y-68013360D01*
X66474998Y-68013345D01*
X66464680Y-67912347D01*
X66410453Y-67748699D01*
X66410448Y-67748688D01*
X66319947Y-67601965D01*
X66319944Y-67601961D01*
X66306017Y-67588034D01*
X66272532Y-67526711D01*
X66277516Y-67457019D01*
X66306017Y-67412672D01*
X66320340Y-67398350D01*
X66410908Y-67251516D01*
X66465174Y-67087753D01*
X66475500Y-66986677D01*
X66475499Y-66288324D01*
X66465174Y-66187247D01*
X66410908Y-66023484D01*
X66410904Y-66023478D01*
X66410903Y-66023475D01*
X66386922Y-65984596D01*
X66368481Y-65917204D01*
X66389403Y-65850540D01*
X66443045Y-65805770D01*
X66492460Y-65795499D01*
X66597871Y-65795499D01*
X66597872Y-65795499D01*
X66657483Y-65789091D01*
X66792331Y-65738796D01*
X66817128Y-65720233D01*
X66882592Y-65695816D01*
X66891439Y-65695500D01*
X70108561Y-65695500D01*
X70175600Y-65715185D01*
X70182872Y-65720233D01*
X70207668Y-65738795D01*
X70207671Y-65738797D01*
X70342517Y-65789091D01*
X70342516Y-65789091D01*
X70349444Y-65789835D01*
X70402127Y-65795500D01*
X72047872Y-65795499D01*
X72107483Y-65789091D01*
X72242331Y-65738796D01*
X72357546Y-65652546D01*
X72443796Y-65537331D01*
X72494091Y-65402483D01*
X72500500Y-65342873D01*
X72500499Y-64547128D01*
X72494091Y-64487517D01*
X72469506Y-64421603D01*
X72464523Y-64351914D01*
X72498007Y-64290591D01*
X72515663Y-64278794D01*
X72517362Y-64276526D01*
X72528857Y-64269980D01*
X72538247Y-64263707D01*
X72544210Y-64261237D01*
X72544208Y-64261237D01*
X72544220Y-64261233D01*
X72621286Y-64229312D01*
X72681747Y-64188912D01*
X72723733Y-64160858D01*
X72810858Y-64073733D01*
X72810860Y-64073729D01*
X72947772Y-63936817D01*
X73009095Y-63903334D01*
X73035452Y-63900500D01*
X73094644Y-63900500D01*
X73094646Y-63900500D01*
X73279803Y-63861144D01*
X73452730Y-63784151D01*
X73605871Y-63672888D01*
X73732533Y-63532216D01*
X73827179Y-63368284D01*
X73885674Y-63188256D01*
X73905460Y-63000000D01*
X73885674Y-62811744D01*
X73827179Y-62631716D01*
X73732533Y-62467784D01*
X73605871Y-62327112D01*
X73605870Y-62327111D01*
X73452734Y-62215851D01*
X73452729Y-62215848D01*
X73279807Y-62138857D01*
X73279802Y-62138855D01*
X73134001Y-62107865D01*
X73094646Y-62099500D01*
X72905354Y-62099500D01*
X72872897Y-62106398D01*
X72720197Y-62138855D01*
X72720196Y-62138855D01*
X72674934Y-62159008D01*
X72605684Y-62168292D01*
X72542407Y-62138663D01*
X72505195Y-62079528D01*
X72500499Y-62045728D01*
X72500499Y-62007129D01*
X72500498Y-62007123D01*
X72494091Y-61947518D01*
X72494091Y-61947517D01*
X72444042Y-61813330D01*
X72439059Y-61743642D01*
X72444039Y-61726678D01*
X72494091Y-61592483D01*
X72500500Y-61532873D01*
X72500499Y-60737128D01*
X72494091Y-60677517D01*
X72444042Y-60543330D01*
X72439059Y-60473642D01*
X72444039Y-60456678D01*
X72494091Y-60322483D01*
X72500500Y-60262873D01*
X72500499Y-59467128D01*
X72494091Y-59407517D01*
X72444042Y-59273330D01*
X72439059Y-59203642D01*
X72444039Y-59186678D01*
X72494091Y-59052483D01*
X72500500Y-58992873D01*
X72500499Y-58197128D01*
X72494091Y-58137517D01*
X72444042Y-58003330D01*
X72439059Y-57933642D01*
X72444039Y-57916678D01*
X72494091Y-57782483D01*
X72500500Y-57722873D01*
X72500499Y-56927128D01*
X72494091Y-56867517D01*
X72443796Y-56732669D01*
X72443793Y-56732665D01*
X72443776Y-56732619D01*
X72438792Y-56662927D01*
X72443776Y-56645951D01*
X72493597Y-56512376D01*
X72493598Y-56512372D01*
X72499999Y-56452844D01*
X72500000Y-56452827D01*
X72500000Y-56305000D01*
X69950000Y-56305000D01*
X69950000Y-56452844D01*
X69956401Y-56512372D01*
X69956403Y-56512380D01*
X70006222Y-56645952D01*
X70011206Y-56715644D01*
X70006222Y-56732617D01*
X69955909Y-56867514D01*
X69955908Y-56867516D01*
X69949501Y-56927116D01*
X69949501Y-56927123D01*
X69949500Y-56927135D01*
X69949500Y-57722870D01*
X69949501Y-57722876D01*
X69955909Y-57782484D01*
X70005955Y-57916668D01*
X70010939Y-57986360D01*
X70005955Y-58003332D01*
X69955909Y-58137514D01*
X69955908Y-58137516D01*
X69949501Y-58197116D01*
X69949501Y-58197123D01*
X69949500Y-58197135D01*
X69949500Y-58992870D01*
X69949501Y-58992876D01*
X69955908Y-59052483D01*
X69967186Y-59082719D01*
X69972170Y-59152411D01*
X69938685Y-59213734D01*
X69877361Y-59247218D01*
X69807670Y-59242233D01*
X69763323Y-59213733D01*
X69333398Y-58783808D01*
X69299913Y-58722485D01*
X69297079Y-58696127D01*
X69297079Y-55988872D01*
X69316764Y-55921833D01*
X69333393Y-55901196D01*
X69746462Y-55488126D01*
X69807784Y-55454643D01*
X69877476Y-55459627D01*
X69933409Y-55501499D01*
X69957826Y-55566963D01*
X69955994Y-55589780D01*
X69957231Y-55589913D01*
X69950000Y-55657155D01*
X69950000Y-55805000D01*
X70975000Y-55805000D01*
X71475000Y-55805000D01*
X72500000Y-55805000D01*
X72500000Y-55657172D01*
X72499999Y-55657155D01*
X72493598Y-55597627D01*
X72493596Y-55597620D01*
X72443354Y-55462913D01*
X72443350Y-55462906D01*
X72357190Y-55347812D01*
X72357187Y-55347809D01*
X72242093Y-55261649D01*
X72242086Y-55261645D01*
X72107379Y-55211403D01*
X72107372Y-55211401D01*
X72047844Y-55205000D01*
X71475000Y-55205000D01*
X71475000Y-55805000D01*
X70975000Y-55805000D01*
X70975000Y-55205000D01*
X70402155Y-55205000D01*
X70334913Y-55212231D01*
X70334569Y-55209036D01*
X70279505Y-55206061D01*
X70222851Y-55165170D01*
X70197298Y-55100141D01*
X70210958Y-55031620D01*
X70233125Y-55001463D01*
X73544353Y-51690235D01*
X73605674Y-51656752D01*
X73664125Y-51658143D01*
X73697173Y-51666998D01*
X73764592Y-51685063D01*
X73952918Y-51701539D01*
X73999999Y-51705659D01*
X74000000Y-51705659D01*
X74000001Y-51705659D01*
X74045845Y-51701648D01*
X74235408Y-51685063D01*
X74463663Y-51623903D01*
X74677830Y-51524035D01*
X74871401Y-51388495D01*
X75038495Y-51221401D01*
X75174035Y-51027830D01*
X75273903Y-50813663D01*
X75335063Y-50585408D01*
X75355659Y-50350000D01*
X75354537Y-50337181D01*
X75345460Y-50233428D01*
X75335063Y-50114592D01*
X75273903Y-49886337D01*
X75174035Y-49672171D01*
X75168700Y-49664551D01*
X75038494Y-49478597D01*
X74871402Y-49311506D01*
X74871396Y-49311501D01*
X74685842Y-49181575D01*
X74642217Y-49126998D01*
X74635023Y-49057500D01*
X74666546Y-48995145D01*
X74685842Y-48978425D01*
X74710894Y-48960883D01*
X74871401Y-48848495D01*
X75038495Y-48681401D01*
X75174035Y-48487830D01*
X75273903Y-48273663D01*
X75335063Y-48045408D01*
X75355659Y-47810000D01*
X75354928Y-47801650D01*
X75350209Y-47747705D01*
X75335063Y-47574592D01*
X75273903Y-47346337D01*
X75174035Y-47132171D01*
X75161754Y-47114631D01*
X75038494Y-46938597D01*
X74871402Y-46771506D01*
X74871396Y-46771501D01*
X74685842Y-46641575D01*
X74642217Y-46586998D01*
X74635023Y-46517500D01*
X74666546Y-46455145D01*
X74685842Y-46438425D01*
X74709858Y-46421609D01*
X74871401Y-46308495D01*
X75038495Y-46141401D01*
X75174035Y-45947830D01*
X75273903Y-45733663D01*
X75335063Y-45505408D01*
X75355659Y-45270000D01*
X75353690Y-45247500D01*
X75345757Y-45156818D01*
X75335063Y-45034592D01*
X75280033Y-44829215D01*
X75273905Y-44806344D01*
X75273904Y-44806343D01*
X75273903Y-44806337D01*
X75174035Y-44592171D01*
X75173652Y-44591623D01*
X75038494Y-44398597D01*
X74871402Y-44231506D01*
X74871396Y-44231501D01*
X74685842Y-44101575D01*
X74642217Y-44046998D01*
X74635023Y-43977500D01*
X74666546Y-43915145D01*
X74685842Y-43898425D01*
X74754521Y-43850335D01*
X74871401Y-43768495D01*
X75038495Y-43601401D01*
X75174035Y-43407830D01*
X75273903Y-43193663D01*
X75335063Y-42965408D01*
X75355659Y-42730000D01*
X75335063Y-42494592D01*
X75273903Y-42266337D01*
X75174035Y-42052171D01*
X75173577Y-42051516D01*
X75038494Y-41858597D01*
X74871402Y-41691506D01*
X74871396Y-41691501D01*
X74685842Y-41561575D01*
X74642217Y-41506998D01*
X74635023Y-41437500D01*
X74666546Y-41375145D01*
X74685842Y-41358425D01*
X74716621Y-41336873D01*
X74871401Y-41228495D01*
X75038495Y-41061401D01*
X75174035Y-40867830D01*
X75273903Y-40653663D01*
X75335063Y-40425408D01*
X75355659Y-40190000D01*
X75335063Y-39954592D01*
X75273903Y-39726337D01*
X75174035Y-39512171D01*
X75157710Y-39488857D01*
X75038496Y-39318600D01*
X74987043Y-39267147D01*
X74916567Y-39196671D01*
X74883084Y-39135351D01*
X74888068Y-39065659D01*
X74929939Y-39009725D01*
X74960915Y-38992810D01*
X75092331Y-38943796D01*
X75207546Y-38857546D01*
X75293796Y-38742331D01*
X75344091Y-38607483D01*
X75350500Y-38547873D01*
X75350499Y-36752128D01*
X75344091Y-36692517D01*
X75330722Y-36656674D01*
X75293797Y-36557671D01*
X75293793Y-36557664D01*
X75207547Y-36442455D01*
X75207544Y-36442452D01*
X75092335Y-36356206D01*
X75092328Y-36356202D01*
X74957482Y-36305908D01*
X74957483Y-36305908D01*
X74897883Y-36299501D01*
X74897881Y-36299500D01*
X74897873Y-36299500D01*
X74897864Y-36299500D01*
X73102129Y-36299500D01*
X73102123Y-36299501D01*
X73042516Y-36305908D01*
X72907671Y-36356202D01*
X72907664Y-36356206D01*
X72792455Y-36442452D01*
X72792452Y-36442455D01*
X72706206Y-36557664D01*
X72706202Y-36557671D01*
X72655908Y-36692517D01*
X72649501Y-36752116D01*
X72649501Y-36752123D01*
X72649500Y-36752135D01*
X72649500Y-38547870D01*
X72649501Y-38547876D01*
X72655908Y-38607483D01*
X72706202Y-38742328D01*
X72706206Y-38742335D01*
X72792452Y-38857544D01*
X72792455Y-38857547D01*
X72907664Y-38943793D01*
X72907671Y-38943797D01*
X73039081Y-38992810D01*
X73095015Y-39034681D01*
X73119432Y-39100145D01*
X73104580Y-39168418D01*
X73083430Y-39196673D01*
X72961503Y-39318600D01*
X72825965Y-39512169D01*
X72825964Y-39512171D01*
X72726098Y-39726335D01*
X72726094Y-39726344D01*
X72664938Y-39954586D01*
X72664936Y-39954596D01*
X72644341Y-40189999D01*
X72644341Y-40190000D01*
X72664936Y-40425403D01*
X72664938Y-40425413D01*
X72726094Y-40653655D01*
X72726096Y-40653659D01*
X72726097Y-40653663D01*
X72795105Y-40801650D01*
X72825965Y-40867830D01*
X72825967Y-40867834D01*
X72961501Y-41061395D01*
X72961506Y-41061402D01*
X73128597Y-41228493D01*
X73128603Y-41228498D01*
X73314158Y-41358425D01*
X73357783Y-41413002D01*
X73364977Y-41482500D01*
X73333454Y-41544855D01*
X73314158Y-41561575D01*
X73128597Y-41691505D01*
X72961505Y-41858597D01*
X72825965Y-42052169D01*
X72825964Y-42052171D01*
X72726098Y-42266335D01*
X72726094Y-42266344D01*
X72664938Y-42494586D01*
X72664936Y-42494596D01*
X72644341Y-42729999D01*
X72644341Y-42730000D01*
X72664936Y-42965403D01*
X72664938Y-42965413D01*
X72726094Y-43193655D01*
X72726096Y-43193659D01*
X72726097Y-43193663D01*
X72816556Y-43387652D01*
X72825965Y-43407830D01*
X72825967Y-43407834D01*
X72961501Y-43601395D01*
X72961506Y-43601402D01*
X73128597Y-43768493D01*
X73128603Y-43768498D01*
X73314158Y-43898425D01*
X73357783Y-43953002D01*
X73364977Y-44022500D01*
X73333454Y-44084855D01*
X73314158Y-44101575D01*
X73128597Y-44231505D01*
X72961505Y-44398597D01*
X72826348Y-44591623D01*
X72771771Y-44635248D01*
X72724773Y-44644500D01*
X70430952Y-44644500D01*
X70363913Y-44624815D01*
X70343271Y-44608181D01*
X49404636Y-23669546D01*
X49371151Y-23608223D01*
X49376135Y-23538531D01*
X49418007Y-23482598D01*
X49453307Y-23464161D01*
X49614016Y-23410908D01*
X49760850Y-23320340D01*
X49775171Y-23306018D01*
X49836489Y-23272533D01*
X49906181Y-23277514D01*
X49950534Y-23306017D01*
X49964461Y-23319944D01*
X49964465Y-23319947D01*
X50111188Y-23410448D01*
X50111199Y-23410453D01*
X50274847Y-23464680D01*
X50375851Y-23474999D01*
X50975000Y-23474999D01*
X51074140Y-23474999D01*
X51074154Y-23474998D01*
X51175152Y-23464680D01*
X51338800Y-23410453D01*
X51338811Y-23410448D01*
X51485534Y-23319947D01*
X51485538Y-23319944D01*
X51607444Y-23198038D01*
X51607447Y-23198034D01*
X51697948Y-23051311D01*
X51697953Y-23051300D01*
X51752180Y-22887652D01*
X51762499Y-22786654D01*
X51762500Y-22786641D01*
X51762500Y-22750000D01*
X50975000Y-22750000D01*
X50975000Y-23474999D01*
X50375851Y-23474999D01*
X50475000Y-23474998D01*
X50475000Y-22250000D01*
X50975000Y-22250000D01*
X51762499Y-22250000D01*
X51762499Y-22213360D01*
X51762498Y-22213345D01*
X51752180Y-22112347D01*
X51697953Y-21948699D01*
X51697948Y-21948688D01*
X51607447Y-21801965D01*
X51607444Y-21801961D01*
X51485538Y-21680055D01*
X51485534Y-21680052D01*
X51338811Y-21589551D01*
X51338800Y-21589546D01*
X51175152Y-21535319D01*
X51074154Y-21525000D01*
X50975000Y-21525000D01*
X50975000Y-22250000D01*
X50475000Y-22250000D01*
X50475000Y-21524999D01*
X50375860Y-21525000D01*
X50375844Y-21525001D01*
X50274847Y-21535319D01*
X50111199Y-21589546D01*
X50111188Y-21589551D01*
X49964465Y-21680052D01*
X49950532Y-21693985D01*
X49889208Y-21727468D01*
X49819516Y-21722482D01*
X49775172Y-21693982D01*
X49760851Y-21679661D01*
X49760850Y-21679660D01*
X49630890Y-21599500D01*
X49614018Y-21589093D01*
X49614013Y-21589091D01*
X49612569Y-21588612D01*
X49450253Y-21534826D01*
X49450251Y-21534825D01*
X49349184Y-21524500D01*
X49349177Y-21524500D01*
X49312229Y-21524500D01*
X49245190Y-21504815D01*
X49224548Y-21488181D01*
X49030593Y-21294225D01*
X48997108Y-21232902D01*
X48994871Y-21218697D01*
X48986024Y-21128871D01*
X48986024Y-21128868D01*
X48928814Y-20940273D01*
X48928811Y-20940269D01*
X48928811Y-20940266D01*
X48835913Y-20766467D01*
X48835909Y-20766460D01*
X48710883Y-20614116D01*
X48558539Y-20489090D01*
X48558532Y-20489086D01*
X48384733Y-20396188D01*
X48384727Y-20396186D01*
X48196132Y-20338976D01*
X48196131Y-20338975D01*
X48196122Y-20338973D01*
X48194049Y-20338561D01*
X48193065Y-20338046D01*
X48190302Y-20337208D01*
X48190461Y-20336683D01*
X48132142Y-20306169D01*
X48097574Y-20245449D01*
X48101322Y-20175680D01*
X48130571Y-20129267D01*
X52018729Y-16241110D01*
X52018733Y-16241108D01*
X52105858Y-16153983D01*
X52140084Y-16102759D01*
X52174312Y-16051536D01*
X52221463Y-15937701D01*
X52245500Y-15816857D01*
X52245500Y-15693643D01*
X52245500Y-15275226D01*
X52265185Y-15208187D01*
X52298374Y-15173654D01*
X52491401Y-15038495D01*
X52658495Y-14871401D01*
X52788425Y-14685842D01*
X52843002Y-14642217D01*
X52912500Y-14635023D01*
X52974855Y-14666546D01*
X52991575Y-14685842D01*
X53121500Y-14871395D01*
X53121505Y-14871401D01*
X53288599Y-15038495D01*
X53385384Y-15106265D01*
X53482165Y-15174032D01*
X53482167Y-15174033D01*
X53482170Y-15174035D01*
X53696337Y-15273903D01*
X53696343Y-15273904D01*
X53696344Y-15273905D01*
X53751285Y-15288626D01*
X53924592Y-15335063D01*
X54101034Y-15350500D01*
X54159999Y-15355659D01*
X54160000Y-15355659D01*
X54160001Y-15355659D01*
X54218966Y-15350500D01*
X54395408Y-15335063D01*
X54623663Y-15273903D01*
X54837830Y-15174035D01*
X55031401Y-15038495D01*
X55198495Y-14871401D01*
X55328425Y-14685842D01*
X55383002Y-14642217D01*
X55452500Y-14635023D01*
X55514855Y-14666546D01*
X55531575Y-14685842D01*
X55661500Y-14871395D01*
X55661505Y-14871401D01*
X55828599Y-15038495D01*
X55925384Y-15106265D01*
X56022165Y-15174032D01*
X56022167Y-15174033D01*
X56022170Y-15174035D01*
X56236337Y-15273903D01*
X56236343Y-15273904D01*
X56236344Y-15273905D01*
X56291285Y-15288626D01*
X56464592Y-15335063D01*
X56641034Y-15350500D01*
X56699999Y-15355659D01*
X56700000Y-15355659D01*
X56700001Y-15355659D01*
X56758966Y-15350500D01*
X56935408Y-15335063D01*
X57163663Y-15273903D01*
X57377830Y-15174035D01*
X57571401Y-15038495D01*
X57738495Y-14871401D01*
X57868425Y-14685842D01*
X57923002Y-14642217D01*
X57992500Y-14635023D01*
X58054855Y-14666546D01*
X58071575Y-14685842D01*
X58201500Y-14871395D01*
X58201505Y-14871401D01*
X58368599Y-15038495D01*
X58465384Y-15106265D01*
X58562165Y-15174032D01*
X58562167Y-15174033D01*
X58562170Y-15174035D01*
X58776337Y-15273903D01*
X58776343Y-15273904D01*
X58776344Y-15273905D01*
X58831285Y-15288626D01*
X59004592Y-15335063D01*
X59181034Y-15350500D01*
X59239999Y-15355659D01*
X59240000Y-15355659D01*
X59240001Y-15355659D01*
X59298966Y-15350500D01*
X59475408Y-15335063D01*
X59703663Y-15273903D01*
X59917830Y-15174035D01*
X60111401Y-15038495D01*
X60278495Y-14871401D01*
X60414035Y-14677830D01*
X60513903Y-14463663D01*
X60575063Y-14235408D01*
X60595659Y-14000000D01*
X60575063Y-13764592D01*
X60513903Y-13536337D01*
X60414035Y-13322171D01*
X60408731Y-13314595D01*
X60278494Y-13128597D01*
X60111402Y-12961506D01*
X60111395Y-12961501D01*
X59917834Y-12825967D01*
X59917830Y-12825965D01*
X59917828Y-12825964D01*
X59703663Y-12726097D01*
X59703659Y-12726096D01*
X59703655Y-12726094D01*
X59475413Y-12664938D01*
X59475403Y-12664936D01*
X59240001Y-12644341D01*
X59239999Y-12644341D01*
X59004596Y-12664936D01*
X59004586Y-12664938D01*
X58776344Y-12726094D01*
X58776335Y-12726098D01*
X58562171Y-12825964D01*
X58562169Y-12825965D01*
X58368597Y-12961505D01*
X58201505Y-13128597D01*
X58071575Y-13314158D01*
X58016998Y-13357783D01*
X57947500Y-13364977D01*
X57885145Y-13333454D01*
X57868425Y-13314158D01*
X57738494Y-13128597D01*
X57571402Y-12961506D01*
X57571395Y-12961501D01*
X57377834Y-12825967D01*
X57377830Y-12825965D01*
X57377828Y-12825964D01*
X57163663Y-12726097D01*
X57163659Y-12726096D01*
X57163655Y-12726094D01*
X56935413Y-12664938D01*
X56935403Y-12664936D01*
X56700001Y-12644341D01*
X56699999Y-12644341D01*
X56464596Y-12664936D01*
X56464586Y-12664938D01*
X56236344Y-12726094D01*
X56236335Y-12726098D01*
X56022171Y-12825964D01*
X56022169Y-12825965D01*
X55828597Y-12961505D01*
X55661505Y-13128597D01*
X55531575Y-13314158D01*
X55476998Y-13357783D01*
X55407500Y-13364977D01*
X55345145Y-13333454D01*
X55328425Y-13314158D01*
X55198494Y-13128597D01*
X55031402Y-12961506D01*
X55031395Y-12961501D01*
X54837834Y-12825967D01*
X54837830Y-12825965D01*
X54837828Y-12825964D01*
X54623663Y-12726097D01*
X54623659Y-12726096D01*
X54623655Y-12726094D01*
X54395413Y-12664938D01*
X54395403Y-12664936D01*
X54160001Y-12644341D01*
X54159999Y-12644341D01*
X53924596Y-12664936D01*
X53924586Y-12664938D01*
X53696344Y-12726094D01*
X53696335Y-12726098D01*
X53482171Y-12825964D01*
X53482169Y-12825965D01*
X53288597Y-12961505D01*
X53121505Y-13128597D01*
X52991575Y-13314158D01*
X52936998Y-13357783D01*
X52867500Y-13364977D01*
X52805145Y-13333454D01*
X52788425Y-13314158D01*
X52658494Y-13128597D01*
X52491402Y-12961506D01*
X52491395Y-12961501D01*
X52297834Y-12825967D01*
X52297830Y-12825965D01*
X52297828Y-12825964D01*
X52083663Y-12726097D01*
X52083659Y-12726096D01*
X52083655Y-12726094D01*
X51855413Y-12664938D01*
X51855403Y-12664936D01*
X51620001Y-12644341D01*
X51619999Y-12644341D01*
X51384596Y-12664936D01*
X51384586Y-12664938D01*
X51156344Y-12726094D01*
X51156335Y-12726098D01*
X50942171Y-12825964D01*
X50942169Y-12825965D01*
X50748597Y-12961505D01*
X50581505Y-13128597D01*
X50451575Y-13314158D01*
X50396998Y-13357783D01*
X50327500Y-13364977D01*
X50265145Y-13333454D01*
X50248425Y-13314158D01*
X50118494Y-13128597D01*
X49951402Y-12961506D01*
X49951395Y-12961501D01*
X49757834Y-12825967D01*
X49757830Y-12825965D01*
X49757828Y-12825964D01*
X49543663Y-12726097D01*
X49543659Y-12726096D01*
X49543655Y-12726094D01*
X49315413Y-12664938D01*
X49315403Y-12664936D01*
X49080001Y-12644341D01*
X49079999Y-12644341D01*
X48844596Y-12664936D01*
X48844586Y-12664938D01*
X48616344Y-12726094D01*
X48616335Y-12726098D01*
X48402171Y-12825964D01*
X48402169Y-12825965D01*
X48208597Y-12961505D01*
X48041505Y-13128597D01*
X47911575Y-13314158D01*
X47856998Y-13357783D01*
X47787500Y-13364977D01*
X47725145Y-13333454D01*
X47708425Y-13314158D01*
X47578494Y-13128597D01*
X47411402Y-12961506D01*
X47411395Y-12961501D01*
X47217834Y-12825967D01*
X47217830Y-12825965D01*
X47217828Y-12825964D01*
X47003663Y-12726097D01*
X47003659Y-12726096D01*
X47003655Y-12726094D01*
X46775413Y-12664938D01*
X46775403Y-12664936D01*
X46540001Y-12644341D01*
X46539999Y-12644341D01*
X46304596Y-12664936D01*
X46304586Y-12664938D01*
X46076344Y-12726094D01*
X46076335Y-12726098D01*
X45862171Y-12825964D01*
X45862169Y-12825965D01*
X45668597Y-12961505D01*
X45501505Y-13128597D01*
X45371575Y-13314158D01*
X45316998Y-13357783D01*
X45247500Y-13364977D01*
X45185145Y-13333454D01*
X45168425Y-13314158D01*
X45038494Y-13128597D01*
X44871402Y-12961506D01*
X44871395Y-12961501D01*
X44677834Y-12825967D01*
X44677830Y-12825965D01*
X44677828Y-12825964D01*
X44463663Y-12726097D01*
X44463659Y-12726096D01*
X44463655Y-12726094D01*
X44235413Y-12664938D01*
X44235403Y-12664936D01*
X44000001Y-12644341D01*
X43999999Y-12644341D01*
X43764596Y-12664936D01*
X43764586Y-12664938D01*
X43536344Y-12726094D01*
X43536335Y-12726098D01*
X43322171Y-12825964D01*
X43322169Y-12825965D01*
X43128597Y-12961505D01*
X42961505Y-13128597D01*
X42831575Y-13314158D01*
X42776998Y-13357783D01*
X42707500Y-13364977D01*
X42645145Y-13333454D01*
X42628425Y-13314158D01*
X42498494Y-13128597D01*
X42331402Y-12961506D01*
X42331395Y-12961501D01*
X42137834Y-12825967D01*
X42137830Y-12825965D01*
X42137828Y-12825964D01*
X41923663Y-12726097D01*
X41923659Y-12726096D01*
X41923655Y-12726094D01*
X41695413Y-12664938D01*
X41695403Y-12664936D01*
X41460001Y-12644341D01*
X41459999Y-12644341D01*
X41224596Y-12664936D01*
X41224586Y-12664938D01*
X40996344Y-12726094D01*
X40996335Y-12726098D01*
X40782171Y-12825964D01*
X40782169Y-12825965D01*
X40588597Y-12961505D01*
X40421505Y-13128597D01*
X40291575Y-13314158D01*
X40236998Y-13357783D01*
X40167500Y-13364977D01*
X40105145Y-13333454D01*
X40088425Y-13314158D01*
X39958494Y-13128597D01*
X39791402Y-12961506D01*
X39791395Y-12961501D01*
X39597834Y-12825967D01*
X39597830Y-12825965D01*
X39597828Y-12825964D01*
X39383663Y-12726097D01*
X39383659Y-12726096D01*
X39383655Y-12726094D01*
X39155413Y-12664938D01*
X39155403Y-12664936D01*
X38920001Y-12644341D01*
X38919999Y-12644341D01*
X38684596Y-12664936D01*
X38684586Y-12664938D01*
X38456344Y-12726094D01*
X38456335Y-12726098D01*
X38242171Y-12825964D01*
X38242169Y-12825965D01*
X38048597Y-12961505D01*
X37881505Y-13128597D01*
X37751575Y-13314158D01*
X37696998Y-13357783D01*
X37627500Y-13364977D01*
X37565145Y-13333454D01*
X37548425Y-13314158D01*
X37418494Y-13128597D01*
X37251402Y-12961506D01*
X37251395Y-12961501D01*
X37057834Y-12825967D01*
X37057830Y-12825965D01*
X37057828Y-12825964D01*
X36843663Y-12726097D01*
X36843659Y-12726096D01*
X36843655Y-12726094D01*
X36615413Y-12664938D01*
X36615403Y-12664936D01*
X36380001Y-12644341D01*
X36379999Y-12644341D01*
X36144596Y-12664936D01*
X36144586Y-12664938D01*
X35916344Y-12726094D01*
X35916335Y-12726098D01*
X35702171Y-12825964D01*
X35702169Y-12825965D01*
X35508597Y-12961505D01*
X35341505Y-13128597D01*
X35211575Y-13314158D01*
X35156998Y-13357783D01*
X35087500Y-13364977D01*
X35025145Y-13333454D01*
X35008425Y-13314158D01*
X34878494Y-13128597D01*
X34711402Y-12961506D01*
X34711395Y-12961501D01*
X34517834Y-12825967D01*
X34517830Y-12825965D01*
X34517828Y-12825964D01*
X34303663Y-12726097D01*
X34303659Y-12726096D01*
X34303655Y-12726094D01*
X34075413Y-12664938D01*
X34075403Y-12664936D01*
X33840001Y-12644341D01*
X33839999Y-12644341D01*
X33604596Y-12664936D01*
X33604586Y-12664938D01*
X33376344Y-12726094D01*
X33376335Y-12726098D01*
X33162171Y-12825964D01*
X33162169Y-12825965D01*
X32968597Y-12961505D01*
X32801508Y-13128594D01*
X32671269Y-13314595D01*
X32616692Y-13358219D01*
X32547193Y-13365412D01*
X32484839Y-13333890D01*
X32468119Y-13314594D01*
X32338113Y-13128926D01*
X32338108Y-13128920D01*
X32171082Y-12961894D01*
X31977578Y-12826399D01*
X31763492Y-12726570D01*
X31763486Y-12726567D01*
X31550000Y-12669364D01*
X31550000Y-13566988D01*
X31492993Y-13534075D01*
X31365826Y-13500000D01*
X31234174Y-13500000D01*
X31107007Y-13534075D01*
X31050000Y-13566988D01*
X31050000Y-12669364D01*
X31049999Y-12669364D01*
X30836513Y-12726567D01*
X30836507Y-12726570D01*
X30622422Y-12826399D01*
X30622420Y-12826400D01*
X30428926Y-12961886D01*
X30306865Y-13083947D01*
X30245542Y-13117431D01*
X30175850Y-13112447D01*
X30119917Y-13070575D01*
X30103002Y-13039598D01*
X30053797Y-12907671D01*
X30053793Y-12907664D01*
X29967547Y-12792455D01*
X29967544Y-12792452D01*
X29852335Y-12706206D01*
X29852328Y-12706202D01*
X29717482Y-12655908D01*
X29717483Y-12655908D01*
X29657883Y-12649501D01*
X29657881Y-12649500D01*
X29657873Y-12649500D01*
X29657864Y-12649500D01*
X27862129Y-12649500D01*
X27862123Y-12649501D01*
X27802516Y-12655908D01*
X27667671Y-12706202D01*
X27667664Y-12706206D01*
X27552455Y-12792452D01*
X27552452Y-12792455D01*
X27466206Y-12907664D01*
X27466202Y-12907671D01*
X27415908Y-13042517D01*
X27409501Y-13102116D01*
X27409500Y-13102135D01*
X27409500Y-14897870D01*
X27409501Y-14897876D01*
X27415908Y-14957483D01*
X27466202Y-15092328D01*
X27466206Y-15092335D01*
X27552452Y-15207544D01*
X27552455Y-15207547D01*
X27667664Y-15293793D01*
X27667671Y-15293797D01*
X27802517Y-15344091D01*
X27802516Y-15344091D01*
X27809444Y-15344835D01*
X27862127Y-15350500D01*
X29657872Y-15350499D01*
X29717483Y-15344091D01*
X29852331Y-15293796D01*
X29967546Y-15207546D01*
X30053796Y-15092331D01*
X30103002Y-14960401D01*
X30144872Y-14904468D01*
X30210337Y-14880050D01*
X30278610Y-14894901D01*
X30306865Y-14916053D01*
X30428917Y-15038105D01*
X30622421Y-15173600D01*
X30836507Y-15273429D01*
X30836516Y-15273433D01*
X31050000Y-15330634D01*
X31050000Y-14433012D01*
X31107007Y-14465925D01*
X31234174Y-14500000D01*
X31365826Y-14500000D01*
X31492993Y-14465925D01*
X31550000Y-14433012D01*
X31550000Y-15330634D01*
X31763483Y-15273433D01*
X31763492Y-15273429D01*
X31977578Y-15173600D01*
X32171082Y-15038105D01*
X32338105Y-14871082D01*
X32468119Y-14685405D01*
X32522696Y-14641781D01*
X32592195Y-14634588D01*
X32654549Y-14666110D01*
X32671269Y-14685405D01*
X32801505Y-14871401D01*
X32968599Y-15038495D01*
X33065384Y-15106265D01*
X33162165Y-15174032D01*
X33162167Y-15174033D01*
X33162170Y-15174035D01*
X33376337Y-15273903D01*
X33376343Y-15273904D01*
X33376344Y-15273905D01*
X33431285Y-15288626D01*
X33604592Y-15335063D01*
X33781034Y-15350500D01*
X33839999Y-15355659D01*
X33840000Y-15355659D01*
X33840001Y-15355659D01*
X33898966Y-15350500D01*
X34075408Y-15335063D01*
X34303663Y-15273903D01*
X34517830Y-15174035D01*
X34711401Y-15038495D01*
X34878495Y-14871401D01*
X35008425Y-14685842D01*
X35063002Y-14642217D01*
X35132500Y-14635023D01*
X35194855Y-14666546D01*
X35211575Y-14685842D01*
X35341500Y-14871395D01*
X35341505Y-14871401D01*
X35508599Y-15038495D01*
X35605384Y-15106265D01*
X35702165Y-15174032D01*
X35702167Y-15174033D01*
X35702170Y-15174035D01*
X35916337Y-15273903D01*
X35916343Y-15273904D01*
X35916344Y-15273905D01*
X35971285Y-15288626D01*
X36144592Y-15335063D01*
X36321034Y-15350500D01*
X36379999Y-15355659D01*
X36380000Y-15355659D01*
X36380001Y-15355659D01*
X36438966Y-15350500D01*
X36615408Y-15335063D01*
X36843663Y-15273903D01*
X37057830Y-15174035D01*
X37251401Y-15038495D01*
X37418495Y-14871401D01*
X37548425Y-14685842D01*
X37603002Y-14642217D01*
X37672500Y-14635023D01*
X37734855Y-14666546D01*
X37751575Y-14685842D01*
X37881500Y-14871395D01*
X37881505Y-14871401D01*
X38048599Y-15038495D01*
X38145384Y-15106265D01*
X38242165Y-15174032D01*
X38242167Y-15174033D01*
X38242170Y-15174035D01*
X38456337Y-15273903D01*
X38456343Y-15273904D01*
X38456344Y-15273905D01*
X38511285Y-15288626D01*
X38684592Y-15335063D01*
X38861034Y-15350500D01*
X38919999Y-15355659D01*
X38920000Y-15355659D01*
X38920001Y-15355659D01*
X38978966Y-15350500D01*
X39155408Y-15335063D01*
X39383663Y-15273903D01*
X39597830Y-15174035D01*
X39791401Y-15038495D01*
X39958495Y-14871401D01*
X40088425Y-14685842D01*
X40143002Y-14642217D01*
X40212500Y-14635023D01*
X40274855Y-14666546D01*
X40291575Y-14685842D01*
X40421500Y-14871395D01*
X40421505Y-14871401D01*
X40588599Y-15038495D01*
X40685384Y-15106265D01*
X40782165Y-15174032D01*
X40782167Y-15174033D01*
X40782170Y-15174035D01*
X40996337Y-15273903D01*
X40996343Y-15273904D01*
X40996344Y-15273905D01*
X41051285Y-15288626D01*
X41224592Y-15335063D01*
X41401034Y-15350500D01*
X41459999Y-15355659D01*
X41460000Y-15355659D01*
X41460001Y-15355659D01*
X41518966Y-15350500D01*
X41695408Y-15335063D01*
X41923663Y-15273903D01*
X42137830Y-15174035D01*
X42331401Y-15038495D01*
X42498495Y-14871401D01*
X42628425Y-14685842D01*
X42683002Y-14642217D01*
X42752500Y-14635023D01*
X42814855Y-14666546D01*
X42831575Y-14685842D01*
X42961500Y-14871395D01*
X42961505Y-14871401D01*
X43128599Y-15038495D01*
X43321624Y-15173653D01*
X43365248Y-15228228D01*
X43374500Y-15275226D01*
X43374500Y-20814047D01*
X43354815Y-20881086D01*
X43338181Y-20901728D01*
X42361157Y-21878751D01*
X42299834Y-21912236D01*
X42230142Y-21907252D01*
X42174210Y-21865382D01*
X42161024Y-21847768D01*
X42157046Y-21842454D01*
X42157044Y-21842453D01*
X42157044Y-21842452D01*
X42041835Y-21756206D01*
X42041828Y-21756202D01*
X41906982Y-21705908D01*
X41906983Y-21705908D01*
X41847383Y-21699501D01*
X41847381Y-21699500D01*
X41847373Y-21699500D01*
X41847364Y-21699500D01*
X40276629Y-21699500D01*
X40276623Y-21699501D01*
X40217016Y-21705908D01*
X40082171Y-21756202D01*
X40082164Y-21756206D01*
X39959855Y-21847768D01*
X39958060Y-21845370D01*
X39909904Y-21871666D01*
X39883546Y-21874500D01*
X39703748Y-21874500D01*
X39636709Y-21854815D01*
X39611600Y-21833474D01*
X39605873Y-21827114D01*
X39605869Y-21827110D01*
X39452734Y-21715851D01*
X39452729Y-21715848D01*
X39279807Y-21638857D01*
X39279802Y-21638855D01*
X39134001Y-21607865D01*
X39094646Y-21599500D01*
X38905354Y-21599500D01*
X38872897Y-21606398D01*
X38720197Y-21638855D01*
X38720192Y-21638857D01*
X38547270Y-21715848D01*
X38547265Y-21715851D01*
X38394129Y-21827111D01*
X38267466Y-21967785D01*
X38172821Y-22131715D01*
X38172818Y-22131722D01*
X38123149Y-22284590D01*
X38114326Y-22311744D01*
X38094540Y-22500000D01*
X38114326Y-22688256D01*
X38114327Y-22688259D01*
X38172818Y-22868277D01*
X38172821Y-22868284D01*
X38267467Y-23032216D01*
X38351461Y-23125500D01*
X38394129Y-23172888D01*
X38547265Y-23284148D01*
X38547270Y-23284151D01*
X38720192Y-23361142D01*
X38720197Y-23361144D01*
X38905354Y-23400500D01*
X38905355Y-23400500D01*
X39094644Y-23400500D01*
X39094646Y-23400500D01*
X39279803Y-23361144D01*
X39452730Y-23284151D01*
X39605871Y-23172888D01*
X39607846Y-23170694D01*
X39609307Y-23169794D01*
X39610701Y-23168539D01*
X39610930Y-23168793D01*
X39667329Y-23134042D01*
X39737186Y-23135367D01*
X39795237Y-23174249D01*
X39823051Y-23238344D01*
X39824001Y-23253660D01*
X39824001Y-23347878D01*
X39828179Y-23386745D01*
X39828179Y-23413250D01*
X39824000Y-23452122D01*
X39824000Y-23997869D01*
X39824001Y-23997878D01*
X39828179Y-24036745D01*
X39828179Y-24063250D01*
X39824000Y-24102122D01*
X39824000Y-24647869D01*
X39824001Y-24647878D01*
X39828179Y-24686745D01*
X39828179Y-24713250D01*
X39824000Y-24752122D01*
X39824000Y-25297869D01*
X39824001Y-25297878D01*
X39828179Y-25336745D01*
X39828179Y-25363250D01*
X39824000Y-25402122D01*
X39824000Y-25947869D01*
X39824001Y-25947878D01*
X39828179Y-25986745D01*
X39828179Y-26013250D01*
X39824000Y-26052122D01*
X39824000Y-26597869D01*
X39824001Y-26597878D01*
X39828179Y-26636745D01*
X39828179Y-26663250D01*
X39824000Y-26702122D01*
X39824000Y-26828898D01*
X39804315Y-26895937D01*
X39751511Y-26941692D01*
X39682353Y-26951636D01*
X39649564Y-26942177D01*
X39529807Y-26888857D01*
X39529802Y-26888855D01*
X39384001Y-26857865D01*
X39344646Y-26849500D01*
X39155354Y-26849500D01*
X39122897Y-26856398D01*
X38970197Y-26888855D01*
X38970192Y-26888857D01*
X38797270Y-26965848D01*
X38797265Y-26965851D01*
X38644129Y-27077111D01*
X38517466Y-27217785D01*
X38422821Y-27381715D01*
X38422818Y-27381722D01*
X38367344Y-27552455D01*
X38364326Y-27561744D01*
X38344540Y-27750000D01*
X38364326Y-27938256D01*
X38364327Y-27938259D01*
X38422818Y-28118277D01*
X38422820Y-28118281D01*
X38422821Y-28118284D01*
X38479903Y-28217153D01*
X38496375Y-28285053D01*
X38473522Y-28351080D01*
X38441406Y-28382254D01*
X38371128Y-28429211D01*
X38371129Y-28429212D01*
X38356262Y-28439145D01*
X38356260Y-28439147D01*
X35612227Y-31183181D01*
X35550904Y-31216666D01*
X35524546Y-31219500D01*
X34212129Y-31219500D01*
X34212123Y-31219501D01*
X34152516Y-31225908D01*
X34017671Y-31276202D01*
X34017664Y-31276206D01*
X33902455Y-31362452D01*
X33902452Y-31362455D01*
X33816206Y-31477664D01*
X33816202Y-31477671D01*
X33765908Y-31612517D01*
X33759501Y-31672116D01*
X33759500Y-31672135D01*
X33759500Y-33467870D01*
X33759501Y-33467876D01*
X33765908Y-33527483D01*
X33812847Y-33653332D01*
X33817831Y-33723024D01*
X33784346Y-33784347D01*
X33723022Y-33817831D01*
X33653332Y-33812847D01*
X33527482Y-33765908D01*
X33527483Y-33765908D01*
X33467883Y-33759501D01*
X33467881Y-33759500D01*
X33467873Y-33759500D01*
X33467864Y-33759500D01*
X31672129Y-33759500D01*
X31672123Y-33759501D01*
X31612516Y-33765908D01*
X31477671Y-33816202D01*
X31477664Y-33816206D01*
X31362455Y-33902452D01*
X31362452Y-33902455D01*
X31276206Y-34017664D01*
X31276202Y-34017671D01*
X31225908Y-34152517D01*
X31219501Y-34212116D01*
X31219501Y-34212123D01*
X31219500Y-34212135D01*
X31219500Y-35524546D01*
X31199815Y-35591585D01*
X31183180Y-35612227D01*
X28601269Y-38194140D01*
X28601267Y-38194142D01*
X28560803Y-38234606D01*
X28514141Y-38281267D01*
X28502697Y-38298393D01*
X28502698Y-38298394D01*
X28445687Y-38383715D01*
X28432770Y-38414900D01*
X28419853Y-38446086D01*
X28398538Y-38497544D01*
X28398535Y-38497554D01*
X28390762Y-38536631D01*
X28390763Y-38536632D01*
X28375762Y-38612051D01*
X28375761Y-38612052D01*
X28374500Y-38618391D01*
X28374500Y-39578206D01*
X28354815Y-39645245D01*
X28302011Y-39691000D01*
X28237247Y-39701496D01*
X28223333Y-39700000D01*
X27663000Y-39700000D01*
X27663000Y-40225500D01*
X27643315Y-40292539D01*
X27590511Y-40338294D01*
X27539000Y-40349500D01*
X27337000Y-40349500D01*
X27269961Y-40329815D01*
X27224206Y-40277011D01*
X27213000Y-40225500D01*
X27213000Y-39700000D01*
X26749500Y-39700000D01*
X26682461Y-39680315D01*
X26636706Y-39627511D01*
X26625500Y-39576000D01*
X26625500Y-39438393D01*
X26625499Y-39438389D01*
X26601463Y-39317548D01*
X26575916Y-39255872D01*
X26567556Y-39235688D01*
X26554314Y-39203719D01*
X26554313Y-39203717D01*
X26549606Y-39196673D01*
X26519426Y-39151505D01*
X26519426Y-39151504D01*
X26485861Y-39101271D01*
X26485855Y-39101263D01*
X26395637Y-39011045D01*
X26395606Y-39011016D01*
X19490198Y-32105608D01*
X19490178Y-32105586D01*
X19398733Y-32014141D01*
X19347509Y-31979915D01*
X19296287Y-31945689D01*
X19296286Y-31945688D01*
X19296283Y-31945686D01*
X19296280Y-31945685D01*
X19215792Y-31912347D01*
X19182453Y-31898537D01*
X19172427Y-31896543D01*
X19122029Y-31886518D01*
X19110164Y-31884158D01*
X19061610Y-31874500D01*
X19061607Y-31874500D01*
X19061606Y-31874500D01*
X15405287Y-31874500D01*
X15338248Y-31854815D01*
X15292493Y-31802011D01*
X15282549Y-31732853D01*
X15285512Y-31718407D01*
X15330636Y-31550000D01*
X14433012Y-31550000D01*
X14465925Y-31492993D01*
X14500000Y-31365826D01*
X14500000Y-31234174D01*
X14465925Y-31107007D01*
X14433012Y-31050000D01*
X15330636Y-31050000D01*
X15330635Y-31049999D01*
X15273432Y-30836513D01*
X15273429Y-30836507D01*
X15173600Y-30622422D01*
X15173599Y-30622420D01*
X15038113Y-30428926D01*
X15038108Y-30428920D01*
X14916053Y-30306865D01*
X14882568Y-30245542D01*
X14887552Y-30175850D01*
X14929424Y-30119917D01*
X14960400Y-30103002D01*
X15069123Y-30062452D01*
X15092326Y-30053798D01*
X15092326Y-30053797D01*
X15092331Y-30053796D01*
X15207546Y-29967546D01*
X15293796Y-29852331D01*
X15344091Y-29717483D01*
X15350500Y-29657873D01*
X15350499Y-27862128D01*
X15344091Y-27802517D01*
X15324503Y-27750000D01*
X15293797Y-27667671D01*
X15293793Y-27667664D01*
X15207547Y-27552455D01*
X15207544Y-27552452D01*
X15092335Y-27466206D01*
X15092328Y-27466202D01*
X14957482Y-27415908D01*
X14957483Y-27415908D01*
X14897883Y-27409501D01*
X14897881Y-27409500D01*
X14897873Y-27409500D01*
X14897864Y-27409500D01*
X13102129Y-27409500D01*
X13102123Y-27409501D01*
X13042516Y-27415908D01*
X12907671Y-27466202D01*
X12907664Y-27466206D01*
X12792455Y-27552452D01*
X12792452Y-27552455D01*
X12706206Y-27667664D01*
X12706202Y-27667671D01*
X12655908Y-27802517D01*
X12649501Y-27862116D01*
X12649501Y-27862123D01*
X12649500Y-27862135D01*
X12649500Y-29657870D01*
X12649501Y-29657876D01*
X12655908Y-29717483D01*
X12706202Y-29852328D01*
X12706206Y-29852335D01*
X12792452Y-29967544D01*
X12792455Y-29967547D01*
X12907664Y-30053793D01*
X12907671Y-30053797D01*
X12930877Y-30062452D01*
X13039598Y-30103002D01*
X13095531Y-30144873D01*
X13119949Y-30210337D01*
X13105098Y-30278610D01*
X13083947Y-30306865D01*
X12961886Y-30428926D01*
X12826400Y-30622420D01*
X12826399Y-30622422D01*
X12726570Y-30836507D01*
X12726567Y-30836513D01*
X12669364Y-31049999D01*
X12669364Y-31050000D01*
X13566988Y-31050000D01*
X13534075Y-31107007D01*
X13500000Y-31234174D01*
X13500000Y-31365826D01*
X13534075Y-31492993D01*
X13566988Y-31550000D01*
X12669364Y-31550000D01*
X12726567Y-31763486D01*
X12726570Y-31763492D01*
X12826400Y-31977579D01*
X12826402Y-31977583D01*
X12894978Y-32075519D01*
X12917305Y-32141725D01*
X12900295Y-32209492D01*
X12881084Y-32234323D01*
X12211681Y-32903727D01*
X12150358Y-32937212D01*
X12080667Y-32932228D01*
X12024733Y-32890357D01*
X12000316Y-32824892D01*
X12000000Y-32816046D01*
X12000000Y-12124000D01*
X12019685Y-12056961D01*
X12072489Y-12011206D01*
X12124000Y-12000000D01*
X75876000Y-12000000D01*
X75943039Y-12019685D01*
G37*
%TD.AperFunction*%
%TA.AperFunction,Conductor*%
G36*
X45659987Y-68282685D02*
G01*
X45680629Y-68299319D01*
X45793629Y-68412319D01*
X45827114Y-68473642D01*
X45822130Y-68543334D01*
X45793629Y-68587681D01*
X45679661Y-68701648D01*
X45589093Y-68848481D01*
X45589092Y-68848484D01*
X45534826Y-69012247D01*
X45534826Y-69012248D01*
X45534825Y-69012248D01*
X45524500Y-69113315D01*
X45524500Y-69711669D01*
X45524501Y-69711687D01*
X45534825Y-69812752D01*
X45558933Y-69885502D01*
X45589021Y-69976303D01*
X45589092Y-69976515D01*
X45589093Y-69976518D01*
X45623395Y-70032129D01*
X45679660Y-70123350D01*
X45801650Y-70245340D01*
X45813920Y-70252908D01*
X45815596Y-70253942D01*
X45862321Y-70305890D01*
X45874500Y-70359481D01*
X45874500Y-71911482D01*
X45854815Y-71978521D01*
X45821623Y-72013057D01*
X45752479Y-72061471D01*
X45601472Y-72212478D01*
X45478977Y-72387421D01*
X45388725Y-72580968D01*
X45386870Y-72586064D01*
X45384749Y-72585292D01*
X45353406Y-72636710D01*
X45290558Y-72667237D01*
X45221183Y-72658939D01*
X45167307Y-72614452D01*
X45154169Y-72585685D01*
X45153130Y-72586064D01*
X45151279Y-72580983D01*
X45151276Y-72580970D01*
X45061021Y-72387419D01*
X44938529Y-72212481D01*
X44938527Y-72212478D01*
X44787521Y-72061472D01*
X44612578Y-71938977D01*
X44612579Y-71938977D01*
X44483358Y-71878721D01*
X44419030Y-71848724D01*
X44419026Y-71848723D01*
X44419022Y-71848721D01*
X44212752Y-71793452D01*
X44212748Y-71793451D01*
X44212747Y-71793451D01*
X44212746Y-71793450D01*
X44212741Y-71793450D01*
X44000002Y-71774838D01*
X43999997Y-71774838D01*
X43906983Y-71782975D01*
X43838484Y-71769208D01*
X43808496Y-71747128D01*
X42881819Y-70820451D01*
X42848334Y-70759128D01*
X42845500Y-70732770D01*
X42845500Y-70008240D01*
X42865185Y-69941201D01*
X42917989Y-69895446D01*
X42987147Y-69885502D01*
X43050703Y-69914527D01*
X43087207Y-69969238D01*
X43089548Y-69976303D01*
X43089551Y-69976311D01*
X43180052Y-70123034D01*
X43180055Y-70123038D01*
X43301961Y-70244944D01*
X43301965Y-70244947D01*
X43448688Y-70335448D01*
X43448699Y-70335453D01*
X43612347Y-70389680D01*
X43713352Y-70399999D01*
X43750000Y-70399999D01*
X44250000Y-70399999D01*
X44286640Y-70399999D01*
X44286654Y-70399998D01*
X44387652Y-70389680D01*
X44551300Y-70335453D01*
X44551311Y-70335448D01*
X44698034Y-70244947D01*
X44698038Y-70244944D01*
X44819944Y-70123038D01*
X44819947Y-70123034D01*
X44910448Y-69976311D01*
X44910453Y-69976300D01*
X44964680Y-69812652D01*
X44974999Y-69711654D01*
X44975000Y-69711641D01*
X44975000Y-69612500D01*
X44250000Y-69612500D01*
X44250000Y-70399999D01*
X43750000Y-70399999D01*
X43750000Y-69236500D01*
X43769685Y-69169461D01*
X43822489Y-69123706D01*
X43874000Y-69112500D01*
X44974999Y-69112500D01*
X44974999Y-69013360D01*
X44974998Y-69013345D01*
X44964680Y-68912347D01*
X44910453Y-68748699D01*
X44910448Y-68748688D01*
X44819947Y-68601965D01*
X44819944Y-68601961D01*
X44806017Y-68588034D01*
X44772532Y-68526711D01*
X44777516Y-68457019D01*
X44806017Y-68412672D01*
X44820340Y-68398350D01*
X44820342Y-68398347D01*
X44867494Y-68321903D01*
X44919442Y-68275178D01*
X44973032Y-68263000D01*
X45592948Y-68263000D01*
X45659987Y-68282685D01*
G37*
%TD.AperFunction*%
%TA.AperFunction,Conductor*%
G36*
X49500702Y-58885738D02*
G01*
X49507180Y-58891770D01*
X53828181Y-63212771D01*
X53861666Y-63274094D01*
X53864500Y-63300452D01*
X53864500Y-66640518D01*
X53844815Y-66707557D01*
X53805600Y-66746055D01*
X53791650Y-66754660D01*
X53791649Y-66754660D01*
X53669661Y-66876648D01*
X53579093Y-67023481D01*
X53579091Y-67023486D01*
X53567478Y-67058532D01*
X53524826Y-67187247D01*
X53524826Y-67187248D01*
X53524825Y-67187248D01*
X53514500Y-67288315D01*
X53514500Y-67986669D01*
X53514501Y-67986687D01*
X53524825Y-68087752D01*
X53552754Y-68172033D01*
X53579092Y-68251516D01*
X53669658Y-68398347D01*
X53669661Y-68398351D01*
X53683982Y-68412672D01*
X53717467Y-68473995D01*
X53712483Y-68543687D01*
X53683985Y-68588032D01*
X53670052Y-68601965D01*
X53579551Y-68748688D01*
X53579546Y-68748699D01*
X53525319Y-68912347D01*
X53515000Y-69013345D01*
X53515000Y-69112500D01*
X55464999Y-69112500D01*
X55464999Y-69013360D01*
X55464998Y-69013345D01*
X55454680Y-68912347D01*
X55400453Y-68748699D01*
X55400448Y-68748688D01*
X55309947Y-68601965D01*
X55309944Y-68601961D01*
X55296017Y-68588034D01*
X55262532Y-68526711D01*
X55267516Y-68457019D01*
X55296017Y-68412672D01*
X55310340Y-68398350D01*
X55310342Y-68398347D01*
X55357494Y-68321903D01*
X55409442Y-68275178D01*
X55463032Y-68263000D01*
X56082948Y-68263000D01*
X56149987Y-68282685D01*
X56170629Y-68299319D01*
X56283629Y-68412319D01*
X56317114Y-68473642D01*
X56312130Y-68543334D01*
X56283629Y-68587681D01*
X56169661Y-68701648D01*
X56079093Y-68848481D01*
X56079092Y-68848484D01*
X56024826Y-69012247D01*
X56024826Y-69012248D01*
X56024825Y-69012248D01*
X56014500Y-69113315D01*
X56014500Y-69711669D01*
X56014501Y-69711687D01*
X56024825Y-69812752D01*
X56048933Y-69885502D01*
X56079021Y-69976303D01*
X56079092Y-69976515D01*
X56079093Y-69976518D01*
X56113395Y-70032129D01*
X56169660Y-70123350D01*
X56291650Y-70245340D01*
X56303920Y-70252908D01*
X56305596Y-70253942D01*
X56352321Y-70305890D01*
X56364500Y-70359481D01*
X56364500Y-71918484D01*
X56344815Y-71985523D01*
X56311623Y-72020059D01*
X56252479Y-72061471D01*
X56101472Y-72212478D01*
X55978977Y-72387421D01*
X55888725Y-72580968D01*
X55886870Y-72586064D01*
X55884749Y-72585292D01*
X55853406Y-72636710D01*
X55790558Y-72667237D01*
X55721183Y-72658939D01*
X55667307Y-72614452D01*
X55654169Y-72585685D01*
X55653130Y-72586064D01*
X55651279Y-72580983D01*
X55651276Y-72580970D01*
X55561021Y-72387419D01*
X55438529Y-72212481D01*
X55438527Y-72212478D01*
X55287521Y-72061472D01*
X55112578Y-71938977D01*
X55112579Y-71938977D01*
X54983358Y-71878721D01*
X54919030Y-71848724D01*
X54919026Y-71848723D01*
X54919022Y-71848721D01*
X54712752Y-71793452D01*
X54712748Y-71793451D01*
X54712747Y-71793451D01*
X54712746Y-71793450D01*
X54712741Y-71793450D01*
X54500002Y-71774838D01*
X54499997Y-71774838D01*
X54406982Y-71782975D01*
X54338482Y-71769208D01*
X54308495Y-71747128D01*
X52273021Y-69711654D01*
X53515001Y-69711654D01*
X53525319Y-69812652D01*
X53579546Y-69976300D01*
X53579551Y-69976311D01*
X53670052Y-70123034D01*
X53670055Y-70123038D01*
X53791961Y-70244944D01*
X53791965Y-70244947D01*
X53938688Y-70335448D01*
X53938699Y-70335453D01*
X54102347Y-70389680D01*
X54203352Y-70399999D01*
X54240000Y-70399999D01*
X54740000Y-70399999D01*
X54776640Y-70399999D01*
X54776654Y-70399998D01*
X54877652Y-70389680D01*
X55041300Y-70335453D01*
X55041311Y-70335448D01*
X55188034Y-70244947D01*
X55188038Y-70244944D01*
X55309944Y-70123038D01*
X55309947Y-70123034D01*
X55400448Y-69976311D01*
X55400453Y-69976300D01*
X55454680Y-69812652D01*
X55464999Y-69711654D01*
X55465000Y-69711641D01*
X55465000Y-69612500D01*
X54740000Y-69612500D01*
X54740000Y-70399999D01*
X54240000Y-70399999D01*
X54240000Y-69612500D01*
X53515001Y-69612500D01*
X53515001Y-69711654D01*
X52273021Y-69711654D01*
X49231819Y-66670451D01*
X49198334Y-66609128D01*
X49195500Y-66582770D01*
X49195500Y-65930780D01*
X49215185Y-65863741D01*
X49267989Y-65817986D01*
X49337147Y-65808042D01*
X49384594Y-65825239D01*
X49523484Y-65910908D01*
X49687247Y-65965174D01*
X49788323Y-65975500D01*
X50486676Y-65975499D01*
X50486684Y-65975498D01*
X50486687Y-65975498D01*
X50542030Y-65969844D01*
X50587753Y-65965174D01*
X50751516Y-65910908D01*
X50898350Y-65820340D01*
X50912671Y-65806018D01*
X50973989Y-65772533D01*
X51043681Y-65777514D01*
X51088034Y-65806017D01*
X51101961Y-65819944D01*
X51101965Y-65819947D01*
X51248688Y-65910448D01*
X51248699Y-65910453D01*
X51412347Y-65964680D01*
X51513351Y-65974999D01*
X52112500Y-65974999D01*
X52211640Y-65974999D01*
X52211654Y-65974998D01*
X52312652Y-65964680D01*
X52476300Y-65910453D01*
X52476311Y-65910448D01*
X52623034Y-65819947D01*
X52623038Y-65819944D01*
X52744944Y-65698038D01*
X52744947Y-65698034D01*
X52835448Y-65551311D01*
X52835453Y-65551300D01*
X52889680Y-65387652D01*
X52899999Y-65286654D01*
X52900000Y-65286641D01*
X52900000Y-65250000D01*
X52112500Y-65250000D01*
X52112500Y-65974999D01*
X51513351Y-65974999D01*
X51612500Y-65974998D01*
X51612500Y-64750000D01*
X52112500Y-64750000D01*
X52899999Y-64750000D01*
X52899999Y-64713360D01*
X52899998Y-64713345D01*
X52889680Y-64612347D01*
X52835453Y-64448699D01*
X52835448Y-64448688D01*
X52744947Y-64301965D01*
X52744944Y-64301961D01*
X52623038Y-64180055D01*
X52623034Y-64180052D01*
X52476311Y-64089551D01*
X52476300Y-64089546D01*
X52312652Y-64035319D01*
X52211654Y-64025000D01*
X52112500Y-64025000D01*
X52112500Y-64750000D01*
X51612500Y-64750000D01*
X51612500Y-64024999D01*
X51513360Y-64025000D01*
X51513344Y-64025001D01*
X51412347Y-64035319D01*
X51248699Y-64089546D01*
X51248688Y-64089551D01*
X51101965Y-64180052D01*
X51088032Y-64193985D01*
X51026708Y-64227468D01*
X50957016Y-64222482D01*
X50912672Y-64193982D01*
X50898351Y-64179661D01*
X50898350Y-64179660D01*
X50841019Y-64144298D01*
X50803014Y-64107650D01*
X50802585Y-64107008D01*
X50802584Y-64107005D01*
X50720451Y-63984084D01*
X50615916Y-63879549D01*
X50530592Y-63794224D01*
X50497108Y-63732900D01*
X50494871Y-63718697D01*
X50493784Y-63707664D01*
X50486024Y-63628868D01*
X50428814Y-63440273D01*
X50428811Y-63440269D01*
X50428811Y-63440266D01*
X50335913Y-63266467D01*
X50335909Y-63266460D01*
X50210883Y-63114116D01*
X50058539Y-62989090D01*
X50058532Y-62989086D01*
X49884733Y-62896188D01*
X49884727Y-62896186D01*
X49696132Y-62838976D01*
X49696129Y-62838975D01*
X49606298Y-62830127D01*
X49541511Y-62803965D01*
X49530773Y-62794405D01*
X49231819Y-62495450D01*
X49198334Y-62434127D01*
X49195500Y-62407769D01*
X49195500Y-60391438D01*
X49215185Y-60324399D01*
X49220234Y-60317126D01*
X49238796Y-60292331D01*
X49238888Y-60292086D01*
X49272517Y-60201919D01*
X49289091Y-60157483D01*
X49295500Y-60097873D01*
X49295499Y-58979450D01*
X49315184Y-58912412D01*
X49367987Y-58866657D01*
X49437146Y-58856713D01*
X49500702Y-58885738D01*
G37*
%TD.AperFunction*%
%TA.AperFunction,Conductor*%
G36*
X46513180Y-66014715D02*
G01*
X46546666Y-66076038D01*
X46549500Y-66102398D01*
X46549500Y-66475500D01*
X46529815Y-66542539D01*
X46477011Y-66588294D01*
X46425501Y-66599500D01*
X46213331Y-66599500D01*
X46213312Y-66599501D01*
X46112247Y-66609825D01*
X45948484Y-66664092D01*
X45948477Y-66664096D01*
X45912953Y-66686007D01*
X45845560Y-66704447D01*
X45778897Y-66683524D01*
X45734128Y-66629881D01*
X45725467Y-66560550D01*
X45740470Y-66518468D01*
X45827179Y-66368284D01*
X45885674Y-66188256D01*
X45893789Y-66111036D01*
X45920373Y-66046424D01*
X45977671Y-66006439D01*
X46017110Y-66000000D01*
X46302828Y-66000000D01*
X46302844Y-65999999D01*
X46362372Y-65993598D01*
X46362380Y-65993596D01*
X46382165Y-65986217D01*
X46451856Y-65981231D01*
X46513180Y-66014715D01*
G37*
%TD.AperFunction*%
%TA.AperFunction,Conductor*%
G36*
X68330703Y-59550739D02*
G01*
X68337181Y-59556771D01*
X69913181Y-61132771D01*
X69946666Y-61194094D01*
X69949500Y-61220452D01*
X69949500Y-61532869D01*
X69949501Y-61532876D01*
X69955908Y-61592483D01*
X70000114Y-61711005D01*
X70005098Y-61780697D01*
X69971613Y-61842019D01*
X69417049Y-62396581D01*
X69417045Y-62396585D01*
X69369476Y-62467782D01*
X69369475Y-62467784D01*
X69366626Y-62472048D01*
X69334916Y-62519504D01*
X69334912Y-62519511D01*
X69278343Y-62656082D01*
X69278340Y-62656092D01*
X69249500Y-62801079D01*
X69249500Y-64070500D01*
X69229815Y-64137539D01*
X69177011Y-64183294D01*
X69125500Y-64194500D01*
X67174500Y-64194500D01*
X67107461Y-64174815D01*
X67061706Y-64122011D01*
X67050500Y-64070500D01*
X67050499Y-63277129D01*
X67050498Y-63277123D01*
X67050172Y-63274094D01*
X67044091Y-63217517D01*
X66993796Y-63082669D01*
X66993793Y-63082665D01*
X66993776Y-63082619D01*
X66988792Y-63012927D01*
X66993776Y-62995951D01*
X67043597Y-62862376D01*
X67043598Y-62862372D01*
X67049999Y-62802844D01*
X67050000Y-62802827D01*
X67050000Y-62655000D01*
X65649000Y-62655000D01*
X65581961Y-62635315D01*
X65536206Y-62582511D01*
X65525000Y-62531000D01*
X65525000Y-62279000D01*
X65544685Y-62211961D01*
X65597489Y-62166206D01*
X65649000Y-62155000D01*
X67050000Y-62155000D01*
X67050000Y-62007172D01*
X67049999Y-62007155D01*
X67043598Y-61947627D01*
X67043597Y-61947623D01*
X66993776Y-61814049D01*
X66988792Y-61744358D01*
X66993776Y-61727381D01*
X66993793Y-61727334D01*
X66993796Y-61727331D01*
X67044091Y-61592483D01*
X67050500Y-61532873D01*
X67050499Y-61220450D01*
X67070183Y-61153412D01*
X67086813Y-61132775D01*
X67985858Y-60233733D01*
X68054312Y-60131285D01*
X68095347Y-60032216D01*
X68101463Y-60017452D01*
X68105599Y-59996658D01*
X68125501Y-59896606D01*
X68125501Y-59773393D01*
X68125501Y-59768283D01*
X68125500Y-59768257D01*
X68125500Y-59644452D01*
X68145185Y-59577413D01*
X68197989Y-59531658D01*
X68267147Y-59521714D01*
X68330703Y-59550739D01*
G37*
%TD.AperFunction*%
%TA.AperFunction,Conductor*%
G36*
X31194289Y-50137218D02*
G01*
X31223881Y-50200511D01*
X31224834Y-50230063D01*
X31214341Y-50349998D01*
X31214341Y-50350000D01*
X31234936Y-50585403D01*
X31234938Y-50585413D01*
X31296094Y-50813655D01*
X31296096Y-50813659D01*
X31296097Y-50813663D01*
X31358965Y-50948484D01*
X31395965Y-51027830D01*
X31395967Y-51027834D01*
X31504281Y-51182521D01*
X31525849Y-51213324D01*
X31531501Y-51221395D01*
X31531506Y-51221402D01*
X31698597Y-51388493D01*
X31698603Y-51388498D01*
X31884158Y-51518425D01*
X31927783Y-51573002D01*
X31934977Y-51642500D01*
X31903454Y-51704855D01*
X31884158Y-51721575D01*
X31698597Y-51851505D01*
X31531505Y-52018597D01*
X31395965Y-52212169D01*
X31395964Y-52212171D01*
X31296098Y-52426335D01*
X31296094Y-52426344D01*
X31234938Y-52654586D01*
X31234936Y-52654596D01*
X31214341Y-52889999D01*
X31214341Y-52890000D01*
X31234936Y-53125403D01*
X31234938Y-53125413D01*
X31296094Y-53353655D01*
X31296096Y-53353659D01*
X31296097Y-53353663D01*
X31360355Y-53491464D01*
X31395965Y-53567830D01*
X31395967Y-53567834D01*
X31504227Y-53722444D01*
X31531505Y-53761401D01*
X31698599Y-53928495D01*
X31780298Y-53985701D01*
X31892165Y-54064032D01*
X31892167Y-54064033D01*
X31892170Y-54064035D01*
X32106337Y-54163903D01*
X32334592Y-54225063D01*
X32522918Y-54241539D01*
X32569999Y-54245659D01*
X32570000Y-54245659D01*
X32570001Y-54245659D01*
X32609234Y-54242226D01*
X32805408Y-54225063D01*
X33033663Y-54163903D01*
X33247830Y-54064035D01*
X33441401Y-53928495D01*
X33608495Y-53761401D01*
X33744035Y-53567830D01*
X33843903Y-53353663D01*
X33905063Y-53125408D01*
X33925659Y-52890000D01*
X33905063Y-52654592D01*
X33882714Y-52571186D01*
X33878143Y-52554125D01*
X33879806Y-52484276D01*
X33910233Y-52434355D01*
X34182772Y-52161816D01*
X34244094Y-52128334D01*
X34270452Y-52125500D01*
X34640519Y-52125500D01*
X34707558Y-52145185D01*
X34746058Y-52184404D01*
X34754660Y-52198350D01*
X34876650Y-52320340D01*
X35023484Y-52410908D01*
X35187247Y-52465174D01*
X35288323Y-52475500D01*
X35886676Y-52475499D01*
X35886684Y-52475498D01*
X35886687Y-52475498D01*
X35942030Y-52469844D01*
X35987753Y-52465174D01*
X36151516Y-52410908D01*
X36298350Y-52320340D01*
X36412675Y-52206014D01*
X36473994Y-52172532D01*
X36543686Y-52177516D01*
X36588034Y-52206017D01*
X36701961Y-52319944D01*
X36701965Y-52319947D01*
X36848688Y-52410448D01*
X36848701Y-52410454D01*
X36955499Y-52445843D01*
X37012944Y-52485615D01*
X37039768Y-52550131D01*
X37027453Y-52618907D01*
X37004177Y-52651230D01*
X35612227Y-54043181D01*
X35550904Y-54076666D01*
X35524546Y-54079500D01*
X34212129Y-54079500D01*
X34212123Y-54079501D01*
X34152516Y-54085908D01*
X34017671Y-54136202D01*
X34017664Y-54136206D01*
X33902455Y-54222452D01*
X33902452Y-54222455D01*
X33816206Y-54337664D01*
X33816202Y-54337671D01*
X33765908Y-54472517D01*
X33759501Y-54532116D01*
X33759500Y-54532135D01*
X33759500Y-56327870D01*
X33759501Y-56327876D01*
X33765908Y-56387483D01*
X33816202Y-56522328D01*
X33816206Y-56522335D01*
X33902452Y-56637544D01*
X33902455Y-56637547D01*
X34017664Y-56723793D01*
X34017671Y-56723797D01*
X34152517Y-56774091D01*
X34152516Y-56774091D01*
X34158163Y-56774698D01*
X34212127Y-56780500D01*
X36007872Y-56780499D01*
X36067483Y-56774091D01*
X36202331Y-56723796D01*
X36317546Y-56637546D01*
X36403796Y-56522331D01*
X36452810Y-56390916D01*
X36494681Y-56334984D01*
X36560145Y-56310566D01*
X36628418Y-56325417D01*
X36656673Y-56346569D01*
X36778599Y-56468495D01*
X36868157Y-56531204D01*
X36972165Y-56604032D01*
X36972167Y-56604033D01*
X36972170Y-56604035D01*
X37186337Y-56703903D01*
X37186343Y-56703904D01*
X37186344Y-56703905D01*
X37232828Y-56716360D01*
X37414592Y-56765063D01*
X37591034Y-56780500D01*
X37649999Y-56785659D01*
X37650000Y-56785659D01*
X37650001Y-56785659D01*
X37708966Y-56780500D01*
X37885408Y-56765063D01*
X38113663Y-56703903D01*
X38327830Y-56604035D01*
X38521401Y-56468495D01*
X38688495Y-56301401D01*
X38818426Y-56115841D01*
X38873002Y-56072217D01*
X38942500Y-56065023D01*
X39004855Y-56096546D01*
X39021575Y-56115842D01*
X39151500Y-56301395D01*
X39151505Y-56301401D01*
X39318599Y-56468495D01*
X39408157Y-56531204D01*
X39512165Y-56604032D01*
X39512167Y-56604033D01*
X39512170Y-56604035D01*
X39726337Y-56703903D01*
X39726343Y-56703904D01*
X39726344Y-56703905D01*
X39772828Y-56716360D01*
X39954592Y-56765063D01*
X40131034Y-56780500D01*
X40189999Y-56785659D01*
X40190000Y-56785659D01*
X40190001Y-56785659D01*
X40248966Y-56780500D01*
X40425408Y-56765063D01*
X40653663Y-56703903D01*
X40867830Y-56604035D01*
X41061401Y-56468495D01*
X41228495Y-56301401D01*
X41358426Y-56115841D01*
X41413002Y-56072217D01*
X41482500Y-56065023D01*
X41544855Y-56096546D01*
X41561575Y-56115842D01*
X41691501Y-56301396D01*
X41691506Y-56301402D01*
X41858597Y-56468493D01*
X41858603Y-56468498D01*
X41962998Y-56541596D01*
X42006623Y-56596173D01*
X42013817Y-56665671D01*
X41982294Y-56728026D01*
X41979556Y-56730852D01*
X40747227Y-57963181D01*
X40685904Y-57996666D01*
X40659547Y-57999500D01*
X40427130Y-57999500D01*
X40427123Y-57999501D01*
X40367515Y-58005909D01*
X40232617Y-58056222D01*
X40162926Y-58061206D01*
X40145952Y-58056222D01*
X40012380Y-58006403D01*
X40012372Y-58006401D01*
X39952844Y-58000000D01*
X39805000Y-58000000D01*
X39805000Y-60550000D01*
X39952828Y-60550000D01*
X39952844Y-60549999D01*
X40012372Y-60543598D01*
X40012376Y-60543597D01*
X40145951Y-60493776D01*
X40215642Y-60488792D01*
X40232619Y-60493776D01*
X40232665Y-60493793D01*
X40232669Y-60493796D01*
X40367517Y-60544091D01*
X40427127Y-60550500D01*
X41222872Y-60550499D01*
X41282483Y-60544091D01*
X41417331Y-60493796D01*
X41417334Y-60493793D01*
X41417381Y-60493776D01*
X41487073Y-60488792D01*
X41504049Y-60493776D01*
X41637623Y-60543597D01*
X41637627Y-60543598D01*
X41697155Y-60549999D01*
X41697172Y-60550000D01*
X41845000Y-60550000D01*
X41845000Y-59149000D01*
X41864685Y-59081961D01*
X41917489Y-59036206D01*
X41969000Y-59025000D01*
X42221000Y-59025000D01*
X42288039Y-59044685D01*
X42333794Y-59097489D01*
X42345000Y-59149000D01*
X42345000Y-60307370D01*
X42325315Y-60374409D01*
X42313150Y-60390342D01*
X42254813Y-60455132D01*
X42160168Y-60619062D01*
X42160165Y-60619069D01*
X42113951Y-60761302D01*
X42101673Y-60799091D01*
X42081887Y-60987347D01*
X42101673Y-61175603D01*
X42101674Y-61175606D01*
X42113558Y-61212182D01*
X42115553Y-61282024D01*
X42079472Y-61341856D01*
X42016771Y-61372684D01*
X41995627Y-61374500D01*
X36810452Y-61374500D01*
X36743413Y-61354815D01*
X36722771Y-61338181D01*
X35482434Y-60097844D01*
X38705000Y-60097844D01*
X38711401Y-60157372D01*
X38711403Y-60157379D01*
X38761645Y-60292086D01*
X38761649Y-60292093D01*
X38847809Y-60407187D01*
X38847812Y-60407190D01*
X38962906Y-60493350D01*
X38962913Y-60493354D01*
X39097620Y-60543596D01*
X39097627Y-60543598D01*
X39157155Y-60549999D01*
X39157172Y-60550000D01*
X39305000Y-60550000D01*
X39305000Y-59525000D01*
X38705000Y-59525000D01*
X38705000Y-60097844D01*
X35482434Y-60097844D01*
X33836745Y-58452155D01*
X38705000Y-58452155D01*
X38705000Y-59025000D01*
X39305000Y-59025000D01*
X39305000Y-58000000D01*
X39157155Y-58000000D01*
X39097627Y-58006401D01*
X39097620Y-58006403D01*
X38962913Y-58056645D01*
X38962906Y-58056649D01*
X38847812Y-58142809D01*
X38847809Y-58142812D01*
X38761649Y-58257906D01*
X38761645Y-58257913D01*
X38711403Y-58392620D01*
X38711401Y-58392627D01*
X38705000Y-58452155D01*
X33836745Y-58452155D01*
X25721771Y-50337181D01*
X25688286Y-50275858D01*
X25693270Y-50206166D01*
X25735142Y-50150233D01*
X25800606Y-50125816D01*
X25809452Y-50125500D01*
X30941608Y-50125500D01*
X30941608Y-50125499D01*
X31014967Y-50110908D01*
X31014968Y-50110908D01*
X31030940Y-50107730D01*
X31062452Y-50101463D01*
X31062462Y-50101458D01*
X31065308Y-50100596D01*
X31066882Y-50100581D01*
X31068425Y-50100275D01*
X31068483Y-50100567D01*
X31135175Y-50099971D01*
X31194289Y-50137218D01*
G37*
%TD.AperFunction*%
%TA.AperFunction,Conductor*%
G36*
X21193040Y-54795185D02*
G01*
X21238795Y-54847989D01*
X21250001Y-54899500D01*
X21250001Y-54939324D01*
X21265442Y-55056628D01*
X21265444Y-55056633D01*
X21325899Y-55202585D01*
X21422075Y-55327924D01*
X21547413Y-55424100D01*
X21693365Y-55484554D01*
X21693369Y-55484555D01*
X21810676Y-55499999D01*
X22299999Y-55499999D01*
X22300000Y-55499998D01*
X22300000Y-54974499D01*
X22319685Y-54907460D01*
X22372489Y-54861705D01*
X22423997Y-54850499D01*
X22576001Y-54850499D01*
X22643039Y-54870184D01*
X22688794Y-54922988D01*
X22700000Y-54974499D01*
X22700000Y-55499999D01*
X23189324Y-55499999D01*
X23306628Y-55484557D01*
X23306633Y-55484555D01*
X23452585Y-55424100D01*
X23577924Y-55327924D01*
X23674100Y-55202586D01*
X23715168Y-55103438D01*
X23759008Y-55049034D01*
X23825302Y-55026969D01*
X23893002Y-55044248D01*
X23940612Y-55095385D01*
X23944290Y-55103438D01*
X23985462Y-55202838D01*
X23985463Y-55202840D01*
X23985464Y-55202841D01*
X24081718Y-55328282D01*
X24207159Y-55424536D01*
X24353238Y-55485044D01*
X24470639Y-55500500D01*
X25849360Y-55500499D01*
X25849363Y-55500499D01*
X25966753Y-55485046D01*
X25966757Y-55485044D01*
X25966762Y-55485044D01*
X26087726Y-55434938D01*
X26135179Y-55425500D01*
X26489548Y-55425500D01*
X26556587Y-55445185D01*
X26577229Y-55461819D01*
X27043527Y-55928117D01*
X27077012Y-55989440D01*
X27072028Y-56059132D01*
X27030156Y-56115065D01*
X27014300Y-56125156D01*
X26941464Y-56164088D01*
X26941460Y-56164090D01*
X26789116Y-56289116D01*
X26664090Y-56441460D01*
X26664086Y-56441467D01*
X26571188Y-56615266D01*
X26513975Y-56803870D01*
X26494659Y-57000000D01*
X26513975Y-57196129D01*
X26571188Y-57384732D01*
X26663939Y-57558257D01*
X26678181Y-57626660D01*
X26653181Y-57691903D01*
X26613910Y-57723088D01*
X26614817Y-57724589D01*
X26608399Y-57728468D01*
X26608398Y-57728469D01*
X26544417Y-57767147D01*
X26470608Y-57811766D01*
X26356766Y-57925608D01*
X26307925Y-58006401D01*
X26277552Y-58056645D01*
X26273468Y-58063400D01*
X26268385Y-58079712D01*
X26229647Y-58137860D01*
X26165621Y-58165833D01*
X26096636Y-58154751D01*
X26044594Y-58108132D01*
X26031615Y-58079712D01*
X26029079Y-58071575D01*
X26026531Y-58063398D01*
X25943236Y-57925612D01*
X25943234Y-57925610D01*
X25943233Y-57925608D01*
X25829391Y-57811766D01*
X25813254Y-57802011D01*
X25691602Y-57728469D01*
X25537887Y-57680570D01*
X25537885Y-57680569D01*
X25537883Y-57680569D01*
X25491117Y-57676319D01*
X25471091Y-57674500D01*
X25471088Y-57674500D01*
X24128901Y-57674500D01*
X24062117Y-57680568D01*
X24062106Y-57680571D01*
X23908401Y-57728467D01*
X23770608Y-57811766D01*
X23770607Y-57811767D01*
X23744194Y-57838181D01*
X23682871Y-57871666D01*
X23656513Y-57874500D01*
X16549452Y-57874500D01*
X16482413Y-57854815D01*
X16436658Y-57802011D01*
X16426714Y-57732853D01*
X16455739Y-57669297D01*
X16461771Y-57662819D01*
X19312771Y-54811819D01*
X19374094Y-54778334D01*
X19400452Y-54775500D01*
X21126001Y-54775500D01*
X21193040Y-54795185D01*
G37*
%TD.AperFunction*%
%TA.AperFunction,Conductor*%
G36*
X15560862Y-43905898D02*
G01*
X15567340Y-43911930D01*
X18326016Y-46670606D01*
X18326045Y-46670637D01*
X18416263Y-46760855D01*
X18416267Y-46760858D01*
X18518707Y-46829307D01*
X18518713Y-46829310D01*
X18518714Y-46829311D01*
X18632548Y-46876463D01*
X18692971Y-46888481D01*
X18753393Y-46900500D01*
X18753394Y-46900500D01*
X20200000Y-46900500D01*
X20267039Y-46920185D01*
X20312794Y-46972989D01*
X20324000Y-47024500D01*
X20324000Y-47063269D01*
X20304315Y-47130308D01*
X20287685Y-47150945D01*
X20240758Y-47197873D01*
X20219225Y-47219406D01*
X20157901Y-47252890D01*
X20143700Y-47255127D01*
X20053870Y-47263975D01*
X19865266Y-47321188D01*
X19691467Y-47414086D01*
X19691460Y-47414090D01*
X19539116Y-47539116D01*
X19414090Y-47691460D01*
X19414086Y-47691467D01*
X19321188Y-47865266D01*
X19263975Y-48053870D01*
X19244659Y-48250000D01*
X19263975Y-48446129D01*
X19272732Y-48474998D01*
X19315607Y-48616337D01*
X19321188Y-48634733D01*
X19414086Y-48808532D01*
X19414090Y-48808539D01*
X19539116Y-48960883D01*
X19691460Y-49085909D01*
X19691467Y-49085913D01*
X19865266Y-49178811D01*
X19865269Y-49178811D01*
X19865273Y-49178814D01*
X20053868Y-49236024D01*
X20143697Y-49244871D01*
X20208485Y-49271031D01*
X20219225Y-49280593D01*
X20518227Y-49579594D01*
X20548251Y-49628268D01*
X20589092Y-49751516D01*
X20679660Y-49898350D01*
X20679661Y-49898351D01*
X20693982Y-49912672D01*
X20727467Y-49973995D01*
X20722483Y-50043687D01*
X20693985Y-50088032D01*
X20680052Y-50101965D01*
X20589551Y-50248688D01*
X20589546Y-50248699D01*
X20535319Y-50412347D01*
X20525000Y-50513345D01*
X20525000Y-50612500D01*
X22474999Y-50612500D01*
X22474999Y-50513360D01*
X22474998Y-50513345D01*
X22464680Y-50412347D01*
X22410453Y-50248699D01*
X22410448Y-50248688D01*
X22319947Y-50101965D01*
X22319944Y-50101961D01*
X22306017Y-50088034D01*
X22272532Y-50026711D01*
X22277516Y-49957019D01*
X22306017Y-49912672D01*
X22320340Y-49898350D01*
X22410908Y-49751516D01*
X22465174Y-49587753D01*
X22475500Y-49486677D01*
X22475499Y-49225766D01*
X22495183Y-49158730D01*
X22547987Y-49112975D01*
X22617146Y-49103031D01*
X22680701Y-49132056D01*
X22687180Y-49138088D01*
X22728586Y-49179494D01*
X22728608Y-49179514D01*
X23821700Y-50272606D01*
X23821729Y-50272637D01*
X23911948Y-50362856D01*
X23911951Y-50362858D01*
X23984907Y-50411605D01*
X23984908Y-50411607D01*
X23986016Y-50412347D01*
X24014399Y-50431312D01*
X24046790Y-50444728D01*
X24087018Y-50471608D01*
X26043527Y-52428117D01*
X26077012Y-52489440D01*
X26072028Y-52559132D01*
X26030156Y-52615065D01*
X26014300Y-52625156D01*
X25941464Y-52664088D01*
X25941460Y-52664090D01*
X25871687Y-52721353D01*
X25807377Y-52748666D01*
X25793022Y-52749500D01*
X25086080Y-52749500D01*
X24941088Y-52778341D01*
X24941082Y-52778343D01*
X24912789Y-52790062D01*
X24865339Y-52799500D01*
X24470636Y-52799500D01*
X24353246Y-52814953D01*
X24353237Y-52814956D01*
X24207160Y-52875463D01*
X24081718Y-52971718D01*
X23985463Y-53097160D01*
X23958267Y-53162819D01*
X23945480Y-53193690D01*
X23944561Y-53195908D01*
X23900720Y-53250311D01*
X23834426Y-53272376D01*
X23766727Y-53255097D01*
X23719116Y-53203960D01*
X23715439Y-53195908D01*
X23674536Y-53097159D01*
X23578282Y-52971718D01*
X23452841Y-52875464D01*
X23306762Y-52814956D01*
X23306760Y-52814955D01*
X23189370Y-52799501D01*
X23189367Y-52799500D01*
X23189361Y-52799500D01*
X23189354Y-52799500D01*
X21810636Y-52799500D01*
X21693246Y-52814953D01*
X21693237Y-52814956D01*
X21572274Y-52865061D01*
X21524821Y-52874500D01*
X14954663Y-52874500D01*
X14887624Y-52854815D01*
X14841869Y-52802011D01*
X14831925Y-52732853D01*
X14860950Y-52669297D01*
X14867802Y-52662552D01*
X14867573Y-52662323D01*
X14914831Y-52615065D01*
X15038495Y-52491401D01*
X15174035Y-52297830D01*
X15273903Y-52083663D01*
X15335063Y-51855408D01*
X15355659Y-51620000D01*
X15353690Y-51597500D01*
X15344206Y-51489092D01*
X15335063Y-51384592D01*
X15288725Y-51211654D01*
X20525001Y-51211654D01*
X20535319Y-51312652D01*
X20589546Y-51476300D01*
X20589551Y-51476311D01*
X20680052Y-51623034D01*
X20680055Y-51623038D01*
X20801961Y-51744944D01*
X20801965Y-51744947D01*
X20948688Y-51835448D01*
X20948699Y-51835453D01*
X21112347Y-51889680D01*
X21213352Y-51899999D01*
X21250000Y-51899999D01*
X21750000Y-51899999D01*
X21786640Y-51899999D01*
X21786654Y-51899998D01*
X21887652Y-51889680D01*
X22051300Y-51835453D01*
X22051311Y-51835448D01*
X22198034Y-51744947D01*
X22198038Y-51744944D01*
X22319944Y-51623038D01*
X22319947Y-51623034D01*
X22410448Y-51476311D01*
X22410453Y-51476300D01*
X22464680Y-51312652D01*
X22474999Y-51211654D01*
X22475000Y-51211641D01*
X22475000Y-51112500D01*
X21750000Y-51112500D01*
X21750000Y-51899999D01*
X21250000Y-51899999D01*
X21250000Y-51112500D01*
X20525001Y-51112500D01*
X20525001Y-51211654D01*
X15288725Y-51211654D01*
X15273903Y-51156337D01*
X15174035Y-50942171D01*
X15139372Y-50892666D01*
X15038494Y-50748597D01*
X14871402Y-50581506D01*
X14871396Y-50581501D01*
X14685842Y-50451575D01*
X14642217Y-50396998D01*
X14635023Y-50327500D01*
X14666546Y-50265145D01*
X14685842Y-50248425D01*
X14799578Y-50168786D01*
X14871401Y-50118495D01*
X15038495Y-49951401D01*
X15174035Y-49757830D01*
X15273903Y-49543663D01*
X15335063Y-49315408D01*
X15355659Y-49080000D01*
X15353690Y-49057500D01*
X15347051Y-48981609D01*
X15335063Y-48844592D01*
X15273903Y-48616337D01*
X15174035Y-48402171D01*
X15155117Y-48375152D01*
X15038494Y-48208597D01*
X14871402Y-48041506D01*
X14871396Y-48041501D01*
X14685842Y-47911575D01*
X14642217Y-47856998D01*
X14635023Y-47787500D01*
X14666546Y-47725145D01*
X14685842Y-47708425D01*
X14804272Y-47625499D01*
X14871401Y-47578495D01*
X15038495Y-47411401D01*
X15174035Y-47217830D01*
X15273903Y-47003663D01*
X15335063Y-46775408D01*
X15355659Y-46540000D01*
X15353690Y-46517500D01*
X15339457Y-46354815D01*
X15335063Y-46304592D01*
X15280456Y-46100792D01*
X15273905Y-46076344D01*
X15273904Y-46076343D01*
X15273903Y-46076337D01*
X15174035Y-45862171D01*
X15170873Y-45857654D01*
X15038494Y-45668597D01*
X14871402Y-45501506D01*
X14871396Y-45501501D01*
X14685842Y-45371575D01*
X14642217Y-45316998D01*
X14635023Y-45247500D01*
X14666546Y-45185145D01*
X14685842Y-45168425D01*
X14759781Y-45116652D01*
X14871401Y-45038495D01*
X15038495Y-44871401D01*
X15174035Y-44677830D01*
X15273903Y-44463663D01*
X15335063Y-44235408D01*
X15355659Y-44000000D01*
X15355659Y-43999999D01*
X15355659Y-43999611D01*
X15355707Y-43999445D01*
X15356131Y-43994606D01*
X15357103Y-43994691D01*
X15375344Y-43932572D01*
X15428148Y-43886817D01*
X15497306Y-43876873D01*
X15560862Y-43905898D01*
G37*
%TD.AperFunction*%
%TA.AperFunction,Conductor*%
G36*
X39767539Y-29570185D02*
G01*
X39813294Y-29622989D01*
X39824500Y-29674500D01*
X39824500Y-29847844D01*
X39830901Y-29907372D01*
X39830903Y-29907379D01*
X39881145Y-30042086D01*
X39881149Y-30042093D01*
X39967309Y-30157187D01*
X39972941Y-30162819D01*
X40006426Y-30224142D01*
X40001442Y-30293834D01*
X39959570Y-30349767D01*
X39894106Y-30374184D01*
X39885260Y-30374500D01*
X39158389Y-30374500D01*
X39097971Y-30386518D01*
X39054743Y-30395116D01*
X39037546Y-30398537D01*
X38923716Y-30445687D01*
X38923707Y-30445692D01*
X38821268Y-30514140D01*
X38781097Y-30554312D01*
X38734142Y-30601267D01*
X38734139Y-30601270D01*
X38105646Y-31229762D01*
X38044323Y-31263247D01*
X37985872Y-31261856D01*
X37885413Y-31234938D01*
X37885403Y-31234936D01*
X37650001Y-31214341D01*
X37649611Y-31214341D01*
X37649445Y-31214292D01*
X37644606Y-31213869D01*
X37644691Y-31212896D01*
X37582572Y-31194656D01*
X37536817Y-31141852D01*
X37526873Y-31072694D01*
X37555898Y-31009138D01*
X37561930Y-31002660D01*
X38165858Y-30398733D01*
X38977772Y-29586819D01*
X39039095Y-29553334D01*
X39065453Y-29550500D01*
X39700500Y-29550500D01*
X39767539Y-29570185D01*
G37*
%TD.AperFunction*%
%TA.AperFunction,Conductor*%
G36*
X44293834Y-22467769D02*
G01*
X44349767Y-22509641D01*
X44374184Y-22575105D01*
X44374500Y-22583951D01*
X44374500Y-23486106D01*
X44384928Y-23538531D01*
X44398537Y-23606953D01*
X44407799Y-23629313D01*
X44445685Y-23720781D01*
X44445687Y-23720785D01*
X44464875Y-23749500D01*
X44464876Y-23749502D01*
X44514141Y-23823232D01*
X44514144Y-23823236D01*
X44605586Y-23914678D01*
X44605608Y-23914698D01*
X45461516Y-24770606D01*
X45461545Y-24770637D01*
X45528727Y-24837819D01*
X45562212Y-24899142D01*
X45557228Y-24968834D01*
X45515356Y-25024767D01*
X45449892Y-25049184D01*
X45441046Y-25049500D01*
X45263388Y-25049500D01*
X45142555Y-25073535D01*
X45142547Y-25073537D01*
X45102656Y-25090061D01*
X45055203Y-25099500D01*
X44905354Y-25099500D01*
X44872897Y-25106398D01*
X44720197Y-25138855D01*
X44720191Y-25138857D01*
X44654418Y-25168141D01*
X44585168Y-25177425D01*
X44521892Y-25147796D01*
X44500881Y-25123751D01*
X44485857Y-25101266D01*
X44458126Y-25073535D01*
X44398733Y-25014142D01*
X44398732Y-25014141D01*
X44017927Y-24633337D01*
X44017926Y-24633335D01*
X43926275Y-24541684D01*
X43892790Y-24480361D01*
X43890635Y-24441049D01*
X43905460Y-24300000D01*
X43885674Y-24111744D01*
X43827179Y-23931716D01*
X43732533Y-23767784D01*
X43605871Y-23627112D01*
X43605870Y-23627111D01*
X43452734Y-23515851D01*
X43452731Y-23515849D01*
X43452730Y-23515849D01*
X43403404Y-23493887D01*
X43350168Y-23448638D01*
X43329847Y-23381789D01*
X43348892Y-23314565D01*
X43366155Y-23292933D01*
X44162820Y-22496269D01*
X44224142Y-22462785D01*
X44293834Y-22467769D01*
G37*
%TD.AperFunction*%
%TD*%
M02*
