%TF.GenerationSoftware,KiCad,Pcbnew,8.0.4*%
%TF.CreationDate,2024-08-11T12:24:47-04:00*%
%TF.ProjectId,Logic Circuit,4c6f6769-6320-4436-9972-637569742e6b,rev?*%
%TF.SameCoordinates,Original*%
%TF.FileFunction,Copper,L4,Bot*%
%TF.FilePolarity,Positive*%
%FSLAX46Y46*%
G04 Gerber Fmt 4.6, Leading zero omitted, Abs format (unit mm)*
G04 Created by KiCad (PCBNEW 8.0.4) date 2024-08-11 12:24:47*
%MOMM*%
%LPD*%
G01*
G04 APERTURE LIST*
%TA.AperFunction,ComponentPad*%
%ADD10R,1.700000X1.700000*%
%TD*%
%TA.AperFunction,ComponentPad*%
%ADD11O,1.700000X1.700000*%
%TD*%
%TA.AperFunction,ComponentPad*%
%ADD12C,1.440000*%
%TD*%
%TA.AperFunction,ViaPad*%
%ADD13C,1.000000*%
%TD*%
%TA.AperFunction,ViaPad*%
%ADD14C,0.800000*%
%TD*%
%TA.AperFunction,Conductor*%
%ADD15C,1.250000*%
%TD*%
%TA.AperFunction,Conductor*%
%ADD16C,0.500000*%
%TD*%
G04 APERTURE END LIST*
D10*
%TO.P,IS_OUT1,1,Pin_1*%
%TO.N,VDD*%
X28760000Y-14000000D03*
D11*
%TO.P,IS_OUT1,2,Pin_2*%
%TO.N,GND*%
X31300000Y-14000000D03*
%TO.P,IS_OUT1,3,Pin_3*%
%TO.N,/BUS1*%
X33840000Y-14000000D03*
%TO.P,IS_OUT1,4,Pin_4*%
%TO.N,/BUS2*%
X36380000Y-14000000D03*
%TO.P,IS_OUT1,5,Pin_5*%
%TO.N,/BUS3*%
X38920000Y-14000000D03*
%TO.P,IS_OUT1,6,Pin_6*%
%TO.N,/BUS4*%
X41460000Y-14000000D03*
%TO.P,IS_OUT1,7,Pin_7*%
%TO.N,/BUS5*%
X44000000Y-14000000D03*
%TO.P,IS_OUT1,8,Pin_8*%
%TO.N,/BUS6*%
X46540000Y-14000000D03*
%TO.P,IS_OUT1,9,Pin_9*%
%TO.N,/BUS7*%
X49080000Y-14000000D03*
%TO.P,IS_OUT1,10,Pin_10*%
%TO.N,/BUS8*%
X51620000Y-14000000D03*
%TO.P,IS_OUT1,11,Pin_11*%
%TO.N,/RST Pulse*%
X54160000Y-14000000D03*
%TO.P,IS_OUT1,12,Pin_12*%
%TO.N,/Read Out*%
X56700000Y-14000000D03*
%TO.P,IS_OUT1,13,Pin_13*%
%TO.N,/Inhibit EN*%
X59240000Y-14000000D03*
%TD*%
D12*
%TO.P,RV1,1,1*%
%TO.N,Net-(R44-Pad2)*%
X36010000Y-73030000D03*
%TO.P,RV1,2,2*%
%TO.N,/Pulse Circuit/Y Trig*%
X33470000Y-73030000D03*
%TO.P,RV1,3,3*%
%TO.N,unconnected-(RV1-Pad3)*%
X30930000Y-73030000D03*
%TD*%
D10*
%TO.P,Y1,1,Pin_1*%
%TO.N,/MAD.Y1*%
X35110000Y-32570000D03*
D11*
%TO.P,Y1,2,Pin_2*%
%TO.N,/MAD.Y3*%
X37650000Y-32570000D03*
%TO.P,Y1,3,Pin_3*%
%TO.N,/MAD.Y5*%
X40190000Y-32570000D03*
%TO.P,Y1,4,Pin_4*%
%TO.N,/MAD.Y7*%
X42730000Y-32570000D03*
%TO.P,Y1,5,Pin_5*%
%TO.N,/MAD.Y9*%
X45270000Y-32570000D03*
%TO.P,Y1,6,Pin_6*%
%TO.N,/MAD.Y11*%
X47810000Y-32570000D03*
%TO.P,Y1,7,Pin_7*%
%TO.N,/MAD.Y13*%
X50350000Y-32570000D03*
%TO.P,Y1,8,Pin_8*%
%TO.N,/MAD.Y15*%
X52890000Y-32570000D03*
%TD*%
D10*
%TO.P,D_DAT1,1,Pin_1*%
%TO.N,/MAD In*%
X35110000Y-35110000D03*
D11*
%TO.P,D_DAT1,2,Pin_2*%
%TO.N,/Write Req*%
X35110000Y-37650000D03*
%TD*%
D12*
%TO.P,RV3,1,1*%
%TO.N,Net-(R43-Pad1)*%
X57040000Y-73000000D03*
%TO.P,RV3,2,2*%
%TO.N,VDD*%
X54500000Y-73000000D03*
%TO.P,RV3,3,3*%
%TO.N,unconnected-(RV3-Pad3)*%
X51960000Y-73000000D03*
%TD*%
D10*
%TO.P,X2,1,Pin_1*%
%TO.N,/MAD.X2*%
X55430000Y-35110000D03*
D11*
%TO.P,X2,2,Pin_2*%
%TO.N,/MAD.X4*%
X55430000Y-37650000D03*
%TO.P,X2,3,Pin_3*%
%TO.N,/MAD.X6*%
X55430000Y-40190000D03*
%TO.P,X2,4,Pin_4*%
%TO.N,/MAD.X8*%
X55430000Y-42730000D03*
%TO.P,X2,5,Pin_5*%
%TO.N,/MAD.X10*%
X55430000Y-45270000D03*
%TO.P,X2,6,Pin_6*%
%TO.N,/MAD.X12*%
X55430000Y-47810000D03*
%TO.P,X2,7,Pin_7*%
%TO.N,/MAD.X14*%
X55430000Y-50350000D03*
%TO.P,X2,8,Pin_8*%
%TO.N,/MAD.X16*%
X55430000Y-52890000D03*
%TD*%
D12*
%TO.P,RV2,1,1*%
%TO.N,Net-(R42-Pad2)*%
X46540000Y-73000000D03*
%TO.P,RV2,2,2*%
%TO.N,VDD*%
X44000000Y-73000000D03*
%TO.P,RV2,3,3*%
%TO.N,unconnected-(RV2-Pad3)*%
X41460000Y-73000000D03*
%TD*%
D10*
%TO.P,PULSE_DBG1,1,Pin_1*%
%TO.N,/X Pulse*%
X74000000Y-37650000D03*
D11*
%TO.P,PULSE_DBG1,2,Pin_2*%
%TO.N,/MAD Buffer/MAD X DIS*%
X74000000Y-40190000D03*
%TO.P,PULSE_DBG1,3,Pin_3*%
%TO.N,/Pulse Circuit/Y Pulse*%
X74000000Y-42730000D03*
%TO.P,PULSE_DBG1,4,Pin_4*%
%TO.N,/MAD Buffer/MAD Y DIS*%
X74000000Y-45270000D03*
%TO.P,PULSE_DBG1,5,Pin_5*%
%TO.N,/RST Pulse*%
X74000000Y-47810000D03*
%TO.P,PULSE_DBG1,6,Pin_6*%
%TO.N,/Pulse Circuit/~{RST Pulse}*%
X74000000Y-50350000D03*
%TD*%
D10*
%TO.P,Y2,1,Pin_1*%
%TO.N,/MAD.Y2*%
X35110000Y-55430000D03*
D11*
%TO.P,Y2,2,Pin_2*%
%TO.N,/MAD.Y4*%
X37650000Y-55430000D03*
%TO.P,Y2,3,Pin_3*%
%TO.N,/MAD.Y6*%
X40190000Y-55430000D03*
%TO.P,Y2,4,Pin_4*%
%TO.N,/MAD.Y8*%
X42730000Y-55430000D03*
%TO.P,Y2,5,Pin_5*%
%TO.N,/MAD.Y10*%
X45270000Y-55430000D03*
%TO.P,Y2,6,Pin_6*%
%TO.N,/MAD.Y12*%
X47810000Y-55430000D03*
%TO.P,Y2,7,Pin_7*%
%TO.N,/MAD.Y14*%
X50350000Y-55430000D03*
%TO.P,Y2,8,Pin_8*%
%TO.N,/MAD.Y16*%
X52890000Y-55430000D03*
%TD*%
D10*
%TO.P,X1,1,Pin_1*%
%TO.N,/MAD.X1*%
X32570000Y-35110000D03*
D11*
%TO.P,X1,2,Pin_2*%
%TO.N,/MAD.X3*%
X32570000Y-37650000D03*
%TO.P,X1,3,Pin_3*%
%TO.N,/MAD.X5*%
X32570000Y-40190000D03*
%TO.P,X1,4,Pin_4*%
%TO.N,/MAD.X7*%
X32570000Y-42730000D03*
%TO.P,X1,5,Pin_5*%
%TO.N,/MAD.X9*%
X32570000Y-45270000D03*
%TO.P,X1,6,Pin_6*%
%TO.N,/MAD.X11*%
X32570000Y-47810000D03*
%TO.P,X1,7,Pin_7*%
%TO.N,/MAD.X13*%
X32570000Y-50350000D03*
%TO.P,X1,8,Pin_8*%
%TO.N,/MAD.X15*%
X32570000Y-52890000D03*
%TD*%
D10*
%TO.P,IN1,1,Pin_1*%
%TO.N,VDD*%
X14000000Y-28760000D03*
D11*
%TO.P,IN1,2,Pin_2*%
%TO.N,GND*%
X14000000Y-31300000D03*
%TO.P,IN1,3,Pin_3*%
%TO.N,/BUS1*%
X14000000Y-33840000D03*
%TO.P,IN1,4,Pin_4*%
%TO.N,/BUS2*%
X14000000Y-36380000D03*
%TO.P,IN1,5,Pin_5*%
%TO.N,/BUS3*%
X14000000Y-38920000D03*
%TO.P,IN1,6,Pin_6*%
%TO.N,/BUS4*%
X14000000Y-41460000D03*
%TO.P,IN1,7,Pin_7*%
%TO.N,/BUS5*%
X14000000Y-44000000D03*
%TO.P,IN1,8,Pin_8*%
%TO.N,/BUS6*%
X14000000Y-46540000D03*
%TO.P,IN1,9,Pin_9*%
%TO.N,/BUS7*%
X14000000Y-49080000D03*
%TO.P,IN1,10,Pin_10*%
%TO.N,/BUS8*%
X14000000Y-51620000D03*
%TO.P,IN1,11,Pin_11*%
%TO.N,/MAD In*%
X14000000Y-54160000D03*
%TO.P,IN1,12,Pin_12*%
%TO.N,/Read Out*%
X14000000Y-56700000D03*
%TO.P,IN1,13,Pin_13*%
%TO.N,/Write Req*%
X14000000Y-59240000D03*
%TD*%
D13*
%TO.N,VDD*%
X26500000Y-53500000D03*
X20250000Y-48250000D03*
X27500000Y-57000000D03*
X49500000Y-63825000D03*
X64000000Y-66500000D03*
X48000000Y-21325000D03*
D14*
%TO.N,GND*%
X27500000Y-39500000D03*
X70000000Y-70500000D03*
X22000000Y-66000000D03*
X30500000Y-31000000D03*
X17000000Y-51000000D03*
X62500000Y-44500000D03*
X21500000Y-71500000D03*
X52000000Y-67000000D03*
X66500000Y-26500000D03*
X40849089Y-61000000D03*
X24000000Y-57000000D03*
X48000000Y-48000000D03*
X45000000Y-24500000D03*
X56000000Y-22000000D03*
X29500000Y-51500000D03*
X37500000Y-60500000D03*
X18000000Y-17500000D03*
X39000000Y-30000000D03*
X46427557Y-66207222D03*
X40000000Y-40000000D03*
X45000000Y-71000000D03*
X68500000Y-61500000D03*
X48000000Y-40000000D03*
X40000000Y-48000000D03*
%TO.N,/MAD Buffer/MAD X DIS*%
X45500000Y-61000000D03*
%TO.N,/Pulse Circuit/Y Pulse*%
X42987347Y-60987347D03*
%TO.N,/MAD Buffer/MAD Y DIS*%
X43000000Y-66000000D03*
%TO.N,/MAD.X10*%
X24500000Y-40500000D03*
%TO.N,/MAD.X6*%
X30249696Y-44275001D03*
%TO.N,/MAD.X2*%
X30500000Y-41500000D03*
%TO.N,/MAD.X4*%
X29537347Y-42937347D03*
%TO.N,/MAD.X13*%
X23499839Y-40987427D03*
%TO.N,/MAD.X8*%
X29500000Y-46000000D03*
%TO.N,/MAD.X16*%
X23512653Y-41987347D03*
%TO.N,/MAD.X12*%
X20000000Y-43500000D03*
%TO.N,/MAD.X15*%
X23500000Y-43000000D03*
%TO.N,/MAD.X14*%
X20000000Y-40350000D03*
%TO.N,/MAD.Y8*%
X43000000Y-24300000D03*
%TO.N,/MAD.Y16*%
X49775000Y-28062403D03*
%TO.N,/MAD.Y4*%
X42682688Y-27882882D03*
%TO.N,/MAD.Y14*%
X49275000Y-30000000D03*
%TO.N,/MAD.Y13*%
X48500000Y-29000000D03*
%TO.N,/MAD.Y10*%
X45225000Y-28150403D03*
%TO.N,/MAD.Y12*%
X45000000Y-26000000D03*
%TO.N,/MAD.Y2*%
X39250000Y-27750000D03*
%TO.N,/MAD.Y15*%
X48500000Y-27337403D03*
%TO.N,/MAD.Y6*%
X43189963Y-25802596D03*
%TO.N,/MAD In*%
X39000000Y-22500000D03*
X25000000Y-47000000D03*
X73000000Y-63000000D03*
%TO.N,/X Pulse*%
X45000000Y-66000000D03*
X23000000Y-59500000D03*
%TO.N,/Inhibit EN*%
X29500000Y-60500000D03*
%TD*%
D15*
%TO.N,VDD*%
X15260000Y-28760000D02*
X18775000Y-32275000D01*
X28760000Y-15260000D02*
X34775000Y-21275000D01*
X18775000Y-46775000D02*
X20250000Y-48250000D01*
X35825000Y-63825000D02*
X47500000Y-63825000D01*
D16*
X28000000Y-56500000D02*
X28500000Y-56500000D01*
D15*
X34775000Y-21275000D02*
X47950000Y-21275000D01*
X28500000Y-56500000D02*
X35825000Y-63825000D01*
X61325000Y-63825000D02*
X64000000Y-66500000D01*
X28760000Y-14000000D02*
X28760000Y-15260000D01*
X47950000Y-21275000D02*
X48000000Y-21325000D01*
X18775000Y-46775000D02*
X28500000Y-56500000D01*
D16*
X27500000Y-57000000D02*
X28000000Y-56500000D01*
D15*
X14000000Y-28760000D02*
X28760000Y-14000000D01*
X14000000Y-28760000D02*
X15260000Y-28760000D01*
X47500000Y-63825000D02*
X61325000Y-63825000D01*
X18775000Y-32275000D02*
X18775000Y-46775000D01*
X47500000Y-63825000D02*
X49500000Y-63825000D01*
%TD*%
%TA.AperFunction,Conductor*%
%TO.N,GND*%
G36*
X75943039Y-12019685D02*
G01*
X75988794Y-12072489D01*
X76000000Y-12124000D01*
X76000000Y-75876000D01*
X75980315Y-75943039D01*
X75927511Y-75988794D01*
X75876000Y-76000000D01*
X12124000Y-76000000D01*
X12056961Y-75980315D01*
X12011206Y-75927511D01*
X12000000Y-75876000D01*
X12000000Y-73029998D01*
X29704838Y-73029998D01*
X29704838Y-73030001D01*
X29723450Y-73242741D01*
X29723452Y-73242752D01*
X29778721Y-73449022D01*
X29778723Y-73449026D01*
X29778724Y-73449030D01*
X29821171Y-73540058D01*
X29868977Y-73642578D01*
X29991472Y-73817521D01*
X30142478Y-73968527D01*
X30142481Y-73968529D01*
X30317419Y-74091021D01*
X30317421Y-74091022D01*
X30317420Y-74091022D01*
X30381936Y-74121106D01*
X30510970Y-74181276D01*
X30717253Y-74236549D01*
X30869215Y-74249844D01*
X30929998Y-74255162D01*
X30930000Y-74255162D01*
X30930002Y-74255162D01*
X30983186Y-74250508D01*
X31142747Y-74236549D01*
X31349030Y-74181276D01*
X31542581Y-74091021D01*
X31717519Y-73968529D01*
X31868529Y-73817519D01*
X31991021Y-73642581D01*
X32081276Y-73449030D01*
X32081280Y-73449013D01*
X32083130Y-73443936D01*
X32085253Y-73444709D01*
X32116576Y-73393305D01*
X32179419Y-73362766D01*
X32248796Y-73371050D01*
X32302680Y-73415528D01*
X32315827Y-73444315D01*
X32316870Y-73443936D01*
X32318722Y-73449022D01*
X32318724Y-73449030D01*
X32361171Y-73540058D01*
X32408977Y-73642578D01*
X32531472Y-73817521D01*
X32682478Y-73968527D01*
X32682481Y-73968529D01*
X32857419Y-74091021D01*
X32857421Y-74091022D01*
X32857420Y-74091022D01*
X32921936Y-74121106D01*
X33050970Y-74181276D01*
X33257253Y-74236549D01*
X33409215Y-74249844D01*
X33469998Y-74255162D01*
X33470000Y-74255162D01*
X33470002Y-74255162D01*
X33523186Y-74250508D01*
X33682747Y-74236549D01*
X33889030Y-74181276D01*
X34082581Y-74091021D01*
X34257519Y-73968529D01*
X34408529Y-73817519D01*
X34531021Y-73642581D01*
X34621276Y-73449030D01*
X34621280Y-73449013D01*
X34623130Y-73443936D01*
X34625253Y-73444709D01*
X34656576Y-73393305D01*
X34719419Y-73362766D01*
X34788796Y-73371050D01*
X34842680Y-73415528D01*
X34855827Y-73444315D01*
X34856870Y-73443936D01*
X34858722Y-73449022D01*
X34858724Y-73449030D01*
X34901171Y-73540058D01*
X34948977Y-73642578D01*
X35071472Y-73817521D01*
X35222478Y-73968527D01*
X35222481Y-73968529D01*
X35397419Y-74091021D01*
X35397421Y-74091022D01*
X35397420Y-74091022D01*
X35461936Y-74121106D01*
X35590970Y-74181276D01*
X35797253Y-74236549D01*
X35949215Y-74249844D01*
X36009998Y-74255162D01*
X36010000Y-74255162D01*
X36010002Y-74255162D01*
X36063186Y-74250508D01*
X36222747Y-74236549D01*
X36429030Y-74181276D01*
X36622581Y-74091021D01*
X36797519Y-73968529D01*
X36948529Y-73817519D01*
X37071021Y-73642581D01*
X37161276Y-73449030D01*
X37216549Y-73242747D01*
X37235162Y-73030000D01*
X37232537Y-73000001D01*
X37232537Y-72999998D01*
X40234838Y-72999998D01*
X40234838Y-73000001D01*
X40253450Y-73212741D01*
X40253452Y-73212752D01*
X40308721Y-73419022D01*
X40308723Y-73419026D01*
X40308724Y-73419030D01*
X40322714Y-73449031D01*
X40398977Y-73612578D01*
X40521472Y-73787521D01*
X40672478Y-73938527D01*
X40672481Y-73938529D01*
X40847419Y-74061021D01*
X40847421Y-74061022D01*
X40847420Y-74061022D01*
X40911754Y-74091021D01*
X41040970Y-74151276D01*
X41247253Y-74206549D01*
X41399215Y-74219844D01*
X41459998Y-74225162D01*
X41460000Y-74225162D01*
X41460002Y-74225162D01*
X41513186Y-74220508D01*
X41672747Y-74206549D01*
X41879030Y-74151276D01*
X42072581Y-74061021D01*
X42247519Y-73938529D01*
X42398529Y-73787519D01*
X42521021Y-73612581D01*
X42611276Y-73419030D01*
X42611280Y-73419013D01*
X42613130Y-73413936D01*
X42615253Y-73414709D01*
X42646576Y-73363305D01*
X42709419Y-73332766D01*
X42778796Y-73341050D01*
X42832680Y-73385528D01*
X42845827Y-73414315D01*
X42846870Y-73413936D01*
X42848722Y-73419022D01*
X42848724Y-73419030D01*
X42862714Y-73449031D01*
X42938977Y-73612578D01*
X43061472Y-73787521D01*
X43212478Y-73938527D01*
X43212481Y-73938529D01*
X43387419Y-74061021D01*
X43387421Y-74061022D01*
X43387420Y-74061022D01*
X43451754Y-74091021D01*
X43580970Y-74151276D01*
X43787253Y-74206549D01*
X43939215Y-74219844D01*
X43999998Y-74225162D01*
X44000000Y-74225162D01*
X44000002Y-74225162D01*
X44053186Y-74220508D01*
X44212747Y-74206549D01*
X44419030Y-74151276D01*
X44612581Y-74061021D01*
X44787519Y-73938529D01*
X44938529Y-73787519D01*
X45061021Y-73612581D01*
X45151276Y-73419030D01*
X45151280Y-73419013D01*
X45153130Y-73413936D01*
X45155253Y-73414709D01*
X45186576Y-73363305D01*
X45249419Y-73332766D01*
X45318796Y-73341050D01*
X45372680Y-73385528D01*
X45385827Y-73414315D01*
X45386870Y-73413936D01*
X45388722Y-73419022D01*
X45388724Y-73419030D01*
X45402714Y-73449031D01*
X45478977Y-73612578D01*
X45601472Y-73787521D01*
X45752478Y-73938527D01*
X45752481Y-73938529D01*
X45927419Y-74061021D01*
X45927421Y-74061022D01*
X45927420Y-74061022D01*
X45991754Y-74091021D01*
X46120970Y-74151276D01*
X46327253Y-74206549D01*
X46479215Y-74219844D01*
X46539998Y-74225162D01*
X46540000Y-74225162D01*
X46540002Y-74225162D01*
X46593186Y-74220508D01*
X46752747Y-74206549D01*
X46959030Y-74151276D01*
X47152581Y-74061021D01*
X47327519Y-73938529D01*
X47478529Y-73787519D01*
X47601021Y-73612581D01*
X47691276Y-73419030D01*
X47746549Y-73212747D01*
X47765162Y-73000000D01*
X47765162Y-72999998D01*
X50734838Y-72999998D01*
X50734838Y-73000001D01*
X50753450Y-73212741D01*
X50753452Y-73212752D01*
X50808721Y-73419022D01*
X50808723Y-73419026D01*
X50808724Y-73419030D01*
X50822714Y-73449031D01*
X50898977Y-73612578D01*
X51021472Y-73787521D01*
X51172478Y-73938527D01*
X51172481Y-73938529D01*
X51347419Y-74061021D01*
X51347421Y-74061022D01*
X51347420Y-74061022D01*
X51411754Y-74091021D01*
X51540970Y-74151276D01*
X51747253Y-74206549D01*
X51899215Y-74219844D01*
X51959998Y-74225162D01*
X51960000Y-74225162D01*
X51960002Y-74225162D01*
X52013186Y-74220508D01*
X52172747Y-74206549D01*
X52379030Y-74151276D01*
X52572581Y-74061021D01*
X52747519Y-73938529D01*
X52898529Y-73787519D01*
X53021021Y-73612581D01*
X53111276Y-73419030D01*
X53111280Y-73419013D01*
X53113130Y-73413936D01*
X53115253Y-73414709D01*
X53146576Y-73363305D01*
X53209419Y-73332766D01*
X53278796Y-73341050D01*
X53332680Y-73385528D01*
X53345827Y-73414315D01*
X53346870Y-73413936D01*
X53348722Y-73419022D01*
X53348724Y-73419030D01*
X53362714Y-73449031D01*
X53438977Y-73612578D01*
X53561472Y-73787521D01*
X53712478Y-73938527D01*
X53712481Y-73938529D01*
X53887419Y-74061021D01*
X53887421Y-74061022D01*
X53887420Y-74061022D01*
X53951754Y-74091021D01*
X54080970Y-74151276D01*
X54287253Y-74206549D01*
X54439215Y-74219844D01*
X54499998Y-74225162D01*
X54500000Y-74225162D01*
X54500002Y-74225162D01*
X54553186Y-74220508D01*
X54712747Y-74206549D01*
X54919030Y-74151276D01*
X55112581Y-74061021D01*
X55287519Y-73938529D01*
X55438529Y-73787519D01*
X55561021Y-73612581D01*
X55651276Y-73419030D01*
X55651280Y-73419013D01*
X55653130Y-73413936D01*
X55655253Y-73414709D01*
X55686576Y-73363305D01*
X55749419Y-73332766D01*
X55818796Y-73341050D01*
X55872680Y-73385528D01*
X55885827Y-73414315D01*
X55886870Y-73413936D01*
X55888722Y-73419022D01*
X55888724Y-73419030D01*
X55902714Y-73449031D01*
X55978977Y-73612578D01*
X56101472Y-73787521D01*
X56252478Y-73938527D01*
X56252481Y-73938529D01*
X56427419Y-74061021D01*
X56427421Y-74061022D01*
X56427420Y-74061022D01*
X56491754Y-74091021D01*
X56620970Y-74151276D01*
X56827253Y-74206549D01*
X56979215Y-74219844D01*
X57039998Y-74225162D01*
X57040000Y-74225162D01*
X57040002Y-74225162D01*
X57093186Y-74220508D01*
X57252747Y-74206549D01*
X57459030Y-74151276D01*
X57652581Y-74061021D01*
X57827519Y-73938529D01*
X57978529Y-73787519D01*
X58101021Y-73612581D01*
X58191276Y-73419030D01*
X58246549Y-73212747D01*
X58265162Y-73000000D01*
X58246549Y-72787253D01*
X58200578Y-72615685D01*
X58191278Y-72580977D01*
X58191277Y-72580976D01*
X58191276Y-72580970D01*
X58101021Y-72387419D01*
X57978529Y-72212481D01*
X57978527Y-72212478D01*
X57827521Y-72061472D01*
X57652578Y-71938977D01*
X57652579Y-71938977D01*
X57523358Y-71878721D01*
X57459030Y-71848724D01*
X57459026Y-71848723D01*
X57459022Y-71848721D01*
X57252752Y-71793452D01*
X57252748Y-71793451D01*
X57252747Y-71793451D01*
X57252746Y-71793450D01*
X57252741Y-71793450D01*
X57040002Y-71774838D01*
X57039998Y-71774838D01*
X56827258Y-71793450D01*
X56827247Y-71793452D01*
X56620977Y-71848721D01*
X56620968Y-71848725D01*
X56427421Y-71938977D01*
X56252478Y-72061472D01*
X56101472Y-72212478D01*
X55978977Y-72387421D01*
X55888725Y-72580968D01*
X55886870Y-72586064D01*
X55884749Y-72585292D01*
X55853406Y-72636710D01*
X55790558Y-72667237D01*
X55721183Y-72658939D01*
X55667307Y-72614452D01*
X55654169Y-72585685D01*
X55653130Y-72586064D01*
X55651279Y-72580983D01*
X55651276Y-72580970D01*
X55561021Y-72387419D01*
X55438529Y-72212481D01*
X55438527Y-72212478D01*
X55287521Y-72061472D01*
X55112578Y-71938977D01*
X55112579Y-71938977D01*
X54983358Y-71878721D01*
X54919030Y-71848724D01*
X54919026Y-71848723D01*
X54919022Y-71848721D01*
X54712752Y-71793452D01*
X54712748Y-71793451D01*
X54712747Y-71793451D01*
X54712746Y-71793450D01*
X54712741Y-71793450D01*
X54500002Y-71774838D01*
X54499998Y-71774838D01*
X54287258Y-71793450D01*
X54287247Y-71793452D01*
X54080977Y-71848721D01*
X54080968Y-71848725D01*
X53887421Y-71938977D01*
X53712478Y-72061472D01*
X53561472Y-72212478D01*
X53438977Y-72387421D01*
X53348725Y-72580968D01*
X53346870Y-72586064D01*
X53344749Y-72585292D01*
X53313406Y-72636710D01*
X53250558Y-72667237D01*
X53181183Y-72658939D01*
X53127307Y-72614452D01*
X53114169Y-72585685D01*
X53113130Y-72586064D01*
X53111279Y-72580983D01*
X53111276Y-72580970D01*
X53021021Y-72387419D01*
X52898529Y-72212481D01*
X52898527Y-72212478D01*
X52747521Y-72061472D01*
X52572578Y-71938977D01*
X52572579Y-71938977D01*
X52443358Y-71878721D01*
X52379030Y-71848724D01*
X52379026Y-71848723D01*
X52379022Y-71848721D01*
X52172752Y-71793452D01*
X52172748Y-71793451D01*
X52172747Y-71793451D01*
X52172746Y-71793450D01*
X52172741Y-71793450D01*
X51960002Y-71774838D01*
X51959998Y-71774838D01*
X51747258Y-71793450D01*
X51747247Y-71793452D01*
X51540977Y-71848721D01*
X51540968Y-71848725D01*
X51347421Y-71938977D01*
X51172478Y-72061472D01*
X51021472Y-72212478D01*
X50898977Y-72387421D01*
X50808725Y-72580968D01*
X50808721Y-72580977D01*
X50753452Y-72787247D01*
X50753450Y-72787258D01*
X50734838Y-72999998D01*
X47765162Y-72999998D01*
X47746549Y-72787253D01*
X47700578Y-72615685D01*
X47691278Y-72580977D01*
X47691277Y-72580976D01*
X47691276Y-72580970D01*
X47601021Y-72387419D01*
X47478529Y-72212481D01*
X47478527Y-72212478D01*
X47327521Y-72061472D01*
X47152578Y-71938977D01*
X47152579Y-71938977D01*
X47023358Y-71878721D01*
X46959030Y-71848724D01*
X46959026Y-71848723D01*
X46959022Y-71848721D01*
X46752752Y-71793452D01*
X46752748Y-71793451D01*
X46752747Y-71793451D01*
X46752746Y-71793450D01*
X46752741Y-71793450D01*
X46540002Y-71774838D01*
X46539998Y-71774838D01*
X46327258Y-71793450D01*
X46327247Y-71793452D01*
X46120977Y-71848721D01*
X46120968Y-71848725D01*
X45927421Y-71938977D01*
X45752478Y-72061472D01*
X45601472Y-72212478D01*
X45478977Y-72387421D01*
X45388725Y-72580968D01*
X45386870Y-72586064D01*
X45384749Y-72585292D01*
X45353406Y-72636710D01*
X45290558Y-72667237D01*
X45221183Y-72658939D01*
X45167307Y-72614452D01*
X45154169Y-72585685D01*
X45153130Y-72586064D01*
X45151279Y-72580983D01*
X45151276Y-72580970D01*
X45061021Y-72387419D01*
X44938529Y-72212481D01*
X44938527Y-72212478D01*
X44787521Y-72061472D01*
X44612578Y-71938977D01*
X44612579Y-71938977D01*
X44483358Y-71878721D01*
X44419030Y-71848724D01*
X44419026Y-71848723D01*
X44419022Y-71848721D01*
X44212752Y-71793452D01*
X44212748Y-71793451D01*
X44212747Y-71793451D01*
X44212746Y-71793450D01*
X44212741Y-71793450D01*
X44000002Y-71774838D01*
X43999998Y-71774838D01*
X43787258Y-71793450D01*
X43787247Y-71793452D01*
X43580977Y-71848721D01*
X43580968Y-71848725D01*
X43387421Y-71938977D01*
X43212478Y-72061472D01*
X43061472Y-72212478D01*
X42938977Y-72387421D01*
X42848725Y-72580968D01*
X42846870Y-72586064D01*
X42844749Y-72585292D01*
X42813406Y-72636710D01*
X42750558Y-72667237D01*
X42681183Y-72658939D01*
X42627307Y-72614452D01*
X42614169Y-72585685D01*
X42613130Y-72586064D01*
X42611279Y-72580983D01*
X42611276Y-72580970D01*
X42521021Y-72387419D01*
X42398529Y-72212481D01*
X42398527Y-72212478D01*
X42247521Y-72061472D01*
X42072578Y-71938977D01*
X42072579Y-71938977D01*
X41943358Y-71878721D01*
X41879030Y-71848724D01*
X41879026Y-71848723D01*
X41879022Y-71848721D01*
X41672752Y-71793452D01*
X41672748Y-71793451D01*
X41672747Y-71793451D01*
X41672746Y-71793450D01*
X41672741Y-71793450D01*
X41460002Y-71774838D01*
X41459998Y-71774838D01*
X41247258Y-71793450D01*
X41247247Y-71793452D01*
X41040977Y-71848721D01*
X41040968Y-71848725D01*
X40847421Y-71938977D01*
X40672478Y-72061472D01*
X40521472Y-72212478D01*
X40398977Y-72387421D01*
X40308725Y-72580968D01*
X40308721Y-72580977D01*
X40253452Y-72787247D01*
X40253450Y-72787258D01*
X40234838Y-72999998D01*
X37232537Y-72999998D01*
X37216549Y-72817258D01*
X37216549Y-72817253D01*
X37161276Y-72610970D01*
X37071021Y-72417419D01*
X36948529Y-72242481D01*
X36948527Y-72242478D01*
X36797521Y-72091472D01*
X36622578Y-71968977D01*
X36622579Y-71968977D01*
X36493547Y-71908809D01*
X36429030Y-71878724D01*
X36429026Y-71878723D01*
X36429022Y-71878721D01*
X36222752Y-71823452D01*
X36222748Y-71823451D01*
X36222747Y-71823451D01*
X36222746Y-71823450D01*
X36222741Y-71823450D01*
X36010002Y-71804838D01*
X36009998Y-71804838D01*
X35797258Y-71823450D01*
X35797247Y-71823452D01*
X35590977Y-71878721D01*
X35590968Y-71878725D01*
X35397421Y-71968977D01*
X35222478Y-72091472D01*
X35071472Y-72242478D01*
X34948977Y-72417421D01*
X34858725Y-72610968D01*
X34856870Y-72616064D01*
X34854749Y-72615292D01*
X34823406Y-72666710D01*
X34760558Y-72697237D01*
X34691183Y-72688939D01*
X34637307Y-72644452D01*
X34624169Y-72615685D01*
X34623130Y-72616064D01*
X34621279Y-72610983D01*
X34621276Y-72610970D01*
X34531021Y-72417419D01*
X34408529Y-72242481D01*
X34408527Y-72242478D01*
X34257521Y-72091472D01*
X34082578Y-71968977D01*
X34082579Y-71968977D01*
X33953547Y-71908809D01*
X33889030Y-71878724D01*
X33889026Y-71878723D01*
X33889022Y-71878721D01*
X33682752Y-71823452D01*
X33682748Y-71823451D01*
X33682747Y-71823451D01*
X33682746Y-71823450D01*
X33682741Y-71823450D01*
X33470002Y-71804838D01*
X33469998Y-71804838D01*
X33257258Y-71823450D01*
X33257247Y-71823452D01*
X33050977Y-71878721D01*
X33050968Y-71878725D01*
X32857421Y-71968977D01*
X32682478Y-72091472D01*
X32531472Y-72242478D01*
X32408977Y-72417421D01*
X32318725Y-72610968D01*
X32316870Y-72616064D01*
X32314749Y-72615292D01*
X32283406Y-72666710D01*
X32220558Y-72697237D01*
X32151183Y-72688939D01*
X32097307Y-72644452D01*
X32084169Y-72615685D01*
X32083130Y-72616064D01*
X32081279Y-72610983D01*
X32081276Y-72610970D01*
X31991021Y-72417419D01*
X31868529Y-72242481D01*
X31868527Y-72242478D01*
X31717521Y-72091472D01*
X31542578Y-71968977D01*
X31542579Y-71968977D01*
X31413547Y-71908809D01*
X31349030Y-71878724D01*
X31349026Y-71878723D01*
X31349022Y-71878721D01*
X31142752Y-71823452D01*
X31142748Y-71823451D01*
X31142747Y-71823451D01*
X31142746Y-71823450D01*
X31142741Y-71823450D01*
X30930002Y-71804838D01*
X30929998Y-71804838D01*
X30717258Y-71823450D01*
X30717247Y-71823452D01*
X30510977Y-71878721D01*
X30510968Y-71878725D01*
X30317421Y-71968977D01*
X30142478Y-72091472D01*
X29991472Y-72242478D01*
X29868977Y-72417421D01*
X29778725Y-72610968D01*
X29778721Y-72610977D01*
X29723452Y-72817247D01*
X29723450Y-72817258D01*
X29704838Y-73029998D01*
X12000000Y-73029998D01*
X12000000Y-33839999D01*
X12644341Y-33839999D01*
X12644341Y-33840000D01*
X12664936Y-34075403D01*
X12664938Y-34075413D01*
X12726094Y-34303655D01*
X12726096Y-34303659D01*
X12726097Y-34303663D01*
X12825965Y-34517830D01*
X12825967Y-34517834D01*
X12961501Y-34711395D01*
X12961506Y-34711402D01*
X13128597Y-34878493D01*
X13128603Y-34878498D01*
X13314158Y-35008425D01*
X13357783Y-35063002D01*
X13364977Y-35132500D01*
X13333454Y-35194855D01*
X13314158Y-35211575D01*
X13128597Y-35341505D01*
X12961505Y-35508597D01*
X12825965Y-35702169D01*
X12825964Y-35702171D01*
X12726098Y-35916335D01*
X12726094Y-35916344D01*
X12664938Y-36144586D01*
X12664936Y-36144596D01*
X12644341Y-36379999D01*
X12644341Y-36380000D01*
X12664936Y-36615403D01*
X12664938Y-36615413D01*
X12726094Y-36843655D01*
X12726096Y-36843659D01*
X12726097Y-36843663D01*
X12791283Y-36983454D01*
X12825965Y-37057830D01*
X12825967Y-37057834D01*
X12961501Y-37251395D01*
X12961506Y-37251402D01*
X13128597Y-37418493D01*
X13128603Y-37418498D01*
X13314158Y-37548425D01*
X13357783Y-37603002D01*
X13364977Y-37672500D01*
X13333454Y-37734855D01*
X13314158Y-37751575D01*
X13128597Y-37881505D01*
X12961505Y-38048597D01*
X12825965Y-38242169D01*
X12825964Y-38242171D01*
X12726098Y-38456335D01*
X12726094Y-38456344D01*
X12664938Y-38684586D01*
X12664936Y-38684596D01*
X12644341Y-38919999D01*
X12644341Y-38920000D01*
X12664936Y-39155403D01*
X12664938Y-39155413D01*
X12726094Y-39383655D01*
X12726096Y-39383659D01*
X12726097Y-39383663D01*
X12811052Y-39565848D01*
X12825965Y-39597830D01*
X12825967Y-39597834D01*
X12961501Y-39791395D01*
X12961506Y-39791402D01*
X13128597Y-39958493D01*
X13128603Y-39958498D01*
X13314158Y-40088425D01*
X13357783Y-40143002D01*
X13364977Y-40212500D01*
X13333454Y-40274855D01*
X13314158Y-40291575D01*
X13128597Y-40421505D01*
X12961505Y-40588597D01*
X12825965Y-40782169D01*
X12825964Y-40782171D01*
X12726098Y-40996335D01*
X12726094Y-40996344D01*
X12664938Y-41224586D01*
X12664936Y-41224596D01*
X12644341Y-41459999D01*
X12644341Y-41460000D01*
X12664936Y-41695403D01*
X12664938Y-41695413D01*
X12726094Y-41923655D01*
X12726096Y-41923659D01*
X12726097Y-41923663D01*
X12795993Y-42073554D01*
X12825965Y-42137830D01*
X12825967Y-42137834D01*
X12961501Y-42331395D01*
X12961506Y-42331402D01*
X13128597Y-42498493D01*
X13128603Y-42498498D01*
X13314158Y-42628425D01*
X13357783Y-42683002D01*
X13364977Y-42752500D01*
X13333454Y-42814855D01*
X13314158Y-42831575D01*
X13128597Y-42961505D01*
X12961505Y-43128597D01*
X12825965Y-43322169D01*
X12825964Y-43322171D01*
X12726098Y-43536335D01*
X12726094Y-43536344D01*
X12664938Y-43764586D01*
X12664936Y-43764596D01*
X12644341Y-43999999D01*
X12644341Y-44000000D01*
X12664936Y-44235403D01*
X12664938Y-44235413D01*
X12726094Y-44463655D01*
X12726096Y-44463659D01*
X12726097Y-44463663D01*
X12809853Y-44643278D01*
X12825965Y-44677830D01*
X12825967Y-44677834D01*
X12961501Y-44871395D01*
X12961506Y-44871402D01*
X13128597Y-45038493D01*
X13128603Y-45038498D01*
X13314158Y-45168425D01*
X13357783Y-45223002D01*
X13364977Y-45292500D01*
X13333454Y-45354855D01*
X13314158Y-45371575D01*
X13128597Y-45501505D01*
X12961505Y-45668597D01*
X12825965Y-45862169D01*
X12825964Y-45862171D01*
X12726098Y-46076335D01*
X12726094Y-46076344D01*
X12664938Y-46304586D01*
X12664936Y-46304596D01*
X12644341Y-46539999D01*
X12644341Y-46540000D01*
X12664936Y-46775403D01*
X12664938Y-46775413D01*
X12726094Y-47003655D01*
X12726097Y-47003663D01*
X12825965Y-47217830D01*
X12825967Y-47217834D01*
X12961501Y-47411395D01*
X12961506Y-47411402D01*
X13128597Y-47578493D01*
X13128603Y-47578498D01*
X13314158Y-47708425D01*
X13357783Y-47763002D01*
X13364977Y-47832500D01*
X13333454Y-47894855D01*
X13314158Y-47911575D01*
X13128597Y-48041505D01*
X12961505Y-48208597D01*
X12825965Y-48402169D01*
X12825964Y-48402171D01*
X12726098Y-48616335D01*
X12726094Y-48616344D01*
X12664938Y-48844586D01*
X12664936Y-48844596D01*
X12644341Y-49079999D01*
X12644341Y-49080000D01*
X12664936Y-49315403D01*
X12664938Y-49315413D01*
X12726094Y-49543655D01*
X12726096Y-49543659D01*
X12726097Y-49543663D01*
X12825965Y-49757830D01*
X12825967Y-49757834D01*
X12961501Y-49951395D01*
X12961506Y-49951402D01*
X13128597Y-50118493D01*
X13128603Y-50118498D01*
X13314158Y-50248425D01*
X13357783Y-50303002D01*
X13364977Y-50372500D01*
X13333454Y-50434855D01*
X13314158Y-50451575D01*
X13128597Y-50581505D01*
X12961505Y-50748597D01*
X12825965Y-50942169D01*
X12825964Y-50942171D01*
X12726098Y-51156335D01*
X12726094Y-51156344D01*
X12664938Y-51384586D01*
X12664936Y-51384596D01*
X12644341Y-51619999D01*
X12644341Y-51620000D01*
X12664936Y-51855403D01*
X12664938Y-51855413D01*
X12726094Y-52083655D01*
X12726096Y-52083659D01*
X12726097Y-52083663D01*
X12825965Y-52297830D01*
X12825967Y-52297834D01*
X12961501Y-52491395D01*
X12961506Y-52491402D01*
X13128597Y-52658493D01*
X13128603Y-52658498D01*
X13314158Y-52788425D01*
X13357783Y-52843002D01*
X13364977Y-52912500D01*
X13333454Y-52974855D01*
X13314158Y-52991575D01*
X13128597Y-53121505D01*
X12961505Y-53288597D01*
X12825965Y-53482169D01*
X12825964Y-53482171D01*
X12726098Y-53696335D01*
X12726094Y-53696344D01*
X12664938Y-53924586D01*
X12664936Y-53924596D01*
X12644341Y-54159999D01*
X12644341Y-54160000D01*
X12664936Y-54395403D01*
X12664938Y-54395413D01*
X12726094Y-54623655D01*
X12726096Y-54623659D01*
X12726097Y-54623663D01*
X12791283Y-54763454D01*
X12825965Y-54837830D01*
X12825967Y-54837834D01*
X12961501Y-55031395D01*
X12961506Y-55031402D01*
X13128597Y-55198493D01*
X13128603Y-55198498D01*
X13314158Y-55328425D01*
X13357783Y-55383002D01*
X13364977Y-55452500D01*
X13333454Y-55514855D01*
X13314158Y-55531575D01*
X13128597Y-55661505D01*
X12961505Y-55828597D01*
X12825965Y-56022169D01*
X12825964Y-56022171D01*
X12726098Y-56236335D01*
X12726094Y-56236344D01*
X12664938Y-56464586D01*
X12664936Y-56464596D01*
X12644341Y-56699999D01*
X12644341Y-56700000D01*
X12664936Y-56935403D01*
X12664938Y-56935413D01*
X12726094Y-57163655D01*
X12726096Y-57163659D01*
X12726097Y-57163663D01*
X12741238Y-57196132D01*
X12825965Y-57377830D01*
X12825967Y-57377834D01*
X12961501Y-57571395D01*
X12961506Y-57571402D01*
X13128597Y-57738493D01*
X13128603Y-57738498D01*
X13314158Y-57868425D01*
X13357783Y-57923002D01*
X13364977Y-57992500D01*
X13333454Y-58054855D01*
X13314158Y-58071575D01*
X13128597Y-58201505D01*
X12961505Y-58368597D01*
X12825965Y-58562169D01*
X12825964Y-58562171D01*
X12726098Y-58776335D01*
X12726094Y-58776344D01*
X12664938Y-59004586D01*
X12664936Y-59004596D01*
X12644341Y-59239999D01*
X12644341Y-59240000D01*
X12664936Y-59475403D01*
X12664938Y-59475413D01*
X12726094Y-59703655D01*
X12726096Y-59703659D01*
X12726097Y-59703663D01*
X12802858Y-59868277D01*
X12825965Y-59917830D01*
X12825967Y-59917834D01*
X12906059Y-60032216D01*
X12961505Y-60111401D01*
X13128599Y-60278495D01*
X13179961Y-60314459D01*
X13322165Y-60414032D01*
X13322167Y-60414033D01*
X13322170Y-60414035D01*
X13536337Y-60513903D01*
X13764592Y-60575063D01*
X13952918Y-60591539D01*
X13999999Y-60595659D01*
X14000000Y-60595659D01*
X14000001Y-60595659D01*
X14039234Y-60592226D01*
X14235408Y-60575063D01*
X14463663Y-60513903D01*
X14677830Y-60414035D01*
X14871401Y-60278495D01*
X15038495Y-60111401D01*
X15174035Y-59917830D01*
X15273903Y-59703663D01*
X15328474Y-59500000D01*
X22094540Y-59500000D01*
X22114326Y-59688256D01*
X22114327Y-59688259D01*
X22172818Y-59868277D01*
X22172821Y-59868284D01*
X22267467Y-60032216D01*
X22363487Y-60138857D01*
X22394129Y-60172888D01*
X22547265Y-60284148D01*
X22547270Y-60284151D01*
X22720192Y-60361142D01*
X22720197Y-60361144D01*
X22905354Y-60400500D01*
X22905355Y-60400500D01*
X23094644Y-60400500D01*
X23094646Y-60400500D01*
X23279803Y-60361144D01*
X23452730Y-60284151D01*
X23605871Y-60172888D01*
X23732533Y-60032216D01*
X23827179Y-59868284D01*
X23885674Y-59688256D01*
X23905460Y-59500000D01*
X23885674Y-59311744D01*
X23827179Y-59131716D01*
X23732533Y-58967784D01*
X23605871Y-58827112D01*
X23535995Y-58776344D01*
X23452734Y-58715851D01*
X23452729Y-58715848D01*
X23279807Y-58638857D01*
X23279802Y-58638855D01*
X23134001Y-58607865D01*
X23094646Y-58599500D01*
X22905354Y-58599500D01*
X22872897Y-58606398D01*
X22720197Y-58638855D01*
X22720192Y-58638857D01*
X22547270Y-58715848D01*
X22547265Y-58715851D01*
X22394129Y-58827111D01*
X22267466Y-58967785D01*
X22172821Y-59131715D01*
X22172818Y-59131722D01*
X22137637Y-59240000D01*
X22114326Y-59311744D01*
X22094540Y-59500000D01*
X15328474Y-59500000D01*
X15335063Y-59475408D01*
X15355659Y-59240000D01*
X15335063Y-59004592D01*
X15273903Y-58776337D01*
X15174035Y-58562171D01*
X15038495Y-58368599D01*
X15038494Y-58368597D01*
X14871402Y-58201506D01*
X14871396Y-58201501D01*
X14685842Y-58071575D01*
X14642217Y-58016998D01*
X14635023Y-57947500D01*
X14666546Y-57885145D01*
X14685842Y-57868425D01*
X14732278Y-57835910D01*
X14871401Y-57738495D01*
X15038495Y-57571401D01*
X15174035Y-57377830D01*
X15273903Y-57163663D01*
X15335063Y-56935408D01*
X15355659Y-56700000D01*
X15335063Y-56464592D01*
X15273903Y-56236337D01*
X15174035Y-56022171D01*
X15089914Y-55902032D01*
X15038494Y-55828597D01*
X14871402Y-55661506D01*
X14871396Y-55661501D01*
X14685842Y-55531575D01*
X14642217Y-55476998D01*
X14635023Y-55407500D01*
X14666546Y-55345145D01*
X14685842Y-55328425D01*
X14708026Y-55312891D01*
X14871401Y-55198495D01*
X15038495Y-55031401D01*
X15174035Y-54837830D01*
X15273903Y-54623663D01*
X15335063Y-54395408D01*
X15355659Y-54160000D01*
X15335063Y-53924592D01*
X15273903Y-53696337D01*
X15174035Y-53482171D01*
X15084054Y-53353663D01*
X15038494Y-53288597D01*
X14871402Y-53121506D01*
X14871396Y-53121501D01*
X14685842Y-52991575D01*
X14642217Y-52936998D01*
X14635023Y-52867500D01*
X14666546Y-52805145D01*
X14685842Y-52788425D01*
X14708026Y-52772891D01*
X14871401Y-52658495D01*
X15038495Y-52491401D01*
X15174035Y-52297830D01*
X15273903Y-52083663D01*
X15335063Y-51855408D01*
X15355659Y-51620000D01*
X15353690Y-51597500D01*
X15346772Y-51518425D01*
X15335063Y-51384592D01*
X15273903Y-51156337D01*
X15174035Y-50942171D01*
X15084054Y-50813663D01*
X15038494Y-50748597D01*
X14871402Y-50581506D01*
X14871396Y-50581501D01*
X14685842Y-50451575D01*
X14642217Y-50396998D01*
X14635023Y-50327500D01*
X14666546Y-50265145D01*
X14685842Y-50248425D01*
X14708026Y-50232891D01*
X14871401Y-50118495D01*
X15038495Y-49951401D01*
X15174035Y-49757830D01*
X15273903Y-49543663D01*
X15335063Y-49315408D01*
X15355659Y-49080000D01*
X15353690Y-49057500D01*
X15346772Y-48978425D01*
X15335063Y-48844592D01*
X15273903Y-48616337D01*
X15174035Y-48402171D01*
X15084054Y-48273663D01*
X15038494Y-48208597D01*
X14871402Y-48041506D01*
X14871396Y-48041501D01*
X14685842Y-47911575D01*
X14642217Y-47856998D01*
X14635023Y-47787500D01*
X14666546Y-47725145D01*
X14685842Y-47708425D01*
X14736594Y-47672888D01*
X14871401Y-47578495D01*
X15038495Y-47411401D01*
X15174035Y-47217830D01*
X15273903Y-47003663D01*
X15335063Y-46775408D01*
X15355659Y-46540000D01*
X15353690Y-46517500D01*
X15335431Y-46308802D01*
X15335063Y-46304592D01*
X15288626Y-46131285D01*
X15273905Y-46076344D01*
X15273904Y-46076343D01*
X15273903Y-46076337D01*
X15174035Y-45862171D01*
X15084054Y-45733663D01*
X15038494Y-45668597D01*
X14871402Y-45501506D01*
X14871396Y-45501501D01*
X14685842Y-45371575D01*
X14642217Y-45316998D01*
X14635023Y-45247500D01*
X14666546Y-45185145D01*
X14685842Y-45168425D01*
X14814239Y-45078520D01*
X14871401Y-45038495D01*
X15038495Y-44871401D01*
X15174035Y-44677830D01*
X15273903Y-44463663D01*
X15335063Y-44235408D01*
X15355659Y-44000000D01*
X15353690Y-43977500D01*
X15347498Y-43906717D01*
X15335063Y-43764592D01*
X15273903Y-43536337D01*
X15174035Y-43322171D01*
X15166732Y-43311740D01*
X15038494Y-43128597D01*
X14871402Y-42961506D01*
X14871396Y-42961501D01*
X14685842Y-42831575D01*
X14642217Y-42776998D01*
X14635023Y-42707500D01*
X14666546Y-42645145D01*
X14685842Y-42628425D01*
X14770611Y-42569069D01*
X14871401Y-42498495D01*
X15038495Y-42331401D01*
X15174035Y-42137830D01*
X15273903Y-41923663D01*
X15335063Y-41695408D01*
X15355659Y-41460000D01*
X15353690Y-41437500D01*
X15348235Y-41375145D01*
X15335063Y-41224592D01*
X15273903Y-40996337D01*
X15174035Y-40782171D01*
X15129297Y-40718277D01*
X15038494Y-40588597D01*
X14871402Y-40421506D01*
X14871396Y-40421501D01*
X14685842Y-40291575D01*
X14642217Y-40236998D01*
X14635023Y-40167500D01*
X14666546Y-40105145D01*
X14685842Y-40088425D01*
X14708026Y-40072891D01*
X14871401Y-39958495D01*
X15038495Y-39791401D01*
X15174035Y-39597830D01*
X15273903Y-39383663D01*
X15335063Y-39155408D01*
X15355659Y-38920000D01*
X15353690Y-38897500D01*
X15340115Y-38742335D01*
X15335063Y-38684592D01*
X15273903Y-38456337D01*
X15174035Y-38242171D01*
X15089914Y-38122032D01*
X15038494Y-38048597D01*
X14871402Y-37881506D01*
X14871396Y-37881501D01*
X14685842Y-37751575D01*
X14642217Y-37696998D01*
X14635023Y-37627500D01*
X14666546Y-37565145D01*
X14685842Y-37548425D01*
X14708026Y-37532891D01*
X14871401Y-37418495D01*
X15038495Y-37251401D01*
X15174035Y-37057830D01*
X15273903Y-36843663D01*
X15335063Y-36615408D01*
X15355659Y-36380000D01*
X15335063Y-36144592D01*
X15273903Y-35916337D01*
X15174035Y-35702171D01*
X15038495Y-35508599D01*
X15038494Y-35508597D01*
X14871402Y-35341506D01*
X14871396Y-35341501D01*
X14685842Y-35211575D01*
X14642217Y-35156998D01*
X14635023Y-35087500D01*
X14666546Y-35025145D01*
X14685842Y-35008425D01*
X14708026Y-34992891D01*
X14871401Y-34878495D01*
X15038495Y-34711401D01*
X15174035Y-34517830D01*
X15273903Y-34303663D01*
X15335063Y-34075408D01*
X15355659Y-33840000D01*
X15335063Y-33604592D01*
X15273903Y-33376337D01*
X15174035Y-33162171D01*
X15089914Y-33042032D01*
X15038494Y-32968597D01*
X14871402Y-32801506D01*
X14871401Y-32801505D01*
X14685405Y-32671269D01*
X14641781Y-32616692D01*
X14634588Y-32547193D01*
X14666110Y-32484839D01*
X14685405Y-32468119D01*
X14871082Y-32338105D01*
X15038105Y-32171082D01*
X15173600Y-31977578D01*
X15273429Y-31763492D01*
X15273432Y-31763486D01*
X15330636Y-31550000D01*
X14433012Y-31550000D01*
X14465925Y-31492993D01*
X14500000Y-31365826D01*
X14500000Y-31234174D01*
X14465925Y-31107007D01*
X14433012Y-31050000D01*
X15330636Y-31050000D01*
X15330635Y-31049999D01*
X15273432Y-30836513D01*
X15273429Y-30836507D01*
X15173601Y-30622424D01*
X15152428Y-30592186D01*
X15130101Y-30525980D01*
X15147111Y-30458212D01*
X15198059Y-30410399D01*
X15266769Y-30397721D01*
X15331425Y-30424202D01*
X15341684Y-30433381D01*
X17613181Y-32704878D01*
X17646666Y-32766201D01*
X17649500Y-32792559D01*
X17649500Y-46863584D01*
X17671687Y-47003663D01*
X17677213Y-47038553D01*
X17731955Y-47207036D01*
X17731957Y-47207042D01*
X17786619Y-47314320D01*
X17802936Y-47346344D01*
X17812388Y-47364893D01*
X17912033Y-47502044D01*
X17912034Y-47502044D01*
X17916518Y-47508215D01*
X17916525Y-47508223D01*
X26668313Y-56260011D01*
X26701798Y-56321334D01*
X26696814Y-56391026D01*
X26676488Y-56426354D01*
X26664089Y-56441462D01*
X26664086Y-56441467D01*
X26571188Y-56615266D01*
X26513975Y-56803870D01*
X26494659Y-57000000D01*
X26513975Y-57196129D01*
X26571188Y-57384733D01*
X26664086Y-57558532D01*
X26664090Y-57558539D01*
X26789116Y-57710883D01*
X26941460Y-57835909D01*
X26941467Y-57835913D01*
X27115266Y-57928811D01*
X27115269Y-57928811D01*
X27115273Y-57928814D01*
X27303868Y-57986024D01*
X27500000Y-58005341D01*
X27696132Y-57986024D01*
X27884727Y-57928814D01*
X28058538Y-57835910D01*
X28073640Y-57823515D01*
X28137946Y-57796200D01*
X28206814Y-57807988D01*
X28239988Y-57831685D01*
X29823321Y-59415018D01*
X29856806Y-59476341D01*
X29851822Y-59546033D01*
X29809950Y-59601966D01*
X29744486Y-59626383D01*
X29709859Y-59623989D01*
X29681160Y-59617889D01*
X29594646Y-59599500D01*
X29405354Y-59599500D01*
X29372897Y-59606398D01*
X29220197Y-59638855D01*
X29220192Y-59638857D01*
X29047270Y-59715848D01*
X29047265Y-59715851D01*
X28894129Y-59827111D01*
X28767466Y-59967785D01*
X28672821Y-60131715D01*
X28672818Y-60131722D01*
X28615654Y-60307657D01*
X28614326Y-60311744D01*
X28594540Y-60500000D01*
X28614326Y-60688256D01*
X28614327Y-60688259D01*
X28672818Y-60868277D01*
X28672821Y-60868284D01*
X28767467Y-61032216D01*
X28894129Y-61172888D01*
X29047265Y-61284148D01*
X29047270Y-61284151D01*
X29220192Y-61361142D01*
X29220197Y-61361144D01*
X29405354Y-61400500D01*
X29405355Y-61400500D01*
X29594644Y-61400500D01*
X29594646Y-61400500D01*
X29779803Y-61361144D01*
X29952730Y-61284151D01*
X30105871Y-61172888D01*
X30232533Y-61032216D01*
X30327179Y-60868284D01*
X30385674Y-60688256D01*
X30405460Y-60500000D01*
X30385674Y-60311744D01*
X30384344Y-60307653D01*
X30382348Y-60237815D01*
X30418426Y-60177981D01*
X30481126Y-60147151D01*
X30550540Y-60155113D01*
X30589956Y-60181653D01*
X34966517Y-64558214D01*
X35091786Y-64683483D01*
X35235110Y-64787614D01*
X35318966Y-64830341D01*
X35392957Y-64868042D01*
X35392960Y-64868043D01*
X35474268Y-64894461D01*
X35561444Y-64922786D01*
X35585368Y-64926575D01*
X35736421Y-64950500D01*
X42559879Y-64950500D01*
X42626918Y-64970185D01*
X42672673Y-65022989D01*
X42682617Y-65092147D01*
X42653592Y-65155703D01*
X42610315Y-65187779D01*
X42547270Y-65215848D01*
X42547265Y-65215851D01*
X42394129Y-65327111D01*
X42267466Y-65467785D01*
X42172821Y-65631715D01*
X42172818Y-65631722D01*
X42117931Y-65800648D01*
X42114326Y-65811744D01*
X42094540Y-66000000D01*
X42114326Y-66188256D01*
X42114327Y-66188259D01*
X42172818Y-66368277D01*
X42172821Y-66368284D01*
X42267467Y-66532216D01*
X42318215Y-66588577D01*
X42394129Y-66672888D01*
X42547265Y-66784148D01*
X42547270Y-66784151D01*
X42720192Y-66861142D01*
X42720197Y-66861144D01*
X42905354Y-66900500D01*
X42905355Y-66900500D01*
X43094644Y-66900500D01*
X43094646Y-66900500D01*
X43279803Y-66861144D01*
X43452730Y-66784151D01*
X43605871Y-66672888D01*
X43732533Y-66532216D01*
X43827179Y-66368284D01*
X43882069Y-66199351D01*
X43921506Y-66141675D01*
X43985865Y-66114477D01*
X44054711Y-66126392D01*
X44106187Y-66173636D01*
X44117931Y-66199351D01*
X44172818Y-66368277D01*
X44172821Y-66368284D01*
X44267467Y-66532216D01*
X44318215Y-66588577D01*
X44394129Y-66672888D01*
X44547265Y-66784148D01*
X44547270Y-66784151D01*
X44720192Y-66861142D01*
X44720197Y-66861144D01*
X44905354Y-66900500D01*
X44905355Y-66900500D01*
X45094644Y-66900500D01*
X45094646Y-66900500D01*
X45279803Y-66861144D01*
X45452730Y-66784151D01*
X45605871Y-66672888D01*
X45732533Y-66532216D01*
X45827179Y-66368284D01*
X45885674Y-66188256D01*
X45905460Y-66000000D01*
X45885674Y-65811744D01*
X45827179Y-65631716D01*
X45732533Y-65467784D01*
X45605871Y-65327112D01*
X45605870Y-65327111D01*
X45452734Y-65215851D01*
X45452729Y-65215848D01*
X45389685Y-65187779D01*
X45336448Y-65142529D01*
X45316127Y-65075679D01*
X45335173Y-65008456D01*
X45387539Y-64962201D01*
X45440121Y-64950500D01*
X47411421Y-64950500D01*
X49588579Y-64950500D01*
X60807441Y-64950500D01*
X60874480Y-64970185D01*
X60895122Y-64986819D01*
X63266787Y-67358484D01*
X63266792Y-67358488D01*
X63391798Y-67449309D01*
X63410109Y-67462613D01*
X63567958Y-67543042D01*
X63567963Y-67543043D01*
X63567966Y-67543045D01*
X63657869Y-67572255D01*
X63736444Y-67597786D01*
X63911421Y-67625500D01*
X63911422Y-67625500D01*
X64088577Y-67625500D01*
X64088578Y-67625500D01*
X64263555Y-67597786D01*
X64432042Y-67543042D01*
X64589890Y-67462613D01*
X64733214Y-67358483D01*
X64858483Y-67233214D01*
X64962613Y-67089890D01*
X65043042Y-66932042D01*
X65097786Y-66763555D01*
X65125500Y-66588578D01*
X65125500Y-66411421D01*
X65097786Y-66236444D01*
X65043042Y-66067958D01*
X64962613Y-65910109D01*
X64891144Y-65811740D01*
X64858488Y-65766792D01*
X64858484Y-65766787D01*
X62091697Y-63000000D01*
X72094540Y-63000000D01*
X72114326Y-63188256D01*
X72114327Y-63188259D01*
X72172818Y-63368277D01*
X72172821Y-63368284D01*
X72267467Y-63532216D01*
X72394129Y-63672888D01*
X72547265Y-63784148D01*
X72547270Y-63784151D01*
X72720192Y-63861142D01*
X72720197Y-63861144D01*
X72905354Y-63900500D01*
X72905355Y-63900500D01*
X73094644Y-63900500D01*
X73094646Y-63900500D01*
X73279803Y-63861144D01*
X73452730Y-63784151D01*
X73605871Y-63672888D01*
X73732533Y-63532216D01*
X73827179Y-63368284D01*
X73885674Y-63188256D01*
X73905460Y-63000000D01*
X73885674Y-62811744D01*
X73827179Y-62631716D01*
X73732533Y-62467784D01*
X73605871Y-62327112D01*
X73605870Y-62327111D01*
X73452734Y-62215851D01*
X73452729Y-62215848D01*
X73279807Y-62138857D01*
X73279802Y-62138855D01*
X73134001Y-62107865D01*
X73094646Y-62099500D01*
X72905354Y-62099500D01*
X72872897Y-62106398D01*
X72720197Y-62138855D01*
X72720192Y-62138857D01*
X72547270Y-62215848D01*
X72547265Y-62215851D01*
X72394129Y-62327111D01*
X72267466Y-62467785D01*
X72172821Y-62631715D01*
X72172818Y-62631722D01*
X72124004Y-62781957D01*
X72114326Y-62811744D01*
X72094540Y-63000000D01*
X62091697Y-63000000D01*
X62058216Y-62966519D01*
X62058214Y-62966517D01*
X61914890Y-62862386D01*
X61757042Y-62781957D01*
X61757039Y-62781956D01*
X61588557Y-62727214D01*
X61501067Y-62713357D01*
X61413579Y-62699500D01*
X61413578Y-62699500D01*
X36342559Y-62699500D01*
X36275520Y-62679815D01*
X36254878Y-62663181D01*
X34579044Y-60987347D01*
X42081887Y-60987347D01*
X42101673Y-61175603D01*
X42101674Y-61175606D01*
X42160165Y-61355624D01*
X42160168Y-61355631D01*
X42254814Y-61519563D01*
X42381476Y-61660235D01*
X42534612Y-61771495D01*
X42534617Y-61771498D01*
X42707539Y-61848489D01*
X42707544Y-61848491D01*
X42892701Y-61887847D01*
X42892702Y-61887847D01*
X43081991Y-61887847D01*
X43081993Y-61887847D01*
X43267150Y-61848491D01*
X43440077Y-61771498D01*
X43593218Y-61660235D01*
X43719880Y-61519563D01*
X43814526Y-61355631D01*
X43873021Y-61175603D01*
X43891477Y-61000000D01*
X44594540Y-61000000D01*
X44614326Y-61188256D01*
X44614327Y-61188259D01*
X44672818Y-61368277D01*
X44672821Y-61368284D01*
X44767467Y-61532216D01*
X44882736Y-61660235D01*
X44894129Y-61672888D01*
X45047265Y-61784148D01*
X45047270Y-61784151D01*
X45220192Y-61861142D01*
X45220197Y-61861144D01*
X45405354Y-61900500D01*
X45405355Y-61900500D01*
X45594644Y-61900500D01*
X45594646Y-61900500D01*
X45779803Y-61861144D01*
X45952730Y-61784151D01*
X46105871Y-61672888D01*
X46232533Y-61532216D01*
X46327179Y-61368284D01*
X46385674Y-61188256D01*
X46405460Y-61000000D01*
X46385674Y-60811744D01*
X46327179Y-60631716D01*
X46232533Y-60467784D01*
X46105871Y-60327112D01*
X46088456Y-60314459D01*
X45952734Y-60215851D01*
X45952729Y-60215848D01*
X45779807Y-60138857D01*
X45779802Y-60138855D01*
X45634001Y-60107865D01*
X45594646Y-60099500D01*
X45405354Y-60099500D01*
X45372897Y-60106398D01*
X45220197Y-60138855D01*
X45220192Y-60138857D01*
X45047270Y-60215848D01*
X45047265Y-60215851D01*
X44894129Y-60327111D01*
X44767466Y-60467785D01*
X44672821Y-60631715D01*
X44672818Y-60631722D01*
X44618437Y-60799091D01*
X44614326Y-60811744D01*
X44594540Y-61000000D01*
X43891477Y-61000000D01*
X43892807Y-60987347D01*
X43873021Y-60799091D01*
X43814526Y-60619063D01*
X43719880Y-60455131D01*
X43593218Y-60314459D01*
X43593217Y-60314458D01*
X43440081Y-60203198D01*
X43440076Y-60203195D01*
X43267154Y-60126204D01*
X43267149Y-60126202D01*
X43121348Y-60095212D01*
X43081993Y-60086847D01*
X42892701Y-60086847D01*
X42860244Y-60093745D01*
X42707544Y-60126202D01*
X42707539Y-60126204D01*
X42534617Y-60203195D01*
X42534612Y-60203198D01*
X42381476Y-60314458D01*
X42254813Y-60455132D01*
X42160168Y-60619062D01*
X42160165Y-60619069D01*
X42101674Y-60799087D01*
X42101673Y-60799091D01*
X42081887Y-60987347D01*
X34579044Y-60987347D01*
X29362824Y-55771127D01*
X29362804Y-55771105D01*
X28123833Y-54532135D01*
X33759500Y-54532135D01*
X33759500Y-56327870D01*
X33759501Y-56327876D01*
X33765908Y-56387483D01*
X33816202Y-56522328D01*
X33816206Y-56522335D01*
X33902452Y-56637544D01*
X33902455Y-56637547D01*
X34017664Y-56723793D01*
X34017671Y-56723797D01*
X34152517Y-56774091D01*
X34152516Y-56774091D01*
X34159444Y-56774835D01*
X34212127Y-56780500D01*
X36007872Y-56780499D01*
X36067483Y-56774091D01*
X36202331Y-56723796D01*
X36317546Y-56637546D01*
X36403796Y-56522331D01*
X36452810Y-56390916D01*
X36494681Y-56334984D01*
X36560145Y-56310566D01*
X36628418Y-56325417D01*
X36656673Y-56346569D01*
X36778599Y-56468495D01*
X36875384Y-56536265D01*
X36972165Y-56604032D01*
X36972167Y-56604033D01*
X36972170Y-56604035D01*
X37186337Y-56703903D01*
X37414592Y-56765063D01*
X37591034Y-56780500D01*
X37649999Y-56785659D01*
X37650000Y-56785659D01*
X37650001Y-56785659D01*
X37708966Y-56780500D01*
X37885408Y-56765063D01*
X38113663Y-56703903D01*
X38327830Y-56604035D01*
X38521401Y-56468495D01*
X38688495Y-56301401D01*
X38818425Y-56115842D01*
X38873002Y-56072217D01*
X38942500Y-56065023D01*
X39004855Y-56096546D01*
X39021575Y-56115842D01*
X39151500Y-56301395D01*
X39151505Y-56301401D01*
X39318599Y-56468495D01*
X39415384Y-56536265D01*
X39512165Y-56604032D01*
X39512167Y-56604033D01*
X39512170Y-56604035D01*
X39726337Y-56703903D01*
X39954592Y-56765063D01*
X40131034Y-56780500D01*
X40189999Y-56785659D01*
X40190000Y-56785659D01*
X40190001Y-56785659D01*
X40248966Y-56780500D01*
X40425408Y-56765063D01*
X40653663Y-56703903D01*
X40867830Y-56604035D01*
X41061401Y-56468495D01*
X41228495Y-56301401D01*
X41358425Y-56115842D01*
X41413002Y-56072217D01*
X41482500Y-56065023D01*
X41544855Y-56096546D01*
X41561575Y-56115842D01*
X41691500Y-56301395D01*
X41691505Y-56301401D01*
X41858599Y-56468495D01*
X41955384Y-56536265D01*
X42052165Y-56604032D01*
X42052167Y-56604033D01*
X42052170Y-56604035D01*
X42266337Y-56703903D01*
X42494592Y-56765063D01*
X42671034Y-56780500D01*
X42729999Y-56785659D01*
X42730000Y-56785659D01*
X42730001Y-56785659D01*
X42788966Y-56780500D01*
X42965408Y-56765063D01*
X43193663Y-56703903D01*
X43407830Y-56604035D01*
X43601401Y-56468495D01*
X43768495Y-56301401D01*
X43898425Y-56115842D01*
X43953002Y-56072217D01*
X44022500Y-56065023D01*
X44084855Y-56096546D01*
X44101575Y-56115842D01*
X44231500Y-56301395D01*
X44231505Y-56301401D01*
X44398599Y-56468495D01*
X44495384Y-56536265D01*
X44592165Y-56604032D01*
X44592167Y-56604033D01*
X44592170Y-56604035D01*
X44806337Y-56703903D01*
X45034592Y-56765063D01*
X45211034Y-56780500D01*
X45269999Y-56785659D01*
X45270000Y-56785659D01*
X45270001Y-56785659D01*
X45328966Y-56780500D01*
X45505408Y-56765063D01*
X45733663Y-56703903D01*
X45947830Y-56604035D01*
X46141401Y-56468495D01*
X46308495Y-56301401D01*
X46438425Y-56115842D01*
X46493002Y-56072217D01*
X46562500Y-56065023D01*
X46624855Y-56096546D01*
X46641575Y-56115842D01*
X46771500Y-56301395D01*
X46771505Y-56301401D01*
X46938599Y-56468495D01*
X47035384Y-56536265D01*
X47132165Y-56604032D01*
X47132167Y-56604033D01*
X47132170Y-56604035D01*
X47346337Y-56703903D01*
X47574592Y-56765063D01*
X47751034Y-56780500D01*
X47809999Y-56785659D01*
X47810000Y-56785659D01*
X47810001Y-56785659D01*
X47868966Y-56780500D01*
X48045408Y-56765063D01*
X48273663Y-56703903D01*
X48487830Y-56604035D01*
X48681401Y-56468495D01*
X48848495Y-56301401D01*
X48978425Y-56115842D01*
X49033002Y-56072217D01*
X49102500Y-56065023D01*
X49164855Y-56096546D01*
X49181575Y-56115842D01*
X49311500Y-56301395D01*
X49311505Y-56301401D01*
X49478599Y-56468495D01*
X49575384Y-56536265D01*
X49672165Y-56604032D01*
X49672167Y-56604033D01*
X49672170Y-56604035D01*
X49886337Y-56703903D01*
X50114592Y-56765063D01*
X50291034Y-56780500D01*
X50349999Y-56785659D01*
X50350000Y-56785659D01*
X50350001Y-56785659D01*
X50408966Y-56780500D01*
X50585408Y-56765063D01*
X50813663Y-56703903D01*
X51027830Y-56604035D01*
X51221401Y-56468495D01*
X51388495Y-56301401D01*
X51518425Y-56115842D01*
X51573002Y-56072217D01*
X51642500Y-56065023D01*
X51704855Y-56096546D01*
X51721575Y-56115842D01*
X51851500Y-56301395D01*
X51851505Y-56301401D01*
X52018599Y-56468495D01*
X52115384Y-56536265D01*
X52212165Y-56604032D01*
X52212167Y-56604033D01*
X52212170Y-56604035D01*
X52426337Y-56703903D01*
X52654592Y-56765063D01*
X52831034Y-56780500D01*
X52889999Y-56785659D01*
X52890000Y-56785659D01*
X52890001Y-56785659D01*
X52948966Y-56780500D01*
X53125408Y-56765063D01*
X53353663Y-56703903D01*
X53567830Y-56604035D01*
X53761401Y-56468495D01*
X53928495Y-56301401D01*
X54064035Y-56107830D01*
X54163903Y-55893663D01*
X54225063Y-55665408D01*
X54245659Y-55430000D01*
X54243690Y-55407500D01*
X54236772Y-55328425D01*
X54225063Y-55194592D01*
X54163903Y-54966337D01*
X54064035Y-54752171D01*
X54058425Y-54744158D01*
X53928494Y-54558597D01*
X53761402Y-54391506D01*
X53761395Y-54391501D01*
X53567834Y-54255967D01*
X53567830Y-54255965D01*
X53545729Y-54245659D01*
X53353663Y-54156097D01*
X53353659Y-54156096D01*
X53353655Y-54156094D01*
X53125413Y-54094938D01*
X53125403Y-54094936D01*
X52890001Y-54074341D01*
X52889999Y-54074341D01*
X52654596Y-54094936D01*
X52654586Y-54094938D01*
X52426344Y-54156094D01*
X52426335Y-54156098D01*
X52212171Y-54255964D01*
X52212169Y-54255965D01*
X52018597Y-54391505D01*
X51851505Y-54558597D01*
X51721575Y-54744158D01*
X51666998Y-54787783D01*
X51597500Y-54794977D01*
X51535145Y-54763454D01*
X51518425Y-54744158D01*
X51388494Y-54558597D01*
X51221402Y-54391506D01*
X51221395Y-54391501D01*
X51027834Y-54255967D01*
X51027830Y-54255965D01*
X51005729Y-54245659D01*
X50813663Y-54156097D01*
X50813659Y-54156096D01*
X50813655Y-54156094D01*
X50585413Y-54094938D01*
X50585403Y-54094936D01*
X50350001Y-54074341D01*
X50349999Y-54074341D01*
X50114596Y-54094936D01*
X50114586Y-54094938D01*
X49886344Y-54156094D01*
X49886335Y-54156098D01*
X49672171Y-54255964D01*
X49672169Y-54255965D01*
X49478597Y-54391505D01*
X49311505Y-54558597D01*
X49181575Y-54744158D01*
X49126998Y-54787783D01*
X49057500Y-54794977D01*
X48995145Y-54763454D01*
X48978425Y-54744158D01*
X48848494Y-54558597D01*
X48681402Y-54391506D01*
X48681395Y-54391501D01*
X48487834Y-54255967D01*
X48487830Y-54255965D01*
X48465729Y-54245659D01*
X48273663Y-54156097D01*
X48273659Y-54156096D01*
X48273655Y-54156094D01*
X48045413Y-54094938D01*
X48045403Y-54094936D01*
X47810001Y-54074341D01*
X47809999Y-54074341D01*
X47574596Y-54094936D01*
X47574586Y-54094938D01*
X47346344Y-54156094D01*
X47346335Y-54156098D01*
X47132171Y-54255964D01*
X47132169Y-54255965D01*
X46938597Y-54391505D01*
X46771505Y-54558597D01*
X46641575Y-54744158D01*
X46586998Y-54787783D01*
X46517500Y-54794977D01*
X46455145Y-54763454D01*
X46438425Y-54744158D01*
X46308494Y-54558597D01*
X46141402Y-54391506D01*
X46141395Y-54391501D01*
X45947834Y-54255967D01*
X45947830Y-54255965D01*
X45925729Y-54245659D01*
X45733663Y-54156097D01*
X45733659Y-54156096D01*
X45733655Y-54156094D01*
X45505413Y-54094938D01*
X45505403Y-54094936D01*
X45270001Y-54074341D01*
X45269999Y-54074341D01*
X45034596Y-54094936D01*
X45034586Y-54094938D01*
X44806344Y-54156094D01*
X44806335Y-54156098D01*
X44592171Y-54255964D01*
X44592169Y-54255965D01*
X44398597Y-54391505D01*
X44231505Y-54558597D01*
X44101575Y-54744158D01*
X44046998Y-54787783D01*
X43977500Y-54794977D01*
X43915145Y-54763454D01*
X43898425Y-54744158D01*
X43768494Y-54558597D01*
X43601402Y-54391506D01*
X43601395Y-54391501D01*
X43407834Y-54255967D01*
X43407830Y-54255965D01*
X43385729Y-54245659D01*
X43193663Y-54156097D01*
X43193659Y-54156096D01*
X43193655Y-54156094D01*
X42965413Y-54094938D01*
X42965403Y-54094936D01*
X42730001Y-54074341D01*
X42729999Y-54074341D01*
X42494596Y-54094936D01*
X42494586Y-54094938D01*
X42266344Y-54156094D01*
X42266335Y-54156098D01*
X42052171Y-54255964D01*
X42052169Y-54255965D01*
X41858597Y-54391505D01*
X41691505Y-54558597D01*
X41561575Y-54744158D01*
X41506998Y-54787783D01*
X41437500Y-54794977D01*
X41375145Y-54763454D01*
X41358425Y-54744158D01*
X41228494Y-54558597D01*
X41061402Y-54391506D01*
X41061395Y-54391501D01*
X40867834Y-54255967D01*
X40867830Y-54255965D01*
X40845729Y-54245659D01*
X40653663Y-54156097D01*
X40653659Y-54156096D01*
X40653655Y-54156094D01*
X40425413Y-54094938D01*
X40425403Y-54094936D01*
X40190001Y-54074341D01*
X40189999Y-54074341D01*
X39954596Y-54094936D01*
X39954586Y-54094938D01*
X39726344Y-54156094D01*
X39726335Y-54156098D01*
X39512171Y-54255964D01*
X39512169Y-54255965D01*
X39318597Y-54391505D01*
X39151505Y-54558597D01*
X39021575Y-54744158D01*
X38966998Y-54787783D01*
X38897500Y-54794977D01*
X38835145Y-54763454D01*
X38818425Y-54744158D01*
X38688494Y-54558597D01*
X38521402Y-54391506D01*
X38521395Y-54391501D01*
X38327834Y-54255967D01*
X38327830Y-54255965D01*
X38305729Y-54245659D01*
X38113663Y-54156097D01*
X38113659Y-54156096D01*
X38113655Y-54156094D01*
X37885413Y-54094938D01*
X37885403Y-54094936D01*
X37650001Y-54074341D01*
X37649999Y-54074341D01*
X37414596Y-54094936D01*
X37414586Y-54094938D01*
X37186344Y-54156094D01*
X37186335Y-54156098D01*
X36972171Y-54255964D01*
X36972169Y-54255965D01*
X36778600Y-54391503D01*
X36656673Y-54513430D01*
X36595350Y-54546914D01*
X36525658Y-54541930D01*
X36469725Y-54500058D01*
X36452810Y-54469081D01*
X36403797Y-54337671D01*
X36403793Y-54337664D01*
X36317547Y-54222455D01*
X36317544Y-54222452D01*
X36202335Y-54136206D01*
X36202328Y-54136202D01*
X36067482Y-54085908D01*
X36067483Y-54085908D01*
X36007883Y-54079501D01*
X36007881Y-54079500D01*
X36007873Y-54079500D01*
X36007864Y-54079500D01*
X34212129Y-54079500D01*
X34212123Y-54079501D01*
X34152516Y-54085908D01*
X34017671Y-54136202D01*
X34017664Y-54136206D01*
X33902455Y-54222452D01*
X33902452Y-54222455D01*
X33816206Y-54337664D01*
X33816202Y-54337671D01*
X33765908Y-54472517D01*
X33759501Y-54532116D01*
X33759500Y-54532135D01*
X28123833Y-54532135D01*
X27492449Y-53900751D01*
X27458964Y-53839428D01*
X27461469Y-53777074D01*
X27486024Y-53696132D01*
X27505341Y-53500000D01*
X27486024Y-53303868D01*
X27428814Y-53115273D01*
X27428811Y-53115269D01*
X27428811Y-53115266D01*
X27335913Y-52941467D01*
X27335909Y-52941460D01*
X27210883Y-52789116D01*
X27058539Y-52664090D01*
X27058532Y-52664086D01*
X26884733Y-52571188D01*
X26884727Y-52571186D01*
X26696132Y-52513976D01*
X26696129Y-52513975D01*
X26500000Y-52494659D01*
X26303868Y-52513975D01*
X26303865Y-52513976D01*
X26222921Y-52538529D01*
X26153054Y-52539151D01*
X26099247Y-52507549D01*
X20591698Y-47000000D01*
X24094540Y-47000000D01*
X24114326Y-47188256D01*
X24114327Y-47188259D01*
X24172818Y-47368277D01*
X24172821Y-47368284D01*
X24267467Y-47532216D01*
X24309137Y-47578495D01*
X24394129Y-47672888D01*
X24547265Y-47784148D01*
X24547270Y-47784151D01*
X24720192Y-47861142D01*
X24720197Y-47861144D01*
X24905354Y-47900500D01*
X24905355Y-47900500D01*
X25094644Y-47900500D01*
X25094646Y-47900500D01*
X25279803Y-47861144D01*
X25452730Y-47784151D01*
X25605871Y-47672888D01*
X25732533Y-47532216D01*
X25827179Y-47368284D01*
X25885674Y-47188256D01*
X25905460Y-47000000D01*
X25885674Y-46811744D01*
X25827179Y-46631716D01*
X25732533Y-46467784D01*
X25605871Y-46327112D01*
X25605870Y-46327111D01*
X25452734Y-46215851D01*
X25452729Y-46215848D01*
X25279807Y-46138857D01*
X25279802Y-46138855D01*
X25134001Y-46107865D01*
X25094646Y-46099500D01*
X24905354Y-46099500D01*
X24872897Y-46106398D01*
X24720197Y-46138855D01*
X24720192Y-46138857D01*
X24547270Y-46215848D01*
X24547265Y-46215851D01*
X24394129Y-46327111D01*
X24267466Y-46467785D01*
X24172821Y-46631715D01*
X24172818Y-46631722D01*
X24114327Y-46811740D01*
X24114326Y-46811744D01*
X24094540Y-47000000D01*
X20591698Y-47000000D01*
X19936819Y-46345121D01*
X19903334Y-46283798D01*
X19900500Y-46257440D01*
X19900500Y-46000000D01*
X28594540Y-46000000D01*
X28614326Y-46188256D01*
X28614327Y-46188259D01*
X28672818Y-46368277D01*
X28672821Y-46368284D01*
X28767467Y-46532216D01*
X28857063Y-46631722D01*
X28894129Y-46672888D01*
X29047265Y-46784148D01*
X29047270Y-46784151D01*
X29220192Y-46861142D01*
X29220197Y-46861144D01*
X29405354Y-46900500D01*
X29405355Y-46900500D01*
X29594644Y-46900500D01*
X29594646Y-46900500D01*
X29779803Y-46861144D01*
X29952730Y-46784151D01*
X30105871Y-46672888D01*
X30232533Y-46532216D01*
X30327179Y-46368284D01*
X30385674Y-46188256D01*
X30405460Y-46000000D01*
X30385674Y-45811744D01*
X30327179Y-45631716D01*
X30252002Y-45501505D01*
X30232535Y-45467787D01*
X30232534Y-45467786D01*
X30232533Y-45467784D01*
X30155716Y-45382470D01*
X30125488Y-45319482D01*
X30134113Y-45250147D01*
X30178854Y-45196481D01*
X30245507Y-45175523D01*
X30247868Y-45175501D01*
X30344340Y-45175501D01*
X30344342Y-45175501D01*
X30529499Y-45136145D01*
X30702426Y-45059152D01*
X30855567Y-44947889D01*
X30982229Y-44807217D01*
X31076875Y-44643285D01*
X31135370Y-44463257D01*
X31155156Y-44275001D01*
X31135370Y-44086745D01*
X31076875Y-43906717D01*
X30982229Y-43742785D01*
X30855567Y-43602113D01*
X30855566Y-43602112D01*
X30702430Y-43490852D01*
X30702425Y-43490849D01*
X30529503Y-43413858D01*
X30529498Y-43413856D01*
X30476997Y-43402697D01*
X30415515Y-43369504D01*
X30381739Y-43308341D01*
X30384846Y-43243090D01*
X30423021Y-43125603D01*
X30442807Y-42937347D01*
X30423021Y-42749091D01*
X30364526Y-42569063D01*
X30362518Y-42562882D01*
X30365260Y-42561990D01*
X30357981Y-42504893D01*
X30388018Y-42441809D01*
X30447393Y-42404980D01*
X30480421Y-42400500D01*
X30594644Y-42400500D01*
X30594646Y-42400500D01*
X30779803Y-42361144D01*
X30952730Y-42284151D01*
X31089888Y-42184500D01*
X31155689Y-42161022D01*
X31223743Y-42176847D01*
X31272438Y-42226953D01*
X31286314Y-42295431D01*
X31282544Y-42316912D01*
X31234939Y-42494583D01*
X31234936Y-42494596D01*
X31214341Y-42729999D01*
X31214341Y-42730000D01*
X31234936Y-42965403D01*
X31234938Y-42965413D01*
X31296094Y-43193655D01*
X31296096Y-43193659D01*
X31296097Y-43193663D01*
X31377521Y-43368277D01*
X31395965Y-43407830D01*
X31395967Y-43407834D01*
X31531501Y-43601395D01*
X31531506Y-43601402D01*
X31698597Y-43768493D01*
X31698603Y-43768498D01*
X31884158Y-43898425D01*
X31927783Y-43953002D01*
X31934977Y-44022500D01*
X31903454Y-44084855D01*
X31884158Y-44101575D01*
X31698597Y-44231505D01*
X31531505Y-44398597D01*
X31395965Y-44592169D01*
X31395964Y-44592171D01*
X31296098Y-44806335D01*
X31296094Y-44806344D01*
X31234938Y-45034586D01*
X31234936Y-45034596D01*
X31214341Y-45269999D01*
X31214341Y-45270000D01*
X31234936Y-45505403D01*
X31234938Y-45505413D01*
X31296094Y-45733655D01*
X31296096Y-45733659D01*
X31296097Y-45733663D01*
X31395965Y-45947830D01*
X31395967Y-45947834D01*
X31531501Y-46141395D01*
X31531506Y-46141402D01*
X31698597Y-46308493D01*
X31698603Y-46308498D01*
X31884158Y-46438425D01*
X31927783Y-46493002D01*
X31934977Y-46562500D01*
X31903454Y-46624855D01*
X31884158Y-46641575D01*
X31698597Y-46771505D01*
X31531505Y-46938597D01*
X31395965Y-47132169D01*
X31395964Y-47132171D01*
X31296098Y-47346335D01*
X31296094Y-47346344D01*
X31234938Y-47574586D01*
X31234936Y-47574596D01*
X31214341Y-47809999D01*
X31214341Y-47810000D01*
X31234936Y-48045403D01*
X31234938Y-48045413D01*
X31296094Y-48273655D01*
X31296096Y-48273659D01*
X31296097Y-48273663D01*
X31395965Y-48487830D01*
X31395967Y-48487834D01*
X31531501Y-48681395D01*
X31531506Y-48681402D01*
X31698597Y-48848493D01*
X31698603Y-48848498D01*
X31884158Y-48978425D01*
X31927783Y-49033002D01*
X31934977Y-49102500D01*
X31903454Y-49164855D01*
X31884158Y-49181575D01*
X31698597Y-49311505D01*
X31531505Y-49478597D01*
X31395965Y-49672169D01*
X31395964Y-49672171D01*
X31296098Y-49886335D01*
X31296094Y-49886344D01*
X31234938Y-50114586D01*
X31234936Y-50114596D01*
X31214341Y-50349999D01*
X31214341Y-50350000D01*
X31234936Y-50585403D01*
X31234938Y-50585413D01*
X31296094Y-50813655D01*
X31296096Y-50813659D01*
X31296097Y-50813663D01*
X31395965Y-51027830D01*
X31395967Y-51027834D01*
X31531501Y-51221395D01*
X31531506Y-51221402D01*
X31698597Y-51388493D01*
X31698603Y-51388498D01*
X31884158Y-51518425D01*
X31927783Y-51573002D01*
X31934977Y-51642500D01*
X31903454Y-51704855D01*
X31884158Y-51721575D01*
X31698597Y-51851505D01*
X31531505Y-52018597D01*
X31395965Y-52212169D01*
X31395964Y-52212171D01*
X31296098Y-52426335D01*
X31296094Y-52426344D01*
X31234938Y-52654586D01*
X31234936Y-52654596D01*
X31214341Y-52889999D01*
X31214341Y-52890000D01*
X31234936Y-53125403D01*
X31234938Y-53125413D01*
X31296094Y-53353655D01*
X31296096Y-53353659D01*
X31296097Y-53353663D01*
X31364335Y-53500000D01*
X31395965Y-53567830D01*
X31395967Y-53567834D01*
X31504281Y-53722521D01*
X31531505Y-53761401D01*
X31698599Y-53928495D01*
X31795384Y-53996265D01*
X31892165Y-54064032D01*
X31892167Y-54064033D01*
X31892170Y-54064035D01*
X32106337Y-54163903D01*
X32334592Y-54225063D01*
X32522918Y-54241539D01*
X32569999Y-54245659D01*
X32570000Y-54245659D01*
X32570001Y-54245659D01*
X32609234Y-54242226D01*
X32805408Y-54225063D01*
X33033663Y-54163903D01*
X33247830Y-54064035D01*
X33441401Y-53928495D01*
X33608495Y-53761401D01*
X33744035Y-53567830D01*
X33843903Y-53353663D01*
X33905063Y-53125408D01*
X33925659Y-52890000D01*
X33923690Y-52867500D01*
X33916833Y-52789117D01*
X33905063Y-52654592D01*
X33843903Y-52426337D01*
X33744035Y-52212171D01*
X33654054Y-52083663D01*
X33608494Y-52018597D01*
X33441402Y-51851506D01*
X33441396Y-51851501D01*
X33255842Y-51721575D01*
X33212217Y-51666998D01*
X33205023Y-51597500D01*
X33236546Y-51535145D01*
X33255842Y-51518425D01*
X33278026Y-51502891D01*
X33441401Y-51388495D01*
X33608495Y-51221401D01*
X33744035Y-51027830D01*
X33843903Y-50813663D01*
X33905063Y-50585408D01*
X33925659Y-50350000D01*
X33923690Y-50327500D01*
X33916772Y-50248425D01*
X33905063Y-50114592D01*
X33843903Y-49886337D01*
X33744035Y-49672171D01*
X33654054Y-49543663D01*
X33608494Y-49478597D01*
X33441402Y-49311506D01*
X33441396Y-49311501D01*
X33255842Y-49181575D01*
X33212217Y-49126998D01*
X33205023Y-49057500D01*
X33236546Y-48995145D01*
X33255842Y-48978425D01*
X33278026Y-48962891D01*
X33441401Y-48848495D01*
X33608495Y-48681401D01*
X33744035Y-48487830D01*
X33843903Y-48273663D01*
X33905063Y-48045408D01*
X33925659Y-47810000D01*
X33923690Y-47787500D01*
X33913663Y-47672888D01*
X33905063Y-47574592D01*
X33843903Y-47346337D01*
X33744035Y-47132171D01*
X33678484Y-47038553D01*
X33608494Y-46938597D01*
X33441402Y-46771506D01*
X33441396Y-46771501D01*
X33255842Y-46641575D01*
X33212217Y-46586998D01*
X33205023Y-46517500D01*
X33236546Y-46455145D01*
X33255842Y-46438425D01*
X33278026Y-46422891D01*
X33441401Y-46308495D01*
X33608495Y-46141401D01*
X33744035Y-45947830D01*
X33843903Y-45733663D01*
X33905063Y-45505408D01*
X33925659Y-45270000D01*
X33923690Y-45247500D01*
X33908906Y-45078520D01*
X33905063Y-45034592D01*
X33843903Y-44806337D01*
X33744035Y-44592171D01*
X33696652Y-44524500D01*
X33608494Y-44398597D01*
X33441402Y-44231506D01*
X33441396Y-44231501D01*
X33255842Y-44101575D01*
X33212217Y-44046998D01*
X33205023Y-43977500D01*
X33236546Y-43915145D01*
X33255842Y-43898425D01*
X33398565Y-43798489D01*
X33441401Y-43768495D01*
X33608495Y-43601401D01*
X33744035Y-43407830D01*
X33843903Y-43193663D01*
X33905063Y-42965408D01*
X33925659Y-42730000D01*
X33923690Y-42707500D01*
X33917263Y-42634035D01*
X33905063Y-42494592D01*
X33843903Y-42266337D01*
X33744035Y-42052171D01*
X33730169Y-42032367D01*
X33608494Y-41858597D01*
X33441402Y-41691506D01*
X33441396Y-41691501D01*
X33255842Y-41561575D01*
X33212217Y-41506998D01*
X33205023Y-41437500D01*
X33236546Y-41375145D01*
X33255842Y-41358425D01*
X33361920Y-41284148D01*
X33441401Y-41228495D01*
X33608495Y-41061401D01*
X33744035Y-40867830D01*
X33843903Y-40653663D01*
X33905063Y-40425408D01*
X33925659Y-40190000D01*
X33923690Y-40167500D01*
X33911541Y-40028633D01*
X33905063Y-39954592D01*
X33843903Y-39726337D01*
X33744035Y-39512171D01*
X33727711Y-39488857D01*
X33608494Y-39318597D01*
X33441402Y-39151506D01*
X33441396Y-39151501D01*
X33255842Y-39021575D01*
X33212217Y-38966998D01*
X33205023Y-38897500D01*
X33236546Y-38835145D01*
X33255842Y-38818425D01*
X33278026Y-38802891D01*
X33441401Y-38688495D01*
X33608495Y-38521401D01*
X33738425Y-38335842D01*
X33793002Y-38292217D01*
X33862500Y-38285023D01*
X33924855Y-38316546D01*
X33941575Y-38335842D01*
X34071500Y-38521395D01*
X34071505Y-38521401D01*
X34238599Y-38688495D01*
X34335384Y-38756265D01*
X34432165Y-38824032D01*
X34432167Y-38824033D01*
X34432170Y-38824035D01*
X34646337Y-38923903D01*
X34874592Y-38985063D01*
X35051034Y-39000500D01*
X35109999Y-39005659D01*
X35110000Y-39005659D01*
X35110001Y-39005659D01*
X35168966Y-39000500D01*
X35345408Y-38985063D01*
X35573663Y-38923903D01*
X35787830Y-38824035D01*
X35981401Y-38688495D01*
X36148495Y-38521401D01*
X36284035Y-38327830D01*
X36383903Y-38113663D01*
X36445063Y-37885408D01*
X36465659Y-37650000D01*
X36465659Y-37649999D01*
X54074341Y-37649999D01*
X54074341Y-37650000D01*
X54094936Y-37885403D01*
X54094938Y-37885413D01*
X54156094Y-38113655D01*
X54156096Y-38113659D01*
X54156097Y-38113663D01*
X54236004Y-38285023D01*
X54255965Y-38327830D01*
X54255967Y-38327834D01*
X54364281Y-38482521D01*
X54391501Y-38521396D01*
X54391506Y-38521402D01*
X54558597Y-38688493D01*
X54558603Y-38688498D01*
X54744158Y-38818425D01*
X54787783Y-38873002D01*
X54794977Y-38942500D01*
X54763454Y-39004855D01*
X54744158Y-39021575D01*
X54558597Y-39151505D01*
X54391505Y-39318597D01*
X54255965Y-39512169D01*
X54255964Y-39512171D01*
X54156098Y-39726335D01*
X54156094Y-39726344D01*
X54094938Y-39954586D01*
X54094936Y-39954596D01*
X54074341Y-40189999D01*
X54074341Y-40190000D01*
X54094936Y-40425403D01*
X54094938Y-40425413D01*
X54156094Y-40653655D01*
X54156096Y-40653659D01*
X54156097Y-40653663D01*
X54223947Y-40799167D01*
X54255965Y-40867830D01*
X54255967Y-40867834D01*
X54391501Y-41061395D01*
X54391506Y-41061402D01*
X54558597Y-41228493D01*
X54558603Y-41228498D01*
X54744158Y-41358425D01*
X54787783Y-41413002D01*
X54794977Y-41482500D01*
X54763454Y-41544855D01*
X54744158Y-41561575D01*
X54558597Y-41691505D01*
X54391505Y-41858597D01*
X54255965Y-42052169D01*
X54255964Y-42052171D01*
X54156098Y-42266335D01*
X54156094Y-42266344D01*
X54094938Y-42494586D01*
X54094936Y-42494596D01*
X54074341Y-42729999D01*
X54074341Y-42730000D01*
X54094936Y-42965403D01*
X54094938Y-42965413D01*
X54156094Y-43193655D01*
X54156096Y-43193659D01*
X54156097Y-43193663D01*
X54237521Y-43368277D01*
X54255965Y-43407830D01*
X54255967Y-43407834D01*
X54391501Y-43601395D01*
X54391506Y-43601402D01*
X54558597Y-43768493D01*
X54558603Y-43768498D01*
X54744158Y-43898425D01*
X54787783Y-43953002D01*
X54794977Y-44022500D01*
X54763454Y-44084855D01*
X54744158Y-44101575D01*
X54558597Y-44231505D01*
X54391505Y-44398597D01*
X54255965Y-44592169D01*
X54255964Y-44592171D01*
X54156098Y-44806335D01*
X54156094Y-44806344D01*
X54094938Y-45034586D01*
X54094936Y-45034596D01*
X54074341Y-45269999D01*
X54074341Y-45270000D01*
X54094936Y-45505403D01*
X54094938Y-45505413D01*
X54156094Y-45733655D01*
X54156096Y-45733659D01*
X54156097Y-45733663D01*
X54255965Y-45947830D01*
X54255967Y-45947834D01*
X54391501Y-46141395D01*
X54391506Y-46141402D01*
X54558597Y-46308493D01*
X54558603Y-46308498D01*
X54744158Y-46438425D01*
X54787783Y-46493002D01*
X54794977Y-46562500D01*
X54763454Y-46624855D01*
X54744158Y-46641575D01*
X54558597Y-46771505D01*
X54391505Y-46938597D01*
X54255965Y-47132169D01*
X54255964Y-47132171D01*
X54156098Y-47346335D01*
X54156094Y-47346344D01*
X54094938Y-47574586D01*
X54094936Y-47574596D01*
X54074341Y-47809999D01*
X54074341Y-47810000D01*
X54094936Y-48045403D01*
X54094938Y-48045413D01*
X54156094Y-48273655D01*
X54156096Y-48273659D01*
X54156097Y-48273663D01*
X54255965Y-48487830D01*
X54255967Y-48487834D01*
X54391501Y-48681395D01*
X54391506Y-48681402D01*
X54558597Y-48848493D01*
X54558603Y-48848498D01*
X54744158Y-48978425D01*
X54787783Y-49033002D01*
X54794977Y-49102500D01*
X54763454Y-49164855D01*
X54744158Y-49181575D01*
X54558597Y-49311505D01*
X54391505Y-49478597D01*
X54255965Y-49672169D01*
X54255964Y-49672171D01*
X54156098Y-49886335D01*
X54156094Y-49886344D01*
X54094938Y-50114586D01*
X54094936Y-50114596D01*
X54074341Y-50349999D01*
X54074341Y-50350000D01*
X54094936Y-50585403D01*
X54094938Y-50585413D01*
X54156094Y-50813655D01*
X54156096Y-50813659D01*
X54156097Y-50813663D01*
X54255965Y-51027830D01*
X54255967Y-51027834D01*
X54391501Y-51221395D01*
X54391506Y-51221402D01*
X54558597Y-51388493D01*
X54558603Y-51388498D01*
X54744158Y-51518425D01*
X54787783Y-51573002D01*
X54794977Y-51642500D01*
X54763454Y-51704855D01*
X54744158Y-51721575D01*
X54558597Y-51851505D01*
X54391505Y-52018597D01*
X54255965Y-52212169D01*
X54255964Y-52212171D01*
X54156098Y-52426335D01*
X54156094Y-52426344D01*
X54094938Y-52654586D01*
X54094936Y-52654596D01*
X54074341Y-52889999D01*
X54074341Y-52890000D01*
X54094936Y-53125403D01*
X54094938Y-53125413D01*
X54156094Y-53353655D01*
X54156096Y-53353659D01*
X54156097Y-53353663D01*
X54224335Y-53500000D01*
X54255965Y-53567830D01*
X54255967Y-53567834D01*
X54364281Y-53722521D01*
X54391505Y-53761401D01*
X54558599Y-53928495D01*
X54655384Y-53996265D01*
X54752165Y-54064032D01*
X54752167Y-54064033D01*
X54752170Y-54064035D01*
X54966337Y-54163903D01*
X55194592Y-54225063D01*
X55382918Y-54241539D01*
X55429999Y-54245659D01*
X55430000Y-54245659D01*
X55430001Y-54245659D01*
X55469234Y-54242226D01*
X55665408Y-54225063D01*
X55893663Y-54163903D01*
X56107830Y-54064035D01*
X56301401Y-53928495D01*
X56468495Y-53761401D01*
X56604035Y-53567830D01*
X56703903Y-53353663D01*
X56765063Y-53125408D01*
X56785659Y-52890000D01*
X56783690Y-52867500D01*
X56776833Y-52789117D01*
X56765063Y-52654592D01*
X56703903Y-52426337D01*
X56604035Y-52212171D01*
X56514054Y-52083663D01*
X56468494Y-52018597D01*
X56301402Y-51851506D01*
X56301396Y-51851501D01*
X56115842Y-51721575D01*
X56072217Y-51666998D01*
X56065023Y-51597500D01*
X56096546Y-51535145D01*
X56115842Y-51518425D01*
X56138026Y-51502891D01*
X56301401Y-51388495D01*
X56468495Y-51221401D01*
X56604035Y-51027830D01*
X56703903Y-50813663D01*
X56765063Y-50585408D01*
X56785659Y-50350000D01*
X56783690Y-50327500D01*
X56776772Y-50248425D01*
X56765063Y-50114592D01*
X56703903Y-49886337D01*
X56604035Y-49672171D01*
X56514054Y-49543663D01*
X56468494Y-49478597D01*
X56301402Y-49311506D01*
X56301396Y-49311501D01*
X56115842Y-49181575D01*
X56072217Y-49126998D01*
X56065023Y-49057500D01*
X56096546Y-48995145D01*
X56115842Y-48978425D01*
X56138026Y-48962891D01*
X56301401Y-48848495D01*
X56468495Y-48681401D01*
X56604035Y-48487830D01*
X56703903Y-48273663D01*
X56765063Y-48045408D01*
X56785659Y-47810000D01*
X56783690Y-47787500D01*
X56773663Y-47672888D01*
X56765063Y-47574592D01*
X56703903Y-47346337D01*
X56604035Y-47132171D01*
X56538484Y-47038553D01*
X56468494Y-46938597D01*
X56301402Y-46771506D01*
X56301396Y-46771501D01*
X56115842Y-46641575D01*
X56072217Y-46586998D01*
X56065023Y-46517500D01*
X56096546Y-46455145D01*
X56115842Y-46438425D01*
X56138026Y-46422891D01*
X56301401Y-46308495D01*
X56468495Y-46141401D01*
X56604035Y-45947830D01*
X56703903Y-45733663D01*
X56765063Y-45505408D01*
X56785659Y-45270000D01*
X56783690Y-45247500D01*
X56768906Y-45078520D01*
X56765063Y-45034592D01*
X56703903Y-44806337D01*
X56604035Y-44592171D01*
X56556652Y-44524500D01*
X56468494Y-44398597D01*
X56301402Y-44231506D01*
X56301396Y-44231501D01*
X56115842Y-44101575D01*
X56072217Y-44046998D01*
X56065023Y-43977500D01*
X56096546Y-43915145D01*
X56115842Y-43898425D01*
X56258565Y-43798489D01*
X56301401Y-43768495D01*
X56468495Y-43601401D01*
X56604035Y-43407830D01*
X56703903Y-43193663D01*
X56765063Y-42965408D01*
X56785659Y-42730000D01*
X56783690Y-42707500D01*
X56777263Y-42634035D01*
X56765063Y-42494592D01*
X56703903Y-42266337D01*
X56604035Y-42052171D01*
X56590169Y-42032367D01*
X56468494Y-41858597D01*
X56301402Y-41691506D01*
X56301396Y-41691501D01*
X56115842Y-41561575D01*
X56072217Y-41506998D01*
X56065023Y-41437500D01*
X56096546Y-41375145D01*
X56115842Y-41358425D01*
X56221920Y-41284148D01*
X56301401Y-41228495D01*
X56468495Y-41061401D01*
X56604035Y-40867830D01*
X56703903Y-40653663D01*
X56765063Y-40425408D01*
X56785659Y-40190000D01*
X56785659Y-40189999D01*
X72644341Y-40189999D01*
X72644341Y-40190000D01*
X72664936Y-40425403D01*
X72664938Y-40425413D01*
X72726094Y-40653655D01*
X72726096Y-40653659D01*
X72726097Y-40653663D01*
X72793947Y-40799167D01*
X72825965Y-40867830D01*
X72825967Y-40867834D01*
X72961501Y-41061395D01*
X72961506Y-41061402D01*
X73128597Y-41228493D01*
X73128603Y-41228498D01*
X73314158Y-41358425D01*
X73357783Y-41413002D01*
X73364977Y-41482500D01*
X73333454Y-41544855D01*
X73314158Y-41561575D01*
X73128597Y-41691505D01*
X72961505Y-41858597D01*
X72825965Y-42052169D01*
X72825964Y-42052171D01*
X72726098Y-42266335D01*
X72726094Y-42266344D01*
X72664938Y-42494586D01*
X72664936Y-42494596D01*
X72644341Y-42729999D01*
X72644341Y-42730000D01*
X72664936Y-42965403D01*
X72664938Y-42965413D01*
X72726094Y-43193655D01*
X72726096Y-43193659D01*
X72726097Y-43193663D01*
X72807521Y-43368277D01*
X72825965Y-43407830D01*
X72825967Y-43407834D01*
X72961501Y-43601395D01*
X72961506Y-43601402D01*
X73128597Y-43768493D01*
X73128603Y-43768498D01*
X73314158Y-43898425D01*
X73357783Y-43953002D01*
X73364977Y-44022500D01*
X73333454Y-44084855D01*
X73314158Y-44101575D01*
X73128597Y-44231505D01*
X72961505Y-44398597D01*
X72825965Y-44592169D01*
X72825964Y-44592171D01*
X72726098Y-44806335D01*
X72726094Y-44806344D01*
X72664938Y-45034586D01*
X72664936Y-45034596D01*
X72644341Y-45269999D01*
X72644341Y-45270000D01*
X72664936Y-45505403D01*
X72664938Y-45505413D01*
X72726094Y-45733655D01*
X72726096Y-45733659D01*
X72726097Y-45733663D01*
X72825965Y-45947830D01*
X72825967Y-45947834D01*
X72961501Y-46141395D01*
X72961506Y-46141402D01*
X73128597Y-46308493D01*
X73128603Y-46308498D01*
X73314158Y-46438425D01*
X73357783Y-46493002D01*
X73364977Y-46562500D01*
X73333454Y-46624855D01*
X73314158Y-46641575D01*
X73128597Y-46771505D01*
X72961505Y-46938597D01*
X72825965Y-47132169D01*
X72825964Y-47132171D01*
X72726098Y-47346335D01*
X72726094Y-47346344D01*
X72664938Y-47574586D01*
X72664936Y-47574596D01*
X72644341Y-47809999D01*
X72644341Y-47810000D01*
X72664936Y-48045403D01*
X72664938Y-48045413D01*
X72726094Y-48273655D01*
X72726096Y-48273659D01*
X72726097Y-48273663D01*
X72825965Y-48487830D01*
X72825967Y-48487834D01*
X72961501Y-48681395D01*
X72961506Y-48681402D01*
X73128597Y-48848493D01*
X73128603Y-48848498D01*
X73314158Y-48978425D01*
X73357783Y-49033002D01*
X73364977Y-49102500D01*
X73333454Y-49164855D01*
X73314158Y-49181575D01*
X73128597Y-49311505D01*
X72961505Y-49478597D01*
X72825965Y-49672169D01*
X72825964Y-49672171D01*
X72726098Y-49886335D01*
X72726094Y-49886344D01*
X72664938Y-50114586D01*
X72664936Y-50114596D01*
X72644341Y-50349999D01*
X72644341Y-50350000D01*
X72664936Y-50585403D01*
X72664938Y-50585413D01*
X72726094Y-50813655D01*
X72726096Y-50813659D01*
X72726097Y-50813663D01*
X72825965Y-51027830D01*
X72825967Y-51027834D01*
X72934281Y-51182521D01*
X72961505Y-51221401D01*
X73128599Y-51388495D01*
X73225384Y-51456265D01*
X73322165Y-51524032D01*
X73322167Y-51524033D01*
X73322170Y-51524035D01*
X73536337Y-51623903D01*
X73764592Y-51685063D01*
X73952918Y-51701539D01*
X73999999Y-51705659D01*
X74000000Y-51705659D01*
X74000001Y-51705659D01*
X74039234Y-51702226D01*
X74235408Y-51685063D01*
X74463663Y-51623903D01*
X74677830Y-51524035D01*
X74871401Y-51388495D01*
X75038495Y-51221401D01*
X75174035Y-51027830D01*
X75273903Y-50813663D01*
X75335063Y-50585408D01*
X75355659Y-50350000D01*
X75353690Y-50327500D01*
X75346772Y-50248425D01*
X75335063Y-50114592D01*
X75273903Y-49886337D01*
X75174035Y-49672171D01*
X75084054Y-49543663D01*
X75038494Y-49478597D01*
X74871402Y-49311506D01*
X74871396Y-49311501D01*
X74685842Y-49181575D01*
X74642217Y-49126998D01*
X74635023Y-49057500D01*
X74666546Y-48995145D01*
X74685842Y-48978425D01*
X74708026Y-48962891D01*
X74871401Y-48848495D01*
X75038495Y-48681401D01*
X75174035Y-48487830D01*
X75273903Y-48273663D01*
X75335063Y-48045408D01*
X75355659Y-47810000D01*
X75353690Y-47787500D01*
X75343663Y-47672888D01*
X75335063Y-47574592D01*
X75273903Y-47346337D01*
X75174035Y-47132171D01*
X75108484Y-47038553D01*
X75038494Y-46938597D01*
X74871402Y-46771506D01*
X74871396Y-46771501D01*
X74685842Y-46641575D01*
X74642217Y-46586998D01*
X74635023Y-46517500D01*
X74666546Y-46455145D01*
X74685842Y-46438425D01*
X74708026Y-46422891D01*
X74871401Y-46308495D01*
X75038495Y-46141401D01*
X75174035Y-45947830D01*
X75273903Y-45733663D01*
X75335063Y-45505408D01*
X75355659Y-45270000D01*
X75353690Y-45247500D01*
X75338906Y-45078520D01*
X75335063Y-45034592D01*
X75273903Y-44806337D01*
X75174035Y-44592171D01*
X75126652Y-44524500D01*
X75038494Y-44398597D01*
X74871402Y-44231506D01*
X74871396Y-44231501D01*
X74685842Y-44101575D01*
X74642217Y-44046998D01*
X74635023Y-43977500D01*
X74666546Y-43915145D01*
X74685842Y-43898425D01*
X74828565Y-43798489D01*
X74871401Y-43768495D01*
X75038495Y-43601401D01*
X75174035Y-43407830D01*
X75273903Y-43193663D01*
X75335063Y-42965408D01*
X75355659Y-42730000D01*
X75353690Y-42707500D01*
X75347263Y-42634035D01*
X75335063Y-42494592D01*
X75273903Y-42266337D01*
X75174035Y-42052171D01*
X75160169Y-42032367D01*
X75038494Y-41858597D01*
X74871402Y-41691506D01*
X74871396Y-41691501D01*
X74685842Y-41561575D01*
X74642217Y-41506998D01*
X74635023Y-41437500D01*
X74666546Y-41375145D01*
X74685842Y-41358425D01*
X74791920Y-41284148D01*
X74871401Y-41228495D01*
X75038495Y-41061401D01*
X75174035Y-40867830D01*
X75273903Y-40653663D01*
X75335063Y-40425408D01*
X75355659Y-40190000D01*
X75353690Y-40167500D01*
X75341541Y-40028633D01*
X75335063Y-39954592D01*
X75273903Y-39726337D01*
X75174035Y-39512171D01*
X75157710Y-39488857D01*
X75038496Y-39318600D01*
X75038493Y-39318597D01*
X74916567Y-39196671D01*
X74883084Y-39135351D01*
X74888068Y-39065659D01*
X74929939Y-39009725D01*
X74960915Y-38992810D01*
X75092331Y-38943796D01*
X75207546Y-38857546D01*
X75293796Y-38742331D01*
X75344091Y-38607483D01*
X75350500Y-38547873D01*
X75350499Y-36752128D01*
X75344091Y-36692517D01*
X75330722Y-36656674D01*
X75293797Y-36557671D01*
X75293793Y-36557664D01*
X75207547Y-36442455D01*
X75207544Y-36442452D01*
X75092335Y-36356206D01*
X75092328Y-36356202D01*
X74957482Y-36305908D01*
X74957483Y-36305908D01*
X74897883Y-36299501D01*
X74897881Y-36299500D01*
X74897873Y-36299500D01*
X74897864Y-36299500D01*
X73102129Y-36299500D01*
X73102123Y-36299501D01*
X73042516Y-36305908D01*
X72907671Y-36356202D01*
X72907664Y-36356206D01*
X72792455Y-36442452D01*
X72792452Y-36442455D01*
X72706206Y-36557664D01*
X72706202Y-36557671D01*
X72655908Y-36692517D01*
X72649501Y-36752116D01*
X72649501Y-36752123D01*
X72649500Y-36752135D01*
X72649500Y-38547870D01*
X72649501Y-38547876D01*
X72655908Y-38607483D01*
X72706202Y-38742328D01*
X72706206Y-38742335D01*
X72792452Y-38857544D01*
X72792455Y-38857547D01*
X72907664Y-38943793D01*
X72907671Y-38943797D01*
X73039081Y-38992810D01*
X73095015Y-39034681D01*
X73119432Y-39100145D01*
X73104580Y-39168418D01*
X73083430Y-39196673D01*
X72961503Y-39318600D01*
X72825965Y-39512169D01*
X72825964Y-39512171D01*
X72726098Y-39726335D01*
X72726094Y-39726344D01*
X72664938Y-39954586D01*
X72664936Y-39954596D01*
X72644341Y-40189999D01*
X56785659Y-40189999D01*
X56783690Y-40167500D01*
X56771541Y-40028633D01*
X56765063Y-39954592D01*
X56703903Y-39726337D01*
X56604035Y-39512171D01*
X56587711Y-39488857D01*
X56468494Y-39318597D01*
X56301402Y-39151506D01*
X56301396Y-39151501D01*
X56115842Y-39021575D01*
X56072217Y-38966998D01*
X56065023Y-38897500D01*
X56096546Y-38835145D01*
X56115842Y-38818425D01*
X56138026Y-38802891D01*
X56301401Y-38688495D01*
X56468495Y-38521401D01*
X56604035Y-38327830D01*
X56703903Y-38113663D01*
X56765063Y-37885408D01*
X56785659Y-37650000D01*
X56783690Y-37627500D01*
X56776772Y-37548425D01*
X56765063Y-37414592D01*
X56703903Y-37186337D01*
X56604035Y-36972171D01*
X56598424Y-36964158D01*
X56468496Y-36778600D01*
X56442012Y-36752116D01*
X56346567Y-36656671D01*
X56313084Y-36595351D01*
X56318068Y-36525659D01*
X56359939Y-36469725D01*
X56390915Y-36452810D01*
X56522331Y-36403796D01*
X56637546Y-36317546D01*
X56723796Y-36202331D01*
X56774091Y-36067483D01*
X56780500Y-36007873D01*
X56780499Y-34212128D01*
X56774091Y-34152517D01*
X56745331Y-34075408D01*
X56723797Y-34017671D01*
X56723793Y-34017664D01*
X56637547Y-33902455D01*
X56637544Y-33902452D01*
X56522335Y-33816206D01*
X56522328Y-33816202D01*
X56387482Y-33765908D01*
X56387483Y-33765908D01*
X56327883Y-33759501D01*
X56327881Y-33759500D01*
X56327873Y-33759500D01*
X56327864Y-33759500D01*
X54532129Y-33759500D01*
X54532123Y-33759501D01*
X54472516Y-33765908D01*
X54337671Y-33816202D01*
X54337664Y-33816206D01*
X54222455Y-33902452D01*
X54222452Y-33902455D01*
X54136206Y-34017664D01*
X54136202Y-34017671D01*
X54085908Y-34152517D01*
X54079501Y-34212116D01*
X54079501Y-34212123D01*
X54079500Y-34212135D01*
X54079500Y-36007870D01*
X54079501Y-36007876D01*
X54085908Y-36067483D01*
X54136202Y-36202328D01*
X54136206Y-36202335D01*
X54222452Y-36317544D01*
X54222455Y-36317547D01*
X54337664Y-36403793D01*
X54337671Y-36403797D01*
X54469081Y-36452810D01*
X54525015Y-36494681D01*
X54549432Y-36560145D01*
X54534580Y-36628418D01*
X54513430Y-36656673D01*
X54391503Y-36778600D01*
X54255965Y-36972169D01*
X54255964Y-36972171D01*
X54156098Y-37186335D01*
X54156094Y-37186344D01*
X54094938Y-37414586D01*
X54094936Y-37414596D01*
X54074341Y-37649999D01*
X36465659Y-37649999D01*
X36463690Y-37627500D01*
X36456772Y-37548425D01*
X36445063Y-37414592D01*
X36383903Y-37186337D01*
X36284035Y-36972171D01*
X36278424Y-36964158D01*
X36148496Y-36778600D01*
X36122012Y-36752116D01*
X36026567Y-36656671D01*
X35993084Y-36595351D01*
X35998068Y-36525659D01*
X36039939Y-36469725D01*
X36070915Y-36452810D01*
X36202331Y-36403796D01*
X36317546Y-36317546D01*
X36403796Y-36202331D01*
X36454091Y-36067483D01*
X36460500Y-36007873D01*
X36460499Y-34212128D01*
X36454091Y-34152517D01*
X36425331Y-34075408D01*
X36403797Y-34017671D01*
X36403795Y-34017668D01*
X36379999Y-33985881D01*
X36326421Y-33914309D01*
X36302004Y-33848848D01*
X36316855Y-33780575D01*
X36326416Y-33765696D01*
X36403796Y-33662331D01*
X36452810Y-33530916D01*
X36494681Y-33474984D01*
X36560145Y-33450566D01*
X36628418Y-33465417D01*
X36656673Y-33486569D01*
X36778599Y-33608495D01*
X36855485Y-33662331D01*
X36972165Y-33744032D01*
X36972167Y-33744033D01*
X36972170Y-33744035D01*
X37186337Y-33843903D01*
X37414592Y-33905063D01*
X37602918Y-33921539D01*
X37649999Y-33925659D01*
X37650000Y-33925659D01*
X37650001Y-33925659D01*
X37689234Y-33922226D01*
X37885408Y-33905063D01*
X38113663Y-33843903D01*
X38327830Y-33744035D01*
X38521401Y-33608495D01*
X38688495Y-33441401D01*
X38818425Y-33255842D01*
X38873002Y-33212217D01*
X38942500Y-33205023D01*
X39004855Y-33236546D01*
X39021575Y-33255842D01*
X39151500Y-33441395D01*
X39151505Y-33441401D01*
X39318599Y-33608495D01*
X39395485Y-33662331D01*
X39512165Y-33744032D01*
X39512167Y-33744033D01*
X39512170Y-33744035D01*
X39726337Y-33843903D01*
X39954592Y-33905063D01*
X40142918Y-33921539D01*
X40189999Y-33925659D01*
X40190000Y-33925659D01*
X40190001Y-33925659D01*
X40229234Y-33922226D01*
X40425408Y-33905063D01*
X40653663Y-33843903D01*
X40867830Y-33744035D01*
X41061401Y-33608495D01*
X41228495Y-33441401D01*
X41358425Y-33255842D01*
X41413002Y-33212217D01*
X41482500Y-33205023D01*
X41544855Y-33236546D01*
X41561575Y-33255842D01*
X41691500Y-33441395D01*
X41691505Y-33441401D01*
X41858599Y-33608495D01*
X41935485Y-33662331D01*
X42052165Y-33744032D01*
X42052167Y-33744033D01*
X42052170Y-33744035D01*
X42266337Y-33843903D01*
X42494592Y-33905063D01*
X42682918Y-33921539D01*
X42729999Y-33925659D01*
X42730000Y-33925659D01*
X42730001Y-33925659D01*
X42769234Y-33922226D01*
X42965408Y-33905063D01*
X43193663Y-33843903D01*
X43407830Y-33744035D01*
X43601401Y-33608495D01*
X43768495Y-33441401D01*
X43898425Y-33255842D01*
X43953002Y-33212217D01*
X44022500Y-33205023D01*
X44084855Y-33236546D01*
X44101575Y-33255842D01*
X44231500Y-33441395D01*
X44231505Y-33441401D01*
X44398599Y-33608495D01*
X44475485Y-33662331D01*
X44592165Y-33744032D01*
X44592167Y-33744033D01*
X44592170Y-33744035D01*
X44806337Y-33843903D01*
X45034592Y-33905063D01*
X45222918Y-33921539D01*
X45269999Y-33925659D01*
X45270000Y-33925659D01*
X45270001Y-33925659D01*
X45309234Y-33922226D01*
X45505408Y-33905063D01*
X45733663Y-33843903D01*
X45947830Y-33744035D01*
X46141401Y-33608495D01*
X46308495Y-33441401D01*
X46438425Y-33255842D01*
X46493002Y-33212217D01*
X46562500Y-33205023D01*
X46624855Y-33236546D01*
X46641575Y-33255842D01*
X46771500Y-33441395D01*
X46771505Y-33441401D01*
X46938599Y-33608495D01*
X47015485Y-33662331D01*
X47132165Y-33744032D01*
X47132167Y-33744033D01*
X47132170Y-33744035D01*
X47346337Y-33843903D01*
X47574592Y-33905063D01*
X47762918Y-33921539D01*
X47809999Y-33925659D01*
X47810000Y-33925659D01*
X47810001Y-33925659D01*
X47849234Y-33922226D01*
X48045408Y-33905063D01*
X48273663Y-33843903D01*
X48487830Y-33744035D01*
X48681401Y-33608495D01*
X48848495Y-33441401D01*
X48978425Y-33255842D01*
X49033002Y-33212217D01*
X49102500Y-33205023D01*
X49164855Y-33236546D01*
X49181575Y-33255842D01*
X49311500Y-33441395D01*
X49311505Y-33441401D01*
X49478599Y-33608495D01*
X49555485Y-33662331D01*
X49672165Y-33744032D01*
X49672167Y-33744033D01*
X49672170Y-33744035D01*
X49886337Y-33843903D01*
X50114592Y-33905063D01*
X50302918Y-33921539D01*
X50349999Y-33925659D01*
X50350000Y-33925659D01*
X50350001Y-33925659D01*
X50389234Y-33922226D01*
X50585408Y-33905063D01*
X50813663Y-33843903D01*
X51027830Y-33744035D01*
X51221401Y-33608495D01*
X51388495Y-33441401D01*
X51518425Y-33255842D01*
X51573002Y-33212217D01*
X51642500Y-33205023D01*
X51704855Y-33236546D01*
X51721575Y-33255842D01*
X51851500Y-33441395D01*
X51851505Y-33441401D01*
X52018599Y-33608495D01*
X52095485Y-33662331D01*
X52212165Y-33744032D01*
X52212167Y-33744033D01*
X52212170Y-33744035D01*
X52426337Y-33843903D01*
X52654592Y-33905063D01*
X52842918Y-33921539D01*
X52889999Y-33925659D01*
X52890000Y-33925659D01*
X52890001Y-33925659D01*
X52929234Y-33922226D01*
X53125408Y-33905063D01*
X53353663Y-33843903D01*
X53567830Y-33744035D01*
X53761401Y-33608495D01*
X53928495Y-33441401D01*
X54064035Y-33247830D01*
X54163903Y-33033663D01*
X54225063Y-32805408D01*
X54245659Y-32570000D01*
X54225063Y-32334592D01*
X54163903Y-32106337D01*
X54064035Y-31892171D01*
X54058425Y-31884158D01*
X53928494Y-31698597D01*
X53761402Y-31531506D01*
X53761395Y-31531501D01*
X53567834Y-31395967D01*
X53567830Y-31395965D01*
X53503197Y-31365826D01*
X53353663Y-31296097D01*
X53353659Y-31296096D01*
X53353655Y-31296094D01*
X53125413Y-31234938D01*
X53125403Y-31234936D01*
X52890001Y-31214341D01*
X52889999Y-31214341D01*
X52654596Y-31234936D01*
X52654586Y-31234938D01*
X52426344Y-31296094D01*
X52426335Y-31296098D01*
X52212171Y-31395964D01*
X52212169Y-31395965D01*
X52018597Y-31531505D01*
X51851505Y-31698597D01*
X51721575Y-31884158D01*
X51666998Y-31927783D01*
X51597500Y-31934977D01*
X51535145Y-31903454D01*
X51518425Y-31884158D01*
X51388494Y-31698597D01*
X51221402Y-31531506D01*
X51221395Y-31531501D01*
X51027834Y-31395967D01*
X51027830Y-31395965D01*
X50963197Y-31365826D01*
X50813663Y-31296097D01*
X50813659Y-31296096D01*
X50813655Y-31296094D01*
X50585413Y-31234938D01*
X50585403Y-31234936D01*
X50350001Y-31214341D01*
X50349999Y-31214341D01*
X50114596Y-31234936D01*
X50114586Y-31234938D01*
X49886344Y-31296094D01*
X49886335Y-31296098D01*
X49672171Y-31395964D01*
X49672169Y-31395965D01*
X49478597Y-31531505D01*
X49311505Y-31698597D01*
X49181575Y-31884158D01*
X49126998Y-31927783D01*
X49057500Y-31934977D01*
X48995145Y-31903454D01*
X48978425Y-31884158D01*
X48848494Y-31698597D01*
X48681402Y-31531506D01*
X48681395Y-31531501D01*
X48487834Y-31395967D01*
X48487830Y-31395965D01*
X48423197Y-31365826D01*
X48273663Y-31296097D01*
X48273659Y-31296096D01*
X48273655Y-31296094D01*
X48045413Y-31234938D01*
X48045403Y-31234936D01*
X47810001Y-31214341D01*
X47809999Y-31214341D01*
X47574596Y-31234936D01*
X47574586Y-31234938D01*
X47346344Y-31296094D01*
X47346335Y-31296098D01*
X47132171Y-31395964D01*
X47132169Y-31395965D01*
X46938597Y-31531505D01*
X46771505Y-31698597D01*
X46641575Y-31884158D01*
X46586998Y-31927783D01*
X46517500Y-31934977D01*
X46455145Y-31903454D01*
X46438425Y-31884158D01*
X46308494Y-31698597D01*
X46141402Y-31531506D01*
X46141395Y-31531501D01*
X45947834Y-31395967D01*
X45947830Y-31395965D01*
X45883197Y-31365826D01*
X45733663Y-31296097D01*
X45733659Y-31296096D01*
X45733655Y-31296094D01*
X45505413Y-31234938D01*
X45505403Y-31234936D01*
X45270001Y-31214341D01*
X45269999Y-31214341D01*
X45034596Y-31234936D01*
X45034586Y-31234938D01*
X44806344Y-31296094D01*
X44806335Y-31296098D01*
X44592171Y-31395964D01*
X44592169Y-31395965D01*
X44398597Y-31531505D01*
X44231505Y-31698597D01*
X44101575Y-31884158D01*
X44046998Y-31927783D01*
X43977500Y-31934977D01*
X43915145Y-31903454D01*
X43898425Y-31884158D01*
X43768494Y-31698597D01*
X43601402Y-31531506D01*
X43601395Y-31531501D01*
X43407834Y-31395967D01*
X43407830Y-31395965D01*
X43343197Y-31365826D01*
X43193663Y-31296097D01*
X43193659Y-31296096D01*
X43193655Y-31296094D01*
X42965413Y-31234938D01*
X42965403Y-31234936D01*
X42730001Y-31214341D01*
X42729999Y-31214341D01*
X42494596Y-31234936D01*
X42494586Y-31234938D01*
X42266344Y-31296094D01*
X42266335Y-31296098D01*
X42052171Y-31395964D01*
X42052169Y-31395965D01*
X41858597Y-31531505D01*
X41691505Y-31698597D01*
X41561575Y-31884158D01*
X41506998Y-31927783D01*
X41437500Y-31934977D01*
X41375145Y-31903454D01*
X41358425Y-31884158D01*
X41228494Y-31698597D01*
X41061402Y-31531506D01*
X41061395Y-31531501D01*
X40867834Y-31395967D01*
X40867830Y-31395965D01*
X40803197Y-31365826D01*
X40653663Y-31296097D01*
X40653659Y-31296096D01*
X40653655Y-31296094D01*
X40425413Y-31234938D01*
X40425403Y-31234936D01*
X40190001Y-31214341D01*
X40189999Y-31214341D01*
X39954596Y-31234936D01*
X39954586Y-31234938D01*
X39726344Y-31296094D01*
X39726335Y-31296098D01*
X39512171Y-31395964D01*
X39512169Y-31395965D01*
X39318597Y-31531505D01*
X39151505Y-31698597D01*
X39021575Y-31884158D01*
X38966998Y-31927783D01*
X38897500Y-31934977D01*
X38835145Y-31903454D01*
X38818425Y-31884158D01*
X38688494Y-31698597D01*
X38521402Y-31531506D01*
X38521395Y-31531501D01*
X38327834Y-31395967D01*
X38327830Y-31395965D01*
X38263197Y-31365826D01*
X38113663Y-31296097D01*
X38113659Y-31296096D01*
X38113655Y-31296094D01*
X37885413Y-31234938D01*
X37885403Y-31234936D01*
X37650001Y-31214341D01*
X37649999Y-31214341D01*
X37414596Y-31234936D01*
X37414586Y-31234938D01*
X37186344Y-31296094D01*
X37186335Y-31296098D01*
X36972171Y-31395964D01*
X36972169Y-31395965D01*
X36778600Y-31531503D01*
X36656673Y-31653430D01*
X36595350Y-31686914D01*
X36525658Y-31681930D01*
X36469725Y-31640058D01*
X36452810Y-31609081D01*
X36403797Y-31477671D01*
X36403793Y-31477664D01*
X36317547Y-31362455D01*
X36317544Y-31362452D01*
X36202335Y-31276206D01*
X36202328Y-31276202D01*
X36067482Y-31225908D01*
X36067483Y-31225908D01*
X36007883Y-31219501D01*
X36007881Y-31219500D01*
X36007873Y-31219500D01*
X36007864Y-31219500D01*
X34212129Y-31219500D01*
X34212123Y-31219501D01*
X34152516Y-31225908D01*
X34017671Y-31276202D01*
X34017664Y-31276206D01*
X33902455Y-31362452D01*
X33902452Y-31362455D01*
X33816206Y-31477664D01*
X33816202Y-31477671D01*
X33765908Y-31612517D01*
X33759501Y-31672116D01*
X33759500Y-31672127D01*
X33759500Y-33467870D01*
X33759501Y-33467876D01*
X33765908Y-33527483D01*
X33812847Y-33653332D01*
X33817831Y-33723024D01*
X33784346Y-33784347D01*
X33723022Y-33817831D01*
X33653332Y-33812847D01*
X33527482Y-33765908D01*
X33527483Y-33765908D01*
X33467883Y-33759501D01*
X33467881Y-33759500D01*
X33467873Y-33759500D01*
X33467864Y-33759500D01*
X31672129Y-33759500D01*
X31672123Y-33759501D01*
X31612516Y-33765908D01*
X31477671Y-33816202D01*
X31477664Y-33816206D01*
X31362455Y-33902452D01*
X31362452Y-33902455D01*
X31276206Y-34017664D01*
X31276202Y-34017671D01*
X31225908Y-34152517D01*
X31219501Y-34212116D01*
X31219501Y-34212123D01*
X31219500Y-34212135D01*
X31219500Y-36007870D01*
X31219501Y-36007876D01*
X31225908Y-36067483D01*
X31276202Y-36202328D01*
X31276206Y-36202335D01*
X31362452Y-36317544D01*
X31362455Y-36317547D01*
X31477664Y-36403793D01*
X31477671Y-36403797D01*
X31609081Y-36452810D01*
X31665015Y-36494681D01*
X31689432Y-36560145D01*
X31674580Y-36628418D01*
X31653430Y-36656673D01*
X31531503Y-36778600D01*
X31395965Y-36972169D01*
X31395964Y-36972171D01*
X31296098Y-37186335D01*
X31296094Y-37186344D01*
X31234938Y-37414586D01*
X31234936Y-37414596D01*
X31214341Y-37649999D01*
X31214341Y-37650000D01*
X31234936Y-37885403D01*
X31234938Y-37885413D01*
X31296094Y-38113655D01*
X31296096Y-38113659D01*
X31296097Y-38113663D01*
X31376004Y-38285023D01*
X31395965Y-38327830D01*
X31395967Y-38327834D01*
X31504281Y-38482521D01*
X31531501Y-38521396D01*
X31531506Y-38521402D01*
X31698597Y-38688493D01*
X31698603Y-38688498D01*
X31884158Y-38818425D01*
X31927783Y-38873002D01*
X31934977Y-38942500D01*
X31903454Y-39004855D01*
X31884158Y-39021575D01*
X31698597Y-39151505D01*
X31531505Y-39318597D01*
X31395965Y-39512169D01*
X31395964Y-39512171D01*
X31296098Y-39726335D01*
X31296094Y-39726344D01*
X31234938Y-39954586D01*
X31234936Y-39954596D01*
X31214341Y-40189999D01*
X31214341Y-40190000D01*
X31234936Y-40425403D01*
X31234938Y-40425413D01*
X31296094Y-40653655D01*
X31296099Y-40653669D01*
X31317553Y-40699677D01*
X31328045Y-40768755D01*
X31299525Y-40832538D01*
X31241048Y-40870777D01*
X31171180Y-40871331D01*
X31113021Y-40835053D01*
X31110756Y-40832538D01*
X31105871Y-40827112D01*
X31105870Y-40827111D01*
X30952734Y-40715851D01*
X30952729Y-40715848D01*
X30779807Y-40638857D01*
X30779802Y-40638855D01*
X30634001Y-40607865D01*
X30594646Y-40599500D01*
X30405354Y-40599500D01*
X30372897Y-40606398D01*
X30220197Y-40638855D01*
X30220192Y-40638857D01*
X30047270Y-40715848D01*
X30047265Y-40715851D01*
X29894129Y-40827111D01*
X29767466Y-40967785D01*
X29672821Y-41131715D01*
X29672818Y-41131722D01*
X29614327Y-41311740D01*
X29614326Y-41311744D01*
X29594540Y-41500000D01*
X29614326Y-41688256D01*
X29614327Y-41688259D01*
X29674829Y-41874465D01*
X29672086Y-41875356D01*
X29679366Y-41932454D01*
X29649329Y-41995538D01*
X29589954Y-42032367D01*
X29556926Y-42036847D01*
X29442701Y-42036847D01*
X29410244Y-42043745D01*
X29257544Y-42076202D01*
X29257539Y-42076204D01*
X29084617Y-42153195D01*
X29084612Y-42153198D01*
X28931476Y-42264458D01*
X28804813Y-42405132D01*
X28710168Y-42569062D01*
X28710165Y-42569069D01*
X28662474Y-42715848D01*
X28651673Y-42749091D01*
X28631887Y-42937347D01*
X28651673Y-43125603D01*
X28651674Y-43125606D01*
X28710165Y-43305624D01*
X28710168Y-43305631D01*
X28804814Y-43469563D01*
X28864936Y-43536335D01*
X28931476Y-43610235D01*
X29084612Y-43721495D01*
X29084617Y-43721498D01*
X29257538Y-43798489D01*
X29257540Y-43798489D01*
X29257544Y-43798491D01*
X29310047Y-43809650D01*
X29371526Y-43842841D01*
X29405303Y-43904004D01*
X29402195Y-43969257D01*
X29364023Y-44086740D01*
X29364023Y-44086741D01*
X29364022Y-44086745D01*
X29344236Y-44275001D01*
X29364022Y-44463257D01*
X29364023Y-44463260D01*
X29422514Y-44643278D01*
X29422517Y-44643285D01*
X29517160Y-44807213D01*
X29517161Y-44807215D01*
X29517163Y-44807217D01*
X29593979Y-44892530D01*
X29624208Y-44955519D01*
X29615583Y-45024854D01*
X29570842Y-45078520D01*
X29504189Y-45099478D01*
X29501828Y-45099500D01*
X29405354Y-45099500D01*
X29372897Y-45106398D01*
X29220197Y-45138855D01*
X29220192Y-45138857D01*
X29047270Y-45215848D01*
X29047265Y-45215851D01*
X28894129Y-45327111D01*
X28767466Y-45467785D01*
X28672821Y-45631715D01*
X28672818Y-45631722D01*
X28614327Y-45811740D01*
X28614326Y-45811744D01*
X28594540Y-46000000D01*
X19900500Y-46000000D01*
X19900500Y-44524500D01*
X19920185Y-44457461D01*
X19972989Y-44411706D01*
X20024500Y-44400500D01*
X20094644Y-44400500D01*
X20094646Y-44400500D01*
X20279803Y-44361144D01*
X20452730Y-44284151D01*
X20605871Y-44172888D01*
X20732533Y-44032216D01*
X20827179Y-43868284D01*
X20885674Y-43688256D01*
X20905460Y-43500000D01*
X20885674Y-43311744D01*
X20827179Y-43131716D01*
X20732533Y-42967784D01*
X20605871Y-42827112D01*
X20605870Y-42827111D01*
X20452734Y-42715851D01*
X20452729Y-42715848D01*
X20279807Y-42638857D01*
X20279802Y-42638855D01*
X20134001Y-42607865D01*
X20094646Y-42599500D01*
X20024500Y-42599500D01*
X19957461Y-42579815D01*
X19911706Y-42527011D01*
X19900500Y-42475500D01*
X19900500Y-41374500D01*
X19920185Y-41307461D01*
X19972989Y-41261706D01*
X20024500Y-41250500D01*
X20094644Y-41250500D01*
X20094646Y-41250500D01*
X20279803Y-41211144D01*
X20452730Y-41134151D01*
X20605871Y-41022888D01*
X20637800Y-40987427D01*
X22594379Y-40987427D01*
X22614165Y-41175683D01*
X22614166Y-41175686D01*
X22672657Y-41355704D01*
X22672662Y-41355716D01*
X22719294Y-41436485D01*
X22735767Y-41504385D01*
X22719295Y-41560483D01*
X22685473Y-41619065D01*
X22685471Y-41619069D01*
X22632991Y-41780588D01*
X22626979Y-41799091D01*
X22607193Y-41987347D01*
X22626979Y-42175603D01*
X22626980Y-42175606D01*
X22685471Y-42355624D01*
X22685472Y-42355626D01*
X22685474Y-42355631D01*
X22714053Y-42405132D01*
X22723050Y-42420714D01*
X22739523Y-42488614D01*
X22723051Y-42544713D01*
X22672820Y-42631716D01*
X22614327Y-42811740D01*
X22614326Y-42811744D01*
X22594540Y-43000000D01*
X22614326Y-43188256D01*
X22614327Y-43188259D01*
X22672818Y-43368277D01*
X22672821Y-43368284D01*
X22767467Y-43532216D01*
X22829762Y-43601401D01*
X22894129Y-43672888D01*
X23047265Y-43784148D01*
X23047270Y-43784151D01*
X23220192Y-43861142D01*
X23220197Y-43861144D01*
X23405354Y-43900500D01*
X23405355Y-43900500D01*
X23594644Y-43900500D01*
X23594646Y-43900500D01*
X23779803Y-43861144D01*
X23952730Y-43784151D01*
X24105871Y-43672888D01*
X24232533Y-43532216D01*
X24327179Y-43368284D01*
X24385674Y-43188256D01*
X24405460Y-43000000D01*
X24385674Y-42811744D01*
X24329499Y-42638855D01*
X24327181Y-42631722D01*
X24327180Y-42631720D01*
X24327179Y-42631716D01*
X24289599Y-42566627D01*
X24273128Y-42498732D01*
X24289599Y-42442635D01*
X24339832Y-42355631D01*
X24398327Y-42175603D01*
X24418113Y-41987347D01*
X24398327Y-41799091D01*
X24339832Y-41619063D01*
X24321030Y-41586497D01*
X24304558Y-41518601D01*
X24327410Y-41452574D01*
X24382331Y-41409383D01*
X24428418Y-41400500D01*
X24594644Y-41400500D01*
X24594646Y-41400500D01*
X24779803Y-41361144D01*
X24952730Y-41284151D01*
X25105871Y-41172888D01*
X25232533Y-41032216D01*
X25327179Y-40868284D01*
X25385674Y-40688256D01*
X25405460Y-40500000D01*
X25385674Y-40311744D01*
X25327179Y-40131716D01*
X25232533Y-39967784D01*
X25105871Y-39827112D01*
X25105870Y-39827111D01*
X24952734Y-39715851D01*
X24952729Y-39715848D01*
X24779807Y-39638857D01*
X24779802Y-39638855D01*
X24634001Y-39607865D01*
X24594646Y-39599500D01*
X24405354Y-39599500D01*
X24372897Y-39606398D01*
X24220197Y-39638855D01*
X24220192Y-39638857D01*
X24047270Y-39715848D01*
X24047265Y-39715851D01*
X23894129Y-39827111D01*
X23767465Y-39967785D01*
X23767463Y-39967788D01*
X23732334Y-40028633D01*
X23681767Y-40076848D01*
X23613160Y-40090070D01*
X23599171Y-40087923D01*
X23598689Y-40087820D01*
X23594485Y-40086927D01*
X23405193Y-40086927D01*
X23372736Y-40093825D01*
X23220036Y-40126282D01*
X23220031Y-40126284D01*
X23047109Y-40203275D01*
X23047104Y-40203278D01*
X22893968Y-40314538D01*
X22767305Y-40455212D01*
X22672660Y-40619142D01*
X22672657Y-40619149D01*
X22614166Y-40799167D01*
X22614165Y-40799171D01*
X22594379Y-40987427D01*
X20637800Y-40987427D01*
X20732533Y-40882216D01*
X20827179Y-40718284D01*
X20885674Y-40538256D01*
X20905460Y-40350000D01*
X20885674Y-40161744D01*
X20827179Y-39981716D01*
X20732533Y-39817784D01*
X20605871Y-39677112D01*
X20605870Y-39677111D01*
X20452734Y-39565851D01*
X20452729Y-39565848D01*
X20279807Y-39488857D01*
X20279802Y-39488855D01*
X20134001Y-39457865D01*
X20094646Y-39449500D01*
X20024500Y-39449500D01*
X19957461Y-39429815D01*
X19911706Y-39377011D01*
X19900500Y-39325500D01*
X19900500Y-32186421D01*
X19898070Y-32171082D01*
X19872786Y-32011445D01*
X19834032Y-31892171D01*
X19818043Y-31842960D01*
X19818042Y-31842957D01*
X19737613Y-31685109D01*
X19735303Y-31681930D01*
X19728182Y-31672128D01*
X19728182Y-31672127D01*
X19633487Y-31541789D01*
X16309378Y-28217680D01*
X16275893Y-28156357D01*
X16280877Y-28086665D01*
X16309378Y-28042318D01*
X16601696Y-27750000D01*
X38344540Y-27750000D01*
X38364326Y-27938256D01*
X38364327Y-27938259D01*
X38422818Y-28118277D01*
X38422821Y-28118284D01*
X38517467Y-28282216D01*
X38637113Y-28415096D01*
X38644129Y-28422888D01*
X38797265Y-28534148D01*
X38797270Y-28534151D01*
X38970192Y-28611142D01*
X38970197Y-28611144D01*
X39155354Y-28650500D01*
X39155355Y-28650500D01*
X39344644Y-28650500D01*
X39344646Y-28650500D01*
X39529803Y-28611144D01*
X39702730Y-28534151D01*
X39855871Y-28422888D01*
X39982533Y-28282216D01*
X40077179Y-28118284D01*
X40135674Y-27938256D01*
X40141494Y-27882882D01*
X41777228Y-27882882D01*
X41797014Y-28071138D01*
X41797015Y-28071141D01*
X41855506Y-28251159D01*
X41855509Y-28251166D01*
X41950155Y-28415098D01*
X42057351Y-28534151D01*
X42076817Y-28555770D01*
X42229953Y-28667030D01*
X42229958Y-28667033D01*
X42402880Y-28744024D01*
X42402885Y-28744026D01*
X42588042Y-28783382D01*
X42588043Y-28783382D01*
X42777332Y-28783382D01*
X42777334Y-28783382D01*
X42962491Y-28744026D01*
X43135418Y-28667033D01*
X43288559Y-28555770D01*
X43415221Y-28415098D01*
X43509867Y-28251166D01*
X43542607Y-28150403D01*
X44319540Y-28150403D01*
X44339326Y-28338659D01*
X44339327Y-28338662D01*
X44397818Y-28518680D01*
X44397821Y-28518687D01*
X44492467Y-28682619D01*
X44583195Y-28783382D01*
X44619129Y-28823291D01*
X44772265Y-28934551D01*
X44772270Y-28934554D01*
X44945192Y-29011545D01*
X44945197Y-29011547D01*
X45130354Y-29050903D01*
X45130355Y-29050903D01*
X45319644Y-29050903D01*
X45319646Y-29050903D01*
X45504803Y-29011547D01*
X45677730Y-28934554D01*
X45830871Y-28823291D01*
X45957533Y-28682619D01*
X46052179Y-28518687D01*
X46110674Y-28338659D01*
X46130460Y-28150403D01*
X46110674Y-27962147D01*
X46052179Y-27782119D01*
X45957533Y-27618187D01*
X45830871Y-27477515D01*
X45830870Y-27477514D01*
X45677734Y-27366254D01*
X45677729Y-27366251D01*
X45612936Y-27337403D01*
X47594540Y-27337403D01*
X47614326Y-27525659D01*
X47614327Y-27525662D01*
X47672818Y-27705680D01*
X47672821Y-27705687D01*
X47767467Y-27869619D01*
X47829271Y-27938259D01*
X47894129Y-28010291D01*
X47974086Y-28068383D01*
X48016752Y-28123713D01*
X48022731Y-28193326D01*
X47990126Y-28255121D01*
X47974087Y-28269019D01*
X47894127Y-28327113D01*
X47767466Y-28467785D01*
X47672821Y-28631715D01*
X47672818Y-28631722D01*
X47623541Y-28783382D01*
X47614326Y-28811744D01*
X47594540Y-29000000D01*
X47614326Y-29188256D01*
X47614327Y-29188259D01*
X47672818Y-29368277D01*
X47672821Y-29368284D01*
X47767467Y-29532216D01*
X47880612Y-29657876D01*
X47894129Y-29672888D01*
X48047265Y-29784148D01*
X48047270Y-29784151D01*
X48220192Y-29861142D01*
X48220197Y-29861144D01*
X48271341Y-29872015D01*
X48332823Y-29905207D01*
X48366599Y-29966370D01*
X48368199Y-29993502D01*
X48369540Y-29993502D01*
X48369540Y-29999997D01*
X48369540Y-30000000D01*
X48389326Y-30188256D01*
X48389327Y-30188259D01*
X48447818Y-30368277D01*
X48447821Y-30368284D01*
X48542467Y-30532216D01*
X48623689Y-30622422D01*
X48669129Y-30672888D01*
X48822265Y-30784148D01*
X48822270Y-30784151D01*
X48995192Y-30861142D01*
X48995197Y-30861144D01*
X49180354Y-30900500D01*
X49180355Y-30900500D01*
X49369644Y-30900500D01*
X49369646Y-30900500D01*
X49554803Y-30861144D01*
X49727730Y-30784151D01*
X49880871Y-30672888D01*
X50007533Y-30532216D01*
X50102179Y-30368284D01*
X50160674Y-30188256D01*
X50180460Y-30000000D01*
X50160674Y-29811744D01*
X50102179Y-29631716D01*
X50007533Y-29467784D01*
X49880871Y-29327112D01*
X49880870Y-29327111D01*
X49727734Y-29215851D01*
X49727729Y-29215848D01*
X49692542Y-29200182D01*
X49639305Y-29154932D01*
X49618984Y-29088082D01*
X49638030Y-29020859D01*
X49690396Y-28974604D01*
X49742978Y-28962903D01*
X49869644Y-28962903D01*
X49869646Y-28962903D01*
X50054803Y-28923547D01*
X50227730Y-28846554D01*
X50380871Y-28735291D01*
X50507533Y-28594619D01*
X50602179Y-28430687D01*
X50660674Y-28250659D01*
X50680460Y-28062403D01*
X50660674Y-27874147D01*
X50602179Y-27694119D01*
X50507533Y-27530187D01*
X50380871Y-27389515D01*
X50370137Y-27381716D01*
X50227734Y-27278254D01*
X50227729Y-27278251D01*
X50054807Y-27201260D01*
X50054802Y-27201258D01*
X49909001Y-27170268D01*
X49869646Y-27161903D01*
X49680354Y-27161903D01*
X49517798Y-27196455D01*
X49448131Y-27191139D01*
X49392397Y-27149002D01*
X49374086Y-27113483D01*
X49327181Y-26969124D01*
X49327178Y-26969118D01*
X49325290Y-26965848D01*
X49232533Y-26805187D01*
X49105871Y-26664515D01*
X49105870Y-26664514D01*
X48952734Y-26553254D01*
X48952729Y-26553251D01*
X48779807Y-26476260D01*
X48779802Y-26476258D01*
X48634001Y-26445268D01*
X48594646Y-26436903D01*
X48405354Y-26436903D01*
X48372897Y-26443801D01*
X48220197Y-26476258D01*
X48220192Y-26476260D01*
X48047270Y-26553251D01*
X48047265Y-26553254D01*
X47894129Y-26664514D01*
X47767466Y-26805188D01*
X47672821Y-26969118D01*
X47672818Y-26969125D01*
X47625914Y-27113483D01*
X47614326Y-27149147D01*
X47594540Y-27337403D01*
X45612936Y-27337403D01*
X45504807Y-27289260D01*
X45504802Y-27289258D01*
X45359001Y-27258268D01*
X45319646Y-27249903D01*
X45130354Y-27249903D01*
X45097897Y-27256801D01*
X44945197Y-27289258D01*
X44945192Y-27289260D01*
X44772270Y-27366251D01*
X44772265Y-27366254D01*
X44619129Y-27477514D01*
X44492466Y-27618188D01*
X44397821Y-27782118D01*
X44397818Y-27782125D01*
X44339327Y-27962143D01*
X44339326Y-27962147D01*
X44319540Y-28150403D01*
X43542607Y-28150403D01*
X43568362Y-28071138D01*
X43588148Y-27882882D01*
X43568362Y-27694626D01*
X43509867Y-27514598D01*
X43415221Y-27350666D01*
X43288559Y-27209994D01*
X43276538Y-27201260D01*
X43135422Y-27098733D01*
X43135417Y-27098730D01*
X42962495Y-27021739D01*
X42962490Y-27021737D01*
X42816689Y-26990747D01*
X42777334Y-26982382D01*
X42588042Y-26982382D01*
X42555585Y-26989280D01*
X42402885Y-27021737D01*
X42402880Y-27021739D01*
X42229958Y-27098730D01*
X42229953Y-27098733D01*
X42076817Y-27209993D01*
X41950154Y-27350667D01*
X41855509Y-27514597D01*
X41855506Y-27514604D01*
X41797015Y-27694622D01*
X41797014Y-27694626D01*
X41777228Y-27882882D01*
X40141494Y-27882882D01*
X40155460Y-27750000D01*
X40135674Y-27561744D01*
X40077179Y-27381716D01*
X39982533Y-27217784D01*
X39855871Y-27077112D01*
X39855870Y-27077111D01*
X39702734Y-26965851D01*
X39702729Y-26965848D01*
X39529807Y-26888857D01*
X39529802Y-26888855D01*
X39384001Y-26857865D01*
X39344646Y-26849500D01*
X39155354Y-26849500D01*
X39122897Y-26856398D01*
X38970197Y-26888855D01*
X38970192Y-26888857D01*
X38797270Y-26965848D01*
X38797265Y-26965851D01*
X38644129Y-27077111D01*
X38517466Y-27217785D01*
X38422821Y-27381715D01*
X38422818Y-27381722D01*
X38367344Y-27552455D01*
X38364326Y-27561744D01*
X38344540Y-27750000D01*
X16601696Y-27750000D01*
X20051696Y-24300000D01*
X42094540Y-24300000D01*
X42114326Y-24488256D01*
X42114327Y-24488259D01*
X42172818Y-24668277D01*
X42172821Y-24668284D01*
X42267467Y-24832216D01*
X42394129Y-24972888D01*
X42456833Y-25018445D01*
X42482913Y-25037393D01*
X42525578Y-25092723D01*
X42531557Y-25162336D01*
X42502177Y-25220683D01*
X42457429Y-25270380D01*
X42362784Y-25434311D01*
X42362781Y-25434318D01*
X42324086Y-25553411D01*
X42304289Y-25614340D01*
X42284503Y-25802596D01*
X42304289Y-25990852D01*
X42304290Y-25990855D01*
X42362781Y-26170873D01*
X42362784Y-26170880D01*
X42457430Y-26334812D01*
X42584092Y-26475484D01*
X42737228Y-26586744D01*
X42737233Y-26586747D01*
X42910155Y-26663738D01*
X42910160Y-26663740D01*
X43095317Y-26703096D01*
X43095318Y-26703096D01*
X43284607Y-26703096D01*
X43284609Y-26703096D01*
X43469766Y-26663740D01*
X43642693Y-26586747D01*
X43795834Y-26475484D01*
X43922496Y-26334812D01*
X43936462Y-26310621D01*
X43987028Y-26262407D01*
X44055635Y-26249183D01*
X44120500Y-26275151D01*
X44161029Y-26332064D01*
X44161780Y-26334304D01*
X44172818Y-26368278D01*
X44172821Y-26368284D01*
X44267467Y-26532216D01*
X44385890Y-26663738D01*
X44394129Y-26672888D01*
X44547265Y-26784148D01*
X44547270Y-26784151D01*
X44720192Y-26861142D01*
X44720197Y-26861144D01*
X44905354Y-26900500D01*
X44905355Y-26900500D01*
X45094644Y-26900500D01*
X45094646Y-26900500D01*
X45279803Y-26861144D01*
X45452730Y-26784151D01*
X45605871Y-26672888D01*
X45732533Y-26532216D01*
X45827179Y-26368284D01*
X45885674Y-26188256D01*
X45905460Y-26000000D01*
X45885674Y-25811744D01*
X45827179Y-25631716D01*
X45732533Y-25467784D01*
X45605871Y-25327112D01*
X45605870Y-25327111D01*
X45452734Y-25215851D01*
X45452729Y-25215848D01*
X45279807Y-25138857D01*
X45279802Y-25138855D01*
X45134001Y-25107865D01*
X45094646Y-25099500D01*
X44905354Y-25099500D01*
X44872897Y-25106398D01*
X44720197Y-25138855D01*
X44720192Y-25138857D01*
X44547270Y-25215848D01*
X44547265Y-25215851D01*
X44394129Y-25327111D01*
X44267465Y-25467785D01*
X44267463Y-25467788D01*
X44253498Y-25491976D01*
X44202930Y-25540190D01*
X44134322Y-25553411D01*
X44069458Y-25527441D01*
X44028932Y-25470526D01*
X44028207Y-25468369D01*
X44017142Y-25434312D01*
X43922496Y-25270380D01*
X43795834Y-25129708D01*
X43707049Y-25065202D01*
X43664384Y-25009872D01*
X43658405Y-24940258D01*
X43687783Y-24881915D01*
X43732533Y-24832216D01*
X43827179Y-24668284D01*
X43885674Y-24488256D01*
X43905460Y-24300000D01*
X43885674Y-24111744D01*
X43827179Y-23931716D01*
X43732533Y-23767784D01*
X43605871Y-23627112D01*
X43605870Y-23627111D01*
X43452734Y-23515851D01*
X43452729Y-23515848D01*
X43279807Y-23438857D01*
X43279802Y-23438855D01*
X43134001Y-23407865D01*
X43094646Y-23399500D01*
X42905354Y-23399500D01*
X42872897Y-23406398D01*
X42720197Y-23438855D01*
X42720192Y-23438857D01*
X42547270Y-23515848D01*
X42547265Y-23515851D01*
X42394129Y-23627111D01*
X42267466Y-23767785D01*
X42172821Y-23931715D01*
X42172818Y-23931722D01*
X42114327Y-24111740D01*
X42114326Y-24111744D01*
X42094540Y-24300000D01*
X20051696Y-24300000D01*
X28042318Y-16309378D01*
X28103641Y-16275893D01*
X28173333Y-16280877D01*
X28217680Y-16309378D01*
X34041784Y-22133482D01*
X34041790Y-22133487D01*
X34094891Y-22172067D01*
X34094893Y-22172068D01*
X34094896Y-22172070D01*
X34185110Y-22237614D01*
X34262529Y-22277061D01*
X34342957Y-22318042D01*
X34342960Y-22318043D01*
X34427201Y-22345414D01*
X34511445Y-22372786D01*
X34686421Y-22400500D01*
X34686422Y-22400500D01*
X34863579Y-22400500D01*
X37972432Y-22400500D01*
X38039471Y-22420185D01*
X38085226Y-22472989D01*
X38095752Y-22511535D01*
X38114326Y-22688256D01*
X38114327Y-22688259D01*
X38172818Y-22868277D01*
X38172821Y-22868284D01*
X38267467Y-23032216D01*
X38394129Y-23172888D01*
X38547265Y-23284148D01*
X38547270Y-23284151D01*
X38720192Y-23361142D01*
X38720197Y-23361144D01*
X38905354Y-23400500D01*
X38905355Y-23400500D01*
X39094644Y-23400500D01*
X39094646Y-23400500D01*
X39279803Y-23361144D01*
X39452730Y-23284151D01*
X39605871Y-23172888D01*
X39732533Y-23032216D01*
X39827179Y-22868284D01*
X39885674Y-22688256D01*
X39904247Y-22511536D01*
X39930832Y-22446924D01*
X39988129Y-22406939D01*
X40027568Y-22400500D01*
X47648215Y-22400500D01*
X47686533Y-22406569D01*
X47687672Y-22406939D01*
X47736445Y-22422786D01*
X47911422Y-22450500D01*
X47911423Y-22450500D01*
X48088578Y-22450500D01*
X48088579Y-22450500D01*
X48263556Y-22422786D01*
X48432042Y-22368042D01*
X48589891Y-22287614D01*
X48733214Y-22183484D01*
X48858484Y-22058214D01*
X48962614Y-21914891D01*
X49043042Y-21757042D01*
X49097786Y-21588556D01*
X49125500Y-21413579D01*
X49125500Y-21236422D01*
X49097786Y-21061445D01*
X49043042Y-20892958D01*
X49043042Y-20892957D01*
X48962614Y-20735110D01*
X48858484Y-20591786D01*
X48683217Y-20416520D01*
X48683213Y-20416516D01*
X48655230Y-20396185D01*
X48655230Y-20396184D01*
X48539893Y-20312388D01*
X48539892Y-20312387D01*
X48539890Y-20312386D01*
X48489320Y-20286619D01*
X48382042Y-20231957D01*
X48382039Y-20231956D01*
X48213557Y-20177214D01*
X48126067Y-20163357D01*
X48038579Y-20149500D01*
X48038578Y-20149500D01*
X35292560Y-20149500D01*
X35225521Y-20129815D01*
X35204879Y-20113181D01*
X30433383Y-15341686D01*
X30399898Y-15280363D01*
X30404882Y-15210671D01*
X30446754Y-15154738D01*
X30512218Y-15130321D01*
X30580491Y-15145173D01*
X30592188Y-15152430D01*
X30622421Y-15173600D01*
X30836507Y-15273429D01*
X30836516Y-15273433D01*
X31050000Y-15330634D01*
X31050000Y-14433012D01*
X31107007Y-14465925D01*
X31234174Y-14500000D01*
X31365826Y-14500000D01*
X31492993Y-14465925D01*
X31550000Y-14433012D01*
X31550000Y-15330634D01*
X31763483Y-15273433D01*
X31763492Y-15273429D01*
X31977578Y-15173600D01*
X32171082Y-15038105D01*
X32338105Y-14871082D01*
X32468119Y-14685405D01*
X32522696Y-14641781D01*
X32592195Y-14634588D01*
X32654549Y-14666110D01*
X32671269Y-14685405D01*
X32801505Y-14871401D01*
X32968599Y-15038495D01*
X33065384Y-15106265D01*
X33162165Y-15174032D01*
X33162167Y-15174033D01*
X33162170Y-15174035D01*
X33376337Y-15273903D01*
X33604592Y-15335063D01*
X33792918Y-15351539D01*
X33839999Y-15355659D01*
X33840000Y-15355659D01*
X33840001Y-15355659D01*
X33879234Y-15352226D01*
X34075408Y-15335063D01*
X34303663Y-15273903D01*
X34517830Y-15174035D01*
X34711401Y-15038495D01*
X34878495Y-14871401D01*
X35008425Y-14685842D01*
X35063002Y-14642217D01*
X35132500Y-14635023D01*
X35194855Y-14666546D01*
X35211575Y-14685842D01*
X35341500Y-14871395D01*
X35341505Y-14871401D01*
X35508599Y-15038495D01*
X35605384Y-15106265D01*
X35702165Y-15174032D01*
X35702167Y-15174033D01*
X35702170Y-15174035D01*
X35916337Y-15273903D01*
X36144592Y-15335063D01*
X36332918Y-15351539D01*
X36379999Y-15355659D01*
X36380000Y-15355659D01*
X36380001Y-15355659D01*
X36419234Y-15352226D01*
X36615408Y-15335063D01*
X36843663Y-15273903D01*
X37057830Y-15174035D01*
X37251401Y-15038495D01*
X37418495Y-14871401D01*
X37548425Y-14685842D01*
X37603002Y-14642217D01*
X37672500Y-14635023D01*
X37734855Y-14666546D01*
X37751575Y-14685842D01*
X37881500Y-14871395D01*
X37881505Y-14871401D01*
X38048599Y-15038495D01*
X38145384Y-15106265D01*
X38242165Y-15174032D01*
X38242167Y-15174033D01*
X38242170Y-15174035D01*
X38456337Y-15273903D01*
X38684592Y-15335063D01*
X38872918Y-15351539D01*
X38919999Y-15355659D01*
X38920000Y-15355659D01*
X38920001Y-15355659D01*
X38959234Y-15352226D01*
X39155408Y-15335063D01*
X39383663Y-15273903D01*
X39597830Y-15174035D01*
X39791401Y-15038495D01*
X39958495Y-14871401D01*
X40088425Y-14685842D01*
X40143002Y-14642217D01*
X40212500Y-14635023D01*
X40274855Y-14666546D01*
X40291575Y-14685842D01*
X40421500Y-14871395D01*
X40421505Y-14871401D01*
X40588599Y-15038495D01*
X40685384Y-15106265D01*
X40782165Y-15174032D01*
X40782167Y-15174033D01*
X40782170Y-15174035D01*
X40996337Y-15273903D01*
X41224592Y-15335063D01*
X41412918Y-15351539D01*
X41459999Y-15355659D01*
X41460000Y-15355659D01*
X41460001Y-15355659D01*
X41499234Y-15352226D01*
X41695408Y-15335063D01*
X41923663Y-15273903D01*
X42137830Y-15174035D01*
X42331401Y-15038495D01*
X42498495Y-14871401D01*
X42628425Y-14685842D01*
X42683002Y-14642217D01*
X42752500Y-14635023D01*
X42814855Y-14666546D01*
X42831575Y-14685842D01*
X42961500Y-14871395D01*
X42961505Y-14871401D01*
X43128599Y-15038495D01*
X43225384Y-15106265D01*
X43322165Y-15174032D01*
X43322167Y-15174033D01*
X43322170Y-15174035D01*
X43536337Y-15273903D01*
X43764592Y-15335063D01*
X43952918Y-15351539D01*
X43999999Y-15355659D01*
X44000000Y-15355659D01*
X44000001Y-15355659D01*
X44039234Y-15352226D01*
X44235408Y-15335063D01*
X44463663Y-15273903D01*
X44677830Y-15174035D01*
X44871401Y-15038495D01*
X45038495Y-14871401D01*
X45168425Y-14685842D01*
X45223002Y-14642217D01*
X45292500Y-14635023D01*
X45354855Y-14666546D01*
X45371575Y-14685842D01*
X45501500Y-14871395D01*
X45501505Y-14871401D01*
X45668599Y-15038495D01*
X45765384Y-15106265D01*
X45862165Y-15174032D01*
X45862167Y-15174033D01*
X45862170Y-15174035D01*
X46076337Y-15273903D01*
X46304592Y-15335063D01*
X46492918Y-15351539D01*
X46539999Y-15355659D01*
X46540000Y-15355659D01*
X46540001Y-15355659D01*
X46579234Y-15352226D01*
X46775408Y-15335063D01*
X47003663Y-15273903D01*
X47217830Y-15174035D01*
X47411401Y-15038495D01*
X47578495Y-14871401D01*
X47708425Y-14685842D01*
X47763002Y-14642217D01*
X47832500Y-14635023D01*
X47894855Y-14666546D01*
X47911575Y-14685842D01*
X48041500Y-14871395D01*
X48041505Y-14871401D01*
X48208599Y-15038495D01*
X48305384Y-15106265D01*
X48402165Y-15174032D01*
X48402167Y-15174033D01*
X48402170Y-15174035D01*
X48616337Y-15273903D01*
X48844592Y-15335063D01*
X49032918Y-15351539D01*
X49079999Y-15355659D01*
X49080000Y-15355659D01*
X49080001Y-15355659D01*
X49119234Y-15352226D01*
X49315408Y-15335063D01*
X49543663Y-15273903D01*
X49757830Y-15174035D01*
X49951401Y-15038495D01*
X50118495Y-14871401D01*
X50248425Y-14685842D01*
X50303002Y-14642217D01*
X50372500Y-14635023D01*
X50434855Y-14666546D01*
X50451575Y-14685842D01*
X50581500Y-14871395D01*
X50581505Y-14871401D01*
X50748599Y-15038495D01*
X50845384Y-15106265D01*
X50942165Y-15174032D01*
X50942167Y-15174033D01*
X50942170Y-15174035D01*
X51156337Y-15273903D01*
X51384592Y-15335063D01*
X51572918Y-15351539D01*
X51619999Y-15355659D01*
X51620000Y-15355659D01*
X51620001Y-15355659D01*
X51659234Y-15352226D01*
X51855408Y-15335063D01*
X52083663Y-15273903D01*
X52297830Y-15174035D01*
X52491401Y-15038495D01*
X52658495Y-14871401D01*
X52788425Y-14685842D01*
X52843002Y-14642217D01*
X52912500Y-14635023D01*
X52974855Y-14666546D01*
X52991575Y-14685842D01*
X53121500Y-14871395D01*
X53121505Y-14871401D01*
X53288599Y-15038495D01*
X53385384Y-15106265D01*
X53482165Y-15174032D01*
X53482167Y-15174033D01*
X53482170Y-15174035D01*
X53696337Y-15273903D01*
X53924592Y-15335063D01*
X54112918Y-15351539D01*
X54159999Y-15355659D01*
X54160000Y-15355659D01*
X54160001Y-15355659D01*
X54199234Y-15352226D01*
X54395408Y-15335063D01*
X54623663Y-15273903D01*
X54837830Y-15174035D01*
X55031401Y-15038495D01*
X55198495Y-14871401D01*
X55328425Y-14685842D01*
X55383002Y-14642217D01*
X55452500Y-14635023D01*
X55514855Y-14666546D01*
X55531575Y-14685842D01*
X55661500Y-14871395D01*
X55661505Y-14871401D01*
X55828599Y-15038495D01*
X55925384Y-15106265D01*
X56022165Y-15174032D01*
X56022167Y-15174033D01*
X56022170Y-15174035D01*
X56236337Y-15273903D01*
X56464592Y-15335063D01*
X56652918Y-15351539D01*
X56699999Y-15355659D01*
X56700000Y-15355659D01*
X56700001Y-15355659D01*
X56739234Y-15352226D01*
X56935408Y-15335063D01*
X57163663Y-15273903D01*
X57377830Y-15174035D01*
X57571401Y-15038495D01*
X57738495Y-14871401D01*
X57868425Y-14685842D01*
X57923002Y-14642217D01*
X57992500Y-14635023D01*
X58054855Y-14666546D01*
X58071575Y-14685842D01*
X58201500Y-14871395D01*
X58201505Y-14871401D01*
X58368599Y-15038495D01*
X58465384Y-15106265D01*
X58562165Y-15174032D01*
X58562167Y-15174033D01*
X58562170Y-15174035D01*
X58776337Y-15273903D01*
X59004592Y-15335063D01*
X59192918Y-15351539D01*
X59239999Y-15355659D01*
X59240000Y-15355659D01*
X59240001Y-15355659D01*
X59279234Y-15352226D01*
X59475408Y-15335063D01*
X59703663Y-15273903D01*
X59917830Y-15174035D01*
X60111401Y-15038495D01*
X60278495Y-14871401D01*
X60414035Y-14677830D01*
X60513903Y-14463663D01*
X60575063Y-14235408D01*
X60595659Y-14000000D01*
X60575063Y-13764592D01*
X60513903Y-13536337D01*
X60414035Y-13322171D01*
X60408731Y-13314595D01*
X60278494Y-13128597D01*
X60111402Y-12961506D01*
X60111395Y-12961501D01*
X59917834Y-12825967D01*
X59917830Y-12825965D01*
X59917828Y-12825964D01*
X59703663Y-12726097D01*
X59703659Y-12726096D01*
X59703655Y-12726094D01*
X59475413Y-12664938D01*
X59475403Y-12664936D01*
X59240001Y-12644341D01*
X59239999Y-12644341D01*
X59004596Y-12664936D01*
X59004586Y-12664938D01*
X58776344Y-12726094D01*
X58776335Y-12726098D01*
X58562171Y-12825964D01*
X58562169Y-12825965D01*
X58368597Y-12961505D01*
X58201505Y-13128597D01*
X58071575Y-13314158D01*
X58016998Y-13357783D01*
X57947500Y-13364977D01*
X57885145Y-13333454D01*
X57868425Y-13314158D01*
X57738494Y-13128597D01*
X57571402Y-12961506D01*
X57571395Y-12961501D01*
X57377834Y-12825967D01*
X57377830Y-12825965D01*
X57377828Y-12825964D01*
X57163663Y-12726097D01*
X57163659Y-12726096D01*
X57163655Y-12726094D01*
X56935413Y-12664938D01*
X56935403Y-12664936D01*
X56700001Y-12644341D01*
X56699999Y-12644341D01*
X56464596Y-12664936D01*
X56464586Y-12664938D01*
X56236344Y-12726094D01*
X56236335Y-12726098D01*
X56022171Y-12825964D01*
X56022169Y-12825965D01*
X55828597Y-12961505D01*
X55661505Y-13128597D01*
X55531575Y-13314158D01*
X55476998Y-13357783D01*
X55407500Y-13364977D01*
X55345145Y-13333454D01*
X55328425Y-13314158D01*
X55198494Y-13128597D01*
X55031402Y-12961506D01*
X55031395Y-12961501D01*
X54837834Y-12825967D01*
X54837830Y-12825965D01*
X54837828Y-12825964D01*
X54623663Y-12726097D01*
X54623659Y-12726096D01*
X54623655Y-12726094D01*
X54395413Y-12664938D01*
X54395403Y-12664936D01*
X54160001Y-12644341D01*
X54159999Y-12644341D01*
X53924596Y-12664936D01*
X53924586Y-12664938D01*
X53696344Y-12726094D01*
X53696335Y-12726098D01*
X53482171Y-12825964D01*
X53482169Y-12825965D01*
X53288597Y-12961505D01*
X53121505Y-13128597D01*
X52991575Y-13314158D01*
X52936998Y-13357783D01*
X52867500Y-13364977D01*
X52805145Y-13333454D01*
X52788425Y-13314158D01*
X52658494Y-13128597D01*
X52491402Y-12961506D01*
X52491395Y-12961501D01*
X52297834Y-12825967D01*
X52297830Y-12825965D01*
X52297828Y-12825964D01*
X52083663Y-12726097D01*
X52083659Y-12726096D01*
X52083655Y-12726094D01*
X51855413Y-12664938D01*
X51855403Y-12664936D01*
X51620001Y-12644341D01*
X51619999Y-12644341D01*
X51384596Y-12664936D01*
X51384586Y-12664938D01*
X51156344Y-12726094D01*
X51156335Y-12726098D01*
X50942171Y-12825964D01*
X50942169Y-12825965D01*
X50748597Y-12961505D01*
X50581505Y-13128597D01*
X50451575Y-13314158D01*
X50396998Y-13357783D01*
X50327500Y-13364977D01*
X50265145Y-13333454D01*
X50248425Y-13314158D01*
X50118494Y-13128597D01*
X49951402Y-12961506D01*
X49951395Y-12961501D01*
X49757834Y-12825967D01*
X49757830Y-12825965D01*
X49757828Y-12825964D01*
X49543663Y-12726097D01*
X49543659Y-12726096D01*
X49543655Y-12726094D01*
X49315413Y-12664938D01*
X49315403Y-12664936D01*
X49080001Y-12644341D01*
X49079999Y-12644341D01*
X48844596Y-12664936D01*
X48844586Y-12664938D01*
X48616344Y-12726094D01*
X48616335Y-12726098D01*
X48402171Y-12825964D01*
X48402169Y-12825965D01*
X48208597Y-12961505D01*
X48041505Y-13128597D01*
X47911575Y-13314158D01*
X47856998Y-13357783D01*
X47787500Y-13364977D01*
X47725145Y-13333454D01*
X47708425Y-13314158D01*
X47578494Y-13128597D01*
X47411402Y-12961506D01*
X47411395Y-12961501D01*
X47217834Y-12825967D01*
X47217830Y-12825965D01*
X47217828Y-12825964D01*
X47003663Y-12726097D01*
X47003659Y-12726096D01*
X47003655Y-12726094D01*
X46775413Y-12664938D01*
X46775403Y-12664936D01*
X46540001Y-12644341D01*
X46539999Y-12644341D01*
X46304596Y-12664936D01*
X46304586Y-12664938D01*
X46076344Y-12726094D01*
X46076335Y-12726098D01*
X45862171Y-12825964D01*
X45862169Y-12825965D01*
X45668597Y-12961505D01*
X45501505Y-13128597D01*
X45371575Y-13314158D01*
X45316998Y-13357783D01*
X45247500Y-13364977D01*
X45185145Y-13333454D01*
X45168425Y-13314158D01*
X45038494Y-13128597D01*
X44871402Y-12961506D01*
X44871395Y-12961501D01*
X44677834Y-12825967D01*
X44677830Y-12825965D01*
X44677828Y-12825964D01*
X44463663Y-12726097D01*
X44463659Y-12726096D01*
X44463655Y-12726094D01*
X44235413Y-12664938D01*
X44235403Y-12664936D01*
X44000001Y-12644341D01*
X43999999Y-12644341D01*
X43764596Y-12664936D01*
X43764586Y-12664938D01*
X43536344Y-12726094D01*
X43536335Y-12726098D01*
X43322171Y-12825964D01*
X43322169Y-12825965D01*
X43128597Y-12961505D01*
X42961505Y-13128597D01*
X42831575Y-13314158D01*
X42776998Y-13357783D01*
X42707500Y-13364977D01*
X42645145Y-13333454D01*
X42628425Y-13314158D01*
X42498494Y-13128597D01*
X42331402Y-12961506D01*
X42331395Y-12961501D01*
X42137834Y-12825967D01*
X42137830Y-12825965D01*
X42137828Y-12825964D01*
X41923663Y-12726097D01*
X41923659Y-12726096D01*
X41923655Y-12726094D01*
X41695413Y-12664938D01*
X41695403Y-12664936D01*
X41460001Y-12644341D01*
X41459999Y-12644341D01*
X41224596Y-12664936D01*
X41224586Y-12664938D01*
X40996344Y-12726094D01*
X40996335Y-12726098D01*
X40782171Y-12825964D01*
X40782169Y-12825965D01*
X40588597Y-12961505D01*
X40421505Y-13128597D01*
X40291575Y-13314158D01*
X40236998Y-13357783D01*
X40167500Y-13364977D01*
X40105145Y-13333454D01*
X40088425Y-13314158D01*
X39958494Y-13128597D01*
X39791402Y-12961506D01*
X39791395Y-12961501D01*
X39597834Y-12825967D01*
X39597830Y-12825965D01*
X39597828Y-12825964D01*
X39383663Y-12726097D01*
X39383659Y-12726096D01*
X39383655Y-12726094D01*
X39155413Y-12664938D01*
X39155403Y-12664936D01*
X38920001Y-12644341D01*
X38919999Y-12644341D01*
X38684596Y-12664936D01*
X38684586Y-12664938D01*
X38456344Y-12726094D01*
X38456335Y-12726098D01*
X38242171Y-12825964D01*
X38242169Y-12825965D01*
X38048597Y-12961505D01*
X37881505Y-13128597D01*
X37751575Y-13314158D01*
X37696998Y-13357783D01*
X37627500Y-13364977D01*
X37565145Y-13333454D01*
X37548425Y-13314158D01*
X37418494Y-13128597D01*
X37251402Y-12961506D01*
X37251395Y-12961501D01*
X37057834Y-12825967D01*
X37057830Y-12825965D01*
X37057828Y-12825964D01*
X36843663Y-12726097D01*
X36843659Y-12726096D01*
X36843655Y-12726094D01*
X36615413Y-12664938D01*
X36615403Y-12664936D01*
X36380001Y-12644341D01*
X36379999Y-12644341D01*
X36144596Y-12664936D01*
X36144586Y-12664938D01*
X35916344Y-12726094D01*
X35916335Y-12726098D01*
X35702171Y-12825964D01*
X35702169Y-12825965D01*
X35508597Y-12961505D01*
X35341505Y-13128597D01*
X35211575Y-13314158D01*
X35156998Y-13357783D01*
X35087500Y-13364977D01*
X35025145Y-13333454D01*
X35008425Y-13314158D01*
X34878494Y-13128597D01*
X34711402Y-12961506D01*
X34711395Y-12961501D01*
X34517834Y-12825967D01*
X34517830Y-12825965D01*
X34517828Y-12825964D01*
X34303663Y-12726097D01*
X34303659Y-12726096D01*
X34303655Y-12726094D01*
X34075413Y-12664938D01*
X34075403Y-12664936D01*
X33840001Y-12644341D01*
X33839999Y-12644341D01*
X33604596Y-12664936D01*
X33604586Y-12664938D01*
X33376344Y-12726094D01*
X33376335Y-12726098D01*
X33162171Y-12825964D01*
X33162169Y-12825965D01*
X32968597Y-12961505D01*
X32801508Y-13128594D01*
X32671269Y-13314595D01*
X32616692Y-13358219D01*
X32547193Y-13365412D01*
X32484839Y-13333890D01*
X32468119Y-13314594D01*
X32338113Y-13128926D01*
X32338108Y-13128920D01*
X32171082Y-12961894D01*
X31977578Y-12826399D01*
X31763492Y-12726570D01*
X31763486Y-12726567D01*
X31550000Y-12669364D01*
X31550000Y-13566988D01*
X31492993Y-13534075D01*
X31365826Y-13500000D01*
X31234174Y-13500000D01*
X31107007Y-13534075D01*
X31050000Y-13566988D01*
X31050000Y-12669364D01*
X31049999Y-12669364D01*
X30836513Y-12726567D01*
X30836507Y-12726570D01*
X30622422Y-12826399D01*
X30622420Y-12826400D01*
X30428926Y-12961886D01*
X30306865Y-13083947D01*
X30245542Y-13117431D01*
X30175850Y-13112447D01*
X30119917Y-13070575D01*
X30103002Y-13039598D01*
X30053797Y-12907671D01*
X30053793Y-12907664D01*
X29967547Y-12792455D01*
X29967544Y-12792452D01*
X29852335Y-12706206D01*
X29852328Y-12706202D01*
X29717482Y-12655908D01*
X29717483Y-12655908D01*
X29657883Y-12649501D01*
X29657881Y-12649500D01*
X29657873Y-12649500D01*
X29657864Y-12649500D01*
X27862129Y-12649500D01*
X27862123Y-12649501D01*
X27802516Y-12655908D01*
X27667671Y-12706202D01*
X27667664Y-12706206D01*
X27552455Y-12792452D01*
X27552452Y-12792455D01*
X27466206Y-12907664D01*
X27466202Y-12907671D01*
X27415908Y-13042517D01*
X27409501Y-13102116D01*
X27409500Y-13102135D01*
X27409500Y-13707440D01*
X27389815Y-13774479D01*
X27373181Y-13795121D01*
X13795120Y-27373181D01*
X13733797Y-27406666D01*
X13707439Y-27409500D01*
X13102129Y-27409500D01*
X13102123Y-27409501D01*
X13042516Y-27415908D01*
X12907671Y-27466202D01*
X12907664Y-27466206D01*
X12792455Y-27552452D01*
X12792452Y-27552455D01*
X12706206Y-27667664D01*
X12706202Y-27667671D01*
X12655908Y-27802517D01*
X12649501Y-27862116D01*
X12649500Y-27862135D01*
X12649500Y-29657870D01*
X12649501Y-29657876D01*
X12655908Y-29717483D01*
X12706202Y-29852328D01*
X12706206Y-29852335D01*
X12792452Y-29967544D01*
X12792455Y-29967547D01*
X12907664Y-30053793D01*
X12907671Y-30053797D01*
X12969902Y-30077007D01*
X13039598Y-30103002D01*
X13095531Y-30144873D01*
X13119949Y-30210337D01*
X13105098Y-30278610D01*
X13083947Y-30306865D01*
X12961886Y-30428926D01*
X12826400Y-30622420D01*
X12826399Y-30622422D01*
X12726570Y-30836507D01*
X12726567Y-30836513D01*
X12669364Y-31049999D01*
X12669364Y-31050000D01*
X13566988Y-31050000D01*
X13534075Y-31107007D01*
X13500000Y-31234174D01*
X13500000Y-31365826D01*
X13534075Y-31492993D01*
X13566988Y-31550000D01*
X12669364Y-31550000D01*
X12726567Y-31763486D01*
X12726570Y-31763492D01*
X12826399Y-31977578D01*
X12961894Y-32171082D01*
X13128917Y-32338105D01*
X13314595Y-32468119D01*
X13358219Y-32522696D01*
X13365412Y-32592195D01*
X13333890Y-32654549D01*
X13314595Y-32671269D01*
X13128594Y-32801508D01*
X12961505Y-32968597D01*
X12825965Y-33162169D01*
X12825964Y-33162171D01*
X12726098Y-33376335D01*
X12726094Y-33376344D01*
X12664938Y-33604586D01*
X12664936Y-33604596D01*
X12644341Y-33839999D01*
X12000000Y-33839999D01*
X12000000Y-12124000D01*
X12019685Y-12056961D01*
X12072489Y-12011206D01*
X12124000Y-12000000D01*
X75876000Y-12000000D01*
X75943039Y-12019685D01*
G37*
%TD.AperFunction*%
%TD*%
M02*
