M48
; DRILL file {KiCad 8.0.7} date 2025-01-13T22:09:35-0500
; FORMAT={-:-/ absolute / inch / decimal}
; #@! TF.CreationDate,2025-01-13T22:09:35-05:00
; #@! TF.GenerationSoftware,Kicad,Pcbnew,8.0.7
; #@! TF.FileFunction,Plated,1,2,PTH
FMAT,2
INCH
; #@! TA.AperFunction,Plated,PTH,ComponentDrill
T1C0.0394
%
G90
G05
T1
X0.5315Y-0.9823
X0.5315Y-1.0823
X0.5315Y-1.1823
X0.5315Y-1.2823
X0.5315Y-1.3823
X0.5315Y-1.4823
X0.5315Y-1.5823
X0.5315Y-1.6823
X0.5315Y-1.7823
X0.5315Y-1.8823
X0.5315Y-1.9823
X0.5315Y-2.0823
X0.5315Y-2.1823
X0.5315Y-2.2823
X0.5315Y-2.3823
X0.5315Y-2.4823
X0.7677Y-0.9823
X0.7677Y-1.0823
X0.7677Y-1.1823
X0.7677Y-1.2823
X0.7677Y-1.3823
X0.7677Y-1.4823
X0.7677Y-1.5823
X0.7677Y-1.6823
X0.7677Y-1.7823
X0.7677Y-1.8823
X0.7677Y-1.9823
X0.7677Y-2.0823
X0.7677Y-2.1823
X0.7677Y-2.2823
X0.7677Y-2.3823
X0.7677Y-2.4823
X0.8661Y-0.9823
X0.8661Y-1.0823
X0.8661Y-1.1823
X0.8661Y-1.2823
X0.8661Y-1.3823
X0.8661Y-1.4823
X0.8661Y-1.5823
X0.8661Y-1.6823
X0.8661Y-1.7823
X0.8661Y-1.8823
X0.8661Y-1.9823
X0.8661Y-2.0823
X0.8661Y-2.1823
X0.8661Y-2.2823
X0.8661Y-2.3823
X0.8661Y-2.4823
X0.9823Y-0.5315
X0.9823Y-0.7677
X0.9823Y-0.8661
X0.9823Y-2.5984
X0.9823Y-2.6969
X0.9823Y-2.9331
X1.0823Y-0.5315
X1.0823Y-0.7677
X1.0823Y-0.8661
X1.0823Y-2.5984
X1.0823Y-2.6969
X1.0823Y-2.9331
X1.1823Y-0.5315
X1.1823Y-0.7677
X1.1823Y-0.8661
X1.1823Y-2.5984
X1.1823Y-2.6969
X1.1823Y-2.9331
X1.2823Y-0.5315
X1.2823Y-0.7677
X1.2823Y-0.8661
X1.2823Y-2.5984
X1.2823Y-2.6969
X1.2823Y-2.9331
X1.3823Y-0.5315
X1.3823Y-0.7677
X1.3823Y-0.8661
X1.3823Y-2.5984
X1.3823Y-2.6969
X1.3823Y-2.9331
X1.4823Y-0.5315
X1.4823Y-0.7677
X1.4823Y-0.8661
X1.4823Y-2.5984
X1.4823Y-2.6969
X1.4823Y-2.9331
X1.5823Y-0.5315
X1.5823Y-0.7677
X1.5823Y-0.8661
X1.5823Y-2.5984
X1.5823Y-2.6969
X1.5823Y-2.9331
X1.6823Y-0.5315
X1.6823Y-0.7677
X1.6823Y-0.8661
X1.6823Y-2.5984
X1.6823Y-2.6969
X1.6823Y-2.9331
X1.7823Y-0.5315
X1.7823Y-0.7677
X1.7823Y-0.8661
X1.7823Y-2.5984
X1.7823Y-2.6969
X1.7823Y-2.9331
X1.8823Y-0.5315
X1.8823Y-0.7677
X1.8823Y-0.8661
X1.8823Y-2.5984
X1.8823Y-2.6969
X1.8823Y-2.9331
X1.9823Y-0.5315
X1.9823Y-0.7677
X1.9823Y-0.8661
X1.9823Y-2.5984
X1.9823Y-2.6969
X1.9823Y-2.9331
X2.0823Y-0.5315
X2.0823Y-0.7677
X2.0823Y-0.8661
X2.0823Y-2.5984
X2.0823Y-2.6969
X2.0823Y-2.9331
X2.1823Y-0.5315
X2.1823Y-0.7677
X2.1823Y-0.8661
X2.1823Y-2.5984
X2.1823Y-2.6969
X2.1823Y-2.9331
X2.2823Y-0.5315
X2.2823Y-0.7677
X2.2823Y-0.8661
X2.2823Y-2.5984
X2.2823Y-2.6969
X2.2823Y-2.9331
X2.3823Y-0.5315
X2.3823Y-0.7677
X2.3823Y-0.8661
X2.3823Y-2.5984
X2.3823Y-2.6969
X2.3823Y-2.9331
X2.4823Y-0.5315
X2.4823Y-0.7677
X2.4823Y-0.8661
X2.4823Y-2.5984
X2.4823Y-2.6969
X2.4823Y-2.9331
X2.5984Y-0.9823
X2.5984Y-1.0823
X2.5984Y-1.1823
X2.5984Y-1.2823
X2.5984Y-1.3823
X2.5984Y-1.4823
X2.5984Y-1.5823
X2.5984Y-1.6823
X2.5984Y-1.7823
X2.5984Y-1.8823
X2.5984Y-1.9823
X2.5984Y-2.0823
X2.5984Y-2.1823
X2.5984Y-2.2823
X2.5984Y-2.3823
X2.5984Y-2.4823
X2.6969Y-0.9823
X2.6969Y-1.0823
X2.6969Y-1.1823
X2.6969Y-1.2823
X2.6969Y-1.3823
X2.6969Y-1.4823
X2.6969Y-1.5823
X2.6969Y-1.6823
X2.6969Y-1.7823
X2.6969Y-1.8823
X2.6969Y-1.9823
X2.6969Y-2.0823
X2.6969Y-2.1823
X2.6969Y-2.2823
X2.6969Y-2.3823
X2.6969Y-2.4823
X2.9331Y-0.9823
X2.9331Y-1.0823
X2.9331Y-1.1823
X2.9331Y-1.2823
X2.9331Y-1.3823
X2.9331Y-1.4823
X2.9331Y-1.5823
X2.9331Y-1.6823
X2.9331Y-1.7823
X2.9331Y-1.8823
X2.9331Y-1.9823
X2.9331Y-2.0823
X2.9331Y-2.1823
X2.9331Y-2.2823
X2.9331Y-2.3823
X2.9331Y-2.4823
M30
