%TF.GenerationSoftware,KiCad,Pcbnew,8.0.7*%
%TF.CreationDate,2025-01-13T22:09:37-05:00*%
%TF.ProjectId,Core Holder,436f7265-2048-46f6-9c64-65722e6b6963,rev?*%
%TF.SameCoordinates,Original*%
%TF.FileFunction,Soldermask,Bot*%
%TF.FilePolarity,Negative*%
%FSLAX46Y46*%
G04 Gerber Fmt 4.6, Leading zero omitted, Abs format (unit mm)*
G04 Created by KiCad (PCBNEW 8.0.7) date 2025-01-13 22:09:37*
%MOMM*%
%LPD*%
G01*
G04 APERTURE LIST*
%ADD10R,1.700000X1.700000*%
%ADD11O,1.700000X1.700000*%
G04 APERTURE END LIST*
D10*
%TO.C,X2.2*%
X66000000Y-24950000D03*
D11*
X66000000Y-27490000D03*
X66000000Y-30030000D03*
X66000000Y-32570000D03*
X66000000Y-35110000D03*
X66000000Y-37650000D03*
X66000000Y-40190000D03*
X66000000Y-42730000D03*
X66000000Y-45270000D03*
X66000000Y-47810000D03*
X66000000Y-50350000D03*
X66000000Y-52890000D03*
X66000000Y-55430000D03*
X66000000Y-57970000D03*
X66000000Y-60510000D03*
X66000000Y-63050000D03*
%TD*%
D10*
%TO.C,X2*%
X74500000Y-24950000D03*
D11*
X74500000Y-27490000D03*
X74500000Y-30030000D03*
X74500000Y-32570000D03*
X74500000Y-35110000D03*
X74500000Y-37650000D03*
X74500000Y-40190000D03*
X74500000Y-42730000D03*
X74500000Y-45270000D03*
X74500000Y-47810000D03*
X74500000Y-50350000D03*
X74500000Y-52890000D03*
X74500000Y-55430000D03*
X74500000Y-57970000D03*
X74500000Y-60510000D03*
X74500000Y-63050000D03*
%TD*%
D10*
%TO.C,Y2*%
X24950000Y-74500000D03*
D11*
X27490000Y-74500000D03*
X30030000Y-74500000D03*
X32570000Y-74500000D03*
X35110000Y-74500000D03*
X37650000Y-74500000D03*
X40190000Y-74500000D03*
X42730000Y-74500000D03*
X45270000Y-74500000D03*
X47810000Y-74500000D03*
X50350000Y-74500000D03*
X52890000Y-74500000D03*
X55430000Y-74500000D03*
X57970000Y-74500000D03*
X60510000Y-74500000D03*
X63050000Y-74500000D03*
%TD*%
D10*
%TO.C,Y1*%
X24950000Y-13500000D03*
D11*
X27490000Y-13500000D03*
X30030000Y-13500000D03*
X32570000Y-13500000D03*
X35110000Y-13500000D03*
X37650000Y-13500000D03*
X40190000Y-13500000D03*
X42730000Y-13500000D03*
X45270000Y-13500000D03*
X47810000Y-13500000D03*
X50350000Y-13500000D03*
X52890000Y-13500000D03*
X55430000Y-13500000D03*
X57970000Y-13500000D03*
X60510000Y-13500000D03*
X63050000Y-13500000D03*
%TD*%
D10*
%TO.C,X1.1*%
X19500000Y-24950000D03*
D11*
X19500000Y-27490000D03*
X19500000Y-30030000D03*
X19500000Y-32570000D03*
X19500000Y-35110000D03*
X19500000Y-37650000D03*
X19500000Y-40190000D03*
X19500000Y-42730000D03*
X19500000Y-45270000D03*
X19500000Y-47810000D03*
X19500000Y-50350000D03*
X19500000Y-52890000D03*
X19500000Y-55430000D03*
X19500000Y-57970000D03*
X19500000Y-60510000D03*
X19500000Y-63050000D03*
%TD*%
D10*
%TO.C,Y2.2*%
X24950000Y-66000000D03*
D11*
X27490000Y-66000000D03*
X30030000Y-66000000D03*
X32570000Y-66000000D03*
X35110000Y-66000000D03*
X37650000Y-66000000D03*
X40190000Y-66000000D03*
X42730000Y-66000000D03*
X45270000Y-66000000D03*
X47810000Y-66000000D03*
X50350000Y-66000000D03*
X52890000Y-66000000D03*
X55430000Y-66000000D03*
X57970000Y-66000000D03*
X60510000Y-66000000D03*
X63050000Y-66000000D03*
%TD*%
D10*
%TO.C,X1*%
X13500000Y-24950000D03*
D11*
X13500000Y-27490000D03*
X13500000Y-30030000D03*
X13500000Y-32570000D03*
X13500000Y-35110000D03*
X13500000Y-37650000D03*
X13500000Y-40190000D03*
X13500000Y-42730000D03*
X13500000Y-45270000D03*
X13500000Y-47810000D03*
X13500000Y-50350000D03*
X13500000Y-52890000D03*
X13500000Y-55430000D03*
X13500000Y-57970000D03*
X13500000Y-60510000D03*
X13500000Y-63050000D03*
%TD*%
D10*
%TO.C,X1.2*%
X22000000Y-24950000D03*
D11*
X22000000Y-27490000D03*
X22000000Y-30030000D03*
X22000000Y-32570000D03*
X22000000Y-35110000D03*
X22000000Y-37650000D03*
X22000000Y-40190000D03*
X22000000Y-42730000D03*
X22000000Y-45270000D03*
X22000000Y-47810000D03*
X22000000Y-50350000D03*
X22000000Y-52890000D03*
X22000000Y-55430000D03*
X22000000Y-57970000D03*
X22000000Y-60510000D03*
X22000000Y-63050000D03*
%TD*%
D10*
%TO.C,Y1.2*%
X24950000Y-22000000D03*
D11*
X27490000Y-22000000D03*
X30030000Y-22000000D03*
X32570000Y-22000000D03*
X35110000Y-22000000D03*
X37650000Y-22000000D03*
X40190000Y-22000000D03*
X42730000Y-22000000D03*
X45270000Y-22000000D03*
X47810000Y-22000000D03*
X50350000Y-22000000D03*
X52890000Y-22000000D03*
X55430000Y-22000000D03*
X57970000Y-22000000D03*
X60510000Y-22000000D03*
X63050000Y-22000000D03*
%TD*%
D10*
%TO.C,Y1.1*%
X24950000Y-19500000D03*
D11*
X27490000Y-19500000D03*
X30030000Y-19500000D03*
X32570000Y-19500000D03*
X35110000Y-19500000D03*
X37650000Y-19500000D03*
X40190000Y-19500000D03*
X42730000Y-19500000D03*
X45270000Y-19500000D03*
X47810000Y-19500000D03*
X50350000Y-19500000D03*
X52890000Y-19500000D03*
X55430000Y-19500000D03*
X57970000Y-19500000D03*
X60510000Y-19500000D03*
X63050000Y-19500000D03*
%TD*%
D10*
%TO.C,Y2.1*%
X24950000Y-68500000D03*
D11*
X27490000Y-68500000D03*
X30030000Y-68500000D03*
X32570000Y-68500000D03*
X35110000Y-68500000D03*
X37650000Y-68500000D03*
X40190000Y-68500000D03*
X42730000Y-68500000D03*
X45270000Y-68500000D03*
X47810000Y-68500000D03*
X50350000Y-68500000D03*
X52890000Y-68500000D03*
X55430000Y-68500000D03*
X57970000Y-68500000D03*
X60510000Y-68500000D03*
X63050000Y-68500000D03*
%TD*%
D10*
%TO.C,X2.1*%
X68500000Y-24950000D03*
D11*
X68500000Y-27490000D03*
X68500000Y-30030000D03*
X68500000Y-32570000D03*
X68500000Y-35110000D03*
X68500000Y-37650000D03*
X68500000Y-40190000D03*
X68500000Y-42730000D03*
X68500000Y-45270000D03*
X68500000Y-47810000D03*
X68500000Y-50350000D03*
X68500000Y-52890000D03*
X68500000Y-55430000D03*
X68500000Y-57970000D03*
X68500000Y-60510000D03*
X68500000Y-63050000D03*
%TD*%
M02*
