%TF.GenerationSoftware,KiCad,Pcbnew,8.0.7*%
%TF.CreationDate,2025-01-13T22:09:37-05:00*%
%TF.ProjectId,Core Holder,436f7265-2048-46f6-9c64-65722e6b6963,rev?*%
%TF.SameCoordinates,Original*%
%TF.FileFunction,Soldermask,Top*%
%TF.FilePolarity,Negative*%
%FSLAX46Y46*%
G04 Gerber Fmt 4.6, Leading zero omitted, Abs format (unit mm)*
G04 Created by KiCad (PCBNEW 8.0.7) date 2025-01-13 22:09:37*
%MOMM*%
%LPD*%
G01*
G04 APERTURE LIST*
G04 Aperture macros list*
%AMRoundRect*
0 Rectangle with rounded corners*
0 $1 Rounding radius*
0 $2 $3 $4 $5 $6 $7 $8 $9 X,Y pos of 4 corners*
0 Add a 4 corners polygon primitive as box body*
4,1,4,$2,$3,$4,$5,$6,$7,$8,$9,$2,$3,0*
0 Add four circle primitives for the rounded corners*
1,1,$1+$1,$2,$3*
1,1,$1+$1,$4,$5*
1,1,$1+$1,$6,$7*
1,1,$1+$1,$8,$9*
0 Add four rect primitives between the rounded corners*
20,1,$1+$1,$2,$3,$4,$5,0*
20,1,$1+$1,$4,$5,$6,$7,0*
20,1,$1+$1,$6,$7,$8,$9,0*
20,1,$1+$1,$8,$9,$2,$3,0*%
G04 Aperture macros list end*
%ADD10C,0.200000*%
%ADD11RoundRect,0.237500X0.237500X-0.250000X0.237500X0.250000X-0.237500X0.250000X-0.237500X-0.250000X0*%
%ADD12RoundRect,0.237500X-0.250000X-0.237500X0.250000X-0.237500X0.250000X0.237500X-0.250000X0.237500X0*%
%ADD13R,1.700000X1.700000*%
%ADD14O,1.700000X1.700000*%
G04 APERTURE END LIST*
D10*
X64500000Y-29030000D02*
X69500000Y-29030000D01*
X69500000Y-31030000D01*
X64500000Y-31030000D01*
X64500000Y-29030000D01*
G36*
X64500000Y-29030000D02*
G01*
X69500000Y-29030000D01*
X69500000Y-31030000D01*
X64500000Y-31030000D01*
X64500000Y-29030000D01*
G37*
X64500000Y-46810000D02*
X69500000Y-46810000D01*
X69500000Y-48810000D01*
X64500000Y-48810000D01*
X64500000Y-46810000D01*
G36*
X64500000Y-46810000D02*
G01*
X69500000Y-46810000D01*
X69500000Y-48810000D01*
X64500000Y-48810000D01*
X64500000Y-46810000D01*
G37*
X31570000Y-64500000D02*
X33570000Y-64500000D01*
X33570000Y-69500000D01*
X31570000Y-69500000D01*
X31570000Y-64500000D01*
G36*
X31570000Y-64500000D02*
G01*
X33570000Y-64500000D01*
X33570000Y-69500000D01*
X31570000Y-69500000D01*
X31570000Y-64500000D01*
G37*
X64500000Y-26490000D02*
X69500000Y-26490000D01*
X69500000Y-28490000D01*
X64500000Y-28490000D01*
X64500000Y-26490000D01*
G36*
X64500000Y-26490000D02*
G01*
X69500000Y-26490000D01*
X69500000Y-28490000D01*
X64500000Y-28490000D01*
X64500000Y-26490000D01*
G37*
X23500000Y-38650000D02*
X18500000Y-38650000D01*
X18500000Y-36650000D01*
X23500000Y-36650000D01*
X23500000Y-38650000D01*
G36*
X23500000Y-38650000D02*
G01*
X18500000Y-38650000D01*
X18500000Y-36650000D01*
X23500000Y-36650000D01*
X23500000Y-38650000D01*
G37*
X31570000Y-18500000D02*
X33570000Y-18500000D01*
X33570000Y-23500000D01*
X31570000Y-23500000D01*
X31570000Y-18500000D01*
G36*
X31570000Y-18500000D02*
G01*
X33570000Y-18500000D01*
X33570000Y-23500000D01*
X31570000Y-23500000D01*
X31570000Y-18500000D01*
G37*
X64500000Y-54430000D02*
X69500000Y-54430000D01*
X69500000Y-56430000D01*
X64500000Y-56430000D01*
X64500000Y-54430000D01*
G36*
X64500000Y-54430000D02*
G01*
X69500000Y-54430000D01*
X69500000Y-56430000D01*
X64500000Y-56430000D01*
X64500000Y-54430000D01*
G37*
X36650000Y-64500000D02*
X38650000Y-64500000D01*
X38650000Y-69500000D01*
X36650000Y-69500000D01*
X36650000Y-64500000D01*
G36*
X36650000Y-64500000D02*
G01*
X38650000Y-64500000D01*
X38650000Y-69500000D01*
X36650000Y-69500000D01*
X36650000Y-64500000D01*
G37*
X23500000Y-28490000D02*
X18500000Y-28490000D01*
X18500000Y-26490000D01*
X23500000Y-26490000D01*
X23500000Y-28490000D01*
G36*
X23500000Y-28490000D02*
G01*
X18500000Y-28490000D01*
X18500000Y-26490000D01*
X23500000Y-26490000D01*
X23500000Y-28490000D01*
G37*
X64500000Y-23950000D02*
X69500000Y-23950000D01*
X69500000Y-25950000D01*
X64500000Y-25950000D01*
X64500000Y-23950000D01*
G36*
X64500000Y-23950000D02*
G01*
X69500000Y-23950000D01*
X69500000Y-25950000D01*
X64500000Y-25950000D01*
X64500000Y-23950000D01*
G37*
X56970000Y-64500000D02*
X58970000Y-64500000D01*
X58970000Y-69500000D01*
X56970000Y-69500000D01*
X56970000Y-64500000D01*
G36*
X56970000Y-64500000D02*
G01*
X58970000Y-64500000D01*
X58970000Y-69500000D01*
X56970000Y-69500000D01*
X56970000Y-64500000D01*
G37*
X46810000Y-18500000D02*
X48810000Y-18500000D01*
X48810000Y-23500000D01*
X46810000Y-23500000D01*
X46810000Y-18500000D01*
G36*
X46810000Y-18500000D02*
G01*
X48810000Y-18500000D01*
X48810000Y-23500000D01*
X46810000Y-23500000D01*
X46810000Y-18500000D01*
G37*
X26490000Y-18500000D02*
X28490000Y-18500000D01*
X28490000Y-23500000D01*
X26490000Y-23500000D01*
X26490000Y-18500000D01*
G36*
X26490000Y-18500000D02*
G01*
X28490000Y-18500000D01*
X28490000Y-23500000D01*
X26490000Y-23500000D01*
X26490000Y-18500000D01*
G37*
X29030000Y-64500000D02*
X31030000Y-64500000D01*
X31030000Y-69500000D01*
X29030000Y-69500000D01*
X29030000Y-64500000D01*
G36*
X29030000Y-64500000D02*
G01*
X31030000Y-64500000D01*
X31030000Y-69500000D01*
X29030000Y-69500000D01*
X29030000Y-64500000D01*
G37*
X23500000Y-46270000D02*
X18500000Y-46270000D01*
X18500000Y-44270000D01*
X23500000Y-44270000D01*
X23500000Y-46270000D01*
G36*
X23500000Y-46270000D02*
G01*
X18500000Y-46270000D01*
X18500000Y-44270000D01*
X23500000Y-44270000D01*
X23500000Y-46270000D01*
G37*
X23500000Y-53890000D02*
X18500000Y-53890000D01*
X18500000Y-51890000D01*
X23500000Y-51890000D01*
X23500000Y-53890000D01*
G36*
X23500000Y-53890000D02*
G01*
X18500000Y-53890000D01*
X18500000Y-51890000D01*
X23500000Y-51890000D01*
X23500000Y-53890000D01*
G37*
X23950000Y-64500000D02*
X25950000Y-64500000D01*
X25950000Y-69500000D01*
X23950000Y-69500000D01*
X23950000Y-64500000D01*
G36*
X23950000Y-64500000D02*
G01*
X25950000Y-64500000D01*
X25950000Y-69500000D01*
X23950000Y-69500000D01*
X23950000Y-64500000D01*
G37*
X54430000Y-64500000D02*
X56430000Y-64500000D01*
X56430000Y-69500000D01*
X54430000Y-69500000D01*
X54430000Y-64500000D01*
G36*
X54430000Y-64500000D02*
G01*
X56430000Y-64500000D01*
X56430000Y-69500000D01*
X54430000Y-69500000D01*
X54430000Y-64500000D01*
G37*
X23500000Y-48810000D02*
X18500000Y-48810000D01*
X18500000Y-46810000D01*
X23500000Y-46810000D01*
X23500000Y-48810000D01*
G36*
X23500000Y-48810000D02*
G01*
X18500000Y-48810000D01*
X18500000Y-46810000D01*
X23500000Y-46810000D01*
X23500000Y-48810000D01*
G37*
X34110000Y-64500000D02*
X36110000Y-64500000D01*
X36110000Y-69500000D01*
X34110000Y-69500000D01*
X34110000Y-64500000D01*
G36*
X34110000Y-64500000D02*
G01*
X36110000Y-64500000D01*
X36110000Y-69500000D01*
X34110000Y-69500000D01*
X34110000Y-64500000D01*
G37*
X44270000Y-18500000D02*
X46270000Y-18500000D01*
X46270000Y-23500000D01*
X44270000Y-23500000D01*
X44270000Y-18500000D01*
G36*
X44270000Y-18500000D02*
G01*
X46270000Y-18500000D01*
X46270000Y-23500000D01*
X44270000Y-23500000D01*
X44270000Y-18500000D01*
G37*
X64500000Y-56970000D02*
X69500000Y-56970000D01*
X69500000Y-58970000D01*
X64500000Y-58970000D01*
X64500000Y-56970000D01*
G36*
X64500000Y-56970000D02*
G01*
X69500000Y-56970000D01*
X69500000Y-58970000D01*
X64500000Y-58970000D01*
X64500000Y-56970000D01*
G37*
X39190000Y-18500000D02*
X41190000Y-18500000D01*
X41190000Y-23500000D01*
X39190000Y-23500000D01*
X39190000Y-18500000D01*
G36*
X39190000Y-18500000D02*
G01*
X41190000Y-18500000D01*
X41190000Y-23500000D01*
X39190000Y-23500000D01*
X39190000Y-18500000D01*
G37*
X62050000Y-64500000D02*
X64050000Y-64500000D01*
X64050000Y-69500000D01*
X62050000Y-69500000D01*
X62050000Y-64500000D01*
G36*
X62050000Y-64500000D02*
G01*
X64050000Y-64500000D01*
X64050000Y-69500000D01*
X62050000Y-69500000D01*
X62050000Y-64500000D01*
G37*
X23950000Y-18500000D02*
X25950000Y-18500000D01*
X25950000Y-23500000D01*
X23950000Y-23500000D01*
X23950000Y-18500000D01*
G36*
X23950000Y-18500000D02*
G01*
X25950000Y-18500000D01*
X25950000Y-23500000D01*
X23950000Y-23500000D01*
X23950000Y-18500000D01*
G37*
X64500000Y-62050000D02*
X69500000Y-62050000D01*
X69500000Y-64050000D01*
X64500000Y-64050000D01*
X64500000Y-62050000D01*
G36*
X64500000Y-62050000D02*
G01*
X69500000Y-62050000D01*
X69500000Y-64050000D01*
X64500000Y-64050000D01*
X64500000Y-62050000D01*
G37*
X23500000Y-56430000D02*
X18500000Y-56430000D01*
X18500000Y-54430000D01*
X23500000Y-54430000D01*
X23500000Y-56430000D01*
G36*
X23500000Y-56430000D02*
G01*
X18500000Y-56430000D01*
X18500000Y-54430000D01*
X23500000Y-54430000D01*
X23500000Y-56430000D01*
G37*
X64500000Y-39190000D02*
X69500000Y-39190000D01*
X69500000Y-41190000D01*
X64500000Y-41190000D01*
X64500000Y-39190000D01*
G36*
X64500000Y-39190000D02*
G01*
X69500000Y-39190000D01*
X69500000Y-41190000D01*
X64500000Y-41190000D01*
X64500000Y-39190000D01*
G37*
X23500000Y-33570000D02*
X18500000Y-33570000D01*
X18500000Y-31570000D01*
X23500000Y-31570000D01*
X23500000Y-33570000D01*
G36*
X23500000Y-33570000D02*
G01*
X18500000Y-33570000D01*
X18500000Y-31570000D01*
X23500000Y-31570000D01*
X23500000Y-33570000D01*
G37*
X64500000Y-36650000D02*
X69500000Y-36650000D01*
X69500000Y-38650000D01*
X64500000Y-38650000D01*
X64500000Y-36650000D01*
G36*
X64500000Y-36650000D02*
G01*
X69500000Y-36650000D01*
X69500000Y-38650000D01*
X64500000Y-38650000D01*
X64500000Y-36650000D01*
G37*
X29030000Y-18500000D02*
X31030000Y-18500000D01*
X31030000Y-23500000D01*
X29030000Y-23500000D01*
X29030000Y-18500000D01*
G36*
X29030000Y-18500000D02*
G01*
X31030000Y-18500000D01*
X31030000Y-23500000D01*
X29030000Y-23500000D01*
X29030000Y-18500000D01*
G37*
X23500000Y-43730000D02*
X18500000Y-43730000D01*
X18500000Y-41730000D01*
X23500000Y-41730000D01*
X23500000Y-43730000D01*
G36*
X23500000Y-43730000D02*
G01*
X18500000Y-43730000D01*
X18500000Y-41730000D01*
X23500000Y-41730000D01*
X23500000Y-43730000D01*
G37*
X49350000Y-18500000D02*
X51350000Y-18500000D01*
X51350000Y-23500000D01*
X49350000Y-23500000D01*
X49350000Y-18500000D01*
G36*
X49350000Y-18500000D02*
G01*
X51350000Y-18500000D01*
X51350000Y-23500000D01*
X49350000Y-23500000D01*
X49350000Y-18500000D01*
G37*
X64500000Y-59510000D02*
X69500000Y-59510000D01*
X69500000Y-61510000D01*
X64500000Y-61510000D01*
X64500000Y-59510000D01*
G36*
X64500000Y-59510000D02*
G01*
X69500000Y-59510000D01*
X69500000Y-61510000D01*
X64500000Y-61510000D01*
X64500000Y-59510000D01*
G37*
X26490000Y-64500000D02*
X28490000Y-64500000D01*
X28490000Y-69500000D01*
X26490000Y-69500000D01*
X26490000Y-64500000D01*
G36*
X26490000Y-64500000D02*
G01*
X28490000Y-64500000D01*
X28490000Y-69500000D01*
X26490000Y-69500000D01*
X26490000Y-64500000D01*
G37*
X51890000Y-64500000D02*
X53890000Y-64500000D01*
X53890000Y-69500000D01*
X51890000Y-69500000D01*
X51890000Y-64500000D01*
G36*
X51890000Y-64500000D02*
G01*
X53890000Y-64500000D01*
X53890000Y-69500000D01*
X51890000Y-69500000D01*
X51890000Y-64500000D01*
G37*
X23500000Y-25950000D02*
X18500000Y-25950000D01*
X18500000Y-23950000D01*
X23500000Y-23950000D01*
X23500000Y-25950000D01*
G36*
X23500000Y-25950000D02*
G01*
X18500000Y-25950000D01*
X18500000Y-23950000D01*
X23500000Y-23950000D01*
X23500000Y-25950000D01*
G37*
X41730000Y-64500000D02*
X43730000Y-64500000D01*
X43730000Y-69500000D01*
X41730000Y-69500000D01*
X41730000Y-64500000D01*
G36*
X41730000Y-64500000D02*
G01*
X43730000Y-64500000D01*
X43730000Y-69500000D01*
X41730000Y-69500000D01*
X41730000Y-64500000D01*
G37*
X46810000Y-64500000D02*
X48810000Y-64500000D01*
X48810000Y-69500000D01*
X46810000Y-69500000D01*
X46810000Y-64500000D01*
G36*
X46810000Y-64500000D02*
G01*
X48810000Y-64500000D01*
X48810000Y-69500000D01*
X46810000Y-69500000D01*
X46810000Y-64500000D01*
G37*
X64500000Y-51890000D02*
X69500000Y-51890000D01*
X69500000Y-53890000D01*
X64500000Y-53890000D01*
X64500000Y-51890000D01*
G36*
X64500000Y-51890000D02*
G01*
X69500000Y-51890000D01*
X69500000Y-53890000D01*
X64500000Y-53890000D01*
X64500000Y-51890000D01*
G37*
X34110000Y-18500000D02*
X36110000Y-18500000D01*
X36110000Y-23500000D01*
X34110000Y-23500000D01*
X34110000Y-18500000D01*
G36*
X34110000Y-18500000D02*
G01*
X36110000Y-18500000D01*
X36110000Y-23500000D01*
X34110000Y-23500000D01*
X34110000Y-18500000D01*
G37*
X23500000Y-58970000D02*
X18500000Y-58970000D01*
X18500000Y-56970000D01*
X23500000Y-56970000D01*
X23500000Y-58970000D01*
G36*
X23500000Y-58970000D02*
G01*
X18500000Y-58970000D01*
X18500000Y-56970000D01*
X23500000Y-56970000D01*
X23500000Y-58970000D01*
G37*
X56970000Y-18500000D02*
X58970000Y-18500000D01*
X58970000Y-23500000D01*
X56970000Y-23500000D01*
X56970000Y-18500000D01*
G36*
X56970000Y-18500000D02*
G01*
X58970000Y-18500000D01*
X58970000Y-23500000D01*
X56970000Y-23500000D01*
X56970000Y-18500000D01*
G37*
X23500000Y-51350000D02*
X18500000Y-51350000D01*
X18500000Y-49350000D01*
X23500000Y-49350000D01*
X23500000Y-51350000D01*
G36*
X23500000Y-51350000D02*
G01*
X18500000Y-51350000D01*
X18500000Y-49350000D01*
X23500000Y-49350000D01*
X23500000Y-51350000D01*
G37*
X23500000Y-31030000D02*
X18500000Y-31030000D01*
X18500000Y-29030000D01*
X23500000Y-29030000D01*
X23500000Y-31030000D01*
G36*
X23500000Y-31030000D02*
G01*
X18500000Y-31030000D01*
X18500000Y-29030000D01*
X23500000Y-29030000D01*
X23500000Y-31030000D01*
G37*
X62050000Y-18500000D02*
X64050000Y-18500000D01*
X64050000Y-23500000D01*
X62050000Y-23500000D01*
X62050000Y-18500000D01*
G36*
X62050000Y-18500000D02*
G01*
X64050000Y-18500000D01*
X64050000Y-23500000D01*
X62050000Y-23500000D01*
X62050000Y-18500000D01*
G37*
X41730000Y-18500000D02*
X43730000Y-18500000D01*
X43730000Y-23500000D01*
X41730000Y-23500000D01*
X41730000Y-18500000D01*
G36*
X41730000Y-18500000D02*
G01*
X43730000Y-18500000D01*
X43730000Y-23500000D01*
X41730000Y-23500000D01*
X41730000Y-18500000D01*
G37*
X23500000Y-64050000D02*
X18500000Y-64050000D01*
X18500000Y-62050000D01*
X23500000Y-62050000D01*
X23500000Y-64050000D01*
G36*
X23500000Y-64050000D02*
G01*
X18500000Y-64050000D01*
X18500000Y-62050000D01*
X23500000Y-62050000D01*
X23500000Y-64050000D01*
G37*
X51890000Y-18500000D02*
X53890000Y-18500000D01*
X53890000Y-23500000D01*
X51890000Y-23500000D01*
X51890000Y-18500000D01*
G36*
X51890000Y-18500000D02*
G01*
X53890000Y-18500000D01*
X53890000Y-23500000D01*
X51890000Y-23500000D01*
X51890000Y-18500000D01*
G37*
X49350000Y-64500000D02*
X51350000Y-64500000D01*
X51350000Y-69500000D01*
X49350000Y-69500000D01*
X49350000Y-64500000D01*
G36*
X49350000Y-64500000D02*
G01*
X51350000Y-64500000D01*
X51350000Y-69500000D01*
X49350000Y-69500000D01*
X49350000Y-64500000D01*
G37*
X59510000Y-18500000D02*
X61510000Y-18500000D01*
X61510000Y-23500000D01*
X59510000Y-23500000D01*
X59510000Y-18500000D01*
G36*
X59510000Y-18500000D02*
G01*
X61510000Y-18500000D01*
X61510000Y-23500000D01*
X59510000Y-23500000D01*
X59510000Y-18500000D01*
G37*
X64500000Y-44270000D02*
X69500000Y-44270000D01*
X69500000Y-46270000D01*
X64500000Y-46270000D01*
X64500000Y-44270000D01*
G36*
X64500000Y-44270000D02*
G01*
X69500000Y-44270000D01*
X69500000Y-46270000D01*
X64500000Y-46270000D01*
X64500000Y-44270000D01*
G37*
X39190000Y-64500000D02*
X41190000Y-64500000D01*
X41190000Y-69500000D01*
X39190000Y-69500000D01*
X39190000Y-64500000D01*
G36*
X39190000Y-64500000D02*
G01*
X41190000Y-64500000D01*
X41190000Y-69500000D01*
X39190000Y-69500000D01*
X39190000Y-64500000D01*
G37*
X23500000Y-36110000D02*
X18500000Y-36110000D01*
X18500000Y-34110000D01*
X23500000Y-34110000D01*
X23500000Y-36110000D01*
G36*
X23500000Y-36110000D02*
G01*
X18500000Y-36110000D01*
X18500000Y-34110000D01*
X23500000Y-34110000D01*
X23500000Y-36110000D01*
G37*
X23500000Y-61510000D02*
X18500000Y-61510000D01*
X18500000Y-59510000D01*
X23500000Y-59510000D01*
X23500000Y-61510000D01*
G36*
X23500000Y-61510000D02*
G01*
X18500000Y-61510000D01*
X18500000Y-59510000D01*
X23500000Y-59510000D01*
X23500000Y-61510000D01*
G37*
X23500000Y-41190000D02*
X18500000Y-41190000D01*
X18500000Y-39190000D01*
X23500000Y-39190000D01*
X23500000Y-41190000D01*
G36*
X23500000Y-41190000D02*
G01*
X18500000Y-41190000D01*
X18500000Y-39190000D01*
X23500000Y-39190000D01*
X23500000Y-41190000D01*
G37*
X44270000Y-64500000D02*
X46270000Y-64500000D01*
X46270000Y-69500000D01*
X44270000Y-69500000D01*
X44270000Y-64500000D01*
G36*
X44270000Y-64500000D02*
G01*
X46270000Y-64500000D01*
X46270000Y-69500000D01*
X44270000Y-69500000D01*
X44270000Y-64500000D01*
G37*
X64500000Y-41730000D02*
X69500000Y-41730000D01*
X69500000Y-43730000D01*
X64500000Y-43730000D01*
X64500000Y-41730000D01*
G36*
X64500000Y-41730000D02*
G01*
X69500000Y-41730000D01*
X69500000Y-43730000D01*
X64500000Y-43730000D01*
X64500000Y-41730000D01*
G37*
X59510000Y-64500000D02*
X61510000Y-64500000D01*
X61510000Y-69500000D01*
X59510000Y-69500000D01*
X59510000Y-64500000D01*
G36*
X59510000Y-64500000D02*
G01*
X61510000Y-64500000D01*
X61510000Y-69500000D01*
X59510000Y-69500000D01*
X59510000Y-64500000D01*
G37*
X64500000Y-31570000D02*
X69500000Y-31570000D01*
X69500000Y-33570000D01*
X64500000Y-33570000D01*
X64500000Y-31570000D01*
G36*
X64500000Y-31570000D02*
G01*
X69500000Y-31570000D01*
X69500000Y-33570000D01*
X64500000Y-33570000D01*
X64500000Y-31570000D01*
G37*
X54430000Y-18500000D02*
X56430000Y-18500000D01*
X56430000Y-23500000D01*
X54430000Y-23500000D01*
X54430000Y-18500000D01*
G36*
X54430000Y-18500000D02*
G01*
X56430000Y-18500000D01*
X56430000Y-23500000D01*
X54430000Y-23500000D01*
X54430000Y-18500000D01*
G37*
X36650000Y-18500000D02*
X38650000Y-18500000D01*
X38650000Y-23500000D01*
X36650000Y-23500000D01*
X36650000Y-18500000D01*
G36*
X36650000Y-18500000D02*
G01*
X38650000Y-18500000D01*
X38650000Y-23500000D01*
X36650000Y-23500000D01*
X36650000Y-18500000D01*
G37*
X64500000Y-49350000D02*
X69500000Y-49350000D01*
X69500000Y-51350000D01*
X64500000Y-51350000D01*
X64500000Y-49350000D01*
G36*
X64500000Y-49350000D02*
G01*
X69500000Y-49350000D01*
X69500000Y-51350000D01*
X64500000Y-51350000D01*
X64500000Y-49350000D01*
G37*
X64500000Y-34110000D02*
X69500000Y-34110000D01*
X69500000Y-36110000D01*
X64500000Y-36110000D01*
X64500000Y-34110000D01*
G36*
X64500000Y-34110000D02*
G01*
X69500000Y-34110000D01*
X69500000Y-36110000D01*
X64500000Y-36110000D01*
X64500000Y-34110000D01*
G37*
D11*
%TO.C,R16*%
X71500000Y-63912500D03*
X71500000Y-62087500D03*
%TD*%
%TO.C,R10*%
X71500000Y-33483928D03*
X71500000Y-31658928D03*
%TD*%
D12*
%TO.C,R31*%
X57016068Y-71500000D03*
X58841068Y-71500000D03*
%TD*%
D13*
%TO.C,X2.2*%
X66000000Y-24950000D03*
D14*
X66000000Y-27490000D03*
X66000000Y-30030000D03*
X66000000Y-32570000D03*
X66000000Y-35110000D03*
X66000000Y-37650000D03*
X66000000Y-40190000D03*
X66000000Y-42730000D03*
X66000000Y-45270000D03*
X66000000Y-47810000D03*
X66000000Y-50350000D03*
X66000000Y-52890000D03*
X66000000Y-55430000D03*
X66000000Y-57970000D03*
X66000000Y-60510000D03*
X66000000Y-63050000D03*
%TD*%
D12*
%TO.C,R27*%
X36730356Y-71500000D03*
X38555356Y-71500000D03*
%TD*%
%TO.C,R23*%
X54516068Y-16500000D03*
X56341068Y-16500000D03*
%TD*%
D11*
%TO.C,R3*%
X16500000Y-36055356D03*
X16500000Y-34230356D03*
%TD*%
D12*
%TO.C,R24*%
X59587500Y-16500000D03*
X61412500Y-16500000D03*
%TD*%
D11*
%TO.C,R13*%
X71500000Y-48698212D03*
X71500000Y-46873212D03*
%TD*%
D13*
%TO.C,X2*%
X74500000Y-24950000D03*
D14*
X74500000Y-27490000D03*
X74500000Y-30030000D03*
X74500000Y-32570000D03*
X74500000Y-35110000D03*
X74500000Y-37650000D03*
X74500000Y-40190000D03*
X74500000Y-42730000D03*
X74500000Y-45270000D03*
X74500000Y-47810000D03*
X74500000Y-50350000D03*
X74500000Y-52890000D03*
X74500000Y-55430000D03*
X74500000Y-57970000D03*
X74500000Y-60510000D03*
X74500000Y-63050000D03*
%TD*%
D11*
%TO.C,R5*%
X16500000Y-46198212D03*
X16500000Y-44373212D03*
%TD*%
D13*
%TO.C,Y2*%
X24950000Y-74500000D03*
D14*
X27490000Y-74500000D03*
X30030000Y-74500000D03*
X32570000Y-74500000D03*
X35110000Y-74500000D03*
X37650000Y-74500000D03*
X40190000Y-74500000D03*
X42730000Y-74500000D03*
X45270000Y-74500000D03*
X47810000Y-74500000D03*
X50350000Y-74500000D03*
X52890000Y-74500000D03*
X55430000Y-74500000D03*
X57970000Y-74500000D03*
X60510000Y-74500000D03*
X63050000Y-74500000D03*
%TD*%
D11*
%TO.C,R9*%
X71500000Y-28412500D03*
X71500000Y-26587500D03*
%TD*%
%TO.C,R6*%
X16308673Y-51269640D03*
X16308673Y-49444640D03*
%TD*%
D12*
%TO.C,R26*%
X31658928Y-71500000D03*
X33483928Y-71500000D03*
%TD*%
%TO.C,R29*%
X46873212Y-71500000D03*
X48698212Y-71500000D03*
%TD*%
D13*
%TO.C,Y1*%
X24950000Y-13500000D03*
D14*
X27490000Y-13500000D03*
X30030000Y-13500000D03*
X32570000Y-13500000D03*
X35110000Y-13500000D03*
X37650000Y-13500000D03*
X40190000Y-13500000D03*
X42730000Y-13500000D03*
X45270000Y-13500000D03*
X47810000Y-13500000D03*
X50350000Y-13500000D03*
X52890000Y-13500000D03*
X55430000Y-13500000D03*
X57970000Y-13500000D03*
X60510000Y-13500000D03*
X63050000Y-13500000D03*
%TD*%
D12*
%TO.C,R25*%
X26587500Y-71500000D03*
X28412500Y-71500000D03*
%TD*%
%TO.C,R20*%
X39301784Y-16500000D03*
X41126784Y-16500000D03*
%TD*%
D11*
%TO.C,R7*%
X16500000Y-56341068D03*
X16500000Y-54516068D03*
%TD*%
%TO.C,R2*%
X16500000Y-30983928D03*
X16500000Y-29158928D03*
%TD*%
%TO.C,R1*%
X16500000Y-25912500D03*
X16500000Y-24087500D03*
%TD*%
D13*
%TO.C,X1.1*%
X19500000Y-24950000D03*
D14*
X19500000Y-27490000D03*
X19500000Y-30030000D03*
X19500000Y-32570000D03*
X19500000Y-35110000D03*
X19500000Y-37650000D03*
X19500000Y-40190000D03*
X19500000Y-42730000D03*
X19500000Y-45270000D03*
X19500000Y-47810000D03*
X19500000Y-50350000D03*
X19500000Y-52890000D03*
X19500000Y-55430000D03*
X19500000Y-57970000D03*
X19500000Y-60510000D03*
X19500000Y-63050000D03*
%TD*%
D12*
%TO.C,R28*%
X41801784Y-71500000D03*
X43626784Y-71500000D03*
%TD*%
%TO.C,R19*%
X34230356Y-16500000D03*
X36055356Y-16500000D03*
%TD*%
D13*
%TO.C,Y2.2*%
X24950000Y-66000000D03*
D14*
X27490000Y-66000000D03*
X30030000Y-66000000D03*
X32570000Y-66000000D03*
X35110000Y-66000000D03*
X37650000Y-66000000D03*
X40190000Y-66000000D03*
X42730000Y-66000000D03*
X45270000Y-66000000D03*
X47810000Y-66000000D03*
X50350000Y-66000000D03*
X52890000Y-66000000D03*
X55430000Y-66000000D03*
X57970000Y-66000000D03*
X60510000Y-66000000D03*
X63050000Y-66000000D03*
%TD*%
D11*
%TO.C,R8*%
X16500000Y-61412500D03*
X16500000Y-59587500D03*
%TD*%
D13*
%TO.C,X1*%
X13500000Y-24950000D03*
D14*
X13500000Y-27490000D03*
X13500000Y-30030000D03*
X13500000Y-32570000D03*
X13500000Y-35110000D03*
X13500000Y-37650000D03*
X13500000Y-40190000D03*
X13500000Y-42730000D03*
X13500000Y-45270000D03*
X13500000Y-47810000D03*
X13500000Y-50350000D03*
X13500000Y-52890000D03*
X13500000Y-55430000D03*
X13500000Y-57970000D03*
X13500000Y-60510000D03*
X13500000Y-63050000D03*
%TD*%
D12*
%TO.C,R17*%
X24087500Y-16500000D03*
X25912500Y-16500000D03*
%TD*%
D11*
%TO.C,R11*%
X71500000Y-38555356D03*
X71500000Y-36730356D03*
%TD*%
%TO.C,R15*%
X71500000Y-58841068D03*
X71500000Y-57016068D03*
%TD*%
D13*
%TO.C,X1.2*%
X22000000Y-24950000D03*
D14*
X22000000Y-27490000D03*
X22000000Y-30030000D03*
X22000000Y-32570000D03*
X22000000Y-35110000D03*
X22000000Y-37650000D03*
X22000000Y-40190000D03*
X22000000Y-42730000D03*
X22000000Y-45270000D03*
X22000000Y-47810000D03*
X22000000Y-50350000D03*
X22000000Y-52890000D03*
X22000000Y-55430000D03*
X22000000Y-57970000D03*
X22000000Y-60510000D03*
X22000000Y-63050000D03*
%TD*%
D13*
%TO.C,Y1.2*%
X24950000Y-22000000D03*
D14*
X27490000Y-22000000D03*
X30030000Y-22000000D03*
X32570000Y-22000000D03*
X35110000Y-22000000D03*
X37650000Y-22000000D03*
X40190000Y-22000000D03*
X42730000Y-22000000D03*
X45270000Y-22000000D03*
X47810000Y-22000000D03*
X50350000Y-22000000D03*
X52890000Y-22000000D03*
X55430000Y-22000000D03*
X57970000Y-22000000D03*
X60510000Y-22000000D03*
X63050000Y-22000000D03*
%TD*%
D12*
%TO.C,R21*%
X44373212Y-16500000D03*
X46198212Y-16500000D03*
%TD*%
%TO.C,R18*%
X29158928Y-16500000D03*
X30983928Y-16500000D03*
%TD*%
D13*
%TO.C,Y1.1*%
X24950000Y-19500000D03*
D14*
X27490000Y-19500000D03*
X30030000Y-19500000D03*
X32570000Y-19500000D03*
X35110000Y-19500000D03*
X37650000Y-19500000D03*
X40190000Y-19500000D03*
X42730000Y-19500000D03*
X45270000Y-19500000D03*
X47810000Y-19500000D03*
X50350000Y-19500000D03*
X52890000Y-19500000D03*
X55430000Y-19500000D03*
X57970000Y-19500000D03*
X60510000Y-19500000D03*
X63050000Y-19500000D03*
%TD*%
D12*
%TO.C,R30*%
X51944640Y-71500000D03*
X53769640Y-71500000D03*
%TD*%
%TO.C,R32*%
X62087500Y-71500000D03*
X63912500Y-71500000D03*
%TD*%
D11*
%TO.C,R12*%
X71500000Y-43626784D03*
X71500000Y-41801784D03*
%TD*%
D13*
%TO.C,Y2.1*%
X24950000Y-68500000D03*
D14*
X27490000Y-68500000D03*
X30030000Y-68500000D03*
X32570000Y-68500000D03*
X35110000Y-68500000D03*
X37650000Y-68500000D03*
X40190000Y-68500000D03*
X42730000Y-68500000D03*
X45270000Y-68500000D03*
X47810000Y-68500000D03*
X50350000Y-68500000D03*
X52890000Y-68500000D03*
X55430000Y-68500000D03*
X57970000Y-68500000D03*
X60510000Y-68500000D03*
X63050000Y-68500000D03*
%TD*%
D11*
%TO.C,R14*%
X71500000Y-53769640D03*
X71500000Y-51944640D03*
%TD*%
D12*
%TO.C,R22*%
X49444640Y-16500000D03*
X51269640Y-16500000D03*
%TD*%
D11*
%TO.C,R4*%
X16500000Y-41126784D03*
X16500000Y-39301784D03*
%TD*%
D13*
%TO.C,X2.1*%
X68500000Y-24950000D03*
D14*
X68500000Y-27490000D03*
X68500000Y-30030000D03*
X68500000Y-32570000D03*
X68500000Y-35110000D03*
X68500000Y-37650000D03*
X68500000Y-40190000D03*
X68500000Y-42730000D03*
X68500000Y-45270000D03*
X68500000Y-47810000D03*
X68500000Y-50350000D03*
X68500000Y-52890000D03*
X68500000Y-55430000D03*
X68500000Y-57970000D03*
X68500000Y-60510000D03*
X68500000Y-63050000D03*
%TD*%
M02*
