%TF.GenerationSoftware,KiCad,Pcbnew,8.0.7*%
%TF.CreationDate,2025-01-13T22:09:37-05:00*%
%TF.ProjectId,Core Holder,436f7265-2048-46f6-9c64-65722e6b6963,rev?*%
%TF.SameCoordinates,Original*%
%TF.FileFunction,Legend,Top*%
%TF.FilePolarity,Positive*%
%FSLAX46Y46*%
G04 Gerber Fmt 4.6, Leading zero omitted, Abs format (unit mm)*
G04 Created by KiCad (PCBNEW 8.0.7) date 2025-01-13 22:09:37*
%MOMM*%
%LPD*%
G01*
G04 APERTURE LIST*
%ADD10C,0.150000*%
%ADD11C,0.120000*%
G04 APERTURE END LIST*
D10*
X73690476Y-22074819D02*
X74357142Y-23074819D01*
X74357142Y-22074819D02*
X73690476Y-23074819D01*
X74690476Y-22170057D02*
X74738095Y-22122438D01*
X74738095Y-22122438D02*
X74833333Y-22074819D01*
X74833333Y-22074819D02*
X75071428Y-22074819D01*
X75071428Y-22074819D02*
X75166666Y-22122438D01*
X75166666Y-22122438D02*
X75214285Y-22170057D01*
X75214285Y-22170057D02*
X75261904Y-22265295D01*
X75261904Y-22265295D02*
X75261904Y-22360533D01*
X75261904Y-22360533D02*
X75214285Y-22503390D01*
X75214285Y-22503390D02*
X74642857Y-23074819D01*
X74642857Y-23074819D02*
X75261904Y-23074819D01*
X22598628Y-74976190D02*
X23074819Y-74976190D01*
X22074819Y-75309523D02*
X22598628Y-74976190D01*
X22598628Y-74976190D02*
X22074819Y-74642857D01*
X22170057Y-74357142D02*
X22122438Y-74309523D01*
X22122438Y-74309523D02*
X22074819Y-74214285D01*
X22074819Y-74214285D02*
X22074819Y-73976190D01*
X22074819Y-73976190D02*
X22122438Y-73880952D01*
X22122438Y-73880952D02*
X22170057Y-73833333D01*
X22170057Y-73833333D02*
X22265295Y-73785714D01*
X22265295Y-73785714D02*
X22360533Y-73785714D01*
X22360533Y-73785714D02*
X22503390Y-73833333D01*
X22503390Y-73833333D02*
X23074819Y-74404761D01*
X23074819Y-74404761D02*
X23074819Y-73785714D01*
X22598628Y-13976190D02*
X23074819Y-13976190D01*
X22074819Y-14309523D02*
X22598628Y-13976190D01*
X22598628Y-13976190D02*
X22074819Y-13642857D01*
X23074819Y-12785714D02*
X23074819Y-13357142D01*
X23074819Y-13071428D02*
X22074819Y-13071428D01*
X22074819Y-13071428D02*
X22217676Y-13166666D01*
X22217676Y-13166666D02*
X22312914Y-13261904D01*
X22312914Y-13261904D02*
X22360533Y-13357142D01*
X12690476Y-22074819D02*
X13357142Y-23074819D01*
X13357142Y-22074819D02*
X12690476Y-23074819D01*
X14261904Y-23074819D02*
X13690476Y-23074819D01*
X13976190Y-23074819D02*
X13976190Y-22074819D01*
X13976190Y-22074819D02*
X13880952Y-22217676D01*
X13880952Y-22217676D02*
X13785714Y-22312914D01*
X13785714Y-22312914D02*
X13690476Y-22360533D01*
D11*
%TO.C,R16*%
X70977500Y-63254724D02*
X70977500Y-62745276D01*
X72022500Y-63254724D02*
X72022500Y-62745276D01*
%TO.C,R10*%
X70977500Y-32826152D02*
X70977500Y-32316704D01*
X72022500Y-32826152D02*
X72022500Y-32316704D01*
%TO.C,R31*%
X57673844Y-70977500D02*
X58183292Y-70977500D01*
X57673844Y-72022500D02*
X58183292Y-72022500D01*
%TO.C,R27*%
X37388132Y-70977500D02*
X37897580Y-70977500D01*
X37388132Y-72022500D02*
X37897580Y-72022500D01*
%TO.C,R23*%
X55173844Y-15977500D02*
X55683292Y-15977500D01*
X55173844Y-17022500D02*
X55683292Y-17022500D01*
%TO.C,R3*%
X15977500Y-35397580D02*
X15977500Y-34888132D01*
X17022500Y-35397580D02*
X17022500Y-34888132D01*
%TO.C,R24*%
X60245276Y-15977500D02*
X60754724Y-15977500D01*
X60245276Y-17022500D02*
X60754724Y-17022500D01*
%TO.C,R13*%
X70977500Y-48040436D02*
X70977500Y-47530988D01*
X72022500Y-48040436D02*
X72022500Y-47530988D01*
%TO.C,X2*%
X73170000Y-23620000D02*
X74500000Y-23620000D01*
X73170000Y-24950000D02*
X73170000Y-23620000D01*
X73170000Y-26220000D02*
X73170000Y-64380000D01*
X73170000Y-26220000D02*
X75830000Y-26220000D01*
X73170000Y-64380000D02*
X75830000Y-64380000D01*
X75830000Y-26220000D02*
X75830000Y-64380000D01*
%TO.C,R5*%
X15977500Y-45540436D02*
X15977500Y-45030988D01*
X17022500Y-45540436D02*
X17022500Y-45030988D01*
%TO.C,Y2*%
X23620000Y-75830000D02*
X23620000Y-74500000D01*
X24950000Y-75830000D02*
X23620000Y-75830000D01*
X26220000Y-73170000D02*
X64380000Y-73170000D01*
X26220000Y-75830000D02*
X26220000Y-73170000D01*
X26220000Y-75830000D02*
X64380000Y-75830000D01*
X64380000Y-75830000D02*
X64380000Y-73170000D01*
%TO.C,R9*%
X70977500Y-27754724D02*
X70977500Y-27245276D01*
X72022500Y-27754724D02*
X72022500Y-27245276D01*
%TO.C,R6*%
X15786173Y-50611864D02*
X15786173Y-50102416D01*
X16831173Y-50611864D02*
X16831173Y-50102416D01*
%TO.C,R26*%
X32316704Y-70977500D02*
X32826152Y-70977500D01*
X32316704Y-72022500D02*
X32826152Y-72022500D01*
%TO.C,R29*%
X47530988Y-70977500D02*
X48040436Y-70977500D01*
X47530988Y-72022500D02*
X48040436Y-72022500D01*
%TO.C,Y1*%
X23620000Y-14830000D02*
X23620000Y-13500000D01*
X24950000Y-14830000D02*
X23620000Y-14830000D01*
X26220000Y-12170000D02*
X64380000Y-12170000D01*
X26220000Y-14830000D02*
X26220000Y-12170000D01*
X26220000Y-14830000D02*
X64380000Y-14830000D01*
X64380000Y-14830000D02*
X64380000Y-12170000D01*
%TO.C,R25*%
X27245276Y-70977500D02*
X27754724Y-70977500D01*
X27245276Y-72022500D02*
X27754724Y-72022500D01*
%TO.C,R20*%
X39959560Y-15977500D02*
X40469008Y-15977500D01*
X39959560Y-17022500D02*
X40469008Y-17022500D01*
%TO.C,R7*%
X15977500Y-55683292D02*
X15977500Y-55173844D01*
X17022500Y-55683292D02*
X17022500Y-55173844D01*
%TO.C,R2*%
X15977500Y-30326152D02*
X15977500Y-29816704D01*
X17022500Y-30326152D02*
X17022500Y-29816704D01*
%TO.C,R1*%
X15977500Y-25254724D02*
X15977500Y-24745276D01*
X17022500Y-25254724D02*
X17022500Y-24745276D01*
%TO.C,R28*%
X42459560Y-70977500D02*
X42969008Y-70977500D01*
X42459560Y-72022500D02*
X42969008Y-72022500D01*
%TO.C,R19*%
X34888132Y-15977500D02*
X35397580Y-15977500D01*
X34888132Y-17022500D02*
X35397580Y-17022500D01*
%TO.C,R8*%
X15977500Y-60754724D02*
X15977500Y-60245276D01*
X17022500Y-60754724D02*
X17022500Y-60245276D01*
%TO.C,X1*%
X12170000Y-23620000D02*
X13500000Y-23620000D01*
X12170000Y-24950000D02*
X12170000Y-23620000D01*
X12170000Y-26220000D02*
X12170000Y-64380000D01*
X12170000Y-26220000D02*
X14830000Y-26220000D01*
X12170000Y-64380000D02*
X14830000Y-64380000D01*
X14830000Y-26220000D02*
X14830000Y-64380000D01*
%TO.C,R17*%
X24745276Y-15977500D02*
X25254724Y-15977500D01*
X24745276Y-17022500D02*
X25254724Y-17022500D01*
%TO.C,R11*%
X70977500Y-37897580D02*
X70977500Y-37388132D01*
X72022500Y-37897580D02*
X72022500Y-37388132D01*
%TO.C,R15*%
X70977500Y-58183292D02*
X70977500Y-57673844D01*
X72022500Y-58183292D02*
X72022500Y-57673844D01*
%TO.C,R21*%
X45030988Y-15977500D02*
X45540436Y-15977500D01*
X45030988Y-17022500D02*
X45540436Y-17022500D01*
%TO.C,R18*%
X29816704Y-15977500D02*
X30326152Y-15977500D01*
X29816704Y-17022500D02*
X30326152Y-17022500D01*
%TO.C,R30*%
X52602416Y-70977500D02*
X53111864Y-70977500D01*
X52602416Y-72022500D02*
X53111864Y-72022500D01*
%TO.C,R32*%
X62745276Y-70977500D02*
X63254724Y-70977500D01*
X62745276Y-72022500D02*
X63254724Y-72022500D01*
%TO.C,R12*%
X70977500Y-42969008D02*
X70977500Y-42459560D01*
X72022500Y-42969008D02*
X72022500Y-42459560D01*
%TO.C,R14*%
X70977500Y-53111864D02*
X70977500Y-52602416D01*
X72022500Y-53111864D02*
X72022500Y-52602416D01*
%TO.C,R22*%
X50102416Y-15977500D02*
X50611864Y-15977500D01*
X50102416Y-17022500D02*
X50611864Y-17022500D01*
%TO.C,R4*%
X15977500Y-40469008D02*
X15977500Y-39959560D01*
X17022500Y-40469008D02*
X17022500Y-39959560D01*
%TD*%
M02*
