%TF.GenerationSoftware,KiCad,Pcbnew,8.0.4*%
%TF.CreationDate,2024-08-11T12:29:12-04:00*%
%TF.ProjectId,Inhibit Sense Circuit,496e6869-6269-4742-9053-656e73652043,rev?*%
%TF.SameCoordinates,Original*%
%TF.FileFunction,Copper,L4,Bot*%
%TF.FilePolarity,Positive*%
%FSLAX46Y46*%
G04 Gerber Fmt 4.6, Leading zero omitted, Abs format (unit mm)*
G04 Created by KiCad (PCBNEW 8.0.4) date 2024-08-11 12:29:12*
%MOMM*%
%LPD*%
G01*
G04 APERTURE LIST*
G04 Aperture macros list*
%AMRoundRect*
0 Rectangle with rounded corners*
0 $1 Rounding radius*
0 $2 $3 $4 $5 $6 $7 $8 $9 X,Y pos of 4 corners*
0 Add a 4 corners polygon primitive as box body*
4,1,4,$2,$3,$4,$5,$6,$7,$8,$9,$2,$3,0*
0 Add four circle primitives for the rounded corners*
1,1,$1+$1,$2,$3*
1,1,$1+$1,$4,$5*
1,1,$1+$1,$6,$7*
1,1,$1+$1,$8,$9*
0 Add four rect primitives between the rounded corners*
20,1,$1+$1,$2,$3,$4,$5,0*
20,1,$1+$1,$4,$5,$6,$7,0*
20,1,$1+$1,$6,$7,$8,$9,0*
20,1,$1+$1,$8,$9,$2,$3,0*%
G04 Aperture macros list end*
%TA.AperFunction,ComponentPad*%
%ADD10R,1.700000X1.700000*%
%TD*%
%TA.AperFunction,ComponentPad*%
%ADD11O,1.700000X1.700000*%
%TD*%
%TA.AperFunction,SMDPad,CuDef*%
%ADD12RoundRect,0.237500X-0.237500X0.300000X-0.237500X-0.300000X0.237500X-0.300000X0.237500X0.300000X0*%
%TD*%
%TA.AperFunction,SMDPad,CuDef*%
%ADD13RoundRect,0.237500X-0.300000X-0.237500X0.300000X-0.237500X0.300000X0.237500X-0.300000X0.237500X0*%
%TD*%
%TA.AperFunction,SMDPad,CuDef*%
%ADD14RoundRect,0.237500X0.300000X0.237500X-0.300000X0.237500X-0.300000X-0.237500X0.300000X-0.237500X0*%
%TD*%
%TA.AperFunction,SMDPad,CuDef*%
%ADD15RoundRect,0.237500X0.237500X-0.300000X0.237500X0.300000X-0.237500X0.300000X-0.237500X-0.300000X0*%
%TD*%
%TA.AperFunction,ViaPad*%
%ADD16C,0.800000*%
%TD*%
%TA.AperFunction,ViaPad*%
%ADD17C,1.000000*%
%TD*%
%TA.AperFunction,Conductor*%
%ADD18C,0.500000*%
%TD*%
%TA.AperFunction,Conductor*%
%ADD19C,1.000000*%
%TD*%
%TA.AperFunction,Conductor*%
%ADD20C,1.250000*%
%TD*%
G04 APERTURE END LIST*
D10*
%TO.P,IS8,1,Pin_1*%
%TO.N,/IS_LINES.A8*%
X70725000Y-14000000D03*
D11*
%TO.P,IS8,2,Pin_2*%
%TO.N,/IS_LINES.B8*%
X73265000Y-14000000D03*
%TD*%
D10*
%TO.P,IS1,1,Pin_1*%
%TO.N,/IS_LINES.A1*%
X14725000Y-14000000D03*
D11*
%TO.P,IS1,2,Pin_2*%
%TO.N,/IS_LINES.B1*%
X17265000Y-14000000D03*
%TD*%
D10*
%TO.P,IS5,1,Pin_1*%
%TO.N,/IS_LINES.A5*%
X46725000Y-14000000D03*
D11*
%TO.P,IS5,2,Pin_2*%
%TO.N,/IS_LINES.B5*%
X49265000Y-14000000D03*
%TD*%
D10*
%TO.P,IS4,1,Pin_1*%
%TO.N,/IS_LINES.A4*%
X38725000Y-14000000D03*
D11*
%TO.P,IS4,2,Pin_2*%
%TO.N,/IS_LINES.B4*%
X41265000Y-14000000D03*
%TD*%
D10*
%TO.P,IS7,1,Pin_1*%
%TO.N,/IS_LINES.A7*%
X62725000Y-14000000D03*
D11*
%TO.P,IS7,2,Pin_2*%
%TO.N,/IS_LINES.B7*%
X65265000Y-14000000D03*
%TD*%
D10*
%TO.P,J2,1,Pin_1*%
%TO.N,VCC*%
X13500000Y-27725000D03*
D11*
%TO.P,J2,2,Pin_2*%
%TO.N,GND*%
X13500000Y-30265000D03*
%TD*%
D10*
%TO.P,IS2,1,Pin_1*%
%TO.N,/IS_LINES.A2*%
X22725000Y-14000000D03*
D11*
%TO.P,IS2,2,Pin_2*%
%TO.N,/IS_LINES.B2*%
X25265000Y-14000000D03*
%TD*%
D10*
%TO.P,IS3,1,Pin_1*%
%TO.N,/IS_LINES.A3*%
X30725000Y-14000000D03*
D11*
%TO.P,IS3,2,Pin_2*%
%TO.N,/IS_LINES.B3*%
X33265000Y-14000000D03*
%TD*%
D10*
%TO.P,IS6,1,Pin_1*%
%TO.N,/IS_LINES.A6*%
X54725000Y-14000000D03*
D11*
%TO.P,IS6,2,Pin_2*%
%TO.N,/IS_LINES.B6*%
X57265000Y-14000000D03*
%TD*%
D10*
%TO.P,J1,1,Pin_1*%
%TO.N,VDD*%
X28800000Y-42000000D03*
D11*
%TO.P,J1,2,Pin_2*%
%TO.N,GND*%
X31340000Y-42000000D03*
%TO.P,J1,3,Pin_3*%
%TO.N,/BUS1*%
X33880000Y-42000000D03*
%TO.P,J1,4,Pin_4*%
%TO.N,/BUS2*%
X36420000Y-42000000D03*
%TO.P,J1,5,Pin_5*%
%TO.N,/BUS3*%
X38960000Y-42000000D03*
%TO.P,J1,6,Pin_6*%
%TO.N,/BUS4*%
X41500000Y-42000000D03*
%TO.P,J1,7,Pin_7*%
%TO.N,/BUS5*%
X44040000Y-42000000D03*
%TO.P,J1,8,Pin_8*%
%TO.N,/BUS6*%
X46580000Y-42000000D03*
%TO.P,J1,9,Pin_9*%
%TO.N,/BUS7*%
X49120000Y-42000000D03*
%TO.P,J1,10,Pin_10*%
%TO.N,/BUS8*%
X51660000Y-42000000D03*
%TO.P,J1,11,Pin_11*%
%TO.N,/RST*%
X54200000Y-42000000D03*
%TO.P,J1,12,Pin_12*%
%TO.N,/Read Out*%
X56740000Y-42000000D03*
%TO.P,J1,13,Pin_13*%
%TO.N,/Inhibit EN*%
X59280000Y-42000000D03*
%TD*%
D12*
%TO.P,C9,1*%
%TO.N,GND*%
X14000000Y-16775000D03*
%TO.P,C9,2*%
%TO.N,VCC*%
X14000000Y-18500000D03*
%TD*%
%TO.P,C48,1*%
%TO.N,GND*%
X62000000Y-16637500D03*
%TO.P,C48,2*%
%TO.N,VCC*%
X62000000Y-18362500D03*
%TD*%
D13*
%TO.P,C19,1*%
%TO.N,GND*%
X22137500Y-29500000D03*
%TO.P,C19,2*%
%TO.N,VDD*%
X23862500Y-29500000D03*
%TD*%
D12*
%TO.P,C14,1*%
%TO.N,GND*%
X54000000Y-16637500D03*
%TO.P,C14,2*%
%TO.N,VCC*%
X54000000Y-18362500D03*
%TD*%
%TO.P,C15,1*%
%TO.N,GND*%
X70000000Y-16775000D03*
%TO.P,C15,2*%
%TO.N,VCC*%
X70000000Y-18500000D03*
%TD*%
D14*
%TO.P,C3,1*%
%TO.N,VDD*%
X62362500Y-36500000D03*
%TO.P,C3,2*%
%TO.N,GND*%
X60637500Y-36500000D03*
%TD*%
D12*
%TO.P,C12,1*%
%TO.N,GND*%
X38000000Y-16637500D03*
%TO.P,C12,2*%
%TO.N,VCC*%
X38000000Y-18362500D03*
%TD*%
D14*
%TO.P,C8,1*%
%TO.N,VDD*%
X32000000Y-34000000D03*
%TO.P,C8,2*%
%TO.N,GND*%
X30275000Y-34000000D03*
%TD*%
D15*
%TO.P,C20,1*%
%TO.N,VDD*%
X17500000Y-31225000D03*
%TO.P,C20,2*%
%TO.N,GND*%
X17500000Y-29500000D03*
%TD*%
D14*
%TO.P,C18,1*%
%TO.N,GND*%
X33000000Y-29500000D03*
%TO.P,C18,2*%
%TO.N,VDD*%
X31275000Y-29500000D03*
%TD*%
%TO.P,C17,1*%
%TO.N,VDD*%
X38362500Y-29500000D03*
%TO.P,C17,2*%
%TO.N,GND*%
X36637500Y-29500000D03*
%TD*%
D13*
%TO.P,C2,1*%
%TO.N,VDD*%
X55500000Y-36000000D03*
%TO.P,C2,2*%
%TO.N,GND*%
X57225000Y-36000000D03*
%TD*%
D12*
%TO.P,C10,1*%
%TO.N,GND*%
X22000000Y-16775000D03*
%TO.P,C10,2*%
%TO.N,VCC*%
X22000000Y-18500000D03*
%TD*%
D14*
%TO.P,C6,1*%
%TO.N,VDD*%
X53725000Y-29500000D03*
%TO.P,C6,2*%
%TO.N,GND*%
X52000000Y-29500000D03*
%TD*%
%TO.P,C16,1*%
%TO.N,VDD*%
X45725000Y-30000000D03*
%TO.P,C16,2*%
%TO.N,GND*%
X44000000Y-30000000D03*
%TD*%
D13*
%TO.P,C7,1*%
%TO.N,VDD*%
X17500000Y-33500000D03*
%TO.P,C7,2*%
%TO.N,GND*%
X19225000Y-33500000D03*
%TD*%
%TO.P,C4,1*%
%TO.N,VDD*%
X69637500Y-31000000D03*
%TO.P,C4,2*%
%TO.N,GND*%
X71362500Y-31000000D03*
%TD*%
%TO.P,C5,1*%
%TO.N,VDD*%
X61500000Y-29500000D03*
%TO.P,C5,2*%
%TO.N,GND*%
X63225000Y-29500000D03*
%TD*%
D12*
%TO.P,C13,1*%
%TO.N,GND*%
X46000000Y-16637500D03*
%TO.P,C13,2*%
%TO.N,VCC*%
X46000000Y-18362500D03*
%TD*%
%TO.P,C1,1*%
%TO.N,VDD*%
X45000000Y-32637500D03*
%TO.P,C1,2*%
%TO.N,GND*%
X45000000Y-34362500D03*
%TD*%
%TO.P,C11,1*%
%TO.N,GND*%
X30000000Y-16637500D03*
%TO.P,C11,2*%
%TO.N,VCC*%
X30000000Y-18362500D03*
%TD*%
D16*
%TO.N,/BUS3*%
X22085353Y-34670371D03*
%TO.N,/BUS2*%
X24500000Y-36500000D03*
%TO.N,/BUS7*%
X73000000Y-38000000D03*
%TO.N,/BUS6*%
X74500000Y-38000000D03*
D17*
%TO.N,VDD*%
X36000000Y-38000000D03*
X45833364Y-31333364D03*
X61500000Y-33500000D03*
X30905786Y-30945968D03*
X72291218Y-34320963D03*
X38560332Y-30725784D03*
X23929013Y-30901050D03*
X61405786Y-30762500D03*
X53500000Y-31000000D03*
X63500000Y-35500000D03*
X55500000Y-34500000D03*
X68500000Y-31000000D03*
X16500000Y-32500000D03*
X49000000Y-34500000D03*
X33500000Y-34463000D03*
%TO.N,GND*%
X51500000Y-17500000D03*
X75000000Y-25000000D03*
X70248724Y-25158991D03*
X19500000Y-17500000D03*
X66000000Y-26500000D03*
X23987500Y-24425000D03*
X16000000Y-24425000D03*
X32931348Y-40123380D03*
X55000000Y-24412500D03*
X62750426Y-25159622D03*
X38500000Y-40000000D03*
X59500000Y-17500000D03*
X74500000Y-40000000D03*
D16*
X41770309Y-29527310D03*
D17*
X47500000Y-24425000D03*
X32000000Y-24425000D03*
X50916636Y-26416636D03*
D16*
X64500000Y-28500000D03*
D17*
X58500000Y-26500000D03*
D16*
X53000000Y-39500000D03*
D17*
X35500000Y-17500000D03*
X43500000Y-26500000D03*
D16*
X27000000Y-28500000D03*
X42565992Y-33544286D03*
D17*
X75450000Y-17500000D03*
D16*
X20000000Y-28500000D03*
X48000000Y-36500000D03*
D17*
X40000000Y-24425000D03*
D16*
X57000000Y-28500000D03*
D17*
X27500000Y-17500000D03*
X67500000Y-17500000D03*
X13500000Y-32500000D03*
X43500000Y-17500000D03*
D16*
X25500000Y-41000000D03*
D17*
%TO.N,VCC*%
X46000000Y-20000000D03*
X70000000Y-20000000D03*
X30000056Y-20000000D03*
X54000000Y-20000000D03*
X62000000Y-20000000D03*
X38000000Y-20000000D03*
X22000000Y-20000000D03*
X14000000Y-20000000D03*
D16*
%TO.N,Net-(IC1-3S)*%
X31500000Y-39500000D03*
X18000000Y-37650002D03*
%TO.N,Net-(IC1-4S)*%
X31500000Y-36000000D03*
X16000000Y-34500000D03*
%TO.N,/Sense Circuit/Sense Ch 3/Sense Out 1*%
X36162294Y-30576751D03*
X34500000Y-38500000D03*
%TO.N,/Sense Circuit/Sense Ch 2/Sense Out 2*%
X25511694Y-30507473D03*
X29000000Y-38500000D03*
%TO.N,/Sense Circuit/Sense Ch 6/Sense Out 1*%
X52452000Y-35653007D03*
X58725000Y-30500000D03*
%TO.N,/Sense Circuit/Sense Ch 7/Sense Out 1*%
X55012653Y-38487347D03*
X66419150Y-30587291D03*
%TO.N,Net-(Q10-G)*%
X64000000Y-18500000D03*
X32000000Y-18500000D03*
X40000000Y-18500000D03*
X72000000Y-18500000D03*
X63500000Y-41500000D03*
X48000000Y-18500000D03*
X56000000Y-18500000D03*
X24000000Y-18500000D03*
X16000000Y-18500000D03*
%TO.N,/RST*%
X72000000Y-39000000D03*
X16595000Y-39000000D03*
X65987347Y-37775000D03*
X22365153Y-40365153D03*
%TO.N,/Read Out*%
X20286720Y-40037718D03*
X70000000Y-40348000D03*
%TO.N,/Inhibit Circuit/INHIBIT_DATA8*%
X74043903Y-22543903D03*
X41625000Y-34875000D03*
%TO.N,/Inhibit Circuit/INHIBIT_DATA1*%
X20107034Y-22375126D03*
X43000000Y-35000000D03*
%TO.N,/Inhibit Circuit/INHIBIT_DATA6*%
X41000000Y-37475000D03*
X59052762Y-22422660D03*
%TO.N,/Inhibit Circuit/INHIBIT_DATA4*%
X43398288Y-21819384D03*
X44000000Y-39500000D03*
%TO.N,/Inhibit Circuit/INHIBIT_DATA5*%
X51270427Y-22302312D03*
X40775000Y-40015922D03*
%TO.N,/Inhibit Circuit/INHIBIT_DATA7*%
X41500000Y-36175000D03*
X66557867Y-22712873D03*
%TO.N,/Inhibit Circuit/INHIBIT_DATA3*%
X44000000Y-38000000D03*
X36000000Y-22500000D03*
%TO.N,/Inhibit Circuit/INHIBIT_DATA2*%
X43500000Y-36500000D03*
X28000000Y-22500000D03*
%TD*%
D18*
%TO.N,VDD*%
X45833364Y-31333364D02*
X45833364Y-31804136D01*
X17000000Y-32000000D02*
X16500000Y-32500000D01*
X61500000Y-29500000D02*
X61500000Y-30668286D01*
X55500000Y-34500000D02*
X55500000Y-36000000D01*
D19*
X28800000Y-42000000D02*
X28800000Y-40644365D01*
D18*
X24385436Y-31357473D02*
X30494281Y-31357473D01*
X45833364Y-31804136D02*
X45000000Y-32637500D01*
X32000000Y-34000000D02*
X33037000Y-34000000D01*
X23929013Y-30901050D02*
X18098950Y-30901050D01*
D19*
X55500000Y-34500000D02*
X49000000Y-34500000D01*
D18*
X30494281Y-31357473D02*
X30905786Y-30945968D01*
X68000000Y-31000000D02*
X63500000Y-35500000D01*
X23929013Y-30901050D02*
X24385436Y-31357473D01*
D19*
X33500000Y-34463000D02*
X39537000Y-34463000D01*
X55500000Y-34500000D02*
X55500000Y-33000000D01*
D18*
X53725000Y-30775000D02*
X53500000Y-31000000D01*
X38560332Y-29697832D02*
X38362500Y-29500000D01*
X63500000Y-35500000D02*
X63362500Y-35500000D01*
D19*
X61500000Y-33500000D02*
X61500000Y-30856714D01*
X28800000Y-42000000D02*
X26000000Y-39200000D01*
D18*
X68500000Y-31000000D02*
X68000000Y-31000000D01*
X55725000Y-34725000D02*
X55500000Y-34500000D01*
X45725000Y-31225000D02*
X45833364Y-31333364D01*
D19*
X56500000Y-33500000D02*
X55500000Y-34500000D01*
D18*
X45725000Y-30000000D02*
X45725000Y-31225000D01*
X16500000Y-32500000D02*
X17500000Y-33500000D01*
D19*
X26000000Y-39200000D02*
X26000000Y-32972037D01*
D18*
X23862500Y-30834537D02*
X23929013Y-30901050D01*
X68500000Y-31000000D02*
X69637500Y-31000000D01*
X63362500Y-35500000D02*
X62362500Y-36500000D01*
D19*
X45833364Y-31333364D02*
X39167912Y-31333364D01*
X39167912Y-31333364D02*
X38560332Y-30725784D01*
X33500000Y-35944365D02*
X33500000Y-34463000D01*
X28800000Y-40644365D02*
X33500000Y-35944365D01*
X61500000Y-33500000D02*
X56500000Y-33500000D01*
D18*
X53725000Y-29500000D02*
X53725000Y-30775000D01*
X61500000Y-30668286D02*
X61405786Y-30762500D01*
D19*
X55500000Y-33000000D02*
X53500000Y-31000000D01*
D18*
X23862500Y-29500000D02*
X23862500Y-30834537D01*
D19*
X49000000Y-34500000D02*
X45833364Y-31333364D01*
X26000000Y-32972037D02*
X23929013Y-30901050D01*
D18*
X38560332Y-30725784D02*
X38560332Y-29697832D01*
D19*
X39537000Y-34463000D02*
X42666636Y-31333364D01*
D18*
X72291218Y-34320963D02*
X71820963Y-34320963D01*
X31275000Y-30576754D02*
X30905786Y-30945968D01*
X33037000Y-34000000D02*
X33500000Y-34463000D01*
X61500000Y-30856714D02*
X61405786Y-30762500D01*
D19*
X42666636Y-31333364D02*
X36000000Y-38000000D01*
D18*
X18098950Y-30901050D02*
X16500000Y-32500000D01*
X31275000Y-29500000D02*
X31275000Y-30576754D01*
X71820963Y-34320963D02*
X68500000Y-31000000D01*
X45833364Y-31333364D02*
X42666636Y-31333364D01*
D19*
X63500000Y-35500000D02*
X61500000Y-33500000D01*
D20*
%TO.N,GND*%
X13500000Y-30265000D02*
X13500000Y-32500000D01*
D18*
%TO.N,VCC*%
X38000000Y-18362500D02*
X38000000Y-20000000D01*
X30000000Y-19999944D02*
X30000056Y-20000000D01*
D20*
X13500000Y-27725000D02*
X13500000Y-20500000D01*
D18*
X70000000Y-18500000D02*
X70000000Y-20000000D01*
X46000000Y-18362500D02*
X46000000Y-20000000D01*
X30000000Y-18362500D02*
X30000000Y-19999944D01*
X14000000Y-18500000D02*
X14000000Y-20000000D01*
X54030000Y-19970000D02*
X54000000Y-20000000D01*
X62000000Y-18362500D02*
X62000000Y-20000000D01*
D20*
X13500000Y-20500000D02*
X14000000Y-20000000D01*
D18*
X22000000Y-18500000D02*
X22000000Y-20000000D01*
X54000000Y-18362500D02*
X54000000Y-20000000D01*
D20*
X14000000Y-20000000D02*
X22500000Y-20000000D01*
X22500000Y-20000000D02*
X70000000Y-20000000D01*
%TD*%
%TA.AperFunction,Conductor*%
%TO.N,GND*%
G36*
X75943039Y-12019685D02*
G01*
X75988794Y-12072489D01*
X76000000Y-12124000D01*
X76000000Y-43876000D01*
X75980315Y-43943039D01*
X75927511Y-43988794D01*
X75876000Y-44000000D01*
X12124000Y-44000000D01*
X12056961Y-43980315D01*
X12011206Y-43927511D01*
X12000000Y-43876000D01*
X12000000Y-40037718D01*
X19381260Y-40037718D01*
X19401046Y-40225974D01*
X19401047Y-40225977D01*
X19459538Y-40405995D01*
X19459541Y-40406002D01*
X19554187Y-40569934D01*
X19661224Y-40688810D01*
X19680849Y-40710606D01*
X19833985Y-40821866D01*
X19833990Y-40821869D01*
X20006912Y-40898860D01*
X20006917Y-40898862D01*
X20192074Y-40938218D01*
X20192075Y-40938218D01*
X20381364Y-40938218D01*
X20381366Y-40938218D01*
X20566523Y-40898862D01*
X20739450Y-40821869D01*
X20892591Y-40710606D01*
X21019253Y-40569934D01*
X21113899Y-40406002D01*
X21127172Y-40365153D01*
X21459693Y-40365153D01*
X21479479Y-40553409D01*
X21479480Y-40553412D01*
X21537971Y-40733430D01*
X21537974Y-40733437D01*
X21632620Y-40897369D01*
X21696023Y-40967785D01*
X21759282Y-41038041D01*
X21912418Y-41149301D01*
X21912423Y-41149304D01*
X22085345Y-41226295D01*
X22085350Y-41226297D01*
X22270507Y-41265653D01*
X22270508Y-41265653D01*
X22459797Y-41265653D01*
X22459799Y-41265653D01*
X22644956Y-41226297D01*
X22817883Y-41149304D01*
X22971024Y-41038041D01*
X23097686Y-40897369D01*
X23192332Y-40733437D01*
X23250827Y-40553409D01*
X23270613Y-40365153D01*
X23250827Y-40176897D01*
X23192332Y-39996869D01*
X23097686Y-39832937D01*
X22971024Y-39692265D01*
X22971023Y-39692264D01*
X22817887Y-39581004D01*
X22817882Y-39581001D01*
X22644960Y-39504010D01*
X22644955Y-39504008D01*
X22479690Y-39468881D01*
X22459799Y-39464653D01*
X22270507Y-39464653D01*
X22250616Y-39468881D01*
X22085350Y-39504008D01*
X22085345Y-39504010D01*
X21912423Y-39581001D01*
X21912418Y-39581004D01*
X21759282Y-39692264D01*
X21632619Y-39832938D01*
X21537974Y-39996868D01*
X21537971Y-39996875D01*
X21480781Y-40172889D01*
X21479479Y-40176897D01*
X21459693Y-40365153D01*
X21127172Y-40365153D01*
X21172394Y-40225974D01*
X21192180Y-40037718D01*
X21172394Y-39849462D01*
X21113899Y-39669434D01*
X21019253Y-39505502D01*
X20892591Y-39364830D01*
X20887515Y-39361142D01*
X20739454Y-39253569D01*
X20739449Y-39253566D01*
X20566527Y-39176575D01*
X20566522Y-39176573D01*
X20420721Y-39145583D01*
X20381366Y-39137218D01*
X20192074Y-39137218D01*
X20159617Y-39144116D01*
X20006917Y-39176573D01*
X20006912Y-39176575D01*
X19833990Y-39253566D01*
X19833985Y-39253569D01*
X19680849Y-39364829D01*
X19554186Y-39505503D01*
X19459541Y-39669433D01*
X19459538Y-39669440D01*
X19411988Y-39815785D01*
X19401046Y-39849462D01*
X19381260Y-40037718D01*
X12000000Y-40037718D01*
X12000000Y-39000000D01*
X15689540Y-39000000D01*
X15709326Y-39188256D01*
X15709327Y-39188259D01*
X15767818Y-39368277D01*
X15767821Y-39368284D01*
X15862467Y-39532216D01*
X15966393Y-39647637D01*
X15989129Y-39672888D01*
X16142265Y-39784148D01*
X16142270Y-39784151D01*
X16315192Y-39861142D01*
X16315197Y-39861144D01*
X16500354Y-39900500D01*
X16500355Y-39900500D01*
X16689644Y-39900500D01*
X16689646Y-39900500D01*
X16874803Y-39861144D01*
X17047730Y-39784151D01*
X17200871Y-39672888D01*
X17327533Y-39532216D01*
X17422179Y-39368284D01*
X17480674Y-39188256D01*
X17500460Y-39000000D01*
X17480674Y-38811744D01*
X17422179Y-38631716D01*
X17416186Y-38621336D01*
X17399713Y-38553439D01*
X17422564Y-38487412D01*
X17477485Y-38444220D01*
X17547038Y-38437577D01*
X17574008Y-38446057D01*
X17720197Y-38511146D01*
X17905354Y-38550502D01*
X17905355Y-38550502D01*
X18094644Y-38550502D01*
X18094646Y-38550502D01*
X18279803Y-38511146D01*
X18452730Y-38434153D01*
X18605871Y-38322890D01*
X18732533Y-38182218D01*
X18827179Y-38018286D01*
X18885674Y-37838258D01*
X18905460Y-37650002D01*
X18885674Y-37461746D01*
X18827179Y-37281718D01*
X18732533Y-37117786D01*
X18605871Y-36977114D01*
X18603650Y-36975500D01*
X18452734Y-36865853D01*
X18452729Y-36865850D01*
X18279807Y-36788859D01*
X18279802Y-36788857D01*
X18134001Y-36757867D01*
X18094646Y-36749502D01*
X17905354Y-36749502D01*
X17872897Y-36756400D01*
X17720197Y-36788857D01*
X17720192Y-36788859D01*
X17547270Y-36865850D01*
X17547265Y-36865853D01*
X17394129Y-36977113D01*
X17267466Y-37117787D01*
X17172821Y-37281717D01*
X17172818Y-37281724D01*
X17116265Y-37455778D01*
X17114326Y-37461746D01*
X17094540Y-37650002D01*
X17114326Y-37838258D01*
X17114327Y-37838261D01*
X17172818Y-38018279D01*
X17172821Y-38018286D01*
X17178813Y-38028664D01*
X17195286Y-38096565D01*
X17172433Y-38162591D01*
X17117512Y-38205782D01*
X17047958Y-38212423D01*
X17020990Y-38203943D01*
X16874807Y-38138857D01*
X16874802Y-38138855D01*
X16729001Y-38107865D01*
X16689646Y-38099500D01*
X16500354Y-38099500D01*
X16467897Y-38106398D01*
X16315197Y-38138855D01*
X16315192Y-38138857D01*
X16142270Y-38215848D01*
X16142265Y-38215851D01*
X15989129Y-38327111D01*
X15862466Y-38467785D01*
X15767821Y-38631715D01*
X15767818Y-38631722D01*
X15717827Y-38785580D01*
X15709326Y-38811744D01*
X15689540Y-39000000D01*
X12000000Y-39000000D01*
X12000000Y-34500000D01*
X15094540Y-34500000D01*
X15114326Y-34688256D01*
X15114327Y-34688259D01*
X15172818Y-34868277D01*
X15172821Y-34868284D01*
X15267467Y-35032216D01*
X15363487Y-35138857D01*
X15394129Y-35172888D01*
X15547265Y-35284148D01*
X15547270Y-35284151D01*
X15720192Y-35361142D01*
X15720197Y-35361144D01*
X15905354Y-35400500D01*
X15905355Y-35400500D01*
X16094644Y-35400500D01*
X16094646Y-35400500D01*
X16279803Y-35361144D01*
X16452730Y-35284151D01*
X16605871Y-35172888D01*
X16732533Y-35032216D01*
X16827179Y-34868284D01*
X16885674Y-34688256D01*
X16887554Y-34670371D01*
X21179893Y-34670371D01*
X21199679Y-34858627D01*
X21199680Y-34858630D01*
X21258171Y-35038648D01*
X21258174Y-35038655D01*
X21352820Y-35202587D01*
X21448138Y-35308448D01*
X21479482Y-35343259D01*
X21632618Y-35454519D01*
X21632623Y-35454522D01*
X21805545Y-35531513D01*
X21805550Y-35531515D01*
X21990707Y-35570871D01*
X21990708Y-35570871D01*
X22179997Y-35570871D01*
X22179999Y-35570871D01*
X22365156Y-35531515D01*
X22538083Y-35454522D01*
X22691224Y-35343259D01*
X22817886Y-35202587D01*
X22912532Y-35038655D01*
X22971027Y-34858627D01*
X22990813Y-34670371D01*
X22971027Y-34482115D01*
X22912532Y-34302087D01*
X22817886Y-34138155D01*
X22691224Y-33997483D01*
X22691223Y-33997482D01*
X22538087Y-33886222D01*
X22538082Y-33886219D01*
X22365160Y-33809228D01*
X22365155Y-33809226D01*
X22219354Y-33778236D01*
X22179999Y-33769871D01*
X21990707Y-33769871D01*
X21958250Y-33776769D01*
X21805550Y-33809226D01*
X21805545Y-33809228D01*
X21632623Y-33886219D01*
X21632618Y-33886222D01*
X21479482Y-33997482D01*
X21352819Y-34138156D01*
X21258174Y-34302086D01*
X21258171Y-34302093D01*
X21201828Y-34475500D01*
X21199679Y-34482115D01*
X21179893Y-34670371D01*
X16887554Y-34670371D01*
X16897799Y-34572890D01*
X16924382Y-34508278D01*
X16981680Y-34468293D01*
X17042975Y-34464837D01*
X17043011Y-34464486D01*
X17045212Y-34464710D01*
X17047092Y-34464605D01*
X17049741Y-34465172D01*
X17049747Y-34465174D01*
X17150823Y-34475500D01*
X17849176Y-34475499D01*
X17849184Y-34475498D01*
X17849187Y-34475498D01*
X17919719Y-34468293D01*
X17950253Y-34465174D01*
X18114016Y-34410908D01*
X18260850Y-34320340D01*
X18275171Y-34306018D01*
X18336489Y-34272533D01*
X18406181Y-34277514D01*
X18450534Y-34306017D01*
X18464461Y-34319944D01*
X18464465Y-34319947D01*
X18611188Y-34410448D01*
X18611199Y-34410453D01*
X18774847Y-34464680D01*
X18875851Y-34474999D01*
X19475000Y-34474999D01*
X19574140Y-34474999D01*
X19574154Y-34474998D01*
X19675152Y-34464680D01*
X19838800Y-34410453D01*
X19838811Y-34410448D01*
X19985534Y-34319947D01*
X19985538Y-34319944D01*
X20107444Y-34198038D01*
X20107447Y-34198034D01*
X20197948Y-34051311D01*
X20197953Y-34051300D01*
X20252180Y-33887652D01*
X20262499Y-33786654D01*
X20262500Y-33786641D01*
X20262500Y-33750000D01*
X19475000Y-33750000D01*
X19475000Y-34474999D01*
X18875851Y-34474999D01*
X18975000Y-34474998D01*
X18975000Y-33250000D01*
X19475000Y-33250000D01*
X20262499Y-33250000D01*
X20262499Y-33213360D01*
X20262498Y-33213345D01*
X20252180Y-33112347D01*
X20197953Y-32948699D01*
X20197948Y-32948688D01*
X20107447Y-32801965D01*
X20107444Y-32801961D01*
X19985538Y-32680055D01*
X19985534Y-32680052D01*
X19838811Y-32589551D01*
X19838800Y-32589546D01*
X19675152Y-32535319D01*
X19574154Y-32525000D01*
X19475000Y-32525000D01*
X19475000Y-33250000D01*
X18975000Y-33250000D01*
X18975000Y-32524999D01*
X18875860Y-32525000D01*
X18875844Y-32525001D01*
X18774847Y-32535319D01*
X18611199Y-32589546D01*
X18611188Y-32589551D01*
X18464465Y-32680052D01*
X18450532Y-32693985D01*
X18389208Y-32727468D01*
X18319516Y-32722482D01*
X18275172Y-32693982D01*
X18260851Y-32679661D01*
X18260850Y-32679660D01*
X18169629Y-32623395D01*
X18114018Y-32589093D01*
X18114013Y-32589091D01*
X18112569Y-32588612D01*
X17950253Y-32534826D01*
X17950251Y-32534825D01*
X17849184Y-32524500D01*
X17849177Y-32524500D01*
X17836229Y-32524500D01*
X17769190Y-32504815D01*
X17723435Y-32452011D01*
X17713491Y-32382853D01*
X17742516Y-32319297D01*
X17748546Y-32312821D01*
X17757499Y-32303868D01*
X17768504Y-32292862D01*
X17829824Y-32259377D01*
X17843580Y-32257185D01*
X17887753Y-32252674D01*
X18051516Y-32198408D01*
X18198350Y-32107840D01*
X18320340Y-31985850D01*
X18410908Y-31839016D01*
X18444863Y-31736544D01*
X18484636Y-31679101D01*
X18549152Y-31652278D01*
X18562569Y-31651550D01*
X23213231Y-31651550D01*
X23280270Y-31671235D01*
X23300912Y-31687869D01*
X24963181Y-33350138D01*
X24996666Y-33411461D01*
X24999500Y-33437819D01*
X24999500Y-35545728D01*
X24979815Y-35612767D01*
X24927011Y-35658522D01*
X24857853Y-35668466D01*
X24825064Y-35659007D01*
X24779807Y-35638857D01*
X24779802Y-35638855D01*
X24621213Y-35605147D01*
X24594646Y-35599500D01*
X24405354Y-35599500D01*
X24378787Y-35605147D01*
X24220197Y-35638855D01*
X24220192Y-35638857D01*
X24047270Y-35715848D01*
X24047265Y-35715851D01*
X23894129Y-35827111D01*
X23767466Y-35967785D01*
X23672821Y-36131715D01*
X23672818Y-36131722D01*
X23619814Y-36294854D01*
X23614326Y-36311744D01*
X23594540Y-36500000D01*
X23614326Y-36688256D01*
X23614327Y-36688259D01*
X23672818Y-36868277D01*
X23672821Y-36868284D01*
X23767467Y-37032216D01*
X23863487Y-37138857D01*
X23894129Y-37172888D01*
X24047265Y-37284148D01*
X24047270Y-37284151D01*
X24220192Y-37361142D01*
X24220197Y-37361144D01*
X24405354Y-37400500D01*
X24405355Y-37400500D01*
X24594644Y-37400500D01*
X24594646Y-37400500D01*
X24779803Y-37361144D01*
X24825065Y-37340991D01*
X24894312Y-37331706D01*
X24957589Y-37361334D01*
X24994804Y-37420468D01*
X24999500Y-37454271D01*
X24999500Y-39298542D01*
X25008350Y-39343033D01*
X25008350Y-39343034D01*
X25037947Y-39491830D01*
X25037948Y-39491833D01*
X25037949Y-39491836D01*
X25043610Y-39505502D01*
X25043611Y-39505505D01*
X25113364Y-39673907D01*
X25113371Y-39673920D01*
X25222860Y-39837781D01*
X25222863Y-39837785D01*
X25366537Y-39981459D01*
X25366559Y-39981479D01*
X27413181Y-42028101D01*
X27446666Y-42089424D01*
X27449500Y-42115782D01*
X27449500Y-42897870D01*
X27449501Y-42897876D01*
X27455908Y-42957483D01*
X27506202Y-43092328D01*
X27506206Y-43092335D01*
X27592452Y-43207544D01*
X27592455Y-43207547D01*
X27707664Y-43293793D01*
X27707671Y-43293797D01*
X27842517Y-43344091D01*
X27842516Y-43344091D01*
X27849444Y-43344835D01*
X27902127Y-43350500D01*
X29697872Y-43350499D01*
X29757483Y-43344091D01*
X29892331Y-43293796D01*
X30007546Y-43207546D01*
X30093796Y-43092331D01*
X30143002Y-42960401D01*
X30184872Y-42904468D01*
X30250337Y-42880050D01*
X30318610Y-42894901D01*
X30346865Y-42916053D01*
X30468917Y-43038105D01*
X30662421Y-43173600D01*
X30876507Y-43273429D01*
X30876516Y-43273433D01*
X31090000Y-43330634D01*
X31090000Y-42433012D01*
X31147007Y-42465925D01*
X31274174Y-42500000D01*
X31405826Y-42500000D01*
X31532993Y-42465925D01*
X31590000Y-42433012D01*
X31590000Y-43330634D01*
X31803483Y-43273433D01*
X31803492Y-43273429D01*
X32017578Y-43173600D01*
X32211082Y-43038105D01*
X32378105Y-42871082D01*
X32508119Y-42685405D01*
X32562696Y-42641781D01*
X32632195Y-42634588D01*
X32694549Y-42666110D01*
X32711269Y-42685405D01*
X32841505Y-42871401D01*
X33008599Y-43038495D01*
X33105384Y-43106265D01*
X33202165Y-43174032D01*
X33202167Y-43174033D01*
X33202170Y-43174035D01*
X33416337Y-43273903D01*
X33644592Y-43335063D01*
X33821034Y-43350500D01*
X33879999Y-43355659D01*
X33880000Y-43355659D01*
X33880001Y-43355659D01*
X33938966Y-43350500D01*
X34115408Y-43335063D01*
X34343663Y-43273903D01*
X34557830Y-43174035D01*
X34751401Y-43038495D01*
X34918495Y-42871401D01*
X35048425Y-42685842D01*
X35103002Y-42642217D01*
X35172500Y-42635023D01*
X35234855Y-42666546D01*
X35251575Y-42685842D01*
X35381500Y-42871395D01*
X35381505Y-42871401D01*
X35548599Y-43038495D01*
X35645384Y-43106265D01*
X35742165Y-43174032D01*
X35742167Y-43174033D01*
X35742170Y-43174035D01*
X35956337Y-43273903D01*
X36184592Y-43335063D01*
X36361034Y-43350500D01*
X36419999Y-43355659D01*
X36420000Y-43355659D01*
X36420001Y-43355659D01*
X36478966Y-43350500D01*
X36655408Y-43335063D01*
X36883663Y-43273903D01*
X37097830Y-43174035D01*
X37291401Y-43038495D01*
X37458495Y-42871401D01*
X37588425Y-42685842D01*
X37643002Y-42642217D01*
X37712500Y-42635023D01*
X37774855Y-42666546D01*
X37791575Y-42685842D01*
X37921500Y-42871395D01*
X37921505Y-42871401D01*
X38088599Y-43038495D01*
X38185384Y-43106265D01*
X38282165Y-43174032D01*
X38282167Y-43174033D01*
X38282170Y-43174035D01*
X38496337Y-43273903D01*
X38724592Y-43335063D01*
X38901034Y-43350500D01*
X38959999Y-43355659D01*
X38960000Y-43355659D01*
X38960001Y-43355659D01*
X39018966Y-43350500D01*
X39195408Y-43335063D01*
X39423663Y-43273903D01*
X39637830Y-43174035D01*
X39831401Y-43038495D01*
X39998495Y-42871401D01*
X40128425Y-42685842D01*
X40183002Y-42642217D01*
X40252500Y-42635023D01*
X40314855Y-42666546D01*
X40331575Y-42685842D01*
X40461500Y-42871395D01*
X40461505Y-42871401D01*
X40628599Y-43038495D01*
X40725384Y-43106265D01*
X40822165Y-43174032D01*
X40822167Y-43174033D01*
X40822170Y-43174035D01*
X41036337Y-43273903D01*
X41264592Y-43335063D01*
X41441034Y-43350500D01*
X41499999Y-43355659D01*
X41500000Y-43355659D01*
X41500001Y-43355659D01*
X41558966Y-43350500D01*
X41735408Y-43335063D01*
X41963663Y-43273903D01*
X42177830Y-43174035D01*
X42371401Y-43038495D01*
X42538495Y-42871401D01*
X42668425Y-42685842D01*
X42723002Y-42642217D01*
X42792500Y-42635023D01*
X42854855Y-42666546D01*
X42871575Y-42685842D01*
X43001500Y-42871395D01*
X43001505Y-42871401D01*
X43168599Y-43038495D01*
X43265384Y-43106265D01*
X43362165Y-43174032D01*
X43362167Y-43174033D01*
X43362170Y-43174035D01*
X43576337Y-43273903D01*
X43804592Y-43335063D01*
X43981034Y-43350500D01*
X44039999Y-43355659D01*
X44040000Y-43355659D01*
X44040001Y-43355659D01*
X44098966Y-43350500D01*
X44275408Y-43335063D01*
X44503663Y-43273903D01*
X44717830Y-43174035D01*
X44911401Y-43038495D01*
X45078495Y-42871401D01*
X45208425Y-42685842D01*
X45263002Y-42642217D01*
X45332500Y-42635023D01*
X45394855Y-42666546D01*
X45411575Y-42685842D01*
X45541500Y-42871395D01*
X45541505Y-42871401D01*
X45708599Y-43038495D01*
X45805384Y-43106265D01*
X45902165Y-43174032D01*
X45902167Y-43174033D01*
X45902170Y-43174035D01*
X46116337Y-43273903D01*
X46344592Y-43335063D01*
X46521034Y-43350500D01*
X46579999Y-43355659D01*
X46580000Y-43355659D01*
X46580001Y-43355659D01*
X46638966Y-43350500D01*
X46815408Y-43335063D01*
X47043663Y-43273903D01*
X47257830Y-43174035D01*
X47451401Y-43038495D01*
X47618495Y-42871401D01*
X47748425Y-42685842D01*
X47803002Y-42642217D01*
X47872500Y-42635023D01*
X47934855Y-42666546D01*
X47951575Y-42685842D01*
X48081500Y-42871395D01*
X48081505Y-42871401D01*
X48248599Y-43038495D01*
X48345384Y-43106265D01*
X48442165Y-43174032D01*
X48442167Y-43174033D01*
X48442170Y-43174035D01*
X48656337Y-43273903D01*
X48884592Y-43335063D01*
X49061034Y-43350500D01*
X49119999Y-43355659D01*
X49120000Y-43355659D01*
X49120001Y-43355659D01*
X49178966Y-43350500D01*
X49355408Y-43335063D01*
X49583663Y-43273903D01*
X49797830Y-43174035D01*
X49991401Y-43038495D01*
X50158495Y-42871401D01*
X50288425Y-42685842D01*
X50343002Y-42642217D01*
X50412500Y-42635023D01*
X50474855Y-42666546D01*
X50491575Y-42685842D01*
X50621500Y-42871395D01*
X50621505Y-42871401D01*
X50788599Y-43038495D01*
X50885384Y-43106265D01*
X50982165Y-43174032D01*
X50982167Y-43174033D01*
X50982170Y-43174035D01*
X51196337Y-43273903D01*
X51424592Y-43335063D01*
X51601034Y-43350500D01*
X51659999Y-43355659D01*
X51660000Y-43355659D01*
X51660001Y-43355659D01*
X51718966Y-43350500D01*
X51895408Y-43335063D01*
X52123663Y-43273903D01*
X52337830Y-43174035D01*
X52531401Y-43038495D01*
X52698495Y-42871401D01*
X52828425Y-42685842D01*
X52883002Y-42642217D01*
X52952500Y-42635023D01*
X53014855Y-42666546D01*
X53031575Y-42685842D01*
X53161500Y-42871395D01*
X53161505Y-42871401D01*
X53328599Y-43038495D01*
X53425384Y-43106265D01*
X53522165Y-43174032D01*
X53522167Y-43174033D01*
X53522170Y-43174035D01*
X53736337Y-43273903D01*
X53964592Y-43335063D01*
X54141034Y-43350500D01*
X54199999Y-43355659D01*
X54200000Y-43355659D01*
X54200001Y-43355659D01*
X54258966Y-43350500D01*
X54435408Y-43335063D01*
X54663663Y-43273903D01*
X54877830Y-43174035D01*
X55071401Y-43038495D01*
X55238495Y-42871401D01*
X55368425Y-42685842D01*
X55423002Y-42642217D01*
X55492500Y-42635023D01*
X55554855Y-42666546D01*
X55571575Y-42685842D01*
X55701500Y-42871395D01*
X55701505Y-42871401D01*
X55868599Y-43038495D01*
X55965384Y-43106265D01*
X56062165Y-43174032D01*
X56062167Y-43174033D01*
X56062170Y-43174035D01*
X56276337Y-43273903D01*
X56504592Y-43335063D01*
X56681034Y-43350500D01*
X56739999Y-43355659D01*
X56740000Y-43355659D01*
X56740001Y-43355659D01*
X56798966Y-43350500D01*
X56975408Y-43335063D01*
X57203663Y-43273903D01*
X57417830Y-43174035D01*
X57611401Y-43038495D01*
X57778495Y-42871401D01*
X57908425Y-42685842D01*
X57963002Y-42642217D01*
X58032500Y-42635023D01*
X58094855Y-42666546D01*
X58111575Y-42685842D01*
X58241500Y-42871395D01*
X58241505Y-42871401D01*
X58408599Y-43038495D01*
X58505384Y-43106265D01*
X58602165Y-43174032D01*
X58602167Y-43174033D01*
X58602170Y-43174035D01*
X58816337Y-43273903D01*
X59044592Y-43335063D01*
X59221034Y-43350500D01*
X59279999Y-43355659D01*
X59280000Y-43355659D01*
X59280001Y-43355659D01*
X59338966Y-43350500D01*
X59515408Y-43335063D01*
X59743663Y-43273903D01*
X59957830Y-43174035D01*
X60151401Y-43038495D01*
X60318495Y-42871401D01*
X60454035Y-42677830D01*
X60553903Y-42463663D01*
X60615063Y-42235408D01*
X60635659Y-42000000D01*
X60615063Y-41764592D01*
X60553903Y-41536337D01*
X60536959Y-41500000D01*
X62594540Y-41500000D01*
X62614326Y-41688256D01*
X62614327Y-41688259D01*
X62672818Y-41868277D01*
X62672821Y-41868284D01*
X62767467Y-42032216D01*
X62894129Y-42172888D01*
X63047265Y-42284148D01*
X63047270Y-42284151D01*
X63220192Y-42361142D01*
X63220197Y-42361144D01*
X63405354Y-42400500D01*
X63405355Y-42400500D01*
X63594644Y-42400500D01*
X63594646Y-42400500D01*
X63779803Y-42361144D01*
X63952730Y-42284151D01*
X64105871Y-42172888D01*
X64232533Y-42032216D01*
X64327179Y-41868284D01*
X64385674Y-41688256D01*
X64405460Y-41500000D01*
X64385674Y-41311744D01*
X64327179Y-41131716D01*
X64232533Y-40967784D01*
X64105871Y-40827112D01*
X64104890Y-40826399D01*
X63952734Y-40715851D01*
X63952729Y-40715848D01*
X63779807Y-40638857D01*
X63779802Y-40638855D01*
X63634001Y-40607865D01*
X63594646Y-40599500D01*
X63405354Y-40599500D01*
X63372897Y-40606398D01*
X63220197Y-40638855D01*
X63220192Y-40638857D01*
X63047270Y-40715848D01*
X63047265Y-40715851D01*
X62894129Y-40827111D01*
X62767466Y-40967785D01*
X62672821Y-41131715D01*
X62672818Y-41131722D01*
X62614327Y-41311740D01*
X62614326Y-41311744D01*
X62594540Y-41500000D01*
X60536959Y-41500000D01*
X60454035Y-41322171D01*
X60448731Y-41314595D01*
X60318494Y-41128597D01*
X60151402Y-40961506D01*
X60151395Y-40961501D01*
X59957834Y-40825967D01*
X59957830Y-40825965D01*
X59949040Y-40821866D01*
X59743663Y-40726097D01*
X59743659Y-40726096D01*
X59743655Y-40726094D01*
X59515413Y-40664938D01*
X59515403Y-40664936D01*
X59280001Y-40644341D01*
X59279999Y-40644341D01*
X59044596Y-40664936D01*
X59044586Y-40664938D01*
X58816344Y-40726094D01*
X58816335Y-40726098D01*
X58602171Y-40825964D01*
X58602169Y-40825965D01*
X58408597Y-40961505D01*
X58241505Y-41128597D01*
X58111575Y-41314158D01*
X58056998Y-41357783D01*
X57987500Y-41364977D01*
X57925145Y-41333454D01*
X57908425Y-41314158D01*
X57778494Y-41128597D01*
X57611402Y-40961506D01*
X57611395Y-40961501D01*
X57417834Y-40825967D01*
X57417830Y-40825965D01*
X57409040Y-40821866D01*
X57203663Y-40726097D01*
X57203659Y-40726096D01*
X57203655Y-40726094D01*
X56975413Y-40664938D01*
X56975403Y-40664936D01*
X56740001Y-40644341D01*
X56739999Y-40644341D01*
X56504596Y-40664936D01*
X56504586Y-40664938D01*
X56276344Y-40726094D01*
X56276335Y-40726098D01*
X56062171Y-40825964D01*
X56062169Y-40825965D01*
X55868597Y-40961505D01*
X55701505Y-41128597D01*
X55571575Y-41314158D01*
X55516998Y-41357783D01*
X55447500Y-41364977D01*
X55385145Y-41333454D01*
X55368425Y-41314158D01*
X55238494Y-41128597D01*
X55071402Y-40961506D01*
X55071395Y-40961501D01*
X54877834Y-40825967D01*
X54877830Y-40825965D01*
X54869040Y-40821866D01*
X54663663Y-40726097D01*
X54663659Y-40726096D01*
X54663655Y-40726094D01*
X54435413Y-40664938D01*
X54435403Y-40664936D01*
X54200001Y-40644341D01*
X54199999Y-40644341D01*
X53964596Y-40664936D01*
X53964586Y-40664938D01*
X53736344Y-40726094D01*
X53736335Y-40726098D01*
X53522171Y-40825964D01*
X53522169Y-40825965D01*
X53328597Y-40961505D01*
X53161505Y-41128597D01*
X53031575Y-41314158D01*
X52976998Y-41357783D01*
X52907500Y-41364977D01*
X52845145Y-41333454D01*
X52828425Y-41314158D01*
X52698494Y-41128597D01*
X52531402Y-40961506D01*
X52531395Y-40961501D01*
X52337834Y-40825967D01*
X52337830Y-40825965D01*
X52329040Y-40821866D01*
X52123663Y-40726097D01*
X52123659Y-40726096D01*
X52123655Y-40726094D01*
X51895413Y-40664938D01*
X51895403Y-40664936D01*
X51660001Y-40644341D01*
X51659999Y-40644341D01*
X51424596Y-40664936D01*
X51424586Y-40664938D01*
X51196344Y-40726094D01*
X51196335Y-40726098D01*
X50982171Y-40825964D01*
X50982169Y-40825965D01*
X50788597Y-40961505D01*
X50621505Y-41128597D01*
X50491575Y-41314158D01*
X50436998Y-41357783D01*
X50367500Y-41364977D01*
X50305145Y-41333454D01*
X50288425Y-41314158D01*
X50158494Y-41128597D01*
X49991402Y-40961506D01*
X49991395Y-40961501D01*
X49797834Y-40825967D01*
X49797830Y-40825965D01*
X49789040Y-40821866D01*
X49583663Y-40726097D01*
X49583659Y-40726096D01*
X49583655Y-40726094D01*
X49355413Y-40664938D01*
X49355403Y-40664936D01*
X49120001Y-40644341D01*
X49119999Y-40644341D01*
X48884596Y-40664936D01*
X48884586Y-40664938D01*
X48656344Y-40726094D01*
X48656335Y-40726098D01*
X48442171Y-40825964D01*
X48442169Y-40825965D01*
X48248597Y-40961505D01*
X48081505Y-41128597D01*
X47951575Y-41314158D01*
X47896998Y-41357783D01*
X47827500Y-41364977D01*
X47765145Y-41333454D01*
X47748425Y-41314158D01*
X47618494Y-41128597D01*
X47451402Y-40961506D01*
X47451395Y-40961501D01*
X47257834Y-40825967D01*
X47257830Y-40825965D01*
X47249040Y-40821866D01*
X47043663Y-40726097D01*
X47043659Y-40726096D01*
X47043655Y-40726094D01*
X46815413Y-40664938D01*
X46815403Y-40664936D01*
X46580001Y-40644341D01*
X46579999Y-40644341D01*
X46344596Y-40664936D01*
X46344586Y-40664938D01*
X46116344Y-40726094D01*
X46116335Y-40726098D01*
X45902171Y-40825964D01*
X45902169Y-40825965D01*
X45708597Y-40961505D01*
X45541505Y-41128597D01*
X45411575Y-41314158D01*
X45356998Y-41357783D01*
X45287500Y-41364977D01*
X45225145Y-41333454D01*
X45208425Y-41314158D01*
X45078494Y-41128597D01*
X44911402Y-40961506D01*
X44911395Y-40961501D01*
X44717834Y-40825967D01*
X44717830Y-40825965D01*
X44709040Y-40821866D01*
X44503663Y-40726097D01*
X44503659Y-40726096D01*
X44503655Y-40726094D01*
X44275413Y-40664938D01*
X44275403Y-40664936D01*
X44082142Y-40648028D01*
X44040344Y-40631677D01*
X44021985Y-40643477D01*
X43997858Y-40648028D01*
X43804596Y-40664936D01*
X43804586Y-40664938D01*
X43576344Y-40726094D01*
X43576335Y-40726098D01*
X43362171Y-40825964D01*
X43362169Y-40825965D01*
X43168597Y-40961505D01*
X43001505Y-41128597D01*
X42871575Y-41314158D01*
X42816998Y-41357783D01*
X42747500Y-41364977D01*
X42685145Y-41333454D01*
X42668425Y-41314158D01*
X42538494Y-41128597D01*
X42371402Y-40961506D01*
X42371395Y-40961501D01*
X42177834Y-40825967D01*
X42177830Y-40825965D01*
X42169040Y-40821866D01*
X41963663Y-40726097D01*
X41963659Y-40726096D01*
X41963655Y-40726094D01*
X41735413Y-40664938D01*
X41735403Y-40664936D01*
X41648196Y-40657306D01*
X41583128Y-40631853D01*
X41542150Y-40575261D01*
X41538273Y-40505499D01*
X41551613Y-40471787D01*
X41602179Y-40384206D01*
X41660674Y-40204178D01*
X41680460Y-40015922D01*
X41660674Y-39827666D01*
X41602179Y-39647638D01*
X41507533Y-39483706D01*
X41380871Y-39343034D01*
X41337804Y-39311744D01*
X41227734Y-39231773D01*
X41227729Y-39231770D01*
X41054807Y-39154779D01*
X41054802Y-39154777D01*
X40909001Y-39123787D01*
X40869646Y-39115422D01*
X40680354Y-39115422D01*
X40647897Y-39122320D01*
X40495197Y-39154777D01*
X40495192Y-39154779D01*
X40322270Y-39231770D01*
X40322265Y-39231773D01*
X40169129Y-39343033D01*
X40042466Y-39483707D01*
X39947821Y-39647637D01*
X39947818Y-39647644D01*
X39893186Y-39815785D01*
X39889326Y-39827666D01*
X39869540Y-40015922D01*
X39889326Y-40204178D01*
X39889327Y-40204181D01*
X39947818Y-40384199D01*
X39947819Y-40384201D01*
X39947821Y-40384206D01*
X40042467Y-40548138D01*
X40151620Y-40669364D01*
X40169129Y-40688810D01*
X40322265Y-40800070D01*
X40322270Y-40800073D01*
X40481105Y-40870792D01*
X40534342Y-40916042D01*
X40554663Y-40982891D01*
X40535618Y-41050115D01*
X40518351Y-41071752D01*
X40461503Y-41128600D01*
X40331575Y-41314158D01*
X40276998Y-41357783D01*
X40207500Y-41364977D01*
X40145145Y-41333454D01*
X40128425Y-41314158D01*
X39998494Y-41128597D01*
X39831402Y-40961506D01*
X39831395Y-40961501D01*
X39637834Y-40825967D01*
X39637830Y-40825965D01*
X39629040Y-40821866D01*
X39423663Y-40726097D01*
X39423659Y-40726096D01*
X39423655Y-40726094D01*
X39195413Y-40664938D01*
X39195403Y-40664936D01*
X38960001Y-40644341D01*
X38959999Y-40644341D01*
X38724596Y-40664936D01*
X38724586Y-40664938D01*
X38496344Y-40726094D01*
X38496335Y-40726098D01*
X38282171Y-40825964D01*
X38282169Y-40825965D01*
X38088597Y-40961505D01*
X37921505Y-41128597D01*
X37791575Y-41314158D01*
X37736998Y-41357783D01*
X37667500Y-41364977D01*
X37605145Y-41333454D01*
X37588425Y-41314158D01*
X37458494Y-41128597D01*
X37291402Y-40961506D01*
X37291395Y-40961501D01*
X37097834Y-40825967D01*
X37097830Y-40825965D01*
X37089040Y-40821866D01*
X36883663Y-40726097D01*
X36883659Y-40726096D01*
X36883655Y-40726094D01*
X36655413Y-40664938D01*
X36655403Y-40664936D01*
X36420001Y-40644341D01*
X36419999Y-40644341D01*
X36184596Y-40664936D01*
X36184586Y-40664938D01*
X35956344Y-40726094D01*
X35956335Y-40726098D01*
X35742171Y-40825964D01*
X35742169Y-40825965D01*
X35548597Y-40961505D01*
X35381505Y-41128597D01*
X35251575Y-41314158D01*
X35196998Y-41357783D01*
X35127500Y-41364977D01*
X35065145Y-41333454D01*
X35048425Y-41314158D01*
X34918494Y-41128597D01*
X34751402Y-40961506D01*
X34751395Y-40961501D01*
X34557834Y-40825967D01*
X34557830Y-40825965D01*
X34549040Y-40821866D01*
X34343663Y-40726097D01*
X34343659Y-40726096D01*
X34343655Y-40726094D01*
X34115413Y-40664938D01*
X34115403Y-40664936D01*
X33880001Y-40644341D01*
X33879999Y-40644341D01*
X33644596Y-40664936D01*
X33644586Y-40664938D01*
X33416344Y-40726094D01*
X33416335Y-40726098D01*
X33202171Y-40825964D01*
X33202169Y-40825965D01*
X33008597Y-40961505D01*
X32841508Y-41128594D01*
X32711269Y-41314595D01*
X32656692Y-41358219D01*
X32587193Y-41365412D01*
X32524839Y-41333890D01*
X32508119Y-41314594D01*
X32378113Y-41128926D01*
X32378108Y-41128920D01*
X32211082Y-40961894D01*
X32017578Y-40826399D01*
X31803492Y-40726570D01*
X31803486Y-40726567D01*
X31590000Y-40669364D01*
X31590000Y-41566988D01*
X31532993Y-41534075D01*
X31405826Y-41500000D01*
X31274174Y-41500000D01*
X31147007Y-41534075D01*
X31090000Y-41566988D01*
X31090000Y-40669364D01*
X31089999Y-40669364D01*
X30876513Y-40726567D01*
X30876507Y-40726570D01*
X30662422Y-40826399D01*
X30662420Y-40826400D01*
X30468926Y-40961886D01*
X30346865Y-41083947D01*
X30285542Y-41117431D01*
X30215850Y-41112447D01*
X30159917Y-41070575D01*
X30143002Y-41039598D01*
X30142421Y-41038041D01*
X30093796Y-40907669D01*
X30093793Y-40907665D01*
X30089548Y-40899891D01*
X30092135Y-40898477D01*
X30072900Y-40846921D01*
X30087745Y-40778646D01*
X30108899Y-40750384D01*
X30703310Y-40155973D01*
X30764631Y-40122490D01*
X30834323Y-40127474D01*
X30883138Y-40160682D01*
X30894127Y-40172886D01*
X30894130Y-40172889D01*
X31047265Y-40284148D01*
X31047270Y-40284151D01*
X31220192Y-40361142D01*
X31220197Y-40361144D01*
X31405354Y-40400500D01*
X31405355Y-40400500D01*
X31594644Y-40400500D01*
X31594646Y-40400500D01*
X31779803Y-40361144D01*
X31952730Y-40284151D01*
X32105871Y-40172888D01*
X32232533Y-40032216D01*
X32327179Y-39868284D01*
X32385674Y-39688256D01*
X32405460Y-39500000D01*
X32385674Y-39311744D01*
X32327179Y-39131716D01*
X32232533Y-38967784D01*
X32174382Y-38903201D01*
X32149690Y-38875777D01*
X32119460Y-38812785D01*
X32128086Y-38743450D01*
X32154156Y-38705127D01*
X34277140Y-36582146D01*
X34330070Y-36502930D01*
X34386632Y-36418279D01*
X34402428Y-36380145D01*
X34430760Y-36311744D01*
X34462051Y-36236200D01*
X34466602Y-36213324D01*
X34494331Y-36073918D01*
X34500500Y-36042906D01*
X34500500Y-35587500D01*
X34520185Y-35520461D01*
X34572989Y-35474706D01*
X34624500Y-35463500D01*
X36822218Y-35463500D01*
X36889257Y-35483185D01*
X36935012Y-35535989D01*
X36944956Y-35605147D01*
X36915931Y-35668703D01*
X36909899Y-35675181D01*
X35331603Y-37253475D01*
X35322589Y-37261645D01*
X35289116Y-37289116D01*
X35261645Y-37322589D01*
X35253478Y-37331601D01*
X35222858Y-37362222D01*
X35222853Y-37362228D01*
X35198802Y-37398222D01*
X35191558Y-37407991D01*
X35164088Y-37441464D01*
X35143672Y-37479658D01*
X35137420Y-37490089D01*
X35113367Y-37526087D01*
X35096799Y-37566084D01*
X35091600Y-37577076D01*
X35071188Y-37615266D01*
X35071186Y-37615272D01*
X35070986Y-37615932D01*
X35070787Y-37616235D01*
X35068856Y-37620898D01*
X35067971Y-37620531D01*
X35032687Y-37674370D01*
X34968874Y-37702825D01*
X34901890Y-37693213D01*
X34779807Y-37638857D01*
X34779802Y-37638855D01*
X34634001Y-37607865D01*
X34594646Y-37599500D01*
X34405354Y-37599500D01*
X34372897Y-37606398D01*
X34220197Y-37638855D01*
X34220192Y-37638857D01*
X34047270Y-37715848D01*
X34047265Y-37715851D01*
X33894129Y-37827111D01*
X33767466Y-37967785D01*
X33672821Y-38131715D01*
X33672818Y-38131722D01*
X33618437Y-38299091D01*
X33614326Y-38311744D01*
X33594540Y-38500000D01*
X33614326Y-38688256D01*
X33614327Y-38688259D01*
X33672818Y-38868277D01*
X33672821Y-38868284D01*
X33767467Y-39032216D01*
X33877822Y-39154777D01*
X33894129Y-39172888D01*
X34047265Y-39284148D01*
X34047270Y-39284151D01*
X34220192Y-39361142D01*
X34220197Y-39361144D01*
X34405354Y-39400500D01*
X34405355Y-39400500D01*
X34594644Y-39400500D01*
X34594646Y-39400500D01*
X34779803Y-39361144D01*
X34952730Y-39284151D01*
X35105871Y-39172888D01*
X35232533Y-39032216D01*
X35308410Y-38900793D01*
X35358977Y-38852578D01*
X35427584Y-38839354D01*
X35474259Y-38853440D01*
X35479661Y-38856328D01*
X35490090Y-38862579D01*
X35526086Y-38886631D01*
X35566087Y-38903201D01*
X35577082Y-38908401D01*
X35615273Y-38928814D01*
X35656721Y-38941387D01*
X35668166Y-38945483D01*
X35708156Y-38962048D01*
X35708157Y-38962048D01*
X35708164Y-38962051D01*
X35750632Y-38970497D01*
X35762424Y-38973451D01*
X35803868Y-38986024D01*
X35846965Y-38990268D01*
X35858991Y-38992052D01*
X35889481Y-38998117D01*
X35901459Y-39000500D01*
X35901460Y-39000500D01*
X35944756Y-39000500D01*
X35956909Y-39001096D01*
X36000000Y-39005341D01*
X36043090Y-39001096D01*
X36055244Y-39000500D01*
X36098541Y-39000500D01*
X36114453Y-38997334D01*
X36141004Y-38992053D01*
X36153036Y-38990268D01*
X36196132Y-38986024D01*
X36237570Y-38973452D01*
X36249370Y-38970497D01*
X36291836Y-38962051D01*
X36331855Y-38945473D01*
X36343275Y-38941387D01*
X36384727Y-38928814D01*
X36422922Y-38908397D01*
X36433901Y-38903204D01*
X36473914Y-38886631D01*
X36490158Y-38875777D01*
X36509908Y-38862580D01*
X36520337Y-38856328D01*
X36558538Y-38835910D01*
X36592020Y-38808430D01*
X36601780Y-38801193D01*
X36637781Y-38777139D01*
X36668394Y-38746524D01*
X36677411Y-38738352D01*
X36710883Y-38710883D01*
X36738363Y-38677397D01*
X36746515Y-38668403D01*
X40167713Y-35247206D01*
X40167720Y-35247200D01*
X40174780Y-35240140D01*
X40174782Y-35240139D01*
X40314139Y-35100782D01*
X40314140Y-35100780D01*
X40321200Y-35093720D01*
X40321206Y-35093713D01*
X40518631Y-34896287D01*
X40579952Y-34862804D01*
X40649644Y-34867788D01*
X40705577Y-34909660D01*
X40729630Y-34971006D01*
X40739326Y-35063256D01*
X40739327Y-35063259D01*
X40797818Y-35243277D01*
X40797821Y-35243284D01*
X40880583Y-35386633D01*
X40881453Y-35388139D01*
X40897926Y-35456039D01*
X40875073Y-35522066D01*
X40866216Y-35533111D01*
X40767466Y-35642784D01*
X40672821Y-35806715D01*
X40672818Y-35806722D01*
X40614327Y-35986740D01*
X40614326Y-35986744D01*
X40594540Y-36175000D01*
X40614326Y-36363256D01*
X40614327Y-36363259D01*
X40664338Y-36517179D01*
X40666333Y-36587020D01*
X40630252Y-36646853D01*
X40596845Y-36668776D01*
X40547266Y-36690850D01*
X40394129Y-36802111D01*
X40267466Y-36942785D01*
X40172821Y-37106715D01*
X40172818Y-37106722D01*
X40114327Y-37286740D01*
X40114326Y-37286744D01*
X40102370Y-37400500D01*
X40095625Y-37464680D01*
X40094540Y-37475000D01*
X40114326Y-37663256D01*
X40114327Y-37663259D01*
X40172818Y-37843277D01*
X40172821Y-37843284D01*
X40267467Y-38007216D01*
X40350560Y-38099500D01*
X40394129Y-38147888D01*
X40547265Y-38259148D01*
X40547270Y-38259151D01*
X40720192Y-38336142D01*
X40720197Y-38336144D01*
X40905354Y-38375500D01*
X40905355Y-38375500D01*
X41094644Y-38375500D01*
X41094646Y-38375500D01*
X41279803Y-38336144D01*
X41452730Y-38259151D01*
X41605871Y-38147888D01*
X41732533Y-38007216D01*
X41827179Y-37843284D01*
X41885674Y-37663256D01*
X41905460Y-37475000D01*
X41885674Y-37286744D01*
X41848602Y-37172651D01*
X41835661Y-37132820D01*
X41833666Y-37062979D01*
X41869746Y-37003146D01*
X41903156Y-36981223D01*
X41939204Y-36965173D01*
X41952730Y-36959151D01*
X42105871Y-36847888D01*
X42232533Y-36707216D01*
X42327179Y-36543284D01*
X42333651Y-36523367D01*
X42352609Y-36465019D01*
X42392046Y-36407344D01*
X42456405Y-36380145D01*
X42525251Y-36392059D01*
X42576727Y-36439304D01*
X42591871Y-36493746D01*
X42593861Y-36493537D01*
X42594540Y-36499998D01*
X42594540Y-36500000D01*
X42614326Y-36688256D01*
X42614327Y-36688259D01*
X42672818Y-36868277D01*
X42672821Y-36868284D01*
X42767467Y-37032216D01*
X42863487Y-37138857D01*
X42894129Y-37172888D01*
X43047265Y-37284148D01*
X43047270Y-37284151D01*
X43180970Y-37343679D01*
X43234207Y-37388929D01*
X43254528Y-37455778D01*
X43237922Y-37518957D01*
X43172820Y-37631718D01*
X43172818Y-37631722D01*
X43114327Y-37811740D01*
X43114326Y-37811744D01*
X43094540Y-38000000D01*
X43114326Y-38188256D01*
X43114327Y-38188259D01*
X43172818Y-38368277D01*
X43172821Y-38368284D01*
X43267466Y-38532215D01*
X43388851Y-38667028D01*
X43419081Y-38730020D01*
X43410455Y-38799355D01*
X43388851Y-38832972D01*
X43267466Y-38967784D01*
X43172821Y-39131715D01*
X43172818Y-39131722D01*
X43114327Y-39311740D01*
X43114326Y-39311744D01*
X43094540Y-39500000D01*
X43114326Y-39688256D01*
X43114327Y-39688259D01*
X43172818Y-39868277D01*
X43172821Y-39868284D01*
X43267467Y-40032216D01*
X43382294Y-40159744D01*
X43394129Y-40172888D01*
X43547265Y-40284148D01*
X43547270Y-40284151D01*
X43720192Y-40361142D01*
X43720197Y-40361144D01*
X43905354Y-40400500D01*
X43905355Y-40400500D01*
X43987050Y-40400500D01*
X44042285Y-40416719D01*
X44068518Y-40402931D01*
X44092950Y-40400500D01*
X44094644Y-40400500D01*
X44094646Y-40400500D01*
X44279803Y-40361144D01*
X44309325Y-40348000D01*
X69094540Y-40348000D01*
X69114326Y-40536256D01*
X69114327Y-40536259D01*
X69172818Y-40716277D01*
X69172821Y-40716284D01*
X69267467Y-40880216D01*
X69346314Y-40967784D01*
X69394129Y-41020888D01*
X69547265Y-41132148D01*
X69547270Y-41132151D01*
X69720192Y-41209142D01*
X69720197Y-41209144D01*
X69905354Y-41248500D01*
X69905355Y-41248500D01*
X70094644Y-41248500D01*
X70094646Y-41248500D01*
X70279803Y-41209144D01*
X70452730Y-41132151D01*
X70605871Y-41020888D01*
X70732533Y-40880216D01*
X70827179Y-40716284D01*
X70885674Y-40536256D01*
X70905460Y-40348000D01*
X70885674Y-40159744D01*
X70827179Y-39979716D01*
X70732533Y-39815784D01*
X70605871Y-39675112D01*
X70605870Y-39675111D01*
X70452734Y-39563851D01*
X70452729Y-39563848D01*
X70279807Y-39486857D01*
X70279802Y-39486855D01*
X70134001Y-39455865D01*
X70094646Y-39447500D01*
X69905354Y-39447500D01*
X69872897Y-39454398D01*
X69720197Y-39486855D01*
X69720192Y-39486857D01*
X69547270Y-39563848D01*
X69547265Y-39563851D01*
X69394129Y-39675111D01*
X69267466Y-39815785D01*
X69172821Y-39979715D01*
X69172818Y-39979722D01*
X69114327Y-40159740D01*
X69114326Y-40159744D01*
X69094540Y-40348000D01*
X44309325Y-40348000D01*
X44452730Y-40284151D01*
X44605871Y-40172888D01*
X44732533Y-40032216D01*
X44827179Y-39868284D01*
X44885674Y-39688256D01*
X44905460Y-39500000D01*
X44885674Y-39311744D01*
X44827179Y-39131716D01*
X44732533Y-38967784D01*
X44611146Y-38832971D01*
X44580917Y-38769981D01*
X44589542Y-38700646D01*
X44611147Y-38667028D01*
X44732533Y-38532216D01*
X44758438Y-38487347D01*
X54107193Y-38487347D01*
X54126979Y-38675603D01*
X54126980Y-38675606D01*
X54185471Y-38855624D01*
X54185474Y-38855631D01*
X54280120Y-39019563D01*
X54401869Y-39154779D01*
X54406782Y-39160235D01*
X54559918Y-39271495D01*
X54559923Y-39271498D01*
X54732845Y-39348489D01*
X54732850Y-39348491D01*
X54918007Y-39387847D01*
X54918008Y-39387847D01*
X55107297Y-39387847D01*
X55107299Y-39387847D01*
X55292456Y-39348491D01*
X55465383Y-39271498D01*
X55618524Y-39160235D01*
X55745186Y-39019563D01*
X55756481Y-39000000D01*
X71094540Y-39000000D01*
X71114326Y-39188256D01*
X71114327Y-39188259D01*
X71172818Y-39368277D01*
X71172821Y-39368284D01*
X71267467Y-39532216D01*
X71371393Y-39647637D01*
X71394129Y-39672888D01*
X71547265Y-39784148D01*
X71547270Y-39784151D01*
X71720192Y-39861142D01*
X71720197Y-39861144D01*
X71905354Y-39900500D01*
X71905355Y-39900500D01*
X72094644Y-39900500D01*
X72094646Y-39900500D01*
X72279803Y-39861144D01*
X72452730Y-39784151D01*
X72605871Y-39672888D01*
X72732533Y-39532216D01*
X72827179Y-39368284D01*
X72885674Y-39188256D01*
X72904247Y-39011536D01*
X72930832Y-38946924D01*
X72988129Y-38906939D01*
X73027568Y-38900500D01*
X73094644Y-38900500D01*
X73094646Y-38900500D01*
X73279803Y-38861144D01*
X73452730Y-38784151D01*
X73605871Y-38672888D01*
X73657851Y-38615158D01*
X73717336Y-38578510D01*
X73787193Y-38579840D01*
X73842148Y-38615158D01*
X73888853Y-38667028D01*
X73894129Y-38672888D01*
X74047265Y-38784148D01*
X74047270Y-38784151D01*
X74220192Y-38861142D01*
X74220197Y-38861144D01*
X74405354Y-38900500D01*
X74405355Y-38900500D01*
X74594644Y-38900500D01*
X74594646Y-38900500D01*
X74779803Y-38861144D01*
X74952730Y-38784151D01*
X75105871Y-38672888D01*
X75232533Y-38532216D01*
X75327179Y-38368284D01*
X75385674Y-38188256D01*
X75405460Y-38000000D01*
X75385674Y-37811744D01*
X75327179Y-37631716D01*
X75232533Y-37467784D01*
X75105871Y-37327112D01*
X75099646Y-37322589D01*
X74952734Y-37215851D01*
X74952729Y-37215848D01*
X74779807Y-37138857D01*
X74779802Y-37138855D01*
X74628590Y-37106715D01*
X74594646Y-37099500D01*
X74405354Y-37099500D01*
X74372897Y-37106398D01*
X74220197Y-37138855D01*
X74220192Y-37138857D01*
X74047270Y-37215848D01*
X74047265Y-37215851D01*
X73894132Y-37327109D01*
X73894129Y-37327111D01*
X73894129Y-37327112D01*
X73842148Y-37384841D01*
X73782663Y-37421489D01*
X73712806Y-37420158D01*
X73657851Y-37384841D01*
X73605871Y-37327112D01*
X73596550Y-37320340D01*
X73452734Y-37215851D01*
X73452729Y-37215848D01*
X73279807Y-37138857D01*
X73279802Y-37138855D01*
X73128590Y-37106715D01*
X73094646Y-37099500D01*
X72905354Y-37099500D01*
X72872897Y-37106398D01*
X72720197Y-37138855D01*
X72720192Y-37138857D01*
X72547270Y-37215848D01*
X72547265Y-37215851D01*
X72394129Y-37327111D01*
X72267466Y-37467785D01*
X72172821Y-37631715D01*
X72172818Y-37631722D01*
X72114327Y-37811740D01*
X72114326Y-37811744D01*
X72099256Y-37955131D01*
X72095753Y-37988462D01*
X72069168Y-38053076D01*
X72011871Y-38093061D01*
X71972432Y-38099500D01*
X71905354Y-38099500D01*
X71872897Y-38106398D01*
X71720197Y-38138855D01*
X71720192Y-38138857D01*
X71547270Y-38215848D01*
X71547265Y-38215851D01*
X71394129Y-38327111D01*
X71267466Y-38467785D01*
X71172821Y-38631715D01*
X71172818Y-38631722D01*
X71122827Y-38785580D01*
X71114326Y-38811744D01*
X71094540Y-39000000D01*
X55756481Y-39000000D01*
X55839832Y-38855631D01*
X55898327Y-38675603D01*
X55918113Y-38487347D01*
X55898327Y-38299091D01*
X55839832Y-38119063D01*
X55745186Y-37955131D01*
X55618524Y-37814459D01*
X55618523Y-37814458D01*
X55564214Y-37775000D01*
X65081887Y-37775000D01*
X65101673Y-37963256D01*
X65101674Y-37963259D01*
X65160165Y-38143277D01*
X65160168Y-38143284D01*
X65254814Y-38307216D01*
X65369106Y-38434150D01*
X65381476Y-38447888D01*
X65534612Y-38559148D01*
X65534617Y-38559151D01*
X65707539Y-38636142D01*
X65707544Y-38636144D01*
X65892701Y-38675500D01*
X65892702Y-38675500D01*
X66081991Y-38675500D01*
X66081993Y-38675500D01*
X66267150Y-38636144D01*
X66440077Y-38559151D01*
X66593218Y-38447888D01*
X66719880Y-38307216D01*
X66814526Y-38143284D01*
X66873021Y-37963256D01*
X66892807Y-37775000D01*
X66873021Y-37586744D01*
X66814526Y-37406716D01*
X66719880Y-37242784D01*
X66593218Y-37102112D01*
X66589623Y-37099500D01*
X66440081Y-36990851D01*
X66440076Y-36990848D01*
X66267154Y-36913857D01*
X66267149Y-36913855D01*
X66121348Y-36882865D01*
X66081993Y-36874500D01*
X65892701Y-36874500D01*
X65860244Y-36881398D01*
X65707544Y-36913855D01*
X65707539Y-36913857D01*
X65534617Y-36990848D01*
X65534612Y-36990851D01*
X65381476Y-37102111D01*
X65254813Y-37242785D01*
X65160168Y-37406715D01*
X65160165Y-37406722D01*
X65104814Y-37577076D01*
X65101673Y-37586744D01*
X65081887Y-37775000D01*
X55564214Y-37775000D01*
X55465387Y-37703198D01*
X55465382Y-37703195D01*
X55292460Y-37626204D01*
X55292455Y-37626202D01*
X55146654Y-37595212D01*
X55107299Y-37586847D01*
X54918007Y-37586847D01*
X54885550Y-37593745D01*
X54732850Y-37626202D01*
X54732845Y-37626204D01*
X54559923Y-37703195D01*
X54559918Y-37703198D01*
X54406782Y-37814458D01*
X54280119Y-37955132D01*
X54185474Y-38119062D01*
X54185471Y-38119069D01*
X54154025Y-38215851D01*
X54126979Y-38299091D01*
X54107193Y-38487347D01*
X44758438Y-38487347D01*
X44827179Y-38368284D01*
X44885674Y-38188256D01*
X44905460Y-38000000D01*
X44885674Y-37811744D01*
X44827179Y-37631716D01*
X44732533Y-37467784D01*
X44605871Y-37327112D01*
X44599646Y-37322589D01*
X44452734Y-37215851D01*
X44452729Y-37215848D01*
X44319029Y-37156320D01*
X44265792Y-37111069D01*
X44245471Y-37044220D01*
X44262077Y-36981043D01*
X44327179Y-36868284D01*
X44385674Y-36688256D01*
X44405460Y-36500000D01*
X44385674Y-36311744D01*
X44327179Y-36131716D01*
X44232533Y-35967784D01*
X44105871Y-35827112D01*
X44084719Y-35811744D01*
X43952734Y-35715851D01*
X43952729Y-35715848D01*
X43819029Y-35656320D01*
X43765792Y-35611069D01*
X43745471Y-35544220D01*
X43762077Y-35481043D01*
X43827179Y-35368284D01*
X43885674Y-35188256D01*
X43896388Y-35086313D01*
X43922971Y-35021702D01*
X43980268Y-34981717D01*
X44050087Y-34979057D01*
X44110261Y-35014566D01*
X44125246Y-35034180D01*
X44180054Y-35123037D01*
X44301961Y-35244944D01*
X44301965Y-35244947D01*
X44448688Y-35335448D01*
X44448699Y-35335453D01*
X44612347Y-35389680D01*
X44713352Y-35399999D01*
X44750000Y-35399999D01*
X45250000Y-35399999D01*
X45286640Y-35399999D01*
X45286654Y-35399998D01*
X45387652Y-35389680D01*
X45551300Y-35335453D01*
X45551311Y-35335448D01*
X45698034Y-35244947D01*
X45698038Y-35244944D01*
X45819944Y-35123038D01*
X45819947Y-35123034D01*
X45910448Y-34976311D01*
X45910453Y-34976300D01*
X45964680Y-34812652D01*
X45974999Y-34711654D01*
X45975000Y-34711641D01*
X45975000Y-34612500D01*
X45250000Y-34612500D01*
X45250000Y-35399999D01*
X44750000Y-35399999D01*
X44750000Y-34612500D01*
X44025000Y-34612500D01*
X44006820Y-34630680D01*
X43945497Y-34664164D01*
X43875805Y-34659179D01*
X43819872Y-34617308D01*
X43811753Y-34604998D01*
X43732533Y-34467784D01*
X43605871Y-34327112D01*
X43597408Y-34320963D01*
X43452734Y-34215851D01*
X43452729Y-34215848D01*
X43279807Y-34138857D01*
X43279802Y-34138855D01*
X43134001Y-34107865D01*
X43094646Y-34099500D01*
X42905354Y-34099500D01*
X42872897Y-34106398D01*
X42720197Y-34138855D01*
X42720192Y-34138857D01*
X42547270Y-34215848D01*
X42547265Y-34215851D01*
X42453801Y-34283757D01*
X42387994Y-34307237D01*
X42319941Y-34291411D01*
X42288766Y-34266411D01*
X42273989Y-34250000D01*
X42230871Y-34202112D01*
X42225264Y-34198038D01*
X42077734Y-34090851D01*
X42077729Y-34090848D01*
X41904807Y-34013857D01*
X41904802Y-34013855D01*
X41753693Y-33981736D01*
X41719646Y-33974500D01*
X41719645Y-33974500D01*
X41713289Y-33973149D01*
X41713884Y-33970346D01*
X41660841Y-33948480D01*
X41620896Y-33891155D01*
X41618284Y-33821334D01*
X41650800Y-33764118D01*
X41805102Y-33609818D01*
X43044738Y-32370183D01*
X43106061Y-32336698D01*
X43132419Y-32333864D01*
X43900500Y-32333864D01*
X43967539Y-32353549D01*
X44013294Y-32406353D01*
X44024500Y-32457864D01*
X44024500Y-32986669D01*
X44024501Y-32986687D01*
X44034825Y-33087752D01*
X44065281Y-33179660D01*
X44089092Y-33251516D01*
X44179659Y-33398349D01*
X44179661Y-33398351D01*
X44193982Y-33412672D01*
X44227467Y-33473995D01*
X44222483Y-33543687D01*
X44193985Y-33588032D01*
X44180052Y-33601965D01*
X44089551Y-33748688D01*
X44089546Y-33748699D01*
X44035319Y-33912347D01*
X44025000Y-34013345D01*
X44025000Y-34112500D01*
X45974999Y-34112500D01*
X45974999Y-34013360D01*
X45974998Y-34013345D01*
X45964680Y-33912347D01*
X45910453Y-33748699D01*
X45910448Y-33748688D01*
X45819947Y-33601965D01*
X45819944Y-33601961D01*
X45806017Y-33588034D01*
X45772532Y-33526711D01*
X45777516Y-33457019D01*
X45806017Y-33412672D01*
X45820340Y-33398350D01*
X45910908Y-33251516D01*
X45953625Y-33122604D01*
X45993395Y-33065163D01*
X46057911Y-33038340D01*
X46126687Y-33050655D01*
X46159010Y-33073931D01*
X48253479Y-35168400D01*
X48261652Y-35177417D01*
X48289116Y-35210883D01*
X48322581Y-35238346D01*
X48331599Y-35246520D01*
X48362214Y-35277136D01*
X48362216Y-35277138D01*
X48398225Y-35301198D01*
X48408000Y-35308448D01*
X48441459Y-35335908D01*
X48441467Y-35335913D01*
X48479639Y-35356316D01*
X48490070Y-35362567D01*
X48526085Y-35386631D01*
X48526088Y-35386633D01*
X48566094Y-35403204D01*
X48577094Y-35408407D01*
X48615273Y-35428814D01*
X48633933Y-35434474D01*
X48656700Y-35441381D01*
X48668155Y-35445480D01*
X48708160Y-35462050D01*
X48708165Y-35462052D01*
X48750650Y-35470502D01*
X48762429Y-35473453D01*
X48803868Y-35486024D01*
X48842807Y-35489858D01*
X48846951Y-35490267D01*
X48858988Y-35492052D01*
X48876101Y-35495456D01*
X48901459Y-35500501D01*
X48901460Y-35500501D01*
X48944766Y-35500501D01*
X48956919Y-35501097D01*
X49000000Y-35505341D01*
X49043080Y-35501097D01*
X49055234Y-35500501D01*
X49104655Y-35500501D01*
X49104675Y-35500500D01*
X51424853Y-35500500D01*
X51491892Y-35520185D01*
X51537647Y-35572989D01*
X51548173Y-35637460D01*
X51546540Y-35653007D01*
X51566326Y-35841263D01*
X51566327Y-35841266D01*
X51624818Y-36021284D01*
X51624821Y-36021291D01*
X51719467Y-36185223D01*
X51823880Y-36301185D01*
X51846129Y-36325895D01*
X51999265Y-36437155D01*
X51999270Y-36437158D01*
X52172192Y-36514149D01*
X52172197Y-36514151D01*
X52357354Y-36553507D01*
X52357355Y-36553507D01*
X52546644Y-36553507D01*
X52546646Y-36553507D01*
X52731803Y-36514151D01*
X52904730Y-36437158D01*
X53057871Y-36325895D01*
X53184533Y-36185223D01*
X53279179Y-36021291D01*
X53337674Y-35841263D01*
X53357460Y-35653007D01*
X53355826Y-35637460D01*
X53368396Y-35568731D01*
X53416128Y-35517708D01*
X53479147Y-35500500D01*
X54346429Y-35500500D01*
X54413468Y-35520185D01*
X54459223Y-35572989D01*
X54469786Y-35637101D01*
X54468778Y-35646977D01*
X54462000Y-35713315D01*
X54462000Y-36286669D01*
X54462001Y-36286687D01*
X54472325Y-36387752D01*
X54499744Y-36470496D01*
X54526520Y-36551300D01*
X54526592Y-36551515D01*
X54526593Y-36551518D01*
X54545485Y-36582146D01*
X54617160Y-36698350D01*
X54739150Y-36820340D01*
X54885984Y-36910908D01*
X55049747Y-36965174D01*
X55150823Y-36975500D01*
X55849176Y-36975499D01*
X55849184Y-36975498D01*
X55849187Y-36975498D01*
X55913963Y-36968881D01*
X55950253Y-36965174D01*
X56114016Y-36910908D01*
X56260850Y-36820340D01*
X56275171Y-36806018D01*
X56336489Y-36772533D01*
X56406181Y-36777514D01*
X56450534Y-36806017D01*
X56464461Y-36819944D01*
X56464465Y-36819947D01*
X56611188Y-36910448D01*
X56611199Y-36910453D01*
X56774847Y-36964680D01*
X56875851Y-36974999D01*
X57475000Y-36974999D01*
X57574140Y-36974999D01*
X57574154Y-36974998D01*
X57675152Y-36964680D01*
X57838800Y-36910453D01*
X57838811Y-36910448D01*
X57985534Y-36819947D01*
X57985538Y-36819944D01*
X58018828Y-36786654D01*
X59600001Y-36786654D01*
X59610319Y-36887652D01*
X59664546Y-37051300D01*
X59664551Y-37051311D01*
X59755052Y-37198034D01*
X59755055Y-37198038D01*
X59876961Y-37319944D01*
X59876965Y-37319947D01*
X60023688Y-37410448D01*
X60023699Y-37410453D01*
X60187347Y-37464680D01*
X60288351Y-37474999D01*
X60387500Y-37474998D01*
X60387500Y-36750000D01*
X59600001Y-36750000D01*
X59600001Y-36786654D01*
X58018828Y-36786654D01*
X58107444Y-36698038D01*
X58107447Y-36698034D01*
X58197948Y-36551311D01*
X58197953Y-36551300D01*
X58252180Y-36387652D01*
X58262499Y-36286654D01*
X58262500Y-36286641D01*
X58262500Y-36250000D01*
X57475000Y-36250000D01*
X57475000Y-36974999D01*
X56875851Y-36974999D01*
X56975000Y-36974998D01*
X56975000Y-36213345D01*
X59600000Y-36213345D01*
X59600000Y-36250000D01*
X60387500Y-36250000D01*
X60387500Y-35524999D01*
X60288360Y-35525000D01*
X60288344Y-35525001D01*
X60187347Y-35535319D01*
X60023699Y-35589546D01*
X60023688Y-35589551D01*
X59876965Y-35680052D01*
X59876961Y-35680055D01*
X59755055Y-35801961D01*
X59755052Y-35801965D01*
X59664551Y-35948688D01*
X59664546Y-35948699D01*
X59610319Y-36112347D01*
X59600000Y-36213345D01*
X56975000Y-36213345D01*
X56975000Y-35750000D01*
X57475000Y-35750000D01*
X58262499Y-35750000D01*
X58262499Y-35713360D01*
X58262498Y-35713345D01*
X58252180Y-35612347D01*
X58197953Y-35448699D01*
X58197948Y-35448688D01*
X58107447Y-35301965D01*
X58107444Y-35301961D01*
X57985538Y-35180055D01*
X57985534Y-35180052D01*
X57838811Y-35089551D01*
X57838800Y-35089546D01*
X57675152Y-35035319D01*
X57574154Y-35025000D01*
X57475000Y-35025000D01*
X57475000Y-35750000D01*
X56975000Y-35750000D01*
X56975000Y-35024999D01*
X56875860Y-35025000D01*
X56875844Y-35025001D01*
X56774847Y-35035319D01*
X56680363Y-35066628D01*
X56610534Y-35069030D01*
X56550492Y-35033298D01*
X56519300Y-34970777D01*
X56526861Y-34901318D01*
X56553674Y-34861244D01*
X56878103Y-34536816D01*
X56939425Y-34503334D01*
X56965783Y-34500500D01*
X61034218Y-34500500D01*
X61101257Y-34520185D01*
X61121899Y-34536819D01*
X61926068Y-35340988D01*
X61959553Y-35402311D01*
X61954569Y-35472003D01*
X61912697Y-35527936D01*
X61877392Y-35546374D01*
X61748492Y-35589088D01*
X61748481Y-35589093D01*
X61601648Y-35679661D01*
X61587325Y-35693984D01*
X61526001Y-35727468D01*
X61456309Y-35722482D01*
X61411965Y-35693982D01*
X61398038Y-35680055D01*
X61398034Y-35680052D01*
X61251311Y-35589551D01*
X61251300Y-35589546D01*
X61087652Y-35535319D01*
X60986654Y-35525000D01*
X60887500Y-35525000D01*
X60887500Y-37474999D01*
X60986640Y-37474999D01*
X60986654Y-37474998D01*
X61087652Y-37464680D01*
X61251300Y-37410453D01*
X61251311Y-37410448D01*
X61398035Y-37319947D01*
X61411960Y-37306021D01*
X61473282Y-37272533D01*
X61542973Y-37277514D01*
X61587327Y-37306017D01*
X61601650Y-37320340D01*
X61748484Y-37410908D01*
X61912247Y-37465174D01*
X62013323Y-37475500D01*
X62711676Y-37475499D01*
X62711684Y-37475498D01*
X62711687Y-37475498D01*
X62767030Y-37469844D01*
X62812753Y-37465174D01*
X62976516Y-37410908D01*
X63123350Y-37320340D01*
X63245340Y-37198350D01*
X63335908Y-37051516D01*
X63390174Y-36887753D01*
X63400500Y-36786677D01*
X63400499Y-36627527D01*
X63420183Y-36560489D01*
X63472987Y-36514734D01*
X63512344Y-36504125D01*
X63543090Y-36501096D01*
X63555244Y-36500500D01*
X63598541Y-36500500D01*
X63614453Y-36497334D01*
X63641004Y-36492053D01*
X63653036Y-36490268D01*
X63696132Y-36486024D01*
X63737570Y-36473452D01*
X63749370Y-36470497D01*
X63791836Y-36462051D01*
X63831855Y-36445473D01*
X63843275Y-36441387D01*
X63884727Y-36428814D01*
X63922922Y-36408397D01*
X63933901Y-36403204D01*
X63973914Y-36386631D01*
X63983621Y-36380145D01*
X64009908Y-36362580D01*
X64020332Y-36356330D01*
X64058538Y-36335910D01*
X64092020Y-36308430D01*
X64101780Y-36301193D01*
X64137781Y-36277139D01*
X64168394Y-36246524D01*
X64177411Y-36238352D01*
X64210883Y-36210883D01*
X64238353Y-36177409D01*
X64246526Y-36168393D01*
X64277139Y-36137781D01*
X64301193Y-36101780D01*
X64308430Y-36092020D01*
X64335910Y-36058538D01*
X64356330Y-36020332D01*
X64362580Y-36009908D01*
X64386627Y-35973920D01*
X64386627Y-35973919D01*
X64386631Y-35973914D01*
X64403204Y-35933901D01*
X64408401Y-35922916D01*
X64428814Y-35884727D01*
X64441387Y-35843275D01*
X64445473Y-35831855D01*
X64462051Y-35791836D01*
X64470497Y-35749370D01*
X64473454Y-35737566D01*
X64486024Y-35696132D01*
X64490268Y-35653036D01*
X64492054Y-35640998D01*
X64492481Y-35638855D01*
X64500500Y-35598540D01*
X64501689Y-35592564D01*
X64503491Y-35592922D01*
X64526423Y-35536123D01*
X64535980Y-35525387D01*
X68075978Y-31985388D01*
X68137299Y-31951905D01*
X68199650Y-31954409D01*
X68303868Y-31986024D01*
X68393697Y-31994871D01*
X68458485Y-32021031D01*
X68469225Y-32030593D01*
X71342549Y-34903917D01*
X71366463Y-34919895D01*
X71402338Y-34943865D01*
X71465468Y-34986047D01*
X71559510Y-35025000D01*
X71567719Y-35028400D01*
X71598932Y-35047108D01*
X71732678Y-35156872D01*
X71732685Y-35156876D01*
X71906484Y-35249774D01*
X71906487Y-35249774D01*
X71906491Y-35249777D01*
X72095086Y-35306987D01*
X72291218Y-35326304D01*
X72487350Y-35306987D01*
X72675945Y-35249777D01*
X72680767Y-35247200D01*
X72791037Y-35188259D01*
X72849756Y-35156873D01*
X73002101Y-35031846D01*
X73127128Y-34879501D01*
X73220032Y-34705690D01*
X73277242Y-34517095D01*
X73296559Y-34320963D01*
X73277242Y-34124831D01*
X73220032Y-33936236D01*
X73220029Y-33936232D01*
X73220029Y-33936229D01*
X73127131Y-33762430D01*
X73127127Y-33762423D01*
X73002101Y-33610079D01*
X72849757Y-33485053D01*
X72849750Y-33485049D01*
X72675951Y-33392151D01*
X72675945Y-33392149D01*
X72487350Y-33334939D01*
X72487347Y-33334938D01*
X72291218Y-33315622D01*
X72095086Y-33334938D01*
X72013692Y-33359629D01*
X71943825Y-33360252D01*
X71890017Y-33328649D01*
X70704561Y-32143193D01*
X70671076Y-32081870D01*
X70676060Y-32012178D01*
X70717932Y-31956245D01*
X70783396Y-31931828D01*
X70831246Y-31937806D01*
X70912348Y-31964680D01*
X71013351Y-31974999D01*
X71612500Y-31974999D01*
X71711640Y-31974999D01*
X71711654Y-31974998D01*
X71812652Y-31964680D01*
X71976300Y-31910453D01*
X71976311Y-31910448D01*
X72123034Y-31819947D01*
X72123038Y-31819944D01*
X72244944Y-31698038D01*
X72244947Y-31698034D01*
X72335448Y-31551311D01*
X72335453Y-31551300D01*
X72389680Y-31387652D01*
X72399999Y-31286654D01*
X72400000Y-31286641D01*
X72400000Y-31250000D01*
X71612500Y-31250000D01*
X71612500Y-31974999D01*
X71013351Y-31974999D01*
X71112500Y-31974998D01*
X71112500Y-30750000D01*
X71612500Y-30750000D01*
X72399999Y-30750000D01*
X72399999Y-30713360D01*
X72399998Y-30713345D01*
X72389680Y-30612347D01*
X72335453Y-30448699D01*
X72335448Y-30448688D01*
X72244947Y-30301965D01*
X72244944Y-30301961D01*
X72123038Y-30180055D01*
X72123034Y-30180052D01*
X71976311Y-30089551D01*
X71976300Y-30089546D01*
X71812652Y-30035319D01*
X71711654Y-30025000D01*
X71612500Y-30025000D01*
X71612500Y-30750000D01*
X71112500Y-30750000D01*
X71112500Y-30024999D01*
X71013360Y-30025000D01*
X71013344Y-30025001D01*
X70912347Y-30035319D01*
X70748699Y-30089546D01*
X70748688Y-30089551D01*
X70601965Y-30180052D01*
X70588032Y-30193985D01*
X70526708Y-30227468D01*
X70457016Y-30222482D01*
X70412672Y-30193982D01*
X70398351Y-30179661D01*
X70398350Y-30179660D01*
X70300382Y-30119233D01*
X70251518Y-30089093D01*
X70251513Y-30089091D01*
X70242432Y-30086082D01*
X70087753Y-30034826D01*
X70087751Y-30034825D01*
X69986678Y-30024500D01*
X69288330Y-30024500D01*
X69288312Y-30024501D01*
X69187247Y-30034825D01*
X69075043Y-30072007D01*
X69023484Y-30089092D01*
X69023482Y-30089092D01*
X69023476Y-30089095D01*
X69023447Y-30089109D01*
X69023424Y-30089112D01*
X69016630Y-30091364D01*
X69016245Y-30090202D01*
X68954369Y-30099597D01*
X68912596Y-30086082D01*
X68903189Y-30081054D01*
X68884730Y-30071187D01*
X68882488Y-30070507D01*
X68736449Y-30026206D01*
X68696129Y-30013975D01*
X68500000Y-29994659D01*
X68303870Y-30013975D01*
X68115266Y-30071188D01*
X67941467Y-30164086D01*
X67941461Y-30164090D01*
X67833022Y-30253083D01*
X67786468Y-30275108D01*
X67786913Y-30276575D01*
X67781082Y-30278343D01*
X67644511Y-30334912D01*
X67644504Y-30334916D01*
X67621683Y-30350164D01*
X67610194Y-30357842D01*
X67521582Y-30417049D01*
X67505479Y-30433152D01*
X67444155Y-30466636D01*
X67374464Y-30461650D01*
X67318531Y-30419777D01*
X67299870Y-30383790D01*
X67262884Y-30269957D01*
X67246331Y-30219012D01*
X67246328Y-30219006D01*
X67240247Y-30208473D01*
X67151683Y-30055075D01*
X67025021Y-29914403D01*
X67010514Y-29903863D01*
X66871884Y-29803142D01*
X66871879Y-29803139D01*
X66698957Y-29726148D01*
X66698952Y-29726146D01*
X66543191Y-29693039D01*
X66513796Y-29686791D01*
X66324504Y-29686791D01*
X66295109Y-29693039D01*
X66139347Y-29726146D01*
X66139342Y-29726148D01*
X65966420Y-29803139D01*
X65966415Y-29803142D01*
X65813279Y-29914402D01*
X65686616Y-30055076D01*
X65591971Y-30219006D01*
X65591968Y-30219013D01*
X65533477Y-30399031D01*
X65533476Y-30399035D01*
X65513690Y-30587291D01*
X65532368Y-30765007D01*
X65533476Y-30775544D01*
X65533476Y-30775548D01*
X65591968Y-30955568D01*
X65591971Y-30955575D01*
X65686617Y-31119507D01*
X65791235Y-31235697D01*
X65813279Y-31260179D01*
X65966415Y-31371439D01*
X65966420Y-31371442D01*
X66139342Y-31448433D01*
X66139343Y-31448433D01*
X66139347Y-31448435D01*
X66205308Y-31462455D01*
X66266786Y-31495645D01*
X66300564Y-31556807D01*
X66295912Y-31626522D01*
X66267206Y-31671425D01*
X63764457Y-34174175D01*
X63703134Y-34207660D01*
X63633442Y-34202676D01*
X63589095Y-34174175D01*
X62536819Y-33121899D01*
X62503334Y-33060576D01*
X62500500Y-33034218D01*
X62500500Y-30758170D01*
X62460863Y-30558905D01*
X62462679Y-30558543D01*
X62462136Y-30497340D01*
X62499386Y-30438228D01*
X62562681Y-30408639D01*
X62620423Y-30413509D01*
X62774848Y-30464680D01*
X62875851Y-30474999D01*
X63475000Y-30474999D01*
X63574140Y-30474999D01*
X63574154Y-30474998D01*
X63675152Y-30464680D01*
X63838800Y-30410453D01*
X63838811Y-30410448D01*
X63985534Y-30319947D01*
X63985538Y-30319944D01*
X64107444Y-30198038D01*
X64107447Y-30198034D01*
X64197948Y-30051311D01*
X64197953Y-30051300D01*
X64252180Y-29887652D01*
X64262499Y-29786654D01*
X64262500Y-29786641D01*
X64262500Y-29750000D01*
X63475000Y-29750000D01*
X63475000Y-30474999D01*
X62875851Y-30474999D01*
X62975000Y-30474998D01*
X62975000Y-29250000D01*
X63475000Y-29250000D01*
X64262499Y-29250000D01*
X64262499Y-29213360D01*
X64262498Y-29213345D01*
X64252180Y-29112347D01*
X64197953Y-28948699D01*
X64197948Y-28948688D01*
X64107447Y-28801965D01*
X64107444Y-28801961D01*
X63985538Y-28680055D01*
X63985534Y-28680052D01*
X63838811Y-28589551D01*
X63838800Y-28589546D01*
X63675152Y-28535319D01*
X63574154Y-28525000D01*
X63475000Y-28525000D01*
X63475000Y-29250000D01*
X62975000Y-29250000D01*
X62975000Y-28524999D01*
X62875860Y-28525000D01*
X62875844Y-28525001D01*
X62774847Y-28535319D01*
X62611199Y-28589546D01*
X62611188Y-28589551D01*
X62464465Y-28680052D01*
X62450532Y-28693985D01*
X62389208Y-28727468D01*
X62319516Y-28722482D01*
X62275172Y-28693982D01*
X62260851Y-28679661D01*
X62260850Y-28679660D01*
X62160157Y-28617552D01*
X62114018Y-28589093D01*
X62114013Y-28589091D01*
X62112569Y-28588612D01*
X61950253Y-28534826D01*
X61950251Y-28534825D01*
X61849178Y-28524500D01*
X61150830Y-28524500D01*
X61150812Y-28524501D01*
X61049747Y-28534825D01*
X60885984Y-28589092D01*
X60885981Y-28589093D01*
X60739148Y-28679661D01*
X60617161Y-28801648D01*
X60526593Y-28948481D01*
X60526591Y-28948486D01*
X60503294Y-29018793D01*
X60472326Y-29112247D01*
X60472326Y-29112248D01*
X60472325Y-29112248D01*
X60462000Y-29213315D01*
X60462000Y-29786669D01*
X60462001Y-29786687D01*
X60472325Y-29887752D01*
X60493003Y-29950152D01*
X60526592Y-30051516D01*
X60551170Y-30091364D01*
X60556009Y-30099208D01*
X60574449Y-30166601D01*
X60559828Y-30222758D01*
X60476974Y-30377766D01*
X60419761Y-30566370D01*
X60400445Y-30762500D01*
X60419761Y-30958629D01*
X60476973Y-31147230D01*
X60484857Y-31161978D01*
X60499500Y-31220433D01*
X60499500Y-32375500D01*
X60479815Y-32442539D01*
X60427011Y-32488294D01*
X60375500Y-32499500D01*
X56604675Y-32499500D01*
X56604655Y-32499499D01*
X56598541Y-32499499D01*
X56435146Y-32499499D01*
X56368107Y-32479814D01*
X56332044Y-32444390D01*
X56277139Y-32362218D01*
X56277137Y-32362215D01*
X56134686Y-32219764D01*
X56134655Y-32219735D01*
X54511819Y-30596899D01*
X54478334Y-30535576D01*
X54475500Y-30509218D01*
X54475500Y-30500000D01*
X57819540Y-30500000D01*
X57839326Y-30688256D01*
X57839327Y-30688259D01*
X57897818Y-30868277D01*
X57897821Y-30868284D01*
X57992467Y-31032216D01*
X58097353Y-31148703D01*
X58119129Y-31172888D01*
X58272265Y-31284148D01*
X58272270Y-31284151D01*
X58445192Y-31361142D01*
X58445197Y-31361144D01*
X58630354Y-31400500D01*
X58630355Y-31400500D01*
X58819644Y-31400500D01*
X58819646Y-31400500D01*
X59004803Y-31361144D01*
X59177730Y-31284151D01*
X59330871Y-31172888D01*
X59457533Y-31032216D01*
X59552179Y-30868284D01*
X59610674Y-30688256D01*
X59630460Y-30500000D01*
X59610674Y-30311744D01*
X59552179Y-30131716D01*
X59457533Y-29967784D01*
X59330871Y-29827112D01*
X59330870Y-29827111D01*
X59177734Y-29715851D01*
X59177729Y-29715848D01*
X59004807Y-29638857D01*
X59004802Y-29638855D01*
X58854804Y-29606973D01*
X58819646Y-29599500D01*
X58630354Y-29599500D01*
X58597897Y-29606398D01*
X58445197Y-29638855D01*
X58445192Y-29638857D01*
X58272270Y-29715848D01*
X58272265Y-29715851D01*
X58119129Y-29827111D01*
X57992466Y-29967785D01*
X57897821Y-30131715D01*
X57897818Y-30131722D01*
X57842503Y-30301965D01*
X57839326Y-30311744D01*
X57819540Y-30500000D01*
X54475500Y-30500000D01*
X54475500Y-30382052D01*
X54495185Y-30315013D01*
X54511819Y-30294371D01*
X54556190Y-30250000D01*
X54607840Y-30198350D01*
X54698408Y-30051516D01*
X54752674Y-29887753D01*
X54763000Y-29786677D01*
X54762999Y-29213324D01*
X54761023Y-29193984D01*
X54752674Y-29112247D01*
X54745153Y-29089551D01*
X54698408Y-28948484D01*
X54607840Y-28801650D01*
X54485850Y-28679660D01*
X54385157Y-28617552D01*
X54339018Y-28589093D01*
X54339013Y-28589091D01*
X54337569Y-28588612D01*
X54175253Y-28534826D01*
X54175251Y-28534825D01*
X54074178Y-28524500D01*
X53375830Y-28524500D01*
X53375812Y-28524501D01*
X53274747Y-28534825D01*
X53110984Y-28589092D01*
X53110981Y-28589093D01*
X52964148Y-28679661D01*
X52949825Y-28693984D01*
X52888501Y-28727468D01*
X52818809Y-28722482D01*
X52774465Y-28693982D01*
X52760538Y-28680055D01*
X52760534Y-28680052D01*
X52613811Y-28589551D01*
X52613800Y-28589546D01*
X52450152Y-28535319D01*
X52349154Y-28525000D01*
X52250000Y-28525000D01*
X52250000Y-30474999D01*
X52349140Y-30474999D01*
X52349154Y-30474998D01*
X52436853Y-30466039D01*
X52505546Y-30478808D01*
X52556430Y-30526689D01*
X52573351Y-30594479D01*
X52568115Y-30625395D01*
X52558616Y-30656706D01*
X52554518Y-30668158D01*
X52537950Y-30708158D01*
X52537948Y-30708165D01*
X52529503Y-30750622D01*
X52526547Y-30762423D01*
X52513977Y-30803862D01*
X52513975Y-30803869D01*
X52509730Y-30846964D01*
X52507945Y-30858992D01*
X52499500Y-30901454D01*
X52499500Y-30944754D01*
X52498903Y-30956907D01*
X52494659Y-30999999D01*
X52498903Y-31043090D01*
X52499500Y-31055244D01*
X52499500Y-31098543D01*
X52507945Y-31141005D01*
X52509730Y-31153034D01*
X52513975Y-31196130D01*
X52513977Y-31196137D01*
X52526547Y-31237577D01*
X52529503Y-31249378D01*
X52537947Y-31291829D01*
X52537948Y-31291831D01*
X52537949Y-31291836D01*
X52554523Y-31331850D01*
X52558615Y-31343288D01*
X52571185Y-31384725D01*
X52571187Y-31384730D01*
X52591599Y-31422919D01*
X52596800Y-31433915D01*
X52613369Y-31473914D01*
X52613369Y-31473915D01*
X52637422Y-31509913D01*
X52643676Y-31520347D01*
X52660221Y-31551300D01*
X52664092Y-31558541D01*
X52691557Y-31592007D01*
X52698806Y-31601781D01*
X52722860Y-31637780D01*
X52722863Y-31637784D01*
X52753474Y-31668394D01*
X52761646Y-31677410D01*
X52789117Y-31710883D01*
X52820387Y-31736546D01*
X52822587Y-31738351D01*
X52831604Y-31746524D01*
X54372899Y-33287819D01*
X54406384Y-33349142D01*
X54401400Y-33418834D01*
X54359528Y-33474767D01*
X54294064Y-33499184D01*
X54285218Y-33499500D01*
X49465783Y-33499500D01*
X49398744Y-33479815D01*
X49378102Y-33463181D01*
X48030187Y-32115266D01*
X46679239Y-30764319D01*
X46645755Y-30702997D01*
X46650739Y-30633305D01*
X46661384Y-30611540D01*
X46698404Y-30551523D01*
X46698404Y-30551521D01*
X46698408Y-30551516D01*
X46752674Y-30387753D01*
X46763000Y-30286677D01*
X46762999Y-29786654D01*
X50962501Y-29786654D01*
X50972819Y-29887652D01*
X51027046Y-30051300D01*
X51027051Y-30051311D01*
X51117552Y-30198034D01*
X51117555Y-30198038D01*
X51239461Y-30319944D01*
X51239465Y-30319947D01*
X51386188Y-30410448D01*
X51386199Y-30410453D01*
X51549847Y-30464680D01*
X51650851Y-30474999D01*
X51750000Y-30474998D01*
X51750000Y-29750000D01*
X50962501Y-29750000D01*
X50962501Y-29786654D01*
X46762999Y-29786654D01*
X46762999Y-29713324D01*
X46756155Y-29646329D01*
X46752674Y-29612247D01*
X46744447Y-29587420D01*
X46698408Y-29448484D01*
X46607840Y-29301650D01*
X46519535Y-29213345D01*
X50962500Y-29213345D01*
X50962500Y-29250000D01*
X51750000Y-29250000D01*
X51750000Y-28524999D01*
X51650860Y-28525000D01*
X51650844Y-28525001D01*
X51549847Y-28535319D01*
X51386199Y-28589546D01*
X51386188Y-28589551D01*
X51239465Y-28680052D01*
X51239461Y-28680055D01*
X51117555Y-28801961D01*
X51117552Y-28801965D01*
X51027051Y-28948688D01*
X51027046Y-28948699D01*
X50972819Y-29112347D01*
X50962500Y-29213345D01*
X46519535Y-29213345D01*
X46485850Y-29179660D01*
X46372707Y-29109873D01*
X46339018Y-29089093D01*
X46339013Y-29089091D01*
X46278657Y-29069091D01*
X46175253Y-29034826D01*
X46175251Y-29034825D01*
X46074178Y-29024500D01*
X45375830Y-29024500D01*
X45375812Y-29024501D01*
X45274747Y-29034825D01*
X45110984Y-29089092D01*
X45110981Y-29089093D01*
X44964148Y-29179661D01*
X44949825Y-29193984D01*
X44888501Y-29227468D01*
X44818809Y-29222482D01*
X44774465Y-29193982D01*
X44760538Y-29180055D01*
X44760534Y-29180052D01*
X44613811Y-29089551D01*
X44613800Y-29089546D01*
X44450152Y-29035319D01*
X44349154Y-29025000D01*
X44250000Y-29025000D01*
X44250000Y-30126000D01*
X44230315Y-30193039D01*
X44177511Y-30238794D01*
X44126000Y-30250000D01*
X42962501Y-30250000D01*
X42945400Y-30267100D01*
X42942816Y-30275903D01*
X42890012Y-30321658D01*
X42838501Y-30332864D01*
X39633694Y-30332864D01*
X39566655Y-30313179D01*
X39546013Y-30296545D01*
X39381298Y-30131830D01*
X39347813Y-30070507D01*
X39351272Y-30005148D01*
X39390174Y-29887753D01*
X39400500Y-29786677D01*
X39400500Y-29713345D01*
X42962500Y-29713345D01*
X42962500Y-29750000D01*
X43750000Y-29750000D01*
X43750000Y-29024999D01*
X43650860Y-29025000D01*
X43650844Y-29025001D01*
X43549847Y-29035319D01*
X43386199Y-29089546D01*
X43386188Y-29089551D01*
X43239465Y-29180052D01*
X43239461Y-29180055D01*
X43117555Y-29301961D01*
X43117552Y-29301965D01*
X43027051Y-29448688D01*
X43027046Y-29448699D01*
X42972819Y-29612347D01*
X42962500Y-29713345D01*
X39400500Y-29713345D01*
X39400499Y-29213324D01*
X39398523Y-29193984D01*
X39390174Y-29112247D01*
X39382653Y-29089551D01*
X39335908Y-28948484D01*
X39245340Y-28801650D01*
X39123350Y-28679660D01*
X39022657Y-28617552D01*
X38976518Y-28589093D01*
X38976513Y-28589091D01*
X38975069Y-28588612D01*
X38812753Y-28534826D01*
X38812751Y-28534825D01*
X38711678Y-28524500D01*
X38013330Y-28524500D01*
X38013312Y-28524501D01*
X37912247Y-28534825D01*
X37748484Y-28589092D01*
X37748481Y-28589093D01*
X37601648Y-28679661D01*
X37587325Y-28693984D01*
X37526001Y-28727468D01*
X37456309Y-28722482D01*
X37411965Y-28693982D01*
X37398038Y-28680055D01*
X37398034Y-28680052D01*
X37251311Y-28589551D01*
X37251300Y-28589546D01*
X37087652Y-28535319D01*
X36986654Y-28525000D01*
X36887500Y-28525000D01*
X36887500Y-29626000D01*
X36867815Y-29693039D01*
X36815011Y-29738794D01*
X36763500Y-29750000D01*
X36545701Y-29750000D01*
X36495265Y-29739279D01*
X36470067Y-29728060D01*
X36442096Y-29715606D01*
X36296295Y-29684616D01*
X36256940Y-29676251D01*
X36067648Y-29676251D01*
X36035191Y-29683149D01*
X35882491Y-29715606D01*
X35882490Y-29715606D01*
X35836834Y-29735934D01*
X35829322Y-29739279D01*
X35778887Y-29750000D01*
X35600001Y-29750000D01*
X35600001Y-29786638D01*
X35600002Y-29786659D01*
X35600898Y-29795431D01*
X35588127Y-29864124D01*
X35560514Y-29900179D01*
X35556424Y-29903861D01*
X35429760Y-30044536D01*
X35335115Y-30208466D01*
X35335112Y-30208473D01*
X35276861Y-30387753D01*
X35276620Y-30388495D01*
X35256834Y-30576751D01*
X35276620Y-30765007D01*
X35276621Y-30765010D01*
X35335112Y-30945028D01*
X35335115Y-30945035D01*
X35429761Y-31108967D01*
X35511456Y-31199698D01*
X35556423Y-31249639D01*
X35709559Y-31360899D01*
X35709564Y-31360902D01*
X35882486Y-31437893D01*
X35882491Y-31437895D01*
X36067648Y-31477251D01*
X36067649Y-31477251D01*
X36256938Y-31477251D01*
X36256940Y-31477251D01*
X36442097Y-31437895D01*
X36615024Y-31360902D01*
X36768165Y-31249639D01*
X36894827Y-31108967D01*
X36989473Y-30945035D01*
X37047968Y-30765007D01*
X37067754Y-30576751D01*
X37067475Y-30574099D01*
X37067754Y-30572575D01*
X37067754Y-30570252D01*
X37068179Y-30570252D01*
X37080040Y-30505371D01*
X37127769Y-30454345D01*
X37151792Y-30443427D01*
X37251298Y-30410454D01*
X37251311Y-30410448D01*
X37398025Y-30319953D01*
X37398299Y-30319737D01*
X37398522Y-30319646D01*
X37404185Y-30316154D01*
X37404781Y-30317120D01*
X37463091Y-30293588D01*
X37531735Y-30306619D01*
X37582436Y-30354693D01*
X37599099Y-30422547D01*
X37596841Y-30441181D01*
X37589836Y-30476402D01*
X37586879Y-30488207D01*
X37574309Y-30529646D01*
X37574307Y-30529653D01*
X37570062Y-30572748D01*
X37568277Y-30584776D01*
X37559832Y-30627238D01*
X37559832Y-30670538D01*
X37559235Y-30682691D01*
X37554991Y-30725783D01*
X37559235Y-30768874D01*
X37559832Y-30781028D01*
X37559832Y-30824327D01*
X37568277Y-30866789D01*
X37570062Y-30878818D01*
X37574307Y-30921914D01*
X37574309Y-30921921D01*
X37586879Y-30963361D01*
X37589835Y-30975162D01*
X37598279Y-31017613D01*
X37598280Y-31017615D01*
X37598281Y-31017620D01*
X37614855Y-31057634D01*
X37618947Y-31069072D01*
X37631517Y-31110509D01*
X37631519Y-31110514D01*
X37651931Y-31148703D01*
X37657132Y-31159699D01*
X37673701Y-31199698D01*
X37673701Y-31199699D01*
X37697754Y-31235697D01*
X37704008Y-31246131D01*
X37706076Y-31250000D01*
X37724424Y-31284325D01*
X37751889Y-31317791D01*
X37759138Y-31327565D01*
X37783192Y-31363564D01*
X37783195Y-31363568D01*
X37813806Y-31394178D01*
X37821978Y-31403194D01*
X37847190Y-31433915D01*
X37849450Y-31436668D01*
X37882919Y-31464135D01*
X37891936Y-31472308D01*
X38387647Y-31968019D01*
X38387676Y-31968050D01*
X38530129Y-32110503D01*
X38656436Y-32194898D01*
X38693998Y-32219996D01*
X38797820Y-32263000D01*
X38876076Y-32295415D01*
X38972724Y-32314639D01*
X39021047Y-32324251D01*
X39069370Y-32333864D01*
X39069371Y-32333864D01*
X39069372Y-32333864D01*
X39266452Y-32333864D01*
X39951854Y-32333864D01*
X40018893Y-32353549D01*
X40064648Y-32406353D01*
X40074592Y-32475511D01*
X40045567Y-32539067D01*
X40039535Y-32545545D01*
X39158899Y-33426181D01*
X39097576Y-33459666D01*
X39071218Y-33462500D01*
X33612231Y-33462500D01*
X33545192Y-33442815D01*
X33524550Y-33426181D01*
X33515421Y-33417052D01*
X33515414Y-33417046D01*
X33428875Y-33359223D01*
X33428776Y-33359158D01*
X33392495Y-33334916D01*
X33392494Y-33334915D01*
X33392492Y-33334914D01*
X33255917Y-33278343D01*
X33255907Y-33278340D01*
X33110920Y-33249500D01*
X33110918Y-33249500D01*
X32882052Y-33249500D01*
X32815013Y-33229815D01*
X32794371Y-33213181D01*
X32760851Y-33179661D01*
X32760850Y-33179660D01*
X32651556Y-33112247D01*
X32614018Y-33089093D01*
X32614013Y-33089091D01*
X32609972Y-33087752D01*
X32450253Y-33034826D01*
X32450251Y-33034825D01*
X32349178Y-33024500D01*
X31650830Y-33024500D01*
X31650812Y-33024501D01*
X31549747Y-33034825D01*
X31385984Y-33089092D01*
X31385981Y-33089093D01*
X31239148Y-33179661D01*
X31224825Y-33193984D01*
X31163501Y-33227468D01*
X31093809Y-33222482D01*
X31049465Y-33193982D01*
X31035538Y-33180055D01*
X31035534Y-33180052D01*
X30888811Y-33089551D01*
X30888800Y-33089546D01*
X30725152Y-33035319D01*
X30624154Y-33025000D01*
X30525000Y-33025000D01*
X30525000Y-34974999D01*
X30624140Y-34974999D01*
X30624154Y-34974998D01*
X30725152Y-34964680D01*
X30888800Y-34910453D01*
X30888811Y-34910448D01*
X31035535Y-34819947D01*
X31049460Y-34806021D01*
X31110782Y-34772533D01*
X31180473Y-34777514D01*
X31224827Y-34806017D01*
X31239150Y-34820340D01*
X31354921Y-34891748D01*
X31401644Y-34943695D01*
X31412867Y-35012658D01*
X31385023Y-35076740D01*
X31326954Y-35115596D01*
X31315604Y-35118576D01*
X31220197Y-35138855D01*
X31220192Y-35138857D01*
X31047270Y-35215848D01*
X31047265Y-35215851D01*
X30894129Y-35327111D01*
X30767466Y-35467785D01*
X30672821Y-35631715D01*
X30672818Y-35631722D01*
X30614327Y-35811740D01*
X30614326Y-35811744D01*
X30594540Y-36000000D01*
X30614326Y-36188256D01*
X30614327Y-36188259D01*
X30672818Y-36368277D01*
X30672821Y-36368284D01*
X30767467Y-36532216D01*
X30870687Y-36646853D01*
X30894129Y-36672888D01*
X31044505Y-36782143D01*
X31087171Y-36837473D01*
X31093150Y-36907086D01*
X31060544Y-36968881D01*
X31059301Y-36970142D01*
X29967270Y-38062173D01*
X29905947Y-38095658D01*
X29836255Y-38090674D01*
X29780322Y-38048802D01*
X29772202Y-38036492D01*
X29744471Y-37988462D01*
X29732533Y-37967784D01*
X29605871Y-37827112D01*
X29588456Y-37814459D01*
X29452734Y-37715851D01*
X29452729Y-37715848D01*
X29279807Y-37638857D01*
X29279802Y-37638855D01*
X29134001Y-37607865D01*
X29094646Y-37599500D01*
X28905354Y-37599500D01*
X28872897Y-37606398D01*
X28720197Y-37638855D01*
X28720192Y-37638857D01*
X28547270Y-37715848D01*
X28547265Y-37715851D01*
X28394129Y-37827111D01*
X28267466Y-37967785D01*
X28172821Y-38131715D01*
X28172818Y-38131722D01*
X28118437Y-38299091D01*
X28114326Y-38311744D01*
X28094540Y-38500000D01*
X28114326Y-38688256D01*
X28114327Y-38688259D01*
X28172818Y-38868277D01*
X28172821Y-38868284D01*
X28267467Y-39032216D01*
X28377822Y-39154777D01*
X28394129Y-39172888D01*
X28544505Y-39282143D01*
X28587171Y-39337473D01*
X28593150Y-39407086D01*
X28560544Y-39468881D01*
X28559301Y-39470142D01*
X28209863Y-39819581D01*
X28148540Y-39853066D01*
X28078849Y-39848082D01*
X28034501Y-39819581D01*
X27036819Y-38821899D01*
X27003334Y-38760576D01*
X27000500Y-38734218D01*
X27000500Y-34286654D01*
X29237501Y-34286654D01*
X29247819Y-34387652D01*
X29302046Y-34551300D01*
X29302051Y-34551311D01*
X29392552Y-34698034D01*
X29392555Y-34698038D01*
X29514461Y-34819944D01*
X29514465Y-34819947D01*
X29661188Y-34910448D01*
X29661199Y-34910453D01*
X29824847Y-34964680D01*
X29925851Y-34974999D01*
X30025000Y-34974998D01*
X30025000Y-34250000D01*
X29237501Y-34250000D01*
X29237501Y-34286654D01*
X27000500Y-34286654D01*
X27000500Y-33713345D01*
X29237500Y-33713345D01*
X29237500Y-33750000D01*
X30025000Y-33750000D01*
X30025000Y-33024999D01*
X29925860Y-33025000D01*
X29925844Y-33025001D01*
X29824847Y-33035319D01*
X29661199Y-33089546D01*
X29661188Y-33089551D01*
X29514465Y-33180052D01*
X29514461Y-33180055D01*
X29392555Y-33301961D01*
X29392552Y-33301965D01*
X29302051Y-33448688D01*
X29302046Y-33448699D01*
X29247819Y-33612347D01*
X29237500Y-33713345D01*
X27000500Y-33713345D01*
X27000500Y-32873494D01*
X26981275Y-32776850D01*
X26981275Y-32776849D01*
X26962051Y-32680201D01*
X26924312Y-32589092D01*
X26903591Y-32539067D01*
X26886635Y-32498130D01*
X26886634Y-32498129D01*
X26886632Y-32498123D01*
X26886628Y-32498117D01*
X26777139Y-32334254D01*
X26762539Y-32319654D01*
X26729054Y-32258331D01*
X26734038Y-32188639D01*
X26775910Y-32132706D01*
X26841374Y-32108289D01*
X26850220Y-32107973D01*
X30568201Y-32107973D01*
X30699424Y-32081870D01*
X30713194Y-32079131D01*
X30781485Y-32050844D01*
X30849772Y-32022559D01*
X30849773Y-32022558D01*
X30849776Y-32022557D01*
X30920202Y-31975500D01*
X30939332Y-31962717D01*
X30996067Y-31942416D01*
X31101918Y-31931992D01*
X31290513Y-31874782D01*
X31357427Y-31839016D01*
X31393108Y-31819944D01*
X31464324Y-31781878D01*
X31616669Y-31656851D01*
X31741696Y-31504506D01*
X31827869Y-31343288D01*
X31834597Y-31330701D01*
X31834597Y-31330700D01*
X31834600Y-31330695D01*
X31891810Y-31142100D01*
X31904660Y-31011615D01*
X31924963Y-30954878D01*
X31940084Y-30932249D01*
X31996658Y-30795667D01*
X32000660Y-30775547D01*
X32025500Y-30650672D01*
X32025500Y-30405345D01*
X32045185Y-30338306D01*
X32097989Y-30292551D01*
X32167147Y-30282607D01*
X32230703Y-30311632D01*
X32237181Y-30317664D01*
X32239461Y-30319944D01*
X32239465Y-30319947D01*
X32386188Y-30410448D01*
X32386199Y-30410453D01*
X32549847Y-30464680D01*
X32650851Y-30474999D01*
X33250000Y-30474999D01*
X33349140Y-30474999D01*
X33349154Y-30474998D01*
X33450152Y-30464680D01*
X33613800Y-30410453D01*
X33613811Y-30410448D01*
X33760534Y-30319947D01*
X33760538Y-30319944D01*
X33882444Y-30198038D01*
X33882447Y-30198034D01*
X33972948Y-30051311D01*
X33972953Y-30051300D01*
X34027180Y-29887652D01*
X34037499Y-29786654D01*
X34037500Y-29786641D01*
X34037500Y-29750000D01*
X33250000Y-29750000D01*
X33250000Y-30474999D01*
X32650851Y-30474999D01*
X32750000Y-30474998D01*
X32750000Y-29250000D01*
X33250000Y-29250000D01*
X34037499Y-29250000D01*
X34037499Y-29213360D01*
X34037498Y-29213345D01*
X35600000Y-29213345D01*
X35600000Y-29250000D01*
X36387500Y-29250000D01*
X36387500Y-28524999D01*
X36288360Y-28525000D01*
X36288344Y-28525001D01*
X36187347Y-28535319D01*
X36023699Y-28589546D01*
X36023688Y-28589551D01*
X35876965Y-28680052D01*
X35876961Y-28680055D01*
X35755055Y-28801961D01*
X35755052Y-28801965D01*
X35664551Y-28948688D01*
X35664546Y-28948699D01*
X35610319Y-29112347D01*
X35600000Y-29213345D01*
X34037498Y-29213345D01*
X34027180Y-29112347D01*
X33972953Y-28948699D01*
X33972948Y-28948688D01*
X33882447Y-28801965D01*
X33882444Y-28801961D01*
X33760538Y-28680055D01*
X33760534Y-28680052D01*
X33613811Y-28589551D01*
X33613800Y-28589546D01*
X33450152Y-28535319D01*
X33349154Y-28525000D01*
X33250000Y-28525000D01*
X33250000Y-29250000D01*
X32750000Y-29250000D01*
X32750000Y-28524999D01*
X32650860Y-28525000D01*
X32650844Y-28525001D01*
X32549847Y-28535319D01*
X32386199Y-28589546D01*
X32386188Y-28589551D01*
X32239465Y-28680052D01*
X32225532Y-28693985D01*
X32164208Y-28727468D01*
X32094516Y-28722482D01*
X32050172Y-28693982D01*
X32035851Y-28679661D01*
X32035850Y-28679660D01*
X31935157Y-28617552D01*
X31889018Y-28589093D01*
X31889013Y-28589091D01*
X31887569Y-28588612D01*
X31725253Y-28534826D01*
X31725251Y-28534825D01*
X31624178Y-28524500D01*
X30925830Y-28524500D01*
X30925812Y-28524501D01*
X30824747Y-28534825D01*
X30660984Y-28589092D01*
X30660981Y-28589093D01*
X30514148Y-28679661D01*
X30392161Y-28801648D01*
X30301593Y-28948481D01*
X30301591Y-28948486D01*
X30278294Y-29018793D01*
X30247326Y-29112247D01*
X30247326Y-29112248D01*
X30247325Y-29112248D01*
X30237000Y-29213315D01*
X30237000Y-29786669D01*
X30237001Y-29786687D01*
X30247325Y-29887752D01*
X30256157Y-29914403D01*
X30299819Y-30046165D01*
X30302221Y-30115992D01*
X30266490Y-30176034D01*
X30260780Y-30181020D01*
X30194898Y-30235089D01*
X30069876Y-30387428D01*
X30069872Y-30387435D01*
X29987563Y-30541426D01*
X29938601Y-30591270D01*
X29878205Y-30606973D01*
X26539262Y-30606973D01*
X26472223Y-30587288D01*
X26426468Y-30534484D01*
X26415941Y-30495935D01*
X26415129Y-30488207D01*
X26397368Y-30319217D01*
X26338873Y-30139189D01*
X26244227Y-29975257D01*
X26117565Y-29834585D01*
X26117564Y-29834584D01*
X25964428Y-29723324D01*
X25964423Y-29723321D01*
X25791501Y-29646330D01*
X25791496Y-29646328D01*
X25631152Y-29612247D01*
X25606340Y-29606973D01*
X25417048Y-29606973D01*
X25367069Y-29617596D01*
X25231893Y-29646328D01*
X25074935Y-29716211D01*
X25005685Y-29725495D01*
X24942408Y-29695867D01*
X24905195Y-29636732D01*
X24900499Y-29602935D01*
X24900499Y-29213324D01*
X24898523Y-29193984D01*
X24890174Y-29112247D01*
X24882653Y-29089551D01*
X24835908Y-28948484D01*
X24745340Y-28801650D01*
X24623350Y-28679660D01*
X24522657Y-28617552D01*
X24476518Y-28589093D01*
X24476513Y-28589091D01*
X24475069Y-28588612D01*
X24312753Y-28534826D01*
X24312751Y-28534825D01*
X24211678Y-28524500D01*
X23513330Y-28524500D01*
X23513312Y-28524501D01*
X23412247Y-28534825D01*
X23248484Y-28589092D01*
X23248481Y-28589093D01*
X23101648Y-28679661D01*
X23087325Y-28693984D01*
X23026001Y-28727468D01*
X22956309Y-28722482D01*
X22911965Y-28693982D01*
X22898038Y-28680055D01*
X22898034Y-28680052D01*
X22751311Y-28589551D01*
X22751300Y-28589546D01*
X22587652Y-28535319D01*
X22486654Y-28525000D01*
X22387500Y-28525000D01*
X22387500Y-29626000D01*
X22367815Y-29693039D01*
X22315011Y-29738794D01*
X22263500Y-29750000D01*
X21100001Y-29750000D01*
X21100001Y-29786654D01*
X21110319Y-29887652D01*
X21143421Y-29987546D01*
X21145823Y-30057374D01*
X21110091Y-30117416D01*
X21047571Y-30148609D01*
X21025715Y-30150550D01*
X18569996Y-30150550D01*
X18502957Y-30130865D01*
X18457202Y-30078061D01*
X18447258Y-30008903D01*
X18452290Y-29987547D01*
X18464680Y-29950153D01*
X18474999Y-29849154D01*
X18475000Y-29849141D01*
X18475000Y-29750000D01*
X16525001Y-29750000D01*
X16525001Y-29849154D01*
X16535319Y-29950152D01*
X16589546Y-30113800D01*
X16589551Y-30113811D01*
X16680052Y-30260534D01*
X16680055Y-30260538D01*
X16693982Y-30274465D01*
X16727467Y-30335788D01*
X16722483Y-30405480D01*
X16693984Y-30449825D01*
X16679661Y-30464148D01*
X16589093Y-30610981D01*
X16589091Y-30610986D01*
X16563486Y-30688256D01*
X16534826Y-30774747D01*
X16534826Y-30774748D01*
X16534825Y-30774748D01*
X16524500Y-30875815D01*
X16524500Y-31362769D01*
X16504815Y-31429808D01*
X16488183Y-31450447D01*
X16476178Y-31462453D01*
X16469223Y-31469408D01*
X16407899Y-31502891D01*
X16393700Y-31505127D01*
X16303870Y-31513975D01*
X16115266Y-31571188D01*
X15941467Y-31664086D01*
X15941460Y-31664090D01*
X15789116Y-31789116D01*
X15664090Y-31941460D01*
X15664086Y-31941467D01*
X15571188Y-32115266D01*
X15513975Y-32303870D01*
X15494659Y-32500000D01*
X15513975Y-32696129D01*
X15513976Y-32696132D01*
X15567778Y-32873494D01*
X15571188Y-32884733D01*
X15664086Y-33058532D01*
X15664090Y-33058539D01*
X15789116Y-33210883D01*
X15941460Y-33335909D01*
X15941467Y-33335913D01*
X15998021Y-33366142D01*
X16047865Y-33415104D01*
X16063326Y-33483241D01*
X16039495Y-33548921D01*
X15983937Y-33591290D01*
X15939568Y-33599500D01*
X15905354Y-33599500D01*
X15872897Y-33606398D01*
X15720197Y-33638855D01*
X15720192Y-33638857D01*
X15547270Y-33715848D01*
X15547265Y-33715851D01*
X15394129Y-33827111D01*
X15267466Y-33967785D01*
X15172821Y-34131715D01*
X15172818Y-34131722D01*
X15115790Y-34307237D01*
X15114326Y-34311744D01*
X15094540Y-34500000D01*
X12000000Y-34500000D01*
X12000000Y-30801939D01*
X12019685Y-30734900D01*
X12072489Y-30689145D01*
X12141647Y-30679201D01*
X12205203Y-30708226D01*
X12236382Y-30749534D01*
X12326399Y-30942578D01*
X12461894Y-31136082D01*
X12628917Y-31303105D01*
X12822421Y-31438600D01*
X13036507Y-31538429D01*
X13036516Y-31538433D01*
X13250000Y-31595634D01*
X13250000Y-30698012D01*
X13307007Y-30730925D01*
X13434174Y-30765000D01*
X13565826Y-30765000D01*
X13692993Y-30730925D01*
X13750000Y-30698012D01*
X13750000Y-31595633D01*
X13963483Y-31538433D01*
X13963492Y-31538429D01*
X14177578Y-31438600D01*
X14371082Y-31303105D01*
X14538105Y-31136082D01*
X14673600Y-30942578D01*
X14773429Y-30728492D01*
X14773432Y-30728486D01*
X14830636Y-30515000D01*
X13933012Y-30515000D01*
X13965925Y-30457993D01*
X14000000Y-30330826D01*
X14000000Y-30199174D01*
X13965925Y-30072007D01*
X13933012Y-30015000D01*
X14830636Y-30015000D01*
X14830635Y-30014999D01*
X14773432Y-29801513D01*
X14773429Y-29801507D01*
X14673600Y-29587422D01*
X14673599Y-29587420D01*
X14538113Y-29393926D01*
X14538108Y-29393920D01*
X14416053Y-29271865D01*
X14382568Y-29210542D01*
X14386837Y-29150845D01*
X16525000Y-29150845D01*
X16525000Y-29250000D01*
X17250000Y-29250000D01*
X17750000Y-29250000D01*
X18474999Y-29250000D01*
X18474999Y-29213345D01*
X21100000Y-29213345D01*
X21100000Y-29250000D01*
X21887500Y-29250000D01*
X21887500Y-28524999D01*
X21788360Y-28525000D01*
X21788344Y-28525001D01*
X21687347Y-28535319D01*
X21523699Y-28589546D01*
X21523688Y-28589551D01*
X21376965Y-28680052D01*
X21376961Y-28680055D01*
X21255055Y-28801961D01*
X21255052Y-28801965D01*
X21164551Y-28948688D01*
X21164546Y-28948699D01*
X21110319Y-29112347D01*
X21100000Y-29213345D01*
X18474999Y-29213345D01*
X18474999Y-29150860D01*
X18474998Y-29150845D01*
X18464680Y-29049847D01*
X18410453Y-28886199D01*
X18410448Y-28886188D01*
X18319947Y-28739465D01*
X18319944Y-28739461D01*
X18198038Y-28617555D01*
X18198034Y-28617552D01*
X18051311Y-28527051D01*
X18051300Y-28527046D01*
X17887652Y-28472819D01*
X17786654Y-28462500D01*
X17750000Y-28462500D01*
X17750000Y-29250000D01*
X17250000Y-29250000D01*
X17250000Y-28462500D01*
X17213361Y-28462500D01*
X17213343Y-28462501D01*
X17112347Y-28472819D01*
X16948699Y-28527046D01*
X16948688Y-28527051D01*
X16801965Y-28617552D01*
X16801961Y-28617555D01*
X16680055Y-28739461D01*
X16680052Y-28739465D01*
X16589551Y-28886188D01*
X16589546Y-28886199D01*
X16535319Y-29049847D01*
X16525000Y-29150845D01*
X14386837Y-29150845D01*
X14387552Y-29140850D01*
X14429424Y-29084917D01*
X14460400Y-29068002D01*
X14592331Y-29018796D01*
X14707546Y-28932546D01*
X14793796Y-28817331D01*
X14844091Y-28682483D01*
X14850500Y-28622873D01*
X14850499Y-26827128D01*
X14844091Y-26767517D01*
X14793796Y-26632669D01*
X14793795Y-26632668D01*
X14793793Y-26632664D01*
X14707548Y-26517457D01*
X14707546Y-26517454D01*
X14707544Y-26517452D01*
X14707542Y-26517450D01*
X14675188Y-26493230D01*
X14633318Y-26437296D01*
X14625500Y-26393964D01*
X14625500Y-22375126D01*
X19201574Y-22375126D01*
X19221360Y-22563382D01*
X19221361Y-22563385D01*
X19279852Y-22743403D01*
X19279855Y-22743410D01*
X19374501Y-22907342D01*
X19417301Y-22954876D01*
X19501163Y-23048014D01*
X19654299Y-23159274D01*
X19654304Y-23159277D01*
X19827226Y-23236268D01*
X19827231Y-23236270D01*
X20012388Y-23275626D01*
X20012389Y-23275626D01*
X20201678Y-23275626D01*
X20201680Y-23275626D01*
X20386837Y-23236270D01*
X20559764Y-23159277D01*
X20712905Y-23048014D01*
X20839567Y-22907342D01*
X20934213Y-22743410D01*
X20992708Y-22563382D01*
X20999370Y-22500000D01*
X27094540Y-22500000D01*
X27114326Y-22688256D01*
X27114327Y-22688259D01*
X27172818Y-22868277D01*
X27172821Y-22868284D01*
X27267467Y-23032216D01*
X27324492Y-23095548D01*
X27394129Y-23172888D01*
X27547265Y-23284148D01*
X27547270Y-23284151D01*
X27720192Y-23361142D01*
X27720197Y-23361144D01*
X27905354Y-23400500D01*
X27905355Y-23400500D01*
X28094644Y-23400500D01*
X28094646Y-23400500D01*
X28279803Y-23361144D01*
X28452730Y-23284151D01*
X28605871Y-23172888D01*
X28732533Y-23032216D01*
X28827179Y-22868284D01*
X28885674Y-22688256D01*
X28905460Y-22500000D01*
X35094540Y-22500000D01*
X35114326Y-22688256D01*
X35114327Y-22688259D01*
X35172818Y-22868277D01*
X35172821Y-22868284D01*
X35267467Y-23032216D01*
X35324492Y-23095548D01*
X35394129Y-23172888D01*
X35547265Y-23284148D01*
X35547270Y-23284151D01*
X35720192Y-23361142D01*
X35720197Y-23361144D01*
X35905354Y-23400500D01*
X35905355Y-23400500D01*
X36094644Y-23400500D01*
X36094646Y-23400500D01*
X36279803Y-23361144D01*
X36452730Y-23284151D01*
X36605871Y-23172888D01*
X36732533Y-23032216D01*
X36827179Y-22868284D01*
X36885674Y-22688256D01*
X36905460Y-22500000D01*
X36885674Y-22311744D01*
X36827179Y-22131716D01*
X36732533Y-21967784D01*
X36605871Y-21827112D01*
X36605870Y-21827111D01*
X36452734Y-21715851D01*
X36452729Y-21715848D01*
X36279807Y-21638857D01*
X36279802Y-21638855D01*
X36134001Y-21607865D01*
X36094646Y-21599500D01*
X35905354Y-21599500D01*
X35872897Y-21606398D01*
X35720197Y-21638855D01*
X35720192Y-21638857D01*
X35547270Y-21715848D01*
X35547265Y-21715851D01*
X35394129Y-21827111D01*
X35267466Y-21967785D01*
X35172821Y-22131715D01*
X35172818Y-22131722D01*
X35114327Y-22311740D01*
X35114326Y-22311744D01*
X35094540Y-22500000D01*
X28905460Y-22500000D01*
X28885674Y-22311744D01*
X28827179Y-22131716D01*
X28732533Y-21967784D01*
X28605871Y-21827112D01*
X28605870Y-21827111D01*
X28452734Y-21715851D01*
X28452729Y-21715848D01*
X28279807Y-21638857D01*
X28279802Y-21638855D01*
X28134001Y-21607865D01*
X28094646Y-21599500D01*
X27905354Y-21599500D01*
X27872897Y-21606398D01*
X27720197Y-21638855D01*
X27720192Y-21638857D01*
X27547270Y-21715848D01*
X27547265Y-21715851D01*
X27394129Y-21827111D01*
X27267466Y-21967785D01*
X27172821Y-22131715D01*
X27172818Y-22131722D01*
X27114327Y-22311740D01*
X27114326Y-22311744D01*
X27094540Y-22500000D01*
X20999370Y-22500000D01*
X21012494Y-22375126D01*
X20992708Y-22186870D01*
X20934213Y-22006842D01*
X20839567Y-21842910D01*
X20712905Y-21702238D01*
X20686096Y-21682760D01*
X20559768Y-21590977D01*
X20559763Y-21590974D01*
X20386841Y-21513983D01*
X20386836Y-21513981D01*
X20241035Y-21482991D01*
X20201680Y-21474626D01*
X20012388Y-21474626D01*
X19979931Y-21481524D01*
X19827231Y-21513981D01*
X19827226Y-21513983D01*
X19654304Y-21590974D01*
X19654299Y-21590977D01*
X19501163Y-21702237D01*
X19374500Y-21842911D01*
X19279855Y-22006841D01*
X19279852Y-22006848D01*
X19223378Y-22180658D01*
X19221360Y-22186870D01*
X19201574Y-22375126D01*
X14625500Y-22375126D01*
X14625500Y-21249500D01*
X14645185Y-21182461D01*
X14697989Y-21136706D01*
X14749500Y-21125500D01*
X22411421Y-21125500D01*
X42544320Y-21125500D01*
X42611359Y-21145185D01*
X42657114Y-21197989D01*
X42667058Y-21267147D01*
X42651707Y-21311500D01*
X42571109Y-21451099D01*
X42571106Y-21451106D01*
X42512615Y-21631124D01*
X42512614Y-21631128D01*
X42492828Y-21819384D01*
X42512614Y-22007640D01*
X42512615Y-22007643D01*
X42571106Y-22187661D01*
X42571109Y-22187668D01*
X42665755Y-22351600D01*
X42729738Y-22422660D01*
X42792417Y-22492272D01*
X42945553Y-22603532D01*
X42945558Y-22603535D01*
X43118480Y-22680526D01*
X43118485Y-22680528D01*
X43303642Y-22719884D01*
X43303643Y-22719884D01*
X43492932Y-22719884D01*
X43492934Y-22719884D01*
X43678091Y-22680528D01*
X43851018Y-22603535D01*
X44004159Y-22492272D01*
X44130821Y-22351600D01*
X44159277Y-22302312D01*
X50364967Y-22302312D01*
X50384753Y-22490568D01*
X50384754Y-22490571D01*
X50443245Y-22670589D01*
X50443248Y-22670596D01*
X50537894Y-22834528D01*
X50607819Y-22912187D01*
X50664556Y-22975200D01*
X50817692Y-23086460D01*
X50817697Y-23086463D01*
X50990619Y-23163454D01*
X50990624Y-23163456D01*
X51175781Y-23202812D01*
X51175782Y-23202812D01*
X51365071Y-23202812D01*
X51365073Y-23202812D01*
X51550230Y-23163456D01*
X51723157Y-23086463D01*
X51876298Y-22975200D01*
X52002960Y-22834528D01*
X52097606Y-22670596D01*
X52156101Y-22490568D01*
X52163238Y-22422660D01*
X58147302Y-22422660D01*
X58167088Y-22610916D01*
X58167089Y-22610919D01*
X58225580Y-22790937D01*
X58225583Y-22790944D01*
X58320229Y-22954876D01*
X58404091Y-23048014D01*
X58446891Y-23095548D01*
X58600027Y-23206808D01*
X58600032Y-23206811D01*
X58772954Y-23283802D01*
X58772959Y-23283804D01*
X58958116Y-23323160D01*
X58958117Y-23323160D01*
X59147406Y-23323160D01*
X59147408Y-23323160D01*
X59332565Y-23283804D01*
X59505492Y-23206811D01*
X59658633Y-23095548D01*
X59785295Y-22954876D01*
X59879941Y-22790944D01*
X59905308Y-22712873D01*
X65652407Y-22712873D01*
X65672193Y-22901129D01*
X65672194Y-22901132D01*
X65730685Y-23081150D01*
X65730688Y-23081157D01*
X65825334Y-23245089D01*
X65929829Y-23361142D01*
X65951996Y-23385761D01*
X66105132Y-23497021D01*
X66105137Y-23497024D01*
X66278059Y-23574015D01*
X66278064Y-23574017D01*
X66463221Y-23613373D01*
X66463222Y-23613373D01*
X66652511Y-23613373D01*
X66652513Y-23613373D01*
X66837670Y-23574017D01*
X67010597Y-23497024D01*
X67163738Y-23385761D01*
X67290400Y-23245089D01*
X67385046Y-23081157D01*
X67443541Y-22901129D01*
X67463327Y-22712873D01*
X67445568Y-22543903D01*
X73138443Y-22543903D01*
X73158229Y-22732159D01*
X73158230Y-22732162D01*
X73216721Y-22912180D01*
X73216724Y-22912187D01*
X73311370Y-23076119D01*
X73425445Y-23202812D01*
X73438032Y-23216791D01*
X73591168Y-23328051D01*
X73591173Y-23328054D01*
X73764095Y-23405045D01*
X73764100Y-23405047D01*
X73949257Y-23444403D01*
X73949258Y-23444403D01*
X74138547Y-23444403D01*
X74138549Y-23444403D01*
X74323706Y-23405047D01*
X74496633Y-23328054D01*
X74649774Y-23216791D01*
X74776436Y-23076119D01*
X74871082Y-22912187D01*
X74929577Y-22732159D01*
X74949363Y-22543903D01*
X74929577Y-22355647D01*
X74871082Y-22175619D01*
X74776436Y-22011687D01*
X74649774Y-21871015D01*
X74649773Y-21871014D01*
X74496637Y-21759754D01*
X74496632Y-21759751D01*
X74323710Y-21682760D01*
X74323705Y-21682758D01*
X74177904Y-21651768D01*
X74138549Y-21643403D01*
X73949257Y-21643403D01*
X73916800Y-21650301D01*
X73764100Y-21682758D01*
X73764095Y-21682760D01*
X73591173Y-21759751D01*
X73591168Y-21759754D01*
X73438032Y-21871014D01*
X73311369Y-22011688D01*
X73216724Y-22175618D01*
X73216721Y-22175625D01*
X73159544Y-22351600D01*
X73158229Y-22355647D01*
X73138443Y-22543903D01*
X67445568Y-22543903D01*
X67443541Y-22524617D01*
X67385046Y-22344589D01*
X67290400Y-22180657D01*
X67163738Y-22039985D01*
X67163737Y-22039984D01*
X67010601Y-21928724D01*
X67010596Y-21928721D01*
X66837674Y-21851730D01*
X66837669Y-21851728D01*
X66685497Y-21819384D01*
X66652513Y-21812373D01*
X66463221Y-21812373D01*
X66430764Y-21819271D01*
X66278064Y-21851728D01*
X66278059Y-21851730D01*
X66105137Y-21928721D01*
X66105132Y-21928724D01*
X65951996Y-22039984D01*
X65825333Y-22180658D01*
X65730688Y-22344588D01*
X65730685Y-22344595D01*
X65672194Y-22524613D01*
X65672193Y-22524617D01*
X65652407Y-22712873D01*
X59905308Y-22712873D01*
X59938436Y-22610916D01*
X59958222Y-22422660D01*
X59938436Y-22234404D01*
X59879941Y-22054376D01*
X59785295Y-21890444D01*
X59658633Y-21749772D01*
X59611942Y-21715849D01*
X59505496Y-21638511D01*
X59505491Y-21638508D01*
X59332569Y-21561517D01*
X59332564Y-21561515D01*
X59186763Y-21530525D01*
X59147408Y-21522160D01*
X58958116Y-21522160D01*
X58925659Y-21529058D01*
X58772959Y-21561515D01*
X58772954Y-21561517D01*
X58600032Y-21638508D01*
X58600027Y-21638511D01*
X58446891Y-21749771D01*
X58320228Y-21890445D01*
X58225583Y-22054375D01*
X58225580Y-22054382D01*
X58167089Y-22234400D01*
X58167088Y-22234404D01*
X58147302Y-22422660D01*
X52163238Y-22422660D01*
X52175887Y-22302312D01*
X52156101Y-22114056D01*
X52097606Y-21934028D01*
X52002960Y-21770096D01*
X51876298Y-21629424D01*
X51876297Y-21629423D01*
X51723161Y-21518163D01*
X51723156Y-21518160D01*
X51550234Y-21441169D01*
X51550229Y-21441167D01*
X51404428Y-21410177D01*
X51365073Y-21401812D01*
X51175781Y-21401812D01*
X51143324Y-21408710D01*
X50990624Y-21441167D01*
X50990619Y-21441169D01*
X50817697Y-21518160D01*
X50817692Y-21518163D01*
X50664556Y-21629423D01*
X50537893Y-21770097D01*
X50443248Y-21934027D01*
X50443245Y-21934034D01*
X50404144Y-22054376D01*
X50384753Y-22114056D01*
X50364967Y-22302312D01*
X44159277Y-22302312D01*
X44225467Y-22187668D01*
X44283962Y-22007640D01*
X44303748Y-21819384D01*
X44283962Y-21631128D01*
X44225467Y-21451100D01*
X44144868Y-21311499D01*
X44128396Y-21243600D01*
X44151249Y-21177573D01*
X44206170Y-21134382D01*
X44252256Y-21125500D01*
X70088578Y-21125500D01*
X70088579Y-21125500D01*
X70263555Y-21097786D01*
X70432042Y-21043042D01*
X70589890Y-20962614D01*
X70733214Y-20858483D01*
X70858483Y-20733214D01*
X70962614Y-20589890D01*
X71043042Y-20432042D01*
X71097786Y-20263555D01*
X71125500Y-20088579D01*
X71125500Y-19911421D01*
X71097786Y-19736445D01*
X71043042Y-19567958D01*
X71043042Y-19567957D01*
X71015190Y-19513295D01*
X70962614Y-19410110D01*
X70927037Y-19361142D01*
X70884727Y-19302907D01*
X70861247Y-19237101D01*
X70877072Y-19169047D01*
X70879507Y-19164924D01*
X70910904Y-19114022D01*
X70910908Y-19114016D01*
X70965174Y-18950253D01*
X70965175Y-18950240D01*
X70966592Y-18943629D01*
X70969585Y-18944269D01*
X70990795Y-18892039D01*
X71047909Y-18851793D01*
X71117715Y-18848813D01*
X71178051Y-18884047D01*
X71195272Y-18907171D01*
X71267467Y-19032216D01*
X71386958Y-19164924D01*
X71394129Y-19172888D01*
X71547265Y-19284148D01*
X71547270Y-19284151D01*
X71720192Y-19361142D01*
X71720197Y-19361144D01*
X71905354Y-19400500D01*
X71905355Y-19400500D01*
X72094644Y-19400500D01*
X72094646Y-19400500D01*
X72279803Y-19361144D01*
X72452730Y-19284151D01*
X72605871Y-19172888D01*
X72732533Y-19032216D01*
X72827179Y-18868284D01*
X72885674Y-18688256D01*
X72905460Y-18500000D01*
X72885674Y-18311744D01*
X72827179Y-18131716D01*
X72732533Y-17967784D01*
X72605871Y-17827112D01*
X72605870Y-17827111D01*
X72452734Y-17715851D01*
X72452729Y-17715848D01*
X72279807Y-17638857D01*
X72279802Y-17638855D01*
X72134001Y-17607865D01*
X72094646Y-17599500D01*
X71905354Y-17599500D01*
X71872897Y-17606398D01*
X71720197Y-17638855D01*
X71720192Y-17638857D01*
X71547270Y-17715848D01*
X71547265Y-17715851D01*
X71394129Y-17827111D01*
X71267465Y-17967785D01*
X71195273Y-18092827D01*
X71144706Y-18141043D01*
X71076099Y-18154266D01*
X71011234Y-18128298D01*
X70970706Y-18071383D01*
X70967359Y-18056198D01*
X70966590Y-18056363D01*
X70965174Y-18049747D01*
X70954134Y-18016432D01*
X70910908Y-17885984D01*
X70820340Y-17739150D01*
X70806017Y-17724827D01*
X70772532Y-17663504D01*
X70777516Y-17593812D01*
X70806021Y-17549460D01*
X70819947Y-17535535D01*
X70910448Y-17388811D01*
X70910453Y-17388800D01*
X70964680Y-17225152D01*
X70974999Y-17124154D01*
X70975000Y-17124141D01*
X70975000Y-17025000D01*
X69025001Y-17025000D01*
X69025001Y-17124154D01*
X69035319Y-17225152D01*
X69089546Y-17388800D01*
X69089551Y-17388811D01*
X69180052Y-17535534D01*
X69180055Y-17535538D01*
X69193982Y-17549465D01*
X69227467Y-17610788D01*
X69222483Y-17680480D01*
X69193984Y-17724825D01*
X69179661Y-17739148D01*
X69089093Y-17885981D01*
X69089092Y-17885984D01*
X69034826Y-18049747D01*
X69034826Y-18049748D01*
X69034825Y-18049748D01*
X69024500Y-18150815D01*
X69024500Y-18150828D01*
X69024501Y-18750500D01*
X69004817Y-18817539D01*
X68952013Y-18863294D01*
X68900501Y-18874500D01*
X64995831Y-18874500D01*
X64928792Y-18854815D01*
X64883037Y-18802011D01*
X64873093Y-18732853D01*
X64877900Y-18712182D01*
X64878436Y-18710529D01*
X64885674Y-18688256D01*
X64905460Y-18500000D01*
X64885674Y-18311744D01*
X64827179Y-18131716D01*
X64732533Y-17967784D01*
X64605871Y-17827112D01*
X64605870Y-17827111D01*
X64452734Y-17715851D01*
X64452729Y-17715848D01*
X64279807Y-17638857D01*
X64279802Y-17638855D01*
X64134001Y-17607865D01*
X64094646Y-17599500D01*
X63905354Y-17599500D01*
X63872897Y-17606398D01*
X63720197Y-17638855D01*
X63720192Y-17638857D01*
X63547270Y-17715848D01*
X63547265Y-17715851D01*
X63394129Y-17827111D01*
X63267465Y-17967785D01*
X63206886Y-18072713D01*
X63156319Y-18120929D01*
X63087712Y-18134152D01*
X63022847Y-18108184D01*
X62982319Y-18051270D01*
X62976460Y-18016432D01*
X62975659Y-18016473D01*
X62975498Y-18013312D01*
X62965174Y-17912247D01*
X62956470Y-17885981D01*
X62910908Y-17748484D01*
X62820340Y-17601650D01*
X62806017Y-17587327D01*
X62772532Y-17526004D01*
X62777516Y-17456312D01*
X62806021Y-17411960D01*
X62819947Y-17398035D01*
X62910448Y-17251311D01*
X62910453Y-17251300D01*
X62964680Y-17087652D01*
X62974999Y-16986654D01*
X62975000Y-16986641D01*
X62975000Y-16887500D01*
X61025001Y-16887500D01*
X61025001Y-16986654D01*
X61035319Y-17087652D01*
X61089546Y-17251300D01*
X61089551Y-17251311D01*
X61180052Y-17398034D01*
X61180055Y-17398038D01*
X61193982Y-17411965D01*
X61227467Y-17473288D01*
X61222483Y-17542980D01*
X61193984Y-17587325D01*
X61179661Y-17601648D01*
X61089093Y-17748481D01*
X61089092Y-17748484D01*
X61034826Y-17912247D01*
X61034826Y-17912248D01*
X61034825Y-17912248D01*
X61024500Y-18013315D01*
X61024500Y-18711669D01*
X61024502Y-18711692D01*
X61027179Y-18737901D01*
X61014408Y-18806593D01*
X60966527Y-18857477D01*
X60903821Y-18874500D01*
X56995831Y-18874500D01*
X56928792Y-18854815D01*
X56883037Y-18802011D01*
X56873093Y-18732853D01*
X56877900Y-18712182D01*
X56878436Y-18710529D01*
X56885674Y-18688256D01*
X56905460Y-18500000D01*
X56885674Y-18311744D01*
X56827179Y-18131716D01*
X56732533Y-17967784D01*
X56605871Y-17827112D01*
X56605870Y-17827111D01*
X56452734Y-17715851D01*
X56452729Y-17715848D01*
X56279807Y-17638857D01*
X56279802Y-17638855D01*
X56134001Y-17607865D01*
X56094646Y-17599500D01*
X55905354Y-17599500D01*
X55872897Y-17606398D01*
X55720197Y-17638855D01*
X55720192Y-17638857D01*
X55547270Y-17715848D01*
X55547265Y-17715851D01*
X55394129Y-17827111D01*
X55267465Y-17967785D01*
X55206886Y-18072713D01*
X55156319Y-18120929D01*
X55087712Y-18134152D01*
X55022847Y-18108184D01*
X54982319Y-18051270D01*
X54976460Y-18016432D01*
X54975659Y-18016473D01*
X54975498Y-18013312D01*
X54965174Y-17912247D01*
X54956470Y-17885981D01*
X54910908Y-17748484D01*
X54820340Y-17601650D01*
X54806017Y-17587327D01*
X54772532Y-17526004D01*
X54777516Y-17456312D01*
X54806021Y-17411960D01*
X54819947Y-17398035D01*
X54910448Y-17251311D01*
X54910453Y-17251300D01*
X54964680Y-17087652D01*
X54974999Y-16986654D01*
X54975000Y-16986641D01*
X54975000Y-16887500D01*
X53025001Y-16887500D01*
X53025001Y-16986654D01*
X53035319Y-17087652D01*
X53089546Y-17251300D01*
X53089551Y-17251311D01*
X53180052Y-17398034D01*
X53180055Y-17398038D01*
X53193982Y-17411965D01*
X53227467Y-17473288D01*
X53222483Y-17542980D01*
X53193984Y-17587325D01*
X53179661Y-17601648D01*
X53089093Y-17748481D01*
X53089092Y-17748484D01*
X53034826Y-17912247D01*
X53034826Y-17912248D01*
X53034825Y-17912248D01*
X53024500Y-18013315D01*
X53024500Y-18711669D01*
X53024502Y-18711692D01*
X53027179Y-18737901D01*
X53014408Y-18806593D01*
X52966527Y-18857477D01*
X52903821Y-18874500D01*
X48995831Y-18874500D01*
X48928792Y-18854815D01*
X48883037Y-18802011D01*
X48873093Y-18732853D01*
X48877900Y-18712182D01*
X48878436Y-18710529D01*
X48885674Y-18688256D01*
X48905460Y-18500000D01*
X48885674Y-18311744D01*
X48827179Y-18131716D01*
X48732533Y-17967784D01*
X48605871Y-17827112D01*
X48605870Y-17827111D01*
X48452734Y-17715851D01*
X48452729Y-17715848D01*
X48279807Y-17638857D01*
X48279802Y-17638855D01*
X48134001Y-17607865D01*
X48094646Y-17599500D01*
X47905354Y-17599500D01*
X47872897Y-17606398D01*
X47720197Y-17638855D01*
X47720192Y-17638857D01*
X47547270Y-17715848D01*
X47547265Y-17715851D01*
X47394129Y-17827111D01*
X47267465Y-17967785D01*
X47206886Y-18072713D01*
X47156319Y-18120929D01*
X47087712Y-18134152D01*
X47022847Y-18108184D01*
X46982319Y-18051270D01*
X46976460Y-18016432D01*
X46975659Y-18016473D01*
X46975498Y-18013312D01*
X46965174Y-17912247D01*
X46956470Y-17885981D01*
X46910908Y-17748484D01*
X46820340Y-17601650D01*
X46806017Y-17587327D01*
X46772532Y-17526004D01*
X46777516Y-17456312D01*
X46806021Y-17411960D01*
X46819947Y-17398035D01*
X46910448Y-17251311D01*
X46910453Y-17251300D01*
X46964680Y-17087652D01*
X46974999Y-16986654D01*
X46975000Y-16986641D01*
X46975000Y-16887500D01*
X45025001Y-16887500D01*
X45025001Y-16986654D01*
X45035319Y-17087652D01*
X45089546Y-17251300D01*
X45089551Y-17251311D01*
X45180052Y-17398034D01*
X45180055Y-17398038D01*
X45193982Y-17411965D01*
X45227467Y-17473288D01*
X45222483Y-17542980D01*
X45193984Y-17587325D01*
X45179661Y-17601648D01*
X45089093Y-17748481D01*
X45089092Y-17748484D01*
X45034826Y-17912247D01*
X45034826Y-17912248D01*
X45034825Y-17912248D01*
X45024500Y-18013315D01*
X45024500Y-18711669D01*
X45024502Y-18711692D01*
X45027179Y-18737901D01*
X45014408Y-18806593D01*
X44966527Y-18857477D01*
X44903821Y-18874500D01*
X40995831Y-18874500D01*
X40928792Y-18854815D01*
X40883037Y-18802011D01*
X40873093Y-18732853D01*
X40877900Y-18712182D01*
X40878436Y-18710529D01*
X40885674Y-18688256D01*
X40905460Y-18500000D01*
X40885674Y-18311744D01*
X40827179Y-18131716D01*
X40732533Y-17967784D01*
X40605871Y-17827112D01*
X40605870Y-17827111D01*
X40452734Y-17715851D01*
X40452729Y-17715848D01*
X40279807Y-17638857D01*
X40279802Y-17638855D01*
X40134001Y-17607865D01*
X40094646Y-17599500D01*
X39905354Y-17599500D01*
X39872897Y-17606398D01*
X39720197Y-17638855D01*
X39720192Y-17638857D01*
X39547270Y-17715848D01*
X39547265Y-17715851D01*
X39394129Y-17827111D01*
X39267465Y-17967785D01*
X39206886Y-18072713D01*
X39156319Y-18120929D01*
X39087712Y-18134152D01*
X39022847Y-18108184D01*
X38982319Y-18051270D01*
X38976460Y-18016432D01*
X38975659Y-18016473D01*
X38975498Y-18013312D01*
X38965174Y-17912247D01*
X38956470Y-17885981D01*
X38910908Y-17748484D01*
X38820340Y-17601650D01*
X38806017Y-17587327D01*
X38772532Y-17526004D01*
X38777516Y-17456312D01*
X38806021Y-17411960D01*
X38819947Y-17398035D01*
X38910448Y-17251311D01*
X38910453Y-17251300D01*
X38964680Y-17087652D01*
X38974999Y-16986654D01*
X38975000Y-16986641D01*
X38975000Y-16887500D01*
X37025001Y-16887500D01*
X37025001Y-16986654D01*
X37035319Y-17087652D01*
X37089546Y-17251300D01*
X37089551Y-17251311D01*
X37180052Y-17398034D01*
X37180055Y-17398038D01*
X37193982Y-17411965D01*
X37227467Y-17473288D01*
X37222483Y-17542980D01*
X37193984Y-17587325D01*
X37179661Y-17601648D01*
X37089093Y-17748481D01*
X37089092Y-17748484D01*
X37034826Y-17912247D01*
X37034826Y-17912248D01*
X37034825Y-17912248D01*
X37024500Y-18013315D01*
X37024500Y-18711669D01*
X37024502Y-18711692D01*
X37027179Y-18737901D01*
X37014408Y-18806593D01*
X36966527Y-18857477D01*
X36903821Y-18874500D01*
X32995831Y-18874500D01*
X32928792Y-18854815D01*
X32883037Y-18802011D01*
X32873093Y-18732853D01*
X32877900Y-18712182D01*
X32878436Y-18710529D01*
X32885674Y-18688256D01*
X32905460Y-18500000D01*
X32885674Y-18311744D01*
X32827179Y-18131716D01*
X32732533Y-17967784D01*
X32605871Y-17827112D01*
X32605870Y-17827111D01*
X32452734Y-17715851D01*
X32452729Y-17715848D01*
X32279807Y-17638857D01*
X32279802Y-17638855D01*
X32134001Y-17607865D01*
X32094646Y-17599500D01*
X31905354Y-17599500D01*
X31872897Y-17606398D01*
X31720197Y-17638855D01*
X31720192Y-17638857D01*
X31547270Y-17715848D01*
X31547265Y-17715851D01*
X31394129Y-17827111D01*
X31267465Y-17967785D01*
X31206886Y-18072713D01*
X31156319Y-18120929D01*
X31087712Y-18134152D01*
X31022847Y-18108184D01*
X30982319Y-18051270D01*
X30976460Y-18016432D01*
X30975659Y-18016473D01*
X30975498Y-18013312D01*
X30965174Y-17912247D01*
X30956470Y-17885981D01*
X30910908Y-17748484D01*
X30820340Y-17601650D01*
X30806017Y-17587327D01*
X30772532Y-17526004D01*
X30777516Y-17456312D01*
X30806021Y-17411960D01*
X30819947Y-17398035D01*
X30910448Y-17251311D01*
X30910453Y-17251300D01*
X30964680Y-17087652D01*
X30974999Y-16986654D01*
X30975000Y-16986641D01*
X30975000Y-16887500D01*
X29025001Y-16887500D01*
X29025001Y-16986654D01*
X29035319Y-17087652D01*
X29089546Y-17251300D01*
X29089551Y-17251311D01*
X29180052Y-17398034D01*
X29180055Y-17398038D01*
X29193982Y-17411965D01*
X29227467Y-17473288D01*
X29222483Y-17542980D01*
X29193984Y-17587325D01*
X29179661Y-17601648D01*
X29089093Y-17748481D01*
X29089092Y-17748484D01*
X29034826Y-17912247D01*
X29034826Y-17912248D01*
X29034825Y-17912248D01*
X29024500Y-18013315D01*
X29024500Y-18711669D01*
X29024502Y-18711692D01*
X29027179Y-18737901D01*
X29014408Y-18806593D01*
X28966527Y-18857477D01*
X28903821Y-18874500D01*
X24995831Y-18874500D01*
X24928792Y-18854815D01*
X24883037Y-18802011D01*
X24873093Y-18732853D01*
X24877900Y-18712182D01*
X24878436Y-18710529D01*
X24885674Y-18688256D01*
X24905460Y-18500000D01*
X24885674Y-18311744D01*
X24827179Y-18131716D01*
X24732533Y-17967784D01*
X24605871Y-17827112D01*
X24605870Y-17827111D01*
X24452734Y-17715851D01*
X24452729Y-17715848D01*
X24279807Y-17638857D01*
X24279802Y-17638855D01*
X24134001Y-17607865D01*
X24094646Y-17599500D01*
X23905354Y-17599500D01*
X23872897Y-17606398D01*
X23720197Y-17638855D01*
X23720192Y-17638857D01*
X23547270Y-17715848D01*
X23547265Y-17715851D01*
X23394129Y-17827111D01*
X23267465Y-17967785D01*
X23195273Y-18092827D01*
X23144706Y-18141043D01*
X23076099Y-18154266D01*
X23011234Y-18128298D01*
X22970706Y-18071383D01*
X22967359Y-18056198D01*
X22966590Y-18056363D01*
X22965174Y-18049747D01*
X22954134Y-18016432D01*
X22910908Y-17885984D01*
X22820340Y-17739150D01*
X22806017Y-17724827D01*
X22772532Y-17663504D01*
X22777516Y-17593812D01*
X22806021Y-17549460D01*
X22819947Y-17535535D01*
X22910448Y-17388811D01*
X22910453Y-17388800D01*
X22964680Y-17225152D01*
X22974999Y-17124154D01*
X22975000Y-17124141D01*
X22975000Y-17025000D01*
X21025001Y-17025000D01*
X21025001Y-17124154D01*
X21035319Y-17225152D01*
X21089546Y-17388800D01*
X21089551Y-17388811D01*
X21180052Y-17535534D01*
X21180055Y-17535538D01*
X21193982Y-17549465D01*
X21227467Y-17610788D01*
X21222483Y-17680480D01*
X21193984Y-17724825D01*
X21179661Y-17739148D01*
X21089093Y-17885981D01*
X21089092Y-17885984D01*
X21034826Y-18049747D01*
X21034826Y-18049748D01*
X21034825Y-18049748D01*
X21024500Y-18150815D01*
X21024500Y-18150828D01*
X21024501Y-18750500D01*
X21004817Y-18817539D01*
X20952013Y-18863294D01*
X20900501Y-18874500D01*
X16995831Y-18874500D01*
X16928792Y-18854815D01*
X16883037Y-18802011D01*
X16873093Y-18732853D01*
X16877900Y-18712182D01*
X16878436Y-18710529D01*
X16885674Y-18688256D01*
X16905460Y-18500000D01*
X16885674Y-18311744D01*
X16827179Y-18131716D01*
X16732533Y-17967784D01*
X16605871Y-17827112D01*
X16605870Y-17827111D01*
X16452734Y-17715851D01*
X16452729Y-17715848D01*
X16279807Y-17638857D01*
X16279802Y-17638855D01*
X16134001Y-17607865D01*
X16094646Y-17599500D01*
X15905354Y-17599500D01*
X15872897Y-17606398D01*
X15720197Y-17638855D01*
X15720192Y-17638857D01*
X15547270Y-17715848D01*
X15547265Y-17715851D01*
X15394129Y-17827111D01*
X15267465Y-17967785D01*
X15195273Y-18092827D01*
X15144706Y-18141043D01*
X15076099Y-18154266D01*
X15011234Y-18128298D01*
X14970706Y-18071383D01*
X14967359Y-18056198D01*
X14966590Y-18056363D01*
X14965174Y-18049747D01*
X14954134Y-18016432D01*
X14910908Y-17885984D01*
X14820340Y-17739150D01*
X14806017Y-17724827D01*
X14772532Y-17663504D01*
X14777516Y-17593812D01*
X14806021Y-17549460D01*
X14819947Y-17535535D01*
X14910448Y-17388811D01*
X14910453Y-17388800D01*
X14964680Y-17225152D01*
X14974999Y-17124154D01*
X14975000Y-17124141D01*
X14975000Y-17025000D01*
X13025001Y-17025000D01*
X13025001Y-17124154D01*
X13035319Y-17225152D01*
X13089546Y-17388800D01*
X13089551Y-17388811D01*
X13180052Y-17535534D01*
X13180055Y-17535538D01*
X13193982Y-17549465D01*
X13227467Y-17610788D01*
X13222483Y-17680480D01*
X13193984Y-17724825D01*
X13179661Y-17739148D01*
X13089093Y-17885981D01*
X13089092Y-17885984D01*
X13034826Y-18049747D01*
X13034826Y-18049748D01*
X13034825Y-18049748D01*
X13024500Y-18150815D01*
X13024500Y-18849169D01*
X13024501Y-18849187D01*
X13034825Y-18950252D01*
X13061985Y-19032214D01*
X13089091Y-19114014D01*
X13089092Y-19114015D01*
X13089095Y-19114022D01*
X13115901Y-19157481D01*
X13134341Y-19224873D01*
X13113418Y-19291537D01*
X13098047Y-19310254D01*
X12766786Y-19641517D01*
X12641519Y-19766783D01*
X12641519Y-19766784D01*
X12641517Y-19766786D01*
X12610232Y-19809845D01*
X12537384Y-19910111D01*
X12491586Y-19999998D01*
X12491586Y-19999999D01*
X12456954Y-20067966D01*
X12407911Y-20218910D01*
X12402215Y-20236438D01*
X12402213Y-20236450D01*
X12374500Y-20411421D01*
X12374500Y-26393964D01*
X12354815Y-26461003D01*
X12324812Y-26493230D01*
X12292457Y-26517450D01*
X12292451Y-26517457D01*
X12223266Y-26609876D01*
X12167332Y-26651747D01*
X12097641Y-26656731D01*
X12036318Y-26623245D01*
X12002834Y-26561922D01*
X12000000Y-26535565D01*
X12000000Y-16425845D01*
X13025000Y-16425845D01*
X13025000Y-16525000D01*
X13750000Y-16525000D01*
X14250000Y-16525000D01*
X14974999Y-16525000D01*
X14974999Y-16425860D01*
X14974998Y-16425845D01*
X21025000Y-16425845D01*
X21025000Y-16525000D01*
X21750000Y-16525000D01*
X22250000Y-16525000D01*
X22974999Y-16525000D01*
X22974999Y-16425860D01*
X22974998Y-16425845D01*
X69025000Y-16425845D01*
X69025000Y-16525000D01*
X69750000Y-16525000D01*
X70250000Y-16525000D01*
X70974999Y-16525000D01*
X70974999Y-16425860D01*
X70974998Y-16425845D01*
X70964680Y-16324847D01*
X70910453Y-16161199D01*
X70910448Y-16161188D01*
X70819947Y-16014465D01*
X70819944Y-16014461D01*
X70698038Y-15892555D01*
X70698034Y-15892552D01*
X70551311Y-15802051D01*
X70551300Y-15802046D01*
X70387652Y-15747819D01*
X70286654Y-15737500D01*
X70250000Y-15737500D01*
X70250000Y-16525000D01*
X69750000Y-16525000D01*
X69750000Y-15737500D01*
X69713361Y-15737500D01*
X69713343Y-15737501D01*
X69612347Y-15747819D01*
X69448699Y-15802046D01*
X69448688Y-15802051D01*
X69301965Y-15892552D01*
X69301961Y-15892555D01*
X69180055Y-16014461D01*
X69180052Y-16014465D01*
X69089551Y-16161188D01*
X69089546Y-16161199D01*
X69035319Y-16324847D01*
X69025000Y-16425845D01*
X22974998Y-16425845D01*
X22964680Y-16324847D01*
X22952585Y-16288345D01*
X29025000Y-16288345D01*
X29025000Y-16387500D01*
X29750000Y-16387500D01*
X30250000Y-16387500D01*
X30974999Y-16387500D01*
X30974999Y-16288360D01*
X30974998Y-16288345D01*
X37025000Y-16288345D01*
X37025000Y-16387500D01*
X37750000Y-16387500D01*
X38250000Y-16387500D01*
X38974999Y-16387500D01*
X38974999Y-16288360D01*
X38974998Y-16288345D01*
X45025000Y-16288345D01*
X45025000Y-16387500D01*
X45750000Y-16387500D01*
X46250000Y-16387500D01*
X46974999Y-16387500D01*
X46974999Y-16288360D01*
X46974998Y-16288345D01*
X53025000Y-16288345D01*
X53025000Y-16387500D01*
X53750000Y-16387500D01*
X54250000Y-16387500D01*
X54974999Y-16387500D01*
X54974999Y-16288360D01*
X54974998Y-16288345D01*
X61025000Y-16288345D01*
X61025000Y-16387500D01*
X61750000Y-16387500D01*
X62250000Y-16387500D01*
X62974999Y-16387500D01*
X62974999Y-16288360D01*
X62974998Y-16288345D01*
X62964680Y-16187347D01*
X62910453Y-16023699D01*
X62910448Y-16023688D01*
X62819947Y-15876965D01*
X62819944Y-15876961D01*
X62698038Y-15755055D01*
X62698034Y-15755052D01*
X62551311Y-15664551D01*
X62551300Y-15664546D01*
X62387652Y-15610319D01*
X62286654Y-15600000D01*
X62250000Y-15600000D01*
X62250000Y-16387500D01*
X61750000Y-16387500D01*
X61750000Y-15600000D01*
X61713361Y-15600000D01*
X61713343Y-15600001D01*
X61612347Y-15610319D01*
X61448699Y-15664546D01*
X61448688Y-15664551D01*
X61301965Y-15755052D01*
X61301961Y-15755055D01*
X61180055Y-15876961D01*
X61180052Y-15876965D01*
X61089551Y-16023688D01*
X61089546Y-16023699D01*
X61035319Y-16187347D01*
X61025000Y-16288345D01*
X54974998Y-16288345D01*
X54964680Y-16187347D01*
X54910453Y-16023699D01*
X54910448Y-16023688D01*
X54819947Y-15876965D01*
X54819944Y-15876961D01*
X54698038Y-15755055D01*
X54698034Y-15755052D01*
X54551311Y-15664551D01*
X54551300Y-15664546D01*
X54387652Y-15610319D01*
X54286654Y-15600000D01*
X54250000Y-15600000D01*
X54250000Y-16387500D01*
X53750000Y-16387500D01*
X53750000Y-15600000D01*
X53713361Y-15600000D01*
X53713343Y-15600001D01*
X53612347Y-15610319D01*
X53448699Y-15664546D01*
X53448688Y-15664551D01*
X53301965Y-15755052D01*
X53301961Y-15755055D01*
X53180055Y-15876961D01*
X53180052Y-15876965D01*
X53089551Y-16023688D01*
X53089546Y-16023699D01*
X53035319Y-16187347D01*
X53025000Y-16288345D01*
X46974998Y-16288345D01*
X46964680Y-16187347D01*
X46910453Y-16023699D01*
X46910448Y-16023688D01*
X46819947Y-15876965D01*
X46819944Y-15876961D01*
X46698038Y-15755055D01*
X46698034Y-15755052D01*
X46551311Y-15664551D01*
X46551300Y-15664546D01*
X46387652Y-15610319D01*
X46286654Y-15600000D01*
X46250000Y-15600000D01*
X46250000Y-16387500D01*
X45750000Y-16387500D01*
X45750000Y-15600000D01*
X45713361Y-15600000D01*
X45713343Y-15600001D01*
X45612347Y-15610319D01*
X45448699Y-15664546D01*
X45448688Y-15664551D01*
X45301965Y-15755052D01*
X45301961Y-15755055D01*
X45180055Y-15876961D01*
X45180052Y-15876965D01*
X45089551Y-16023688D01*
X45089546Y-16023699D01*
X45035319Y-16187347D01*
X45025000Y-16288345D01*
X38974998Y-16288345D01*
X38964680Y-16187347D01*
X38910453Y-16023699D01*
X38910448Y-16023688D01*
X38819947Y-15876965D01*
X38819944Y-15876961D01*
X38698038Y-15755055D01*
X38698034Y-15755052D01*
X38551311Y-15664551D01*
X38551300Y-15664546D01*
X38387652Y-15610319D01*
X38286654Y-15600000D01*
X38250000Y-15600000D01*
X38250000Y-16387500D01*
X37750000Y-16387500D01*
X37750000Y-15600000D01*
X37713361Y-15600000D01*
X37713343Y-15600001D01*
X37612347Y-15610319D01*
X37448699Y-15664546D01*
X37448688Y-15664551D01*
X37301965Y-15755052D01*
X37301961Y-15755055D01*
X37180055Y-15876961D01*
X37180052Y-15876965D01*
X37089551Y-16023688D01*
X37089546Y-16023699D01*
X37035319Y-16187347D01*
X37025000Y-16288345D01*
X30974998Y-16288345D01*
X30964680Y-16187347D01*
X30910453Y-16023699D01*
X30910448Y-16023688D01*
X30819947Y-15876965D01*
X30819944Y-15876961D01*
X30698038Y-15755055D01*
X30698034Y-15755052D01*
X30551311Y-15664551D01*
X30551300Y-15664546D01*
X30387652Y-15610319D01*
X30286654Y-15600000D01*
X30250000Y-15600000D01*
X30250000Y-16387500D01*
X29750000Y-16387500D01*
X29750000Y-15600000D01*
X29713361Y-15600000D01*
X29713343Y-15600001D01*
X29612347Y-15610319D01*
X29448699Y-15664546D01*
X29448688Y-15664551D01*
X29301965Y-15755052D01*
X29301961Y-15755055D01*
X29180055Y-15876961D01*
X29180052Y-15876965D01*
X29089551Y-16023688D01*
X29089546Y-16023699D01*
X29035319Y-16187347D01*
X29025000Y-16288345D01*
X22952585Y-16288345D01*
X22910453Y-16161199D01*
X22910448Y-16161188D01*
X22819947Y-16014465D01*
X22819944Y-16014461D01*
X22698038Y-15892555D01*
X22698034Y-15892552D01*
X22551311Y-15802051D01*
X22551300Y-15802046D01*
X22387652Y-15747819D01*
X22286654Y-15737500D01*
X22250000Y-15737500D01*
X22250000Y-16525000D01*
X21750000Y-16525000D01*
X21750000Y-15737500D01*
X21713361Y-15737500D01*
X21713343Y-15737501D01*
X21612347Y-15747819D01*
X21448699Y-15802046D01*
X21448688Y-15802051D01*
X21301965Y-15892552D01*
X21301961Y-15892555D01*
X21180055Y-16014461D01*
X21180052Y-16014465D01*
X21089551Y-16161188D01*
X21089546Y-16161199D01*
X21035319Y-16324847D01*
X21025000Y-16425845D01*
X14974998Y-16425845D01*
X14964680Y-16324847D01*
X14910453Y-16161199D01*
X14910448Y-16161188D01*
X14819947Y-16014465D01*
X14819944Y-16014461D01*
X14698038Y-15892555D01*
X14698034Y-15892552D01*
X14551311Y-15802051D01*
X14551300Y-15802046D01*
X14387652Y-15747819D01*
X14286654Y-15737500D01*
X14250000Y-15737500D01*
X14250000Y-16525000D01*
X13750000Y-16525000D01*
X13750000Y-15737500D01*
X13713361Y-15737500D01*
X13713343Y-15737501D01*
X13612347Y-15747819D01*
X13448699Y-15802046D01*
X13448688Y-15802051D01*
X13301965Y-15892552D01*
X13301961Y-15892555D01*
X13180055Y-16014461D01*
X13180052Y-16014465D01*
X13089551Y-16161188D01*
X13089546Y-16161199D01*
X13035319Y-16324847D01*
X13025000Y-16425845D01*
X12000000Y-16425845D01*
X12000000Y-13102135D01*
X13374500Y-13102135D01*
X13374500Y-14897870D01*
X13374501Y-14897876D01*
X13380908Y-14957483D01*
X13431202Y-15092328D01*
X13431206Y-15092335D01*
X13517452Y-15207544D01*
X13517455Y-15207547D01*
X13632664Y-15293793D01*
X13632671Y-15293797D01*
X13767517Y-15344091D01*
X13767516Y-15344091D01*
X13774444Y-15344835D01*
X13827127Y-15350500D01*
X15622872Y-15350499D01*
X15682483Y-15344091D01*
X15817331Y-15293796D01*
X15932546Y-15207546D01*
X16018796Y-15092331D01*
X16067810Y-14960916D01*
X16109681Y-14904984D01*
X16175145Y-14880566D01*
X16243418Y-14895417D01*
X16271673Y-14916569D01*
X16393599Y-15038495D01*
X16490384Y-15106265D01*
X16587165Y-15174032D01*
X16587167Y-15174033D01*
X16587170Y-15174035D01*
X16801337Y-15273903D01*
X17029592Y-15335063D01*
X17206034Y-15350500D01*
X17264999Y-15355659D01*
X17265000Y-15355659D01*
X17265001Y-15355659D01*
X17323966Y-15350500D01*
X17500408Y-15335063D01*
X17728663Y-15273903D01*
X17942830Y-15174035D01*
X18136401Y-15038495D01*
X18303495Y-14871401D01*
X18439035Y-14677830D01*
X18538903Y-14463663D01*
X18600063Y-14235408D01*
X18620659Y-14000000D01*
X18600063Y-13764592D01*
X18538903Y-13536337D01*
X18439035Y-13322171D01*
X18303495Y-13128599D01*
X18303494Y-13128597D01*
X18277032Y-13102135D01*
X21374500Y-13102135D01*
X21374500Y-14897870D01*
X21374501Y-14897876D01*
X21380908Y-14957483D01*
X21431202Y-15092328D01*
X21431206Y-15092335D01*
X21517452Y-15207544D01*
X21517455Y-15207547D01*
X21632664Y-15293793D01*
X21632671Y-15293797D01*
X21767517Y-15344091D01*
X21767516Y-15344091D01*
X21774444Y-15344835D01*
X21827127Y-15350500D01*
X23622872Y-15350499D01*
X23682483Y-15344091D01*
X23817331Y-15293796D01*
X23932546Y-15207546D01*
X24018796Y-15092331D01*
X24067810Y-14960916D01*
X24109681Y-14904984D01*
X24175145Y-14880566D01*
X24243418Y-14895417D01*
X24271673Y-14916569D01*
X24393599Y-15038495D01*
X24490384Y-15106265D01*
X24587165Y-15174032D01*
X24587167Y-15174033D01*
X24587170Y-15174035D01*
X24801337Y-15273903D01*
X25029592Y-15335063D01*
X25206034Y-15350500D01*
X25264999Y-15355659D01*
X25265000Y-15355659D01*
X25265001Y-15355659D01*
X25323966Y-15350500D01*
X25500408Y-15335063D01*
X25728663Y-15273903D01*
X25942830Y-15174035D01*
X26136401Y-15038495D01*
X26303495Y-14871401D01*
X26439035Y-14677830D01*
X26538903Y-14463663D01*
X26600063Y-14235408D01*
X26620659Y-14000000D01*
X26600063Y-13764592D01*
X26538903Y-13536337D01*
X26439035Y-13322171D01*
X26303495Y-13128599D01*
X26303494Y-13128597D01*
X26277032Y-13102135D01*
X29374500Y-13102135D01*
X29374500Y-14897870D01*
X29374501Y-14897876D01*
X29380908Y-14957483D01*
X29431202Y-15092328D01*
X29431206Y-15092335D01*
X29517452Y-15207544D01*
X29517455Y-15207547D01*
X29632664Y-15293793D01*
X29632671Y-15293797D01*
X29767517Y-15344091D01*
X29767516Y-15344091D01*
X29774444Y-15344835D01*
X29827127Y-15350500D01*
X31622872Y-15350499D01*
X31682483Y-15344091D01*
X31817331Y-15293796D01*
X31932546Y-15207546D01*
X32018796Y-15092331D01*
X32067810Y-14960916D01*
X32109681Y-14904984D01*
X32175145Y-14880566D01*
X32243418Y-14895417D01*
X32271673Y-14916569D01*
X32393599Y-15038495D01*
X32490384Y-15106265D01*
X32587165Y-15174032D01*
X32587167Y-15174033D01*
X32587170Y-15174035D01*
X32801337Y-15273903D01*
X33029592Y-15335063D01*
X33206034Y-15350500D01*
X33264999Y-15355659D01*
X33265000Y-15355659D01*
X33265001Y-15355659D01*
X33323966Y-15350500D01*
X33500408Y-15335063D01*
X33728663Y-15273903D01*
X33942830Y-15174035D01*
X34136401Y-15038495D01*
X34303495Y-14871401D01*
X34439035Y-14677830D01*
X34538903Y-14463663D01*
X34600063Y-14235408D01*
X34620659Y-14000000D01*
X34600063Y-13764592D01*
X34538903Y-13536337D01*
X34439035Y-13322171D01*
X34303495Y-13128599D01*
X34303494Y-13128597D01*
X34277032Y-13102135D01*
X37374500Y-13102135D01*
X37374500Y-14897870D01*
X37374501Y-14897876D01*
X37380908Y-14957483D01*
X37431202Y-15092328D01*
X37431206Y-15092335D01*
X37517452Y-15207544D01*
X37517455Y-15207547D01*
X37632664Y-15293793D01*
X37632671Y-15293797D01*
X37767517Y-15344091D01*
X37767516Y-15344091D01*
X37774444Y-15344835D01*
X37827127Y-15350500D01*
X39622872Y-15350499D01*
X39682483Y-15344091D01*
X39817331Y-15293796D01*
X39932546Y-15207546D01*
X40018796Y-15092331D01*
X40067810Y-14960916D01*
X40109681Y-14904984D01*
X40175145Y-14880566D01*
X40243418Y-14895417D01*
X40271673Y-14916569D01*
X40393599Y-15038495D01*
X40490384Y-15106265D01*
X40587165Y-15174032D01*
X40587167Y-15174033D01*
X40587170Y-15174035D01*
X40801337Y-15273903D01*
X41029592Y-15335063D01*
X41206034Y-15350500D01*
X41264999Y-15355659D01*
X41265000Y-15355659D01*
X41265001Y-15355659D01*
X41323966Y-15350500D01*
X41500408Y-15335063D01*
X41728663Y-15273903D01*
X41942830Y-15174035D01*
X42136401Y-15038495D01*
X42303495Y-14871401D01*
X42439035Y-14677830D01*
X42538903Y-14463663D01*
X42600063Y-14235408D01*
X42620659Y-14000000D01*
X42600063Y-13764592D01*
X42538903Y-13536337D01*
X42439035Y-13322171D01*
X42303495Y-13128599D01*
X42303494Y-13128597D01*
X42277032Y-13102135D01*
X45374500Y-13102135D01*
X45374500Y-14897870D01*
X45374501Y-14897876D01*
X45380908Y-14957483D01*
X45431202Y-15092328D01*
X45431206Y-15092335D01*
X45517452Y-15207544D01*
X45517455Y-15207547D01*
X45632664Y-15293793D01*
X45632671Y-15293797D01*
X45767517Y-15344091D01*
X45767516Y-15344091D01*
X45774444Y-15344835D01*
X45827127Y-15350500D01*
X47622872Y-15350499D01*
X47682483Y-15344091D01*
X47817331Y-15293796D01*
X47932546Y-15207546D01*
X48018796Y-15092331D01*
X48067810Y-14960916D01*
X48109681Y-14904984D01*
X48175145Y-14880566D01*
X48243418Y-14895417D01*
X48271673Y-14916569D01*
X48393599Y-15038495D01*
X48490384Y-15106265D01*
X48587165Y-15174032D01*
X48587167Y-15174033D01*
X48587170Y-15174035D01*
X48801337Y-15273903D01*
X49029592Y-15335063D01*
X49206034Y-15350500D01*
X49264999Y-15355659D01*
X49265000Y-15355659D01*
X49265001Y-15355659D01*
X49323966Y-15350500D01*
X49500408Y-15335063D01*
X49728663Y-15273903D01*
X49942830Y-15174035D01*
X50136401Y-15038495D01*
X50303495Y-14871401D01*
X50439035Y-14677830D01*
X50538903Y-14463663D01*
X50600063Y-14235408D01*
X50620659Y-14000000D01*
X50600063Y-13764592D01*
X50538903Y-13536337D01*
X50439035Y-13322171D01*
X50303495Y-13128599D01*
X50303494Y-13128597D01*
X50277032Y-13102135D01*
X53374500Y-13102135D01*
X53374500Y-14897870D01*
X53374501Y-14897876D01*
X53380908Y-14957483D01*
X53431202Y-15092328D01*
X53431206Y-15092335D01*
X53517452Y-15207544D01*
X53517455Y-15207547D01*
X53632664Y-15293793D01*
X53632671Y-15293797D01*
X53767517Y-15344091D01*
X53767516Y-15344091D01*
X53774444Y-15344835D01*
X53827127Y-15350500D01*
X55622872Y-15350499D01*
X55682483Y-15344091D01*
X55817331Y-15293796D01*
X55932546Y-15207546D01*
X56018796Y-15092331D01*
X56067810Y-14960916D01*
X56109681Y-14904984D01*
X56175145Y-14880566D01*
X56243418Y-14895417D01*
X56271673Y-14916569D01*
X56393599Y-15038495D01*
X56490384Y-15106265D01*
X56587165Y-15174032D01*
X56587167Y-15174033D01*
X56587170Y-15174035D01*
X56801337Y-15273903D01*
X57029592Y-15335063D01*
X57206034Y-15350500D01*
X57264999Y-15355659D01*
X57265000Y-15355659D01*
X57265001Y-15355659D01*
X57323966Y-15350500D01*
X57500408Y-15335063D01*
X57728663Y-15273903D01*
X57942830Y-15174035D01*
X58136401Y-15038495D01*
X58303495Y-14871401D01*
X58439035Y-14677830D01*
X58538903Y-14463663D01*
X58600063Y-14235408D01*
X58620659Y-14000000D01*
X58600063Y-13764592D01*
X58538903Y-13536337D01*
X58439035Y-13322171D01*
X58303495Y-13128599D01*
X58303494Y-13128597D01*
X58277032Y-13102135D01*
X61374500Y-13102135D01*
X61374500Y-14897870D01*
X61374501Y-14897876D01*
X61380908Y-14957483D01*
X61431202Y-15092328D01*
X61431206Y-15092335D01*
X61517452Y-15207544D01*
X61517455Y-15207547D01*
X61632664Y-15293793D01*
X61632671Y-15293797D01*
X61767517Y-15344091D01*
X61767516Y-15344091D01*
X61774444Y-15344835D01*
X61827127Y-15350500D01*
X63622872Y-15350499D01*
X63682483Y-15344091D01*
X63817331Y-15293796D01*
X63932546Y-15207546D01*
X64018796Y-15092331D01*
X64067810Y-14960916D01*
X64109681Y-14904984D01*
X64175145Y-14880566D01*
X64243418Y-14895417D01*
X64271673Y-14916569D01*
X64393599Y-15038495D01*
X64490384Y-15106265D01*
X64587165Y-15174032D01*
X64587167Y-15174033D01*
X64587170Y-15174035D01*
X64801337Y-15273903D01*
X65029592Y-15335063D01*
X65206034Y-15350500D01*
X65264999Y-15355659D01*
X65265000Y-15355659D01*
X65265001Y-15355659D01*
X65323966Y-15350500D01*
X65500408Y-15335063D01*
X65728663Y-15273903D01*
X65942830Y-15174035D01*
X66136401Y-15038495D01*
X66303495Y-14871401D01*
X66439035Y-14677830D01*
X66538903Y-14463663D01*
X66600063Y-14235408D01*
X66620659Y-14000000D01*
X66600063Y-13764592D01*
X66538903Y-13536337D01*
X66439035Y-13322171D01*
X66303495Y-13128599D01*
X66303494Y-13128597D01*
X66277032Y-13102135D01*
X69374500Y-13102135D01*
X69374500Y-14897870D01*
X69374501Y-14897876D01*
X69380908Y-14957483D01*
X69431202Y-15092328D01*
X69431206Y-15092335D01*
X69517452Y-15207544D01*
X69517455Y-15207547D01*
X69632664Y-15293793D01*
X69632671Y-15293797D01*
X69767517Y-15344091D01*
X69767516Y-15344091D01*
X69774444Y-15344835D01*
X69827127Y-15350500D01*
X71622872Y-15350499D01*
X71682483Y-15344091D01*
X71817331Y-15293796D01*
X71932546Y-15207546D01*
X72018796Y-15092331D01*
X72067810Y-14960916D01*
X72109681Y-14904984D01*
X72175145Y-14880566D01*
X72243418Y-14895417D01*
X72271673Y-14916569D01*
X72393599Y-15038495D01*
X72490384Y-15106265D01*
X72587165Y-15174032D01*
X72587167Y-15174033D01*
X72587170Y-15174035D01*
X72801337Y-15273903D01*
X73029592Y-15335063D01*
X73206034Y-15350500D01*
X73264999Y-15355659D01*
X73265000Y-15355659D01*
X73265001Y-15355659D01*
X73323966Y-15350500D01*
X73500408Y-15335063D01*
X73728663Y-15273903D01*
X73942830Y-15174035D01*
X74136401Y-15038495D01*
X74303495Y-14871401D01*
X74439035Y-14677830D01*
X74538903Y-14463663D01*
X74600063Y-14235408D01*
X74620659Y-14000000D01*
X74600063Y-13764592D01*
X74538903Y-13536337D01*
X74439035Y-13322171D01*
X74303495Y-13128599D01*
X74303494Y-13128597D01*
X74136402Y-12961506D01*
X74136395Y-12961501D01*
X73942834Y-12825967D01*
X73942830Y-12825965D01*
X73942828Y-12825964D01*
X73728663Y-12726097D01*
X73728659Y-12726096D01*
X73728655Y-12726094D01*
X73500413Y-12664938D01*
X73500403Y-12664936D01*
X73265001Y-12644341D01*
X73264999Y-12644341D01*
X73029596Y-12664936D01*
X73029586Y-12664938D01*
X72801344Y-12726094D01*
X72801335Y-12726098D01*
X72587171Y-12825964D01*
X72587169Y-12825965D01*
X72393600Y-12961503D01*
X72271673Y-13083430D01*
X72210350Y-13116914D01*
X72140658Y-13111930D01*
X72084725Y-13070058D01*
X72067810Y-13039081D01*
X72018797Y-12907671D01*
X72018793Y-12907664D01*
X71932547Y-12792455D01*
X71932544Y-12792452D01*
X71817335Y-12706206D01*
X71817328Y-12706202D01*
X71682482Y-12655908D01*
X71682483Y-12655908D01*
X71622883Y-12649501D01*
X71622881Y-12649500D01*
X71622873Y-12649500D01*
X71622864Y-12649500D01*
X69827129Y-12649500D01*
X69827123Y-12649501D01*
X69767516Y-12655908D01*
X69632671Y-12706202D01*
X69632664Y-12706206D01*
X69517455Y-12792452D01*
X69517452Y-12792455D01*
X69431206Y-12907664D01*
X69431202Y-12907671D01*
X69380908Y-13042517D01*
X69374501Y-13102116D01*
X69374500Y-13102135D01*
X66277032Y-13102135D01*
X66136402Y-12961506D01*
X66136395Y-12961501D01*
X65942834Y-12825967D01*
X65942830Y-12825965D01*
X65942828Y-12825964D01*
X65728663Y-12726097D01*
X65728659Y-12726096D01*
X65728655Y-12726094D01*
X65500413Y-12664938D01*
X65500403Y-12664936D01*
X65265001Y-12644341D01*
X65264999Y-12644341D01*
X65029596Y-12664936D01*
X65029586Y-12664938D01*
X64801344Y-12726094D01*
X64801335Y-12726098D01*
X64587171Y-12825964D01*
X64587169Y-12825965D01*
X64393600Y-12961503D01*
X64271673Y-13083430D01*
X64210350Y-13116914D01*
X64140658Y-13111930D01*
X64084725Y-13070058D01*
X64067810Y-13039081D01*
X64018797Y-12907671D01*
X64018793Y-12907664D01*
X63932547Y-12792455D01*
X63932544Y-12792452D01*
X63817335Y-12706206D01*
X63817328Y-12706202D01*
X63682482Y-12655908D01*
X63682483Y-12655908D01*
X63622883Y-12649501D01*
X63622881Y-12649500D01*
X63622873Y-12649500D01*
X63622864Y-12649500D01*
X61827129Y-12649500D01*
X61827123Y-12649501D01*
X61767516Y-12655908D01*
X61632671Y-12706202D01*
X61632664Y-12706206D01*
X61517455Y-12792452D01*
X61517452Y-12792455D01*
X61431206Y-12907664D01*
X61431202Y-12907671D01*
X61380908Y-13042517D01*
X61374501Y-13102116D01*
X61374500Y-13102135D01*
X58277032Y-13102135D01*
X58136402Y-12961506D01*
X58136395Y-12961501D01*
X57942834Y-12825967D01*
X57942830Y-12825965D01*
X57942828Y-12825964D01*
X57728663Y-12726097D01*
X57728659Y-12726096D01*
X57728655Y-12726094D01*
X57500413Y-12664938D01*
X57500403Y-12664936D01*
X57265001Y-12644341D01*
X57264999Y-12644341D01*
X57029596Y-12664936D01*
X57029586Y-12664938D01*
X56801344Y-12726094D01*
X56801335Y-12726098D01*
X56587171Y-12825964D01*
X56587169Y-12825965D01*
X56393600Y-12961503D01*
X56271673Y-13083430D01*
X56210350Y-13116914D01*
X56140658Y-13111930D01*
X56084725Y-13070058D01*
X56067810Y-13039081D01*
X56018797Y-12907671D01*
X56018793Y-12907664D01*
X55932547Y-12792455D01*
X55932544Y-12792452D01*
X55817335Y-12706206D01*
X55817328Y-12706202D01*
X55682482Y-12655908D01*
X55682483Y-12655908D01*
X55622883Y-12649501D01*
X55622881Y-12649500D01*
X55622873Y-12649500D01*
X55622864Y-12649500D01*
X53827129Y-12649500D01*
X53827123Y-12649501D01*
X53767516Y-12655908D01*
X53632671Y-12706202D01*
X53632664Y-12706206D01*
X53517455Y-12792452D01*
X53517452Y-12792455D01*
X53431206Y-12907664D01*
X53431202Y-12907671D01*
X53380908Y-13042517D01*
X53374501Y-13102116D01*
X53374500Y-13102135D01*
X50277032Y-13102135D01*
X50136402Y-12961506D01*
X50136395Y-12961501D01*
X49942834Y-12825967D01*
X49942830Y-12825965D01*
X49942828Y-12825964D01*
X49728663Y-12726097D01*
X49728659Y-12726096D01*
X49728655Y-12726094D01*
X49500413Y-12664938D01*
X49500403Y-12664936D01*
X49265001Y-12644341D01*
X49264999Y-12644341D01*
X49029596Y-12664936D01*
X49029586Y-12664938D01*
X48801344Y-12726094D01*
X48801335Y-12726098D01*
X48587171Y-12825964D01*
X48587169Y-12825965D01*
X48393600Y-12961503D01*
X48271673Y-13083430D01*
X48210350Y-13116914D01*
X48140658Y-13111930D01*
X48084725Y-13070058D01*
X48067810Y-13039081D01*
X48018797Y-12907671D01*
X48018793Y-12907664D01*
X47932547Y-12792455D01*
X47932544Y-12792452D01*
X47817335Y-12706206D01*
X47817328Y-12706202D01*
X47682482Y-12655908D01*
X47682483Y-12655908D01*
X47622883Y-12649501D01*
X47622881Y-12649500D01*
X47622873Y-12649500D01*
X47622864Y-12649500D01*
X45827129Y-12649500D01*
X45827123Y-12649501D01*
X45767516Y-12655908D01*
X45632671Y-12706202D01*
X45632664Y-12706206D01*
X45517455Y-12792452D01*
X45517452Y-12792455D01*
X45431206Y-12907664D01*
X45431202Y-12907671D01*
X45380908Y-13042517D01*
X45374501Y-13102116D01*
X45374500Y-13102135D01*
X42277032Y-13102135D01*
X42136402Y-12961506D01*
X42136395Y-12961501D01*
X41942834Y-12825967D01*
X41942830Y-12825965D01*
X41942828Y-12825964D01*
X41728663Y-12726097D01*
X41728659Y-12726096D01*
X41728655Y-12726094D01*
X41500413Y-12664938D01*
X41500403Y-12664936D01*
X41265001Y-12644341D01*
X41264999Y-12644341D01*
X41029596Y-12664936D01*
X41029586Y-12664938D01*
X40801344Y-12726094D01*
X40801335Y-12726098D01*
X40587171Y-12825964D01*
X40587169Y-12825965D01*
X40393600Y-12961503D01*
X40271673Y-13083430D01*
X40210350Y-13116914D01*
X40140658Y-13111930D01*
X40084725Y-13070058D01*
X40067810Y-13039081D01*
X40018797Y-12907671D01*
X40018793Y-12907664D01*
X39932547Y-12792455D01*
X39932544Y-12792452D01*
X39817335Y-12706206D01*
X39817328Y-12706202D01*
X39682482Y-12655908D01*
X39682483Y-12655908D01*
X39622883Y-12649501D01*
X39622881Y-12649500D01*
X39622873Y-12649500D01*
X39622864Y-12649500D01*
X37827129Y-12649500D01*
X37827123Y-12649501D01*
X37767516Y-12655908D01*
X37632671Y-12706202D01*
X37632664Y-12706206D01*
X37517455Y-12792452D01*
X37517452Y-12792455D01*
X37431206Y-12907664D01*
X37431202Y-12907671D01*
X37380908Y-13042517D01*
X37374501Y-13102116D01*
X37374500Y-13102135D01*
X34277032Y-13102135D01*
X34136402Y-12961506D01*
X34136395Y-12961501D01*
X33942834Y-12825967D01*
X33942830Y-12825965D01*
X33942828Y-12825964D01*
X33728663Y-12726097D01*
X33728659Y-12726096D01*
X33728655Y-12726094D01*
X33500413Y-12664938D01*
X33500403Y-12664936D01*
X33265001Y-12644341D01*
X33264999Y-12644341D01*
X33029596Y-12664936D01*
X33029586Y-12664938D01*
X32801344Y-12726094D01*
X32801335Y-12726098D01*
X32587171Y-12825964D01*
X32587169Y-12825965D01*
X32393600Y-12961503D01*
X32271673Y-13083430D01*
X32210350Y-13116914D01*
X32140658Y-13111930D01*
X32084725Y-13070058D01*
X32067810Y-13039081D01*
X32018797Y-12907671D01*
X32018793Y-12907664D01*
X31932547Y-12792455D01*
X31932544Y-12792452D01*
X31817335Y-12706206D01*
X31817328Y-12706202D01*
X31682482Y-12655908D01*
X31682483Y-12655908D01*
X31622883Y-12649501D01*
X31622881Y-12649500D01*
X31622873Y-12649500D01*
X31622864Y-12649500D01*
X29827129Y-12649500D01*
X29827123Y-12649501D01*
X29767516Y-12655908D01*
X29632671Y-12706202D01*
X29632664Y-12706206D01*
X29517455Y-12792452D01*
X29517452Y-12792455D01*
X29431206Y-12907664D01*
X29431202Y-12907671D01*
X29380908Y-13042517D01*
X29374501Y-13102116D01*
X29374500Y-13102135D01*
X26277032Y-13102135D01*
X26136402Y-12961506D01*
X26136395Y-12961501D01*
X25942834Y-12825967D01*
X25942830Y-12825965D01*
X25942828Y-12825964D01*
X25728663Y-12726097D01*
X25728659Y-12726096D01*
X25728655Y-12726094D01*
X25500413Y-12664938D01*
X25500403Y-12664936D01*
X25265001Y-12644341D01*
X25264999Y-12644341D01*
X25029596Y-12664936D01*
X25029586Y-12664938D01*
X24801344Y-12726094D01*
X24801335Y-12726098D01*
X24587171Y-12825964D01*
X24587169Y-12825965D01*
X24393600Y-12961503D01*
X24271673Y-13083430D01*
X24210350Y-13116914D01*
X24140658Y-13111930D01*
X24084725Y-13070058D01*
X24067810Y-13039081D01*
X24018797Y-12907671D01*
X24018793Y-12907664D01*
X23932547Y-12792455D01*
X23932544Y-12792452D01*
X23817335Y-12706206D01*
X23817328Y-12706202D01*
X23682482Y-12655908D01*
X23682483Y-12655908D01*
X23622883Y-12649501D01*
X23622881Y-12649500D01*
X23622873Y-12649500D01*
X23622864Y-12649500D01*
X21827129Y-12649500D01*
X21827123Y-12649501D01*
X21767516Y-12655908D01*
X21632671Y-12706202D01*
X21632664Y-12706206D01*
X21517455Y-12792452D01*
X21517452Y-12792455D01*
X21431206Y-12907664D01*
X21431202Y-12907671D01*
X21380908Y-13042517D01*
X21374501Y-13102116D01*
X21374500Y-13102135D01*
X18277032Y-13102135D01*
X18136402Y-12961506D01*
X18136395Y-12961501D01*
X17942834Y-12825967D01*
X17942830Y-12825965D01*
X17942828Y-12825964D01*
X17728663Y-12726097D01*
X17728659Y-12726096D01*
X17728655Y-12726094D01*
X17500413Y-12664938D01*
X17500403Y-12664936D01*
X17265001Y-12644341D01*
X17264999Y-12644341D01*
X17029596Y-12664936D01*
X17029586Y-12664938D01*
X16801344Y-12726094D01*
X16801335Y-12726098D01*
X16587171Y-12825964D01*
X16587169Y-12825965D01*
X16393600Y-12961503D01*
X16271673Y-13083430D01*
X16210350Y-13116914D01*
X16140658Y-13111930D01*
X16084725Y-13070058D01*
X16067810Y-13039081D01*
X16018797Y-12907671D01*
X16018793Y-12907664D01*
X15932547Y-12792455D01*
X15932544Y-12792452D01*
X15817335Y-12706206D01*
X15817328Y-12706202D01*
X15682482Y-12655908D01*
X15682483Y-12655908D01*
X15622883Y-12649501D01*
X15622881Y-12649500D01*
X15622873Y-12649500D01*
X15622864Y-12649500D01*
X13827129Y-12649500D01*
X13827123Y-12649501D01*
X13767516Y-12655908D01*
X13632671Y-12706202D01*
X13632664Y-12706206D01*
X13517455Y-12792452D01*
X13517452Y-12792455D01*
X13431206Y-12907664D01*
X13431202Y-12907671D01*
X13380908Y-13042517D01*
X13374501Y-13102116D01*
X13374500Y-13102135D01*
X12000000Y-13102135D01*
X12000000Y-12124000D01*
X12019685Y-12056961D01*
X12072489Y-12011206D01*
X12124000Y-12000000D01*
X75876000Y-12000000D01*
X75943039Y-12019685D01*
G37*
%TD.AperFunction*%
%TD*%
M02*
