%TF.GenerationSoftware,KiCad,Pcbnew,8.0.4*%
%TF.CreationDate,2024-08-11T12:29:12-04:00*%
%TF.ProjectId,Inhibit Sense Circuit,496e6869-6269-4742-9053-656e73652043,rev?*%
%TF.SameCoordinates,Original*%
%TF.FileFunction,Legend,Bot*%
%TF.FilePolarity,Positive*%
%FSLAX46Y46*%
G04 Gerber Fmt 4.6, Leading zero omitted, Abs format (unit mm)*
G04 Created by KiCad (PCBNEW 8.0.4) date 2024-08-11 12:29:12*
%MOMM*%
%LPD*%
G01*
G04 APERTURE LIST*
%ADD10C,0.000000*%
%ADD11C,0.150000*%
%ADD12C,0.120000*%
G04 APERTURE END LIST*
D10*
G36*
X67688769Y-37868383D02*
G01*
X67711606Y-37885739D01*
X67733876Y-37906064D01*
X67755578Y-37929184D01*
X67797281Y-37983122D01*
X67836716Y-38046173D01*
X67873885Y-38116960D01*
X67908789Y-38194103D01*
X67941429Y-38276222D01*
X67971806Y-38361940D01*
X67999922Y-38449876D01*
X68025777Y-38538652D01*
X68070712Y-38713208D01*
X68106620Y-38874574D01*
X68133512Y-39011719D01*
X68161458Y-39011719D01*
X68169964Y-39011934D01*
X68178358Y-39012573D01*
X68186631Y-39013626D01*
X68194772Y-39015081D01*
X68202770Y-39016928D01*
X68210615Y-39019158D01*
X68218298Y-39021759D01*
X68225806Y-39024721D01*
X68233130Y-39028034D01*
X68240260Y-39031687D01*
X68247185Y-39035670D01*
X68253895Y-39039973D01*
X68260379Y-39044585D01*
X68266626Y-39049495D01*
X68272627Y-39054694D01*
X68278371Y-39060171D01*
X68283848Y-39065915D01*
X68289047Y-39071916D01*
X68293957Y-39078164D01*
X68298569Y-39084647D01*
X68302872Y-39091357D01*
X68306855Y-39098282D01*
X68310508Y-39105412D01*
X68313821Y-39112736D01*
X68316784Y-39120245D01*
X68319385Y-39127927D01*
X68321614Y-39135772D01*
X68323462Y-39143770D01*
X68324917Y-39151911D01*
X68325969Y-39160184D01*
X68326608Y-39168578D01*
X68326823Y-39177084D01*
X68326823Y-39507813D01*
X68714107Y-39701455D01*
X68744873Y-39718217D01*
X68774125Y-39736932D01*
X68801798Y-39757496D01*
X68827826Y-39779801D01*
X68852145Y-39803745D01*
X68874690Y-39829220D01*
X68895396Y-39856123D01*
X68914198Y-39884348D01*
X68931031Y-39913790D01*
X68945831Y-39944344D01*
X68958531Y-39975904D01*
X68969068Y-40008366D01*
X68977377Y-40041625D01*
X68983392Y-40075575D01*
X68987048Y-40110111D01*
X68988281Y-40145128D01*
X68988281Y-42649740D01*
X68987636Y-42675271D01*
X68985720Y-42700466D01*
X68982566Y-42725295D01*
X68978204Y-42749727D01*
X68972665Y-42773729D01*
X68965980Y-42797272D01*
X68958181Y-42820323D01*
X68949299Y-42842852D01*
X68939365Y-42864827D01*
X68928410Y-42886218D01*
X68916466Y-42906993D01*
X68903563Y-42927121D01*
X68889732Y-42946571D01*
X68875005Y-42965311D01*
X68859414Y-42983311D01*
X68842988Y-43000540D01*
X68825759Y-43016966D01*
X68807759Y-43032557D01*
X68789019Y-43047284D01*
X68769569Y-43061115D01*
X68749441Y-43074018D01*
X68728666Y-43085962D01*
X68707275Y-43096917D01*
X68685300Y-43106851D01*
X68662771Y-43115733D01*
X68639720Y-43123532D01*
X68616177Y-43130217D01*
X68592175Y-43135756D01*
X68567743Y-43140118D01*
X68542914Y-43143272D01*
X68517719Y-43145188D01*
X68492188Y-43145833D01*
X66507813Y-43145833D01*
X66482282Y-43145188D01*
X66457086Y-43143272D01*
X66432257Y-43140118D01*
X66407826Y-43135756D01*
X66383823Y-43130217D01*
X66360281Y-43123532D01*
X66337229Y-43115733D01*
X66314701Y-43106851D01*
X66292725Y-43096917D01*
X66271334Y-43085962D01*
X66250559Y-43074018D01*
X66230431Y-43061115D01*
X66210982Y-43047284D01*
X66192241Y-43032557D01*
X66174241Y-43016966D01*
X66157013Y-43000540D01*
X66140587Y-42983311D01*
X66124995Y-42965311D01*
X66110268Y-42946571D01*
X66096438Y-42927121D01*
X66083535Y-42906993D01*
X66071590Y-42886218D01*
X66060635Y-42864827D01*
X66050701Y-42842852D01*
X66041819Y-42820323D01*
X66034020Y-42797272D01*
X66027336Y-42773729D01*
X66021797Y-42749727D01*
X66017435Y-42725295D01*
X66014280Y-42700466D01*
X66012364Y-42675271D01*
X66011719Y-42649740D01*
X66177084Y-42649740D01*
X66177514Y-42666765D01*
X66178790Y-42683567D01*
X66180893Y-42700123D01*
X66183800Y-42716414D01*
X66187491Y-42732418D01*
X66191946Y-42748115D01*
X66197144Y-42763484D01*
X66203064Y-42778504D01*
X66209685Y-42793155D01*
X66216987Y-42807416D01*
X66224948Y-42821266D01*
X66233548Y-42834685D01*
X66242767Y-42847651D01*
X66252583Y-42860144D01*
X66262976Y-42872143D01*
X66273925Y-42883627D01*
X66285410Y-42894576D01*
X66297409Y-42904969D01*
X66309902Y-42914786D01*
X66322868Y-42924004D01*
X66336286Y-42932605D01*
X66350136Y-42940566D01*
X66364397Y-42947868D01*
X66379048Y-42954489D01*
X66394068Y-42960408D01*
X66409438Y-42965606D01*
X66425135Y-42970061D01*
X66441139Y-42973753D01*
X66457430Y-42976660D01*
X66473986Y-42978762D01*
X66490787Y-42980039D01*
X66507813Y-42980469D01*
X68492188Y-42980469D01*
X68509213Y-42980039D01*
X68526015Y-42978762D01*
X68542571Y-42976660D01*
X68558862Y-42973753D01*
X68574866Y-42970061D01*
X68590563Y-42965606D01*
X68605932Y-42960408D01*
X68620952Y-42954489D01*
X68635604Y-42947868D01*
X68649864Y-42940566D01*
X68663714Y-42932605D01*
X68677133Y-42924004D01*
X68690099Y-42914786D01*
X68702592Y-42904969D01*
X68714591Y-42894576D01*
X68726075Y-42883627D01*
X68737024Y-42872143D01*
X68747417Y-42860144D01*
X68757234Y-42847651D01*
X68766452Y-42834685D01*
X68775053Y-42821266D01*
X68783014Y-42807416D01*
X68790316Y-42793155D01*
X68796937Y-42778504D01*
X68802856Y-42763484D01*
X68808054Y-42748115D01*
X68812509Y-42732418D01*
X68816201Y-42716414D01*
X68819108Y-42700123D01*
X68821210Y-42683567D01*
X68822487Y-42666765D01*
X68822917Y-42649740D01*
X68822917Y-40145128D01*
X68822711Y-40133425D01*
X68822095Y-40121792D01*
X68821075Y-40110239D01*
X68819657Y-40098775D01*
X68817846Y-40087407D01*
X68815647Y-40076146D01*
X68813067Y-40064999D01*
X68810109Y-40053976D01*
X68806780Y-40043085D01*
X68803085Y-40032335D01*
X68799030Y-40021735D01*
X68794619Y-40011293D01*
X68789859Y-40001019D01*
X68784755Y-39990921D01*
X68779312Y-39981008D01*
X68773535Y-39971288D01*
X68767430Y-39961771D01*
X68761003Y-39952466D01*
X68754259Y-39943380D01*
X68747203Y-39934524D01*
X68739841Y-39925905D01*
X68732177Y-39917532D01*
X68724219Y-39909415D01*
X68715970Y-39901561D01*
X68707437Y-39893981D01*
X68698624Y-39886682D01*
X68689538Y-39879673D01*
X68680183Y-39872963D01*
X68670566Y-39866561D01*
X68660690Y-39860476D01*
X68650563Y-39854716D01*
X68640189Y-39849291D01*
X68287797Y-39673177D01*
X66712203Y-39673177D01*
X66359977Y-39849291D01*
X66339446Y-39860474D01*
X66319928Y-39872956D01*
X66301465Y-39886667D01*
X66284100Y-39901538D01*
X66267877Y-39917499D01*
X66252838Y-39934480D01*
X66239027Y-39952413D01*
X66226486Y-39971226D01*
X66215260Y-39990852D01*
X66205390Y-40011220D01*
X66196920Y-40032261D01*
X66189894Y-40053906D01*
X66184354Y-40076084D01*
X66180344Y-40098727D01*
X66177906Y-40121765D01*
X66177084Y-40145128D01*
X66177084Y-42649740D01*
X66011719Y-42649740D01*
X66011719Y-40145128D01*
X66012029Y-40127566D01*
X66012952Y-40110111D01*
X66014482Y-40092776D01*
X66016609Y-40075575D01*
X66019326Y-40058520D01*
X66022624Y-40041625D01*
X66026496Y-40024902D01*
X66030932Y-40008366D01*
X66035926Y-39992029D01*
X66041469Y-39975904D01*
X66047553Y-39960005D01*
X66054170Y-39944344D01*
X66061311Y-39928934D01*
X66068969Y-39913790D01*
X66077136Y-39898923D01*
X66085802Y-39884348D01*
X66094961Y-39870077D01*
X66104604Y-39856123D01*
X66114723Y-39842500D01*
X66125310Y-39829220D01*
X66136357Y-39816297D01*
X66147855Y-39803745D01*
X66159797Y-39791575D01*
X66172174Y-39779801D01*
X66184979Y-39768437D01*
X66198203Y-39757496D01*
X66211837Y-39746990D01*
X66225875Y-39736932D01*
X66240308Y-39727337D01*
X66255127Y-39718217D01*
X66270325Y-39709585D01*
X66285893Y-39701455D01*
X66673177Y-39507813D01*
X66673177Y-39177084D01*
X66838542Y-39177084D01*
X66838542Y-39507813D01*
X68161458Y-39507813D01*
X68161458Y-39177084D01*
X66838542Y-39177084D01*
X66673177Y-39177084D01*
X66673393Y-39168578D01*
X66674032Y-39160184D01*
X66675084Y-39151911D01*
X66676539Y-39143770D01*
X66678386Y-39135772D01*
X66680616Y-39127927D01*
X66683217Y-39120245D01*
X66686179Y-39112736D01*
X66689492Y-39105412D01*
X66693145Y-39098282D01*
X66697129Y-39091357D01*
X66701431Y-39084647D01*
X66706043Y-39078164D01*
X66710954Y-39071916D01*
X66716153Y-39065915D01*
X66721629Y-39060171D01*
X66727373Y-39054694D01*
X66733374Y-39049495D01*
X66739622Y-39044585D01*
X66746106Y-39039973D01*
X66752815Y-39035670D01*
X66759740Y-39031687D01*
X66766870Y-39028034D01*
X66774194Y-39024721D01*
X66781703Y-39021759D01*
X66789385Y-39019158D01*
X66797231Y-39016928D01*
X66805229Y-39015081D01*
X66813369Y-39013626D01*
X66821642Y-39012573D01*
X66830036Y-39011934D01*
X66838542Y-39011719D01*
X66867811Y-39011719D01*
X67035326Y-39011719D01*
X67966494Y-39011719D01*
X67950628Y-38930497D01*
X67933427Y-38849510D01*
X67915003Y-38769256D01*
X67895467Y-38690235D01*
X67874930Y-38612944D01*
X67853504Y-38537882D01*
X67831298Y-38465547D01*
X67808426Y-38396439D01*
X67784997Y-38331055D01*
X67761124Y-38269894D01*
X67736916Y-38213455D01*
X67712486Y-38162236D01*
X67687945Y-38116736D01*
X67663403Y-38077452D01*
X67638972Y-38044885D01*
X67626833Y-38031275D01*
X67614763Y-38019532D01*
X67386891Y-38019532D01*
X67363316Y-38045165D01*
X67339425Y-38077954D01*
X67315331Y-38117406D01*
X67291147Y-38163027D01*
X67266988Y-38214321D01*
X67242966Y-38270795D01*
X67219196Y-38331955D01*
X67195791Y-38397307D01*
X67150531Y-38538608D01*
X67108094Y-38690746D01*
X67069389Y-38849768D01*
X67035326Y-39011719D01*
X66867811Y-39011719D01*
X66895684Y-38874574D01*
X66932567Y-38713208D01*
X66978311Y-38538652D01*
X67004457Y-38449876D01*
X67032763Y-38361940D01*
X67063207Y-38276222D01*
X67095772Y-38194103D01*
X67130439Y-38116960D01*
X67167189Y-38046173D01*
X67206002Y-37983122D01*
X67226176Y-37954927D01*
X67246860Y-37929184D01*
X67268050Y-37906064D01*
X67289744Y-37885739D01*
X67311940Y-37868383D01*
X67334636Y-37854167D01*
X67665365Y-37854167D01*
X67688769Y-37868383D01*
G37*
G36*
X72660885Y-41070938D02*
G01*
X72692842Y-41073376D01*
X72724339Y-41077390D01*
X72755337Y-41082941D01*
X72785796Y-41089989D01*
X72815676Y-41098493D01*
X72844937Y-41108414D01*
X72873539Y-41119712D01*
X72901442Y-41132347D01*
X72928607Y-41146279D01*
X72954994Y-41161468D01*
X72980562Y-41177875D01*
X73005271Y-41195460D01*
X73029083Y-41214182D01*
X73051956Y-41234001D01*
X73073852Y-41254879D01*
X73094729Y-41276775D01*
X73114549Y-41299648D01*
X73133272Y-41323460D01*
X73150856Y-41348170D01*
X73167264Y-41373738D01*
X73182454Y-41400125D01*
X73196387Y-41427291D01*
X73209023Y-41455195D01*
X73220321Y-41483798D01*
X73230243Y-41513060D01*
X73238749Y-41542941D01*
X73245797Y-41573401D01*
X73251349Y-41604400D01*
X73255365Y-41635899D01*
X73257804Y-41667857D01*
X73258627Y-41700235D01*
X73257806Y-41732613D01*
X73255368Y-41764571D01*
X73251353Y-41796069D01*
X73245802Y-41827069D01*
X73238755Y-41857529D01*
X73230250Y-41887410D01*
X73220329Y-41916672D01*
X73209030Y-41945275D01*
X73196395Y-41973179D01*
X73182462Y-42000345D01*
X73167272Y-42026731D01*
X73150864Y-42052300D01*
X73133279Y-42077010D01*
X73114557Y-42100822D01*
X73094736Y-42123695D01*
X73073858Y-42145591D01*
X73051962Y-42166468D01*
X73029089Y-42186288D01*
X73005276Y-42205010D01*
X72980566Y-42222595D01*
X72954998Y-42239002D01*
X72928611Y-42254191D01*
X72901446Y-42268123D01*
X72873542Y-42280758D01*
X72844939Y-42292056D01*
X72815677Y-42301977D01*
X72785797Y-42310481D01*
X72755338Y-42317529D01*
X72724340Y-42323080D01*
X72692842Y-42327094D01*
X72660885Y-42329532D01*
X72628509Y-42330353D01*
X72596133Y-42329531D01*
X72564176Y-42327094D01*
X72532679Y-42323079D01*
X72501681Y-42317528D01*
X72471222Y-42310480D01*
X72441342Y-42301976D01*
X72412081Y-42292054D01*
X72383479Y-42280756D01*
X72355576Y-42268120D01*
X72328411Y-42254188D01*
X72302025Y-42238998D01*
X72276457Y-42222590D01*
X72251748Y-42205005D01*
X72227937Y-42186283D01*
X72205063Y-42166462D01*
X72183168Y-42145584D01*
X72162291Y-42123688D01*
X72142472Y-42100814D01*
X72123750Y-42077002D01*
X72106166Y-42052292D01*
X72089759Y-42026724D01*
X72074570Y-42000337D01*
X72060638Y-41973172D01*
X72048003Y-41945268D01*
X72036705Y-41916665D01*
X72026784Y-41887404D01*
X72018280Y-41857523D01*
X72011233Y-41827064D01*
X72005682Y-41796066D01*
X72001668Y-41764568D01*
X71999230Y-41732611D01*
X71998408Y-41700235D01*
X71998409Y-41700200D01*
X72266505Y-41700200D01*
X72266977Y-41718803D01*
X72268377Y-41737165D01*
X72270683Y-41755262D01*
X72273872Y-41773073D01*
X72277921Y-41790574D01*
X72282807Y-41807743D01*
X72288506Y-41824555D01*
X72294997Y-41840990D01*
X72302256Y-41857022D01*
X72310260Y-41872630D01*
X72318986Y-41887791D01*
X72328412Y-41902482D01*
X72338514Y-41916679D01*
X72349270Y-41930360D01*
X72360656Y-41943502D01*
X72372651Y-41956083D01*
X72385230Y-41968078D01*
X72398370Y-41979466D01*
X72412050Y-41990223D01*
X72426246Y-42000326D01*
X72440935Y-42009753D01*
X72456095Y-42018480D01*
X72471701Y-42026485D01*
X72487732Y-42033744D01*
X72504165Y-42040236D01*
X72520976Y-42045936D01*
X72538143Y-42050822D01*
X72555642Y-42054871D01*
X72573451Y-42058060D01*
X72591548Y-42060367D01*
X72609908Y-42061767D01*
X72628509Y-42062239D01*
X72647112Y-42061767D01*
X72665474Y-42060367D01*
X72683571Y-42058060D01*
X72701382Y-42054871D01*
X72718883Y-42050822D01*
X72736052Y-42045936D01*
X72752864Y-42040236D01*
X72769298Y-42033744D01*
X72785331Y-42026485D01*
X72800939Y-42018480D01*
X72816100Y-42009753D01*
X72830791Y-42000326D01*
X72844988Y-41990223D01*
X72858669Y-41979466D01*
X72871811Y-41968078D01*
X72884392Y-41956083D01*
X72896387Y-41943502D01*
X72907775Y-41930360D01*
X72918531Y-41916679D01*
X72928635Y-41902482D01*
X72938061Y-41887791D01*
X72946789Y-41872630D01*
X72954794Y-41857022D01*
X72962053Y-41840990D01*
X72968545Y-41824555D01*
X72974245Y-41807743D01*
X72979131Y-41790574D01*
X72983180Y-41773073D01*
X72986369Y-41755262D01*
X72988676Y-41737165D01*
X72990076Y-41718803D01*
X72990548Y-41700200D01*
X72990076Y-41681597D01*
X72988675Y-41663235D01*
X72986369Y-41645138D01*
X72983179Y-41627327D01*
X72979130Y-41609826D01*
X72974243Y-41592657D01*
X72968543Y-41575845D01*
X72962051Y-41559410D01*
X72954791Y-41543378D01*
X72946785Y-41527770D01*
X72938057Y-41512609D01*
X72928630Y-41497918D01*
X72918526Y-41483721D01*
X72907769Y-41470040D01*
X72896381Y-41456898D01*
X72884385Y-41444317D01*
X72871804Y-41432322D01*
X72858662Y-41420934D01*
X72844980Y-41410177D01*
X72830783Y-41400074D01*
X72816092Y-41390648D01*
X72800931Y-41381920D01*
X72785323Y-41373915D01*
X72769291Y-41366656D01*
X72752857Y-41360165D01*
X72736045Y-41354464D01*
X72718878Y-41349578D01*
X72701377Y-41345529D01*
X72683567Y-41342340D01*
X72665471Y-41340034D01*
X72647110Y-41338633D01*
X72628509Y-41338161D01*
X72609909Y-41338633D01*
X72591551Y-41340034D01*
X72573456Y-41342340D01*
X72555647Y-41345529D01*
X72538149Y-41349578D01*
X72520983Y-41354464D01*
X72504172Y-41360165D01*
X72487740Y-41366656D01*
X72471709Y-41373915D01*
X72456102Y-41381920D01*
X72440943Y-41390648D01*
X72426254Y-41400074D01*
X72412058Y-41410177D01*
X72398378Y-41420934D01*
X72385237Y-41432322D01*
X72372657Y-41444317D01*
X72360662Y-41456898D01*
X72349276Y-41470040D01*
X72338519Y-41483721D01*
X72328416Y-41497918D01*
X72318990Y-41512609D01*
X72310263Y-41527770D01*
X72302259Y-41543378D01*
X72294999Y-41559410D01*
X72288508Y-41575845D01*
X72282808Y-41592657D01*
X72277922Y-41609826D01*
X72273873Y-41627327D01*
X72270684Y-41645138D01*
X72268378Y-41663235D01*
X72266977Y-41681597D01*
X72266505Y-41700200D01*
X71998409Y-41700200D01*
X71999230Y-41667857D01*
X72001668Y-41635899D01*
X72005682Y-41604401D01*
X72011233Y-41573401D01*
X72018281Y-41542941D01*
X72026785Y-41513060D01*
X72036707Y-41483798D01*
X72048005Y-41455195D01*
X72060641Y-41427291D01*
X72074573Y-41400125D01*
X72089763Y-41373738D01*
X72106170Y-41348170D01*
X72123755Y-41323460D01*
X72142477Y-41299648D01*
X72162297Y-41276775D01*
X72183175Y-41254879D01*
X72205070Y-41234001D01*
X72227944Y-41214182D01*
X72251755Y-41195460D01*
X72276465Y-41177875D01*
X72302033Y-41161468D01*
X72328419Y-41146279D01*
X72355584Y-41132347D01*
X72383487Y-41119712D01*
X72412088Y-41108414D01*
X72441349Y-41098493D01*
X72471228Y-41089989D01*
X72501686Y-41082941D01*
X72532683Y-41077390D01*
X72564179Y-41073376D01*
X72596134Y-41070938D01*
X72628509Y-41070117D01*
X72660885Y-41070938D01*
G37*
G36*
X68169964Y-40334851D02*
G01*
X68178358Y-40335490D01*
X68186631Y-40336542D01*
X68194772Y-40337997D01*
X68202770Y-40339845D01*
X68210615Y-40342074D01*
X68218298Y-40344675D01*
X68225806Y-40347637D01*
X68233130Y-40350950D01*
X68240260Y-40354604D01*
X68247185Y-40358587D01*
X68253895Y-40362890D01*
X68260379Y-40367501D01*
X68266626Y-40372412D01*
X68272627Y-40377611D01*
X68278371Y-40383087D01*
X68283848Y-40388831D01*
X68289047Y-40394832D01*
X68293957Y-40401080D01*
X68298569Y-40407564D01*
X68302872Y-40414274D01*
X68306855Y-40421198D01*
X68310508Y-40428328D01*
X68313821Y-40435653D01*
X68316784Y-40443161D01*
X68319385Y-40450843D01*
X68321614Y-40458689D01*
X68323462Y-40466687D01*
X68324917Y-40474828D01*
X68325969Y-40483100D01*
X68326608Y-40491495D01*
X68326823Y-40500000D01*
X68326823Y-42319010D01*
X68326608Y-42327516D01*
X68325969Y-42335910D01*
X68324917Y-42344183D01*
X68323462Y-42352324D01*
X68321614Y-42360322D01*
X68319385Y-42368167D01*
X68316784Y-42375850D01*
X68313821Y-42383358D01*
X68310508Y-42390682D01*
X68306855Y-42397812D01*
X68302872Y-42404737D01*
X68298569Y-42411447D01*
X68293957Y-42417931D01*
X68289047Y-42424178D01*
X68283848Y-42430179D01*
X68278371Y-42435923D01*
X68272627Y-42441400D01*
X68266626Y-42446599D01*
X68260379Y-42451509D01*
X68253895Y-42456121D01*
X68247185Y-42460424D01*
X68240260Y-42464407D01*
X68233130Y-42468060D01*
X68225806Y-42471373D01*
X68218298Y-42474336D01*
X68210615Y-42476937D01*
X68202770Y-42479166D01*
X68194772Y-42481014D01*
X68186631Y-42482469D01*
X68178358Y-42483521D01*
X68169964Y-42484160D01*
X68161458Y-42484375D01*
X66838542Y-42484375D01*
X66830036Y-42484160D01*
X66821642Y-42483521D01*
X66813369Y-42482469D01*
X66805229Y-42481014D01*
X66797231Y-42479166D01*
X66789385Y-42476937D01*
X66781703Y-42474336D01*
X66774194Y-42471373D01*
X66766870Y-42468060D01*
X66759740Y-42464407D01*
X66752815Y-42460424D01*
X66746106Y-42456121D01*
X66739622Y-42451509D01*
X66733374Y-42446599D01*
X66727373Y-42441400D01*
X66721629Y-42435923D01*
X66716153Y-42430179D01*
X66710954Y-42424178D01*
X66706043Y-42417931D01*
X66701431Y-42411447D01*
X66697129Y-42404737D01*
X66693145Y-42397812D01*
X66689492Y-42390682D01*
X66686179Y-42383358D01*
X66683217Y-42375850D01*
X66680616Y-42368167D01*
X66678386Y-42360322D01*
X66676539Y-42352324D01*
X66675084Y-42344183D01*
X66674032Y-42335910D01*
X66673393Y-42327516D01*
X66673177Y-42319010D01*
X66673177Y-40500000D01*
X66838542Y-40500000D01*
X66838542Y-42319010D01*
X68161458Y-42319010D01*
X68161458Y-40500000D01*
X66838542Y-40500000D01*
X66673177Y-40500000D01*
X66673393Y-40491495D01*
X66674032Y-40483100D01*
X66675084Y-40474828D01*
X66676539Y-40466687D01*
X66678386Y-40458689D01*
X66680616Y-40450843D01*
X66683217Y-40443161D01*
X66686179Y-40435653D01*
X66689492Y-40428328D01*
X66693145Y-40421198D01*
X66697129Y-40414274D01*
X66701431Y-40407564D01*
X66706043Y-40401080D01*
X66710954Y-40394832D01*
X66716153Y-40388831D01*
X66721629Y-40383087D01*
X66727373Y-40377611D01*
X66733374Y-40372412D01*
X66739622Y-40367501D01*
X66746106Y-40362890D01*
X66752815Y-40358587D01*
X66759740Y-40354604D01*
X66766870Y-40350950D01*
X66774194Y-40347637D01*
X66781703Y-40344675D01*
X66789385Y-40342074D01*
X66797231Y-40339845D01*
X66805229Y-40337997D01*
X66813369Y-40336542D01*
X66821642Y-40335490D01*
X66830036Y-40334851D01*
X66838542Y-40334636D01*
X68161458Y-40334636D01*
X68169964Y-40334851D01*
G37*
G36*
X71000000Y-40500000D02*
G01*
X71021268Y-40501623D01*
X71042231Y-40504294D01*
X71062862Y-40507989D01*
X71083134Y-40512679D01*
X71103020Y-40518338D01*
X71122494Y-40524941D01*
X71141530Y-40532460D01*
X71160101Y-40540869D01*
X71178180Y-40550142D01*
X71195741Y-40560251D01*
X71212757Y-40571171D01*
X71229203Y-40582874D01*
X71245050Y-40595334D01*
X71260273Y-40608525D01*
X71274845Y-40622421D01*
X71288740Y-40636993D01*
X71301931Y-40652217D01*
X71314391Y-40668065D01*
X71326095Y-40684512D01*
X71337014Y-40701529D01*
X71347124Y-40719091D01*
X71356397Y-40737172D01*
X71364807Y-40755745D01*
X71372327Y-40774782D01*
X71378930Y-40794259D01*
X71384591Y-40814147D01*
X71389283Y-40834421D01*
X71392978Y-40855054D01*
X71395651Y-40876020D01*
X71397275Y-40897291D01*
X71397823Y-40918842D01*
X71397276Y-40940392D01*
X71395654Y-40961662D01*
X71392982Y-40982626D01*
X71389287Y-41003258D01*
X71384596Y-41023531D01*
X71378935Y-41043418D01*
X71372332Y-41062894D01*
X71364812Y-41081930D01*
X71356402Y-41100502D01*
X71347128Y-41118582D01*
X71337018Y-41136143D01*
X71326098Y-41153160D01*
X71314394Y-41169606D01*
X71301933Y-41185453D01*
X71288741Y-41200677D01*
X71274845Y-41215249D01*
X71260272Y-41229144D01*
X71245048Y-41242334D01*
X71229200Y-41254795D01*
X71212754Y-41266498D01*
X71195737Y-41277417D01*
X71178176Y-41287526D01*
X71160096Y-41296798D01*
X71141525Y-41305207D01*
X71122489Y-41312726D01*
X71103015Y-41319329D01*
X71083129Y-41324989D01*
X71062857Y-41329679D01*
X71042228Y-41333373D01*
X71021266Y-41336044D01*
X70999998Y-41337667D01*
X70978452Y-41338214D01*
X70956903Y-41337667D01*
X70935633Y-41336044D01*
X70914668Y-41333372D01*
X70894037Y-41329677D01*
X70873764Y-41324986D01*
X70853876Y-41319326D01*
X70834401Y-41312722D01*
X70815364Y-41305202D01*
X70796793Y-41296792D01*
X70778713Y-41287519D01*
X70761151Y-41277409D01*
X70744134Y-41266488D01*
X70727689Y-41254784D01*
X70711841Y-41242323D01*
X70696618Y-41229131D01*
X70682046Y-41215236D01*
X70668151Y-41200663D01*
X70654960Y-41185439D01*
X70642500Y-41169590D01*
X70630797Y-41153145D01*
X70619878Y-41136128D01*
X70609769Y-41118566D01*
X70600496Y-41100486D01*
X70592087Y-41081915D01*
X70584568Y-41062879D01*
X70577966Y-41043405D01*
X70572306Y-41023519D01*
X70567616Y-41003248D01*
X70563922Y-40982618D01*
X70561250Y-40961656D01*
X70559628Y-40940389D01*
X70559081Y-40918842D01*
X70559082Y-40918825D01*
X70827160Y-40918825D01*
X70827357Y-40926599D01*
X70827942Y-40934273D01*
X70828906Y-40941836D01*
X70830239Y-40949280D01*
X70831931Y-40956593D01*
X70833972Y-40963768D01*
X70836354Y-40970794D01*
X70839067Y-40977662D01*
X70842100Y-40984362D01*
X70845445Y-40990884D01*
X70849092Y-40997220D01*
X70853031Y-41003359D01*
X70857253Y-41009292D01*
X70861748Y-41015009D01*
X70866507Y-41020501D01*
X70871519Y-41025758D01*
X70876776Y-41030770D01*
X70882268Y-41035529D01*
X70887985Y-41040024D01*
X70893918Y-41044246D01*
X70900057Y-41048185D01*
X70906392Y-41051832D01*
X70912915Y-41055177D01*
X70919615Y-41058210D01*
X70926483Y-41060923D01*
X70933509Y-41063305D01*
X70940683Y-41065346D01*
X70947997Y-41067038D01*
X70955441Y-41068371D01*
X70963004Y-41069335D01*
X70970678Y-41069920D01*
X70978452Y-41070117D01*
X70986225Y-41069920D01*
X70993897Y-41069335D01*
X71001460Y-41068371D01*
X71008902Y-41067038D01*
X71016215Y-41065346D01*
X71023389Y-41063305D01*
X71030414Y-41060923D01*
X71037282Y-41058210D01*
X71043981Y-41055177D01*
X71050504Y-41051832D01*
X71056839Y-41048185D01*
X71062978Y-41044246D01*
X71068911Y-41040024D01*
X71074629Y-41035529D01*
X71080121Y-41030770D01*
X71085378Y-41025758D01*
X71090391Y-41020501D01*
X71095151Y-41015009D01*
X71099646Y-41009292D01*
X71103868Y-41003359D01*
X71107808Y-40997220D01*
X71111455Y-40990884D01*
X71114801Y-40984362D01*
X71117835Y-40977662D01*
X71120548Y-40970794D01*
X71122930Y-40963768D01*
X71124972Y-40956593D01*
X71126665Y-40949280D01*
X71127998Y-40941836D01*
X71128962Y-40934273D01*
X71129547Y-40926599D01*
X71129744Y-40918825D01*
X71129547Y-40911050D01*
X71128962Y-40903376D01*
X71127998Y-40895813D01*
X71126665Y-40888369D01*
X71124972Y-40881055D01*
X71122930Y-40873880D01*
X71120548Y-40866853D01*
X71117835Y-40859985D01*
X71114801Y-40853284D01*
X71111455Y-40846761D01*
X71107808Y-40840425D01*
X71103868Y-40834285D01*
X71099646Y-40828351D01*
X71095151Y-40822633D01*
X71090391Y-40817141D01*
X71085378Y-40811883D01*
X71080121Y-40806870D01*
X71074629Y-40802110D01*
X71068911Y-40797614D01*
X71062978Y-40793392D01*
X71056839Y-40789452D01*
X71050504Y-40785804D01*
X71043981Y-40782459D01*
X71037282Y-40779425D01*
X71030414Y-40776711D01*
X71023389Y-40774329D01*
X71016215Y-40772287D01*
X71008902Y-40770595D01*
X71001460Y-40769262D01*
X70993897Y-40768298D01*
X70986225Y-40767712D01*
X70978452Y-40767515D01*
X70970678Y-40767712D01*
X70963004Y-40768298D01*
X70955441Y-40769262D01*
X70947997Y-40770595D01*
X70940683Y-40772287D01*
X70933509Y-40774329D01*
X70926483Y-40776711D01*
X70919615Y-40779425D01*
X70912915Y-40782459D01*
X70906392Y-40785804D01*
X70900057Y-40789452D01*
X70893918Y-40793392D01*
X70887985Y-40797614D01*
X70882268Y-40802110D01*
X70876776Y-40806870D01*
X70871519Y-40811883D01*
X70866507Y-40817141D01*
X70861748Y-40822633D01*
X70857253Y-40828351D01*
X70853031Y-40834285D01*
X70849092Y-40840425D01*
X70845445Y-40846761D01*
X70842100Y-40853284D01*
X70839067Y-40859985D01*
X70836354Y-40866853D01*
X70833972Y-40873880D01*
X70831931Y-40881055D01*
X70830239Y-40888369D01*
X70828906Y-40895813D01*
X70827942Y-40903376D01*
X70827357Y-40911050D01*
X70827160Y-40918825D01*
X70559082Y-40918825D01*
X70559628Y-40897291D01*
X70561250Y-40876020D01*
X70563922Y-40855054D01*
X70567617Y-40834421D01*
X70572307Y-40814147D01*
X70577967Y-40794259D01*
X70584570Y-40774782D01*
X70592090Y-40755745D01*
X70600499Y-40737172D01*
X70609772Y-40719091D01*
X70619882Y-40701529D01*
X70630802Y-40684511D01*
X70642505Y-40668065D01*
X70654966Y-40652217D01*
X70668157Y-40636993D01*
X70682052Y-40622421D01*
X70696625Y-40608525D01*
X70711849Y-40595334D01*
X70727697Y-40582874D01*
X70744142Y-40571171D01*
X70761159Y-40560251D01*
X70778721Y-40550142D01*
X70796801Y-40540869D01*
X70815372Y-40532460D01*
X70834408Y-40524941D01*
X70853883Y-40518338D01*
X70873770Y-40512679D01*
X70894042Y-40507989D01*
X70914672Y-40504294D01*
X70935636Y-40501623D01*
X70956904Y-40500000D01*
X70978452Y-40499454D01*
X71000000Y-40500000D01*
G37*
G36*
X72238412Y-38883411D02*
G01*
X72262660Y-38885260D01*
X72286560Y-38888306D01*
X72310082Y-38892518D01*
X72333194Y-38897866D01*
X72355867Y-38904319D01*
X72378070Y-38911847D01*
X72399773Y-38920420D01*
X72420946Y-38930007D01*
X72441558Y-38940579D01*
X72461580Y-38952105D01*
X72480981Y-38964554D01*
X72499730Y-38977897D01*
X72517798Y-38992103D01*
X72535154Y-39007143D01*
X72551768Y-39022985D01*
X72567610Y-39039599D01*
X72582649Y-39056956D01*
X72596855Y-39075024D01*
X72610197Y-39093774D01*
X72622647Y-39113175D01*
X72634172Y-39133198D01*
X72644744Y-39153811D01*
X72654331Y-39174985D01*
X72662904Y-39196689D01*
X72670432Y-39218893D01*
X72676885Y-39241567D01*
X72682232Y-39264681D01*
X72686444Y-39288203D01*
X72689490Y-39312105D01*
X72691340Y-39336355D01*
X72691963Y-39360923D01*
X72691340Y-39385489D01*
X72689490Y-39409736D01*
X72686445Y-39433635D01*
X72682233Y-39457155D01*
X72676886Y-39480265D01*
X72670434Y-39502937D01*
X72662906Y-39525139D01*
X72654334Y-39546842D01*
X72644747Y-39568014D01*
X72634176Y-39588625D01*
X72622651Y-39608647D01*
X72610202Y-39628047D01*
X72596860Y-39646796D01*
X72582654Y-39664864D01*
X72567616Y-39682220D01*
X72551775Y-39698833D01*
X72535161Y-39714675D01*
X72517805Y-39729714D01*
X72499738Y-39743920D01*
X72480989Y-39757264D01*
X72461588Y-39769713D01*
X72441566Y-39781240D01*
X72420954Y-39791812D01*
X72399780Y-39801400D01*
X72378077Y-39809974D01*
X72355873Y-39817503D01*
X72333200Y-39823956D01*
X72310087Y-39829305D01*
X72286565Y-39833518D01*
X72262663Y-39836566D01*
X72238413Y-39838417D01*
X72213845Y-39839042D01*
X72189276Y-39838419D01*
X72165026Y-39836569D01*
X72141125Y-39833522D01*
X72117602Y-39829310D01*
X72094489Y-39823962D01*
X72071815Y-39817509D01*
X72049611Y-39809981D01*
X72027907Y-39801407D01*
X72006733Y-39791820D01*
X71986119Y-39781247D01*
X71966097Y-39769721D01*
X71946695Y-39757271D01*
X71927945Y-39743928D01*
X71909877Y-39729721D01*
X71892520Y-39714682D01*
X71875906Y-39698840D01*
X71860064Y-39682226D01*
X71845025Y-39664869D01*
X71830819Y-39646801D01*
X71817476Y-39628052D01*
X71805026Y-39608651D01*
X71793500Y-39588629D01*
X71782928Y-39568017D01*
X71773341Y-39546844D01*
X71764768Y-39525141D01*
X71757240Y-39502939D01*
X71750787Y-39480267D01*
X71745440Y-39457155D01*
X71741228Y-39433635D01*
X71738182Y-39409736D01*
X71736332Y-39385489D01*
X71735709Y-39360923D01*
X72003805Y-39360923D01*
X72004079Y-39371714D01*
X72004892Y-39382365D01*
X72006230Y-39392863D01*
X72008081Y-39403195D01*
X72010431Y-39413347D01*
X72013266Y-39423306D01*
X72016574Y-39433060D01*
X72020341Y-39442593D01*
X72024553Y-39451895D01*
X72029198Y-39460950D01*
X72034262Y-39469745D01*
X72039732Y-39478268D01*
X72045594Y-39486505D01*
X72051836Y-39494443D01*
X72058444Y-39502068D01*
X72065404Y-39509367D01*
X72072703Y-39516326D01*
X72080329Y-39522934D01*
X72088267Y-39529175D01*
X72096505Y-39535037D01*
X72105028Y-39540507D01*
X72113825Y-39545571D01*
X72122880Y-39550216D01*
X72132182Y-39554428D01*
X72141717Y-39558195D01*
X72151471Y-39561502D01*
X72161432Y-39564338D01*
X72171585Y-39566687D01*
X72181919Y-39568538D01*
X72192418Y-39569876D01*
X72203070Y-39570689D01*
X72213862Y-39570963D01*
X72224655Y-39570689D01*
X72235307Y-39569877D01*
X72245806Y-39568539D01*
X72256139Y-39566689D01*
X72266292Y-39564340D01*
X72276252Y-39561505D01*
X72286006Y-39558199D01*
X72295540Y-39554433D01*
X72304841Y-39550222D01*
X72313896Y-39545578D01*
X72322692Y-39540515D01*
X72331215Y-39535047D01*
X72339452Y-39529185D01*
X72347389Y-39522945D01*
X72355014Y-39516339D01*
X72362312Y-39509380D01*
X72369272Y-39502082D01*
X72375878Y-39494457D01*
X72382119Y-39486520D01*
X72387981Y-39478284D01*
X72393450Y-39469761D01*
X72398513Y-39460965D01*
X72403158Y-39451910D01*
X72407369Y-39442608D01*
X72411136Y-39433074D01*
X72414443Y-39423319D01*
X72417278Y-39413359D01*
X72419627Y-39403205D01*
X72421477Y-39392871D01*
X72422815Y-39382371D01*
X72423628Y-39371717D01*
X72423902Y-39360923D01*
X72423628Y-39350130D01*
X72422816Y-39339476D01*
X72421478Y-39328975D01*
X72419628Y-39318641D01*
X72417279Y-39308487D01*
X72414444Y-39298526D01*
X72411138Y-39288771D01*
X72407372Y-39279236D01*
X72403161Y-39269933D01*
X72398517Y-39260877D01*
X72393454Y-39252081D01*
X72387986Y-39243557D01*
X72382124Y-39235320D01*
X72375884Y-39227382D01*
X72369278Y-39219757D01*
X72362319Y-39212458D01*
X72355021Y-39205498D01*
X72347396Y-39198891D01*
X72339459Y-39192650D01*
X72331223Y-39186788D01*
X72322700Y-39181319D01*
X72313904Y-39176255D01*
X72304849Y-39171611D01*
X72295548Y-39167399D01*
X72286013Y-39163633D01*
X72276259Y-39160325D01*
X72266298Y-39157490D01*
X72256144Y-39155141D01*
X72245810Y-39153291D01*
X72235310Y-39151953D01*
X72224656Y-39151140D01*
X72213862Y-39150866D01*
X72203069Y-39151140D01*
X72192415Y-39151953D01*
X72181914Y-39153291D01*
X72171580Y-39155142D01*
X72161426Y-39157492D01*
X72151465Y-39160327D01*
X72141710Y-39163635D01*
X72132175Y-39167401D01*
X72122873Y-39171614D01*
X72113817Y-39176259D01*
X72105020Y-39181323D01*
X72096497Y-39186793D01*
X72088259Y-39192655D01*
X72080321Y-39198897D01*
X72072696Y-39205504D01*
X72065397Y-39212465D01*
X72058437Y-39219764D01*
X72051830Y-39227390D01*
X72045589Y-39235328D01*
X72039727Y-39243565D01*
X72034258Y-39252089D01*
X72029194Y-39260885D01*
X72024550Y-39269941D01*
X72020338Y-39279243D01*
X72016572Y-39288778D01*
X72013265Y-39298532D01*
X72010430Y-39308493D01*
X72008080Y-39318646D01*
X72006230Y-39328979D01*
X72004892Y-39339479D01*
X72004079Y-39350131D01*
X72003805Y-39360923D01*
X71735709Y-39360923D01*
X71736332Y-39336355D01*
X71738182Y-39312105D01*
X71741228Y-39288203D01*
X71745440Y-39264681D01*
X71750788Y-39241567D01*
X71757242Y-39218893D01*
X71764770Y-39196689D01*
X71773343Y-39174985D01*
X71782931Y-39153811D01*
X71793504Y-39133198D01*
X71805030Y-39113175D01*
X71817480Y-39093774D01*
X71830824Y-39075024D01*
X71845031Y-39056956D01*
X71860070Y-39039599D01*
X71875913Y-39022985D01*
X71892527Y-39007143D01*
X71909884Y-38992103D01*
X71927953Y-38977897D01*
X71946703Y-38964554D01*
X71966105Y-38952105D01*
X71986127Y-38940579D01*
X72006740Y-38930007D01*
X72027914Y-38920420D01*
X72049618Y-38911847D01*
X72071821Y-38904319D01*
X72094495Y-38897866D01*
X72117607Y-38892518D01*
X72141129Y-38888306D01*
X72165029Y-38885260D01*
X72189278Y-38883411D01*
X72213845Y-38882787D01*
X72238412Y-38883411D01*
G37*
G36*
X72494004Y-37758332D02*
G01*
X72584753Y-37762966D01*
X72675154Y-37770676D01*
X72765132Y-37781452D01*
X72854609Y-37795284D01*
X72943507Y-37812161D01*
X73031751Y-37832073D01*
X73119261Y-37855010D01*
X73126001Y-37857091D01*
X73132551Y-37859491D01*
X73138905Y-37862198D01*
X73145056Y-37865203D01*
X73151000Y-37868492D01*
X73156729Y-37872056D01*
X73162238Y-37875883D01*
X73167521Y-37879962D01*
X73172572Y-37884281D01*
X73177385Y-37888830D01*
X73181954Y-37893597D01*
X73186272Y-37898572D01*
X73190335Y-37903742D01*
X73194135Y-37909098D01*
X73197668Y-37914626D01*
X73200926Y-37920318D01*
X73203904Y-37926160D01*
X73206596Y-37932143D01*
X73208996Y-37938255D01*
X73211098Y-37944484D01*
X73212895Y-37950820D01*
X73214383Y-37957251D01*
X73215555Y-37963767D01*
X73216404Y-37970355D01*
X73216926Y-37977006D01*
X73217113Y-37983707D01*
X73216960Y-37990447D01*
X73216462Y-37997216D01*
X73215611Y-38004002D01*
X73214402Y-38010794D01*
X73212829Y-38017581D01*
X73210886Y-38024351D01*
X73198582Y-38067474D01*
X73188779Y-38110651D01*
X73181431Y-38153806D01*
X73176489Y-38196864D01*
X73173909Y-38239750D01*
X73173642Y-38282386D01*
X73175642Y-38324697D01*
X73179862Y-38366608D01*
X73186255Y-38408042D01*
X73194775Y-38448924D01*
X73205375Y-38489178D01*
X73218008Y-38528728D01*
X73232627Y-38567498D01*
X73249185Y-38605412D01*
X73267636Y-38642395D01*
X73287932Y-38678371D01*
X73310027Y-38713263D01*
X73333875Y-38746997D01*
X73359428Y-38779495D01*
X73386639Y-38810683D01*
X73415462Y-38840484D01*
X73445850Y-38868823D01*
X73477756Y-38895624D01*
X73511134Y-38920811D01*
X73545935Y-38944308D01*
X73582115Y-38966040D01*
X73619626Y-38985929D01*
X73658420Y-39003902D01*
X73698452Y-39019881D01*
X73739674Y-39033791D01*
X73782040Y-39045557D01*
X73825503Y-39055101D01*
X73833562Y-39056888D01*
X73841378Y-39059120D01*
X73848942Y-39061780D01*
X73856247Y-39064851D01*
X73863283Y-39068316D01*
X73870042Y-39072156D01*
X73876515Y-39076356D01*
X73882694Y-39080896D01*
X73888569Y-39085760D01*
X73894133Y-39090930D01*
X73899376Y-39096389D01*
X73904291Y-39102119D01*
X73908867Y-39108103D01*
X73913097Y-39114324D01*
X73916972Y-39120764D01*
X73920483Y-39127405D01*
X73923622Y-39134231D01*
X73926380Y-39141223D01*
X73928748Y-39148365D01*
X73930718Y-39155638D01*
X73932281Y-39163026D01*
X73933428Y-39170511D01*
X73934151Y-39178076D01*
X73934441Y-39185703D01*
X73934290Y-39193374D01*
X73933688Y-39201073D01*
X73932627Y-39208781D01*
X73931098Y-39216482D01*
X73929094Y-39224158D01*
X73926604Y-39231792D01*
X73923621Y-39239365D01*
X73920136Y-39246862D01*
X73900181Y-39289656D01*
X73882967Y-39332931D01*
X73868453Y-39376590D01*
X73856596Y-39420540D01*
X73847353Y-39464685D01*
X73840682Y-39508929D01*
X73836541Y-39553179D01*
X73834888Y-39597338D01*
X73835680Y-39641312D01*
X73838875Y-39685005D01*
X73844431Y-39728323D01*
X73852305Y-39771170D01*
X73862454Y-39813452D01*
X73874838Y-39855073D01*
X73889412Y-39895938D01*
X73906135Y-39935953D01*
X73924965Y-39975021D01*
X73945858Y-40013049D01*
X73968774Y-40049941D01*
X73993669Y-40085601D01*
X74020501Y-40119936D01*
X74049228Y-40152849D01*
X74079808Y-40184246D01*
X74112197Y-40214031D01*
X74146355Y-40242110D01*
X74182238Y-40268388D01*
X74219803Y-40292769D01*
X74259010Y-40315158D01*
X74299815Y-40335460D01*
X74342176Y-40353581D01*
X74386051Y-40369425D01*
X74431397Y-40382897D01*
X74438371Y-40384952D01*
X74445145Y-40387347D01*
X74451712Y-40390069D01*
X74458065Y-40393106D01*
X74464200Y-40396446D01*
X74470108Y-40400078D01*
X74475784Y-40403988D01*
X74481222Y-40408164D01*
X74486414Y-40412595D01*
X74491355Y-40417267D01*
X74496038Y-40422170D01*
X74500457Y-40427291D01*
X74504605Y-40432617D01*
X74508475Y-40438136D01*
X74512063Y-40443837D01*
X74515360Y-40449706D01*
X74518361Y-40455733D01*
X74521059Y-40461904D01*
X74523449Y-40468208D01*
X74525522Y-40474631D01*
X74527274Y-40481163D01*
X74528697Y-40487791D01*
X74529786Y-40494502D01*
X74530534Y-40501285D01*
X74530934Y-40508128D01*
X74530980Y-40515017D01*
X74530665Y-40521942D01*
X74529984Y-40528889D01*
X74528930Y-40535847D01*
X74527496Y-40542803D01*
X74525677Y-40549745D01*
X74523464Y-40556662D01*
X74513987Y-40585506D01*
X74505649Y-40614514D01*
X74498442Y-40643656D01*
X74492358Y-40672903D01*
X74483523Y-40731600D01*
X74479079Y-40790376D01*
X74478957Y-40849000D01*
X74483092Y-40907245D01*
X74491416Y-40964881D01*
X74503863Y-41021679D01*
X74520365Y-41077410D01*
X74540856Y-41131844D01*
X74565269Y-41184752D01*
X74593537Y-41235906D01*
X74625592Y-41285076D01*
X74661370Y-41332032D01*
X74700801Y-41376547D01*
X74721866Y-41397816D01*
X74743820Y-41418390D01*
X74751802Y-41426219D01*
X74759018Y-41434577D01*
X74765459Y-41443409D01*
X74771114Y-41452664D01*
X74775975Y-41462288D01*
X74780029Y-41472230D01*
X74783268Y-41482435D01*
X74785682Y-41492852D01*
X74787260Y-41503428D01*
X74787992Y-41514109D01*
X74787868Y-41524844D01*
X74786879Y-41535579D01*
X74785013Y-41546261D01*
X74782262Y-41556839D01*
X74778614Y-41567258D01*
X74774061Y-41577468D01*
X74686195Y-41740002D01*
X74587875Y-41895064D01*
X74479618Y-42042236D01*
X74361940Y-42181104D01*
X74235358Y-42311252D01*
X74100388Y-42432264D01*
X73957547Y-42543723D01*
X73807351Y-42645216D01*
X73650316Y-42736325D01*
X73486959Y-42816635D01*
X73317796Y-42885730D01*
X73143344Y-42943194D01*
X72964118Y-42988613D01*
X72780636Y-43021569D01*
X72593414Y-43041648D01*
X72402969Y-43048433D01*
X72267020Y-43044984D01*
X72132833Y-43034748D01*
X72000575Y-43017892D01*
X71870413Y-42994584D01*
X71742514Y-42964992D01*
X71617048Y-42929283D01*
X71494180Y-42887624D01*
X71374079Y-42840183D01*
X71256911Y-42787129D01*
X71142845Y-42728627D01*
X71032049Y-42664846D01*
X70924688Y-42595953D01*
X70820932Y-42522116D01*
X70720948Y-42443502D01*
X70624902Y-42360279D01*
X70532963Y-42272615D01*
X70445299Y-42180676D01*
X70362076Y-42084631D01*
X70283462Y-41984646D01*
X70209625Y-41880890D01*
X70140732Y-41773529D01*
X70076951Y-41662733D01*
X70018449Y-41548667D01*
X69965395Y-41431499D01*
X69917954Y-41311398D01*
X69876296Y-41188530D01*
X69840586Y-41063064D01*
X69810994Y-40935165D01*
X69787686Y-40805003D01*
X69770830Y-40672745D01*
X69760594Y-40538558D01*
X69757145Y-40402627D01*
X70025241Y-40402627D01*
X70028341Y-40524799D01*
X70037540Y-40645388D01*
X70052688Y-40764245D01*
X70073634Y-40881217D01*
X70100228Y-40996155D01*
X70132319Y-41108909D01*
X70169756Y-41219327D01*
X70212389Y-41327259D01*
X70260068Y-41432554D01*
X70312642Y-41535063D01*
X70369960Y-41634633D01*
X70431872Y-41731116D01*
X70498228Y-41824359D01*
X70568876Y-41914214D01*
X70643666Y-42000528D01*
X70722448Y-42083152D01*
X70805071Y-42161935D01*
X70891385Y-42236726D01*
X70981239Y-42307375D01*
X71074482Y-42373732D01*
X71170964Y-42435645D01*
X71270535Y-42492964D01*
X71373044Y-42545539D01*
X71478340Y-42593219D01*
X71586272Y-42635853D01*
X71696691Y-42673292D01*
X71809446Y-42705383D01*
X71924386Y-42731978D01*
X72041361Y-42752924D01*
X72160219Y-42768073D01*
X72280811Y-42777272D01*
X72402987Y-42780372D01*
X72486180Y-42778938D01*
X72568720Y-42774665D01*
X72650557Y-42767598D01*
X72731639Y-42757778D01*
X72811917Y-42745252D01*
X72891338Y-42730061D01*
X72969853Y-42712249D01*
X73047411Y-42691861D01*
X73123961Y-42668941D01*
X73199452Y-42643530D01*
X73273833Y-42615675D01*
X73347054Y-42585417D01*
X73419065Y-42552801D01*
X73489813Y-42517871D01*
X73559249Y-42480669D01*
X73627322Y-42441241D01*
X73693981Y-42399629D01*
X73759175Y-42355877D01*
X73822854Y-42310030D01*
X73884966Y-42262129D01*
X73945462Y-42212220D01*
X74004290Y-42160346D01*
X74061400Y-42106551D01*
X74116740Y-42050878D01*
X74170260Y-41993371D01*
X74221910Y-41934073D01*
X74271639Y-41873029D01*
X74319395Y-41810282D01*
X74365129Y-41745876D01*
X74408789Y-41679855D01*
X74450324Y-41612261D01*
X74489685Y-41543139D01*
X74448192Y-41494695D01*
X74409819Y-41444098D01*
X74374625Y-41391508D01*
X74342671Y-41337085D01*
X74314016Y-41280986D01*
X74288722Y-41223371D01*
X74266848Y-41164400D01*
X74248454Y-41104231D01*
X74233600Y-41043023D01*
X74222347Y-40980935D01*
X74214755Y-40918127D01*
X74210884Y-40854758D01*
X74210795Y-40790986D01*
X74214547Y-40726971D01*
X74222200Y-40662871D01*
X74233815Y-40598846D01*
X74185646Y-40577843D01*
X74139014Y-40554756D01*
X74093953Y-40529661D01*
X74050497Y-40502636D01*
X74008678Y-40473758D01*
X73968528Y-40443105D01*
X73930082Y-40410753D01*
X73893372Y-40376781D01*
X73858431Y-40341265D01*
X73825293Y-40304283D01*
X73793989Y-40265912D01*
X73764554Y-40226229D01*
X73737019Y-40185311D01*
X73711419Y-40143237D01*
X73687787Y-40100082D01*
X73666154Y-40055925D01*
X73646555Y-40010842D01*
X73629022Y-39964911D01*
X73613588Y-39918210D01*
X73600286Y-39870815D01*
X73589150Y-39822804D01*
X73580212Y-39774253D01*
X73573506Y-39725242D01*
X73569064Y-39675845D01*
X73566919Y-39626142D01*
X73567104Y-39576209D01*
X73569653Y-39526123D01*
X73574598Y-39475962D01*
X73581973Y-39425803D01*
X73591810Y-39375724D01*
X73604143Y-39325801D01*
X73619004Y-39276111D01*
X73573992Y-39259029D01*
X73530096Y-39240072D01*
X73487353Y-39219298D01*
X73445803Y-39196763D01*
X73405483Y-39172523D01*
X73366432Y-39146637D01*
X73292287Y-39090151D01*
X73223677Y-39027758D01*
X73160905Y-38959914D01*
X73104278Y-38887073D01*
X73054102Y-38809689D01*
X73010683Y-38728218D01*
X72974327Y-38643115D01*
X72945340Y-38554833D01*
X72933705Y-38509642D01*
X72924028Y-38463827D01*
X72916345Y-38417445D01*
X72910696Y-38370553D01*
X72907118Y-38323207D01*
X72905651Y-38275465D01*
X72906331Y-38227382D01*
X72909198Y-38179017D01*
X72914290Y-38130426D01*
X72921644Y-38081665D01*
X72857845Y-38068393D01*
X72793678Y-38056874D01*
X72729180Y-38047114D01*
X72664386Y-38039117D01*
X72599333Y-38032889D01*
X72534058Y-38028434D01*
X72468597Y-38025757D01*
X72402987Y-38024864D01*
X72280813Y-38027964D01*
X72160222Y-38037163D01*
X72041365Y-38052312D01*
X71924391Y-38073259D01*
X71809452Y-38099854D01*
X71696698Y-38131946D01*
X71586279Y-38169385D01*
X71478347Y-38212020D01*
X71373051Y-38259700D01*
X71270543Y-38312276D01*
X71170972Y-38369596D01*
X71074490Y-38431510D01*
X70981246Y-38497867D01*
X70891392Y-38568517D01*
X70805078Y-38643309D01*
X70722455Y-38722093D01*
X70643672Y-38804717D01*
X70568881Y-38891033D01*
X70498233Y-38980888D01*
X70431877Y-39074132D01*
X70369964Y-39170615D01*
X70312646Y-39270187D01*
X70260071Y-39372696D01*
X70212392Y-39477992D01*
X70169758Y-39585925D01*
X70132320Y-39696343D01*
X70100229Y-39809097D01*
X70073635Y-39924036D01*
X70052689Y-40041009D01*
X70037541Y-40159865D01*
X70028341Y-40280455D01*
X70025241Y-40402627D01*
X69757145Y-40402627D01*
X69757145Y-40402609D01*
X69760594Y-40266661D01*
X69770831Y-40132473D01*
X69787687Y-40000215D01*
X69810995Y-39870053D01*
X69840587Y-39742155D01*
X69876297Y-39616688D01*
X69917956Y-39493820D01*
X69965397Y-39373719D01*
X70018453Y-39256552D01*
X70076955Y-39142486D01*
X70140737Y-39031689D01*
X70209630Y-38924329D01*
X70283468Y-38820573D01*
X70362083Y-38720588D01*
X70445307Y-38624543D01*
X70532972Y-38532604D01*
X70624912Y-38444939D01*
X70720958Y-38361716D01*
X70820944Y-38283102D01*
X70924701Y-38209265D01*
X71032062Y-38140372D01*
X71142859Y-38076592D01*
X71256926Y-38018090D01*
X71374094Y-37965035D01*
X71494196Y-37917595D01*
X71617064Y-37875936D01*
X71742531Y-37840227D01*
X71870430Y-37810634D01*
X72000592Y-37787327D01*
X72132851Y-37770471D01*
X72267038Y-37760234D01*
X72402987Y-37756785D01*
X72494004Y-37758332D01*
G37*
D11*
X15859580Y-17470833D02*
X15907200Y-17423214D01*
X15907200Y-17423214D02*
X15954819Y-17280357D01*
X15954819Y-17280357D02*
X15954819Y-17185119D01*
X15954819Y-17185119D02*
X15907200Y-17042262D01*
X15907200Y-17042262D02*
X15811961Y-16947024D01*
X15811961Y-16947024D02*
X15716723Y-16899405D01*
X15716723Y-16899405D02*
X15526247Y-16851786D01*
X15526247Y-16851786D02*
X15383390Y-16851786D01*
X15383390Y-16851786D02*
X15192914Y-16899405D01*
X15192914Y-16899405D02*
X15097676Y-16947024D01*
X15097676Y-16947024D02*
X15002438Y-17042262D01*
X15002438Y-17042262D02*
X14954819Y-17185119D01*
X14954819Y-17185119D02*
X14954819Y-17280357D01*
X14954819Y-17280357D02*
X15002438Y-17423214D01*
X15002438Y-17423214D02*
X15050057Y-17470833D01*
X15954819Y-17947024D02*
X15954819Y-18137500D01*
X15954819Y-18137500D02*
X15907200Y-18232738D01*
X15907200Y-18232738D02*
X15859580Y-18280357D01*
X15859580Y-18280357D02*
X15716723Y-18375595D01*
X15716723Y-18375595D02*
X15526247Y-18423214D01*
X15526247Y-18423214D02*
X15145295Y-18423214D01*
X15145295Y-18423214D02*
X15050057Y-18375595D01*
X15050057Y-18375595D02*
X15002438Y-18327976D01*
X15002438Y-18327976D02*
X14954819Y-18232738D01*
X14954819Y-18232738D02*
X14954819Y-18042262D01*
X14954819Y-18042262D02*
X15002438Y-17947024D01*
X15002438Y-17947024D02*
X15050057Y-17899405D01*
X15050057Y-17899405D02*
X15145295Y-17851786D01*
X15145295Y-17851786D02*
X15383390Y-17851786D01*
X15383390Y-17851786D02*
X15478628Y-17899405D01*
X15478628Y-17899405D02*
X15526247Y-17947024D01*
X15526247Y-17947024D02*
X15573866Y-18042262D01*
X15573866Y-18042262D02*
X15573866Y-18232738D01*
X15573866Y-18232738D02*
X15526247Y-18327976D01*
X15526247Y-18327976D02*
X15478628Y-18375595D01*
X15478628Y-18375595D02*
X15383390Y-18423214D01*
X60929580Y-16857142D02*
X60977200Y-16809523D01*
X60977200Y-16809523D02*
X61024819Y-16666666D01*
X61024819Y-16666666D02*
X61024819Y-16571428D01*
X61024819Y-16571428D02*
X60977200Y-16428571D01*
X60977200Y-16428571D02*
X60881961Y-16333333D01*
X60881961Y-16333333D02*
X60786723Y-16285714D01*
X60786723Y-16285714D02*
X60596247Y-16238095D01*
X60596247Y-16238095D02*
X60453390Y-16238095D01*
X60453390Y-16238095D02*
X60262914Y-16285714D01*
X60262914Y-16285714D02*
X60167676Y-16333333D01*
X60167676Y-16333333D02*
X60072438Y-16428571D01*
X60072438Y-16428571D02*
X60024819Y-16571428D01*
X60024819Y-16571428D02*
X60024819Y-16666666D01*
X60024819Y-16666666D02*
X60072438Y-16809523D01*
X60072438Y-16809523D02*
X60120057Y-16857142D01*
X60358152Y-17714285D02*
X61024819Y-17714285D01*
X59977200Y-17476190D02*
X60691485Y-17238095D01*
X60691485Y-17238095D02*
X60691485Y-17857142D01*
X60453390Y-18380952D02*
X60405771Y-18285714D01*
X60405771Y-18285714D02*
X60358152Y-18238095D01*
X60358152Y-18238095D02*
X60262914Y-18190476D01*
X60262914Y-18190476D02*
X60215295Y-18190476D01*
X60215295Y-18190476D02*
X60120057Y-18238095D01*
X60120057Y-18238095D02*
X60072438Y-18285714D01*
X60072438Y-18285714D02*
X60024819Y-18380952D01*
X60024819Y-18380952D02*
X60024819Y-18571428D01*
X60024819Y-18571428D02*
X60072438Y-18666666D01*
X60072438Y-18666666D02*
X60120057Y-18714285D01*
X60120057Y-18714285D02*
X60215295Y-18761904D01*
X60215295Y-18761904D02*
X60262914Y-18761904D01*
X60262914Y-18761904D02*
X60358152Y-18714285D01*
X60358152Y-18714285D02*
X60405771Y-18666666D01*
X60405771Y-18666666D02*
X60453390Y-18571428D01*
X60453390Y-18571428D02*
X60453390Y-18380952D01*
X60453390Y-18380952D02*
X60501009Y-18285714D01*
X60501009Y-18285714D02*
X60548628Y-18238095D01*
X60548628Y-18238095D02*
X60643866Y-18190476D01*
X60643866Y-18190476D02*
X60834342Y-18190476D01*
X60834342Y-18190476D02*
X60929580Y-18238095D01*
X60929580Y-18238095D02*
X60977200Y-18285714D01*
X60977200Y-18285714D02*
X61024819Y-18380952D01*
X61024819Y-18380952D02*
X61024819Y-18571428D01*
X61024819Y-18571428D02*
X60977200Y-18666666D01*
X60977200Y-18666666D02*
X60929580Y-18714285D01*
X60929580Y-18714285D02*
X60834342Y-18761904D01*
X60834342Y-18761904D02*
X60643866Y-18761904D01*
X60643866Y-18761904D02*
X60548628Y-18714285D01*
X60548628Y-18714285D02*
X60501009Y-18666666D01*
X60501009Y-18666666D02*
X60453390Y-18571428D01*
X23642857Y-31289580D02*
X23690476Y-31337200D01*
X23690476Y-31337200D02*
X23833333Y-31384819D01*
X23833333Y-31384819D02*
X23928571Y-31384819D01*
X23928571Y-31384819D02*
X24071428Y-31337200D01*
X24071428Y-31337200D02*
X24166666Y-31241961D01*
X24166666Y-31241961D02*
X24214285Y-31146723D01*
X24214285Y-31146723D02*
X24261904Y-30956247D01*
X24261904Y-30956247D02*
X24261904Y-30813390D01*
X24261904Y-30813390D02*
X24214285Y-30622914D01*
X24214285Y-30622914D02*
X24166666Y-30527676D01*
X24166666Y-30527676D02*
X24071428Y-30432438D01*
X24071428Y-30432438D02*
X23928571Y-30384819D01*
X23928571Y-30384819D02*
X23833333Y-30384819D01*
X23833333Y-30384819D02*
X23690476Y-30432438D01*
X23690476Y-30432438D02*
X23642857Y-30480057D01*
X22690476Y-31384819D02*
X23261904Y-31384819D01*
X22976190Y-31384819D02*
X22976190Y-30384819D01*
X22976190Y-30384819D02*
X23071428Y-30527676D01*
X23071428Y-30527676D02*
X23166666Y-30622914D01*
X23166666Y-30622914D02*
X23261904Y-30670533D01*
X22214285Y-31384819D02*
X22023809Y-31384819D01*
X22023809Y-31384819D02*
X21928571Y-31337200D01*
X21928571Y-31337200D02*
X21880952Y-31289580D01*
X21880952Y-31289580D02*
X21785714Y-31146723D01*
X21785714Y-31146723D02*
X21738095Y-30956247D01*
X21738095Y-30956247D02*
X21738095Y-30575295D01*
X21738095Y-30575295D02*
X21785714Y-30480057D01*
X21785714Y-30480057D02*
X21833333Y-30432438D01*
X21833333Y-30432438D02*
X21928571Y-30384819D01*
X21928571Y-30384819D02*
X22119047Y-30384819D01*
X22119047Y-30384819D02*
X22214285Y-30432438D01*
X22214285Y-30432438D02*
X22261904Y-30480057D01*
X22261904Y-30480057D02*
X22309523Y-30575295D01*
X22309523Y-30575295D02*
X22309523Y-30813390D01*
X22309523Y-30813390D02*
X22261904Y-30908628D01*
X22261904Y-30908628D02*
X22214285Y-30956247D01*
X22214285Y-30956247D02*
X22119047Y-31003866D01*
X22119047Y-31003866D02*
X21928571Y-31003866D01*
X21928571Y-31003866D02*
X21833333Y-30956247D01*
X21833333Y-30956247D02*
X21785714Y-30908628D01*
X21785714Y-30908628D02*
X21738095Y-30813390D01*
X52929580Y-16857142D02*
X52977200Y-16809523D01*
X52977200Y-16809523D02*
X53024819Y-16666666D01*
X53024819Y-16666666D02*
X53024819Y-16571428D01*
X53024819Y-16571428D02*
X52977200Y-16428571D01*
X52977200Y-16428571D02*
X52881961Y-16333333D01*
X52881961Y-16333333D02*
X52786723Y-16285714D01*
X52786723Y-16285714D02*
X52596247Y-16238095D01*
X52596247Y-16238095D02*
X52453390Y-16238095D01*
X52453390Y-16238095D02*
X52262914Y-16285714D01*
X52262914Y-16285714D02*
X52167676Y-16333333D01*
X52167676Y-16333333D02*
X52072438Y-16428571D01*
X52072438Y-16428571D02*
X52024819Y-16571428D01*
X52024819Y-16571428D02*
X52024819Y-16666666D01*
X52024819Y-16666666D02*
X52072438Y-16809523D01*
X52072438Y-16809523D02*
X52120057Y-16857142D01*
X53024819Y-17809523D02*
X53024819Y-17238095D01*
X53024819Y-17523809D02*
X52024819Y-17523809D01*
X52024819Y-17523809D02*
X52167676Y-17428571D01*
X52167676Y-17428571D02*
X52262914Y-17333333D01*
X52262914Y-17333333D02*
X52310533Y-17238095D01*
X52358152Y-18666666D02*
X53024819Y-18666666D01*
X51977200Y-18428571D02*
X52691485Y-18190476D01*
X52691485Y-18190476D02*
X52691485Y-18809523D01*
X68929580Y-16994642D02*
X68977200Y-16947023D01*
X68977200Y-16947023D02*
X69024819Y-16804166D01*
X69024819Y-16804166D02*
X69024819Y-16708928D01*
X69024819Y-16708928D02*
X68977200Y-16566071D01*
X68977200Y-16566071D02*
X68881961Y-16470833D01*
X68881961Y-16470833D02*
X68786723Y-16423214D01*
X68786723Y-16423214D02*
X68596247Y-16375595D01*
X68596247Y-16375595D02*
X68453390Y-16375595D01*
X68453390Y-16375595D02*
X68262914Y-16423214D01*
X68262914Y-16423214D02*
X68167676Y-16470833D01*
X68167676Y-16470833D02*
X68072438Y-16566071D01*
X68072438Y-16566071D02*
X68024819Y-16708928D01*
X68024819Y-16708928D02*
X68024819Y-16804166D01*
X68024819Y-16804166D02*
X68072438Y-16947023D01*
X68072438Y-16947023D02*
X68120057Y-16994642D01*
X69024819Y-17947023D02*
X69024819Y-17375595D01*
X69024819Y-17661309D02*
X68024819Y-17661309D01*
X68024819Y-17661309D02*
X68167676Y-17566071D01*
X68167676Y-17566071D02*
X68262914Y-17470833D01*
X68262914Y-17470833D02*
X68310533Y-17375595D01*
X68024819Y-18851785D02*
X68024819Y-18375595D01*
X68024819Y-18375595D02*
X68501009Y-18327976D01*
X68501009Y-18327976D02*
X68453390Y-18375595D01*
X68453390Y-18375595D02*
X68405771Y-18470833D01*
X68405771Y-18470833D02*
X68405771Y-18708928D01*
X68405771Y-18708928D02*
X68453390Y-18804166D01*
X68453390Y-18804166D02*
X68501009Y-18851785D01*
X68501009Y-18851785D02*
X68596247Y-18899404D01*
X68596247Y-18899404D02*
X68834342Y-18899404D01*
X68834342Y-18899404D02*
X68929580Y-18851785D01*
X68929580Y-18851785D02*
X68977200Y-18804166D01*
X68977200Y-18804166D02*
X69024819Y-18708928D01*
X69024819Y-18708928D02*
X69024819Y-18470833D01*
X69024819Y-18470833D02*
X68977200Y-18375595D01*
X68977200Y-18375595D02*
X68929580Y-18327976D01*
X61666666Y-35429580D02*
X61714285Y-35477200D01*
X61714285Y-35477200D02*
X61857142Y-35524819D01*
X61857142Y-35524819D02*
X61952380Y-35524819D01*
X61952380Y-35524819D02*
X62095237Y-35477200D01*
X62095237Y-35477200D02*
X62190475Y-35381961D01*
X62190475Y-35381961D02*
X62238094Y-35286723D01*
X62238094Y-35286723D02*
X62285713Y-35096247D01*
X62285713Y-35096247D02*
X62285713Y-34953390D01*
X62285713Y-34953390D02*
X62238094Y-34762914D01*
X62238094Y-34762914D02*
X62190475Y-34667676D01*
X62190475Y-34667676D02*
X62095237Y-34572438D01*
X62095237Y-34572438D02*
X61952380Y-34524819D01*
X61952380Y-34524819D02*
X61857142Y-34524819D01*
X61857142Y-34524819D02*
X61714285Y-34572438D01*
X61714285Y-34572438D02*
X61666666Y-34620057D01*
X61333332Y-34524819D02*
X60714285Y-34524819D01*
X60714285Y-34524819D02*
X61047618Y-34905771D01*
X61047618Y-34905771D02*
X60904761Y-34905771D01*
X60904761Y-34905771D02*
X60809523Y-34953390D01*
X60809523Y-34953390D02*
X60761904Y-35001009D01*
X60761904Y-35001009D02*
X60714285Y-35096247D01*
X60714285Y-35096247D02*
X60714285Y-35334342D01*
X60714285Y-35334342D02*
X60761904Y-35429580D01*
X60761904Y-35429580D02*
X60809523Y-35477200D01*
X60809523Y-35477200D02*
X60904761Y-35524819D01*
X60904761Y-35524819D02*
X61190475Y-35524819D01*
X61190475Y-35524819D02*
X61285713Y-35477200D01*
X61285713Y-35477200D02*
X61333332Y-35429580D01*
X36929580Y-16857142D02*
X36977200Y-16809523D01*
X36977200Y-16809523D02*
X37024819Y-16666666D01*
X37024819Y-16666666D02*
X37024819Y-16571428D01*
X37024819Y-16571428D02*
X36977200Y-16428571D01*
X36977200Y-16428571D02*
X36881961Y-16333333D01*
X36881961Y-16333333D02*
X36786723Y-16285714D01*
X36786723Y-16285714D02*
X36596247Y-16238095D01*
X36596247Y-16238095D02*
X36453390Y-16238095D01*
X36453390Y-16238095D02*
X36262914Y-16285714D01*
X36262914Y-16285714D02*
X36167676Y-16333333D01*
X36167676Y-16333333D02*
X36072438Y-16428571D01*
X36072438Y-16428571D02*
X36024819Y-16571428D01*
X36024819Y-16571428D02*
X36024819Y-16666666D01*
X36024819Y-16666666D02*
X36072438Y-16809523D01*
X36072438Y-16809523D02*
X36120057Y-16857142D01*
X37024819Y-17809523D02*
X37024819Y-17238095D01*
X37024819Y-17523809D02*
X36024819Y-17523809D01*
X36024819Y-17523809D02*
X36167676Y-17428571D01*
X36167676Y-17428571D02*
X36262914Y-17333333D01*
X36262914Y-17333333D02*
X36310533Y-17238095D01*
X36120057Y-18190476D02*
X36072438Y-18238095D01*
X36072438Y-18238095D02*
X36024819Y-18333333D01*
X36024819Y-18333333D02*
X36024819Y-18571428D01*
X36024819Y-18571428D02*
X36072438Y-18666666D01*
X36072438Y-18666666D02*
X36120057Y-18714285D01*
X36120057Y-18714285D02*
X36215295Y-18761904D01*
X36215295Y-18761904D02*
X36310533Y-18761904D01*
X36310533Y-18761904D02*
X36453390Y-18714285D01*
X36453390Y-18714285D02*
X37024819Y-18142857D01*
X37024819Y-18142857D02*
X37024819Y-18761904D01*
X31304166Y-32929580D02*
X31351785Y-32977200D01*
X31351785Y-32977200D02*
X31494642Y-33024819D01*
X31494642Y-33024819D02*
X31589880Y-33024819D01*
X31589880Y-33024819D02*
X31732737Y-32977200D01*
X31732737Y-32977200D02*
X31827975Y-32881961D01*
X31827975Y-32881961D02*
X31875594Y-32786723D01*
X31875594Y-32786723D02*
X31923213Y-32596247D01*
X31923213Y-32596247D02*
X31923213Y-32453390D01*
X31923213Y-32453390D02*
X31875594Y-32262914D01*
X31875594Y-32262914D02*
X31827975Y-32167676D01*
X31827975Y-32167676D02*
X31732737Y-32072438D01*
X31732737Y-32072438D02*
X31589880Y-32024819D01*
X31589880Y-32024819D02*
X31494642Y-32024819D01*
X31494642Y-32024819D02*
X31351785Y-32072438D01*
X31351785Y-32072438D02*
X31304166Y-32120057D01*
X30732737Y-32453390D02*
X30827975Y-32405771D01*
X30827975Y-32405771D02*
X30875594Y-32358152D01*
X30875594Y-32358152D02*
X30923213Y-32262914D01*
X30923213Y-32262914D02*
X30923213Y-32215295D01*
X30923213Y-32215295D02*
X30875594Y-32120057D01*
X30875594Y-32120057D02*
X30827975Y-32072438D01*
X30827975Y-32072438D02*
X30732737Y-32024819D01*
X30732737Y-32024819D02*
X30542261Y-32024819D01*
X30542261Y-32024819D02*
X30447023Y-32072438D01*
X30447023Y-32072438D02*
X30399404Y-32120057D01*
X30399404Y-32120057D02*
X30351785Y-32215295D01*
X30351785Y-32215295D02*
X30351785Y-32262914D01*
X30351785Y-32262914D02*
X30399404Y-32358152D01*
X30399404Y-32358152D02*
X30447023Y-32405771D01*
X30447023Y-32405771D02*
X30542261Y-32453390D01*
X30542261Y-32453390D02*
X30732737Y-32453390D01*
X30732737Y-32453390D02*
X30827975Y-32501009D01*
X30827975Y-32501009D02*
X30875594Y-32548628D01*
X30875594Y-32548628D02*
X30923213Y-32643866D01*
X30923213Y-32643866D02*
X30923213Y-32834342D01*
X30923213Y-32834342D02*
X30875594Y-32929580D01*
X30875594Y-32929580D02*
X30827975Y-32977200D01*
X30827975Y-32977200D02*
X30732737Y-33024819D01*
X30732737Y-33024819D02*
X30542261Y-33024819D01*
X30542261Y-33024819D02*
X30447023Y-32977200D01*
X30447023Y-32977200D02*
X30399404Y-32929580D01*
X30399404Y-32929580D02*
X30351785Y-32834342D01*
X30351785Y-32834342D02*
X30351785Y-32643866D01*
X30351785Y-32643866D02*
X30399404Y-32548628D01*
X30399404Y-32548628D02*
X30447023Y-32501009D01*
X30447023Y-32501009D02*
X30542261Y-32453390D01*
X19289580Y-29719642D02*
X19337200Y-29672023D01*
X19337200Y-29672023D02*
X19384819Y-29529166D01*
X19384819Y-29529166D02*
X19384819Y-29433928D01*
X19384819Y-29433928D02*
X19337200Y-29291071D01*
X19337200Y-29291071D02*
X19241961Y-29195833D01*
X19241961Y-29195833D02*
X19146723Y-29148214D01*
X19146723Y-29148214D02*
X18956247Y-29100595D01*
X18956247Y-29100595D02*
X18813390Y-29100595D01*
X18813390Y-29100595D02*
X18622914Y-29148214D01*
X18622914Y-29148214D02*
X18527676Y-29195833D01*
X18527676Y-29195833D02*
X18432438Y-29291071D01*
X18432438Y-29291071D02*
X18384819Y-29433928D01*
X18384819Y-29433928D02*
X18384819Y-29529166D01*
X18384819Y-29529166D02*
X18432438Y-29672023D01*
X18432438Y-29672023D02*
X18480057Y-29719642D01*
X18480057Y-30100595D02*
X18432438Y-30148214D01*
X18432438Y-30148214D02*
X18384819Y-30243452D01*
X18384819Y-30243452D02*
X18384819Y-30481547D01*
X18384819Y-30481547D02*
X18432438Y-30576785D01*
X18432438Y-30576785D02*
X18480057Y-30624404D01*
X18480057Y-30624404D02*
X18575295Y-30672023D01*
X18575295Y-30672023D02*
X18670533Y-30672023D01*
X18670533Y-30672023D02*
X18813390Y-30624404D01*
X18813390Y-30624404D02*
X19384819Y-30052976D01*
X19384819Y-30052976D02*
X19384819Y-30672023D01*
X18384819Y-31291071D02*
X18384819Y-31386309D01*
X18384819Y-31386309D02*
X18432438Y-31481547D01*
X18432438Y-31481547D02*
X18480057Y-31529166D01*
X18480057Y-31529166D02*
X18575295Y-31576785D01*
X18575295Y-31576785D02*
X18765771Y-31624404D01*
X18765771Y-31624404D02*
X19003866Y-31624404D01*
X19003866Y-31624404D02*
X19194342Y-31576785D01*
X19194342Y-31576785D02*
X19289580Y-31529166D01*
X19289580Y-31529166D02*
X19337200Y-31481547D01*
X19337200Y-31481547D02*
X19384819Y-31386309D01*
X19384819Y-31386309D02*
X19384819Y-31291071D01*
X19384819Y-31291071D02*
X19337200Y-31195833D01*
X19337200Y-31195833D02*
X19289580Y-31148214D01*
X19289580Y-31148214D02*
X19194342Y-31100595D01*
X19194342Y-31100595D02*
X19003866Y-31052976D01*
X19003866Y-31052976D02*
X18765771Y-31052976D01*
X18765771Y-31052976D02*
X18575295Y-31100595D01*
X18575295Y-31100595D02*
X18480057Y-31148214D01*
X18480057Y-31148214D02*
X18432438Y-31195833D01*
X18432438Y-31195833D02*
X18384819Y-31291071D01*
X32780357Y-28429580D02*
X32827976Y-28477200D01*
X32827976Y-28477200D02*
X32970833Y-28524819D01*
X32970833Y-28524819D02*
X33066071Y-28524819D01*
X33066071Y-28524819D02*
X33208928Y-28477200D01*
X33208928Y-28477200D02*
X33304166Y-28381961D01*
X33304166Y-28381961D02*
X33351785Y-28286723D01*
X33351785Y-28286723D02*
X33399404Y-28096247D01*
X33399404Y-28096247D02*
X33399404Y-27953390D01*
X33399404Y-27953390D02*
X33351785Y-27762914D01*
X33351785Y-27762914D02*
X33304166Y-27667676D01*
X33304166Y-27667676D02*
X33208928Y-27572438D01*
X33208928Y-27572438D02*
X33066071Y-27524819D01*
X33066071Y-27524819D02*
X32970833Y-27524819D01*
X32970833Y-27524819D02*
X32827976Y-27572438D01*
X32827976Y-27572438D02*
X32780357Y-27620057D01*
X31827976Y-28524819D02*
X32399404Y-28524819D01*
X32113690Y-28524819D02*
X32113690Y-27524819D01*
X32113690Y-27524819D02*
X32208928Y-27667676D01*
X32208928Y-27667676D02*
X32304166Y-27762914D01*
X32304166Y-27762914D02*
X32399404Y-27810533D01*
X31256547Y-27953390D02*
X31351785Y-27905771D01*
X31351785Y-27905771D02*
X31399404Y-27858152D01*
X31399404Y-27858152D02*
X31447023Y-27762914D01*
X31447023Y-27762914D02*
X31447023Y-27715295D01*
X31447023Y-27715295D02*
X31399404Y-27620057D01*
X31399404Y-27620057D02*
X31351785Y-27572438D01*
X31351785Y-27572438D02*
X31256547Y-27524819D01*
X31256547Y-27524819D02*
X31066071Y-27524819D01*
X31066071Y-27524819D02*
X30970833Y-27572438D01*
X30970833Y-27572438D02*
X30923214Y-27620057D01*
X30923214Y-27620057D02*
X30875595Y-27715295D01*
X30875595Y-27715295D02*
X30875595Y-27762914D01*
X30875595Y-27762914D02*
X30923214Y-27858152D01*
X30923214Y-27858152D02*
X30970833Y-27905771D01*
X30970833Y-27905771D02*
X31066071Y-27953390D01*
X31066071Y-27953390D02*
X31256547Y-27953390D01*
X31256547Y-27953390D02*
X31351785Y-28001009D01*
X31351785Y-28001009D02*
X31399404Y-28048628D01*
X31399404Y-28048628D02*
X31447023Y-28143866D01*
X31447023Y-28143866D02*
X31447023Y-28334342D01*
X31447023Y-28334342D02*
X31399404Y-28429580D01*
X31399404Y-28429580D02*
X31351785Y-28477200D01*
X31351785Y-28477200D02*
X31256547Y-28524819D01*
X31256547Y-28524819D02*
X31066071Y-28524819D01*
X31066071Y-28524819D02*
X30970833Y-28477200D01*
X30970833Y-28477200D02*
X30923214Y-28429580D01*
X30923214Y-28429580D02*
X30875595Y-28334342D01*
X30875595Y-28334342D02*
X30875595Y-28143866D01*
X30875595Y-28143866D02*
X30923214Y-28048628D01*
X30923214Y-28048628D02*
X30970833Y-28001009D01*
X30970833Y-28001009D02*
X31066071Y-27953390D01*
X38142857Y-28429580D02*
X38190476Y-28477200D01*
X38190476Y-28477200D02*
X38333333Y-28524819D01*
X38333333Y-28524819D02*
X38428571Y-28524819D01*
X38428571Y-28524819D02*
X38571428Y-28477200D01*
X38571428Y-28477200D02*
X38666666Y-28381961D01*
X38666666Y-28381961D02*
X38714285Y-28286723D01*
X38714285Y-28286723D02*
X38761904Y-28096247D01*
X38761904Y-28096247D02*
X38761904Y-27953390D01*
X38761904Y-27953390D02*
X38714285Y-27762914D01*
X38714285Y-27762914D02*
X38666666Y-27667676D01*
X38666666Y-27667676D02*
X38571428Y-27572438D01*
X38571428Y-27572438D02*
X38428571Y-27524819D01*
X38428571Y-27524819D02*
X38333333Y-27524819D01*
X38333333Y-27524819D02*
X38190476Y-27572438D01*
X38190476Y-27572438D02*
X38142857Y-27620057D01*
X37190476Y-28524819D02*
X37761904Y-28524819D01*
X37476190Y-28524819D02*
X37476190Y-27524819D01*
X37476190Y-27524819D02*
X37571428Y-27667676D01*
X37571428Y-27667676D02*
X37666666Y-27762914D01*
X37666666Y-27762914D02*
X37761904Y-27810533D01*
X36857142Y-27524819D02*
X36190476Y-27524819D01*
X36190476Y-27524819D02*
X36619047Y-28524819D01*
X56529166Y-37789580D02*
X56576785Y-37837200D01*
X56576785Y-37837200D02*
X56719642Y-37884819D01*
X56719642Y-37884819D02*
X56814880Y-37884819D01*
X56814880Y-37884819D02*
X56957737Y-37837200D01*
X56957737Y-37837200D02*
X57052975Y-37741961D01*
X57052975Y-37741961D02*
X57100594Y-37646723D01*
X57100594Y-37646723D02*
X57148213Y-37456247D01*
X57148213Y-37456247D02*
X57148213Y-37313390D01*
X57148213Y-37313390D02*
X57100594Y-37122914D01*
X57100594Y-37122914D02*
X57052975Y-37027676D01*
X57052975Y-37027676D02*
X56957737Y-36932438D01*
X56957737Y-36932438D02*
X56814880Y-36884819D01*
X56814880Y-36884819D02*
X56719642Y-36884819D01*
X56719642Y-36884819D02*
X56576785Y-36932438D01*
X56576785Y-36932438D02*
X56529166Y-36980057D01*
X56148213Y-36980057D02*
X56100594Y-36932438D01*
X56100594Y-36932438D02*
X56005356Y-36884819D01*
X56005356Y-36884819D02*
X55767261Y-36884819D01*
X55767261Y-36884819D02*
X55672023Y-36932438D01*
X55672023Y-36932438D02*
X55624404Y-36980057D01*
X55624404Y-36980057D02*
X55576785Y-37075295D01*
X55576785Y-37075295D02*
X55576785Y-37170533D01*
X55576785Y-37170533D02*
X55624404Y-37313390D01*
X55624404Y-37313390D02*
X56195832Y-37884819D01*
X56195832Y-37884819D02*
X55576785Y-37884819D01*
X20929580Y-16994642D02*
X20977200Y-16947023D01*
X20977200Y-16947023D02*
X21024819Y-16804166D01*
X21024819Y-16804166D02*
X21024819Y-16708928D01*
X21024819Y-16708928D02*
X20977200Y-16566071D01*
X20977200Y-16566071D02*
X20881961Y-16470833D01*
X20881961Y-16470833D02*
X20786723Y-16423214D01*
X20786723Y-16423214D02*
X20596247Y-16375595D01*
X20596247Y-16375595D02*
X20453390Y-16375595D01*
X20453390Y-16375595D02*
X20262914Y-16423214D01*
X20262914Y-16423214D02*
X20167676Y-16470833D01*
X20167676Y-16470833D02*
X20072438Y-16566071D01*
X20072438Y-16566071D02*
X20024819Y-16708928D01*
X20024819Y-16708928D02*
X20024819Y-16804166D01*
X20024819Y-16804166D02*
X20072438Y-16947023D01*
X20072438Y-16947023D02*
X20120057Y-16994642D01*
X21024819Y-17947023D02*
X21024819Y-17375595D01*
X21024819Y-17661309D02*
X20024819Y-17661309D01*
X20024819Y-17661309D02*
X20167676Y-17566071D01*
X20167676Y-17566071D02*
X20262914Y-17470833D01*
X20262914Y-17470833D02*
X20310533Y-17375595D01*
X20024819Y-18566071D02*
X20024819Y-18661309D01*
X20024819Y-18661309D02*
X20072438Y-18756547D01*
X20072438Y-18756547D02*
X20120057Y-18804166D01*
X20120057Y-18804166D02*
X20215295Y-18851785D01*
X20215295Y-18851785D02*
X20405771Y-18899404D01*
X20405771Y-18899404D02*
X20643866Y-18899404D01*
X20643866Y-18899404D02*
X20834342Y-18851785D01*
X20834342Y-18851785D02*
X20929580Y-18804166D01*
X20929580Y-18804166D02*
X20977200Y-18756547D01*
X20977200Y-18756547D02*
X21024819Y-18661309D01*
X21024819Y-18661309D02*
X21024819Y-18566071D01*
X21024819Y-18566071D02*
X20977200Y-18470833D01*
X20977200Y-18470833D02*
X20929580Y-18423214D01*
X20929580Y-18423214D02*
X20834342Y-18375595D01*
X20834342Y-18375595D02*
X20643866Y-18327976D01*
X20643866Y-18327976D02*
X20405771Y-18327976D01*
X20405771Y-18327976D02*
X20215295Y-18375595D01*
X20215295Y-18375595D02*
X20120057Y-18423214D01*
X20120057Y-18423214D02*
X20072438Y-18470833D01*
X20072438Y-18470833D02*
X20024819Y-18566071D01*
X53029166Y-28429580D02*
X53076785Y-28477200D01*
X53076785Y-28477200D02*
X53219642Y-28524819D01*
X53219642Y-28524819D02*
X53314880Y-28524819D01*
X53314880Y-28524819D02*
X53457737Y-28477200D01*
X53457737Y-28477200D02*
X53552975Y-28381961D01*
X53552975Y-28381961D02*
X53600594Y-28286723D01*
X53600594Y-28286723D02*
X53648213Y-28096247D01*
X53648213Y-28096247D02*
X53648213Y-27953390D01*
X53648213Y-27953390D02*
X53600594Y-27762914D01*
X53600594Y-27762914D02*
X53552975Y-27667676D01*
X53552975Y-27667676D02*
X53457737Y-27572438D01*
X53457737Y-27572438D02*
X53314880Y-27524819D01*
X53314880Y-27524819D02*
X53219642Y-27524819D01*
X53219642Y-27524819D02*
X53076785Y-27572438D01*
X53076785Y-27572438D02*
X53029166Y-27620057D01*
X52172023Y-27524819D02*
X52362499Y-27524819D01*
X52362499Y-27524819D02*
X52457737Y-27572438D01*
X52457737Y-27572438D02*
X52505356Y-27620057D01*
X52505356Y-27620057D02*
X52600594Y-27762914D01*
X52600594Y-27762914D02*
X52648213Y-27953390D01*
X52648213Y-27953390D02*
X52648213Y-28334342D01*
X52648213Y-28334342D02*
X52600594Y-28429580D01*
X52600594Y-28429580D02*
X52552975Y-28477200D01*
X52552975Y-28477200D02*
X52457737Y-28524819D01*
X52457737Y-28524819D02*
X52267261Y-28524819D01*
X52267261Y-28524819D02*
X52172023Y-28477200D01*
X52172023Y-28477200D02*
X52124404Y-28429580D01*
X52124404Y-28429580D02*
X52076785Y-28334342D01*
X52076785Y-28334342D02*
X52076785Y-28096247D01*
X52076785Y-28096247D02*
X52124404Y-28001009D01*
X52124404Y-28001009D02*
X52172023Y-27953390D01*
X52172023Y-27953390D02*
X52267261Y-27905771D01*
X52267261Y-27905771D02*
X52457737Y-27905771D01*
X52457737Y-27905771D02*
X52552975Y-27953390D01*
X52552975Y-27953390D02*
X52600594Y-28001009D01*
X52600594Y-28001009D02*
X52648213Y-28096247D01*
X45505357Y-28929580D02*
X45552976Y-28977200D01*
X45552976Y-28977200D02*
X45695833Y-29024819D01*
X45695833Y-29024819D02*
X45791071Y-29024819D01*
X45791071Y-29024819D02*
X45933928Y-28977200D01*
X45933928Y-28977200D02*
X46029166Y-28881961D01*
X46029166Y-28881961D02*
X46076785Y-28786723D01*
X46076785Y-28786723D02*
X46124404Y-28596247D01*
X46124404Y-28596247D02*
X46124404Y-28453390D01*
X46124404Y-28453390D02*
X46076785Y-28262914D01*
X46076785Y-28262914D02*
X46029166Y-28167676D01*
X46029166Y-28167676D02*
X45933928Y-28072438D01*
X45933928Y-28072438D02*
X45791071Y-28024819D01*
X45791071Y-28024819D02*
X45695833Y-28024819D01*
X45695833Y-28024819D02*
X45552976Y-28072438D01*
X45552976Y-28072438D02*
X45505357Y-28120057D01*
X44552976Y-29024819D02*
X45124404Y-29024819D01*
X44838690Y-29024819D02*
X44838690Y-28024819D01*
X44838690Y-28024819D02*
X44933928Y-28167676D01*
X44933928Y-28167676D02*
X45029166Y-28262914D01*
X45029166Y-28262914D02*
X45124404Y-28310533D01*
X43695833Y-28024819D02*
X43886309Y-28024819D01*
X43886309Y-28024819D02*
X43981547Y-28072438D01*
X43981547Y-28072438D02*
X44029166Y-28120057D01*
X44029166Y-28120057D02*
X44124404Y-28262914D01*
X44124404Y-28262914D02*
X44172023Y-28453390D01*
X44172023Y-28453390D02*
X44172023Y-28834342D01*
X44172023Y-28834342D02*
X44124404Y-28929580D01*
X44124404Y-28929580D02*
X44076785Y-28977200D01*
X44076785Y-28977200D02*
X43981547Y-29024819D01*
X43981547Y-29024819D02*
X43791071Y-29024819D01*
X43791071Y-29024819D02*
X43695833Y-28977200D01*
X43695833Y-28977200D02*
X43648214Y-28929580D01*
X43648214Y-28929580D02*
X43600595Y-28834342D01*
X43600595Y-28834342D02*
X43600595Y-28596247D01*
X43600595Y-28596247D02*
X43648214Y-28501009D01*
X43648214Y-28501009D02*
X43695833Y-28453390D01*
X43695833Y-28453390D02*
X43791071Y-28405771D01*
X43791071Y-28405771D02*
X43981547Y-28405771D01*
X43981547Y-28405771D02*
X44076785Y-28453390D01*
X44076785Y-28453390D02*
X44124404Y-28501009D01*
X44124404Y-28501009D02*
X44172023Y-28596247D01*
X18529166Y-35289580D02*
X18576785Y-35337200D01*
X18576785Y-35337200D02*
X18719642Y-35384819D01*
X18719642Y-35384819D02*
X18814880Y-35384819D01*
X18814880Y-35384819D02*
X18957737Y-35337200D01*
X18957737Y-35337200D02*
X19052975Y-35241961D01*
X19052975Y-35241961D02*
X19100594Y-35146723D01*
X19100594Y-35146723D02*
X19148213Y-34956247D01*
X19148213Y-34956247D02*
X19148213Y-34813390D01*
X19148213Y-34813390D02*
X19100594Y-34622914D01*
X19100594Y-34622914D02*
X19052975Y-34527676D01*
X19052975Y-34527676D02*
X18957737Y-34432438D01*
X18957737Y-34432438D02*
X18814880Y-34384819D01*
X18814880Y-34384819D02*
X18719642Y-34384819D01*
X18719642Y-34384819D02*
X18576785Y-34432438D01*
X18576785Y-34432438D02*
X18529166Y-34480057D01*
X18195832Y-34384819D02*
X17529166Y-34384819D01*
X17529166Y-34384819D02*
X17957737Y-35384819D01*
X70666666Y-32789580D02*
X70714285Y-32837200D01*
X70714285Y-32837200D02*
X70857142Y-32884819D01*
X70857142Y-32884819D02*
X70952380Y-32884819D01*
X70952380Y-32884819D02*
X71095237Y-32837200D01*
X71095237Y-32837200D02*
X71190475Y-32741961D01*
X71190475Y-32741961D02*
X71238094Y-32646723D01*
X71238094Y-32646723D02*
X71285713Y-32456247D01*
X71285713Y-32456247D02*
X71285713Y-32313390D01*
X71285713Y-32313390D02*
X71238094Y-32122914D01*
X71238094Y-32122914D02*
X71190475Y-32027676D01*
X71190475Y-32027676D02*
X71095237Y-31932438D01*
X71095237Y-31932438D02*
X70952380Y-31884819D01*
X70952380Y-31884819D02*
X70857142Y-31884819D01*
X70857142Y-31884819D02*
X70714285Y-31932438D01*
X70714285Y-31932438D02*
X70666666Y-31980057D01*
X69809523Y-32218152D02*
X69809523Y-32884819D01*
X70047618Y-31837200D02*
X70285713Y-32551485D01*
X70285713Y-32551485D02*
X69666666Y-32551485D01*
X62529166Y-31289580D02*
X62576785Y-31337200D01*
X62576785Y-31337200D02*
X62719642Y-31384819D01*
X62719642Y-31384819D02*
X62814880Y-31384819D01*
X62814880Y-31384819D02*
X62957737Y-31337200D01*
X62957737Y-31337200D02*
X63052975Y-31241961D01*
X63052975Y-31241961D02*
X63100594Y-31146723D01*
X63100594Y-31146723D02*
X63148213Y-30956247D01*
X63148213Y-30956247D02*
X63148213Y-30813390D01*
X63148213Y-30813390D02*
X63100594Y-30622914D01*
X63100594Y-30622914D02*
X63052975Y-30527676D01*
X63052975Y-30527676D02*
X62957737Y-30432438D01*
X62957737Y-30432438D02*
X62814880Y-30384819D01*
X62814880Y-30384819D02*
X62719642Y-30384819D01*
X62719642Y-30384819D02*
X62576785Y-30432438D01*
X62576785Y-30432438D02*
X62529166Y-30480057D01*
X61624404Y-30384819D02*
X62100594Y-30384819D01*
X62100594Y-30384819D02*
X62148213Y-30861009D01*
X62148213Y-30861009D02*
X62100594Y-30813390D01*
X62100594Y-30813390D02*
X62005356Y-30765771D01*
X62005356Y-30765771D02*
X61767261Y-30765771D01*
X61767261Y-30765771D02*
X61672023Y-30813390D01*
X61672023Y-30813390D02*
X61624404Y-30861009D01*
X61624404Y-30861009D02*
X61576785Y-30956247D01*
X61576785Y-30956247D02*
X61576785Y-31194342D01*
X61576785Y-31194342D02*
X61624404Y-31289580D01*
X61624404Y-31289580D02*
X61672023Y-31337200D01*
X61672023Y-31337200D02*
X61767261Y-31384819D01*
X61767261Y-31384819D02*
X62005356Y-31384819D01*
X62005356Y-31384819D02*
X62100594Y-31337200D01*
X62100594Y-31337200D02*
X62148213Y-31289580D01*
X44929580Y-16857142D02*
X44977200Y-16809523D01*
X44977200Y-16809523D02*
X45024819Y-16666666D01*
X45024819Y-16666666D02*
X45024819Y-16571428D01*
X45024819Y-16571428D02*
X44977200Y-16428571D01*
X44977200Y-16428571D02*
X44881961Y-16333333D01*
X44881961Y-16333333D02*
X44786723Y-16285714D01*
X44786723Y-16285714D02*
X44596247Y-16238095D01*
X44596247Y-16238095D02*
X44453390Y-16238095D01*
X44453390Y-16238095D02*
X44262914Y-16285714D01*
X44262914Y-16285714D02*
X44167676Y-16333333D01*
X44167676Y-16333333D02*
X44072438Y-16428571D01*
X44072438Y-16428571D02*
X44024819Y-16571428D01*
X44024819Y-16571428D02*
X44024819Y-16666666D01*
X44024819Y-16666666D02*
X44072438Y-16809523D01*
X44072438Y-16809523D02*
X44120057Y-16857142D01*
X45024819Y-17809523D02*
X45024819Y-17238095D01*
X45024819Y-17523809D02*
X44024819Y-17523809D01*
X44024819Y-17523809D02*
X44167676Y-17428571D01*
X44167676Y-17428571D02*
X44262914Y-17333333D01*
X44262914Y-17333333D02*
X44310533Y-17238095D01*
X44024819Y-18142857D02*
X44024819Y-18761904D01*
X44024819Y-18761904D02*
X44405771Y-18428571D01*
X44405771Y-18428571D02*
X44405771Y-18571428D01*
X44405771Y-18571428D02*
X44453390Y-18666666D01*
X44453390Y-18666666D02*
X44501009Y-18714285D01*
X44501009Y-18714285D02*
X44596247Y-18761904D01*
X44596247Y-18761904D02*
X44834342Y-18761904D01*
X44834342Y-18761904D02*
X44929580Y-18714285D01*
X44929580Y-18714285D02*
X44977200Y-18666666D01*
X44977200Y-18666666D02*
X45024819Y-18571428D01*
X45024819Y-18571428D02*
X45024819Y-18285714D01*
X45024819Y-18285714D02*
X44977200Y-18190476D01*
X44977200Y-18190476D02*
X44929580Y-18142857D01*
X43929580Y-33333333D02*
X43977200Y-33285714D01*
X43977200Y-33285714D02*
X44024819Y-33142857D01*
X44024819Y-33142857D02*
X44024819Y-33047619D01*
X44024819Y-33047619D02*
X43977200Y-32904762D01*
X43977200Y-32904762D02*
X43881961Y-32809524D01*
X43881961Y-32809524D02*
X43786723Y-32761905D01*
X43786723Y-32761905D02*
X43596247Y-32714286D01*
X43596247Y-32714286D02*
X43453390Y-32714286D01*
X43453390Y-32714286D02*
X43262914Y-32761905D01*
X43262914Y-32761905D02*
X43167676Y-32809524D01*
X43167676Y-32809524D02*
X43072438Y-32904762D01*
X43072438Y-32904762D02*
X43024819Y-33047619D01*
X43024819Y-33047619D02*
X43024819Y-33142857D01*
X43024819Y-33142857D02*
X43072438Y-33285714D01*
X43072438Y-33285714D02*
X43120057Y-33333333D01*
X44024819Y-34285714D02*
X44024819Y-33714286D01*
X44024819Y-34000000D02*
X43024819Y-34000000D01*
X43024819Y-34000000D02*
X43167676Y-33904762D01*
X43167676Y-33904762D02*
X43262914Y-33809524D01*
X43262914Y-33809524D02*
X43310533Y-33714286D01*
X28929580Y-16857142D02*
X28977200Y-16809523D01*
X28977200Y-16809523D02*
X29024819Y-16666666D01*
X29024819Y-16666666D02*
X29024819Y-16571428D01*
X29024819Y-16571428D02*
X28977200Y-16428571D01*
X28977200Y-16428571D02*
X28881961Y-16333333D01*
X28881961Y-16333333D02*
X28786723Y-16285714D01*
X28786723Y-16285714D02*
X28596247Y-16238095D01*
X28596247Y-16238095D02*
X28453390Y-16238095D01*
X28453390Y-16238095D02*
X28262914Y-16285714D01*
X28262914Y-16285714D02*
X28167676Y-16333333D01*
X28167676Y-16333333D02*
X28072438Y-16428571D01*
X28072438Y-16428571D02*
X28024819Y-16571428D01*
X28024819Y-16571428D02*
X28024819Y-16666666D01*
X28024819Y-16666666D02*
X28072438Y-16809523D01*
X28072438Y-16809523D02*
X28120057Y-16857142D01*
X29024819Y-17809523D02*
X29024819Y-17238095D01*
X29024819Y-17523809D02*
X28024819Y-17523809D01*
X28024819Y-17523809D02*
X28167676Y-17428571D01*
X28167676Y-17428571D02*
X28262914Y-17333333D01*
X28262914Y-17333333D02*
X28310533Y-17238095D01*
X29024819Y-18761904D02*
X29024819Y-18190476D01*
X29024819Y-18476190D02*
X28024819Y-18476190D01*
X28024819Y-18476190D02*
X28167676Y-18380952D01*
X28167676Y-18380952D02*
X28262914Y-18285714D01*
X28262914Y-18285714D02*
X28310533Y-18190476D01*
D12*
%TO.C,C9*%
X13490000Y-17783767D02*
X13490000Y-17491233D01*
X14510000Y-17783767D02*
X14510000Y-17491233D01*
%TO.C,C48*%
X61490000Y-17646267D02*
X61490000Y-17353733D01*
X62510000Y-17646267D02*
X62510000Y-17353733D01*
%TO.C,C19*%
X23146267Y-28990000D02*
X22853733Y-28990000D01*
X23146267Y-30010000D02*
X22853733Y-30010000D01*
%TO.C,C14*%
X53490000Y-17646267D02*
X53490000Y-17353733D01*
X54510000Y-17646267D02*
X54510000Y-17353733D01*
%TO.C,C15*%
X69490000Y-17783767D02*
X69490000Y-17491233D01*
X70510000Y-17783767D02*
X70510000Y-17491233D01*
%TO.C,C3*%
X61353733Y-35990000D02*
X61646267Y-35990000D01*
X61353733Y-37010000D02*
X61646267Y-37010000D01*
%TO.C,C12*%
X37490000Y-17646267D02*
X37490000Y-17353733D01*
X38510000Y-17646267D02*
X38510000Y-17353733D01*
%TO.C,C8*%
X30991233Y-33490000D02*
X31283767Y-33490000D01*
X30991233Y-34510000D02*
X31283767Y-34510000D01*
%TO.C,C20*%
X16990000Y-30216233D02*
X16990000Y-30508767D01*
X18010000Y-30216233D02*
X18010000Y-30508767D01*
%TO.C,C18*%
X31991233Y-28990000D02*
X32283767Y-28990000D01*
X31991233Y-30010000D02*
X32283767Y-30010000D01*
%TO.C,C17*%
X37353733Y-28990000D02*
X37646267Y-28990000D01*
X37353733Y-30010000D02*
X37646267Y-30010000D01*
%TO.C,C2*%
X56508767Y-35490000D02*
X56216233Y-35490000D01*
X56508767Y-36510000D02*
X56216233Y-36510000D01*
%TO.C,C10*%
X21490000Y-17783767D02*
X21490000Y-17491233D01*
X22510000Y-17783767D02*
X22510000Y-17491233D01*
%TO.C,C6*%
X52716233Y-28990000D02*
X53008767Y-28990000D01*
X52716233Y-30010000D02*
X53008767Y-30010000D01*
%TO.C,C16*%
X44716233Y-29490000D02*
X45008767Y-29490000D01*
X44716233Y-30510000D02*
X45008767Y-30510000D01*
%TO.C,C7*%
X18508767Y-32990000D02*
X18216233Y-32990000D01*
X18508767Y-34010000D02*
X18216233Y-34010000D01*
%TO.C,C4*%
X70646267Y-30490000D02*
X70353733Y-30490000D01*
X70646267Y-31510000D02*
X70353733Y-31510000D01*
%TO.C,C5*%
X62508767Y-28990000D02*
X62216233Y-28990000D01*
X62508767Y-30010000D02*
X62216233Y-30010000D01*
%TO.C,C13*%
X45490000Y-17646267D02*
X45490000Y-17353733D01*
X46510000Y-17646267D02*
X46510000Y-17353733D01*
%TO.C,C1*%
X44490000Y-33646267D02*
X44490000Y-33353733D01*
X45510000Y-33646267D02*
X45510000Y-33353733D01*
%TO.C,C11*%
X29490000Y-17646267D02*
X29490000Y-17353733D01*
X30510000Y-17646267D02*
X30510000Y-17353733D01*
%TD*%
M02*
