%TF.GenerationSoftware,KiCad,Pcbnew,8.0.4*%
%TF.CreationDate,2024-08-11T12:29:12-04:00*%
%TF.ProjectId,Inhibit Sense Circuit,496e6869-6269-4742-9053-656e73652043,rev?*%
%TF.SameCoordinates,Original*%
%TF.FileFunction,Legend,Top*%
%TF.FilePolarity,Positive*%
%FSLAX46Y46*%
G04 Gerber Fmt 4.6, Leading zero omitted, Abs format (unit mm)*
G04 Created by KiCad (PCBNEW 8.0.4) date 2024-08-11 12:29:12*
%MOMM*%
%LPD*%
G01*
G04 APERTURE LIST*
%ADD10C,0.187500*%
%ADD11C,0.150000*%
%ADD12C,0.254000*%
%ADD13C,0.120000*%
%ADD14C,0.200000*%
%ADD15C,0.152400*%
%ADD16C,0.100000*%
G04 APERTURE END LIST*
D10*
X24980497Y-42684178D02*
X24980497Y-41184178D01*
X25694783Y-42684178D02*
X25694783Y-41184178D01*
X25694783Y-41184178D02*
X26551926Y-42684178D01*
X26551926Y-42684178D02*
X26551926Y-41184178D01*
D11*
X12336779Y-32869819D02*
X12336779Y-31869819D01*
X12336779Y-31869819D02*
X12717731Y-31869819D01*
X12717731Y-31869819D02*
X12812969Y-31917438D01*
X12812969Y-31917438D02*
X12860588Y-31965057D01*
X12860588Y-31965057D02*
X12908207Y-32060295D01*
X12908207Y-32060295D02*
X12908207Y-32203152D01*
X12908207Y-32203152D02*
X12860588Y-32298390D01*
X12860588Y-32298390D02*
X12812969Y-32346009D01*
X12812969Y-32346009D02*
X12717731Y-32393628D01*
X12717731Y-32393628D02*
X12336779Y-32393628D01*
X13241541Y-31869819D02*
X13479636Y-32869819D01*
X13479636Y-32869819D02*
X13670112Y-32155533D01*
X13670112Y-32155533D02*
X13860588Y-32869819D01*
X13860588Y-32869819D02*
X14098684Y-31869819D01*
X15051064Y-32869819D02*
X14717731Y-32393628D01*
X14479636Y-32869819D02*
X14479636Y-31869819D01*
X14479636Y-31869819D02*
X14860588Y-31869819D01*
X14860588Y-31869819D02*
X14955826Y-31917438D01*
X14955826Y-31917438D02*
X15003445Y-31965057D01*
X15003445Y-31965057D02*
X15051064Y-32060295D01*
X15051064Y-32060295D02*
X15051064Y-32203152D01*
X15051064Y-32203152D02*
X15003445Y-32298390D01*
X15003445Y-32298390D02*
X14955826Y-32346009D01*
X14955826Y-32346009D02*
X14860588Y-32393628D01*
X14860588Y-32393628D02*
X14479636Y-32393628D01*
X68849819Y-14952380D02*
X67849819Y-14952380D01*
X68802200Y-14523809D02*
X68849819Y-14380952D01*
X68849819Y-14380952D02*
X68849819Y-14142857D01*
X68849819Y-14142857D02*
X68802200Y-14047619D01*
X68802200Y-14047619D02*
X68754580Y-14000000D01*
X68754580Y-14000000D02*
X68659342Y-13952381D01*
X68659342Y-13952381D02*
X68564104Y-13952381D01*
X68564104Y-13952381D02*
X68468866Y-14000000D01*
X68468866Y-14000000D02*
X68421247Y-14047619D01*
X68421247Y-14047619D02*
X68373628Y-14142857D01*
X68373628Y-14142857D02*
X68326009Y-14333333D01*
X68326009Y-14333333D02*
X68278390Y-14428571D01*
X68278390Y-14428571D02*
X68230771Y-14476190D01*
X68230771Y-14476190D02*
X68135533Y-14523809D01*
X68135533Y-14523809D02*
X68040295Y-14523809D01*
X68040295Y-14523809D02*
X67945057Y-14476190D01*
X67945057Y-14476190D02*
X67897438Y-14428571D01*
X67897438Y-14428571D02*
X67849819Y-14333333D01*
X67849819Y-14333333D02*
X67849819Y-14095238D01*
X67849819Y-14095238D02*
X67897438Y-13952381D01*
X68278390Y-13380952D02*
X68230771Y-13476190D01*
X68230771Y-13476190D02*
X68183152Y-13523809D01*
X68183152Y-13523809D02*
X68087914Y-13571428D01*
X68087914Y-13571428D02*
X68040295Y-13571428D01*
X68040295Y-13571428D02*
X67945057Y-13523809D01*
X67945057Y-13523809D02*
X67897438Y-13476190D01*
X67897438Y-13476190D02*
X67849819Y-13380952D01*
X67849819Y-13380952D02*
X67849819Y-13190476D01*
X67849819Y-13190476D02*
X67897438Y-13095238D01*
X67897438Y-13095238D02*
X67945057Y-13047619D01*
X67945057Y-13047619D02*
X68040295Y-13000000D01*
X68040295Y-13000000D02*
X68087914Y-13000000D01*
X68087914Y-13000000D02*
X68183152Y-13047619D01*
X68183152Y-13047619D02*
X68230771Y-13095238D01*
X68230771Y-13095238D02*
X68278390Y-13190476D01*
X68278390Y-13190476D02*
X68278390Y-13380952D01*
X68278390Y-13380952D02*
X68326009Y-13476190D01*
X68326009Y-13476190D02*
X68373628Y-13523809D01*
X68373628Y-13523809D02*
X68468866Y-13571428D01*
X68468866Y-13571428D02*
X68659342Y-13571428D01*
X68659342Y-13571428D02*
X68754580Y-13523809D01*
X68754580Y-13523809D02*
X68802200Y-13476190D01*
X68802200Y-13476190D02*
X68849819Y-13380952D01*
X68849819Y-13380952D02*
X68849819Y-13190476D01*
X68849819Y-13190476D02*
X68802200Y-13095238D01*
X68802200Y-13095238D02*
X68754580Y-13047619D01*
X68754580Y-13047619D02*
X68659342Y-13000000D01*
X68659342Y-13000000D02*
X68468866Y-13000000D01*
X68468866Y-13000000D02*
X68373628Y-13047619D01*
X68373628Y-13047619D02*
X68326009Y-13095238D01*
X68326009Y-13095238D02*
X68278390Y-13190476D01*
D12*
X28760237Y-37574318D02*
X28760237Y-36304318D01*
X30090714Y-37453365D02*
X30030238Y-37513842D01*
X30030238Y-37513842D02*
X29848809Y-37574318D01*
X29848809Y-37574318D02*
X29727857Y-37574318D01*
X29727857Y-37574318D02*
X29546428Y-37513842D01*
X29546428Y-37513842D02*
X29425476Y-37392889D01*
X29425476Y-37392889D02*
X29364999Y-37271937D01*
X29364999Y-37271937D02*
X29304523Y-37030032D01*
X29304523Y-37030032D02*
X29304523Y-36848603D01*
X29304523Y-36848603D02*
X29364999Y-36606699D01*
X29364999Y-36606699D02*
X29425476Y-36485746D01*
X29425476Y-36485746D02*
X29546428Y-36364794D01*
X29546428Y-36364794D02*
X29727857Y-36304318D01*
X29727857Y-36304318D02*
X29848809Y-36304318D01*
X29848809Y-36304318D02*
X30030238Y-36364794D01*
X30030238Y-36364794D02*
X30090714Y-36425270D01*
X30514047Y-36304318D02*
X31300238Y-36304318D01*
X31300238Y-36304318D02*
X30876904Y-36788127D01*
X30876904Y-36788127D02*
X31058333Y-36788127D01*
X31058333Y-36788127D02*
X31179285Y-36848603D01*
X31179285Y-36848603D02*
X31239761Y-36909080D01*
X31239761Y-36909080D02*
X31300238Y-37030032D01*
X31300238Y-37030032D02*
X31300238Y-37332413D01*
X31300238Y-37332413D02*
X31239761Y-37453365D01*
X31239761Y-37453365D02*
X31179285Y-37513842D01*
X31179285Y-37513842D02*
X31058333Y-37574318D01*
X31058333Y-37574318D02*
X30695476Y-37574318D01*
X30695476Y-37574318D02*
X30574523Y-37513842D01*
X30574523Y-37513842D02*
X30514047Y-37453365D01*
D11*
X56465195Y-27454819D02*
X56465195Y-28264342D01*
X56465195Y-28264342D02*
X56512814Y-28359580D01*
X56512814Y-28359580D02*
X56560433Y-28407200D01*
X56560433Y-28407200D02*
X56655671Y-28454819D01*
X56655671Y-28454819D02*
X56846147Y-28454819D01*
X56846147Y-28454819D02*
X56941385Y-28407200D01*
X56941385Y-28407200D02*
X56989004Y-28359580D01*
X56989004Y-28359580D02*
X57036623Y-28264342D01*
X57036623Y-28264342D02*
X57036623Y-27454819D01*
X57941385Y-27454819D02*
X57750909Y-27454819D01*
X57750909Y-27454819D02*
X57655671Y-27502438D01*
X57655671Y-27502438D02*
X57608052Y-27550057D01*
X57608052Y-27550057D02*
X57512814Y-27692914D01*
X57512814Y-27692914D02*
X57465195Y-27883390D01*
X57465195Y-27883390D02*
X57465195Y-28264342D01*
X57465195Y-28264342D02*
X57512814Y-28359580D01*
X57512814Y-28359580D02*
X57560433Y-28407200D01*
X57560433Y-28407200D02*
X57655671Y-28454819D01*
X57655671Y-28454819D02*
X57846147Y-28454819D01*
X57846147Y-28454819D02*
X57941385Y-28407200D01*
X57941385Y-28407200D02*
X57989004Y-28359580D01*
X57989004Y-28359580D02*
X58036623Y-28264342D01*
X58036623Y-28264342D02*
X58036623Y-28026247D01*
X58036623Y-28026247D02*
X57989004Y-27931009D01*
X57989004Y-27931009D02*
X57941385Y-27883390D01*
X57941385Y-27883390D02*
X57846147Y-27835771D01*
X57846147Y-27835771D02*
X57655671Y-27835771D01*
X57655671Y-27835771D02*
X57560433Y-27883390D01*
X57560433Y-27883390D02*
X57512814Y-27931009D01*
X57512814Y-27931009D02*
X57465195Y-28026247D01*
X60000000Y-30454819D02*
X60000000Y-30692914D01*
X59761905Y-30597676D02*
X60000000Y-30692914D01*
X60000000Y-30692914D02*
X60238095Y-30597676D01*
X59857143Y-30883390D02*
X60000000Y-30692914D01*
X60000000Y-30692914D02*
X60142857Y-30883390D01*
X71238095Y-27454819D02*
X71238095Y-28264342D01*
X71238095Y-28264342D02*
X71285714Y-28359580D01*
X71285714Y-28359580D02*
X71333333Y-28407200D01*
X71333333Y-28407200D02*
X71428571Y-28454819D01*
X71428571Y-28454819D02*
X71619047Y-28454819D01*
X71619047Y-28454819D02*
X71714285Y-28407200D01*
X71714285Y-28407200D02*
X71761904Y-28359580D01*
X71761904Y-28359580D02*
X71809523Y-28264342D01*
X71809523Y-28264342D02*
X71809523Y-27454819D01*
X72428571Y-27883390D02*
X72333333Y-27835771D01*
X72333333Y-27835771D02*
X72285714Y-27788152D01*
X72285714Y-27788152D02*
X72238095Y-27692914D01*
X72238095Y-27692914D02*
X72238095Y-27645295D01*
X72238095Y-27645295D02*
X72285714Y-27550057D01*
X72285714Y-27550057D02*
X72333333Y-27502438D01*
X72333333Y-27502438D02*
X72428571Y-27454819D01*
X72428571Y-27454819D02*
X72619047Y-27454819D01*
X72619047Y-27454819D02*
X72714285Y-27502438D01*
X72714285Y-27502438D02*
X72761904Y-27550057D01*
X72761904Y-27550057D02*
X72809523Y-27645295D01*
X72809523Y-27645295D02*
X72809523Y-27692914D01*
X72809523Y-27692914D02*
X72761904Y-27788152D01*
X72761904Y-27788152D02*
X72714285Y-27835771D01*
X72714285Y-27835771D02*
X72619047Y-27883390D01*
X72619047Y-27883390D02*
X72428571Y-27883390D01*
X72428571Y-27883390D02*
X72333333Y-27931009D01*
X72333333Y-27931009D02*
X72285714Y-27978628D01*
X72285714Y-27978628D02*
X72238095Y-28073866D01*
X72238095Y-28073866D02*
X72238095Y-28264342D01*
X72238095Y-28264342D02*
X72285714Y-28359580D01*
X72285714Y-28359580D02*
X72333333Y-28407200D01*
X72333333Y-28407200D02*
X72428571Y-28454819D01*
X72428571Y-28454819D02*
X72619047Y-28454819D01*
X72619047Y-28454819D02*
X72714285Y-28407200D01*
X72714285Y-28407200D02*
X72761904Y-28359580D01*
X72761904Y-28359580D02*
X72809523Y-28264342D01*
X72809523Y-28264342D02*
X72809523Y-28073866D01*
X72809523Y-28073866D02*
X72761904Y-27978628D01*
X72761904Y-27978628D02*
X72714285Y-27931009D01*
X72714285Y-27931009D02*
X72619047Y-27883390D01*
X75000000Y-30454819D02*
X75000000Y-30692914D01*
X74761905Y-30597676D02*
X75000000Y-30692914D01*
X75000000Y-30692914D02*
X75238095Y-30597676D01*
X74857143Y-30883390D02*
X75000000Y-30692914D01*
X75000000Y-30692914D02*
X75142857Y-30883390D01*
X18738095Y-27454819D02*
X18738095Y-28264342D01*
X18738095Y-28264342D02*
X18785714Y-28359580D01*
X18785714Y-28359580D02*
X18833333Y-28407200D01*
X18833333Y-28407200D02*
X18928571Y-28454819D01*
X18928571Y-28454819D02*
X19119047Y-28454819D01*
X19119047Y-28454819D02*
X19214285Y-28407200D01*
X19214285Y-28407200D02*
X19261904Y-28359580D01*
X19261904Y-28359580D02*
X19309523Y-28264342D01*
X19309523Y-28264342D02*
X19309523Y-27454819D01*
X20309523Y-28454819D02*
X19738095Y-28454819D01*
X20023809Y-28454819D02*
X20023809Y-27454819D01*
X20023809Y-27454819D02*
X19928571Y-27597676D01*
X19928571Y-27597676D02*
X19833333Y-27692914D01*
X19833333Y-27692914D02*
X19738095Y-27740533D01*
X22500000Y-30454819D02*
X22500000Y-30692914D01*
X22261905Y-30597676D02*
X22500000Y-30692914D01*
X22500000Y-30692914D02*
X22738095Y-30597676D01*
X22357143Y-30883390D02*
X22500000Y-30692914D01*
X22500000Y-30692914D02*
X22642857Y-30883390D01*
X48738095Y-27454819D02*
X48738095Y-28264342D01*
X48738095Y-28264342D02*
X48785714Y-28359580D01*
X48785714Y-28359580D02*
X48833333Y-28407200D01*
X48833333Y-28407200D02*
X48928571Y-28454819D01*
X48928571Y-28454819D02*
X49119047Y-28454819D01*
X49119047Y-28454819D02*
X49214285Y-28407200D01*
X49214285Y-28407200D02*
X49261904Y-28359580D01*
X49261904Y-28359580D02*
X49309523Y-28264342D01*
X49309523Y-28264342D02*
X49309523Y-27454819D01*
X50261904Y-27454819D02*
X49785714Y-27454819D01*
X49785714Y-27454819D02*
X49738095Y-27931009D01*
X49738095Y-27931009D02*
X49785714Y-27883390D01*
X49785714Y-27883390D02*
X49880952Y-27835771D01*
X49880952Y-27835771D02*
X50119047Y-27835771D01*
X50119047Y-27835771D02*
X50214285Y-27883390D01*
X50214285Y-27883390D02*
X50261904Y-27931009D01*
X50261904Y-27931009D02*
X50309523Y-28026247D01*
X50309523Y-28026247D02*
X50309523Y-28264342D01*
X50309523Y-28264342D02*
X50261904Y-28359580D01*
X50261904Y-28359580D02*
X50214285Y-28407200D01*
X50214285Y-28407200D02*
X50119047Y-28454819D01*
X50119047Y-28454819D02*
X49880952Y-28454819D01*
X49880952Y-28454819D02*
X49785714Y-28407200D01*
X49785714Y-28407200D02*
X49738095Y-28359580D01*
X52500000Y-30454819D02*
X52500000Y-30692914D01*
X52261905Y-30597676D02*
X52500000Y-30692914D01*
X52500000Y-30692914D02*
X52738095Y-30597676D01*
X52357143Y-30883390D02*
X52500000Y-30692914D01*
X52500000Y-30692914D02*
X52642857Y-30883390D01*
X12849819Y-14952380D02*
X11849819Y-14952380D01*
X12802200Y-14523809D02*
X12849819Y-14380952D01*
X12849819Y-14380952D02*
X12849819Y-14142857D01*
X12849819Y-14142857D02*
X12802200Y-14047619D01*
X12802200Y-14047619D02*
X12754580Y-14000000D01*
X12754580Y-14000000D02*
X12659342Y-13952381D01*
X12659342Y-13952381D02*
X12564104Y-13952381D01*
X12564104Y-13952381D02*
X12468866Y-14000000D01*
X12468866Y-14000000D02*
X12421247Y-14047619D01*
X12421247Y-14047619D02*
X12373628Y-14142857D01*
X12373628Y-14142857D02*
X12326009Y-14333333D01*
X12326009Y-14333333D02*
X12278390Y-14428571D01*
X12278390Y-14428571D02*
X12230771Y-14476190D01*
X12230771Y-14476190D02*
X12135533Y-14523809D01*
X12135533Y-14523809D02*
X12040295Y-14523809D01*
X12040295Y-14523809D02*
X11945057Y-14476190D01*
X11945057Y-14476190D02*
X11897438Y-14428571D01*
X11897438Y-14428571D02*
X11849819Y-14333333D01*
X11849819Y-14333333D02*
X11849819Y-14095238D01*
X11849819Y-14095238D02*
X11897438Y-13952381D01*
X12849819Y-13000000D02*
X12849819Y-13571428D01*
X12849819Y-13285714D02*
X11849819Y-13285714D01*
X11849819Y-13285714D02*
X11992676Y-13380952D01*
X11992676Y-13380952D02*
X12087914Y-13476190D01*
X12087914Y-13476190D02*
X12135533Y-13571428D01*
D12*
X17260237Y-39574318D02*
X17260237Y-38304318D01*
X18590714Y-39453365D02*
X18530238Y-39513842D01*
X18530238Y-39513842D02*
X18348809Y-39574318D01*
X18348809Y-39574318D02*
X18227857Y-39574318D01*
X18227857Y-39574318D02*
X18046428Y-39513842D01*
X18046428Y-39513842D02*
X17925476Y-39392889D01*
X17925476Y-39392889D02*
X17864999Y-39271937D01*
X17864999Y-39271937D02*
X17804523Y-39030032D01*
X17804523Y-39030032D02*
X17804523Y-38848603D01*
X17804523Y-38848603D02*
X17864999Y-38606699D01*
X17864999Y-38606699D02*
X17925476Y-38485746D01*
X17925476Y-38485746D02*
X18046428Y-38364794D01*
X18046428Y-38364794D02*
X18227857Y-38304318D01*
X18227857Y-38304318D02*
X18348809Y-38304318D01*
X18348809Y-38304318D02*
X18530238Y-38364794D01*
X18530238Y-38364794D02*
X18590714Y-38425270D01*
X19800238Y-39574318D02*
X19074523Y-39574318D01*
X19437380Y-39574318D02*
X19437380Y-38304318D01*
X19437380Y-38304318D02*
X19316428Y-38485746D01*
X19316428Y-38485746D02*
X19195476Y-38606699D01*
X19195476Y-38606699D02*
X19074523Y-38667175D01*
D11*
X44849819Y-14952380D02*
X43849819Y-14952380D01*
X44802200Y-14523809D02*
X44849819Y-14380952D01*
X44849819Y-14380952D02*
X44849819Y-14142857D01*
X44849819Y-14142857D02*
X44802200Y-14047619D01*
X44802200Y-14047619D02*
X44754580Y-14000000D01*
X44754580Y-14000000D02*
X44659342Y-13952381D01*
X44659342Y-13952381D02*
X44564104Y-13952381D01*
X44564104Y-13952381D02*
X44468866Y-14000000D01*
X44468866Y-14000000D02*
X44421247Y-14047619D01*
X44421247Y-14047619D02*
X44373628Y-14142857D01*
X44373628Y-14142857D02*
X44326009Y-14333333D01*
X44326009Y-14333333D02*
X44278390Y-14428571D01*
X44278390Y-14428571D02*
X44230771Y-14476190D01*
X44230771Y-14476190D02*
X44135533Y-14523809D01*
X44135533Y-14523809D02*
X44040295Y-14523809D01*
X44040295Y-14523809D02*
X43945057Y-14476190D01*
X43945057Y-14476190D02*
X43897438Y-14428571D01*
X43897438Y-14428571D02*
X43849819Y-14333333D01*
X43849819Y-14333333D02*
X43849819Y-14095238D01*
X43849819Y-14095238D02*
X43897438Y-13952381D01*
X43849819Y-13047619D02*
X43849819Y-13523809D01*
X43849819Y-13523809D02*
X44326009Y-13571428D01*
X44326009Y-13571428D02*
X44278390Y-13523809D01*
X44278390Y-13523809D02*
X44230771Y-13428571D01*
X44230771Y-13428571D02*
X44230771Y-13190476D01*
X44230771Y-13190476D02*
X44278390Y-13095238D01*
X44278390Y-13095238D02*
X44326009Y-13047619D01*
X44326009Y-13047619D02*
X44421247Y-13000000D01*
X44421247Y-13000000D02*
X44659342Y-13000000D01*
X44659342Y-13000000D02*
X44754580Y-13047619D01*
X44754580Y-13047619D02*
X44802200Y-13095238D01*
X44802200Y-13095238D02*
X44849819Y-13190476D01*
X44849819Y-13190476D02*
X44849819Y-13428571D01*
X44849819Y-13428571D02*
X44802200Y-13523809D01*
X44802200Y-13523809D02*
X44754580Y-13571428D01*
X36849819Y-14952380D02*
X35849819Y-14952380D01*
X36802200Y-14523809D02*
X36849819Y-14380952D01*
X36849819Y-14380952D02*
X36849819Y-14142857D01*
X36849819Y-14142857D02*
X36802200Y-14047619D01*
X36802200Y-14047619D02*
X36754580Y-14000000D01*
X36754580Y-14000000D02*
X36659342Y-13952381D01*
X36659342Y-13952381D02*
X36564104Y-13952381D01*
X36564104Y-13952381D02*
X36468866Y-14000000D01*
X36468866Y-14000000D02*
X36421247Y-14047619D01*
X36421247Y-14047619D02*
X36373628Y-14142857D01*
X36373628Y-14142857D02*
X36326009Y-14333333D01*
X36326009Y-14333333D02*
X36278390Y-14428571D01*
X36278390Y-14428571D02*
X36230771Y-14476190D01*
X36230771Y-14476190D02*
X36135533Y-14523809D01*
X36135533Y-14523809D02*
X36040295Y-14523809D01*
X36040295Y-14523809D02*
X35945057Y-14476190D01*
X35945057Y-14476190D02*
X35897438Y-14428571D01*
X35897438Y-14428571D02*
X35849819Y-14333333D01*
X35849819Y-14333333D02*
X35849819Y-14095238D01*
X35849819Y-14095238D02*
X35897438Y-13952381D01*
X36183152Y-13095238D02*
X36849819Y-13095238D01*
X35802200Y-13333333D02*
X36516485Y-13571428D01*
X36516485Y-13571428D02*
X36516485Y-12952381D01*
X60849819Y-14952380D02*
X59849819Y-14952380D01*
X60802200Y-14523809D02*
X60849819Y-14380952D01*
X60849819Y-14380952D02*
X60849819Y-14142857D01*
X60849819Y-14142857D02*
X60802200Y-14047619D01*
X60802200Y-14047619D02*
X60754580Y-14000000D01*
X60754580Y-14000000D02*
X60659342Y-13952381D01*
X60659342Y-13952381D02*
X60564104Y-13952381D01*
X60564104Y-13952381D02*
X60468866Y-14000000D01*
X60468866Y-14000000D02*
X60421247Y-14047619D01*
X60421247Y-14047619D02*
X60373628Y-14142857D01*
X60373628Y-14142857D02*
X60326009Y-14333333D01*
X60326009Y-14333333D02*
X60278390Y-14428571D01*
X60278390Y-14428571D02*
X60230771Y-14476190D01*
X60230771Y-14476190D02*
X60135533Y-14523809D01*
X60135533Y-14523809D02*
X60040295Y-14523809D01*
X60040295Y-14523809D02*
X59945057Y-14476190D01*
X59945057Y-14476190D02*
X59897438Y-14428571D01*
X59897438Y-14428571D02*
X59849819Y-14333333D01*
X59849819Y-14333333D02*
X59849819Y-14095238D01*
X59849819Y-14095238D02*
X59897438Y-13952381D01*
X59849819Y-13619047D02*
X59849819Y-12952381D01*
X59849819Y-12952381D02*
X60849819Y-13380952D01*
X26238095Y-27454819D02*
X26238095Y-28264342D01*
X26238095Y-28264342D02*
X26285714Y-28359580D01*
X26285714Y-28359580D02*
X26333333Y-28407200D01*
X26333333Y-28407200D02*
X26428571Y-28454819D01*
X26428571Y-28454819D02*
X26619047Y-28454819D01*
X26619047Y-28454819D02*
X26714285Y-28407200D01*
X26714285Y-28407200D02*
X26761904Y-28359580D01*
X26761904Y-28359580D02*
X26809523Y-28264342D01*
X26809523Y-28264342D02*
X26809523Y-27454819D01*
X27238095Y-27550057D02*
X27285714Y-27502438D01*
X27285714Y-27502438D02*
X27380952Y-27454819D01*
X27380952Y-27454819D02*
X27619047Y-27454819D01*
X27619047Y-27454819D02*
X27714285Y-27502438D01*
X27714285Y-27502438D02*
X27761904Y-27550057D01*
X27761904Y-27550057D02*
X27809523Y-27645295D01*
X27809523Y-27645295D02*
X27809523Y-27740533D01*
X27809523Y-27740533D02*
X27761904Y-27883390D01*
X27761904Y-27883390D02*
X27190476Y-28454819D01*
X27190476Y-28454819D02*
X27809523Y-28454819D01*
X30000000Y-30454819D02*
X30000000Y-30692914D01*
X29761905Y-30597676D02*
X30000000Y-30692914D01*
X30000000Y-30692914D02*
X30238095Y-30597676D01*
X29857143Y-30883390D02*
X30000000Y-30692914D01*
X30000000Y-30692914D02*
X30142857Y-30883390D01*
X20849819Y-14952380D02*
X19849819Y-14952380D01*
X20802200Y-14523809D02*
X20849819Y-14380952D01*
X20849819Y-14380952D02*
X20849819Y-14142857D01*
X20849819Y-14142857D02*
X20802200Y-14047619D01*
X20802200Y-14047619D02*
X20754580Y-14000000D01*
X20754580Y-14000000D02*
X20659342Y-13952381D01*
X20659342Y-13952381D02*
X20564104Y-13952381D01*
X20564104Y-13952381D02*
X20468866Y-14000000D01*
X20468866Y-14000000D02*
X20421247Y-14047619D01*
X20421247Y-14047619D02*
X20373628Y-14142857D01*
X20373628Y-14142857D02*
X20326009Y-14333333D01*
X20326009Y-14333333D02*
X20278390Y-14428571D01*
X20278390Y-14428571D02*
X20230771Y-14476190D01*
X20230771Y-14476190D02*
X20135533Y-14523809D01*
X20135533Y-14523809D02*
X20040295Y-14523809D01*
X20040295Y-14523809D02*
X19945057Y-14476190D01*
X19945057Y-14476190D02*
X19897438Y-14428571D01*
X19897438Y-14428571D02*
X19849819Y-14333333D01*
X19849819Y-14333333D02*
X19849819Y-14095238D01*
X19849819Y-14095238D02*
X19897438Y-13952381D01*
X19945057Y-13571428D02*
X19897438Y-13523809D01*
X19897438Y-13523809D02*
X19849819Y-13428571D01*
X19849819Y-13428571D02*
X19849819Y-13190476D01*
X19849819Y-13190476D02*
X19897438Y-13095238D01*
X19897438Y-13095238D02*
X19945057Y-13047619D01*
X19945057Y-13047619D02*
X20040295Y-13000000D01*
X20040295Y-13000000D02*
X20135533Y-13000000D01*
X20135533Y-13000000D02*
X20278390Y-13047619D01*
X20278390Y-13047619D02*
X20849819Y-13619047D01*
X20849819Y-13619047D02*
X20849819Y-13000000D01*
X41238095Y-27454819D02*
X41238095Y-28264342D01*
X41238095Y-28264342D02*
X41285714Y-28359580D01*
X41285714Y-28359580D02*
X41333333Y-28407200D01*
X41333333Y-28407200D02*
X41428571Y-28454819D01*
X41428571Y-28454819D02*
X41619047Y-28454819D01*
X41619047Y-28454819D02*
X41714285Y-28407200D01*
X41714285Y-28407200D02*
X41761904Y-28359580D01*
X41761904Y-28359580D02*
X41809523Y-28264342D01*
X41809523Y-28264342D02*
X41809523Y-27454819D01*
X42714285Y-27788152D02*
X42714285Y-28454819D01*
X42476190Y-27407200D02*
X42238095Y-28121485D01*
X42238095Y-28121485D02*
X42857142Y-28121485D01*
X45000000Y-30454819D02*
X45000000Y-30692914D01*
X44761905Y-30597676D02*
X45000000Y-30692914D01*
X45000000Y-30692914D02*
X45238095Y-30597676D01*
X44857143Y-30883390D02*
X45000000Y-30692914D01*
X45000000Y-30692914D02*
X45142857Y-30883390D01*
X28849819Y-14952380D02*
X27849819Y-14952380D01*
X28802200Y-14523809D02*
X28849819Y-14380952D01*
X28849819Y-14380952D02*
X28849819Y-14142857D01*
X28849819Y-14142857D02*
X28802200Y-14047619D01*
X28802200Y-14047619D02*
X28754580Y-14000000D01*
X28754580Y-14000000D02*
X28659342Y-13952381D01*
X28659342Y-13952381D02*
X28564104Y-13952381D01*
X28564104Y-13952381D02*
X28468866Y-14000000D01*
X28468866Y-14000000D02*
X28421247Y-14047619D01*
X28421247Y-14047619D02*
X28373628Y-14142857D01*
X28373628Y-14142857D02*
X28326009Y-14333333D01*
X28326009Y-14333333D02*
X28278390Y-14428571D01*
X28278390Y-14428571D02*
X28230771Y-14476190D01*
X28230771Y-14476190D02*
X28135533Y-14523809D01*
X28135533Y-14523809D02*
X28040295Y-14523809D01*
X28040295Y-14523809D02*
X27945057Y-14476190D01*
X27945057Y-14476190D02*
X27897438Y-14428571D01*
X27897438Y-14428571D02*
X27849819Y-14333333D01*
X27849819Y-14333333D02*
X27849819Y-14095238D01*
X27849819Y-14095238D02*
X27897438Y-13952381D01*
X27849819Y-13619047D02*
X27849819Y-13000000D01*
X27849819Y-13000000D02*
X28230771Y-13333333D01*
X28230771Y-13333333D02*
X28230771Y-13190476D01*
X28230771Y-13190476D02*
X28278390Y-13095238D01*
X28278390Y-13095238D02*
X28326009Y-13047619D01*
X28326009Y-13047619D02*
X28421247Y-13000000D01*
X28421247Y-13000000D02*
X28659342Y-13000000D01*
X28659342Y-13000000D02*
X28754580Y-13047619D01*
X28754580Y-13047619D02*
X28802200Y-13095238D01*
X28802200Y-13095238D02*
X28849819Y-13190476D01*
X28849819Y-13190476D02*
X28849819Y-13476190D01*
X28849819Y-13476190D02*
X28802200Y-13571428D01*
X28802200Y-13571428D02*
X28754580Y-13619047D01*
D12*
X68260237Y-39574318D02*
X68260237Y-38304318D01*
X69590714Y-39453365D02*
X69530238Y-39513842D01*
X69530238Y-39513842D02*
X69348809Y-39574318D01*
X69348809Y-39574318D02*
X69227857Y-39574318D01*
X69227857Y-39574318D02*
X69046428Y-39513842D01*
X69046428Y-39513842D02*
X68925476Y-39392889D01*
X68925476Y-39392889D02*
X68864999Y-39271937D01*
X68864999Y-39271937D02*
X68804523Y-39030032D01*
X68804523Y-39030032D02*
X68804523Y-38848603D01*
X68804523Y-38848603D02*
X68864999Y-38606699D01*
X68864999Y-38606699D02*
X68925476Y-38485746D01*
X68925476Y-38485746D02*
X69046428Y-38364794D01*
X69046428Y-38364794D02*
X69227857Y-38304318D01*
X69227857Y-38304318D02*
X69348809Y-38304318D01*
X69348809Y-38304318D02*
X69530238Y-38364794D01*
X69530238Y-38364794D02*
X69590714Y-38425270D01*
X70074523Y-38425270D02*
X70134999Y-38364794D01*
X70134999Y-38364794D02*
X70255952Y-38304318D01*
X70255952Y-38304318D02*
X70558333Y-38304318D01*
X70558333Y-38304318D02*
X70679285Y-38364794D01*
X70679285Y-38364794D02*
X70739761Y-38425270D01*
X70739761Y-38425270D02*
X70800238Y-38546222D01*
X70800238Y-38546222D02*
X70800238Y-38667175D01*
X70800238Y-38667175D02*
X70739761Y-38848603D01*
X70739761Y-38848603D02*
X70014047Y-39574318D01*
X70014047Y-39574318D02*
X70800238Y-39574318D01*
D11*
X63738095Y-27454819D02*
X63738095Y-28264342D01*
X63738095Y-28264342D02*
X63785714Y-28359580D01*
X63785714Y-28359580D02*
X63833333Y-28407200D01*
X63833333Y-28407200D02*
X63928571Y-28454819D01*
X63928571Y-28454819D02*
X64119047Y-28454819D01*
X64119047Y-28454819D02*
X64214285Y-28407200D01*
X64214285Y-28407200D02*
X64261904Y-28359580D01*
X64261904Y-28359580D02*
X64309523Y-28264342D01*
X64309523Y-28264342D02*
X64309523Y-27454819D01*
X64690476Y-27454819D02*
X65357142Y-27454819D01*
X65357142Y-27454819D02*
X64928571Y-28454819D01*
X67500000Y-30454819D02*
X67500000Y-30692914D01*
X67261905Y-30597676D02*
X67500000Y-30692914D01*
X67500000Y-30692914D02*
X67738095Y-30597676D01*
X67357143Y-30883390D02*
X67500000Y-30692914D01*
X67500000Y-30692914D02*
X67642857Y-30883390D01*
D12*
X52760237Y-37574318D02*
X52760237Y-36304318D01*
X54090714Y-37453365D02*
X54030238Y-37513842D01*
X54030238Y-37513842D02*
X53848809Y-37574318D01*
X53848809Y-37574318D02*
X53727857Y-37574318D01*
X53727857Y-37574318D02*
X53546428Y-37513842D01*
X53546428Y-37513842D02*
X53425476Y-37392889D01*
X53425476Y-37392889D02*
X53364999Y-37271937D01*
X53364999Y-37271937D02*
X53304523Y-37030032D01*
X53304523Y-37030032D02*
X53304523Y-36848603D01*
X53304523Y-36848603D02*
X53364999Y-36606699D01*
X53364999Y-36606699D02*
X53425476Y-36485746D01*
X53425476Y-36485746D02*
X53546428Y-36364794D01*
X53546428Y-36364794D02*
X53727857Y-36304318D01*
X53727857Y-36304318D02*
X53848809Y-36304318D01*
X53848809Y-36304318D02*
X54030238Y-36364794D01*
X54030238Y-36364794D02*
X54090714Y-36425270D01*
X55239761Y-36304318D02*
X54634999Y-36304318D01*
X54634999Y-36304318D02*
X54574523Y-36909080D01*
X54574523Y-36909080D02*
X54634999Y-36848603D01*
X54634999Y-36848603D02*
X54755952Y-36788127D01*
X54755952Y-36788127D02*
X55058333Y-36788127D01*
X55058333Y-36788127D02*
X55179285Y-36848603D01*
X55179285Y-36848603D02*
X55239761Y-36909080D01*
X55239761Y-36909080D02*
X55300238Y-37030032D01*
X55300238Y-37030032D02*
X55300238Y-37332413D01*
X55300238Y-37332413D02*
X55239761Y-37453365D01*
X55239761Y-37453365D02*
X55179285Y-37513842D01*
X55179285Y-37513842D02*
X55058333Y-37574318D01*
X55058333Y-37574318D02*
X54755952Y-37574318D01*
X54755952Y-37574318D02*
X54634999Y-37513842D01*
X54634999Y-37513842D02*
X54574523Y-37453365D01*
D11*
X33738095Y-27454819D02*
X33738095Y-28264342D01*
X33738095Y-28264342D02*
X33785714Y-28359580D01*
X33785714Y-28359580D02*
X33833333Y-28407200D01*
X33833333Y-28407200D02*
X33928571Y-28454819D01*
X33928571Y-28454819D02*
X34119047Y-28454819D01*
X34119047Y-28454819D02*
X34214285Y-28407200D01*
X34214285Y-28407200D02*
X34261904Y-28359580D01*
X34261904Y-28359580D02*
X34309523Y-28264342D01*
X34309523Y-28264342D02*
X34309523Y-27454819D01*
X34690476Y-27454819D02*
X35309523Y-27454819D01*
X35309523Y-27454819D02*
X34976190Y-27835771D01*
X34976190Y-27835771D02*
X35119047Y-27835771D01*
X35119047Y-27835771D02*
X35214285Y-27883390D01*
X35214285Y-27883390D02*
X35261904Y-27931009D01*
X35261904Y-27931009D02*
X35309523Y-28026247D01*
X35309523Y-28026247D02*
X35309523Y-28264342D01*
X35309523Y-28264342D02*
X35261904Y-28359580D01*
X35261904Y-28359580D02*
X35214285Y-28407200D01*
X35214285Y-28407200D02*
X35119047Y-28454819D01*
X35119047Y-28454819D02*
X34833333Y-28454819D01*
X34833333Y-28454819D02*
X34738095Y-28407200D01*
X34738095Y-28407200D02*
X34690476Y-28359580D01*
X37500000Y-30454819D02*
X37500000Y-30692914D01*
X37261905Y-30597676D02*
X37500000Y-30692914D01*
X37500000Y-30692914D02*
X37738095Y-30597676D01*
X37357143Y-30883390D02*
X37500000Y-30692914D01*
X37500000Y-30692914D02*
X37642857Y-30883390D01*
D12*
X41260237Y-37074318D02*
X41260237Y-35804318D01*
X42590714Y-36953365D02*
X42530238Y-37013842D01*
X42530238Y-37013842D02*
X42348809Y-37074318D01*
X42348809Y-37074318D02*
X42227857Y-37074318D01*
X42227857Y-37074318D02*
X42046428Y-37013842D01*
X42046428Y-37013842D02*
X41925476Y-36892889D01*
X41925476Y-36892889D02*
X41864999Y-36771937D01*
X41864999Y-36771937D02*
X41804523Y-36530032D01*
X41804523Y-36530032D02*
X41804523Y-36348603D01*
X41804523Y-36348603D02*
X41864999Y-36106699D01*
X41864999Y-36106699D02*
X41925476Y-35985746D01*
X41925476Y-35985746D02*
X42046428Y-35864794D01*
X42046428Y-35864794D02*
X42227857Y-35804318D01*
X42227857Y-35804318D02*
X42348809Y-35804318D01*
X42348809Y-35804318D02*
X42530238Y-35864794D01*
X42530238Y-35864794D02*
X42590714Y-35925270D01*
X43679285Y-36227651D02*
X43679285Y-37074318D01*
X43376904Y-35743842D02*
X43074523Y-36650984D01*
X43074523Y-36650984D02*
X43860714Y-36650984D01*
D11*
X52849819Y-14952380D02*
X51849819Y-14952380D01*
X52802200Y-14523809D02*
X52849819Y-14380952D01*
X52849819Y-14380952D02*
X52849819Y-14142857D01*
X52849819Y-14142857D02*
X52802200Y-14047619D01*
X52802200Y-14047619D02*
X52754580Y-14000000D01*
X52754580Y-14000000D02*
X52659342Y-13952381D01*
X52659342Y-13952381D02*
X52564104Y-13952381D01*
X52564104Y-13952381D02*
X52468866Y-14000000D01*
X52468866Y-14000000D02*
X52421247Y-14047619D01*
X52421247Y-14047619D02*
X52373628Y-14142857D01*
X52373628Y-14142857D02*
X52326009Y-14333333D01*
X52326009Y-14333333D02*
X52278390Y-14428571D01*
X52278390Y-14428571D02*
X52230771Y-14476190D01*
X52230771Y-14476190D02*
X52135533Y-14523809D01*
X52135533Y-14523809D02*
X52040295Y-14523809D01*
X52040295Y-14523809D02*
X51945057Y-14476190D01*
X51945057Y-14476190D02*
X51897438Y-14428571D01*
X51897438Y-14428571D02*
X51849819Y-14333333D01*
X51849819Y-14333333D02*
X51849819Y-14095238D01*
X51849819Y-14095238D02*
X51897438Y-13952381D01*
X51849819Y-13095238D02*
X51849819Y-13285714D01*
X51849819Y-13285714D02*
X51897438Y-13380952D01*
X51897438Y-13380952D02*
X51945057Y-13428571D01*
X51945057Y-13428571D02*
X52087914Y-13523809D01*
X52087914Y-13523809D02*
X52278390Y-13571428D01*
X52278390Y-13571428D02*
X52659342Y-13571428D01*
X52659342Y-13571428D02*
X52754580Y-13523809D01*
X52754580Y-13523809D02*
X52802200Y-13476190D01*
X52802200Y-13476190D02*
X52849819Y-13380952D01*
X52849819Y-13380952D02*
X52849819Y-13190476D01*
X52849819Y-13190476D02*
X52802200Y-13095238D01*
X52802200Y-13095238D02*
X52754580Y-13047619D01*
X52754580Y-13047619D02*
X52659342Y-13000000D01*
X52659342Y-13000000D02*
X52421247Y-13000000D01*
X52421247Y-13000000D02*
X52326009Y-13047619D01*
X52326009Y-13047619D02*
X52278390Y-13095238D01*
X52278390Y-13095238D02*
X52230771Y-13190476D01*
X52230771Y-13190476D02*
X52230771Y-13380952D01*
X52230771Y-13380952D02*
X52278390Y-13476190D01*
X52278390Y-13476190D02*
X52326009Y-13523809D01*
X52326009Y-13523809D02*
X52421247Y-13571428D01*
D13*
%TO.C,R56*%
X49477500Y-23754724D02*
X49477500Y-23245276D01*
X50522500Y-23754724D02*
X50522500Y-23245276D01*
%TO.C,IS8*%
X69395000Y-15330000D02*
X69395000Y-14000000D01*
X70725000Y-15330000D02*
X69395000Y-15330000D01*
X71995000Y-12670000D02*
X74595000Y-12670000D01*
X71995000Y-15330000D02*
X71995000Y-12670000D01*
X71995000Y-15330000D02*
X74595000Y-15330000D01*
X74595000Y-15330000D02*
X74595000Y-12670000D01*
D14*
%TO.C,IC3*%
X26325000Y-34475000D02*
X27800000Y-34475000D01*
X28150000Y-34500000D02*
X31850000Y-34500000D01*
X28150000Y-39500000D02*
X28150000Y-34500000D01*
X31850000Y-34500000D02*
X31850000Y-39500000D01*
X31850000Y-39500000D02*
X28150000Y-39500000D01*
D13*
%TO.C,R72*%
X69745276Y-20477500D02*
X70254724Y-20477500D01*
X69745276Y-21522500D02*
X70254724Y-21522500D01*
%TO.C,Q5*%
X44440000Y-18000000D02*
X44440000Y-17350000D01*
X44440000Y-18000000D02*
X44440000Y-18650000D01*
X47560000Y-18000000D02*
X47560000Y-17350000D01*
X47560000Y-18000000D02*
X47560000Y-18650000D01*
X47840000Y-17077500D02*
X47510000Y-16837500D01*
X47840000Y-16597500D01*
X47840000Y-17077500D01*
G36*
X47840000Y-17077500D02*
G01*
X47510000Y-16837500D01*
X47840000Y-16597500D01*
X47840000Y-17077500D01*
G37*
%TO.C,R75*%
X62977500Y-23245276D02*
X62977500Y-23754724D01*
X64022500Y-23245276D02*
X64022500Y-23754724D01*
D15*
%TO.C,U6*%
X54879100Y-30679700D02*
X59120900Y-30679700D01*
X59120900Y-25320300D02*
X54879100Y-25320300D01*
D13*
%TO.C,R30*%
X33977500Y-23754724D02*
X33977500Y-23245276D01*
X35022500Y-23754724D02*
X35022500Y-23245276D01*
%TO.C,R71*%
X54477500Y-32754724D02*
X54477500Y-32245276D01*
X55522500Y-32754724D02*
X55522500Y-32245276D01*
%TO.C,Q8*%
X68440000Y-18000000D02*
X68440000Y-17350000D01*
X68440000Y-18000000D02*
X68440000Y-18650000D01*
X71560000Y-18000000D02*
X71560000Y-17350000D01*
X71560000Y-18000000D02*
X71560000Y-18650000D01*
X71840000Y-17077500D02*
X71510000Y-16837500D01*
X71840000Y-16597500D01*
X71840000Y-17077500D01*
G36*
X71840000Y-17077500D02*
G01*
X71510000Y-16837500D01*
X71840000Y-16597500D01*
X71840000Y-17077500D01*
G37*
%TO.C,R28*%
X37745276Y-20477500D02*
X38254724Y-20477500D01*
X37745276Y-21522500D02*
X38254724Y-21522500D01*
%TO.C,R74*%
X64477500Y-23754724D02*
X64477500Y-23245276D01*
X65522500Y-23754724D02*
X65522500Y-23245276D01*
%TO.C,R64*%
X55977500Y-32754724D02*
X55977500Y-32245276D01*
X57022500Y-32754724D02*
X57022500Y-32245276D01*
%TO.C,R85*%
X67477500Y-23754724D02*
X67477500Y-23245276D01*
X68522500Y-23754724D02*
X68522500Y-23245276D01*
%TO.C,R55*%
X48477500Y-32754724D02*
X48477500Y-32245276D01*
X49522500Y-32754724D02*
X49522500Y-32245276D01*
%TO.C,R37*%
X45745276Y-20477500D02*
X46254724Y-20477500D01*
X45745276Y-21522500D02*
X46254724Y-21522500D01*
%TO.C,R51*%
X35842224Y-34977500D02*
X35332776Y-34977500D01*
X35842224Y-36022500D02*
X35332776Y-36022500D01*
%TO.C,R78*%
X61477500Y-23245276D02*
X61477500Y-23754724D01*
X62522500Y-23245276D02*
X62522500Y-23754724D01*
%TO.C,R9*%
X21745276Y-20477500D02*
X22254724Y-20477500D01*
X21745276Y-21522500D02*
X22254724Y-21522500D01*
%TO.C,R36*%
X31477500Y-32754724D02*
X31477500Y-32245276D01*
X32522500Y-32754724D02*
X32522500Y-32245276D01*
%TO.C,R76*%
X64977500Y-32754724D02*
X64977500Y-32245276D01*
X66022500Y-32754724D02*
X66022500Y-32245276D01*
%TO.C,Q1*%
X12440000Y-18000000D02*
X12440000Y-17350000D01*
X12440000Y-18000000D02*
X12440000Y-18650000D01*
X15560000Y-18000000D02*
X15560000Y-17350000D01*
X15560000Y-18000000D02*
X15560000Y-18650000D01*
X15840000Y-17077500D02*
X15510000Y-16837500D01*
X15840000Y-16597500D01*
X15840000Y-17077500D01*
G36*
X15840000Y-17077500D02*
G01*
X15510000Y-16837500D01*
X15840000Y-16597500D01*
X15840000Y-17077500D01*
G37*
%TO.C,R1*%
X61477500Y-41667224D02*
X61477500Y-41157776D01*
X62522500Y-41667224D02*
X62522500Y-41157776D01*
%TO.C,R60*%
X45977500Y-23245276D02*
X45977500Y-23754724D01*
X47022500Y-23245276D02*
X47022500Y-23754724D01*
%TO.C,R24*%
X12977500Y-23754724D02*
X12977500Y-23245276D01*
X14022500Y-23754724D02*
X14022500Y-23245276D01*
%TO.C,R38*%
X39744769Y-31155531D02*
X40254217Y-31155531D01*
X39744769Y-32200531D02*
X40254217Y-32200531D01*
%TO.C,R54*%
X74254724Y-20477500D02*
X73745276Y-20477500D01*
X74254724Y-21522500D02*
X73745276Y-21522500D01*
D15*
%TO.C,U8*%
X69879100Y-30679700D02*
X74120900Y-30679700D01*
X74120900Y-25320300D02*
X69879100Y-25320300D01*
D13*
%TO.C,R35*%
X35977500Y-32754724D02*
X35977500Y-32245276D01*
X37022500Y-32754724D02*
X37022500Y-32245276D01*
D15*
%TO.C,U1*%
X17379100Y-30679700D02*
X21620900Y-30679700D01*
X21620900Y-25320300D02*
X17379100Y-25320300D01*
D13*
%TO.C,R42*%
X26254724Y-20477500D02*
X25745276Y-20477500D01*
X26254724Y-21522500D02*
X25745276Y-21522500D01*
%TO.C,R46*%
X42254724Y-20477500D02*
X41745276Y-20477500D01*
X42254724Y-21522500D02*
X41745276Y-21522500D01*
%TO.C,Q14*%
X56440000Y-18000000D02*
X56440000Y-17350000D01*
X56440000Y-18000000D02*
X56440000Y-18650000D01*
X59560000Y-18000000D02*
X59560000Y-17350000D01*
X59560000Y-18000000D02*
X59560000Y-18650000D01*
X56490000Y-19162500D02*
X56160000Y-19402500D01*
X56160000Y-18922500D01*
X56490000Y-19162500D01*
G36*
X56490000Y-19162500D02*
G01*
X56160000Y-19402500D01*
X56160000Y-18922500D01*
X56490000Y-19162500D01*
G37*
%TO.C,R59*%
X44477500Y-23754724D02*
X44477500Y-23245276D01*
X45522500Y-23754724D02*
X45522500Y-23245276D01*
%TO.C,R40*%
X18254724Y-20477500D02*
X17745276Y-20477500D01*
X18254724Y-21522500D02*
X17745276Y-21522500D01*
D15*
%TO.C,U5*%
X47379100Y-30679700D02*
X51620900Y-30679700D01*
X51620900Y-25320300D02*
X47379100Y-25320300D01*
D13*
%TO.C,R20*%
X18477500Y-32754724D02*
X18477500Y-32245276D01*
X19522500Y-32754724D02*
X19522500Y-32245276D01*
%TO.C,R84*%
X72477500Y-32754724D02*
X72477500Y-32245276D01*
X73522500Y-32754724D02*
X73522500Y-32245276D01*
%TO.C,R16*%
X22477500Y-23245276D02*
X22477500Y-23754724D01*
X23522500Y-23245276D02*
X23522500Y-23754724D01*
%TO.C,IS1*%
X13395000Y-15330000D02*
X13395000Y-14000000D01*
X14725000Y-15330000D02*
X13395000Y-15330000D01*
X15995000Y-12670000D02*
X18595000Y-12670000D01*
X15995000Y-15330000D02*
X15995000Y-12670000D01*
X15995000Y-15330000D02*
X18595000Y-15330000D01*
X18595000Y-15330000D02*
X18595000Y-12670000D01*
%TO.C,R88*%
X69477500Y-32754724D02*
X69477500Y-32245276D01*
X70522500Y-32754724D02*
X70522500Y-32245276D01*
D14*
%TO.C,IC1*%
X13550000Y-37400000D02*
X13550000Y-40600000D01*
D16*
X14005000Y-43200000D02*
X14005000Y-43200000D01*
X14005000Y-43300000D02*
X14005000Y-43300000D01*
D14*
X23450000Y-37400000D02*
X23450000Y-40600000D01*
D16*
X14005000Y-43200000D02*
G75*
G02*
X14005000Y-43300000I0J-50000D01*
G01*
X14005000Y-43300000D02*
G75*
G02*
X14005000Y-43200000I0J50000D01*
G01*
D13*
%TO.C,R43*%
X43754724Y-31477500D02*
X43245276Y-31477500D01*
X43754724Y-32522500D02*
X43245276Y-32522500D01*
%TO.C,IS5*%
X45395000Y-15330000D02*
X45395000Y-14000000D01*
X46725000Y-15330000D02*
X45395000Y-15330000D01*
X47995000Y-12670000D02*
X50595000Y-12670000D01*
X47995000Y-15330000D02*
X47995000Y-12670000D01*
X47995000Y-15330000D02*
X50595000Y-15330000D01*
X50595000Y-15330000D02*
X50595000Y-12670000D01*
%TO.C,Q11*%
X32440000Y-18000000D02*
X32440000Y-17350000D01*
X32440000Y-18000000D02*
X32440000Y-18650000D01*
X35560000Y-18000000D02*
X35560000Y-17350000D01*
X35560000Y-18000000D02*
X35560000Y-18650000D01*
X32490000Y-19162500D02*
X32160000Y-19402500D01*
X32160000Y-18922500D01*
X32490000Y-19162500D01*
G36*
X32490000Y-19162500D02*
G01*
X32160000Y-19402500D01*
X32160000Y-18922500D01*
X32490000Y-19162500D01*
G37*
%TO.C,IS4*%
X37395000Y-15330000D02*
X37395000Y-14000000D01*
X38725000Y-15330000D02*
X37395000Y-15330000D01*
X39995000Y-12670000D02*
X42595000Y-12670000D01*
X39995000Y-15330000D02*
X39995000Y-12670000D01*
X39995000Y-15330000D02*
X42595000Y-15330000D01*
X42595000Y-15330000D02*
X42595000Y-12670000D01*
%TO.C,R31*%
X32477500Y-23245276D02*
X32477500Y-23754724D01*
X33522500Y-23245276D02*
X33522500Y-23754724D01*
%TO.C,R53*%
X53745276Y-20477500D02*
X54254724Y-20477500D01*
X53745276Y-21522500D02*
X54254724Y-21522500D01*
%TO.C,R87*%
X73977500Y-32754724D02*
X73977500Y-32245276D01*
X75022500Y-32754724D02*
X75022500Y-32245276D01*
%TO.C,Q7*%
X60440000Y-18000000D02*
X60440000Y-17350000D01*
X60440000Y-18000000D02*
X60440000Y-18650000D01*
X63560000Y-18000000D02*
X63560000Y-17350000D01*
X63560000Y-18000000D02*
X63560000Y-18650000D01*
X63840000Y-17077500D02*
X63510000Y-16837500D01*
X63840000Y-16597500D01*
X63840000Y-17077500D01*
G36*
X63840000Y-17077500D02*
G01*
X63510000Y-16837500D01*
X63840000Y-16597500D01*
X63840000Y-17077500D01*
G37*
%TO.C,R65*%
X56977500Y-23754724D02*
X56977500Y-23245276D01*
X58022500Y-23754724D02*
X58022500Y-23245276D01*
%TO.C,Q10*%
X24440000Y-18000000D02*
X24440000Y-17350000D01*
X24440000Y-18000000D02*
X24440000Y-18650000D01*
X27560000Y-18000000D02*
X27560000Y-17350000D01*
X27560000Y-18000000D02*
X27560000Y-18650000D01*
X24490000Y-19162500D02*
X24160000Y-19402500D01*
X24160000Y-18922500D01*
X24490000Y-19162500D01*
G36*
X24490000Y-19162500D02*
G01*
X24160000Y-19402500D01*
X24160000Y-18922500D01*
X24490000Y-19162500D01*
G37*
%TO.C,R27*%
X16977500Y-32754724D02*
X16977500Y-32245276D01*
X18022500Y-32754724D02*
X18022500Y-32245276D01*
%TO.C,Q3*%
X28440000Y-18000000D02*
X28440000Y-17350000D01*
X28440000Y-18000000D02*
X28440000Y-18650000D01*
X31560000Y-18000000D02*
X31560000Y-17350000D01*
X31560000Y-18000000D02*
X31560000Y-18650000D01*
X31840000Y-17077500D02*
X31510000Y-16837500D01*
X31840000Y-16597500D01*
X31840000Y-17077500D01*
G36*
X31840000Y-17077500D02*
G01*
X31510000Y-16837500D01*
X31840000Y-16597500D01*
X31840000Y-17077500D01*
G37*
%TO.C,IS7*%
X61395000Y-15330000D02*
X61395000Y-14000000D01*
X62725000Y-15330000D02*
X61395000Y-15330000D01*
X63995000Y-12670000D02*
X66595000Y-12670000D01*
X63995000Y-15330000D02*
X63995000Y-12670000D01*
X63995000Y-15330000D02*
X66595000Y-15330000D01*
X66595000Y-15330000D02*
X66595000Y-12670000D01*
D15*
%TO.C,U2*%
X24879100Y-30679700D02*
X29120900Y-30679700D01*
X29120900Y-25320300D02*
X24879100Y-25320300D01*
D13*
%TO.C,R11*%
X25977500Y-32754724D02*
X25977500Y-32245276D01*
X27022500Y-32754724D02*
X27022500Y-32245276D01*
%TO.C,Q2*%
X20440000Y-18000000D02*
X20440000Y-17350000D01*
X20440000Y-18000000D02*
X20440000Y-18650000D01*
X23560000Y-18000000D02*
X23560000Y-17350000D01*
X23560000Y-18000000D02*
X23560000Y-18650000D01*
X23840000Y-17077500D02*
X23510000Y-16837500D01*
X23840000Y-16597500D01*
X23840000Y-17077500D01*
G36*
X23840000Y-17077500D02*
G01*
X23510000Y-16837500D01*
X23840000Y-16597500D01*
X23840000Y-17077500D01*
G37*
%TO.C,R62*%
X46977500Y-32754724D02*
X46977500Y-32245276D01*
X48022500Y-32754724D02*
X48022500Y-32245276D01*
%TO.C,Q4*%
X36440000Y-18000000D02*
X36440000Y-17350000D01*
X36440000Y-18000000D02*
X36440000Y-18650000D01*
X39560000Y-18000000D02*
X39560000Y-17350000D01*
X39560000Y-18000000D02*
X39560000Y-18650000D01*
X39840000Y-17077500D02*
X39510000Y-16837500D01*
X39840000Y-16597500D01*
X39840000Y-17077500D01*
G36*
X39840000Y-17077500D02*
G01*
X39510000Y-16837500D01*
X39840000Y-16597500D01*
X39840000Y-17077500D01*
G37*
%TO.C,J2*%
X12170000Y-26395000D02*
X13500000Y-26395000D01*
X12170000Y-27725000D02*
X12170000Y-26395000D01*
X12170000Y-28995000D02*
X12170000Y-31595000D01*
X12170000Y-28995000D02*
X14830000Y-28995000D01*
X12170000Y-31595000D02*
X14830000Y-31595000D01*
X14830000Y-28995000D02*
X14830000Y-31595000D01*
%TO.C,R33*%
X28977500Y-23754724D02*
X28977500Y-23245276D01*
X30022500Y-23754724D02*
X30022500Y-23245276D01*
%TO.C,Q15*%
X64440000Y-18000000D02*
X64440000Y-17350000D01*
X64440000Y-18000000D02*
X64440000Y-18650000D01*
X67560000Y-18000000D02*
X67560000Y-17350000D01*
X67560000Y-18000000D02*
X67560000Y-18650000D01*
X64490000Y-19162500D02*
X64160000Y-19402500D01*
X64160000Y-18922500D01*
X64490000Y-19162500D01*
G36*
X64490000Y-19162500D02*
G01*
X64160000Y-19402500D01*
X64160000Y-18922500D01*
X64490000Y-19162500D01*
G37*
%TO.C,R66*%
X55477500Y-23245276D02*
X55477500Y-23754724D01*
X56522500Y-23245276D02*
X56522500Y-23754724D01*
%TO.C,IS2*%
X21395000Y-15330000D02*
X21395000Y-14000000D01*
X22725000Y-15330000D02*
X21395000Y-15330000D01*
X23995000Y-12670000D02*
X26595000Y-12670000D01*
X23995000Y-15330000D02*
X23995000Y-12670000D01*
X23995000Y-15330000D02*
X26595000Y-15330000D01*
X26595000Y-15330000D02*
X26595000Y-12670000D01*
%TO.C,Q13*%
X48440000Y-18000000D02*
X48440000Y-17350000D01*
X48440000Y-18000000D02*
X48440000Y-18650000D01*
X51560000Y-18000000D02*
X51560000Y-17350000D01*
X51560000Y-18000000D02*
X51560000Y-18650000D01*
X48490000Y-19162500D02*
X48160000Y-19402500D01*
X48160000Y-18922500D01*
X48490000Y-19162500D01*
G36*
X48490000Y-19162500D02*
G01*
X48160000Y-19402500D01*
X48160000Y-18922500D01*
X48490000Y-19162500D01*
G37*
%TO.C,R61*%
X51477500Y-32754724D02*
X51477500Y-32245276D01*
X52522500Y-32754724D02*
X52522500Y-32245276D01*
%TO.C,R39*%
X41977500Y-23754724D02*
X41977500Y-23245276D01*
X43022500Y-23754724D02*
X43022500Y-23245276D01*
D15*
%TO.C,U4*%
X39879100Y-30679700D02*
X44120900Y-30679700D01*
X44120900Y-25320300D02*
X39879100Y-25320300D01*
D13*
%TO.C,Q6*%
X52440000Y-18000000D02*
X52440000Y-17350000D01*
X52440000Y-18000000D02*
X52440000Y-18650000D01*
X55560000Y-18000000D02*
X55560000Y-17350000D01*
X55560000Y-18000000D02*
X55560000Y-18650000D01*
X55840000Y-17077500D02*
X55510000Y-16837500D01*
X55840000Y-16597500D01*
X55840000Y-17077500D01*
G36*
X55840000Y-17077500D02*
G01*
X55510000Y-16837500D01*
X55840000Y-16597500D01*
X55840000Y-17077500D01*
G37*
%TO.C,R26*%
X21477500Y-32754724D02*
X21477500Y-32245276D01*
X22522500Y-32754724D02*
X22522500Y-32245276D01*
%TO.C,R82*%
X71977500Y-23754724D02*
X71977500Y-23245276D01*
X73022500Y-23754724D02*
X73022500Y-23245276D01*
%TO.C,R50*%
X58254724Y-20477500D02*
X57745276Y-20477500D01*
X58254724Y-21522500D02*
X57745276Y-21522500D01*
%TO.C,R15*%
X20977500Y-23754724D02*
X20977500Y-23245276D01*
X22022500Y-23754724D02*
X22022500Y-23245276D01*
%TO.C,R32*%
X34477500Y-32754724D02*
X34477500Y-32245276D01*
X35522500Y-32754724D02*
X35522500Y-32245276D01*
%TO.C,IS3*%
X29395000Y-15330000D02*
X29395000Y-14000000D01*
X30725000Y-15330000D02*
X29395000Y-15330000D01*
X31995000Y-12670000D02*
X34595000Y-12670000D01*
X31995000Y-15330000D02*
X31995000Y-12670000D01*
X31995000Y-15330000D02*
X34595000Y-15330000D01*
X34595000Y-15330000D02*
X34595000Y-12670000D01*
%TO.C,R21*%
X17977500Y-23754724D02*
X17977500Y-23245276D01*
X19022500Y-23754724D02*
X19022500Y-23245276D01*
%TO.C,R69*%
X53477500Y-23245276D02*
X53477500Y-23754724D01*
X54522500Y-23245276D02*
X54522500Y-23754724D01*
%TO.C,R80*%
X61977500Y-32754724D02*
X61977500Y-32245276D01*
X63022500Y-32754724D02*
X63022500Y-32245276D01*
%TO.C,R17*%
X28977500Y-32754724D02*
X28977500Y-32245276D01*
X30022500Y-32754724D02*
X30022500Y-32245276D01*
%TO.C,R63*%
X61745276Y-20477500D02*
X62254724Y-20477500D01*
X61745276Y-21522500D02*
X62254724Y-21522500D01*
D14*
%TO.C,IC2*%
X64550000Y-37400000D02*
X64550000Y-40600000D01*
D16*
X65005000Y-43200000D02*
X65005000Y-43200000D01*
X65005000Y-43300000D02*
X65005000Y-43300000D01*
D14*
X74450000Y-37400000D02*
X74450000Y-40600000D01*
D16*
X65005000Y-43200000D02*
G75*
G02*
X65005000Y-43300000I0J-50000D01*
G01*
X65005000Y-43300000D02*
G75*
G02*
X65005000Y-43200000I0J50000D01*
G01*
D13*
%TO.C,R25*%
X14477500Y-23245276D02*
X14477500Y-23754724D01*
X15522500Y-23245276D02*
X15522500Y-23754724D01*
%TO.C,R49*%
X35842224Y-36477500D02*
X35332776Y-36477500D01*
X35842224Y-37522500D02*
X35332776Y-37522500D01*
%TO.C,R57*%
X47977500Y-23245276D02*
X47977500Y-23754724D01*
X49022500Y-23245276D02*
X49022500Y-23754724D01*
%TO.C,R29*%
X32977500Y-32754724D02*
X32977500Y-32245276D01*
X34022500Y-32754724D02*
X34022500Y-32245276D01*
%TO.C,R47*%
X38477500Y-23245276D02*
X38477500Y-23754724D01*
X39522500Y-23245276D02*
X39522500Y-23754724D01*
%TO.C,R52*%
X66254724Y-20477500D02*
X65745276Y-20477500D01*
X66254724Y-21522500D02*
X65745276Y-21522500D01*
%TO.C,R67*%
X57477500Y-32754724D02*
X57477500Y-32245276D01*
X58522500Y-32754724D02*
X58522500Y-32245276D01*
%TO.C,Q12*%
X40440000Y-18000000D02*
X40440000Y-17350000D01*
X40440000Y-18000000D02*
X40440000Y-18650000D01*
X43560000Y-18000000D02*
X43560000Y-17350000D01*
X43560000Y-18000000D02*
X43560000Y-18650000D01*
X40490000Y-19162500D02*
X40160000Y-19402500D01*
X40160000Y-18922500D01*
X40490000Y-19162500D01*
G36*
X40490000Y-19162500D02*
G01*
X40160000Y-19402500D01*
X40160000Y-18922500D01*
X40490000Y-19162500D01*
G37*
%TO.C,R19*%
X29745276Y-20477500D02*
X30254724Y-20477500D01*
X29745276Y-21522500D02*
X30254724Y-21522500D01*
D15*
%TO.C,U7*%
X62379100Y-30679700D02*
X66620900Y-30679700D01*
X66620900Y-25320300D02*
X62379100Y-25320300D01*
D13*
%TO.C,R41*%
X40477500Y-23245276D02*
X40477500Y-23754724D01*
X41522500Y-23245276D02*
X41522500Y-23754724D01*
D14*
%TO.C,IC5*%
X50325000Y-34475000D02*
X51800000Y-34475000D01*
X52150000Y-34500000D02*
X55850000Y-34500000D01*
X52150000Y-39500000D02*
X52150000Y-34500000D01*
X55850000Y-34500000D02*
X55850000Y-39500000D01*
X55850000Y-39500000D02*
X52150000Y-39500000D01*
D13*
%TO.C,R18*%
X24477500Y-32754724D02*
X24477500Y-32245276D01*
X25522500Y-32754724D02*
X25522500Y-32245276D01*
%TO.C,R48*%
X50254724Y-20477500D02*
X49745276Y-20477500D01*
X50254724Y-21522500D02*
X49745276Y-21522500D01*
D15*
%TO.C,U3*%
X32379100Y-30679700D02*
X36620900Y-30679700D01*
X36620900Y-25320300D02*
X32379100Y-25320300D01*
D13*
%TO.C,R14*%
X27477500Y-32754724D02*
X27477500Y-32245276D01*
X28522500Y-32754724D02*
X28522500Y-32245276D01*
D14*
%TO.C,IC4*%
X38825000Y-33000000D02*
X40300000Y-33000000D01*
X40650000Y-33250000D02*
X44350000Y-33250000D01*
X40650000Y-39750000D02*
X40650000Y-33250000D01*
X44350000Y-33250000D02*
X44350000Y-39750000D01*
X44350000Y-39750000D02*
X40650000Y-39750000D01*
D13*
%TO.C,R34*%
X30477500Y-23245276D02*
X30477500Y-23754724D01*
X31522500Y-23245276D02*
X31522500Y-23754724D01*
%TO.C,R23*%
X19977500Y-32754724D02*
X19977500Y-32245276D01*
X21022500Y-32754724D02*
X21022500Y-32245276D01*
%TO.C,Q16*%
X72440000Y-18000000D02*
X72440000Y-17350000D01*
X72440000Y-18000000D02*
X72440000Y-18650000D01*
X75560000Y-18000000D02*
X75560000Y-17350000D01*
X75560000Y-18000000D02*
X75560000Y-18650000D01*
X72490000Y-19162500D02*
X72160000Y-19402500D01*
X72160000Y-18922500D01*
X72490000Y-19162500D01*
G36*
X72490000Y-19162500D02*
G01*
X72160000Y-19402500D01*
X72160000Y-18922500D01*
X72490000Y-19162500D01*
G37*
%TO.C,R45*%
X36977500Y-23754724D02*
X36977500Y-23245276D01*
X38022500Y-23754724D02*
X38022500Y-23245276D01*
%TO.C,IS6*%
X53395000Y-15330000D02*
X53395000Y-14000000D01*
X54725000Y-15330000D02*
X53395000Y-15330000D01*
X55995000Y-12670000D02*
X58595000Y-12670000D01*
X55995000Y-15330000D02*
X55995000Y-12670000D01*
X55995000Y-15330000D02*
X58595000Y-15330000D01*
X58595000Y-15330000D02*
X58595000Y-12670000D01*
%TO.C,Q9*%
X16440000Y-18000000D02*
X16440000Y-17350000D01*
X16440000Y-18000000D02*
X16440000Y-18650000D01*
X19560000Y-18000000D02*
X19560000Y-17350000D01*
X19560000Y-18000000D02*
X19560000Y-18650000D01*
X16490000Y-19162500D02*
X16160000Y-19402500D01*
X16160000Y-18922500D01*
X16490000Y-19162500D01*
G36*
X16490000Y-19162500D02*
G01*
X16160000Y-19402500D01*
X16160000Y-18922500D01*
X16490000Y-19162500D01*
G37*
%TO.C,R70*%
X58977500Y-32754724D02*
X58977500Y-32245276D01*
X60022500Y-32754724D02*
X60022500Y-32245276D01*
%TO.C,R73*%
X63477500Y-32754724D02*
X63477500Y-32245276D01*
X64522500Y-32754724D02*
X64522500Y-32245276D01*
%TO.C,R13*%
X24477500Y-23245276D02*
X24477500Y-23754724D01*
X25522500Y-23245276D02*
X25522500Y-23754724D01*
%TO.C,R58*%
X49977500Y-32754724D02*
X49977500Y-32245276D01*
X51022500Y-32754724D02*
X51022500Y-32245276D01*
%TO.C,R68*%
X51977500Y-23754724D02*
X51977500Y-23245276D01*
X53022500Y-23754724D02*
X53022500Y-23245276D01*
%TO.C,R86*%
X68977500Y-23245276D02*
X68977500Y-23754724D01*
X70022500Y-23245276D02*
X70022500Y-23754724D01*
%TO.C,R83*%
X70477500Y-23245276D02*
X70477500Y-23754724D01*
X71522500Y-23245276D02*
X71522500Y-23754724D01*
%TO.C,R44*%
X34254724Y-20477500D02*
X33745276Y-20477500D01*
X34254724Y-21522500D02*
X33745276Y-21522500D01*
%TO.C,R12*%
X25977500Y-23754724D02*
X25977500Y-23245276D01*
X27022500Y-23754724D02*
X27022500Y-23245276D01*
%TO.C,R10*%
X13745276Y-20477500D02*
X14254724Y-20477500D01*
X13745276Y-21522500D02*
X14254724Y-21522500D01*
%TO.C,R22*%
X16477500Y-23245276D02*
X16477500Y-23754724D01*
X17522500Y-23245276D02*
X17522500Y-23754724D01*
%TO.C,R81*%
X70977500Y-32754724D02*
X70977500Y-32245276D01*
X72022500Y-32754724D02*
X72022500Y-32245276D01*
%TO.C,R79*%
X66477500Y-32754724D02*
X66477500Y-32245276D01*
X67522500Y-32754724D02*
X67522500Y-32245276D01*
%TO.C,R77*%
X59977500Y-23754724D02*
X59977500Y-23245276D01*
X61022500Y-23754724D02*
X61022500Y-23245276D01*
%TO.C,J1*%
X27470000Y-43330000D02*
X27470000Y-42000000D01*
X28800000Y-43330000D02*
X27470000Y-43330000D01*
X30070000Y-40670000D02*
X60610000Y-40670000D01*
X30070000Y-43330000D02*
X30070000Y-40670000D01*
X30070000Y-43330000D02*
X60610000Y-43330000D01*
X60610000Y-43330000D02*
X60610000Y-40670000D01*
%TD*%
M02*
