%TF.GenerationSoftware,KiCad,Pcbnew,8.0.4*%
%TF.CreationDate,2024-08-11T12:29:12-04:00*%
%TF.ProjectId,Inhibit Sense Circuit,496e6869-6269-4742-9053-656e73652043,rev?*%
%TF.SameCoordinates,Original*%
%TF.FileFunction,Soldermask,Bot*%
%TF.FilePolarity,Negative*%
%FSLAX46Y46*%
G04 Gerber Fmt 4.6, Leading zero omitted, Abs format (unit mm)*
G04 Created by KiCad (PCBNEW 8.0.4) date 2024-08-11 12:29:12*
%MOMM*%
%LPD*%
G01*
G04 APERTURE LIST*
G04 Aperture macros list*
%AMRoundRect*
0 Rectangle with rounded corners*
0 $1 Rounding radius*
0 $2 $3 $4 $5 $6 $7 $8 $9 X,Y pos of 4 corners*
0 Add a 4 corners polygon primitive as box body*
4,1,4,$2,$3,$4,$5,$6,$7,$8,$9,$2,$3,0*
0 Add four circle primitives for the rounded corners*
1,1,$1+$1,$2,$3*
1,1,$1+$1,$4,$5*
1,1,$1+$1,$6,$7*
1,1,$1+$1,$8,$9*
0 Add four rect primitives between the rounded corners*
20,1,$1+$1,$2,$3,$4,$5,0*
20,1,$1+$1,$4,$5,$6,$7,0*
20,1,$1+$1,$6,$7,$8,$9,0*
20,1,$1+$1,$8,$9,$2,$3,0*%
G04 Aperture macros list end*
%ADD10R,1.700000X1.700000*%
%ADD11O,1.700000X1.700000*%
%ADD12RoundRect,0.237500X-0.237500X0.300000X-0.237500X-0.300000X0.237500X-0.300000X0.237500X0.300000X0*%
%ADD13RoundRect,0.237500X-0.300000X-0.237500X0.300000X-0.237500X0.300000X0.237500X-0.300000X0.237500X0*%
%ADD14RoundRect,0.237500X0.300000X0.237500X-0.300000X0.237500X-0.300000X-0.237500X0.300000X-0.237500X0*%
%ADD15RoundRect,0.237500X0.237500X-0.300000X0.237500X0.300000X-0.237500X0.300000X-0.237500X-0.300000X0*%
G04 APERTURE END LIST*
D10*
%TO.C,IS8*%
X70725000Y-14000000D03*
D11*
X73265000Y-14000000D03*
%TD*%
D10*
%TO.C,IS1*%
X14725000Y-14000000D03*
D11*
X17265000Y-14000000D03*
%TD*%
D10*
%TO.C,IS5*%
X46725000Y-14000000D03*
D11*
X49265000Y-14000000D03*
%TD*%
D10*
%TO.C,IS4*%
X38725000Y-14000000D03*
D11*
X41265000Y-14000000D03*
%TD*%
D10*
%TO.C,IS7*%
X62725000Y-14000000D03*
D11*
X65265000Y-14000000D03*
%TD*%
D10*
%TO.C,J2*%
X13500000Y-27725000D03*
D11*
X13500000Y-30265000D03*
%TD*%
D10*
%TO.C,IS2*%
X22725000Y-14000000D03*
D11*
X25265000Y-14000000D03*
%TD*%
D10*
%TO.C,IS3*%
X30725000Y-14000000D03*
D11*
X33265000Y-14000000D03*
%TD*%
D10*
%TO.C,IS6*%
X54725000Y-14000000D03*
D11*
X57265000Y-14000000D03*
%TD*%
D10*
%TO.C,J1*%
X28800000Y-42000000D03*
D11*
X31340000Y-42000000D03*
X33880000Y-42000000D03*
X36420000Y-42000000D03*
X38960000Y-42000000D03*
X41500000Y-42000000D03*
X44040000Y-42000000D03*
X46580000Y-42000000D03*
X49120000Y-42000000D03*
X51660000Y-42000000D03*
X54200000Y-42000000D03*
X56740000Y-42000000D03*
X59280000Y-42000000D03*
%TD*%
D12*
%TO.C,C9*%
X14000000Y-16775000D03*
X14000000Y-18500000D03*
%TD*%
%TO.C,C48*%
X62000000Y-16637500D03*
X62000000Y-18362500D03*
%TD*%
D13*
%TO.C,C19*%
X22137500Y-29500000D03*
X23862500Y-29500000D03*
%TD*%
D12*
%TO.C,C14*%
X54000000Y-16637500D03*
X54000000Y-18362500D03*
%TD*%
%TO.C,C15*%
X70000000Y-16775000D03*
X70000000Y-18500000D03*
%TD*%
D14*
%TO.C,C3*%
X62362500Y-36500000D03*
X60637500Y-36500000D03*
%TD*%
D12*
%TO.C,C12*%
X38000000Y-16637500D03*
X38000000Y-18362500D03*
%TD*%
D14*
%TO.C,C8*%
X32000000Y-34000000D03*
X30275000Y-34000000D03*
%TD*%
D15*
%TO.C,C20*%
X17500000Y-31225000D03*
X17500000Y-29500000D03*
%TD*%
D14*
%TO.C,C18*%
X33000000Y-29500000D03*
X31275000Y-29500000D03*
%TD*%
%TO.C,C17*%
X38362500Y-29500000D03*
X36637500Y-29500000D03*
%TD*%
D13*
%TO.C,C2*%
X55500000Y-36000000D03*
X57225000Y-36000000D03*
%TD*%
D12*
%TO.C,C10*%
X22000000Y-16775000D03*
X22000000Y-18500000D03*
%TD*%
D14*
%TO.C,C6*%
X53725000Y-29500000D03*
X52000000Y-29500000D03*
%TD*%
%TO.C,C16*%
X45725000Y-30000000D03*
X44000000Y-30000000D03*
%TD*%
D13*
%TO.C,C7*%
X17500000Y-33500000D03*
X19225000Y-33500000D03*
%TD*%
%TO.C,C4*%
X69637500Y-31000000D03*
X71362500Y-31000000D03*
%TD*%
%TO.C,C5*%
X61500000Y-29500000D03*
X63225000Y-29500000D03*
%TD*%
D12*
%TO.C,C13*%
X46000000Y-16637500D03*
X46000000Y-18362500D03*
%TD*%
%TO.C,C1*%
X45000000Y-32637500D03*
X45000000Y-34362500D03*
%TD*%
%TO.C,C11*%
X30000000Y-16637500D03*
X30000000Y-18362500D03*
%TD*%
M02*
