%TF.GenerationSoftware,KiCad,Pcbnew,8.0.4*%
%TF.CreationDate,2024-08-11T12:29:12-04:00*%
%TF.ProjectId,Inhibit Sense Circuit,496e6869-6269-4742-9053-656e73652043,rev?*%
%TF.SameCoordinates,Original*%
%TF.FileFunction,Paste,Top*%
%TF.FilePolarity,Positive*%
%FSLAX46Y46*%
G04 Gerber Fmt 4.6, Leading zero omitted, Abs format (unit mm)*
G04 Created by KiCad (PCBNEW 8.0.4) date 2024-08-11 12:29:12*
%MOMM*%
%LPD*%
G01*
G04 APERTURE LIST*
G04 Aperture macros list*
%AMRoundRect*
0 Rectangle with rounded corners*
0 $1 Rounding radius*
0 $2 $3 $4 $5 $6 $7 $8 $9 X,Y pos of 4 corners*
0 Add a 4 corners polygon primitive as box body*
4,1,4,$2,$3,$4,$5,$6,$7,$8,$9,$2,$3,0*
0 Add four circle primitives for the rounded corners*
1,1,$1+$1,$2,$3*
1,1,$1+$1,$4,$5*
1,1,$1+$1,$6,$7*
1,1,$1+$1,$8,$9*
0 Add four rect primitives between the rounded corners*
20,1,$1+$1,$2,$3,$4,$5,0*
20,1,$1+$1,$4,$5,$6,$7,0*
20,1,$1+$1,$6,$7,$8,$9,0*
20,1,$1+$1,$8,$9,$2,$3,0*%
G04 Aperture macros list end*
%ADD10RoundRect,0.237500X0.237500X-0.250000X0.237500X0.250000X-0.237500X0.250000X-0.237500X-0.250000X0*%
%ADD11R,1.475000X0.450000*%
%ADD12RoundRect,0.237500X-0.250000X-0.237500X0.250000X-0.237500X0.250000X0.237500X-0.250000X0.237500X0*%
%ADD13RoundRect,0.150000X-0.150000X0.587500X-0.150000X-0.587500X0.150000X-0.587500X0.150000X0.587500X0*%
%ADD14RoundRect,0.237500X-0.237500X0.250000X-0.237500X-0.250000X0.237500X-0.250000X0.237500X0.250000X0*%
%ADD15R,1.460500X0.558800*%
%ADD16RoundRect,0.237500X0.250000X0.237500X-0.250000X0.237500X-0.250000X-0.237500X0.250000X-0.237500X0*%
%ADD17RoundRect,0.150000X0.150000X-0.587500X0.150000X0.587500X-0.150000X0.587500X-0.150000X-0.587500X0*%
%ADD18R,0.800000X1.750000*%
%ADD19R,0.700000X1.750000*%
G04 APERTURE END LIST*
D10*
%TO.C,R56*%
X50000000Y-24412500D03*
X50000000Y-22587500D03*
%TD*%
D11*
%TO.C,IC3*%
X27062000Y-35050000D03*
X27062000Y-35700000D03*
X27062000Y-36350000D03*
X27062000Y-37000000D03*
X27062000Y-37650000D03*
X27062000Y-38300000D03*
X27062000Y-38950000D03*
X32938000Y-38950000D03*
X32938000Y-38300000D03*
X32938000Y-37650000D03*
X32938000Y-37000000D03*
X32938000Y-36350000D03*
X32938000Y-35700000D03*
X32938000Y-35050000D03*
%TD*%
D12*
%TO.C,R72*%
X69087500Y-21000000D03*
X70912500Y-21000000D03*
%TD*%
D13*
%TO.C,Q5*%
X46950000Y-17062500D03*
X45050000Y-17062500D03*
X46000000Y-18937500D03*
%TD*%
D14*
%TO.C,R75*%
X63500000Y-22587500D03*
X63500000Y-24412500D03*
%TD*%
D15*
%TO.C,U6*%
X59724150Y-29905000D03*
X59724150Y-28635000D03*
X59724150Y-27365000D03*
X59724150Y-26095000D03*
X54275850Y-26095000D03*
X54275850Y-27365000D03*
X54275850Y-28635000D03*
X54275850Y-29905000D03*
%TD*%
D10*
%TO.C,R30*%
X34500000Y-24412500D03*
X34500000Y-22587500D03*
%TD*%
%TO.C,R71*%
X55000000Y-33412500D03*
X55000000Y-31587500D03*
%TD*%
D13*
%TO.C,Q8*%
X70950000Y-17062500D03*
X69050000Y-17062500D03*
X70000000Y-18937500D03*
%TD*%
D12*
%TO.C,R28*%
X37087500Y-21000000D03*
X38912500Y-21000000D03*
%TD*%
D10*
%TO.C,R74*%
X65000000Y-24412500D03*
X65000000Y-22587500D03*
%TD*%
%TO.C,R64*%
X56500000Y-33412500D03*
X56500000Y-31587500D03*
%TD*%
%TO.C,R85*%
X68000000Y-24412500D03*
X68000000Y-22587500D03*
%TD*%
%TO.C,R55*%
X49000000Y-33412500D03*
X49000000Y-31587500D03*
%TD*%
D12*
%TO.C,R37*%
X45087500Y-21000000D03*
X46912500Y-21000000D03*
%TD*%
D16*
%TO.C,R51*%
X36500000Y-35500000D03*
X34675000Y-35500000D03*
%TD*%
D14*
%TO.C,R78*%
X62000000Y-22587500D03*
X62000000Y-24412500D03*
%TD*%
D12*
%TO.C,R9*%
X21087500Y-21000000D03*
X22912500Y-21000000D03*
%TD*%
D10*
%TO.C,R36*%
X32000000Y-33412500D03*
X32000000Y-31587500D03*
%TD*%
%TO.C,R76*%
X65500000Y-33412500D03*
X65500000Y-31587500D03*
%TD*%
D13*
%TO.C,Q1*%
X14950000Y-17062500D03*
X13050000Y-17062500D03*
X14000000Y-18937500D03*
%TD*%
D10*
%TO.C,R1*%
X62000000Y-42325000D03*
X62000000Y-40500000D03*
%TD*%
D14*
%TO.C,R60*%
X46500000Y-22587500D03*
X46500000Y-24412500D03*
%TD*%
D10*
%TO.C,R24*%
X13500000Y-24412500D03*
X13500000Y-22587500D03*
%TD*%
D12*
%TO.C,R38*%
X39086993Y-31678031D03*
X40911993Y-31678031D03*
%TD*%
D16*
%TO.C,R54*%
X74912500Y-21000000D03*
X73087500Y-21000000D03*
%TD*%
D15*
%TO.C,U8*%
X74724150Y-29905000D03*
X74724150Y-28635000D03*
X74724150Y-27365000D03*
X74724150Y-26095000D03*
X69275850Y-26095000D03*
X69275850Y-27365000D03*
X69275850Y-28635000D03*
X69275850Y-29905000D03*
%TD*%
D10*
%TO.C,R35*%
X36500000Y-33412500D03*
X36500000Y-31587500D03*
%TD*%
D15*
%TO.C,U1*%
X22224150Y-29905000D03*
X22224150Y-28635000D03*
X22224150Y-27365000D03*
X22224150Y-26095000D03*
X16775850Y-26095000D03*
X16775850Y-27365000D03*
X16775850Y-28635000D03*
X16775850Y-29905000D03*
%TD*%
D16*
%TO.C,R42*%
X26912500Y-21000000D03*
X25087500Y-21000000D03*
%TD*%
%TO.C,R46*%
X42912500Y-21000000D03*
X41087500Y-21000000D03*
%TD*%
D17*
%TO.C,Q14*%
X57050000Y-18937500D03*
X58950000Y-18937500D03*
X58000000Y-17062500D03*
%TD*%
D10*
%TO.C,R59*%
X45000000Y-24412500D03*
X45000000Y-22587500D03*
%TD*%
D16*
%TO.C,R40*%
X18912500Y-21000000D03*
X17087500Y-21000000D03*
%TD*%
D15*
%TO.C,U5*%
X52224150Y-29905000D03*
X52224150Y-28635000D03*
X52224150Y-27365000D03*
X52224150Y-26095000D03*
X46775850Y-26095000D03*
X46775850Y-27365000D03*
X46775850Y-28635000D03*
X46775850Y-29905000D03*
%TD*%
D10*
%TO.C,R20*%
X19000000Y-33412500D03*
X19000000Y-31587500D03*
%TD*%
%TO.C,R84*%
X73000000Y-33412500D03*
X73000000Y-31587500D03*
%TD*%
D14*
%TO.C,R16*%
X23000000Y-22587500D03*
X23000000Y-24412500D03*
%TD*%
D10*
%TO.C,R88*%
X70000000Y-33412500D03*
X70000000Y-31587500D03*
%TD*%
D18*
%TO.C,IC1*%
X14005000Y-41825000D03*
D19*
X15325000Y-41825000D03*
X16595000Y-41825000D03*
X17865000Y-41825000D03*
X19135000Y-41825000D03*
X20405000Y-41825000D03*
X21675000Y-41825000D03*
D18*
X22995000Y-41825000D03*
X22995000Y-36175000D03*
D19*
X21675000Y-36175000D03*
X20405000Y-36175000D03*
X19135000Y-36175000D03*
X17865000Y-36175000D03*
X16595000Y-36175000D03*
X15325000Y-36175000D03*
D18*
X14005000Y-36175000D03*
%TD*%
D16*
%TO.C,R43*%
X44412500Y-32000000D03*
X42587500Y-32000000D03*
%TD*%
D17*
%TO.C,Q11*%
X33050000Y-18937500D03*
X34950000Y-18937500D03*
X34000000Y-17062500D03*
%TD*%
D14*
%TO.C,R31*%
X33000000Y-22587500D03*
X33000000Y-24412500D03*
%TD*%
D12*
%TO.C,R53*%
X53087500Y-21000000D03*
X54912500Y-21000000D03*
%TD*%
D10*
%TO.C,R87*%
X74500000Y-33412500D03*
X74500000Y-31587500D03*
%TD*%
D13*
%TO.C,Q7*%
X62950000Y-17062500D03*
X61050000Y-17062500D03*
X62000000Y-18937500D03*
%TD*%
D10*
%TO.C,R65*%
X57500000Y-24412500D03*
X57500000Y-22587500D03*
%TD*%
D17*
%TO.C,Q10*%
X25050000Y-18937500D03*
X26950000Y-18937500D03*
X26000000Y-17062500D03*
%TD*%
D10*
%TO.C,R27*%
X17500000Y-33412500D03*
X17500000Y-31587500D03*
%TD*%
D13*
%TO.C,Q3*%
X30950000Y-17062500D03*
X29050000Y-17062500D03*
X30000000Y-18937500D03*
%TD*%
D15*
%TO.C,U2*%
X29724150Y-29905000D03*
X29724150Y-28635000D03*
X29724150Y-27365000D03*
X29724150Y-26095000D03*
X24275850Y-26095000D03*
X24275850Y-27365000D03*
X24275850Y-28635000D03*
X24275850Y-29905000D03*
%TD*%
D10*
%TO.C,R11*%
X26500000Y-33412500D03*
X26500000Y-31587500D03*
%TD*%
D13*
%TO.C,Q2*%
X22950000Y-17062500D03*
X21050000Y-17062500D03*
X22000000Y-18937500D03*
%TD*%
D10*
%TO.C,R62*%
X47500000Y-33412500D03*
X47500000Y-31587500D03*
%TD*%
D13*
%TO.C,Q4*%
X38950000Y-17062500D03*
X37050000Y-17062500D03*
X38000000Y-18937500D03*
%TD*%
D10*
%TO.C,R33*%
X29500000Y-24412500D03*
X29500000Y-22587500D03*
%TD*%
D17*
%TO.C,Q15*%
X65050000Y-18937500D03*
X66950000Y-18937500D03*
X66000000Y-17062500D03*
%TD*%
D14*
%TO.C,R66*%
X56000000Y-22587500D03*
X56000000Y-24412500D03*
%TD*%
D17*
%TO.C,Q13*%
X49050000Y-18937500D03*
X50950000Y-18937500D03*
X50000000Y-17062500D03*
%TD*%
D10*
%TO.C,R61*%
X52000000Y-33412500D03*
X52000000Y-31587500D03*
%TD*%
%TO.C,R39*%
X42500000Y-24412500D03*
X42500000Y-22587500D03*
%TD*%
D15*
%TO.C,U4*%
X44724150Y-29905000D03*
X44724150Y-28635000D03*
X44724150Y-27365000D03*
X44724150Y-26095000D03*
X39275850Y-26095000D03*
X39275850Y-27365000D03*
X39275850Y-28635000D03*
X39275850Y-29905000D03*
%TD*%
D13*
%TO.C,Q6*%
X54950000Y-17062500D03*
X53050000Y-17062500D03*
X54000000Y-18937500D03*
%TD*%
D10*
%TO.C,R26*%
X22000000Y-33412500D03*
X22000000Y-31587500D03*
%TD*%
%TO.C,R82*%
X72500000Y-24412500D03*
X72500000Y-22587500D03*
%TD*%
D16*
%TO.C,R50*%
X58912500Y-21000000D03*
X57087500Y-21000000D03*
%TD*%
D10*
%TO.C,R15*%
X21500000Y-24412500D03*
X21500000Y-22587500D03*
%TD*%
%TO.C,R32*%
X35000000Y-33412500D03*
X35000000Y-31587500D03*
%TD*%
%TO.C,R21*%
X18500000Y-24412500D03*
X18500000Y-22587500D03*
%TD*%
D14*
%TO.C,R69*%
X54000000Y-22587500D03*
X54000000Y-24412500D03*
%TD*%
D10*
%TO.C,R80*%
X62500000Y-33412500D03*
X62500000Y-31587500D03*
%TD*%
%TO.C,R17*%
X29500000Y-33412500D03*
X29500000Y-31587500D03*
%TD*%
D12*
%TO.C,R63*%
X61087500Y-21000000D03*
X62912500Y-21000000D03*
%TD*%
D18*
%TO.C,IC2*%
X65005000Y-41825000D03*
D19*
X66325000Y-41825000D03*
X67595000Y-41825000D03*
X68865000Y-41825000D03*
X70135000Y-41825000D03*
X71405000Y-41825000D03*
X72675000Y-41825000D03*
D18*
X73995000Y-41825000D03*
X73995000Y-36175000D03*
D19*
X72675000Y-36175000D03*
X71405000Y-36175000D03*
X70135000Y-36175000D03*
X68865000Y-36175000D03*
X67595000Y-36175000D03*
X66325000Y-36175000D03*
D18*
X65005000Y-36175000D03*
%TD*%
D14*
%TO.C,R25*%
X15000000Y-22587500D03*
X15000000Y-24412500D03*
%TD*%
D16*
%TO.C,R49*%
X36500000Y-37000000D03*
X34675000Y-37000000D03*
%TD*%
D14*
%TO.C,R57*%
X48500000Y-22587500D03*
X48500000Y-24412500D03*
%TD*%
D10*
%TO.C,R29*%
X33500000Y-33412500D03*
X33500000Y-31587500D03*
%TD*%
D14*
%TO.C,R47*%
X39000000Y-22587500D03*
X39000000Y-24412500D03*
%TD*%
D16*
%TO.C,R52*%
X66912500Y-21000000D03*
X65087500Y-21000000D03*
%TD*%
D10*
%TO.C,R67*%
X58000000Y-33412500D03*
X58000000Y-31587500D03*
%TD*%
D17*
%TO.C,Q12*%
X41050000Y-18937500D03*
X42950000Y-18937500D03*
X42000000Y-17062500D03*
%TD*%
D12*
%TO.C,R19*%
X29087500Y-21000000D03*
X30912500Y-21000000D03*
%TD*%
D15*
%TO.C,U7*%
X67224150Y-29905000D03*
X67224150Y-28635000D03*
X67224150Y-27365000D03*
X67224150Y-26095000D03*
X61775850Y-26095000D03*
X61775850Y-27365000D03*
X61775850Y-28635000D03*
X61775850Y-29905000D03*
%TD*%
D14*
%TO.C,R41*%
X41000000Y-22587500D03*
X41000000Y-24412500D03*
%TD*%
D11*
%TO.C,IC5*%
X51062000Y-35050000D03*
X51062000Y-35700000D03*
X51062000Y-36350000D03*
X51062000Y-37000000D03*
X51062000Y-37650000D03*
X51062000Y-38300000D03*
X51062000Y-38950000D03*
X56938000Y-38950000D03*
X56938000Y-38300000D03*
X56938000Y-37650000D03*
X56938000Y-37000000D03*
X56938000Y-36350000D03*
X56938000Y-35700000D03*
X56938000Y-35050000D03*
%TD*%
D10*
%TO.C,R18*%
X25000000Y-33412500D03*
X25000000Y-31587500D03*
%TD*%
D16*
%TO.C,R48*%
X50912500Y-21000000D03*
X49087500Y-21000000D03*
%TD*%
D15*
%TO.C,U3*%
X37224150Y-29905000D03*
X37224150Y-28635000D03*
X37224150Y-27365000D03*
X37224150Y-26095000D03*
X31775850Y-26095000D03*
X31775850Y-27365000D03*
X31775850Y-28635000D03*
X31775850Y-29905000D03*
%TD*%
D10*
%TO.C,R14*%
X28000000Y-33412500D03*
X28000000Y-31587500D03*
%TD*%
D11*
%TO.C,IC4*%
X39562000Y-33575000D03*
X39562000Y-34225000D03*
X39562000Y-34875000D03*
X39562000Y-35525000D03*
X39562000Y-36175000D03*
X39562000Y-36825000D03*
X39562000Y-37475000D03*
X39562000Y-38125000D03*
X39562000Y-38775000D03*
X39562000Y-39425000D03*
X45438000Y-39425000D03*
X45438000Y-38775000D03*
X45438000Y-38125000D03*
X45438000Y-37475000D03*
X45438000Y-36825000D03*
X45438000Y-36175000D03*
X45438000Y-35525000D03*
X45438000Y-34875000D03*
X45438000Y-34225000D03*
X45438000Y-33575000D03*
%TD*%
D14*
%TO.C,R34*%
X31000000Y-22587500D03*
X31000000Y-24412500D03*
%TD*%
D10*
%TO.C,R23*%
X20500000Y-33412500D03*
X20500000Y-31587500D03*
%TD*%
D17*
%TO.C,Q16*%
X73050000Y-18937500D03*
X74950000Y-18937500D03*
X74000000Y-17062500D03*
%TD*%
D10*
%TO.C,R45*%
X37500000Y-24412500D03*
X37500000Y-22587500D03*
%TD*%
D17*
%TO.C,Q9*%
X17050000Y-18937500D03*
X18950000Y-18937500D03*
X18000000Y-17062500D03*
%TD*%
D10*
%TO.C,R70*%
X59500000Y-33412500D03*
X59500000Y-31587500D03*
%TD*%
%TO.C,R73*%
X64000000Y-33412500D03*
X64000000Y-31587500D03*
%TD*%
D14*
%TO.C,R13*%
X25000000Y-22587500D03*
X25000000Y-24412500D03*
%TD*%
D10*
%TO.C,R58*%
X50500000Y-33412500D03*
X50500000Y-31587500D03*
%TD*%
%TO.C,R68*%
X52500000Y-24412500D03*
X52500000Y-22587500D03*
%TD*%
D14*
%TO.C,R86*%
X69500000Y-22587500D03*
X69500000Y-24412500D03*
%TD*%
%TO.C,R83*%
X71000000Y-22587500D03*
X71000000Y-24412500D03*
%TD*%
D16*
%TO.C,R44*%
X34912500Y-21000000D03*
X33087500Y-21000000D03*
%TD*%
D10*
%TO.C,R12*%
X26500000Y-24412500D03*
X26500000Y-22587500D03*
%TD*%
D12*
%TO.C,R10*%
X13087500Y-21000000D03*
X14912500Y-21000000D03*
%TD*%
D14*
%TO.C,R22*%
X17000000Y-22587500D03*
X17000000Y-24412500D03*
%TD*%
D10*
%TO.C,R81*%
X71500000Y-33412500D03*
X71500000Y-31587500D03*
%TD*%
%TO.C,R79*%
X67000000Y-33412500D03*
X67000000Y-31587500D03*
%TD*%
%TO.C,R77*%
X60500000Y-24412500D03*
X60500000Y-22587500D03*
%TD*%
M02*
