M48
; DRILL file {KiCad 8.0.4} date 2024-08-11T12:29:10-0400
; FORMAT={-:-/ absolute / inch / decimal}
; #@! TF.CreationDate,2024-08-11T12:29:10-04:00
; #@! TF.GenerationSoftware,Kicad,Pcbnew,8.0.4
; #@! TF.FileFunction,Plated,1,4,PTH
FMAT,2
INCH
; #@! TA.AperFunction,Plated,PTH,ViaDrill
T1C0.0157
; #@! TA.AperFunction,Plated,PTH,ComponentDrill
T2C0.0394
%
G90
G05
T1
X0.5315Y-1.2795
X0.5512Y-0.7874
X0.6299Y-0.7283
X0.6299Y-0.9616
X0.6299Y-1.3583
X0.6496Y-1.2795
X0.6533Y-1.5354
X0.7087Y-1.4823
X0.7677Y-0.689
X0.7874Y-1.122
X0.7916Y-0.8809
X0.7987Y-1.5763
X0.8661Y-0.7874
X0.8695Y-1.365
X0.8805Y-1.5892
X0.9421Y-1.2166
X0.9444Y-0.9616
X0.9449Y-0.7283
X0.9646Y-1.437
X1.0039Y-1.6142
X1.0044Y-1.2011
X1.063Y-1.122
X1.0827Y-0.689
X1.1024Y-0.8858
X1.1417Y-1.5157
X1.1811Y-0.7874
X1.2168Y-1.2183
X1.2402Y-1.4173
X1.2402Y-1.5551
X1.2598Y-0.7283
X1.2598Y-0.9616
X1.2965Y-1.5797
X1.3189Y-1.3568
X1.3583Y-1.5157
X1.3976Y-0.689
X1.4173Y-0.8858
X1.4173Y-1.4961
X1.4237Y-1.2038
X1.4961Y-0.7874
X1.5157Y-1.5748
X1.5181Y-1.2097
X1.5748Y-0.7283
X1.5748Y-0.9616
X1.6053Y-1.5754
X1.6142Y-1.4754
X1.6339Y-1.4242
X1.6388Y-1.373
X1.6445Y-1.1625
X1.6758Y-1.3206
X1.6929Y-1.378
X1.7086Y-0.859
X1.7126Y-0.689
X1.7126Y-1.0433
X1.7126Y-1.437
X1.7323Y-1.4961
X1.7323Y-1.5551
X1.8045Y-1.2336
X1.811Y-0.7874
X1.8701Y-0.9616
X1.8898Y-0.7283
X1.8898Y-1.437
X1.9291Y-1.3583
X2.0046Y-1.04
X2.0185Y-0.878
X2.0276Y-0.689
X2.065Y-1.4037
X2.0866Y-1.5551
X2.1063Y-1.2205
X2.126Y-0.7874
X2.1654Y-0.9611
X2.1659Y-1.5152
X2.185Y-1.3583
X2.2047Y-0.7283
X2.2441Y-1.122
X2.3031Y-1.0433
X2.312Y-1.2008
X2.3249Y-0.8828
X2.3425Y-0.689
X2.4176Y-1.2111
X2.4213Y-1.3189
X2.4409Y-0.7874
X2.4705Y-0.9905
X2.5Y-1.3976
X2.5Y-1.6339
X2.5197Y-0.7283
X2.5394Y-1.122
X2.5979Y-1.4872
X2.5984Y-1.0433
X2.6149Y-1.2042
X2.6204Y-0.8942
X2.6575Y-0.689
X2.6969Y-1.2205
X2.7559Y-0.7874
X2.7559Y-1.5885
X2.7657Y-0.9905
X2.8346Y-0.7283
X2.8346Y-1.5354
X2.8461Y-1.3512
X2.874Y-1.4961
X2.9151Y-0.8876
X2.9331Y-1.4961
X2.9331Y-1.5748
X2.9528Y-0.9843
X2.9705Y-0.689
T2
X0.5315Y-1.0915
X0.5315Y-1.1915
X0.5797Y-0.5512
X0.6797Y-0.5512
X0.8947Y-0.5512
X0.9947Y-0.5512
X1.1339Y-1.6535
X1.2096Y-0.5512
X1.2339Y-1.6535
X1.3096Y-0.5512
X1.3339Y-1.6535
X1.4339Y-1.6535
X1.5246Y-0.5512
X1.5339Y-1.6535
X1.6246Y-0.5512
X1.6339Y-1.6535
X1.7339Y-1.6535
X1.8339Y-1.6535
X1.8396Y-0.5512
X1.9339Y-1.6535
X1.9396Y-0.5512
X2.0339Y-1.6535
X2.1339Y-1.6535
X2.1545Y-0.5512
X2.2339Y-1.6535
X2.2545Y-0.5512
X2.3339Y-1.6535
X2.4695Y-0.5512
X2.5695Y-0.5512
X2.7844Y-0.5512
X2.8844Y-0.5512
M30
