%TF.GenerationSoftware,KiCad,Pcbnew,8.0.4*%
%TF.CreationDate,2024-08-11T12:29:12-04:00*%
%TF.ProjectId,Inhibit Sense Circuit,496e6869-6269-4742-9053-656e73652043,rev?*%
%TF.SameCoordinates,Original*%
%TF.FileFunction,Copper,L1,Top*%
%TF.FilePolarity,Positive*%
%FSLAX46Y46*%
G04 Gerber Fmt 4.6, Leading zero omitted, Abs format (unit mm)*
G04 Created by KiCad (PCBNEW 8.0.4) date 2024-08-11 12:29:12*
%MOMM*%
%LPD*%
G01*
G04 APERTURE LIST*
G04 Aperture macros list*
%AMRoundRect*
0 Rectangle with rounded corners*
0 $1 Rounding radius*
0 $2 $3 $4 $5 $6 $7 $8 $9 X,Y pos of 4 corners*
0 Add a 4 corners polygon primitive as box body*
4,1,4,$2,$3,$4,$5,$6,$7,$8,$9,$2,$3,0*
0 Add four circle primitives for the rounded corners*
1,1,$1+$1,$2,$3*
1,1,$1+$1,$4,$5*
1,1,$1+$1,$6,$7*
1,1,$1+$1,$8,$9*
0 Add four rect primitives between the rounded corners*
20,1,$1+$1,$2,$3,$4,$5,0*
20,1,$1+$1,$4,$5,$6,$7,0*
20,1,$1+$1,$6,$7,$8,$9,0*
20,1,$1+$1,$8,$9,$2,$3,0*%
G04 Aperture macros list end*
%TA.AperFunction,SMDPad,CuDef*%
%ADD10RoundRect,0.237500X0.237500X-0.250000X0.237500X0.250000X-0.237500X0.250000X-0.237500X-0.250000X0*%
%TD*%
%TA.AperFunction,ComponentPad*%
%ADD11R,1.700000X1.700000*%
%TD*%
%TA.AperFunction,ComponentPad*%
%ADD12O,1.700000X1.700000*%
%TD*%
%TA.AperFunction,SMDPad,CuDef*%
%ADD13R,1.475000X0.450000*%
%TD*%
%TA.AperFunction,SMDPad,CuDef*%
%ADD14RoundRect,0.237500X-0.250000X-0.237500X0.250000X-0.237500X0.250000X0.237500X-0.250000X0.237500X0*%
%TD*%
%TA.AperFunction,SMDPad,CuDef*%
%ADD15RoundRect,0.150000X-0.150000X0.587500X-0.150000X-0.587500X0.150000X-0.587500X0.150000X0.587500X0*%
%TD*%
%TA.AperFunction,SMDPad,CuDef*%
%ADD16RoundRect,0.237500X-0.237500X0.250000X-0.237500X-0.250000X0.237500X-0.250000X0.237500X0.250000X0*%
%TD*%
%TA.AperFunction,SMDPad,CuDef*%
%ADD17R,1.460500X0.558800*%
%TD*%
%TA.AperFunction,SMDPad,CuDef*%
%ADD18RoundRect,0.237500X0.250000X0.237500X-0.250000X0.237500X-0.250000X-0.237500X0.250000X-0.237500X0*%
%TD*%
%TA.AperFunction,SMDPad,CuDef*%
%ADD19RoundRect,0.150000X0.150000X-0.587500X0.150000X0.587500X-0.150000X0.587500X-0.150000X-0.587500X0*%
%TD*%
%TA.AperFunction,SMDPad,CuDef*%
%ADD20R,0.800000X1.750000*%
%TD*%
%TA.AperFunction,SMDPad,CuDef*%
%ADD21R,0.700000X1.750000*%
%TD*%
%TA.AperFunction,ViaPad*%
%ADD22C,0.800000*%
%TD*%
%TA.AperFunction,ViaPad*%
%ADD23C,1.000000*%
%TD*%
%TA.AperFunction,Conductor*%
%ADD24C,0.250000*%
%TD*%
%TA.AperFunction,Conductor*%
%ADD25C,0.500000*%
%TD*%
G04 APERTURE END LIST*
D10*
%TO.P,R56,1*%
%TO.N,Net-(U5B--)*%
X50000000Y-24412500D03*
%TO.P,R56,2*%
%TO.N,/IS_LINES.B5*%
X50000000Y-22587500D03*
%TD*%
D11*
%TO.P,IS8,1,Pin_1*%
%TO.N,/IS_LINES.A8*%
X70725000Y-14000000D03*
D12*
%TO.P,IS8,2,Pin_2*%
%TO.N,/IS_LINES.B8*%
X73265000Y-14000000D03*
%TD*%
D13*
%TO.P,IC3,1,1A*%
%TO.N,/Sense Circuit/Sense Ch 1/Sense Out 1*%
X27062000Y-35050000D03*
%TO.P,IC3,2,1B*%
%TO.N,/Sense Circuit/Sense Ch 1/Sense Out 2*%
X27062000Y-35700000D03*
%TO.P,IC3,3,1Y*%
%TO.N,Net-(IC1-1S)*%
X27062000Y-36350000D03*
%TO.P,IC3,4,2A*%
%TO.N,/Sense Circuit/Sense Ch 2/Sense Out 1*%
X27062000Y-37000000D03*
%TO.P,IC3,5,2B*%
%TO.N,/Sense Circuit/Sense Ch 2/Sense Out 2*%
X27062000Y-37650000D03*
%TO.P,IC3,6,2Y*%
%TO.N,Net-(IC1-2S)*%
X27062000Y-38300000D03*
%TO.P,IC3,7,GND*%
%TO.N,GND*%
X27062000Y-38950000D03*
%TO.P,IC3,8,3Y*%
%TO.N,Net-(IC1-3S)*%
X32938000Y-38950000D03*
%TO.P,IC3,9,3A*%
%TO.N,/Sense Circuit/Sense Ch 3/Sense Out 1*%
X32938000Y-38300000D03*
%TO.P,IC3,10,3B*%
%TO.N,/Sense Circuit/Sense Ch 3/Sense Out 2*%
X32938000Y-37650000D03*
%TO.P,IC3,11,4Y*%
%TO.N,Net-(IC1-4S)*%
X32938000Y-37000000D03*
%TO.P,IC3,12,4A*%
%TO.N,/Sense Circuit/Sense Ch 4/Sense Out 1*%
X32938000Y-36350000D03*
%TO.P,IC3,13,4B*%
%TO.N,/Sense Circuit/Sense Ch 4/Sense Out 2*%
X32938000Y-35700000D03*
%TO.P,IC3,14,VCC*%
%TO.N,VDD*%
X32938000Y-35050000D03*
%TD*%
D14*
%TO.P,R72,1*%
%TO.N,/IS_LINES.A8*%
X69087500Y-21000000D03*
%TO.P,R72,2*%
%TO.N,/IS_LINES.B8*%
X70912500Y-21000000D03*
%TD*%
D15*
%TO.P,Q5,1,G*%
%TO.N,Net-(Q5-G)*%
X46950000Y-17062500D03*
%TO.P,Q5,2,S*%
%TO.N,/IS_LINES.A5*%
X45050000Y-17062500D03*
%TO.P,Q5,3,D*%
%TO.N,VCC*%
X46000000Y-18937500D03*
%TD*%
D16*
%TO.P,R75,1*%
%TO.N,/IS_LINES.B7*%
X63500000Y-22587500D03*
%TO.P,R75,2*%
%TO.N,GND*%
X63500000Y-24412500D03*
%TD*%
D17*
%TO.P,U6,1*%
%TO.N,/Sense Circuit/Sense Ch 6/Sense Out 1*%
X59724150Y-29905000D03*
%TO.P,U6,2,-*%
%TO.N,Net-(U6A--)*%
X59724150Y-28635000D03*
%TO.P,U6,3,+*%
%TO.N,/IS_LINES.B6*%
X59724150Y-27365000D03*
%TO.P,U6,4,V-*%
%TO.N,GND*%
X59724150Y-26095000D03*
%TO.P,U6,5,+*%
%TO.N,/IS_LINES.A6*%
X54275850Y-26095000D03*
%TO.P,U6,6,-*%
%TO.N,Net-(U6B--)*%
X54275850Y-27365000D03*
%TO.P,U6,7*%
%TO.N,/Sense Circuit/Sense Ch 6/Sense Out 2*%
X54275850Y-28635000D03*
%TO.P,U6,8,V+*%
%TO.N,VDD*%
X54275850Y-29905000D03*
%TD*%
D10*
%TO.P,R30,1*%
%TO.N,Net-(U3B--)*%
X34500000Y-24412500D03*
%TO.P,R30,2*%
%TO.N,/IS_LINES.B3*%
X34500000Y-22587500D03*
%TD*%
%TO.P,R71,1*%
%TO.N,VDD*%
X55000000Y-33412500D03*
%TO.P,R71,2*%
%TO.N,/Sense Circuit/Sense Ch 6/Sense Out 2*%
X55000000Y-31587500D03*
%TD*%
D15*
%TO.P,Q8,1,G*%
%TO.N,Net-(Q8-G)*%
X70950000Y-17062500D03*
%TO.P,Q8,2,S*%
%TO.N,/IS_LINES.A8*%
X69050000Y-17062500D03*
%TO.P,Q8,3,D*%
%TO.N,VCC*%
X70000000Y-18937500D03*
%TD*%
D14*
%TO.P,R28,1*%
%TO.N,/IS_LINES.A4*%
X37087500Y-21000000D03*
%TO.P,R28,2*%
%TO.N,/IS_LINES.B4*%
X38912500Y-21000000D03*
%TD*%
D10*
%TO.P,R74,1*%
%TO.N,Net-(U7B--)*%
X65000000Y-24412500D03*
%TO.P,R74,2*%
%TO.N,/IS_LINES.B7*%
X65000000Y-22587500D03*
%TD*%
%TO.P,R64,1*%
%TO.N,VDD*%
X56500000Y-33412500D03*
%TO.P,R64,2*%
%TO.N,Net-(U6B--)*%
X56500000Y-31587500D03*
%TD*%
%TO.P,R85,1*%
%TO.N,Net-(U8A--)*%
X68000000Y-24412500D03*
%TO.P,R85,2*%
%TO.N,/IS_LINES.A8*%
X68000000Y-22587500D03*
%TD*%
%TO.P,R55,1*%
%TO.N,VDD*%
X49000000Y-33412500D03*
%TO.P,R55,2*%
%TO.N,Net-(U5B--)*%
X49000000Y-31587500D03*
%TD*%
D14*
%TO.P,R37,1*%
%TO.N,/IS_LINES.A5*%
X45087500Y-21000000D03*
%TO.P,R37,2*%
%TO.N,/IS_LINES.B5*%
X46912500Y-21000000D03*
%TD*%
D18*
%TO.P,R51,1*%
%TO.N,VDD*%
X36500000Y-35500000D03*
%TO.P,R51,2*%
%TO.N,/Sense Circuit/Sense Ch 4/Sense Out 2*%
X34675000Y-35500000D03*
%TD*%
D16*
%TO.P,R78,1*%
%TO.N,/IS_LINES.A7*%
X62000000Y-22587500D03*
%TO.P,R78,2*%
%TO.N,GND*%
X62000000Y-24412500D03*
%TD*%
D14*
%TO.P,R9,1*%
%TO.N,/IS_LINES.A2*%
X21087500Y-21000000D03*
%TO.P,R9,2*%
%TO.N,/IS_LINES.B2*%
X22912500Y-21000000D03*
%TD*%
D10*
%TO.P,R36,1*%
%TO.N,VDD*%
X32000000Y-33412500D03*
%TO.P,R36,2*%
%TO.N,/Sense Circuit/Sense Ch 3/Sense Out 2*%
X32000000Y-31587500D03*
%TD*%
%TO.P,R76,1*%
%TO.N,VDD*%
X65500000Y-33412500D03*
%TO.P,R76,2*%
%TO.N,Net-(U7A--)*%
X65500000Y-31587500D03*
%TD*%
D15*
%TO.P,Q1,1,G*%
%TO.N,Net-(Q1-G)*%
X14950000Y-17062500D03*
%TO.P,Q1,2,S*%
%TO.N,/IS_LINES.A1*%
X13050000Y-17062500D03*
%TO.P,Q1,3,D*%
%TO.N,VCC*%
X14000000Y-18937500D03*
%TD*%
D10*
%TO.P,R1,1*%
%TO.N,/Inhibit EN*%
X62000000Y-42325000D03*
%TO.P,R1,2*%
%TO.N,Net-(Q10-G)*%
X62000000Y-40500000D03*
%TD*%
D16*
%TO.P,R60,1*%
%TO.N,/IS_LINES.A5*%
X46500000Y-22587500D03*
%TO.P,R60,2*%
%TO.N,GND*%
X46500000Y-24412500D03*
%TD*%
D10*
%TO.P,R24,1*%
%TO.N,Net-(U1A--)*%
X13500000Y-24412500D03*
%TO.P,R24,2*%
%TO.N,/IS_LINES.A1*%
X13500000Y-22587500D03*
%TD*%
D14*
%TO.P,R38,1*%
%TO.N,VDD*%
X39086993Y-31678031D03*
%TO.P,R38,2*%
%TO.N,Net-(U4B--)*%
X40911993Y-31678031D03*
%TD*%
D18*
%TO.P,R54,1*%
%TO.N,/Inhibit Circuit/INHIBIT_DATA8*%
X74912500Y-21000000D03*
%TO.P,R54,2*%
%TO.N,Net-(Q8-G)*%
X73087500Y-21000000D03*
%TD*%
D17*
%TO.P,U8,1*%
%TO.N,/Sense Circuit/Sense Ch 8/Sense Out 1*%
X74724150Y-29905000D03*
%TO.P,U8,2,-*%
%TO.N,Net-(U8A--)*%
X74724150Y-28635000D03*
%TO.P,U8,3,+*%
%TO.N,/IS_LINES.B8*%
X74724150Y-27365000D03*
%TO.P,U8,4,V-*%
%TO.N,GND*%
X74724150Y-26095000D03*
%TO.P,U8,5,+*%
%TO.N,/IS_LINES.A8*%
X69275850Y-26095000D03*
%TO.P,U8,6,-*%
%TO.N,Net-(U8B--)*%
X69275850Y-27365000D03*
%TO.P,U8,7*%
%TO.N,/Sense Circuit/Sense Ch 8/Sense Out 2*%
X69275850Y-28635000D03*
%TO.P,U8,8,V+*%
%TO.N,VDD*%
X69275850Y-29905000D03*
%TD*%
D10*
%TO.P,R35,1*%
%TO.N,VDD*%
X36500000Y-33412500D03*
%TO.P,R35,2*%
%TO.N,/Sense Circuit/Sense Ch 3/Sense Out 1*%
X36500000Y-31587500D03*
%TD*%
D17*
%TO.P,U1,1*%
%TO.N,/Sense Circuit/Sense Ch 1/Sense Out 1*%
X22224150Y-29905000D03*
%TO.P,U1,2,-*%
%TO.N,Net-(U1A--)*%
X22224150Y-28635000D03*
%TO.P,U1,3,+*%
%TO.N,/IS_LINES.B1*%
X22224150Y-27365000D03*
%TO.P,U1,4,V-*%
%TO.N,GND*%
X22224150Y-26095000D03*
%TO.P,U1,5,+*%
%TO.N,/IS_LINES.A1*%
X16775850Y-26095000D03*
%TO.P,U1,6,-*%
%TO.N,Net-(U1B--)*%
X16775850Y-27365000D03*
%TO.P,U1,7*%
%TO.N,/Sense Circuit/Sense Ch 1/Sense Out 2*%
X16775850Y-28635000D03*
%TO.P,U1,8,V+*%
%TO.N,VDD*%
X16775850Y-29905000D03*
%TD*%
D18*
%TO.P,R42,1*%
%TO.N,/Inhibit Circuit/INHIBIT_DATA2*%
X26912500Y-21000000D03*
%TO.P,R42,2*%
%TO.N,Net-(Q2-G)*%
X25087500Y-21000000D03*
%TD*%
%TO.P,R46,1*%
%TO.N,/Inhibit Circuit/INHIBIT_DATA4*%
X42912500Y-21000000D03*
%TO.P,R46,2*%
%TO.N,Net-(Q4-G)*%
X41087500Y-21000000D03*
%TD*%
D19*
%TO.P,Q14,1,G*%
%TO.N,Net-(Q10-G)*%
X57050000Y-18937500D03*
%TO.P,Q14,2,S*%
%TO.N,GND*%
X58950000Y-18937500D03*
%TO.P,Q14,3,D*%
%TO.N,/IS_LINES.B6*%
X58000000Y-17062500D03*
%TD*%
D10*
%TO.P,R59,1*%
%TO.N,Net-(U5A--)*%
X45000000Y-24412500D03*
%TO.P,R59,2*%
%TO.N,/IS_LINES.A5*%
X45000000Y-22587500D03*
%TD*%
D18*
%TO.P,R40,1*%
%TO.N,/Inhibit Circuit/INHIBIT_DATA1*%
X18912500Y-21000000D03*
%TO.P,R40,2*%
%TO.N,Net-(Q1-G)*%
X17087500Y-21000000D03*
%TD*%
D17*
%TO.P,U5,1*%
%TO.N,/Sense Circuit/Sense Ch 5/Sense Out 1*%
X52224150Y-29905000D03*
%TO.P,U5,2,-*%
%TO.N,Net-(U5A--)*%
X52224150Y-28635000D03*
%TO.P,U5,3,+*%
%TO.N,/IS_LINES.B5*%
X52224150Y-27365000D03*
%TO.P,U5,4,V-*%
%TO.N,GND*%
X52224150Y-26095000D03*
%TO.P,U5,5,+*%
%TO.N,/IS_LINES.A5*%
X46775850Y-26095000D03*
%TO.P,U5,6,-*%
%TO.N,Net-(U5B--)*%
X46775850Y-27365000D03*
%TO.P,U5,7*%
%TO.N,/Sense Circuit/Sense Ch 5/Sense Out 2*%
X46775850Y-28635000D03*
%TO.P,U5,8,V+*%
%TO.N,VDD*%
X46775850Y-29905000D03*
%TD*%
D10*
%TO.P,R20,1*%
%TO.N,VDD*%
X19000000Y-33412500D03*
%TO.P,R20,2*%
%TO.N,Net-(U1B--)*%
X19000000Y-31587500D03*
%TD*%
%TO.P,R84,1*%
%TO.N,VDD*%
X73000000Y-33412500D03*
%TO.P,R84,2*%
%TO.N,Net-(U8A--)*%
X73000000Y-31587500D03*
%TD*%
D16*
%TO.P,R16,1*%
%TO.N,/IS_LINES.A2*%
X23000000Y-22587500D03*
%TO.P,R16,2*%
%TO.N,GND*%
X23000000Y-24412500D03*
%TD*%
D11*
%TO.P,IS1,1,Pin_1*%
%TO.N,/IS_LINES.A1*%
X14725000Y-14000000D03*
D12*
%TO.P,IS1,2,Pin_2*%
%TO.N,/IS_LINES.B1*%
X17265000Y-14000000D03*
%TD*%
D10*
%TO.P,R88,1*%
%TO.N,VDD*%
X70000000Y-33412500D03*
%TO.P,R88,2*%
%TO.N,/Sense Circuit/Sense Ch 8/Sense Out 2*%
X70000000Y-31587500D03*
%TD*%
D20*
%TO.P,IC1,1,4Q*%
%TO.N,/BUS4*%
X14005000Y-41825000D03*
D21*
%TO.P,IC1,2,1Q*%
%TO.N,/BUS1*%
X15325000Y-41825000D03*
%TO.P,IC1,3,1R*%
%TO.N,/RST*%
X16595000Y-41825000D03*
%TO.P,IC1,4,1S*%
%TO.N,Net-(IC1-1S)*%
X17865000Y-41825000D03*
%TO.P,IC1,5,OE*%
%TO.N,/Read Out*%
X19135000Y-41825000D03*
%TO.P,IC1,6,2S*%
%TO.N,Net-(IC1-2S)*%
X20405000Y-41825000D03*
%TO.P,IC1,7,2R*%
%TO.N,/RST*%
X21675000Y-41825000D03*
D20*
%TO.P,IC1,8,VSS*%
%TO.N,GND*%
X22995000Y-41825000D03*
%TO.P,IC1,9,2Q*%
%TO.N,/BUS2*%
X22995000Y-36175000D03*
D21*
%TO.P,IC1,10,3Q*%
%TO.N,/BUS3*%
X21675000Y-36175000D03*
%TO.P,IC1,11,3R*%
%TO.N,/RST*%
X20405000Y-36175000D03*
%TO.P,IC1,12,3S*%
%TO.N,Net-(IC1-3S)*%
X19135000Y-36175000D03*
%TO.P,IC1,13,N.C.*%
%TO.N,unconnected-(IC1-N.C.-Pad13)*%
X17865000Y-36175000D03*
%TO.P,IC1,14,4S*%
%TO.N,Net-(IC1-4S)*%
X16595000Y-36175000D03*
%TO.P,IC1,15,4R*%
%TO.N,/RST*%
X15325000Y-36175000D03*
D20*
%TO.P,IC1,16,VDD*%
%TO.N,VDD*%
X14005000Y-36175000D03*
%TD*%
D18*
%TO.P,R43,1*%
%TO.N,VDD*%
X44412500Y-32000000D03*
%TO.P,R43,2*%
%TO.N,Net-(U4A--)*%
X42587500Y-32000000D03*
%TD*%
D11*
%TO.P,IS5,1,Pin_1*%
%TO.N,/IS_LINES.A5*%
X46725000Y-14000000D03*
D12*
%TO.P,IS5,2,Pin_2*%
%TO.N,/IS_LINES.B5*%
X49265000Y-14000000D03*
%TD*%
D19*
%TO.P,Q11,1,G*%
%TO.N,Net-(Q10-G)*%
X33050000Y-18937500D03*
%TO.P,Q11,2,S*%
%TO.N,GND*%
X34950000Y-18937500D03*
%TO.P,Q11,3,D*%
%TO.N,/IS_LINES.B3*%
X34000000Y-17062500D03*
%TD*%
D11*
%TO.P,IS4,1,Pin_1*%
%TO.N,/IS_LINES.A4*%
X38725000Y-14000000D03*
D12*
%TO.P,IS4,2,Pin_2*%
%TO.N,/IS_LINES.B4*%
X41265000Y-14000000D03*
%TD*%
D16*
%TO.P,R31,1*%
%TO.N,/IS_LINES.B3*%
X33000000Y-22587500D03*
%TO.P,R31,2*%
%TO.N,GND*%
X33000000Y-24412500D03*
%TD*%
D14*
%TO.P,R53,1*%
%TO.N,/IS_LINES.A6*%
X53087500Y-21000000D03*
%TO.P,R53,2*%
%TO.N,/IS_LINES.B6*%
X54912500Y-21000000D03*
%TD*%
D10*
%TO.P,R87,1*%
%TO.N,VDD*%
X74500000Y-33412500D03*
%TO.P,R87,2*%
%TO.N,/Sense Circuit/Sense Ch 8/Sense Out 1*%
X74500000Y-31587500D03*
%TD*%
D15*
%TO.P,Q7,1,G*%
%TO.N,Net-(Q7-G)*%
X62950000Y-17062500D03*
%TO.P,Q7,2,S*%
%TO.N,/IS_LINES.A7*%
X61050000Y-17062500D03*
%TO.P,Q7,3,D*%
%TO.N,VCC*%
X62000000Y-18937500D03*
%TD*%
D10*
%TO.P,R65,1*%
%TO.N,Net-(U6B--)*%
X57500000Y-24412500D03*
%TO.P,R65,2*%
%TO.N,/IS_LINES.B6*%
X57500000Y-22587500D03*
%TD*%
D19*
%TO.P,Q10,1,G*%
%TO.N,Net-(Q10-G)*%
X25050000Y-18937500D03*
%TO.P,Q10,2,S*%
%TO.N,GND*%
X26950000Y-18937500D03*
%TO.P,Q10,3,D*%
%TO.N,/IS_LINES.B2*%
X26000000Y-17062500D03*
%TD*%
D10*
%TO.P,R27,1*%
%TO.N,VDD*%
X17500000Y-33412500D03*
%TO.P,R27,2*%
%TO.N,/Sense Circuit/Sense Ch 1/Sense Out 2*%
X17500000Y-31587500D03*
%TD*%
D15*
%TO.P,Q3,1,G*%
%TO.N,Net-(Q3-G)*%
X30950000Y-17062500D03*
%TO.P,Q3,2,S*%
%TO.N,/IS_LINES.A3*%
X29050000Y-17062500D03*
%TO.P,Q3,3,D*%
%TO.N,VCC*%
X30000000Y-18937500D03*
%TD*%
D11*
%TO.P,IS7,1,Pin_1*%
%TO.N,/IS_LINES.A7*%
X62725000Y-14000000D03*
D12*
%TO.P,IS7,2,Pin_2*%
%TO.N,/IS_LINES.B7*%
X65265000Y-14000000D03*
%TD*%
D17*
%TO.P,U2,1*%
%TO.N,/Sense Circuit/Sense Ch 2/Sense Out 1*%
X29724150Y-29905000D03*
%TO.P,U2,2,-*%
%TO.N,Net-(U2A--)*%
X29724150Y-28635000D03*
%TO.P,U2,3,+*%
%TO.N,/IS_LINES.B2*%
X29724150Y-27365000D03*
%TO.P,U2,4,V-*%
%TO.N,GND*%
X29724150Y-26095000D03*
%TO.P,U2,5,+*%
%TO.N,/IS_LINES.A2*%
X24275850Y-26095000D03*
%TO.P,U2,6,-*%
%TO.N,Net-(U2B--)*%
X24275850Y-27365000D03*
%TO.P,U2,7*%
%TO.N,/Sense Circuit/Sense Ch 2/Sense Out 2*%
X24275850Y-28635000D03*
%TO.P,U2,8,V+*%
%TO.N,VDD*%
X24275850Y-29905000D03*
%TD*%
D10*
%TO.P,R11,1*%
%TO.N,VDD*%
X26500000Y-33412500D03*
%TO.P,R11,2*%
%TO.N,Net-(U2B--)*%
X26500000Y-31587500D03*
%TD*%
D15*
%TO.P,Q2,1,G*%
%TO.N,Net-(Q2-G)*%
X22950000Y-17062500D03*
%TO.P,Q2,2,S*%
%TO.N,/IS_LINES.A2*%
X21050000Y-17062500D03*
%TO.P,Q2,3,D*%
%TO.N,VCC*%
X22000000Y-18937500D03*
%TD*%
D10*
%TO.P,R62,1*%
%TO.N,VDD*%
X47500000Y-33412500D03*
%TO.P,R62,2*%
%TO.N,/Sense Circuit/Sense Ch 5/Sense Out 2*%
X47500000Y-31587500D03*
%TD*%
D15*
%TO.P,Q4,1,G*%
%TO.N,Net-(Q4-G)*%
X38950000Y-17062500D03*
%TO.P,Q4,2,S*%
%TO.N,/IS_LINES.A4*%
X37050000Y-17062500D03*
%TO.P,Q4,3,D*%
%TO.N,VCC*%
X38000000Y-18937500D03*
%TD*%
D11*
%TO.P,J2,1,Pin_1*%
%TO.N,VCC*%
X13500000Y-27725000D03*
D12*
%TO.P,J2,2,Pin_2*%
%TO.N,GND*%
X13500000Y-30265000D03*
%TD*%
D10*
%TO.P,R33,1*%
%TO.N,Net-(U3A--)*%
X29500000Y-24412500D03*
%TO.P,R33,2*%
%TO.N,/IS_LINES.A3*%
X29500000Y-22587500D03*
%TD*%
D19*
%TO.P,Q15,1,G*%
%TO.N,Net-(Q10-G)*%
X65050000Y-18937500D03*
%TO.P,Q15,2,S*%
%TO.N,GND*%
X66950000Y-18937500D03*
%TO.P,Q15,3,D*%
%TO.N,/IS_LINES.B7*%
X66000000Y-17062500D03*
%TD*%
D16*
%TO.P,R66,1*%
%TO.N,/IS_LINES.B6*%
X56000000Y-22587500D03*
%TO.P,R66,2*%
%TO.N,GND*%
X56000000Y-24412500D03*
%TD*%
D11*
%TO.P,IS2,1,Pin_1*%
%TO.N,/IS_LINES.A2*%
X22725000Y-14000000D03*
D12*
%TO.P,IS2,2,Pin_2*%
%TO.N,/IS_LINES.B2*%
X25265000Y-14000000D03*
%TD*%
D19*
%TO.P,Q13,1,G*%
%TO.N,Net-(Q10-G)*%
X49050000Y-18937500D03*
%TO.P,Q13,2,S*%
%TO.N,GND*%
X50950000Y-18937500D03*
%TO.P,Q13,3,D*%
%TO.N,/IS_LINES.B5*%
X50000000Y-17062500D03*
%TD*%
D10*
%TO.P,R61,1*%
%TO.N,VDD*%
X52000000Y-33412500D03*
%TO.P,R61,2*%
%TO.N,/Sense Circuit/Sense Ch 5/Sense Out 1*%
X52000000Y-31587500D03*
%TD*%
%TO.P,R39,1*%
%TO.N,Net-(U4B--)*%
X42500000Y-24412500D03*
%TO.P,R39,2*%
%TO.N,/IS_LINES.B4*%
X42500000Y-22587500D03*
%TD*%
D17*
%TO.P,U4,1*%
%TO.N,/Sense Circuit/Sense Ch 4/Sense Out 1*%
X44724150Y-29905000D03*
%TO.P,U4,2,-*%
%TO.N,Net-(U4A--)*%
X44724150Y-28635000D03*
%TO.P,U4,3,+*%
%TO.N,/IS_LINES.B4*%
X44724150Y-27365000D03*
%TO.P,U4,4,V-*%
%TO.N,GND*%
X44724150Y-26095000D03*
%TO.P,U4,5,+*%
%TO.N,/IS_LINES.A4*%
X39275850Y-26095000D03*
%TO.P,U4,6,-*%
%TO.N,Net-(U4B--)*%
X39275850Y-27365000D03*
%TO.P,U4,7*%
%TO.N,/Sense Circuit/Sense Ch 4/Sense Out 2*%
X39275850Y-28635000D03*
%TO.P,U4,8,V+*%
%TO.N,VDD*%
X39275850Y-29905000D03*
%TD*%
D15*
%TO.P,Q6,1,G*%
%TO.N,Net-(Q6-G)*%
X54950000Y-17062500D03*
%TO.P,Q6,2,S*%
%TO.N,/IS_LINES.A6*%
X53050000Y-17062500D03*
%TO.P,Q6,3,D*%
%TO.N,VCC*%
X54000000Y-18937500D03*
%TD*%
D10*
%TO.P,R26,1*%
%TO.N,VDD*%
X22000000Y-33412500D03*
%TO.P,R26,2*%
%TO.N,/Sense Circuit/Sense Ch 1/Sense Out 1*%
X22000000Y-31587500D03*
%TD*%
%TO.P,R82,1*%
%TO.N,Net-(U8B--)*%
X72500000Y-24412500D03*
%TO.P,R82,2*%
%TO.N,/IS_LINES.B8*%
X72500000Y-22587500D03*
%TD*%
D18*
%TO.P,R50,1*%
%TO.N,/Inhibit Circuit/INHIBIT_DATA6*%
X58912500Y-21000000D03*
%TO.P,R50,2*%
%TO.N,Net-(Q6-G)*%
X57087500Y-21000000D03*
%TD*%
D10*
%TO.P,R15,1*%
%TO.N,Net-(U2A--)*%
X21500000Y-24412500D03*
%TO.P,R15,2*%
%TO.N,/IS_LINES.A2*%
X21500000Y-22587500D03*
%TD*%
%TO.P,R32,1*%
%TO.N,VDD*%
X35000000Y-33412500D03*
%TO.P,R32,2*%
%TO.N,Net-(U3A--)*%
X35000000Y-31587500D03*
%TD*%
D11*
%TO.P,IS3,1,Pin_1*%
%TO.N,/IS_LINES.A3*%
X30725000Y-14000000D03*
D12*
%TO.P,IS3,2,Pin_2*%
%TO.N,/IS_LINES.B3*%
X33265000Y-14000000D03*
%TD*%
D10*
%TO.P,R21,1*%
%TO.N,Net-(U1B--)*%
X18500000Y-24412500D03*
%TO.P,R21,2*%
%TO.N,/IS_LINES.B1*%
X18500000Y-22587500D03*
%TD*%
D16*
%TO.P,R69,1*%
%TO.N,/IS_LINES.A6*%
X54000000Y-22587500D03*
%TO.P,R69,2*%
%TO.N,GND*%
X54000000Y-24412500D03*
%TD*%
D10*
%TO.P,R80,1*%
%TO.N,VDD*%
X62500000Y-33412500D03*
%TO.P,R80,2*%
%TO.N,/Sense Circuit/Sense Ch 7/Sense Out 2*%
X62500000Y-31587500D03*
%TD*%
%TO.P,R17,1*%
%TO.N,VDD*%
X29500000Y-33412500D03*
%TO.P,R17,2*%
%TO.N,/Sense Circuit/Sense Ch 2/Sense Out 1*%
X29500000Y-31587500D03*
%TD*%
D14*
%TO.P,R63,1*%
%TO.N,/IS_LINES.A7*%
X61087500Y-21000000D03*
%TO.P,R63,2*%
%TO.N,/IS_LINES.B7*%
X62912500Y-21000000D03*
%TD*%
D20*
%TO.P,IC2,1,4Q*%
%TO.N,/BUS8*%
X65005000Y-41825000D03*
D21*
%TO.P,IC2,2,1Q*%
%TO.N,/BUS5*%
X66325000Y-41825000D03*
%TO.P,IC2,3,1R*%
%TO.N,/RST*%
X67595000Y-41825000D03*
%TO.P,IC2,4,1S*%
%TO.N,Net-(IC2-1S)*%
X68865000Y-41825000D03*
%TO.P,IC2,5,OE*%
%TO.N,/Read Out*%
X70135000Y-41825000D03*
%TO.P,IC2,6,2S*%
%TO.N,Net-(IC2-2S)*%
X71405000Y-41825000D03*
%TO.P,IC2,7,2R*%
%TO.N,/RST*%
X72675000Y-41825000D03*
D20*
%TO.P,IC2,8,VSS*%
%TO.N,GND*%
X73995000Y-41825000D03*
%TO.P,IC2,9,2Q*%
%TO.N,/BUS6*%
X73995000Y-36175000D03*
D21*
%TO.P,IC2,10,3Q*%
%TO.N,/BUS7*%
X72675000Y-36175000D03*
%TO.P,IC2,11,3R*%
%TO.N,/RST*%
X71405000Y-36175000D03*
%TO.P,IC2,12,3S*%
%TO.N,Net-(IC2-3S)*%
X70135000Y-36175000D03*
%TO.P,IC2,13,N.C.*%
%TO.N,unconnected-(IC2-N.C.-Pad13)*%
X68865000Y-36175000D03*
%TO.P,IC2,14,4S*%
%TO.N,Net-(IC2-4S)*%
X67595000Y-36175000D03*
%TO.P,IC2,15,4R*%
%TO.N,/RST*%
X66325000Y-36175000D03*
D20*
%TO.P,IC2,16,VDD*%
%TO.N,VDD*%
X65005000Y-36175000D03*
%TD*%
D16*
%TO.P,R25,1*%
%TO.N,/IS_LINES.A1*%
X15000000Y-22587500D03*
%TO.P,R25,2*%
%TO.N,GND*%
X15000000Y-24412500D03*
%TD*%
D18*
%TO.P,R49,1*%
%TO.N,VDD*%
X36500000Y-37000000D03*
%TO.P,R49,2*%
%TO.N,/Sense Circuit/Sense Ch 4/Sense Out 1*%
X34675000Y-37000000D03*
%TD*%
D16*
%TO.P,R57,1*%
%TO.N,/IS_LINES.B5*%
X48500000Y-22587500D03*
%TO.P,R57,2*%
%TO.N,GND*%
X48500000Y-24412500D03*
%TD*%
D10*
%TO.P,R29,1*%
%TO.N,VDD*%
X33500000Y-33412500D03*
%TO.P,R29,2*%
%TO.N,Net-(U3B--)*%
X33500000Y-31587500D03*
%TD*%
D16*
%TO.P,R47,1*%
%TO.N,/IS_LINES.A4*%
X39000000Y-22587500D03*
%TO.P,R47,2*%
%TO.N,GND*%
X39000000Y-24412500D03*
%TD*%
D18*
%TO.P,R52,1*%
%TO.N,/Inhibit Circuit/INHIBIT_DATA7*%
X66912500Y-21000000D03*
%TO.P,R52,2*%
%TO.N,Net-(Q7-G)*%
X65087500Y-21000000D03*
%TD*%
D10*
%TO.P,R67,1*%
%TO.N,VDD*%
X58000000Y-33412500D03*
%TO.P,R67,2*%
%TO.N,Net-(U6A--)*%
X58000000Y-31587500D03*
%TD*%
D19*
%TO.P,Q12,1,G*%
%TO.N,Net-(Q10-G)*%
X41050000Y-18937500D03*
%TO.P,Q12,2,S*%
%TO.N,GND*%
X42950000Y-18937500D03*
%TO.P,Q12,3,D*%
%TO.N,/IS_LINES.B4*%
X42000000Y-17062500D03*
%TD*%
D14*
%TO.P,R19,1*%
%TO.N,/IS_LINES.A3*%
X29087500Y-21000000D03*
%TO.P,R19,2*%
%TO.N,/IS_LINES.B3*%
X30912500Y-21000000D03*
%TD*%
D17*
%TO.P,U7,1*%
%TO.N,/Sense Circuit/Sense Ch 7/Sense Out 1*%
X67224150Y-29905000D03*
%TO.P,U7,2,-*%
%TO.N,Net-(U7A--)*%
X67224150Y-28635000D03*
%TO.P,U7,3,+*%
%TO.N,/IS_LINES.B7*%
X67224150Y-27365000D03*
%TO.P,U7,4,V-*%
%TO.N,GND*%
X67224150Y-26095000D03*
%TO.P,U7,5,+*%
%TO.N,/IS_LINES.A7*%
X61775850Y-26095000D03*
%TO.P,U7,6,-*%
%TO.N,Net-(U7B--)*%
X61775850Y-27365000D03*
%TO.P,U7,7*%
%TO.N,/Sense Circuit/Sense Ch 7/Sense Out 2*%
X61775850Y-28635000D03*
%TO.P,U7,8,V+*%
%TO.N,VDD*%
X61775850Y-29905000D03*
%TD*%
D16*
%TO.P,R41,1*%
%TO.N,/IS_LINES.B4*%
X41000000Y-22587500D03*
%TO.P,R41,2*%
%TO.N,GND*%
X41000000Y-24412500D03*
%TD*%
D13*
%TO.P,IC5,1,1A*%
%TO.N,/Sense Circuit/Sense Ch 5/Sense Out 1*%
X51062000Y-35050000D03*
%TO.P,IC5,2,1B*%
%TO.N,/Sense Circuit/Sense Ch 5/Sense Out 2*%
X51062000Y-35700000D03*
%TO.P,IC5,3,1Y*%
%TO.N,Net-(IC2-1S)*%
X51062000Y-36350000D03*
%TO.P,IC5,4,2A*%
%TO.N,/Sense Circuit/Sense Ch 6/Sense Out 1*%
X51062000Y-37000000D03*
%TO.P,IC5,5,2B*%
%TO.N,/Sense Circuit/Sense Ch 6/Sense Out 2*%
X51062000Y-37650000D03*
%TO.P,IC5,6,2Y*%
%TO.N,Net-(IC2-2S)*%
X51062000Y-38300000D03*
%TO.P,IC5,7,GND*%
%TO.N,GND*%
X51062000Y-38950000D03*
%TO.P,IC5,8,3Y*%
%TO.N,Net-(IC2-3S)*%
X56938000Y-38950000D03*
%TO.P,IC5,9,3A*%
%TO.N,/Sense Circuit/Sense Ch 7/Sense Out 1*%
X56938000Y-38300000D03*
%TO.P,IC5,10,3B*%
%TO.N,/Sense Circuit/Sense Ch 7/Sense Out 2*%
X56938000Y-37650000D03*
%TO.P,IC5,11,4Y*%
%TO.N,Net-(IC2-4S)*%
X56938000Y-37000000D03*
%TO.P,IC5,12,4A*%
%TO.N,/Sense Circuit/Sense Ch 8/Sense Out 1*%
X56938000Y-36350000D03*
%TO.P,IC5,13,4B*%
%TO.N,/Sense Circuit/Sense Ch 8/Sense Out 2*%
X56938000Y-35700000D03*
%TO.P,IC5,14,VCC*%
%TO.N,VDD*%
X56938000Y-35050000D03*
%TD*%
D10*
%TO.P,R18,1*%
%TO.N,VDD*%
X25000000Y-33412500D03*
%TO.P,R18,2*%
%TO.N,/Sense Circuit/Sense Ch 2/Sense Out 2*%
X25000000Y-31587500D03*
%TD*%
D18*
%TO.P,R48,1*%
%TO.N,/Inhibit Circuit/INHIBIT_DATA5*%
X50912500Y-21000000D03*
%TO.P,R48,2*%
%TO.N,Net-(Q5-G)*%
X49087500Y-21000000D03*
%TD*%
D17*
%TO.P,U3,1*%
%TO.N,/Sense Circuit/Sense Ch 3/Sense Out 1*%
X37224150Y-29905000D03*
%TO.P,U3,2,-*%
%TO.N,Net-(U3A--)*%
X37224150Y-28635000D03*
%TO.P,U3,3,+*%
%TO.N,/IS_LINES.B3*%
X37224150Y-27365000D03*
%TO.P,U3,4,V-*%
%TO.N,GND*%
X37224150Y-26095000D03*
%TO.P,U3,5,+*%
%TO.N,/IS_LINES.A3*%
X31775850Y-26095000D03*
%TO.P,U3,6,-*%
%TO.N,Net-(U3B--)*%
X31775850Y-27365000D03*
%TO.P,U3,7*%
%TO.N,/Sense Circuit/Sense Ch 3/Sense Out 2*%
X31775850Y-28635000D03*
%TO.P,U3,8,V+*%
%TO.N,VDD*%
X31775850Y-29905000D03*
%TD*%
D10*
%TO.P,R14,1*%
%TO.N,VDD*%
X28000000Y-33412500D03*
%TO.P,R14,2*%
%TO.N,Net-(U2A--)*%
X28000000Y-31587500D03*
%TD*%
D13*
%TO.P,IC4,1,1~{OE}*%
%TO.N,GND*%
X39562000Y-33575000D03*
%TO.P,IC4,2,1A1*%
%TO.N,/BUS1*%
X39562000Y-34225000D03*
%TO.P,IC4,3,2Y4*%
%TO.N,/Inhibit Circuit/INHIBIT_DATA8*%
X39562000Y-34875000D03*
%TO.P,IC4,4,1A2*%
%TO.N,/BUS2*%
X39562000Y-35525000D03*
%TO.P,IC4,5,2Y3*%
%TO.N,/Inhibit Circuit/INHIBIT_DATA7*%
X39562000Y-36175000D03*
%TO.P,IC4,6,1A3*%
%TO.N,/BUS3*%
X39562000Y-36825000D03*
%TO.P,IC4,7,2Y2*%
%TO.N,/Inhibit Circuit/INHIBIT_DATA6*%
X39562000Y-37475000D03*
%TO.P,IC4,8,1A4*%
%TO.N,/BUS4*%
X39562000Y-38125000D03*
%TO.P,IC4,9,2Y1*%
%TO.N,/Inhibit Circuit/INHIBIT_DATA5*%
X39562000Y-38775000D03*
%TO.P,IC4,10,GND*%
%TO.N,GND*%
X39562000Y-39425000D03*
%TO.P,IC4,11,2A1*%
%TO.N,/BUS5*%
X45438000Y-39425000D03*
%TO.P,IC4,12,1Y4*%
%TO.N,/Inhibit Circuit/INHIBIT_DATA4*%
X45438000Y-38775000D03*
%TO.P,IC4,13,2A2*%
%TO.N,/BUS6*%
X45438000Y-38125000D03*
%TO.P,IC4,14,1Y3*%
%TO.N,/Inhibit Circuit/INHIBIT_DATA3*%
X45438000Y-37475000D03*
%TO.P,IC4,15,2A3*%
%TO.N,/BUS7*%
X45438000Y-36825000D03*
%TO.P,IC4,16,1Y2*%
%TO.N,/Inhibit Circuit/INHIBIT_DATA2*%
X45438000Y-36175000D03*
%TO.P,IC4,17,2A4*%
%TO.N,/BUS8*%
X45438000Y-35525000D03*
%TO.P,IC4,18,1Y1*%
%TO.N,/Inhibit Circuit/INHIBIT_DATA1*%
X45438000Y-34875000D03*
%TO.P,IC4,19,2~{OE}*%
%TO.N,GND*%
X45438000Y-34225000D03*
%TO.P,IC4,20,VCC*%
%TO.N,VDD*%
X45438000Y-33575000D03*
%TD*%
D16*
%TO.P,R34,1*%
%TO.N,/IS_LINES.A3*%
X31000000Y-22587500D03*
%TO.P,R34,2*%
%TO.N,GND*%
X31000000Y-24412500D03*
%TD*%
D10*
%TO.P,R23,1*%
%TO.N,VDD*%
X20500000Y-33412500D03*
%TO.P,R23,2*%
%TO.N,Net-(U1A--)*%
X20500000Y-31587500D03*
%TD*%
D19*
%TO.P,Q16,1,G*%
%TO.N,Net-(Q10-G)*%
X73050000Y-18937500D03*
%TO.P,Q16,2,S*%
%TO.N,GND*%
X74950000Y-18937500D03*
%TO.P,Q16,3,D*%
%TO.N,/IS_LINES.B8*%
X74000000Y-17062500D03*
%TD*%
D10*
%TO.P,R45,1*%
%TO.N,Net-(U4A--)*%
X37500000Y-24412500D03*
%TO.P,R45,2*%
%TO.N,/IS_LINES.A4*%
X37500000Y-22587500D03*
%TD*%
D11*
%TO.P,IS6,1,Pin_1*%
%TO.N,/IS_LINES.A6*%
X54725000Y-14000000D03*
D12*
%TO.P,IS6,2,Pin_2*%
%TO.N,/IS_LINES.B6*%
X57265000Y-14000000D03*
%TD*%
D19*
%TO.P,Q9,1,G*%
%TO.N,Net-(Q10-G)*%
X17050000Y-18937500D03*
%TO.P,Q9,2,S*%
%TO.N,GND*%
X18950000Y-18937500D03*
%TO.P,Q9,3,D*%
%TO.N,/IS_LINES.B1*%
X18000000Y-17062500D03*
%TD*%
D10*
%TO.P,R70,1*%
%TO.N,VDD*%
X59500000Y-33412500D03*
%TO.P,R70,2*%
%TO.N,/Sense Circuit/Sense Ch 6/Sense Out 1*%
X59500000Y-31587500D03*
%TD*%
%TO.P,R73,1*%
%TO.N,VDD*%
X64000000Y-33412500D03*
%TO.P,R73,2*%
%TO.N,Net-(U7B--)*%
X64000000Y-31587500D03*
%TD*%
D16*
%TO.P,R13,1*%
%TO.N,/IS_LINES.B2*%
X25000000Y-22587500D03*
%TO.P,R13,2*%
%TO.N,GND*%
X25000000Y-24412500D03*
%TD*%
D10*
%TO.P,R58,1*%
%TO.N,VDD*%
X50500000Y-33412500D03*
%TO.P,R58,2*%
%TO.N,Net-(U5A--)*%
X50500000Y-31587500D03*
%TD*%
%TO.P,R68,1*%
%TO.N,Net-(U6A--)*%
X52500000Y-24412500D03*
%TO.P,R68,2*%
%TO.N,/IS_LINES.A6*%
X52500000Y-22587500D03*
%TD*%
D16*
%TO.P,R86,1*%
%TO.N,/IS_LINES.A8*%
X69500000Y-22587500D03*
%TO.P,R86,2*%
%TO.N,GND*%
X69500000Y-24412500D03*
%TD*%
%TO.P,R83,1*%
%TO.N,/IS_LINES.B8*%
X71000000Y-22587500D03*
%TO.P,R83,2*%
%TO.N,GND*%
X71000000Y-24412500D03*
%TD*%
D18*
%TO.P,R44,1*%
%TO.N,/Inhibit Circuit/INHIBIT_DATA3*%
X34912500Y-21000000D03*
%TO.P,R44,2*%
%TO.N,Net-(Q3-G)*%
X33087500Y-21000000D03*
%TD*%
D10*
%TO.P,R12,1*%
%TO.N,Net-(U2B--)*%
X26500000Y-24412500D03*
%TO.P,R12,2*%
%TO.N,/IS_LINES.B2*%
X26500000Y-22587500D03*
%TD*%
D14*
%TO.P,R10,1*%
%TO.N,/IS_LINES.A1*%
X13087500Y-21000000D03*
%TO.P,R10,2*%
%TO.N,/IS_LINES.B1*%
X14912500Y-21000000D03*
%TD*%
D16*
%TO.P,R22,1*%
%TO.N,/IS_LINES.B1*%
X17000000Y-22587500D03*
%TO.P,R22,2*%
%TO.N,GND*%
X17000000Y-24412500D03*
%TD*%
D10*
%TO.P,R81,1*%
%TO.N,VDD*%
X71500000Y-33412500D03*
%TO.P,R81,2*%
%TO.N,Net-(U8B--)*%
X71500000Y-31587500D03*
%TD*%
%TO.P,R79,1*%
%TO.N,VDD*%
X67000000Y-33412500D03*
%TO.P,R79,2*%
%TO.N,/Sense Circuit/Sense Ch 7/Sense Out 1*%
X67000000Y-31587500D03*
%TD*%
%TO.P,R77,1*%
%TO.N,Net-(U7A--)*%
X60500000Y-24412500D03*
%TO.P,R77,2*%
%TO.N,/IS_LINES.A7*%
X60500000Y-22587500D03*
%TD*%
D11*
%TO.P,J1,1,Pin_1*%
%TO.N,VDD*%
X28800000Y-42000000D03*
D12*
%TO.P,J1,2,Pin_2*%
%TO.N,GND*%
X31340000Y-42000000D03*
%TO.P,J1,3,Pin_3*%
%TO.N,/BUS1*%
X33880000Y-42000000D03*
%TO.P,J1,4,Pin_4*%
%TO.N,/BUS2*%
X36420000Y-42000000D03*
%TO.P,J1,5,Pin_5*%
%TO.N,/BUS3*%
X38960000Y-42000000D03*
%TO.P,J1,6,Pin_6*%
%TO.N,/BUS4*%
X41500000Y-42000000D03*
%TO.P,J1,7,Pin_7*%
%TO.N,/BUS5*%
X44040000Y-42000000D03*
%TO.P,J1,8,Pin_8*%
%TO.N,/BUS6*%
X46580000Y-42000000D03*
%TO.P,J1,9,Pin_9*%
%TO.N,/BUS7*%
X49120000Y-42000000D03*
%TO.P,J1,10,Pin_10*%
%TO.N,/BUS8*%
X51660000Y-42000000D03*
%TO.P,J1,11,Pin_11*%
%TO.N,/RST*%
X54200000Y-42000000D03*
%TO.P,J1,12,Pin_12*%
%TO.N,/Read Out*%
X56740000Y-42000000D03*
%TO.P,J1,13,Pin_13*%
%TO.N,/Inhibit EN*%
X59280000Y-42000000D03*
%TD*%
D22*
%TO.N,/BUS3*%
X22085353Y-34670371D03*
%TO.N,/BUS2*%
X24500000Y-36500000D03*
%TO.N,/BUS7*%
X73000000Y-38000000D03*
%TO.N,/BUS6*%
X74500000Y-38000000D03*
D23*
%TO.N,VDD*%
X36000000Y-38000000D03*
X45833364Y-31333364D03*
X61500000Y-33500000D03*
X30905786Y-30945968D03*
X72291218Y-34320963D03*
X38560332Y-30725784D03*
X23929013Y-30901050D03*
X61405786Y-30762500D03*
X53500000Y-31000000D03*
X63500000Y-35500000D03*
X55500000Y-34500000D03*
X68500000Y-31000000D03*
X16500000Y-32500000D03*
X49000000Y-34500000D03*
X33500000Y-34463000D03*
%TO.N,GND*%
X51500000Y-17500000D03*
X75000000Y-25000000D03*
X70248724Y-25158991D03*
X19500000Y-17500000D03*
X66000000Y-26500000D03*
X23987500Y-24425000D03*
X16000000Y-24425000D03*
X32931348Y-40123380D03*
X55000000Y-24412500D03*
X62750426Y-25159622D03*
X38500000Y-40000000D03*
X59500000Y-17500000D03*
X74500000Y-40000000D03*
D22*
X41770309Y-29527310D03*
D23*
X47500000Y-24425000D03*
X32000000Y-24425000D03*
X50916636Y-26416636D03*
D22*
X64500000Y-28500000D03*
D23*
X58500000Y-26500000D03*
D22*
X53000000Y-39500000D03*
D23*
X35500000Y-17500000D03*
X43500000Y-26500000D03*
D22*
X27000000Y-28500000D03*
X42565992Y-33544286D03*
D23*
X75450000Y-17500000D03*
D22*
X20000000Y-28500000D03*
X48000000Y-36500000D03*
D23*
X40000000Y-24425000D03*
D22*
X57000000Y-28500000D03*
D23*
X27500000Y-17500000D03*
X67500000Y-17500000D03*
X13500000Y-32500000D03*
X43500000Y-17500000D03*
D22*
X25500000Y-41000000D03*
D23*
%TO.N,VCC*%
X46000000Y-20000000D03*
X70000000Y-20000000D03*
X30000056Y-20000000D03*
X54000000Y-20000000D03*
X62000000Y-20000000D03*
X38000000Y-20000000D03*
X22000000Y-20000000D03*
X14000000Y-20000000D03*
D22*
%TO.N,Net-(IC1-3S)*%
X31500000Y-39500000D03*
X18000000Y-37650002D03*
%TO.N,Net-(IC1-4S)*%
X31500000Y-36000000D03*
X16000000Y-34500000D03*
%TO.N,/Sense Circuit/Sense Ch 3/Sense Out 1*%
X36162294Y-30576751D03*
X34500000Y-38500000D03*
%TO.N,/Sense Circuit/Sense Ch 2/Sense Out 2*%
X25511694Y-30507473D03*
X29000000Y-38500000D03*
%TO.N,/Sense Circuit/Sense Ch 6/Sense Out 1*%
X52452000Y-35653007D03*
X58725000Y-30500000D03*
%TO.N,/Sense Circuit/Sense Ch 7/Sense Out 1*%
X55012653Y-38487347D03*
X66419150Y-30587291D03*
%TO.N,Net-(Q10-G)*%
X64000000Y-18500000D03*
X32000000Y-18500000D03*
X40000000Y-18500000D03*
X72000000Y-18500000D03*
X63500000Y-41500000D03*
X48000000Y-18500000D03*
X56000000Y-18500000D03*
X24000000Y-18500000D03*
X16000000Y-18500000D03*
%TO.N,/RST*%
X72000000Y-39000000D03*
X16595000Y-39000000D03*
X65987347Y-37775000D03*
X22365153Y-40365153D03*
%TO.N,/Read Out*%
X20286720Y-40037718D03*
X70000000Y-40348000D03*
%TO.N,/Inhibit Circuit/INHIBIT_DATA8*%
X74043903Y-22543903D03*
X41625000Y-34875000D03*
%TO.N,/Inhibit Circuit/INHIBIT_DATA1*%
X20107034Y-22375126D03*
X43000000Y-35000000D03*
%TO.N,/Inhibit Circuit/INHIBIT_DATA6*%
X41000000Y-37475000D03*
X59052762Y-22422660D03*
%TO.N,/Inhibit Circuit/INHIBIT_DATA4*%
X43398288Y-21819384D03*
X44000000Y-39500000D03*
%TO.N,/Inhibit Circuit/INHIBIT_DATA5*%
X51270427Y-22302312D03*
X40775000Y-40015922D03*
%TO.N,/Inhibit Circuit/INHIBIT_DATA7*%
X41500000Y-36175000D03*
X66557867Y-22712873D03*
%TO.N,/Inhibit Circuit/INHIBIT_DATA3*%
X44000000Y-38000000D03*
X36000000Y-22500000D03*
%TO.N,/Inhibit Circuit/INHIBIT_DATA2*%
X43500000Y-36500000D03*
X28000000Y-22500000D03*
%TD*%
D24*
%TO.N,/BUS5*%
X66325000Y-41825000D02*
X66325000Y-42350000D01*
X45438000Y-39425000D02*
X45438000Y-40602000D01*
X45615000Y-43575000D02*
X44040000Y-42000000D01*
X66325000Y-42350000D02*
X65100000Y-43575000D01*
X45438000Y-40602000D02*
X44040000Y-42000000D01*
X65100000Y-43575000D02*
X45615000Y-43575000D01*
%TO.N,/BUS3*%
X37500000Y-39446316D02*
X37500000Y-40540000D01*
X37500000Y-40540000D02*
X38960000Y-42000000D01*
X21675000Y-36175000D02*
X21675000Y-35080724D01*
X38254000Y-37145500D02*
X38254000Y-38692316D01*
X21675000Y-35080724D02*
X22085353Y-34670371D01*
X38574500Y-36825000D02*
X38254000Y-37145500D01*
X38254000Y-38692316D02*
X37500000Y-39446316D01*
X39562000Y-36825000D02*
X38574500Y-36825000D01*
%TO.N,/BUS1*%
X37500000Y-38380000D02*
X33880000Y-42000000D01*
X39562000Y-34225000D02*
X38574500Y-34225000D01*
X15325000Y-42350000D02*
X16150000Y-43175000D01*
X38574500Y-34225000D02*
X37500000Y-35299500D01*
X37500000Y-35299500D02*
X37500000Y-38380000D01*
X15325000Y-41825000D02*
X15325000Y-42350000D01*
X15325000Y-41825000D02*
X15325000Y-42405000D01*
X15325000Y-41825000D02*
X15325000Y-41300000D01*
X32705000Y-43175000D02*
X33880000Y-42000000D01*
X16150000Y-43175000D02*
X32705000Y-43175000D01*
%TO.N,/BUS8*%
X48877000Y-38843841D02*
X48877000Y-39843842D01*
X48877000Y-39843842D02*
X51033158Y-42000000D01*
X65005000Y-41825000D02*
X63655000Y-43175000D01*
X46225250Y-35525000D02*
X47000000Y-36299750D01*
X47000000Y-36299750D02*
X47000000Y-36966842D01*
X51033158Y-42000000D02*
X51660000Y-42000000D01*
X63655000Y-43175000D02*
X52835000Y-43175000D01*
X52835000Y-43175000D02*
X51660000Y-42000000D01*
X45438000Y-35525000D02*
X46225250Y-35525000D01*
X48656159Y-38623000D02*
X48877000Y-38843841D01*
X47000000Y-36966842D02*
X48656159Y-38623000D01*
%TO.N,/BUS2*%
X22995000Y-36175000D02*
X24175000Y-36175000D01*
X24175000Y-36175000D02*
X24500000Y-36500000D01*
X36420000Y-39993158D02*
X36420000Y-42000000D01*
X37877000Y-36222500D02*
X37877000Y-38536158D01*
X37877000Y-38536158D02*
X36420000Y-39993158D01*
X39562000Y-35525000D02*
X38574500Y-35525000D01*
X38574500Y-35525000D02*
X37877000Y-36222500D01*
%TO.N,/BUS7*%
X45438000Y-36825000D02*
X46325000Y-36825000D01*
X49120000Y-40620000D02*
X49120000Y-42000000D01*
X48500000Y-40000000D02*
X49120000Y-40620000D01*
X48500000Y-39000000D02*
X48500000Y-40000000D01*
X72675000Y-36175000D02*
X72675000Y-37675000D01*
X72675000Y-37675000D02*
X73000000Y-38000000D01*
X46325000Y-36825000D02*
X48500000Y-39000000D01*
%TO.N,/BUS6*%
X46400500Y-38125000D02*
X46580000Y-38304500D01*
X46580000Y-38304500D02*
X46580000Y-42000000D01*
X45438000Y-38125000D02*
X46400500Y-38125000D01*
X73995000Y-36175000D02*
X73995000Y-37495000D01*
X73995000Y-37495000D02*
X74500000Y-38000000D01*
%TO.N,/BUS4*%
X39925000Y-43575000D02*
X41500000Y-42000000D01*
X39562000Y-38125000D02*
X40549500Y-38125000D01*
X15280000Y-43575000D02*
X39925000Y-43575000D01*
X40549500Y-38125000D02*
X41500000Y-39075500D01*
X41500000Y-39075500D02*
X41500000Y-42000000D01*
X14005000Y-41825000D02*
X14005000Y-42300000D01*
X14005000Y-42300000D02*
X15280000Y-43575000D01*
D25*
%TO.N,VDD*%
X24275850Y-29905000D02*
X24075000Y-30105850D01*
X45166728Y-32000000D02*
X45833364Y-31333364D01*
X71500000Y-33412500D02*
X71500000Y-33529745D01*
X73000000Y-33612181D02*
X72291218Y-34320963D01*
X36000000Y-38000000D02*
X36500000Y-37500000D01*
X47500000Y-33412500D02*
X52000000Y-33412500D01*
X44412500Y-32000000D02*
X44412500Y-32524500D01*
X46775850Y-29905000D02*
X46775850Y-30390878D01*
X32000000Y-33412500D02*
X36500000Y-33412500D01*
X33500000Y-33412500D02*
X33500000Y-34463000D01*
X44412500Y-32524500D02*
X45438000Y-33550000D01*
X62500000Y-33412500D02*
X61587500Y-33412500D01*
X49000000Y-33412500D02*
X49000000Y-34500000D01*
X65005000Y-36175000D02*
X64175000Y-36175000D01*
X16775850Y-29905000D02*
X16500000Y-30180850D01*
X14005000Y-34995000D02*
X14005000Y-36175000D01*
X33500000Y-34463000D02*
X32938000Y-35025000D01*
X31775850Y-29905000D02*
X31775850Y-30075904D01*
X17412500Y-33412500D02*
X16500000Y-32500000D01*
X38560332Y-31151370D02*
X39086993Y-31678031D01*
X46775850Y-30390878D02*
X45833364Y-31333364D01*
X61587500Y-33412500D02*
X61500000Y-33500000D01*
X38560332Y-30725784D02*
X38560332Y-31151370D01*
X24002000Y-32414500D02*
X24002000Y-30974037D01*
X44412500Y-32000000D02*
X45166728Y-32000000D01*
X56500000Y-33412500D02*
X56500000Y-33500000D01*
X64175000Y-36175000D02*
X63500000Y-35500000D01*
X55000000Y-34000000D02*
X55500000Y-34500000D01*
X16500000Y-30180850D02*
X16500000Y-32500000D01*
X69275850Y-30224150D02*
X68500000Y-31000000D01*
X38560332Y-30725784D02*
X38560332Y-30620518D01*
X56500000Y-33412500D02*
X56500000Y-34612000D01*
X70000000Y-33412500D02*
X74500000Y-33412500D01*
X69275850Y-29905000D02*
X69275850Y-30224150D01*
X31775850Y-30075904D02*
X30905786Y-30945968D01*
X39275850Y-31489174D02*
X39086993Y-31678031D01*
X38560332Y-30620518D02*
X39275850Y-29905000D01*
X36500000Y-37500000D02*
X36500000Y-37000000D01*
X24075000Y-30105850D02*
X24075000Y-32487500D01*
X61405786Y-30762500D02*
X61775850Y-30392436D01*
X17500000Y-33412500D02*
X22000000Y-33412500D01*
X73000000Y-33412500D02*
X73000000Y-33612181D01*
X16500000Y-32500000D02*
X14005000Y-34995000D01*
X54275850Y-29905000D02*
X54275850Y-30224150D01*
X24075000Y-32487500D02*
X25000000Y-33412500D01*
X55000000Y-33412500D02*
X59500000Y-33412500D01*
X71500000Y-33529745D02*
X72291218Y-34320963D01*
X61775850Y-30392436D02*
X61775850Y-29905000D01*
X25000000Y-33412500D02*
X29500000Y-33412500D01*
X44412500Y-32000000D02*
X44680850Y-32000000D01*
X25000000Y-33412500D02*
X24002000Y-32414500D01*
X62500000Y-33412500D02*
X67000000Y-33412500D01*
X24002000Y-30974037D02*
X23929013Y-30901050D01*
X56500000Y-34612000D02*
X56913000Y-35025000D01*
X36500000Y-35500000D02*
X36500000Y-37000000D01*
X55000000Y-33412500D02*
X55000000Y-34000000D01*
X54275850Y-30224150D02*
X53500000Y-31000000D01*
X56913000Y-35025000D02*
X56938000Y-35025000D01*
X17500000Y-33412500D02*
X17412500Y-33412500D01*
X56500000Y-33500000D02*
X55500000Y-34500000D01*
%TO.N,GND*%
X25500000Y-41000000D02*
X27062000Y-39438000D01*
X62752878Y-25159622D02*
X63500000Y-24412500D01*
X44724150Y-26095000D02*
X44668501Y-26095000D01*
X31000000Y-24412500D02*
X31987500Y-24412500D01*
X69500000Y-24412500D02*
X69502233Y-24412500D01*
X58905000Y-26095000D02*
X58500000Y-26500000D01*
X44724150Y-26095000D02*
X43905000Y-26095000D01*
X23987500Y-24412500D02*
X24000000Y-24425000D01*
X26950000Y-18937500D02*
X26950000Y-18050000D01*
X58950000Y-18050000D02*
X59500000Y-17500000D01*
X74724150Y-26095000D02*
X74724150Y-25275850D01*
X58950000Y-18937500D02*
X58950000Y-18050000D01*
X23000000Y-25319150D02*
X22224150Y-26095000D01*
X39000000Y-24412500D02*
X37317500Y-26095000D01*
X37317500Y-26095000D02*
X37224150Y-26095000D01*
X46500000Y-24412500D02*
X48500000Y-24412500D01*
X52475000Y-38975000D02*
X51062000Y-38975000D01*
X34950000Y-18050000D02*
X35500000Y-17500000D01*
X46500000Y-24412500D02*
X47487500Y-24412500D01*
X15000000Y-24412500D02*
X15987500Y-24412500D01*
X74950000Y-18937500D02*
X74950000Y-18000000D01*
X53000000Y-39500000D02*
X52475000Y-38975000D01*
X66950000Y-18050000D02*
X67500000Y-17500000D01*
X62003304Y-24412500D02*
X62750426Y-25159622D01*
X70995215Y-24412500D02*
X70248724Y-25158991D01*
X50950000Y-18937500D02*
X50950000Y-18050000D01*
X18950000Y-18937500D02*
X18950000Y-18050000D01*
X23820000Y-41000000D02*
X22995000Y-41825000D01*
X23000000Y-24412500D02*
X23000000Y-25319150D01*
X52224150Y-26095000D02*
X51238272Y-26095000D01*
X74724150Y-25275850D02*
X75000000Y-25000000D01*
X69502233Y-24412500D02*
X70248724Y-25158991D01*
X31987500Y-24412500D02*
X32000000Y-24425000D01*
X42950000Y-18050000D02*
X43500000Y-17500000D01*
X39987500Y-24412500D02*
X40000000Y-24425000D01*
X74950000Y-18000000D02*
X75450000Y-17500000D01*
X31340000Y-42000000D02*
X31340000Y-41714728D01*
X31000000Y-24412500D02*
X33000000Y-24412500D01*
X42950000Y-18937500D02*
X42950000Y-18050000D01*
X23000000Y-24412500D02*
X23987500Y-24412500D01*
X47487500Y-24412500D02*
X47500000Y-24425000D01*
X43905000Y-26095000D02*
X43500000Y-26500000D01*
X66405000Y-26095000D02*
X66000000Y-26500000D01*
X55000000Y-24412500D02*
X56000000Y-24412500D01*
X23000000Y-24412500D02*
X25000000Y-24412500D01*
X62000000Y-24412500D02*
X62003304Y-24412500D01*
X73995000Y-41825000D02*
X73995000Y-40505000D01*
X66950000Y-18937500D02*
X66950000Y-18050000D01*
X39050000Y-39450000D02*
X39562000Y-39450000D01*
X38500000Y-40000000D02*
X39050000Y-39450000D01*
X54000000Y-24412500D02*
X55000000Y-24412500D01*
X31000000Y-24412500D02*
X31000000Y-24819150D01*
X23000000Y-24412500D02*
X23975000Y-24412500D01*
X62750426Y-25159622D02*
X62752878Y-25159622D01*
D24*
X45438000Y-34225000D02*
X44450500Y-34225000D01*
D25*
X25500000Y-41000000D02*
X23820000Y-41000000D01*
X26950000Y-18050000D02*
X27500000Y-17500000D01*
X67224150Y-26095000D02*
X66405000Y-26095000D01*
X39000000Y-24412500D02*
X41000000Y-24412500D01*
D24*
X44450500Y-34225000D02*
X43769786Y-33544286D01*
D25*
X27062000Y-39438000D02*
X27062000Y-38975000D01*
X15987500Y-24412500D02*
X16000000Y-24425000D01*
X34950000Y-18937500D02*
X34950000Y-18050000D01*
X42565992Y-33544286D02*
X42560278Y-33550000D01*
X51238272Y-26095000D02*
X50916636Y-26416636D01*
X39000000Y-24412500D02*
X39987500Y-24412500D01*
X42560278Y-33550000D02*
X39562000Y-33550000D01*
D24*
X43769786Y-33544286D02*
X42565992Y-33544286D01*
X39562000Y-39425000D02*
X39075000Y-39425000D01*
D25*
X31000000Y-24819150D02*
X29724150Y-26095000D01*
X59724150Y-26095000D02*
X58905000Y-26095000D01*
X50950000Y-18050000D02*
X51500000Y-17500000D01*
X31340000Y-41714728D02*
X32931348Y-40123380D01*
X15000000Y-24412500D02*
X17000000Y-24412500D01*
X71000000Y-24412500D02*
X70995215Y-24412500D01*
X18950000Y-18050000D02*
X19500000Y-17500000D01*
X73995000Y-40505000D02*
X74500000Y-40000000D01*
X23975000Y-24412500D02*
X23987500Y-24425000D01*
%TO.N,VCC*%
X22000000Y-18937500D02*
X22000000Y-20000000D01*
X54000000Y-18937500D02*
X54000000Y-20000000D01*
X46000000Y-18937500D02*
X46000000Y-20000000D01*
X70000000Y-18937500D02*
X70000000Y-20000000D01*
X30000000Y-19999944D02*
X30000000Y-18937500D01*
X30000056Y-20000000D02*
X30000000Y-19999944D01*
X14000000Y-18937500D02*
X14000000Y-20000000D01*
X62000000Y-18937500D02*
X62000000Y-20000000D01*
X38000000Y-18937500D02*
X38000000Y-20000000D01*
D24*
%TO.N,Net-(IC1-1S)*%
X26099500Y-36350000D02*
X27062000Y-36350000D01*
X24526500Y-37923000D02*
X26099500Y-36350000D01*
X21242000Y-37923000D02*
X24526500Y-37923000D01*
X17865000Y-41300000D02*
X21242000Y-37923000D01*
X17865000Y-41825000D02*
X17865000Y-41300000D01*
%TO.N,Net-(IC1-3S)*%
X19135000Y-36175000D02*
X19135000Y-35570000D01*
X32388000Y-39500000D02*
X32938000Y-38950000D01*
X19135000Y-36700000D02*
X18184998Y-37650002D01*
X31500000Y-39500000D02*
X32388000Y-39500000D01*
X19135000Y-36175000D02*
X19135000Y-36700000D01*
X18184998Y-37650002D02*
X18000000Y-37650002D01*
%TO.N,Net-(IC1-2S)*%
X20405000Y-41300000D02*
X23405000Y-38300000D01*
X20405000Y-41825000D02*
X20405000Y-41300000D01*
X23405000Y-38300000D02*
X27062000Y-38300000D01*
%TO.N,Net-(IC1-4S)*%
X16595000Y-35095000D02*
X16000000Y-34500000D01*
X31500000Y-36524500D02*
X31975500Y-37000000D01*
X16595000Y-36175000D02*
X16595000Y-35095000D01*
X31975500Y-37000000D02*
X32938000Y-37000000D01*
X31500000Y-36000000D02*
X31500000Y-36524500D01*
%TO.N,Net-(IC2-3S)*%
X70135000Y-36175000D02*
X70135000Y-36700000D01*
X57011000Y-38877000D02*
X56938000Y-38950000D01*
X67958000Y-38877000D02*
X57011000Y-38877000D01*
X70135000Y-36700000D02*
X67958000Y-38877000D01*
%TO.N,Net-(IC2-2S)*%
X57877500Y-39500000D02*
X58123500Y-39254000D01*
X54500000Y-39500000D02*
X57877500Y-39500000D01*
X58123500Y-39254000D02*
X70254000Y-39254000D01*
X71405000Y-40405000D02*
X71405000Y-41825000D01*
X51062000Y-38300000D02*
X53300000Y-38300000D01*
X70254000Y-39254000D02*
X71405000Y-40405000D01*
X53300000Y-38300000D02*
X54500000Y-39500000D01*
%TO.N,Net-(IC2-1S)*%
X68865000Y-41300000D02*
X67196000Y-39631000D01*
X49500000Y-36924500D02*
X50074500Y-36350000D01*
X50566316Y-40500000D02*
X49500000Y-39433684D01*
X50074500Y-36350000D02*
X51062000Y-36350000D01*
X58279659Y-39631000D02*
X57410659Y-40500000D01*
X49500000Y-39433684D02*
X49500000Y-36924500D01*
X68865000Y-41825000D02*
X68865000Y-41300000D01*
X57410659Y-40500000D02*
X50566316Y-40500000D01*
X67196000Y-39631000D02*
X58279659Y-39631000D01*
%TO.N,Net-(IC2-4S)*%
X60000500Y-38500000D02*
X58500500Y-37000000D01*
X67595000Y-36175000D02*
X67595000Y-37405000D01*
X67595000Y-37405000D02*
X66500000Y-38500000D01*
X66500000Y-38500000D02*
X60000500Y-38500000D01*
X58500500Y-37000000D02*
X56938000Y-37000000D01*
%TO.N,/Sense Circuit/Sense Ch 2/Sense Out 1*%
X30087500Y-31587500D02*
X30500000Y-32000000D01*
X29500000Y-31587500D02*
X30087500Y-31587500D01*
X30500000Y-32000000D02*
X30500000Y-34500000D01*
X28000000Y-37000000D02*
X27062000Y-37000000D01*
X29500000Y-31587500D02*
X29500000Y-30129150D01*
X29500000Y-30129150D02*
X29724150Y-29905000D01*
X30500000Y-34500000D02*
X28000000Y-37000000D01*
%TO.N,/Sense Circuit/Sense Ch 1/Sense Out 1*%
X23500000Y-32000000D02*
X23500000Y-33966842D01*
X22224150Y-29905000D02*
X22224150Y-31363350D01*
X22000000Y-31587500D02*
X23087500Y-31587500D01*
X23087500Y-31587500D02*
X23500000Y-32000000D01*
X24583158Y-35050000D02*
X27062000Y-35050000D01*
X22224150Y-31363350D02*
X22000000Y-31587500D01*
X23500000Y-33966842D02*
X24583158Y-35050000D01*
%TO.N,/Sense Circuit/Sense Ch 3/Sense Out 2*%
X33000000Y-30587500D02*
X32000000Y-31587500D01*
X31775850Y-28635000D02*
X32226700Y-28635000D01*
X31000000Y-32587500D02*
X31000000Y-34533158D01*
X30500000Y-37000000D02*
X31150000Y-37650000D01*
X30500000Y-35033158D02*
X30500000Y-37000000D01*
X32000000Y-31587500D02*
X31000000Y-32587500D01*
X32226700Y-28635000D02*
X33000000Y-29408300D01*
X31150000Y-37650000D02*
X32938000Y-37650000D01*
X33000000Y-29408300D02*
X33000000Y-30587500D01*
X31000000Y-34533158D02*
X30500000Y-35033158D01*
%TO.N,/Sense Circuit/Sense Ch 3/Sense Out 1*%
X36500000Y-31587500D02*
X36500000Y-30914457D01*
X32938000Y-38300000D02*
X34300000Y-38300000D01*
X36500000Y-30914457D02*
X36162294Y-30576751D01*
X34300000Y-38300000D02*
X34500000Y-38500000D01*
X36834045Y-29905000D02*
X36162294Y-30576751D01*
X37224150Y-29905000D02*
X36834045Y-29905000D01*
%TO.N,/Sense Circuit/Sense Ch 1/Sense Out 2*%
X23100000Y-34100000D02*
X24700000Y-35700000D01*
X23100000Y-33000000D02*
X23100000Y-34100000D01*
X18000000Y-29408300D02*
X18000000Y-31087500D01*
X16775850Y-28635000D02*
X17226700Y-28635000D01*
X17500000Y-31587500D02*
X18512500Y-32600000D01*
X18512500Y-32600000D02*
X22700000Y-32600000D01*
X17226700Y-28635000D02*
X18000000Y-29408300D01*
X22700000Y-32600000D02*
X23100000Y-33000000D01*
X18000000Y-31087500D02*
X17500000Y-31587500D01*
X24700000Y-35700000D02*
X27062000Y-35700000D01*
%TO.N,/Sense Circuit/Sense Ch 4/Sense Out 1*%
X38500000Y-33235235D02*
X37035235Y-34700000D01*
X43400000Y-32477076D02*
X43077076Y-32800000D01*
X43077076Y-32800000D02*
X39787759Y-32800000D01*
X43400000Y-31229150D02*
X43400000Y-32477076D01*
X37035235Y-34700000D02*
X35800000Y-34700000D01*
X34025000Y-36350000D02*
X34675000Y-37000000D01*
X35487500Y-36187500D02*
X34675000Y-37000000D01*
X39587759Y-33000000D02*
X38500000Y-33000000D01*
X32938000Y-36350000D02*
X34025000Y-36350000D01*
X39787759Y-32800000D02*
X39587759Y-33000000D01*
X35487500Y-35012500D02*
X35487500Y-36187500D01*
X38500000Y-33000000D02*
X38500000Y-33235235D01*
X44724150Y-29905000D02*
X43400000Y-31229150D01*
X35800000Y-34700000D02*
X35487500Y-35012500D01*
%TO.N,/Sense Circuit/Sense Ch 2/Sense Out 2*%
X24665500Y-28635000D02*
X25500000Y-29469500D01*
X24275850Y-28635000D02*
X24665500Y-28635000D01*
X27062000Y-37650000D02*
X28150000Y-37650000D01*
X25500000Y-31087500D02*
X25000000Y-31587500D01*
X28150000Y-37650000D02*
X29000000Y-38500000D01*
X25500000Y-29469500D02*
X25500000Y-31087500D01*
%TO.N,/Sense Circuit/Sense Ch 4/Sense Out 2*%
X40331100Y-30500000D02*
X39899493Y-30931607D01*
X39899493Y-32155107D02*
X39431600Y-32623000D01*
X40331100Y-29239400D02*
X40331100Y-30500000D01*
X38000000Y-32966841D02*
X38000000Y-33202076D01*
X35275000Y-34225000D02*
X34675000Y-34825000D01*
X39431600Y-32623000D02*
X38343841Y-32623000D01*
X34475000Y-35700000D02*
X34675000Y-35500000D01*
X36977076Y-34225000D02*
X35275000Y-34225000D01*
X38000000Y-33202076D02*
X36977076Y-34225000D01*
X39899493Y-30931607D02*
X39899493Y-32155107D01*
X34675000Y-34825000D02*
X34675000Y-35500000D01*
X39726700Y-28635000D02*
X40331100Y-29239400D01*
X39275850Y-28635000D02*
X39726700Y-28635000D01*
X38343841Y-32623000D02*
X38000000Y-32966841D01*
X32938000Y-35700000D02*
X34475000Y-35700000D01*
%TO.N,/Sense Circuit/Sense Ch 6/Sense Out 1*%
X59724150Y-29905000D02*
X59320000Y-29905000D01*
X59500000Y-31275000D02*
X58725000Y-30500000D01*
X52452000Y-36597500D02*
X52452000Y-35653007D01*
X59500000Y-31587500D02*
X59500000Y-31275000D01*
X59320000Y-29905000D02*
X58725000Y-30500000D01*
X59724150Y-31363350D02*
X59500000Y-31587500D01*
X52049500Y-37000000D02*
X52452000Y-36597500D01*
X51062000Y-37000000D02*
X52049500Y-37000000D01*
%TO.N,/Sense Circuit/Sense Ch 7/Sense Out 2*%
X62135000Y-28635000D02*
X62831100Y-29331100D01*
X62500000Y-31587500D02*
X60789576Y-31587500D01*
X55650000Y-37650000D02*
X56938000Y-37650000D01*
X62831100Y-29331100D02*
X62831100Y-31256400D01*
X62831100Y-31256400D02*
X62500000Y-31587500D01*
X61775850Y-28635000D02*
X62135000Y-28635000D01*
X54200000Y-36200000D02*
X55650000Y-37650000D01*
X59777076Y-32600000D02*
X54522924Y-32600000D01*
X60789576Y-31587500D02*
X59777076Y-32600000D01*
X54200000Y-32922924D02*
X54200000Y-36200000D01*
X54522924Y-32600000D02*
X54200000Y-32922924D01*
%TO.N,/Sense Circuit/Sense Ch 5/Sense Out 1*%
X52224150Y-29905000D02*
X52224150Y-31363350D01*
X52049500Y-35050000D02*
X51062000Y-35050000D01*
X52800000Y-34299500D02*
X52049500Y-35050000D01*
X52800000Y-32387500D02*
X52800000Y-34299500D01*
X52224150Y-31363350D02*
X52000000Y-31587500D01*
X52000000Y-31587500D02*
X52800000Y-32387500D01*
%TO.N,/Sense Circuit/Sense Ch 8/Sense Out 2*%
X60500000Y-33000000D02*
X60500000Y-33702076D01*
X60900000Y-32600000D02*
X60500000Y-33000000D01*
X58502076Y-35700000D02*
X56938000Y-35700000D01*
X69726700Y-28635000D02*
X70331100Y-29239400D01*
X70000000Y-31587500D02*
X68987500Y-32600000D01*
X60500000Y-33702076D02*
X58502076Y-35700000D01*
X70331100Y-29239400D02*
X70331100Y-31256400D01*
X70331100Y-31256400D02*
X70000000Y-31587500D01*
X69275850Y-28635000D02*
X69726700Y-28635000D01*
X68987500Y-32600000D02*
X60900000Y-32600000D01*
%TO.N,/Sense Circuit/Sense Ch 6/Sense Out 2*%
X52049500Y-37650000D02*
X51062000Y-37650000D01*
X54726700Y-28635000D02*
X55500000Y-29408300D01*
X55500000Y-29408300D02*
X55500000Y-31087500D01*
X53177000Y-36522500D02*
X52049500Y-37650000D01*
X53177000Y-33410500D02*
X53177000Y-36522500D01*
X55500000Y-31087500D02*
X55000000Y-31587500D01*
X54275850Y-28635000D02*
X54726700Y-28635000D01*
X55000000Y-31587500D02*
X53177000Y-33410500D01*
%TO.N,/Sense Circuit/Sense Ch 7/Sense Out 1*%
X56938000Y-38300000D02*
X55200000Y-38300000D01*
X55200000Y-38300000D02*
X55012653Y-38487347D01*
X67224150Y-29905000D02*
X67101441Y-29905000D01*
X67101441Y-29905000D02*
X66419150Y-30587291D01*
X67000000Y-31168141D02*
X66419150Y-30587291D01*
X67000000Y-31587500D02*
X67000000Y-31168141D01*
%TO.N,/Sense Circuit/Sense Ch 5/Sense Out 2*%
X46700000Y-33902076D02*
X48497924Y-35700000D01*
X46700000Y-32387500D02*
X46700000Y-33902076D01*
X47500000Y-31587500D02*
X46700000Y-32387500D01*
X46775850Y-28635000D02*
X47226700Y-28635000D01*
X48200000Y-29608300D02*
X48200000Y-30887500D01*
X48200000Y-30887500D02*
X47500000Y-31587500D01*
X48497924Y-35700000D02*
X51062000Y-35700000D01*
X47226700Y-28635000D02*
X48200000Y-29608300D01*
%TO.N,/Sense Circuit/Sense Ch 8/Sense Out 1*%
X74724150Y-29905000D02*
X74724150Y-31363350D01*
X58683158Y-36350000D02*
X60533158Y-34500000D01*
X56938000Y-36350000D02*
X58683158Y-36350000D01*
X73587500Y-32500000D02*
X74500000Y-31587500D01*
X67620658Y-34500000D02*
X69620658Y-32500000D01*
X60533158Y-34500000D02*
X67620658Y-34500000D01*
X69620658Y-32500000D02*
X73587500Y-32500000D01*
X74724150Y-31363350D02*
X74500000Y-31587500D01*
%TO.N,/IS_LINES.A1*%
X12700000Y-24902076D02*
X13892924Y-26095000D01*
D25*
X13050000Y-15675000D02*
X14725000Y-14000000D01*
D24*
X13087500Y-21000000D02*
X13087500Y-17100000D01*
X13500000Y-22587500D02*
X15000000Y-22587500D01*
X13087500Y-22175000D02*
X13500000Y-22587500D01*
X13892924Y-26095000D02*
X16775850Y-26095000D01*
X13087500Y-17100000D02*
X13050000Y-17062500D01*
X12700000Y-23387500D02*
X12700000Y-24902076D01*
X13087500Y-21000000D02*
X13087500Y-22175000D01*
X13500000Y-22587500D02*
X12700000Y-23387500D01*
D25*
X13050000Y-17062500D02*
X13050000Y-15675000D01*
D24*
%TO.N,/IS_LINES.B1*%
X20000000Y-23500000D02*
X20000000Y-26500000D01*
D25*
X18000000Y-14735000D02*
X17265000Y-14000000D01*
X18000000Y-17062500D02*
X18000000Y-14735000D01*
D24*
X18000000Y-22087500D02*
X17500000Y-22587500D01*
X15412500Y-21000000D02*
X17000000Y-22587500D01*
X18500000Y-22587500D02*
X19087500Y-22587500D01*
X20865000Y-27365000D02*
X22224150Y-27365000D01*
X17500000Y-22587500D02*
X17000000Y-22587500D01*
X18500000Y-22587500D02*
X18000000Y-22087500D01*
X14912500Y-21000000D02*
X15412500Y-21000000D01*
X19087500Y-22587500D02*
X20000000Y-23500000D01*
X20000000Y-26500000D02*
X20865000Y-27365000D01*
X18000000Y-22087500D02*
X18000000Y-17062500D01*
%TO.N,/IS_LINES.B2*%
X25000000Y-22587500D02*
X26000000Y-21587500D01*
X23412500Y-21000000D02*
X25000000Y-22587500D01*
D25*
X26000000Y-17062500D02*
X26000000Y-14735000D01*
D24*
X26500000Y-22587500D02*
X26000000Y-22087500D01*
X26000000Y-20500000D02*
X26000000Y-17062500D01*
X26000000Y-22087500D02*
X26000000Y-20500000D01*
D25*
X26000000Y-14735000D02*
X25265000Y-14000000D01*
D24*
X28597658Y-27365000D02*
X29724150Y-27365000D01*
X26000000Y-21587500D02*
X26000000Y-20500000D01*
X28000000Y-26767342D02*
X28597658Y-27365000D01*
X22912500Y-21000000D02*
X23412500Y-21000000D01*
X28000000Y-24087500D02*
X28000000Y-26767342D01*
X26500000Y-22587500D02*
X28000000Y-24087500D01*
%TO.N,/IS_LINES.A2*%
X20500000Y-23587500D02*
X20500000Y-25983421D01*
D25*
X21050000Y-17062500D02*
X21050000Y-15675000D01*
D24*
X21500000Y-22587500D02*
X20500000Y-23587500D01*
X23610250Y-26760600D02*
X24275850Y-26095000D01*
X21087500Y-21000000D02*
X21087500Y-17100000D01*
X23000000Y-22587500D02*
X21500000Y-22587500D01*
X21087500Y-21000000D02*
X21087500Y-22175000D01*
X20500000Y-25983421D02*
X21277179Y-26760600D01*
D25*
X21050000Y-15675000D02*
X22725000Y-14000000D01*
D24*
X21087500Y-17100000D02*
X21050000Y-17062500D01*
X21277179Y-26760600D02*
X23610250Y-26760600D01*
X21087500Y-22175000D02*
X21500000Y-22587500D01*
%TO.N,/IS_LINES.B3*%
X34000000Y-21587500D02*
X34000000Y-17062500D01*
X35677000Y-23764500D02*
X35677000Y-25058235D01*
X34500000Y-22587500D02*
X34000000Y-22087500D01*
D25*
X34000000Y-14735000D02*
X33265000Y-14000000D01*
X34000000Y-17062500D02*
X34000000Y-14735000D01*
D24*
X35865000Y-27365000D02*
X37224150Y-27365000D01*
X33000000Y-22587500D02*
X34000000Y-21587500D01*
X31412500Y-21000000D02*
X33000000Y-22587500D01*
X35500000Y-27000000D02*
X35865000Y-27365000D01*
X35677000Y-25058235D02*
X35500000Y-25235235D01*
X34500000Y-22587500D02*
X35677000Y-23764500D01*
X35500000Y-25235235D02*
X35500000Y-27000000D01*
X34000000Y-22087500D02*
X34000000Y-17062500D01*
X30912500Y-21000000D02*
X31412500Y-21000000D01*
D25*
%TO.N,/IS_LINES.A3*%
X29050000Y-17062500D02*
X29050000Y-15675000D01*
D24*
X29087500Y-17100000D02*
X29050000Y-17062500D01*
D25*
X29050000Y-15675000D02*
X30725000Y-14000000D01*
D24*
X29500000Y-22587500D02*
X31000000Y-22587500D01*
X31171450Y-26699400D02*
X31775850Y-26095000D01*
X29087500Y-21000000D02*
X29087500Y-17100000D01*
X28500000Y-26500000D02*
X28699400Y-26699400D01*
X29500000Y-22587500D02*
X28500000Y-23587500D01*
X28500000Y-23587500D02*
X28500000Y-26500000D01*
X29087500Y-22175000D02*
X29500000Y-22587500D01*
X28699400Y-26699400D02*
X31171450Y-26699400D01*
X29087500Y-21000000D02*
X29087500Y-22175000D01*
D25*
%TO.N,/IS_LINES.B4*%
X42000000Y-17062500D02*
X42000000Y-14735000D01*
D24*
X42500000Y-22587500D02*
X42000000Y-22087500D01*
X43677000Y-23764500D02*
X43677000Y-25058235D01*
X38912500Y-21000000D02*
X39412500Y-21000000D01*
X42000000Y-22087500D02*
X42000000Y-17062500D01*
X43677000Y-25058235D02*
X43133235Y-25602000D01*
X41000000Y-22587500D02*
X42000000Y-21587500D01*
X42500000Y-22587500D02*
X43677000Y-23764500D01*
X42377000Y-25757196D02*
X42377000Y-26843842D01*
X42532196Y-25602000D02*
X42377000Y-25757196D01*
X42000000Y-21587500D02*
X42000000Y-17062500D01*
X42898158Y-27365000D02*
X44724150Y-27365000D01*
X39412500Y-21000000D02*
X41000000Y-22587500D01*
X42377000Y-26843842D02*
X42898158Y-27365000D01*
D25*
X42000000Y-14735000D02*
X41265000Y-14000000D01*
D24*
X43133235Y-25602000D02*
X42532196Y-25602000D01*
%TO.N,/IS_LINES.A4*%
X37087500Y-21000000D02*
X37087500Y-17100000D01*
X36168900Y-26699400D02*
X38671450Y-26699400D01*
X37087500Y-17100000D02*
X37050000Y-17062500D01*
X37500000Y-22587500D02*
X36168900Y-23918600D01*
X36168900Y-23918600D02*
X36168900Y-26699400D01*
X38671450Y-26699400D02*
X39275850Y-26095000D01*
D25*
X37050000Y-15675000D02*
X38725000Y-14000000D01*
X37050000Y-17062500D02*
X37050000Y-15675000D01*
D24*
X37087500Y-22175000D02*
X37500000Y-22587500D01*
X37500000Y-22587500D02*
X39000000Y-22587500D01*
X37087500Y-21000000D02*
X37087500Y-22175000D01*
%TO.N,/IS_LINES.B5*%
X48500000Y-22587500D02*
X48975000Y-22587500D01*
X50365000Y-27365000D02*
X52224150Y-27365000D01*
X50633235Y-25602000D02*
X50554158Y-25602000D01*
X50000000Y-21000000D02*
X50000000Y-17062500D01*
X50000000Y-27000000D02*
X50365000Y-27365000D01*
X48975000Y-22587500D02*
X50000000Y-21562500D01*
X50554158Y-25602000D02*
X50000000Y-26156158D01*
X50000000Y-22087500D02*
X51177000Y-23264500D01*
X51177000Y-25058235D02*
X50633235Y-25602000D01*
X46912500Y-21000000D02*
X48500000Y-22587500D01*
X51177000Y-23264500D02*
X51177000Y-25058235D01*
D25*
X50000000Y-14735000D02*
X49265000Y-14000000D01*
D24*
X50000000Y-26156158D02*
X50000000Y-27000000D01*
X50000000Y-21562500D02*
X50000000Y-21000000D01*
D25*
X50000000Y-17062500D02*
X50000000Y-14735000D01*
D24*
X50000000Y-21587500D02*
X50000000Y-21000000D01*
X50000000Y-17062500D02*
X50000000Y-22087500D01*
D25*
%TO.N,/IS_LINES.A5*%
X45050000Y-17062500D02*
X45050000Y-15675000D01*
D24*
X44788524Y-25490600D02*
X46171450Y-25490600D01*
X45087500Y-22500000D02*
X45000000Y-22587500D01*
D25*
X45050000Y-15675000D02*
X46725000Y-14000000D01*
D24*
X45087500Y-17100000D02*
X45050000Y-17062500D01*
X44200000Y-21887500D02*
X44200000Y-24902076D01*
X44200000Y-24902076D02*
X44788524Y-25490600D01*
X45000000Y-22587500D02*
X46500000Y-22587500D01*
X45087500Y-21000000D02*
X44200000Y-21887500D01*
X46171450Y-25490600D02*
X46775850Y-26095000D01*
X45087500Y-21000000D02*
X45087500Y-22500000D01*
X45087500Y-21000000D02*
X45087500Y-17100000D01*
%TO.N,/IS_LINES.A6*%
X53087500Y-21675000D02*
X54000000Y-22587500D01*
D25*
X53050000Y-15675000D02*
X54725000Y-14000000D01*
D24*
X52500000Y-22587500D02*
X51700000Y-23387500D01*
X52000000Y-25490600D02*
X53671450Y-25490600D01*
X53087500Y-20587500D02*
X53050000Y-20550000D01*
X53671450Y-25490600D02*
X54275850Y-26095000D01*
X51700000Y-23387500D02*
X51700000Y-25190600D01*
X53087500Y-21000000D02*
X53087500Y-17100000D01*
X51700000Y-25190600D02*
X52000000Y-25490600D01*
X53087500Y-21000000D02*
X53087500Y-21675000D01*
X53087500Y-22000000D02*
X52500000Y-22587500D01*
X53087500Y-21000000D02*
X53087500Y-22000000D01*
X53087500Y-17100000D02*
X53050000Y-17062500D01*
X53087500Y-21000000D02*
X53087500Y-20587500D01*
D25*
X53050000Y-17062500D02*
X53050000Y-15675000D01*
D24*
%TO.N,/IS_LINES.B6*%
X57898158Y-27365000D02*
X59724150Y-27365000D01*
X56000000Y-22087500D02*
X54912500Y-21000000D01*
X58000000Y-22087500D02*
X58000000Y-17062500D01*
X58133235Y-25602000D02*
X57898000Y-25602000D01*
D25*
X58000000Y-14735000D02*
X57265000Y-14000000D01*
D24*
X57898000Y-25602000D02*
X57500000Y-26000000D01*
X59000000Y-23612500D02*
X59000000Y-24735235D01*
X57500000Y-26000000D02*
X57500000Y-26966842D01*
D25*
X58000000Y-17062500D02*
X58000000Y-14735000D01*
D24*
X56000000Y-22587500D02*
X56000000Y-22087500D01*
X57500000Y-22587500D02*
X58000000Y-22087500D01*
X57500000Y-22587500D02*
X57975000Y-22587500D01*
X59000000Y-24735235D02*
X58133235Y-25602000D01*
X57500000Y-22587500D02*
X56000000Y-22587500D01*
X57500000Y-26966842D02*
X57898158Y-27365000D01*
X57975000Y-22587500D02*
X59000000Y-23612500D01*
%TO.N,/IS_LINES.A7*%
X61087500Y-21675000D02*
X62000000Y-22587500D01*
D25*
X61050000Y-17062500D02*
X61050000Y-15675000D01*
D24*
X59500000Y-25101038D02*
X59889562Y-25490600D01*
X61171450Y-25490600D02*
X61775850Y-26095000D01*
X60500000Y-22587500D02*
X59500000Y-23587500D01*
X61087500Y-22000000D02*
X60500000Y-22587500D01*
X61087500Y-21000000D02*
X61087500Y-21675000D01*
X59500000Y-23587500D02*
X59500000Y-25101038D01*
X61087500Y-17100000D02*
X61050000Y-17062500D01*
X61087500Y-21000000D02*
X61087500Y-22000000D01*
D25*
X61050000Y-15675000D02*
X62725000Y-14000000D01*
D24*
X61087500Y-21000000D02*
X61087500Y-17100000D01*
X59889562Y-25490600D02*
X61171450Y-25490600D01*
%TO.N,/IS_LINES.B7*%
X66000000Y-22087500D02*
X65500000Y-22587500D01*
X65000000Y-26666727D02*
X65698273Y-27365000D01*
D25*
X66000000Y-14735000D02*
X65265000Y-14000000D01*
D24*
X65000000Y-22589765D02*
X66177000Y-23766765D01*
X65500000Y-22587500D02*
X65000000Y-22587500D01*
X65698273Y-27365000D02*
X67224150Y-27365000D01*
X66177000Y-25058235D02*
X65633235Y-25602000D01*
X65633235Y-25602000D02*
X65515618Y-25602000D01*
D25*
X66000000Y-17062500D02*
X66000000Y-14735000D01*
D24*
X65000000Y-26117618D02*
X65000000Y-26666727D01*
X63500000Y-21587500D02*
X62912500Y-21000000D01*
X65000000Y-22587500D02*
X63500000Y-22587500D01*
X65000000Y-22587500D02*
X65000000Y-22589765D01*
X66177000Y-23766765D02*
X66177000Y-25058235D01*
X66000000Y-22087500D02*
X66000000Y-17062500D01*
X63500000Y-22587500D02*
X63500000Y-21587500D01*
X65515618Y-25602000D02*
X65000000Y-26117618D01*
D25*
%TO.N,/IS_LINES.B8*%
X74000000Y-17062500D02*
X74000000Y-14735000D01*
D24*
X73585729Y-26677429D02*
X74273300Y-27365000D01*
X74273300Y-27365000D02*
X74724150Y-27365000D01*
X73677000Y-25058235D02*
X73585729Y-25149506D01*
X72975000Y-22587500D02*
X74000000Y-21562500D01*
X72500000Y-22587500D02*
X72500000Y-22589765D01*
X72500000Y-22589765D02*
X73677000Y-23766765D01*
X73677000Y-23766765D02*
X73677000Y-25058235D01*
X72500000Y-22587500D02*
X72975000Y-22587500D01*
X74000000Y-21562500D02*
X74000000Y-17062500D01*
X70912500Y-22500000D02*
X71000000Y-22587500D01*
X71000000Y-22587500D02*
X72500000Y-22587500D01*
D25*
X74000000Y-14735000D02*
X73265000Y-14000000D01*
D24*
X73585729Y-25149506D02*
X73585729Y-26677429D01*
X70912500Y-21000000D02*
X70912500Y-22500000D01*
%TO.N,/IS_LINES.A8*%
X69087500Y-21000000D02*
X69087500Y-17100000D01*
X68000000Y-22587500D02*
X67000000Y-23587500D01*
X67000000Y-24702076D02*
X67522924Y-25225000D01*
X67522924Y-25225000D02*
X68405850Y-25225000D01*
X69087500Y-21000000D02*
X69087500Y-21500000D01*
X69087500Y-22175000D02*
X69500000Y-22587500D01*
X67000000Y-23587500D02*
X67000000Y-24702076D01*
X69087500Y-21500000D02*
X68000000Y-22587500D01*
D25*
X69050000Y-17062500D02*
X69050000Y-15675000D01*
D24*
X69087500Y-17100000D02*
X69050000Y-17062500D01*
D25*
X69050000Y-15675000D02*
X70725000Y-14000000D01*
D24*
X69087500Y-21000000D02*
X69087500Y-22175000D01*
X68405850Y-25225000D02*
X69275850Y-26095000D01*
%TO.N,Net-(Q1-G)*%
X14950000Y-17062500D02*
X14950000Y-18862500D01*
X15000000Y-17112500D02*
X14950000Y-17062500D01*
X14950000Y-18862500D02*
X17087500Y-21000000D01*
%TO.N,Net-(Q2-G)*%
X22950000Y-18862500D02*
X22950000Y-17062500D01*
X25087500Y-21000000D02*
X22950000Y-18862500D01*
X23000000Y-17112500D02*
X22950000Y-17062500D01*
%TO.N,Net-(Q3-G)*%
X31000000Y-17112500D02*
X30950000Y-17062500D01*
X30950000Y-18862500D02*
X33087500Y-21000000D01*
X30950000Y-17062500D02*
X30950000Y-18862500D01*
%TO.N,Net-(Q4-G)*%
X38950000Y-18862500D02*
X41087500Y-21000000D01*
X38950000Y-17062500D02*
X38950000Y-18862500D01*
X39000000Y-17112500D02*
X38950000Y-17062500D01*
%TO.N,Net-(Q5-G)*%
X46950000Y-18862500D02*
X49087500Y-21000000D01*
X47000000Y-17112500D02*
X46950000Y-17062500D01*
X46950000Y-17062500D02*
X46950000Y-18862500D01*
%TO.N,Net-(Q6-G)*%
X55000000Y-17112500D02*
X54950000Y-17062500D01*
X54950000Y-17062500D02*
X54950000Y-18862500D01*
X54950000Y-18862500D02*
X57087500Y-21000000D01*
%TO.N,Net-(Q7-G)*%
X63000000Y-17112500D02*
X62950000Y-17062500D01*
X62950000Y-18862500D02*
X62950000Y-17062500D01*
X65087500Y-21000000D02*
X62950000Y-18862500D01*
%TO.N,Net-(Q8-G)*%
X70950000Y-17062500D02*
X70950000Y-18862500D01*
X71000000Y-17112500D02*
X70950000Y-17062500D01*
X70950000Y-18862500D02*
X73087500Y-21000000D01*
%TO.N,Net-(Q10-G)*%
X56437500Y-18937500D02*
X56000000Y-18500000D01*
X16437500Y-18937500D02*
X16000000Y-18500000D01*
X40437500Y-18937500D02*
X40000000Y-18500000D01*
X33050000Y-18937500D02*
X32437500Y-18937500D01*
X64437500Y-18937500D02*
X64000000Y-18500000D01*
X49050000Y-18937500D02*
X48437500Y-18937500D01*
X41050000Y-18937500D02*
X40437500Y-18937500D01*
X25050000Y-18937500D02*
X24437500Y-18937500D01*
X57050000Y-18937500D02*
X56437500Y-18937500D01*
X32437500Y-18937500D02*
X32000000Y-18500000D01*
X24437500Y-18937500D02*
X24000000Y-18500000D01*
X65050000Y-18937500D02*
X64437500Y-18937500D01*
X72437500Y-18937500D02*
X72000000Y-18500000D01*
X62000000Y-40500000D02*
X62500000Y-40500000D01*
X48437500Y-18937500D02*
X48000000Y-18500000D01*
X73050000Y-18937500D02*
X72437500Y-18937500D01*
X17050000Y-18937500D02*
X16437500Y-18937500D01*
X62500000Y-40500000D02*
X63500000Y-41500000D01*
%TO.N,Net-(U1B--)*%
X18500000Y-26091700D02*
X17226700Y-27365000D01*
X17226700Y-27365000D02*
X19000000Y-29138300D01*
X19000000Y-29138300D02*
X19000000Y-31587500D01*
X18500000Y-24412500D02*
X18500000Y-26091700D01*
X17226700Y-27365000D02*
X16775850Y-27365000D01*
%TO.N,Net-(U1A--)*%
X22224150Y-28635000D02*
X21773300Y-28635000D01*
X18977076Y-23600000D02*
X19500000Y-24122924D01*
X14312500Y-23600000D02*
X18977076Y-23600000D01*
X21601842Y-28635000D02*
X22224150Y-28635000D01*
X21773300Y-28635000D02*
X20500000Y-29908300D01*
X20500000Y-29908300D02*
X20500000Y-31587500D01*
X13500000Y-24412500D02*
X14312500Y-23600000D01*
X19500000Y-24122924D02*
X19500000Y-26533158D01*
X19500000Y-26533158D02*
X21601842Y-28635000D01*
%TO.N,Net-(U2B--)*%
X26500000Y-25591700D02*
X24726700Y-27365000D01*
X26500000Y-29138300D02*
X24726700Y-27365000D01*
X26500000Y-31587500D02*
X26500000Y-29138300D01*
X24726700Y-27365000D02*
X24275850Y-27365000D01*
X26500000Y-24412500D02*
X26500000Y-25591700D01*
%TO.N,Net-(U2A--)*%
X28000000Y-31587500D02*
X28000000Y-29908300D01*
X26977076Y-23600000D02*
X27500000Y-24122924D01*
X22312500Y-23600000D02*
X26977076Y-23600000D01*
X28000000Y-29908300D02*
X29273300Y-28635000D01*
X29273300Y-28635000D02*
X29724150Y-28635000D01*
X28635000Y-28635000D02*
X29724150Y-28635000D01*
X27500000Y-24122924D02*
X27500000Y-27500000D01*
X21500000Y-24412500D02*
X22312500Y-23600000D01*
X27500000Y-27500000D02*
X28635000Y-28635000D01*
%TO.N,Net-(U3B--)*%
X34500000Y-25091700D02*
X32226700Y-27365000D01*
X32226700Y-27365000D02*
X33500000Y-28638300D01*
X34500000Y-24412500D02*
X34500000Y-25091700D01*
X33500000Y-28638300D02*
X33500000Y-31587500D01*
X31775850Y-27365000D02*
X32226700Y-27365000D01*
%TO.N,Net-(U3A--)*%
X36135000Y-28635000D02*
X37224150Y-28635000D01*
X35300000Y-23922924D02*
X35300000Y-24902076D01*
X35000000Y-30408300D02*
X35000000Y-31587500D01*
X35000000Y-27500000D02*
X36135000Y-28635000D01*
X34977076Y-23600000D02*
X35300000Y-23922924D01*
X35300000Y-24902076D02*
X35000000Y-25202076D01*
X36773300Y-28635000D02*
X35000000Y-30408300D01*
X30312500Y-23600000D02*
X34977076Y-23600000D01*
X35000000Y-25202076D02*
X35000000Y-27500000D01*
X37224150Y-28635000D02*
X36773300Y-28635000D01*
X29500000Y-24412500D02*
X30312500Y-23600000D01*
%TO.N,Net-(U4B--)*%
X40911993Y-28551307D02*
X40911993Y-31678031D01*
X39547500Y-27365000D02*
X39275850Y-27365000D01*
X39275850Y-27365000D02*
X39726700Y-27365000D01*
X42500000Y-24412500D02*
X39547500Y-27365000D01*
X40912500Y-28550800D02*
X40911993Y-28551307D01*
X39726700Y-27365000D02*
X40912500Y-28550800D01*
%TO.N,Net-(U4A--)*%
X42977076Y-23600000D02*
X43300000Y-23922924D01*
X37500000Y-24412500D02*
X38312500Y-23600000D01*
X42977076Y-25225000D02*
X42376038Y-25225000D01*
X44724150Y-28635000D02*
X44273300Y-28635000D01*
X44273300Y-28635000D02*
X42587500Y-30320800D01*
X38312500Y-23600000D02*
X42977076Y-23600000D01*
X43300000Y-23922924D02*
X43300000Y-24902076D01*
X42587500Y-30320800D02*
X42587500Y-32000000D01*
X42000000Y-25601038D02*
X42000000Y-27000000D01*
X42000000Y-27000000D02*
X43635000Y-28635000D01*
X42376038Y-25225000D02*
X42000000Y-25601038D01*
X43635000Y-28635000D02*
X44724150Y-28635000D01*
X43300000Y-24902076D02*
X42977076Y-25225000D01*
%TO.N,Net-(U5B--)*%
X47226700Y-27365000D02*
X49000000Y-29138300D01*
X49000000Y-29138300D02*
X49000000Y-31587500D01*
X50000000Y-24412500D02*
X47047500Y-27365000D01*
X46775850Y-27365000D02*
X47226700Y-27365000D01*
X47047500Y-27365000D02*
X46775850Y-27365000D01*
%TO.N,Net-(U5A--)*%
X50800000Y-23922924D02*
X50800000Y-24902076D01*
X51773300Y-28635000D02*
X50500000Y-29908300D01*
X45000000Y-24412500D02*
X45812500Y-23600000D01*
X49500000Y-26000000D02*
X49500000Y-28000000D01*
X50477076Y-23600000D02*
X50800000Y-23922924D01*
X49500000Y-28000000D02*
X50135000Y-28635000D01*
X50500000Y-29908300D02*
X50500000Y-31587500D01*
X50800000Y-24902076D02*
X50477076Y-25225000D01*
X52224150Y-28635000D02*
X51773300Y-28635000D01*
X50275000Y-25225000D02*
X49500000Y-26000000D01*
X50135000Y-28635000D02*
X51773300Y-28635000D01*
X50477076Y-25225000D02*
X50275000Y-25225000D01*
X45812500Y-23600000D02*
X50477076Y-23600000D01*
%TO.N,Net-(U6B--)*%
X54275850Y-27365000D02*
X54726700Y-27365000D01*
X57500000Y-24412500D02*
X54547500Y-27365000D01*
X56500000Y-29138300D02*
X56500000Y-31587500D01*
X54726700Y-27365000D02*
X56500000Y-29138300D01*
X54547500Y-27365000D02*
X54275850Y-27365000D01*
%TO.N,Net-(U6A--)*%
X58000000Y-31587500D02*
X58000000Y-29908300D01*
X58635000Y-28635000D02*
X59724150Y-28635000D01*
X57977076Y-25225000D02*
X57741842Y-25225000D01*
X58000000Y-29908300D02*
X59273300Y-28635000D01*
X58300000Y-23922924D02*
X58300000Y-24902076D01*
X57000000Y-25966842D02*
X57000000Y-27000000D01*
X57000000Y-27000000D02*
X58635000Y-28635000D01*
X57877076Y-23500000D02*
X58300000Y-23922924D01*
X59273300Y-28635000D02*
X59724150Y-28635000D01*
X58300000Y-24902076D02*
X57977076Y-25225000D01*
X52500000Y-24412500D02*
X53412500Y-23500000D01*
X53412500Y-23500000D02*
X57877076Y-23500000D01*
X57741842Y-25225000D02*
X57000000Y-25966842D01*
%TO.N,Net-(U7B--)*%
X65000000Y-24412500D02*
X62047500Y-27365000D01*
X62047500Y-27365000D02*
X61775850Y-27365000D01*
X62226700Y-27365000D02*
X61775850Y-27365000D01*
X64000000Y-29138300D02*
X62226700Y-27365000D01*
X64000000Y-31587500D02*
X64000000Y-29138300D01*
%TO.N,Net-(U7A--)*%
X61412500Y-23500000D02*
X65377076Y-23500000D01*
X65377076Y-23500000D02*
X65800000Y-23922924D01*
X60500000Y-24412500D02*
X61412500Y-23500000D01*
X66135000Y-28635000D02*
X67224150Y-28635000D01*
X66365000Y-28635000D02*
X67224150Y-28635000D01*
X65275000Y-25225000D02*
X64500000Y-26000000D01*
X65800000Y-24902076D02*
X65477076Y-25225000D01*
X65500000Y-31587500D02*
X65500000Y-29500000D01*
X65500000Y-29500000D02*
X66365000Y-28635000D01*
X64500000Y-27000000D02*
X66135000Y-28635000D01*
X65477076Y-25225000D02*
X65275000Y-25225000D01*
X65800000Y-23922924D02*
X65800000Y-24902076D01*
X64500000Y-26000000D02*
X64500000Y-27000000D01*
%TO.N,Net-(U8B--)*%
X69547500Y-27365000D02*
X69275850Y-27365000D01*
X72500000Y-24412500D02*
X69547500Y-27365000D01*
X69726700Y-27365000D02*
X71500000Y-29138300D01*
X71500000Y-29138300D02*
X71500000Y-31587500D01*
X69275850Y-27365000D02*
X69726700Y-27365000D01*
%TO.N,Net-(U8A--)*%
X72977076Y-23600000D02*
X73300000Y-23922924D01*
X73300000Y-24902076D02*
X73000000Y-25202076D01*
X74334500Y-28635000D02*
X74724150Y-28635000D01*
X73000000Y-25202076D02*
X73000000Y-27361700D01*
X73300000Y-23922924D02*
X73300000Y-24902076D01*
X73000000Y-31587500D02*
X73000000Y-29969500D01*
X73000000Y-29969500D02*
X74334500Y-28635000D01*
X73000000Y-27361700D02*
X74273300Y-28635000D01*
X74273300Y-28635000D02*
X74724150Y-28635000D01*
X68812500Y-23600000D02*
X72977076Y-23600000D01*
X68000000Y-24412500D02*
X68812500Y-23600000D01*
%TO.N,/RST*%
X16595000Y-39000000D02*
X16595000Y-41825000D01*
X15325000Y-36175000D02*
X15325000Y-37730000D01*
X20405000Y-36700000D02*
X18105000Y-39000000D01*
X66325000Y-36175000D02*
X66325000Y-37437347D01*
X67595000Y-42350000D02*
X67595000Y-41825000D01*
X18105000Y-39000000D02*
X16595000Y-39000000D01*
X72675000Y-42430000D02*
X72080000Y-43025000D01*
X66325000Y-37437347D02*
X65987347Y-37775000D01*
X72080000Y-43025000D02*
X68270000Y-43025000D01*
X72675000Y-39675000D02*
X72675000Y-41825000D01*
X72675000Y-41825000D02*
X72675000Y-42430000D01*
X15325000Y-37730000D02*
X16595000Y-39000000D01*
X72000000Y-39000000D02*
X72675000Y-39675000D01*
X21675000Y-41825000D02*
X21675000Y-41055306D01*
X68270000Y-43025000D02*
X67595000Y-42350000D01*
X20405000Y-36175000D02*
X20405000Y-36700000D01*
X71405000Y-38405000D02*
X72000000Y-39000000D01*
X21675000Y-41055306D02*
X22365153Y-40365153D01*
X71405000Y-36175000D02*
X71405000Y-38405000D01*
%TO.N,/Read Out*%
X19135000Y-41189438D02*
X20286720Y-40037718D01*
X70135000Y-40483000D02*
X70000000Y-40348000D01*
X70135000Y-41825000D02*
X70135000Y-40483000D01*
X19135000Y-41825000D02*
X19135000Y-41189438D01*
%TO.N,/Inhibit Circuit/INHIBIT_DATA8*%
X41625000Y-34875000D02*
X39562000Y-34875000D01*
X74043903Y-22543903D02*
X74912500Y-21675306D01*
X74912500Y-21675306D02*
X74912500Y-21000000D01*
%TO.N,/Inhibit Circuit/INHIBIT_DATA1*%
X45438000Y-34875000D02*
X43125000Y-34875000D01*
X43125000Y-34875000D02*
X43000000Y-35000000D01*
X18912500Y-21000000D02*
X18912500Y-21180592D01*
X18912500Y-21180592D02*
X20107034Y-22375126D01*
%TO.N,/Inhibit Circuit/INHIBIT_DATA6*%
X41000000Y-37475000D02*
X39562000Y-37475000D01*
X58912500Y-22282398D02*
X59052762Y-22422660D01*
X58912500Y-21000000D02*
X58912500Y-22282398D01*
%TO.N,/Inhibit Circuit/INHIBIT_DATA4*%
X44450500Y-38775000D02*
X44000000Y-39225500D01*
X42912500Y-21000000D02*
X42912500Y-21333596D01*
X42912500Y-21333596D02*
X43398288Y-21819384D01*
X44000000Y-39225500D02*
X44000000Y-39500000D01*
X45438000Y-38775000D02*
X44450500Y-38775000D01*
%TO.N,/Inhibit Circuit/INHIBIT_DATA5*%
X50912500Y-21000000D02*
X50912500Y-21944385D01*
X40775000Y-39000500D02*
X40775000Y-40015922D01*
X50912500Y-21944385D02*
X51270427Y-22302312D01*
X39562000Y-38775000D02*
X40549500Y-38775000D01*
X40549500Y-38775000D02*
X40775000Y-39000500D01*
%TO.N,/Inhibit Circuit/INHIBIT_DATA7*%
X66912500Y-22358240D02*
X66557867Y-22712873D01*
X41500000Y-36175000D02*
X39562000Y-36175000D01*
X66912500Y-21000000D02*
X66912500Y-22358240D01*
%TO.N,/Inhibit Circuit/INHIBIT_DATA3*%
X44525000Y-37475000D02*
X44000000Y-38000000D01*
X34912500Y-21000000D02*
X34912500Y-21412500D01*
X45438000Y-37475000D02*
X44525000Y-37475000D01*
X34912500Y-21412500D02*
X36000000Y-22500000D01*
%TO.N,/Inhibit Circuit/INHIBIT_DATA2*%
X45438000Y-36175000D02*
X43825000Y-36175000D01*
X26912500Y-21000000D02*
X26912500Y-21412500D01*
X43825000Y-36175000D02*
X43500000Y-36500000D01*
X26912500Y-21412500D02*
X28000000Y-22500000D01*
%TO.N,/Inhibit EN*%
X59280000Y-42000000D02*
X61675000Y-42000000D01*
X61675000Y-42000000D02*
X62000000Y-42325000D01*
%TD*%
%TA.AperFunction,Conductor*%
%TO.N,GND*%
G36*
X15536039Y-26740185D02*
G01*
X15581794Y-26792989D01*
X15591738Y-26862147D01*
X15585182Y-26887832D01*
X15551510Y-26978111D01*
X15551509Y-26978115D01*
X15551509Y-26978117D01*
X15545100Y-27037727D01*
X15545100Y-27037734D01*
X15545100Y-27037735D01*
X15545100Y-27692270D01*
X15545101Y-27692276D01*
X15551508Y-27751883D01*
X15601802Y-27886728D01*
X15601803Y-27886730D01*
X15630968Y-27925690D01*
X15655384Y-27991155D01*
X15640532Y-28059428D01*
X15630968Y-28074310D01*
X15601803Y-28113269D01*
X15601802Y-28113271D01*
X15551510Y-28248113D01*
X15551509Y-28248117D01*
X15545100Y-28307727D01*
X15545100Y-28307734D01*
X15545100Y-28307735D01*
X15545100Y-28962270D01*
X15545101Y-28962276D01*
X15551508Y-29021883D01*
X15601802Y-29156728D01*
X15601803Y-29156730D01*
X15630968Y-29195690D01*
X15655384Y-29261155D01*
X15640532Y-29329428D01*
X15630968Y-29344310D01*
X15601803Y-29383269D01*
X15601802Y-29383271D01*
X15551510Y-29518113D01*
X15551509Y-29518117D01*
X15545100Y-29577727D01*
X15545100Y-29577734D01*
X15545100Y-29577735D01*
X15545100Y-30232270D01*
X15545101Y-30232276D01*
X15551508Y-30291883D01*
X15601802Y-30426728D01*
X15601803Y-30426729D01*
X15601804Y-30426731D01*
X15688054Y-30541946D01*
X15699810Y-30550746D01*
X15741681Y-30606678D01*
X15749500Y-30650013D01*
X15749500Y-31793021D01*
X15729815Y-31860060D01*
X15721353Y-31871686D01*
X15664091Y-31941460D01*
X15664086Y-31941467D01*
X15571188Y-32115266D01*
X15513975Y-32303870D01*
X15505127Y-32393700D01*
X15478965Y-32458487D01*
X15469405Y-32469225D01*
X13422050Y-34516581D01*
X13422044Y-34516589D01*
X13377703Y-34582950D01*
X13377704Y-34582951D01*
X13339916Y-34639505D01*
X13339914Y-34639506D01*
X13283343Y-34776082D01*
X13283340Y-34776091D01*
X13256748Y-34909775D01*
X13234398Y-34959892D01*
X13161206Y-35057664D01*
X13161202Y-35057671D01*
X13110908Y-35192517D01*
X13105724Y-35240741D01*
X13104501Y-35252123D01*
X13104500Y-35252135D01*
X13104501Y-37097868D01*
X13104501Y-37097872D01*
X13110908Y-37157483D01*
X13161202Y-37292328D01*
X13161206Y-37292335D01*
X13247452Y-37407544D01*
X13247455Y-37407547D01*
X13362664Y-37493793D01*
X13362671Y-37493797D01*
X13497517Y-37544091D01*
X13497516Y-37544091D01*
X13504444Y-37544835D01*
X13557127Y-37550500D01*
X14452872Y-37550499D01*
X14512483Y-37544091D01*
X14532165Y-37536749D01*
X14601856Y-37531764D01*
X14663180Y-37565249D01*
X14696666Y-37626571D01*
X14699500Y-37652931D01*
X14699500Y-37668393D01*
X14699500Y-37791607D01*
X14699500Y-37791609D01*
X14699499Y-37791609D01*
X14707624Y-37832450D01*
X14707624Y-37832452D01*
X14723535Y-37912443D01*
X14723537Y-37912452D01*
X14734282Y-37938393D01*
X14770688Y-38026286D01*
X14770689Y-38026288D01*
X14772277Y-38028664D01*
X14795116Y-38062844D01*
X14795117Y-38062847D01*
X14795118Y-38062847D01*
X14839141Y-38128732D01*
X14839144Y-38128736D01*
X14930586Y-38220178D01*
X14930608Y-38220198D01*
X15656038Y-38945628D01*
X15689523Y-39006951D01*
X15691678Y-39020347D01*
X15698207Y-39082460D01*
X15709326Y-39188256D01*
X15709327Y-39188259D01*
X15767818Y-39368277D01*
X15767821Y-39368284D01*
X15862467Y-39532216D01*
X15896738Y-39570277D01*
X15937650Y-39615715D01*
X15967880Y-39678706D01*
X15969500Y-39698687D01*
X15969500Y-40347068D01*
X15949815Y-40414107D01*
X15897011Y-40459862D01*
X15827853Y-40469806D01*
X15802169Y-40463251D01*
X15782481Y-40455908D01*
X15782483Y-40455908D01*
X15722883Y-40449501D01*
X15722881Y-40449500D01*
X15722873Y-40449500D01*
X15722864Y-40449500D01*
X14927129Y-40449500D01*
X14927123Y-40449501D01*
X14867515Y-40455909D01*
X14733332Y-40505955D01*
X14663640Y-40510939D01*
X14646668Y-40505955D01*
X14512485Y-40455909D01*
X14512483Y-40455908D01*
X14452883Y-40449501D01*
X14452881Y-40449500D01*
X14452873Y-40449500D01*
X14452864Y-40449500D01*
X13557129Y-40449500D01*
X13557123Y-40449501D01*
X13497516Y-40455908D01*
X13362671Y-40506202D01*
X13362664Y-40506206D01*
X13247455Y-40592452D01*
X13247452Y-40592455D01*
X13161206Y-40707664D01*
X13161202Y-40707671D01*
X13110908Y-40842517D01*
X13104501Y-40902116D01*
X13104500Y-40902135D01*
X13104500Y-42747870D01*
X13104501Y-42747876D01*
X13110908Y-42807483D01*
X13161202Y-42942328D01*
X13161206Y-42942335D01*
X13247452Y-43057544D01*
X13247455Y-43057547D01*
X13362664Y-43143793D01*
X13362671Y-43143797D01*
X13363331Y-43144043D01*
X13497517Y-43194091D01*
X13557127Y-43200500D01*
X13969547Y-43200499D01*
X14036586Y-43220183D01*
X14057228Y-43236818D01*
X14608729Y-43788319D01*
X14642214Y-43849642D01*
X14637230Y-43919334D01*
X14595358Y-43975267D01*
X14529894Y-43999684D01*
X14521048Y-44000000D01*
X12124000Y-44000000D01*
X12056961Y-43980315D01*
X12011206Y-43927511D01*
X12000000Y-43876000D01*
X12000000Y-30801939D01*
X12019685Y-30734900D01*
X12072489Y-30689145D01*
X12141647Y-30679201D01*
X12205203Y-30708226D01*
X12236382Y-30749534D01*
X12326399Y-30942578D01*
X12461894Y-31136082D01*
X12628917Y-31303105D01*
X12822421Y-31438600D01*
X13036507Y-31538429D01*
X13036516Y-31538433D01*
X13250000Y-31595634D01*
X13250000Y-30698012D01*
X13307007Y-30730925D01*
X13434174Y-30765000D01*
X13565826Y-30765000D01*
X13692993Y-30730925D01*
X13750000Y-30698012D01*
X13750000Y-31595633D01*
X13963483Y-31538433D01*
X13963492Y-31538429D01*
X14177578Y-31438600D01*
X14371082Y-31303105D01*
X14538105Y-31136082D01*
X14673600Y-30942578D01*
X14773429Y-30728492D01*
X14773432Y-30728486D01*
X14830636Y-30515000D01*
X13933012Y-30515000D01*
X13965925Y-30457993D01*
X14000000Y-30330826D01*
X14000000Y-30199174D01*
X13965925Y-30072007D01*
X13933012Y-30015000D01*
X14830636Y-30015000D01*
X14830635Y-30014999D01*
X14773432Y-29801513D01*
X14773429Y-29801507D01*
X14673600Y-29587422D01*
X14673599Y-29587420D01*
X14538113Y-29393926D01*
X14538108Y-29393920D01*
X14416053Y-29271865D01*
X14382568Y-29210542D01*
X14387552Y-29140850D01*
X14429424Y-29084917D01*
X14460400Y-29068002D01*
X14549847Y-29034641D01*
X14592326Y-29018798D01*
X14592326Y-29018797D01*
X14592331Y-29018796D01*
X14707546Y-28932546D01*
X14793796Y-28817331D01*
X14844091Y-28682483D01*
X14850500Y-28622873D01*
X14850499Y-26844499D01*
X14870184Y-26777461D01*
X14922987Y-26731706D01*
X14974499Y-26720500D01*
X15469000Y-26720500D01*
X15536039Y-26740185D01*
G37*
%TD.AperFunction*%
%TA.AperFunction,Conductor*%
G36*
X75935425Y-30540057D02*
G01*
X75984831Y-30589462D01*
X76000000Y-30648890D01*
X76000000Y-43876000D01*
X75980315Y-43943039D01*
X75927511Y-43988794D01*
X75876000Y-44000000D01*
X65858951Y-44000000D01*
X65791912Y-43980315D01*
X65746157Y-43927511D01*
X65736213Y-43858353D01*
X65765238Y-43794797D01*
X65771270Y-43788319D01*
X65980277Y-43579313D01*
X66322772Y-43236818D01*
X66384095Y-43203333D01*
X66410453Y-43200499D01*
X66722871Y-43200499D01*
X66722872Y-43200499D01*
X66782483Y-43194091D01*
X66916669Y-43144042D01*
X66986358Y-43139059D01*
X67003321Y-43144039D01*
X67123609Y-43188903D01*
X67137511Y-43194089D01*
X67137517Y-43194091D01*
X67197127Y-43200500D01*
X67509547Y-43200499D01*
X67576586Y-43220183D01*
X67597228Y-43236818D01*
X67781016Y-43420606D01*
X67781045Y-43420637D01*
X67871264Y-43510856D01*
X67871267Y-43510858D01*
X67922490Y-43545084D01*
X67973714Y-43579312D01*
X68054207Y-43612652D01*
X68087548Y-43626463D01*
X68105554Y-43630044D01*
X68138500Y-43636598D01*
X68138520Y-43636601D01*
X68138542Y-43636606D01*
X68208391Y-43650499D01*
X68208392Y-43650500D01*
X68208393Y-43650500D01*
X72141608Y-43650500D01*
X72141608Y-43650499D01*
X72211458Y-43636606D01*
X72211459Y-43636606D01*
X72228770Y-43633162D01*
X72262452Y-43626463D01*
X72295792Y-43612652D01*
X72376286Y-43579312D01*
X72427509Y-43545084D01*
X72427511Y-43545083D01*
X72440271Y-43536556D01*
X72478733Y-43510858D01*
X72565858Y-43423733D01*
X72565859Y-43423731D01*
X72572925Y-43416665D01*
X72572928Y-43416661D01*
X72752771Y-43236818D01*
X72814094Y-43203333D01*
X72840452Y-43200499D01*
X73072871Y-43200499D01*
X73072872Y-43200499D01*
X73132483Y-43194091D01*
X73267331Y-43143796D01*
X73267334Y-43143793D01*
X73267381Y-43143776D01*
X73337073Y-43138792D01*
X73354049Y-43143776D01*
X73487623Y-43193597D01*
X73487627Y-43193598D01*
X73547155Y-43199999D01*
X73547172Y-43200000D01*
X73745000Y-43200000D01*
X74245000Y-43200000D01*
X74442828Y-43200000D01*
X74442844Y-43199999D01*
X74502372Y-43193598D01*
X74502379Y-43193596D01*
X74637086Y-43143354D01*
X74637093Y-43143350D01*
X74752187Y-43057190D01*
X74752190Y-43057187D01*
X74838350Y-42942093D01*
X74838354Y-42942086D01*
X74888596Y-42807379D01*
X74888598Y-42807372D01*
X74894999Y-42747844D01*
X74895000Y-42747827D01*
X74895000Y-42075000D01*
X74245000Y-42075000D01*
X74245000Y-43200000D01*
X73745000Y-43200000D01*
X73745000Y-41575000D01*
X74245000Y-41575000D01*
X74895000Y-41575000D01*
X74895000Y-40902172D01*
X74894999Y-40902155D01*
X74888598Y-40842627D01*
X74888596Y-40842620D01*
X74838354Y-40707913D01*
X74838350Y-40707906D01*
X74752190Y-40592812D01*
X74752187Y-40592809D01*
X74637093Y-40506649D01*
X74637086Y-40506645D01*
X74502379Y-40456403D01*
X74502372Y-40456401D01*
X74442844Y-40450000D01*
X74245000Y-40450000D01*
X74245000Y-41575000D01*
X73745000Y-41575000D01*
X73745000Y-40450000D01*
X73547155Y-40450000D01*
X73487627Y-40456401D01*
X73487616Y-40456404D01*
X73467832Y-40463783D01*
X73398140Y-40468767D01*
X73336817Y-40435281D01*
X73303333Y-40373957D01*
X73300500Y-40347601D01*
X73300500Y-39613393D01*
X73300499Y-39613389D01*
X73291924Y-39570277D01*
X73276463Y-39492548D01*
X73258238Y-39448549D01*
X73256269Y-39443796D01*
X73229314Y-39378718D01*
X73229312Y-39378715D01*
X73229312Y-39378714D01*
X73187144Y-39315607D01*
X73160858Y-39276267D01*
X73160855Y-39276263D01*
X73070637Y-39186045D01*
X73070606Y-39186016D01*
X72996771Y-39112181D01*
X72963286Y-39050858D01*
X72968270Y-38981166D01*
X73010142Y-38925233D01*
X73075606Y-38900816D01*
X73084452Y-38900500D01*
X73094644Y-38900500D01*
X73094646Y-38900500D01*
X73279803Y-38861144D01*
X73452730Y-38784151D01*
X73605871Y-38672888D01*
X73657851Y-38615158D01*
X73717336Y-38578510D01*
X73787193Y-38579840D01*
X73842148Y-38615158D01*
X73887102Y-38665084D01*
X73894129Y-38672888D01*
X74047265Y-38784148D01*
X74047270Y-38784151D01*
X74220192Y-38861142D01*
X74220197Y-38861144D01*
X74405354Y-38900500D01*
X74405355Y-38900500D01*
X74594644Y-38900500D01*
X74594646Y-38900500D01*
X74779803Y-38861144D01*
X74952730Y-38784151D01*
X75105871Y-38672888D01*
X75232533Y-38532216D01*
X75327179Y-38368284D01*
X75385674Y-38188256D01*
X75405460Y-38000000D01*
X75385674Y-37811744D01*
X75327179Y-37631716D01*
X75232533Y-37467784D01*
X75105871Y-37327112D01*
X75105870Y-37327111D01*
X74947473Y-37212029D01*
X74948968Y-37209970D01*
X74908616Y-37167665D01*
X74895794Y-37101206D01*
X74895564Y-37101194D01*
X74895500Y-37101194D01*
X74895499Y-37101190D01*
X74895322Y-37101181D01*
X74895423Y-37099286D01*
X74895380Y-37099060D01*
X74895498Y-37097899D01*
X74895498Y-37097888D01*
X74895500Y-37097873D01*
X74895499Y-35252128D01*
X74889091Y-35192517D01*
X74877641Y-35161819D01*
X74838797Y-35057671D01*
X74838793Y-35057664D01*
X74752547Y-34942455D01*
X74752544Y-34942452D01*
X74637335Y-34856206D01*
X74637328Y-34856202D01*
X74502482Y-34805908D01*
X74502483Y-34805908D01*
X74442883Y-34799501D01*
X74442881Y-34799500D01*
X74442873Y-34799500D01*
X74442864Y-34799500D01*
X73547129Y-34799500D01*
X73547123Y-34799501D01*
X73487515Y-34805909D01*
X73386338Y-34843645D01*
X73316647Y-34848629D01*
X73255324Y-34815143D01*
X73221840Y-34753820D01*
X73224345Y-34691468D01*
X73277242Y-34517095D01*
X73278808Y-34501191D01*
X73304966Y-34436404D01*
X73361999Y-34396043D01*
X73381188Y-34391832D01*
X73381137Y-34391590D01*
X73387751Y-34390174D01*
X73387753Y-34390174D01*
X73551516Y-34335908D01*
X73684903Y-34253633D01*
X73752295Y-34235193D01*
X73815096Y-34253633D01*
X73835479Y-34266206D01*
X73948475Y-34335903D01*
X73948478Y-34335904D01*
X73948484Y-34335908D01*
X74112247Y-34390174D01*
X74213323Y-34400500D01*
X74786676Y-34400499D01*
X74786684Y-34400498D01*
X74786687Y-34400498D01*
X74842030Y-34394844D01*
X74887753Y-34390174D01*
X75051516Y-34335908D01*
X75198350Y-34245340D01*
X75320340Y-34123350D01*
X75410908Y-33976516D01*
X75465174Y-33812753D01*
X75475500Y-33711677D01*
X75475499Y-33113324D01*
X75465174Y-33012247D01*
X75410908Y-32848484D01*
X75320340Y-32701650D01*
X75206371Y-32587681D01*
X75172886Y-32526358D01*
X75177870Y-32456666D01*
X75206371Y-32412319D01*
X75253414Y-32365276D01*
X75320340Y-32298350D01*
X75410908Y-32151516D01*
X75465174Y-31987753D01*
X75475500Y-31886677D01*
X75475499Y-31288324D01*
X75475090Y-31284323D01*
X75465174Y-31187247D01*
X75439746Y-31110511D01*
X75410908Y-31023484D01*
X75408959Y-31020324D01*
X75368111Y-30954098D01*
X75349650Y-30889002D01*
X75349650Y-30808899D01*
X75369335Y-30741860D01*
X75422139Y-30696105D01*
X75473650Y-30684899D01*
X75502271Y-30684899D01*
X75502272Y-30684899D01*
X75561883Y-30678491D01*
X75696731Y-30628196D01*
X75801691Y-30549622D01*
X75867152Y-30525206D01*
X75935425Y-30540057D01*
G37*
%TD.AperFunction*%
%TA.AperFunction,Conductor*%
G36*
X29793834Y-36193269D02*
G01*
X29849767Y-36235141D01*
X29874184Y-36300605D01*
X29874500Y-36309451D01*
X29874500Y-37061608D01*
X29881713Y-37097868D01*
X29881713Y-37097872D01*
X29881714Y-37097872D01*
X29881714Y-37097873D01*
X29897793Y-37178714D01*
X29898537Y-37182451D01*
X29912371Y-37215849D01*
X29945688Y-37296286D01*
X29945690Y-37296290D01*
X29969875Y-37332484D01*
X29969876Y-37332485D01*
X30014141Y-37398732D01*
X30014144Y-37398736D01*
X30105586Y-37490178D01*
X30105608Y-37490198D01*
X30661016Y-38045606D01*
X30661045Y-38045637D01*
X30751263Y-38135855D01*
X30751268Y-38135859D01*
X30768612Y-38147448D01*
X30820650Y-38182218D01*
X30853715Y-38204312D01*
X30914067Y-38229310D01*
X30914068Y-38229311D01*
X30914069Y-38229311D01*
X30967548Y-38251463D01*
X31027971Y-38263481D01*
X31088393Y-38275500D01*
X31088394Y-38275500D01*
X31576000Y-38275500D01*
X31643039Y-38295185D01*
X31688794Y-38347989D01*
X31700000Y-38399498D01*
X31700001Y-38475498D01*
X31680317Y-38542538D01*
X31627514Y-38588294D01*
X31576001Y-38599500D01*
X31405354Y-38599500D01*
X31396119Y-38601463D01*
X31220197Y-38638855D01*
X31220192Y-38638857D01*
X31047270Y-38715848D01*
X31047265Y-38715851D01*
X30894129Y-38827111D01*
X30767466Y-38967785D01*
X30672821Y-39131715D01*
X30672818Y-39131722D01*
X30614327Y-39311740D01*
X30614326Y-39311744D01*
X30594540Y-39500000D01*
X30614326Y-39688256D01*
X30614327Y-39688259D01*
X30672818Y-39868277D01*
X30672821Y-39868284D01*
X30767467Y-40032216D01*
X30882294Y-40159744D01*
X30894129Y-40172888D01*
X31047265Y-40284148D01*
X31047270Y-40284151D01*
X31220192Y-40361142D01*
X31220197Y-40361144D01*
X31405354Y-40400500D01*
X31405355Y-40400500D01*
X31594644Y-40400500D01*
X31594646Y-40400500D01*
X31779803Y-40361144D01*
X31952730Y-40284151D01*
X32105871Y-40172888D01*
X32108788Y-40169647D01*
X32111600Y-40166526D01*
X32171087Y-40129879D01*
X32203748Y-40125500D01*
X32449607Y-40125500D01*
X32510029Y-40113481D01*
X32570452Y-40101463D01*
X32570455Y-40101461D01*
X32570458Y-40101461D01*
X32603787Y-40087654D01*
X32603786Y-40087654D01*
X32603792Y-40087652D01*
X32684286Y-40054312D01*
X32741739Y-40015922D01*
X32786733Y-39985858D01*
X32873858Y-39898733D01*
X32873859Y-39898730D01*
X33060773Y-39711815D01*
X33122096Y-39678333D01*
X33148453Y-39675499D01*
X33723371Y-39675499D01*
X33723372Y-39675499D01*
X33782983Y-39669091D01*
X33917831Y-39618796D01*
X34033046Y-39532546D01*
X34119296Y-39417331D01*
X34119297Y-39417328D01*
X34121927Y-39413815D01*
X34177861Y-39371944D01*
X34246975Y-39366836D01*
X34302877Y-39378718D01*
X34405354Y-39400500D01*
X34405355Y-39400500D01*
X34594644Y-39400500D01*
X34594646Y-39400500D01*
X34779803Y-39361144D01*
X34952730Y-39284151D01*
X35105871Y-39172888D01*
X35232533Y-39032216D01*
X35232536Y-39032211D01*
X35308409Y-38900795D01*
X35358975Y-38852579D01*
X35427582Y-38839355D01*
X35474249Y-38853436D01*
X35562892Y-38900816D01*
X35615273Y-38928814D01*
X35669241Y-38945185D01*
X35763579Y-38973803D01*
X35822017Y-39012100D01*
X35850474Y-39075913D01*
X35839913Y-39144980D01*
X35815264Y-39180144D01*
X34335646Y-40659762D01*
X34274323Y-40693247D01*
X34215872Y-40691856D01*
X34115413Y-40664938D01*
X34115403Y-40664936D01*
X33880001Y-40644341D01*
X33879999Y-40644341D01*
X33644596Y-40664936D01*
X33644586Y-40664938D01*
X33416344Y-40726094D01*
X33416335Y-40726098D01*
X33202171Y-40825964D01*
X33202169Y-40825965D01*
X33008597Y-40961505D01*
X32841508Y-41128594D01*
X32711269Y-41314595D01*
X32656692Y-41358219D01*
X32587193Y-41365412D01*
X32524839Y-41333890D01*
X32508119Y-41314594D01*
X32378113Y-41128926D01*
X32378108Y-41128920D01*
X32211082Y-40961894D01*
X32017578Y-40826399D01*
X31803492Y-40726570D01*
X31803486Y-40726567D01*
X31590000Y-40669364D01*
X31590000Y-41566988D01*
X31532993Y-41534075D01*
X31405826Y-41500000D01*
X31274174Y-41500000D01*
X31147007Y-41534075D01*
X31090000Y-41566988D01*
X31090000Y-40669364D01*
X31089999Y-40669364D01*
X30876513Y-40726567D01*
X30876507Y-40726570D01*
X30662422Y-40826399D01*
X30662420Y-40826400D01*
X30468926Y-40961886D01*
X30346865Y-41083947D01*
X30285542Y-41117431D01*
X30215850Y-41112447D01*
X30159917Y-41070575D01*
X30143002Y-41039598D01*
X30142421Y-41038041D01*
X30093796Y-40907669D01*
X30093795Y-40907668D01*
X30093793Y-40907664D01*
X30007547Y-40792455D01*
X30007544Y-40792452D01*
X29892335Y-40706206D01*
X29892328Y-40706202D01*
X29757482Y-40655908D01*
X29757483Y-40655908D01*
X29697883Y-40649501D01*
X29697881Y-40649500D01*
X29697873Y-40649500D01*
X29697864Y-40649500D01*
X27902129Y-40649500D01*
X27902123Y-40649501D01*
X27842516Y-40655908D01*
X27707671Y-40706202D01*
X27707664Y-40706206D01*
X27592455Y-40792452D01*
X27592452Y-40792455D01*
X27506206Y-40907664D01*
X27506202Y-40907671D01*
X27455908Y-41042517D01*
X27449501Y-41102116D01*
X27449500Y-41102127D01*
X27449500Y-41807007D01*
X27449501Y-42425500D01*
X27429816Y-42492539D01*
X27377013Y-42538294D01*
X27325501Y-42549500D01*
X24019000Y-42549500D01*
X23951961Y-42529815D01*
X23906206Y-42477011D01*
X23895000Y-42425500D01*
X23895000Y-42075000D01*
X22869000Y-42075000D01*
X22801961Y-42055315D01*
X22756206Y-42002511D01*
X22745000Y-41951000D01*
X22745000Y-41699000D01*
X22764685Y-41631961D01*
X22817489Y-41586206D01*
X22869000Y-41575000D01*
X23895000Y-41575000D01*
X23895000Y-40902172D01*
X23894999Y-40902155D01*
X23888598Y-40842627D01*
X23888596Y-40842620D01*
X23838354Y-40707913D01*
X23838350Y-40707906D01*
X23752190Y-40592812D01*
X23752187Y-40592809D01*
X23637093Y-40506649D01*
X23637086Y-40506645D01*
X23502379Y-40456403D01*
X23502372Y-40456401D01*
X23442844Y-40450000D01*
X23391181Y-40450000D01*
X23324142Y-40430315D01*
X23278387Y-40377511D01*
X23267860Y-40338962D01*
X23250827Y-40176897D01*
X23192332Y-39996869D01*
X23097686Y-39832937D01*
X23042117Y-39771221D01*
X23014843Y-39740930D01*
X22984613Y-39677938D01*
X22993239Y-39608603D01*
X23019309Y-39570280D01*
X23627772Y-38961819D01*
X23689095Y-38928334D01*
X23715453Y-38925500D01*
X25700500Y-38925500D01*
X25767539Y-38945185D01*
X25813294Y-38997989D01*
X25824500Y-39049500D01*
X25824500Y-39222844D01*
X25830901Y-39282372D01*
X25830903Y-39282379D01*
X25881145Y-39417086D01*
X25881149Y-39417093D01*
X25967309Y-39532187D01*
X25967312Y-39532190D01*
X26082406Y-39618350D01*
X26082413Y-39618354D01*
X26217120Y-39668596D01*
X26217127Y-39668598D01*
X26276655Y-39674999D01*
X26276672Y-39675000D01*
X26837000Y-39675000D01*
X26837000Y-39149499D01*
X26856685Y-39082460D01*
X26909489Y-39036705D01*
X26960997Y-39025499D01*
X27163001Y-39025499D01*
X27230039Y-39045184D01*
X27275794Y-39097988D01*
X27287000Y-39149499D01*
X27287000Y-39675000D01*
X27847328Y-39675000D01*
X27847344Y-39674999D01*
X27906872Y-39668598D01*
X27906879Y-39668596D01*
X28041586Y-39618354D01*
X28041593Y-39618350D01*
X28156687Y-39532190D01*
X28156690Y-39532187D01*
X28242850Y-39417093D01*
X28242854Y-39417086D01*
X28289735Y-39291392D01*
X28331606Y-39235458D01*
X28397070Y-39211041D01*
X28465343Y-39225892D01*
X28478802Y-39234407D01*
X28547265Y-39284148D01*
X28547270Y-39284151D01*
X28720192Y-39361142D01*
X28720197Y-39361144D01*
X28905354Y-39400500D01*
X28905355Y-39400500D01*
X29094644Y-39400500D01*
X29094646Y-39400500D01*
X29279803Y-39361144D01*
X29452730Y-39284151D01*
X29605871Y-39172888D01*
X29732533Y-39032216D01*
X29827179Y-38868284D01*
X29885674Y-38688256D01*
X29905460Y-38500000D01*
X29885674Y-38311744D01*
X29827179Y-38131716D01*
X29732533Y-37967784D01*
X29605871Y-37827112D01*
X29588456Y-37814459D01*
X29452734Y-37715851D01*
X29452729Y-37715848D01*
X29279807Y-37638857D01*
X29279802Y-37638855D01*
X29103881Y-37601463D01*
X29094646Y-37599500D01*
X29094645Y-37599500D01*
X29035452Y-37599500D01*
X28968413Y-37579815D01*
X28947771Y-37563181D01*
X28722270Y-37337680D01*
X28688785Y-37276357D01*
X28693769Y-37206665D01*
X28722268Y-37162320D01*
X29662820Y-36221769D01*
X29724142Y-36188285D01*
X29793834Y-36193269D01*
G37*
%TD.AperFunction*%
%TA.AperFunction,Conductor*%
G36*
X39730039Y-39520184D02*
G01*
X39775794Y-39572988D01*
X39787000Y-39624499D01*
X39787000Y-40150000D01*
X39789231Y-40152231D01*
X39848670Y-40169685D01*
X39894425Y-40222489D01*
X39899562Y-40235682D01*
X39947818Y-40384199D01*
X39947821Y-40384206D01*
X40042467Y-40548138D01*
X40151620Y-40669364D01*
X40169129Y-40688810D01*
X40322265Y-40800070D01*
X40322270Y-40800073D01*
X40481105Y-40870792D01*
X40534342Y-40916042D01*
X40554663Y-40982891D01*
X40535618Y-41050115D01*
X40518351Y-41071752D01*
X40461503Y-41128600D01*
X40331575Y-41314158D01*
X40276998Y-41357783D01*
X40207500Y-41364977D01*
X40145145Y-41333454D01*
X40128425Y-41314158D01*
X39998494Y-41128597D01*
X39831402Y-40961506D01*
X39831395Y-40961501D01*
X39637834Y-40825967D01*
X39637830Y-40825965D01*
X39585500Y-40801563D01*
X39423663Y-40726097D01*
X39423659Y-40726096D01*
X39423655Y-40726094D01*
X39195413Y-40664938D01*
X39195403Y-40664936D01*
X38960001Y-40644341D01*
X38959999Y-40644341D01*
X38724596Y-40664936D01*
X38724586Y-40664938D01*
X38624126Y-40691856D01*
X38554276Y-40690193D01*
X38504352Y-40659762D01*
X38161819Y-40317229D01*
X38128334Y-40255906D01*
X38125500Y-40229548D01*
X38125500Y-39893959D01*
X38145185Y-39826920D01*
X38197989Y-39781165D01*
X38267147Y-39771221D01*
X38330703Y-39800246D01*
X38365682Y-39850626D01*
X38381145Y-39892086D01*
X38381149Y-39892093D01*
X38467309Y-40007187D01*
X38467312Y-40007190D01*
X38582406Y-40093350D01*
X38582413Y-40093354D01*
X38717120Y-40143596D01*
X38717127Y-40143598D01*
X38776655Y-40149999D01*
X38776672Y-40150000D01*
X39337000Y-40150000D01*
X39337000Y-39624499D01*
X39356685Y-39557460D01*
X39409489Y-39511705D01*
X39460997Y-39500499D01*
X39663001Y-39500499D01*
X39730039Y-39520184D01*
G37*
%TD.AperFunction*%
%TA.AperFunction,Conductor*%
G36*
X53056587Y-38945185D02*
G01*
X53077229Y-38961819D01*
X53778229Y-39662819D01*
X53811714Y-39724142D01*
X53806730Y-39793834D01*
X53764858Y-39849767D01*
X53699394Y-39874184D01*
X53690548Y-39874500D01*
X52042119Y-39874500D01*
X51975080Y-39854815D01*
X51929325Y-39802011D01*
X51919381Y-39732853D01*
X51948406Y-39669297D01*
X51998786Y-39634318D01*
X52041586Y-39618354D01*
X52041593Y-39618350D01*
X52156687Y-39532190D01*
X52156690Y-39532187D01*
X52242850Y-39417093D01*
X52242854Y-39417086D01*
X52293096Y-39282379D01*
X52293098Y-39282372D01*
X52299499Y-39222844D01*
X52299500Y-39222827D01*
X52299500Y-39049500D01*
X52319185Y-38982461D01*
X52371989Y-38936706D01*
X52423500Y-38925500D01*
X52989548Y-38925500D01*
X53056587Y-38945185D01*
G37*
%TD.AperFunction*%
%TA.AperFunction,Conductor*%
G36*
X47706459Y-35793824D02*
G01*
X47714623Y-35801290D01*
X48099187Y-36185855D01*
X48099191Y-36185858D01*
X48201632Y-36254308D01*
X48201639Y-36254312D01*
X48259653Y-36278342D01*
X48259654Y-36278342D01*
X48259655Y-36278343D01*
X48315467Y-36301461D01*
X48315472Y-36301463D01*
X48335521Y-36305451D01*
X48367158Y-36311744D01*
X48436316Y-36325501D01*
X48436318Y-36325501D01*
X48565645Y-36325501D01*
X48565665Y-36325500D01*
X48916321Y-36325500D01*
X48983360Y-36345185D01*
X49029115Y-36397989D01*
X49039059Y-36467147D01*
X49015929Y-36519633D01*
X49017527Y-36520701D01*
X49014142Y-36525766D01*
X49014142Y-36525767D01*
X48985850Y-36568109D01*
X48969762Y-36592184D01*
X48945687Y-36628214D01*
X48928378Y-36670005D01*
X48916582Y-36698483D01*
X48909364Y-36715909D01*
X48898537Y-36742045D01*
X48898535Y-36742054D01*
X48890114Y-36784390D01*
X48890115Y-36784391D01*
X48883946Y-36815409D01*
X48877464Y-36847996D01*
X48877463Y-36847997D01*
X48874500Y-36862892D01*
X48874500Y-37657389D01*
X48854815Y-37724428D01*
X48802011Y-37770183D01*
X48732853Y-37780127D01*
X48669297Y-37751102D01*
X48662819Y-37745070D01*
X47661819Y-36744070D01*
X47628334Y-36682747D01*
X47625500Y-36656389D01*
X47625500Y-36238142D01*
X47617813Y-36199501D01*
X47617812Y-36199494D01*
X47611415Y-36167327D01*
X47611415Y-36167326D01*
X47601464Y-36117305D01*
X47601463Y-36117298D01*
X47584822Y-36077122D01*
X47575373Y-36054310D01*
X47554314Y-36003469D01*
X47554312Y-36003466D01*
X47554312Y-36003465D01*
X47530470Y-35967784D01*
X47523839Y-35957860D01*
X47502962Y-35891184D01*
X47521447Y-35823804D01*
X47573425Y-35777114D01*
X47642395Y-35765938D01*
X47706459Y-35793824D01*
G37*
%TD.AperFunction*%
%TA.AperFunction,Conductor*%
G36*
X43837482Y-33026696D02*
G01*
X43881829Y-33055197D01*
X44163681Y-33337049D01*
X44197166Y-33398372D01*
X44200000Y-33424730D01*
X44200000Y-33847869D01*
X44200001Y-33847880D01*
X44204431Y-33889093D01*
X44204431Y-33915596D01*
X44200500Y-33952165D01*
X44200500Y-34125500D01*
X44180815Y-34192539D01*
X44128011Y-34238294D01*
X44076500Y-34249500D01*
X43539337Y-34249500D01*
X43472298Y-34229815D01*
X43466452Y-34225818D01*
X43452734Y-34215851D01*
X43452729Y-34215848D01*
X43279807Y-34138857D01*
X43279802Y-34138855D01*
X43134001Y-34107865D01*
X43094646Y-34099500D01*
X42905354Y-34099500D01*
X42872897Y-34106398D01*
X42720197Y-34138855D01*
X42720192Y-34138857D01*
X42547270Y-34215848D01*
X42547265Y-34215851D01*
X42453801Y-34283757D01*
X42387994Y-34307237D01*
X42319941Y-34291411D01*
X42288766Y-34266411D01*
X42288581Y-34266206D01*
X42230871Y-34202112D01*
X42230870Y-34202111D01*
X42077734Y-34090851D01*
X42077729Y-34090848D01*
X41904807Y-34013857D01*
X41904802Y-34013855D01*
X41759001Y-33982865D01*
X41719646Y-33974500D01*
X41530354Y-33974500D01*
X41497897Y-33981398D01*
X41345197Y-34013855D01*
X41345192Y-34013857D01*
X41172270Y-34090848D01*
X41172265Y-34090851D01*
X41019130Y-34202110D01*
X41019124Y-34202115D01*
X41016141Y-34205429D01*
X40956651Y-34242072D01*
X40886794Y-34240735D01*
X40828749Y-34201843D01*
X40800946Y-34137743D01*
X40799999Y-34122457D01*
X40799999Y-33952128D01*
X40795567Y-33910898D01*
X40795568Y-33884393D01*
X40799499Y-33847833D01*
X40799500Y-33847819D01*
X40799500Y-33800000D01*
X40783888Y-33784388D01*
X40770016Y-33780315D01*
X40737789Y-33750312D01*
X40687264Y-33682820D01*
X40657046Y-33642454D01*
X40657044Y-33642453D01*
X40657044Y-33642452D01*
X40651773Y-33637181D01*
X40618288Y-33575858D01*
X40623272Y-33506166D01*
X40665144Y-33450233D01*
X40730608Y-33425816D01*
X40739454Y-33425500D01*
X43138684Y-33425500D01*
X43138684Y-33425499D01*
X43203889Y-33412530D01*
X43259528Y-33401463D01*
X43292868Y-33387652D01*
X43373362Y-33354312D01*
X43438431Y-33310833D01*
X43475809Y-33285858D01*
X43562934Y-33198733D01*
X43562934Y-33198731D01*
X43573142Y-33188524D01*
X43573143Y-33188521D01*
X43706470Y-33055195D01*
X43767790Y-33021712D01*
X43837482Y-33026696D01*
G37*
%TD.AperFunction*%
%TA.AperFunction,Conductor*%
G36*
X41293834Y-26605769D02*
G01*
X41349767Y-26647641D01*
X41374184Y-26713105D01*
X41374500Y-26721951D01*
X41374500Y-27061606D01*
X41375913Y-27068710D01*
X41375913Y-27068713D01*
X41398535Y-27182443D01*
X41398537Y-27182452D01*
X41400719Y-27187719D01*
X41407345Y-27203716D01*
X41407344Y-27203716D01*
X41445685Y-27296281D01*
X41445687Y-27296284D01*
X41445688Y-27296286D01*
X41449345Y-27301758D01*
X41479914Y-27347507D01*
X41479915Y-27347509D01*
X41514141Y-27398733D01*
X41605586Y-27490178D01*
X41605608Y-27490198D01*
X42981878Y-28866468D01*
X43015363Y-28927791D01*
X43010379Y-28997483D01*
X42981878Y-29041830D01*
X42585320Y-29438389D01*
X42188770Y-29834939D01*
X42188767Y-29834942D01*
X42158808Y-29864901D01*
X42101642Y-29922066D01*
X42086712Y-29944410D01*
X42071882Y-29966606D01*
X42056382Y-29989801D01*
X42033187Y-30024514D01*
X42018200Y-30060698D01*
X42007119Y-30087451D01*
X41986037Y-30138346D01*
X41986035Y-30138354D01*
X41978145Y-30178015D01*
X41978146Y-30178016D01*
X41962884Y-30254753D01*
X41962880Y-30254773D01*
X41962000Y-30259191D01*
X41962000Y-30897586D01*
X41942315Y-30964625D01*
X41889511Y-31010380D01*
X41820353Y-31020324D01*
X41756797Y-30991299D01*
X41750262Y-30984465D01*
X41749940Y-30984788D01*
X41622840Y-30857688D01*
X41596394Y-30841376D01*
X41549671Y-30789428D01*
X41537493Y-30735839D01*
X41537493Y-28623646D01*
X41538000Y-28613336D01*
X41538000Y-28489192D01*
X41537999Y-28489188D01*
X41531367Y-28455847D01*
X41513963Y-28368349D01*
X41501688Y-28338715D01*
X41484114Y-28296286D01*
X41466812Y-28254514D01*
X41398608Y-28152442D01*
X41398357Y-28152066D01*
X40609371Y-27363080D01*
X40575886Y-27301757D01*
X40580870Y-27232065D01*
X40609371Y-27187718D01*
X40934942Y-26862147D01*
X41162820Y-26634269D01*
X41224142Y-26600785D01*
X41293834Y-26605769D01*
G37*
%TD.AperFunction*%
%TA.AperFunction,Conductor*%
G36*
X18857950Y-26720853D02*
G01*
X18913883Y-26762725D01*
X18929177Y-26789583D01*
X18945686Y-26829441D01*
X18945691Y-26829451D01*
X18976059Y-26874896D01*
X18976060Y-26874899D01*
X18976061Y-26874899D01*
X19014140Y-26931889D01*
X19014141Y-26931890D01*
X19014142Y-26931891D01*
X19101267Y-27019016D01*
X19101268Y-27019016D01*
X19108335Y-27026083D01*
X19108334Y-27026083D01*
X19108337Y-27026085D01*
X20715300Y-28633049D01*
X20748784Y-28694370D01*
X20743800Y-28764062D01*
X20715299Y-28808409D01*
X20402851Y-29120858D01*
X20101270Y-29422439D01*
X20101267Y-29422442D01*
X20067678Y-29456031D01*
X20014142Y-29509566D01*
X19987456Y-29549505D01*
X19987455Y-29549504D01*
X19945687Y-29612014D01*
X19930339Y-29649069D01*
X19921348Y-29670777D01*
X19898537Y-29725848D01*
X19893662Y-29750356D01*
X19875159Y-29843379D01*
X19875159Y-29843383D01*
X19874500Y-29846693D01*
X19874500Y-30640518D01*
X19854815Y-30707557D01*
X19815688Y-30746000D01*
X19815188Y-30746309D01*
X19747812Y-30764808D01*
X19684812Y-30746309D01*
X19684312Y-30746000D01*
X19637632Y-30694012D01*
X19625500Y-30640518D01*
X19625500Y-29076697D01*
X19625499Y-29076687D01*
X19625261Y-29075492D01*
X19625257Y-29075469D01*
X19601464Y-28955854D01*
X19601463Y-28955853D01*
X19601463Y-28955849D01*
X19601460Y-28955841D01*
X19596189Y-28943116D01*
X19596187Y-28943111D01*
X19577724Y-28898537D01*
X19554312Y-28842015D01*
X19554311Y-28842013D01*
X19554310Y-28842011D01*
X19514745Y-28782799D01*
X19514745Y-28782800D01*
X19485858Y-28739567D01*
X19485855Y-28739564D01*
X19485853Y-28739561D01*
X19395637Y-28649345D01*
X19395606Y-28649316D01*
X18198970Y-27452680D01*
X18165485Y-27391357D01*
X18170469Y-27321665D01*
X18198966Y-27277323D01*
X18726935Y-26749353D01*
X18788258Y-26715869D01*
X18857950Y-26720853D01*
G37*
%TD.AperFunction*%
%TA.AperFunction,Conductor*%
G36*
X26793834Y-26284970D02*
G01*
X26849767Y-26326842D01*
X26874184Y-26392306D01*
X26874500Y-26401152D01*
X26874500Y-27561611D01*
X26898535Y-27682444D01*
X26898540Y-27682461D01*
X26945685Y-27796281D01*
X26945690Y-27796290D01*
X26963900Y-27823542D01*
X26963901Y-27823543D01*
X27014140Y-27898731D01*
X27014141Y-27898732D01*
X27014142Y-27898733D01*
X27101267Y-27985858D01*
X27101268Y-27985858D01*
X27108335Y-27992925D01*
X27108334Y-27992925D01*
X27108337Y-27992927D01*
X27981879Y-28866470D01*
X28015363Y-28927791D01*
X28010379Y-28997483D01*
X27981878Y-29041830D01*
X27787248Y-29236461D01*
X27601270Y-29422439D01*
X27601267Y-29422442D01*
X27567678Y-29456031D01*
X27514142Y-29509566D01*
X27487456Y-29549505D01*
X27487455Y-29549504D01*
X27445687Y-29612014D01*
X27430339Y-29649069D01*
X27421348Y-29670777D01*
X27398537Y-29725848D01*
X27393662Y-29750356D01*
X27375159Y-29843379D01*
X27375159Y-29843383D01*
X27374500Y-29846693D01*
X27374500Y-30640518D01*
X27354815Y-30707557D01*
X27315688Y-30746000D01*
X27315188Y-30746309D01*
X27247812Y-30764808D01*
X27184812Y-30746309D01*
X27184312Y-30746000D01*
X27137632Y-30694012D01*
X27125500Y-30640518D01*
X27125500Y-29076697D01*
X27125499Y-29076687D01*
X27125261Y-29075492D01*
X27125257Y-29075469D01*
X27101464Y-28955854D01*
X27101463Y-28955853D01*
X27101463Y-28955849D01*
X27101460Y-28955841D01*
X27096189Y-28943116D01*
X27096187Y-28943111D01*
X27077724Y-28898537D01*
X27054312Y-28842015D01*
X27054311Y-28842013D01*
X27054310Y-28842011D01*
X27014745Y-28782799D01*
X27014745Y-28782800D01*
X26985858Y-28739567D01*
X26985855Y-28739564D01*
X26985853Y-28739561D01*
X26895637Y-28649345D01*
X26895606Y-28649316D01*
X25698971Y-27452681D01*
X25665486Y-27391358D01*
X25670470Y-27321666D01*
X25698971Y-27277319D01*
X26662819Y-26313471D01*
X26724142Y-26279986D01*
X26793834Y-26284970D01*
G37*
%TD.AperFunction*%
%TA.AperFunction,Conductor*%
G36*
X56293834Y-26605770D02*
G01*
X56349767Y-26647642D01*
X56374184Y-26713106D01*
X56374500Y-26721952D01*
X56374500Y-27061606D01*
X56375913Y-27068710D01*
X56375913Y-27068713D01*
X56398535Y-27182443D01*
X56398537Y-27182452D01*
X56400719Y-27187719D01*
X56407345Y-27203716D01*
X56407344Y-27203716D01*
X56445685Y-27296281D01*
X56445687Y-27296284D01*
X56445688Y-27296286D01*
X56449345Y-27301758D01*
X56479914Y-27347507D01*
X56479915Y-27347509D01*
X56514141Y-27398733D01*
X56605586Y-27490178D01*
X56605608Y-27490198D01*
X57981878Y-28866468D01*
X58015363Y-28927791D01*
X58010379Y-28997483D01*
X57981878Y-29041830D01*
X57787248Y-29236461D01*
X57601270Y-29422439D01*
X57601267Y-29422442D01*
X57567678Y-29456031D01*
X57514142Y-29509566D01*
X57487456Y-29549505D01*
X57487455Y-29549504D01*
X57445687Y-29612014D01*
X57430339Y-29649069D01*
X57421348Y-29670777D01*
X57398537Y-29725848D01*
X57393662Y-29750356D01*
X57375159Y-29843379D01*
X57375159Y-29843383D01*
X57374500Y-29846693D01*
X57374500Y-30640518D01*
X57354815Y-30707557D01*
X57315688Y-30746000D01*
X57315188Y-30746309D01*
X57247812Y-30764808D01*
X57184812Y-30746309D01*
X57184312Y-30746000D01*
X57137632Y-30694012D01*
X57125500Y-30640518D01*
X57125500Y-29076697D01*
X57125499Y-29076687D01*
X57125261Y-29075492D01*
X57125257Y-29075469D01*
X57101464Y-28955854D01*
X57101463Y-28955853D01*
X57101463Y-28955849D01*
X57101460Y-28955841D01*
X57096189Y-28943116D01*
X57096187Y-28943111D01*
X57077724Y-28898537D01*
X57054312Y-28842015D01*
X57054311Y-28842013D01*
X57054310Y-28842011D01*
X57014745Y-28782799D01*
X57014745Y-28782800D01*
X56985858Y-28739567D01*
X56985855Y-28739564D01*
X56985853Y-28739561D01*
X56895637Y-28649345D01*
X56895606Y-28649316D01*
X55609371Y-27363081D01*
X55575886Y-27301758D01*
X55580870Y-27232066D01*
X55609371Y-27187719D01*
X56162819Y-26634271D01*
X56224142Y-26600786D01*
X56293834Y-26605770D01*
G37*
%TD.AperFunction*%
%TA.AperFunction,Conductor*%
G36*
X63793834Y-26605770D02*
G01*
X63849767Y-26647642D01*
X63874184Y-26713106D01*
X63874500Y-26721952D01*
X63874500Y-27061606D01*
X63875913Y-27068710D01*
X63875913Y-27068713D01*
X63898535Y-27182443D01*
X63898537Y-27182452D01*
X63900719Y-27187719D01*
X63907345Y-27203716D01*
X63907344Y-27203716D01*
X63945685Y-27296281D01*
X63945687Y-27296284D01*
X63945688Y-27296286D01*
X63949345Y-27301758D01*
X63979914Y-27347507D01*
X63979915Y-27347509D01*
X64014141Y-27398733D01*
X64105586Y-27490178D01*
X64105608Y-27490198D01*
X65277728Y-28662318D01*
X65311213Y-28723641D01*
X65306229Y-28793333D01*
X65277728Y-28837680D01*
X65187618Y-28927791D01*
X65101269Y-29014140D01*
X65101267Y-29014142D01*
X65073579Y-29041830D01*
X65014142Y-29101266D01*
X64998216Y-29125102D01*
X64945689Y-29203712D01*
X64945685Y-29203719D01*
X64922167Y-29260499D01*
X64922167Y-29260500D01*
X64898537Y-29317546D01*
X64893275Y-29343999D01*
X64893276Y-29344000D01*
X64883346Y-29393926D01*
X64877792Y-29421847D01*
X64877790Y-29421853D01*
X64874500Y-29438389D01*
X64874500Y-30640518D01*
X64854815Y-30707557D01*
X64815688Y-30746000D01*
X64815188Y-30746309D01*
X64747812Y-30764808D01*
X64684812Y-30746309D01*
X64684312Y-30746000D01*
X64637632Y-30694012D01*
X64625500Y-30640518D01*
X64625500Y-29076697D01*
X64625499Y-29076687D01*
X64625261Y-29075492D01*
X64625257Y-29075469D01*
X64601464Y-28955854D01*
X64601463Y-28955853D01*
X64601463Y-28955849D01*
X64601460Y-28955841D01*
X64596189Y-28943116D01*
X64596187Y-28943111D01*
X64577724Y-28898537D01*
X64554312Y-28842015D01*
X64554311Y-28842013D01*
X64554310Y-28842011D01*
X64514745Y-28782799D01*
X64514745Y-28782800D01*
X64485858Y-28739567D01*
X64485855Y-28739564D01*
X64485853Y-28739561D01*
X64395637Y-28649345D01*
X64395606Y-28649316D01*
X63109371Y-27363081D01*
X63075886Y-27301758D01*
X63080870Y-27232066D01*
X63109371Y-27187719D01*
X63662819Y-26634271D01*
X63724142Y-26600786D01*
X63793834Y-26605770D01*
G37*
%TD.AperFunction*%
%TA.AperFunction,Conductor*%
G36*
X43454392Y-26224466D02*
G01*
X43490047Y-26284553D01*
X43493900Y-26315224D01*
X43493900Y-26422244D01*
X43500301Y-26481772D01*
X43500302Y-26481776D01*
X43534016Y-26572166D01*
X43539000Y-26641858D01*
X43505515Y-26703181D01*
X43444192Y-26736666D01*
X43417834Y-26739500D01*
X43208611Y-26739500D01*
X43141572Y-26719815D01*
X43120930Y-26703181D01*
X43038819Y-26621070D01*
X43005334Y-26559747D01*
X43002500Y-26533389D01*
X43002500Y-26351500D01*
X43022185Y-26284461D01*
X43074989Y-26238706D01*
X43126500Y-26227500D01*
X43194843Y-26227500D01*
X43194843Y-26227499D01*
X43301479Y-26206289D01*
X43301480Y-26206289D01*
X43315682Y-26203464D01*
X43315682Y-26203463D01*
X43315687Y-26203463D01*
X43316591Y-26203088D01*
X43322443Y-26200665D01*
X43391912Y-26193193D01*
X43454392Y-26224466D01*
G37*
%TD.AperFunction*%
%TA.AperFunction,Conductor*%
G36*
X50913234Y-26230027D02*
G01*
X50969167Y-26271899D01*
X50993584Y-26337363D01*
X50993900Y-26346209D01*
X50993900Y-26422244D01*
X51000301Y-26481772D01*
X51000302Y-26481776D01*
X51034016Y-26572166D01*
X51039000Y-26641858D01*
X51005515Y-26703181D01*
X50944192Y-26736666D01*
X50917834Y-26739500D01*
X50749500Y-26739500D01*
X50682461Y-26719815D01*
X50636706Y-26667011D01*
X50625500Y-26615500D01*
X50625500Y-26466609D01*
X50645185Y-26399570D01*
X50661815Y-26378932D01*
X50782219Y-26258527D01*
X50843542Y-26225043D01*
X50913234Y-26230027D01*
G37*
%TD.AperFunction*%
%TA.AperFunction,Conductor*%
G36*
X58454392Y-26224466D02*
G01*
X58490047Y-26284553D01*
X58493900Y-26315224D01*
X58493900Y-26422244D01*
X58500301Y-26481772D01*
X58500302Y-26481776D01*
X58534016Y-26572166D01*
X58539000Y-26641858D01*
X58505515Y-26703181D01*
X58444192Y-26736666D01*
X58417834Y-26739500D01*
X58249500Y-26739500D01*
X58182461Y-26719815D01*
X58136706Y-26667011D01*
X58125500Y-26615500D01*
X58125500Y-26343057D01*
X58145185Y-26276018D01*
X58197989Y-26230263D01*
X58225308Y-26221440D01*
X58227520Y-26221000D01*
X58301479Y-26206289D01*
X58301480Y-26206289D01*
X58315682Y-26203464D01*
X58315682Y-26203463D01*
X58315687Y-26203463D01*
X58316591Y-26203088D01*
X58322443Y-26200665D01*
X58391912Y-26193193D01*
X58454392Y-26224466D01*
G37*
%TD.AperFunction*%
%TA.AperFunction,Conductor*%
G36*
X75955453Y-21627517D02*
G01*
X75994310Y-21685586D01*
X76000000Y-21722718D01*
X76000000Y-25351733D01*
X75980315Y-25418772D01*
X75927511Y-25464527D01*
X75858353Y-25474471D01*
X75801689Y-25451000D01*
X75696488Y-25372246D01*
X75696486Y-25372245D01*
X75561779Y-25322003D01*
X75561772Y-25322001D01*
X75502244Y-25315600D01*
X74974150Y-25315600D01*
X74974150Y-26221000D01*
X74954465Y-26288039D01*
X74901661Y-26333794D01*
X74850150Y-26345000D01*
X74598150Y-26345000D01*
X74531111Y-26325315D01*
X74485356Y-26272511D01*
X74474150Y-26221000D01*
X74474150Y-25315600D01*
X74414656Y-25315600D01*
X74347617Y-25295915D01*
X74301862Y-25243111D01*
X74291918Y-25173953D01*
X74293039Y-25167407D01*
X74302501Y-25119842D01*
X74302501Y-24991518D01*
X74302500Y-24991492D01*
X74302500Y-23705160D01*
X74302047Y-23702884D01*
X74302045Y-23702870D01*
X74278463Y-23584314D01*
X74278463Y-23584313D01*
X74277525Y-23582050D01*
X74277518Y-23582033D01*
X74269041Y-23561569D01*
X74261571Y-23492100D01*
X74292844Y-23429620D01*
X74333159Y-23400838D01*
X74496633Y-23328054D01*
X74649774Y-23216791D01*
X74776436Y-23076119D01*
X74871082Y-22912187D01*
X74929577Y-22732159D01*
X74947224Y-22564247D01*
X74973807Y-22499637D01*
X74982845Y-22489551D01*
X75398358Y-22074039D01*
X75466812Y-21971591D01*
X75481900Y-21935164D01*
X75525740Y-21880759D01*
X75531354Y-21877082D01*
X75623350Y-21820340D01*
X75745340Y-21698350D01*
X75770461Y-21657621D01*
X75822409Y-21610897D01*
X75891371Y-21599674D01*
X75955453Y-21627517D01*
G37*
%TD.AperFunction*%
%TA.AperFunction,Conductor*%
G36*
X17193039Y-24245185D02*
G01*
X17238794Y-24297989D01*
X17250000Y-24349500D01*
X17250000Y-24538500D01*
X17230315Y-24605539D01*
X17177511Y-24651294D01*
X17126000Y-24662500D01*
X14874000Y-24662500D01*
X14806961Y-24642815D01*
X14761206Y-24590011D01*
X14750000Y-24538500D01*
X14750000Y-24349500D01*
X14769685Y-24282461D01*
X14822489Y-24236706D01*
X14874000Y-24225500D01*
X17126000Y-24225500D01*
X17193039Y-24245185D01*
G37*
%TD.AperFunction*%
%TA.AperFunction,Conductor*%
G36*
X25193039Y-24245185D02*
G01*
X25238794Y-24297989D01*
X25250000Y-24349500D01*
X25250000Y-24538500D01*
X25230315Y-24605539D01*
X25177511Y-24651294D01*
X25126000Y-24662500D01*
X22874000Y-24662500D01*
X22806961Y-24642815D01*
X22761206Y-24590011D01*
X22750000Y-24538500D01*
X22750000Y-24349500D01*
X22769685Y-24282461D01*
X22822489Y-24236706D01*
X22874000Y-24225500D01*
X25126000Y-24225500D01*
X25193039Y-24245185D01*
G37*
%TD.AperFunction*%
%TA.AperFunction,Conductor*%
G36*
X33193039Y-24245185D02*
G01*
X33238794Y-24297989D01*
X33250000Y-24349500D01*
X33250000Y-24538500D01*
X33230315Y-24605539D01*
X33177511Y-24651294D01*
X33126000Y-24662500D01*
X30874000Y-24662500D01*
X30806961Y-24642815D01*
X30761206Y-24590011D01*
X30750000Y-24538500D01*
X30750000Y-24349500D01*
X30769685Y-24282461D01*
X30822489Y-24236706D01*
X30874000Y-24225500D01*
X33126000Y-24225500D01*
X33193039Y-24245185D01*
G37*
%TD.AperFunction*%
%TA.AperFunction,Conductor*%
G36*
X41193039Y-24245185D02*
G01*
X41238794Y-24297989D01*
X41250000Y-24349500D01*
X41250000Y-24538500D01*
X41230315Y-24605539D01*
X41177511Y-24651294D01*
X41126000Y-24662500D01*
X38874000Y-24662500D01*
X38806961Y-24642815D01*
X38761206Y-24590011D01*
X38750000Y-24538500D01*
X38750000Y-24349500D01*
X38769685Y-24282461D01*
X38822489Y-24236706D01*
X38874000Y-24225500D01*
X41126000Y-24225500D01*
X41193039Y-24245185D01*
G37*
%TD.AperFunction*%
%TA.AperFunction,Conductor*%
G36*
X48693039Y-24245185D02*
G01*
X48738794Y-24297989D01*
X48750000Y-24349500D01*
X48750000Y-24538500D01*
X48730315Y-24605539D01*
X48677511Y-24651294D01*
X48626000Y-24662500D01*
X46374000Y-24662500D01*
X46306961Y-24642815D01*
X46261206Y-24590011D01*
X46250000Y-24538500D01*
X46250000Y-24349500D01*
X46269685Y-24282461D01*
X46322489Y-24236706D01*
X46374000Y-24225500D01*
X48626000Y-24225500D01*
X48693039Y-24245185D01*
G37*
%TD.AperFunction*%
%TA.AperFunction,Conductor*%
G36*
X56193039Y-24182185D02*
G01*
X56238794Y-24234989D01*
X56250000Y-24286500D01*
X56250000Y-24538500D01*
X56230315Y-24605539D01*
X56177511Y-24651294D01*
X56126000Y-24662500D01*
X53874000Y-24662500D01*
X53806961Y-24642815D01*
X53761206Y-24590011D01*
X53750000Y-24538500D01*
X53750000Y-24286500D01*
X53769685Y-24219461D01*
X53822489Y-24173706D01*
X53874000Y-24162500D01*
X56126000Y-24162500D01*
X56193039Y-24182185D01*
G37*
%TD.AperFunction*%
%TA.AperFunction,Conductor*%
G36*
X63693039Y-24182185D02*
G01*
X63738794Y-24234989D01*
X63750000Y-24286500D01*
X63750000Y-24538500D01*
X63730315Y-24605539D01*
X63677511Y-24651294D01*
X63626000Y-24662500D01*
X61874000Y-24662500D01*
X61806961Y-24642815D01*
X61761206Y-24590011D01*
X61750000Y-24538500D01*
X61750000Y-24286500D01*
X61769685Y-24219461D01*
X61822489Y-24173706D01*
X61874000Y-24162500D01*
X63626000Y-24162500D01*
X63693039Y-24182185D01*
G37*
%TD.AperFunction*%
%TA.AperFunction,Conductor*%
G36*
X71193039Y-24245185D02*
G01*
X71238794Y-24297989D01*
X71250000Y-24349500D01*
X71250000Y-24538500D01*
X71230315Y-24605539D01*
X71177511Y-24651294D01*
X71126000Y-24662500D01*
X69374000Y-24662500D01*
X69306961Y-24642815D01*
X69261206Y-24590011D01*
X69250000Y-24538500D01*
X69250000Y-24349500D01*
X69269685Y-24282461D01*
X69322489Y-24236706D01*
X69374000Y-24225500D01*
X71126000Y-24225500D01*
X71193039Y-24245185D01*
G37*
%TD.AperFunction*%
%TA.AperFunction,Conductor*%
G36*
X75943039Y-12019685D02*
G01*
X75988794Y-12072489D01*
X76000000Y-12124000D01*
X76000000Y-20277281D01*
X75980315Y-20344320D01*
X75927511Y-20390075D01*
X75858353Y-20400019D01*
X75794797Y-20370994D01*
X75770462Y-20342378D01*
X75745342Y-20301653D01*
X75745339Y-20301649D01*
X75623347Y-20179657D01*
X75596773Y-20163266D01*
X75550050Y-20111318D01*
X75538829Y-20042355D01*
X75566673Y-19978273D01*
X75574192Y-19970047D01*
X75617678Y-19926561D01*
X75617685Y-19926552D01*
X75701282Y-19785196D01*
X75701283Y-19785193D01*
X75747099Y-19627495D01*
X75747100Y-19627489D01*
X75749999Y-19590649D01*
X75750000Y-19590634D01*
X75750000Y-19187500D01*
X74824000Y-19187500D01*
X74756961Y-19167815D01*
X74711206Y-19115011D01*
X74700000Y-19063500D01*
X74700000Y-18687500D01*
X75200000Y-18687500D01*
X75750000Y-18687500D01*
X75750000Y-18284365D01*
X75749999Y-18284350D01*
X75747100Y-18247510D01*
X75747099Y-18247504D01*
X75701283Y-18089806D01*
X75701282Y-18089803D01*
X75617685Y-17948447D01*
X75617678Y-17948438D01*
X75501561Y-17832321D01*
X75501552Y-17832314D01*
X75360196Y-17748717D01*
X75360193Y-17748716D01*
X75202494Y-17702900D01*
X75202497Y-17702900D01*
X75200000Y-17702703D01*
X75200000Y-18687500D01*
X74700000Y-18687500D01*
X74700000Y-18031814D01*
X74717267Y-17968694D01*
X74751744Y-17910398D01*
X74797598Y-17752569D01*
X74800500Y-17715694D01*
X74800500Y-16409306D01*
X74797598Y-16372431D01*
X74797597Y-16372426D01*
X74755424Y-16227265D01*
X74750500Y-16192670D01*
X74750500Y-14661079D01*
X74721659Y-14516092D01*
X74721658Y-14516091D01*
X74721658Y-14516087D01*
X74721656Y-14516082D01*
X74665086Y-14379508D01*
X74620669Y-14313033D01*
X74599792Y-14246356D01*
X74600244Y-14233335D01*
X74620659Y-14000000D01*
X74620659Y-13999999D01*
X74600063Y-13764596D01*
X74600063Y-13764592D01*
X74538903Y-13536337D01*
X74439035Y-13322171D01*
X74303495Y-13128599D01*
X74303494Y-13128597D01*
X74136402Y-12961506D01*
X74136395Y-12961501D01*
X73942834Y-12825967D01*
X73942830Y-12825965D01*
X73942828Y-12825964D01*
X73728663Y-12726097D01*
X73728659Y-12726096D01*
X73728655Y-12726094D01*
X73500413Y-12664938D01*
X73500403Y-12664936D01*
X73265001Y-12644341D01*
X73264999Y-12644341D01*
X73029596Y-12664936D01*
X73029586Y-12664938D01*
X72801344Y-12726094D01*
X72801335Y-12726098D01*
X72587171Y-12825964D01*
X72587169Y-12825965D01*
X72393600Y-12961503D01*
X72271673Y-13083430D01*
X72210350Y-13116914D01*
X72140658Y-13111930D01*
X72084725Y-13070058D01*
X72067810Y-13039081D01*
X72018797Y-12907671D01*
X72018793Y-12907664D01*
X71932547Y-12792455D01*
X71932544Y-12792452D01*
X71817335Y-12706206D01*
X71817328Y-12706202D01*
X71682482Y-12655908D01*
X71682483Y-12655908D01*
X71622883Y-12649501D01*
X71622881Y-12649500D01*
X71622873Y-12649500D01*
X71622864Y-12649500D01*
X69827129Y-12649500D01*
X69827123Y-12649501D01*
X69767516Y-12655908D01*
X69632671Y-12706202D01*
X69632664Y-12706206D01*
X69517455Y-12792452D01*
X69517452Y-12792455D01*
X69431206Y-12907664D01*
X69431202Y-12907671D01*
X69380908Y-13042517D01*
X69374501Y-13102116D01*
X69374500Y-13102135D01*
X69374500Y-14237769D01*
X69354815Y-14304808D01*
X69338181Y-14325450D01*
X68467052Y-15196578D01*
X68467049Y-15196581D01*
X68417812Y-15270271D01*
X68384921Y-15319496D01*
X68384914Y-15319508D01*
X68328342Y-15456086D01*
X68328340Y-15456092D01*
X68299500Y-15601079D01*
X68299500Y-16192670D01*
X68294576Y-16227265D01*
X68252402Y-16372426D01*
X68252401Y-16372432D01*
X68249500Y-16409298D01*
X68249500Y-17715701D01*
X68252401Y-17752567D01*
X68252402Y-17752573D01*
X68298254Y-17910393D01*
X68298255Y-17910396D01*
X68381917Y-18051862D01*
X68381923Y-18051870D01*
X68425680Y-18095626D01*
X68459166Y-18156949D01*
X68462000Y-18183308D01*
X68462000Y-20057808D01*
X68442315Y-20124847D01*
X68403099Y-20163345D01*
X68376652Y-20179657D01*
X68254661Y-20301648D01*
X68164093Y-20448481D01*
X68164091Y-20448486D01*
X68117706Y-20588467D01*
X68077933Y-20645912D01*
X68013417Y-20672735D01*
X67944641Y-20660420D01*
X67893442Y-20612877D01*
X67882294Y-20588467D01*
X67835908Y-20448484D01*
X67745340Y-20301650D01*
X67623350Y-20179660D01*
X67623347Y-20179657D01*
X67596773Y-20163266D01*
X67550050Y-20111318D01*
X67538829Y-20042355D01*
X67566673Y-19978273D01*
X67574192Y-19970047D01*
X67617678Y-19926561D01*
X67617685Y-19926552D01*
X67701282Y-19785196D01*
X67701283Y-19785193D01*
X67747099Y-19627495D01*
X67747100Y-19627489D01*
X67749999Y-19590649D01*
X67750000Y-19590634D01*
X67750000Y-19187500D01*
X66824000Y-19187500D01*
X66756961Y-19167815D01*
X66711206Y-19115011D01*
X66700000Y-19063500D01*
X66700000Y-18687500D01*
X67200000Y-18687500D01*
X67750000Y-18687500D01*
X67750000Y-18284365D01*
X67749999Y-18284350D01*
X67747100Y-18247510D01*
X67747099Y-18247504D01*
X67701283Y-18089806D01*
X67701282Y-18089803D01*
X67617685Y-17948447D01*
X67617678Y-17948438D01*
X67501561Y-17832321D01*
X67501552Y-17832314D01*
X67360196Y-17748717D01*
X67360193Y-17748716D01*
X67202494Y-17702900D01*
X67202497Y-17702900D01*
X67200000Y-17702703D01*
X67200000Y-18687500D01*
X66700000Y-18687500D01*
X66700000Y-18031814D01*
X66717267Y-17968694D01*
X66751744Y-17910398D01*
X66797598Y-17752569D01*
X66800500Y-17715694D01*
X66800500Y-16409306D01*
X66797598Y-16372431D01*
X66797597Y-16372426D01*
X66755424Y-16227265D01*
X66750500Y-16192670D01*
X66750500Y-14661079D01*
X66721659Y-14516092D01*
X66721658Y-14516091D01*
X66721658Y-14516087D01*
X66721656Y-14516082D01*
X66665086Y-14379508D01*
X66620669Y-14313033D01*
X66599792Y-14246356D01*
X66600244Y-14233335D01*
X66620659Y-14000000D01*
X66620659Y-13999999D01*
X66600063Y-13764596D01*
X66600063Y-13764592D01*
X66538903Y-13536337D01*
X66439035Y-13322171D01*
X66303495Y-13128599D01*
X66303494Y-13128597D01*
X66136402Y-12961506D01*
X66136395Y-12961501D01*
X65942834Y-12825967D01*
X65942830Y-12825965D01*
X65942828Y-12825964D01*
X65728663Y-12726097D01*
X65728659Y-12726096D01*
X65728655Y-12726094D01*
X65500413Y-12664938D01*
X65500403Y-12664936D01*
X65265001Y-12644341D01*
X65264999Y-12644341D01*
X65029596Y-12664936D01*
X65029586Y-12664938D01*
X64801344Y-12726094D01*
X64801335Y-12726098D01*
X64587171Y-12825964D01*
X64587169Y-12825965D01*
X64393600Y-12961503D01*
X64271673Y-13083430D01*
X64210350Y-13116914D01*
X64140658Y-13111930D01*
X64084725Y-13070058D01*
X64067810Y-13039081D01*
X64018797Y-12907671D01*
X64018793Y-12907664D01*
X63932547Y-12792455D01*
X63932544Y-12792452D01*
X63817335Y-12706206D01*
X63817328Y-12706202D01*
X63682482Y-12655908D01*
X63682483Y-12655908D01*
X63622883Y-12649501D01*
X63622881Y-12649500D01*
X63622873Y-12649500D01*
X63622864Y-12649500D01*
X61827129Y-12649500D01*
X61827123Y-12649501D01*
X61767516Y-12655908D01*
X61632671Y-12706202D01*
X61632664Y-12706206D01*
X61517455Y-12792452D01*
X61517452Y-12792455D01*
X61431206Y-12907664D01*
X61431202Y-12907671D01*
X61380908Y-13042517D01*
X61374501Y-13102116D01*
X61374500Y-13102135D01*
X61374500Y-14237769D01*
X61354815Y-14304808D01*
X61338181Y-14325450D01*
X60467052Y-15196578D01*
X60467049Y-15196581D01*
X60417812Y-15270271D01*
X60384921Y-15319496D01*
X60384914Y-15319508D01*
X60328342Y-15456086D01*
X60328340Y-15456092D01*
X60299500Y-15601079D01*
X60299500Y-16192670D01*
X60294576Y-16227265D01*
X60252402Y-16372426D01*
X60252401Y-16372432D01*
X60249500Y-16409298D01*
X60249500Y-17715701D01*
X60252401Y-17752567D01*
X60252402Y-17752573D01*
X60298254Y-17910393D01*
X60298255Y-17910396D01*
X60381917Y-18051862D01*
X60381923Y-18051870D01*
X60425680Y-18095626D01*
X60459166Y-18156949D01*
X60462000Y-18183308D01*
X60462000Y-20057808D01*
X60442315Y-20124847D01*
X60403099Y-20163345D01*
X60376652Y-20179657D01*
X60254661Y-20301648D01*
X60164093Y-20448481D01*
X60164091Y-20448486D01*
X60117706Y-20588467D01*
X60077933Y-20645912D01*
X60013417Y-20672735D01*
X59944641Y-20660420D01*
X59893442Y-20612877D01*
X59882294Y-20588467D01*
X59835908Y-20448484D01*
X59745340Y-20301650D01*
X59623350Y-20179660D01*
X59623347Y-20179657D01*
X59596773Y-20163266D01*
X59550050Y-20111318D01*
X59538829Y-20042355D01*
X59566673Y-19978273D01*
X59574192Y-19970047D01*
X59617678Y-19926561D01*
X59617685Y-19926552D01*
X59701282Y-19785196D01*
X59701283Y-19785193D01*
X59747099Y-19627495D01*
X59747100Y-19627489D01*
X59749999Y-19590649D01*
X59750000Y-19590634D01*
X59750000Y-19187500D01*
X58824000Y-19187500D01*
X58756961Y-19167815D01*
X58711206Y-19115011D01*
X58700000Y-19063500D01*
X58700000Y-18687500D01*
X59200000Y-18687500D01*
X59750000Y-18687500D01*
X59750000Y-18284365D01*
X59749999Y-18284350D01*
X59747100Y-18247510D01*
X59747099Y-18247504D01*
X59701283Y-18089806D01*
X59701282Y-18089803D01*
X59617685Y-17948447D01*
X59617678Y-17948438D01*
X59501561Y-17832321D01*
X59501552Y-17832314D01*
X59360196Y-17748717D01*
X59360193Y-17748716D01*
X59202494Y-17702900D01*
X59202497Y-17702900D01*
X59200000Y-17702703D01*
X59200000Y-18687500D01*
X58700000Y-18687500D01*
X58700000Y-18031814D01*
X58717267Y-17968694D01*
X58751744Y-17910398D01*
X58797598Y-17752569D01*
X58800500Y-17715694D01*
X58800500Y-16409306D01*
X58797598Y-16372431D01*
X58797597Y-16372426D01*
X58755424Y-16227265D01*
X58750500Y-16192670D01*
X58750500Y-14661079D01*
X58721659Y-14516092D01*
X58721658Y-14516091D01*
X58721658Y-14516087D01*
X58721656Y-14516082D01*
X58665086Y-14379508D01*
X58620669Y-14313033D01*
X58599792Y-14246356D01*
X58600244Y-14233335D01*
X58620659Y-14000000D01*
X58620659Y-13999999D01*
X58600063Y-13764596D01*
X58600063Y-13764592D01*
X58538903Y-13536337D01*
X58439035Y-13322171D01*
X58303495Y-13128599D01*
X58303494Y-13128597D01*
X58136402Y-12961506D01*
X58136395Y-12961501D01*
X57942834Y-12825967D01*
X57942830Y-12825965D01*
X57942828Y-12825964D01*
X57728663Y-12726097D01*
X57728659Y-12726096D01*
X57728655Y-12726094D01*
X57500413Y-12664938D01*
X57500403Y-12664936D01*
X57265001Y-12644341D01*
X57264999Y-12644341D01*
X57029596Y-12664936D01*
X57029586Y-12664938D01*
X56801344Y-12726094D01*
X56801335Y-12726098D01*
X56587171Y-12825964D01*
X56587169Y-12825965D01*
X56393600Y-12961503D01*
X56271673Y-13083430D01*
X56210350Y-13116914D01*
X56140658Y-13111930D01*
X56084725Y-13070058D01*
X56067810Y-13039081D01*
X56018797Y-12907671D01*
X56018793Y-12907664D01*
X55932547Y-12792455D01*
X55932544Y-12792452D01*
X55817335Y-12706206D01*
X55817328Y-12706202D01*
X55682482Y-12655908D01*
X55682483Y-12655908D01*
X55622883Y-12649501D01*
X55622881Y-12649500D01*
X55622873Y-12649500D01*
X55622864Y-12649500D01*
X53827129Y-12649500D01*
X53827123Y-12649501D01*
X53767516Y-12655908D01*
X53632671Y-12706202D01*
X53632664Y-12706206D01*
X53517455Y-12792452D01*
X53517452Y-12792455D01*
X53431206Y-12907664D01*
X53431202Y-12907671D01*
X53380908Y-13042517D01*
X53374501Y-13102116D01*
X53374500Y-13102135D01*
X53374500Y-14237769D01*
X53354815Y-14304808D01*
X53338181Y-14325450D01*
X52467052Y-15196578D01*
X52467049Y-15196581D01*
X52417812Y-15270271D01*
X52384921Y-15319496D01*
X52384914Y-15319508D01*
X52328342Y-15456086D01*
X52328340Y-15456092D01*
X52299500Y-15601079D01*
X52299500Y-16192670D01*
X52294576Y-16227265D01*
X52252402Y-16372426D01*
X52252401Y-16372432D01*
X52249500Y-16409298D01*
X52249500Y-17715701D01*
X52252401Y-17752567D01*
X52252402Y-17752573D01*
X52298254Y-17910393D01*
X52298255Y-17910396D01*
X52381917Y-18051862D01*
X52381923Y-18051870D01*
X52425680Y-18095626D01*
X52459166Y-18156949D01*
X52462000Y-18183308D01*
X52462000Y-20057808D01*
X52442315Y-20124847D01*
X52403099Y-20163345D01*
X52376652Y-20179657D01*
X52254661Y-20301648D01*
X52164093Y-20448481D01*
X52164091Y-20448486D01*
X52117706Y-20588467D01*
X52077933Y-20645912D01*
X52013417Y-20672735D01*
X51944641Y-20660420D01*
X51893442Y-20612877D01*
X51882294Y-20588467D01*
X51835908Y-20448484D01*
X51745340Y-20301650D01*
X51623350Y-20179660D01*
X51623347Y-20179657D01*
X51596773Y-20163266D01*
X51550050Y-20111318D01*
X51538829Y-20042355D01*
X51566673Y-19978273D01*
X51574192Y-19970047D01*
X51617678Y-19926561D01*
X51617685Y-19926552D01*
X51701282Y-19785196D01*
X51701283Y-19785193D01*
X51747099Y-19627495D01*
X51747100Y-19627489D01*
X51749999Y-19590649D01*
X51750000Y-19590634D01*
X51750000Y-19187500D01*
X50824000Y-19187500D01*
X50756961Y-19167815D01*
X50711206Y-19115011D01*
X50700000Y-19063500D01*
X50700000Y-18687500D01*
X51200000Y-18687500D01*
X51750000Y-18687500D01*
X51750000Y-18284365D01*
X51749999Y-18284350D01*
X51747100Y-18247510D01*
X51747099Y-18247504D01*
X51701283Y-18089806D01*
X51701282Y-18089803D01*
X51617685Y-17948447D01*
X51617678Y-17948438D01*
X51501561Y-17832321D01*
X51501552Y-17832314D01*
X51360196Y-17748717D01*
X51360193Y-17748716D01*
X51202494Y-17702900D01*
X51202497Y-17702900D01*
X51200000Y-17702703D01*
X51200000Y-18687500D01*
X50700000Y-18687500D01*
X50700000Y-18031814D01*
X50717267Y-17968694D01*
X50751744Y-17910398D01*
X50797598Y-17752569D01*
X50800500Y-17715694D01*
X50800500Y-16409306D01*
X50797598Y-16372431D01*
X50797597Y-16372426D01*
X50755424Y-16227265D01*
X50750500Y-16192670D01*
X50750500Y-14661079D01*
X50721659Y-14516092D01*
X50721658Y-14516091D01*
X50721658Y-14516087D01*
X50721656Y-14516082D01*
X50665086Y-14379508D01*
X50620669Y-14313033D01*
X50599792Y-14246356D01*
X50600244Y-14233335D01*
X50620659Y-14000000D01*
X50620659Y-13999999D01*
X50600063Y-13764596D01*
X50600063Y-13764592D01*
X50538903Y-13536337D01*
X50439035Y-13322171D01*
X50303495Y-13128599D01*
X50303494Y-13128597D01*
X50136402Y-12961506D01*
X50136395Y-12961501D01*
X49942834Y-12825967D01*
X49942830Y-12825965D01*
X49942828Y-12825964D01*
X49728663Y-12726097D01*
X49728659Y-12726096D01*
X49728655Y-12726094D01*
X49500413Y-12664938D01*
X49500403Y-12664936D01*
X49265001Y-12644341D01*
X49264999Y-12644341D01*
X49029596Y-12664936D01*
X49029586Y-12664938D01*
X48801344Y-12726094D01*
X48801335Y-12726098D01*
X48587171Y-12825964D01*
X48587169Y-12825965D01*
X48393600Y-12961503D01*
X48271673Y-13083430D01*
X48210350Y-13116914D01*
X48140658Y-13111930D01*
X48084725Y-13070058D01*
X48067810Y-13039081D01*
X48018797Y-12907671D01*
X48018793Y-12907664D01*
X47932547Y-12792455D01*
X47932544Y-12792452D01*
X47817335Y-12706206D01*
X47817328Y-12706202D01*
X47682482Y-12655908D01*
X47682483Y-12655908D01*
X47622883Y-12649501D01*
X47622881Y-12649500D01*
X47622873Y-12649500D01*
X47622864Y-12649500D01*
X45827129Y-12649500D01*
X45827123Y-12649501D01*
X45767516Y-12655908D01*
X45632671Y-12706202D01*
X45632664Y-12706206D01*
X45517455Y-12792452D01*
X45517452Y-12792455D01*
X45431206Y-12907664D01*
X45431202Y-12907671D01*
X45380908Y-13042517D01*
X45374501Y-13102116D01*
X45374500Y-13102135D01*
X45374500Y-14237769D01*
X45354815Y-14304808D01*
X45338181Y-14325450D01*
X44467052Y-15196578D01*
X44467049Y-15196581D01*
X44417812Y-15270271D01*
X44384921Y-15319496D01*
X44384914Y-15319508D01*
X44328342Y-15456086D01*
X44328340Y-15456092D01*
X44299500Y-15601079D01*
X44299500Y-16192670D01*
X44294576Y-16227265D01*
X44252402Y-16372426D01*
X44252401Y-16372432D01*
X44249500Y-16409298D01*
X44249500Y-17715701D01*
X44252401Y-17752567D01*
X44252402Y-17752573D01*
X44298254Y-17910393D01*
X44298255Y-17910396D01*
X44381917Y-18051862D01*
X44381923Y-18051870D01*
X44425680Y-18095626D01*
X44459166Y-18156949D01*
X44462000Y-18183308D01*
X44462000Y-20057808D01*
X44442315Y-20124847D01*
X44403099Y-20163345D01*
X44376652Y-20179657D01*
X44254661Y-20301648D01*
X44164093Y-20448481D01*
X44164091Y-20448486D01*
X44117706Y-20588467D01*
X44077933Y-20645912D01*
X44013417Y-20672735D01*
X43944641Y-20660420D01*
X43893442Y-20612877D01*
X43882294Y-20588467D01*
X43835908Y-20448484D01*
X43745340Y-20301650D01*
X43623350Y-20179660D01*
X43623347Y-20179657D01*
X43596773Y-20163266D01*
X43550050Y-20111318D01*
X43538829Y-20042355D01*
X43566673Y-19978273D01*
X43574192Y-19970047D01*
X43617678Y-19926561D01*
X43617685Y-19926552D01*
X43701282Y-19785196D01*
X43701283Y-19785193D01*
X43747099Y-19627495D01*
X43747100Y-19627489D01*
X43749999Y-19590649D01*
X43750000Y-19590634D01*
X43750000Y-19187500D01*
X42824000Y-19187500D01*
X42756961Y-19167815D01*
X42711206Y-19115011D01*
X42700000Y-19063500D01*
X42700000Y-18687500D01*
X43200000Y-18687500D01*
X43750000Y-18687500D01*
X43750000Y-18284365D01*
X43749999Y-18284350D01*
X43747100Y-18247510D01*
X43747099Y-18247504D01*
X43701283Y-18089806D01*
X43701282Y-18089803D01*
X43617685Y-17948447D01*
X43617678Y-17948438D01*
X43501561Y-17832321D01*
X43501552Y-17832314D01*
X43360196Y-17748717D01*
X43360193Y-17748716D01*
X43202494Y-17702900D01*
X43202497Y-17702900D01*
X43200000Y-17702703D01*
X43200000Y-18687500D01*
X42700000Y-18687500D01*
X42700000Y-18031814D01*
X42717267Y-17968694D01*
X42751744Y-17910398D01*
X42797598Y-17752569D01*
X42800500Y-17715694D01*
X42800500Y-16409306D01*
X42797598Y-16372431D01*
X42797597Y-16372426D01*
X42755424Y-16227265D01*
X42750500Y-16192670D01*
X42750500Y-14661079D01*
X42721659Y-14516092D01*
X42721658Y-14516091D01*
X42721658Y-14516087D01*
X42721656Y-14516082D01*
X42665086Y-14379508D01*
X42620669Y-14313033D01*
X42599792Y-14246356D01*
X42600244Y-14233335D01*
X42620659Y-14000000D01*
X42620659Y-13999999D01*
X42600063Y-13764596D01*
X42600063Y-13764592D01*
X42538903Y-13536337D01*
X42439035Y-13322171D01*
X42303495Y-13128599D01*
X42303494Y-13128597D01*
X42136402Y-12961506D01*
X42136395Y-12961501D01*
X41942834Y-12825967D01*
X41942830Y-12825965D01*
X41942828Y-12825964D01*
X41728663Y-12726097D01*
X41728659Y-12726096D01*
X41728655Y-12726094D01*
X41500413Y-12664938D01*
X41500403Y-12664936D01*
X41265001Y-12644341D01*
X41264999Y-12644341D01*
X41029596Y-12664936D01*
X41029586Y-12664938D01*
X40801344Y-12726094D01*
X40801335Y-12726098D01*
X40587171Y-12825964D01*
X40587169Y-12825965D01*
X40393600Y-12961503D01*
X40271673Y-13083430D01*
X40210350Y-13116914D01*
X40140658Y-13111930D01*
X40084725Y-13070058D01*
X40067810Y-13039081D01*
X40018797Y-12907671D01*
X40018793Y-12907664D01*
X39932547Y-12792455D01*
X39932544Y-12792452D01*
X39817335Y-12706206D01*
X39817328Y-12706202D01*
X39682482Y-12655908D01*
X39682483Y-12655908D01*
X39622883Y-12649501D01*
X39622881Y-12649500D01*
X39622873Y-12649500D01*
X39622864Y-12649500D01*
X37827129Y-12649500D01*
X37827123Y-12649501D01*
X37767516Y-12655908D01*
X37632671Y-12706202D01*
X37632664Y-12706206D01*
X37517455Y-12792452D01*
X37517452Y-12792455D01*
X37431206Y-12907664D01*
X37431202Y-12907671D01*
X37380908Y-13042517D01*
X37374501Y-13102116D01*
X37374500Y-13102135D01*
X37374500Y-14237769D01*
X37354815Y-14304808D01*
X37338181Y-14325450D01*
X36467052Y-15196578D01*
X36467049Y-15196581D01*
X36417812Y-15270271D01*
X36384921Y-15319496D01*
X36384914Y-15319508D01*
X36328342Y-15456086D01*
X36328340Y-15456092D01*
X36299500Y-15601079D01*
X36299500Y-16192670D01*
X36294576Y-16227265D01*
X36252402Y-16372426D01*
X36252401Y-16372432D01*
X36249500Y-16409298D01*
X36249500Y-17715701D01*
X36252401Y-17752567D01*
X36252402Y-17752573D01*
X36298254Y-17910393D01*
X36298255Y-17910396D01*
X36381917Y-18051862D01*
X36381923Y-18051870D01*
X36425680Y-18095626D01*
X36459166Y-18156949D01*
X36462000Y-18183308D01*
X36462000Y-20057808D01*
X36442315Y-20124847D01*
X36403099Y-20163345D01*
X36376652Y-20179657D01*
X36254661Y-20301648D01*
X36164093Y-20448481D01*
X36164091Y-20448486D01*
X36117706Y-20588467D01*
X36077933Y-20645912D01*
X36013417Y-20672735D01*
X35944641Y-20660420D01*
X35893442Y-20612877D01*
X35882294Y-20588467D01*
X35835908Y-20448484D01*
X35745340Y-20301650D01*
X35623350Y-20179660D01*
X35623347Y-20179657D01*
X35596773Y-20163266D01*
X35550050Y-20111318D01*
X35538829Y-20042355D01*
X35566673Y-19978273D01*
X35574192Y-19970047D01*
X35617678Y-19926561D01*
X35617685Y-19926552D01*
X35701282Y-19785196D01*
X35701283Y-19785193D01*
X35747099Y-19627495D01*
X35747100Y-19627489D01*
X35749999Y-19590649D01*
X35750000Y-19590634D01*
X35750000Y-19187500D01*
X34824000Y-19187500D01*
X34756961Y-19167815D01*
X34711206Y-19115011D01*
X34700000Y-19063500D01*
X34700000Y-18687500D01*
X35200000Y-18687500D01*
X35750000Y-18687500D01*
X35750000Y-18284365D01*
X35749999Y-18284350D01*
X35747100Y-18247510D01*
X35747099Y-18247504D01*
X35701283Y-18089806D01*
X35701282Y-18089803D01*
X35617685Y-17948447D01*
X35617678Y-17948438D01*
X35501561Y-17832321D01*
X35501552Y-17832314D01*
X35360196Y-17748717D01*
X35360193Y-17748716D01*
X35202494Y-17702900D01*
X35202497Y-17702900D01*
X35200000Y-17702703D01*
X35200000Y-18687500D01*
X34700000Y-18687500D01*
X34700000Y-18031814D01*
X34717267Y-17968694D01*
X34751744Y-17910398D01*
X34797598Y-17752569D01*
X34800500Y-17715694D01*
X34800500Y-16409306D01*
X34797598Y-16372431D01*
X34797597Y-16372426D01*
X34755424Y-16227265D01*
X34750500Y-16192670D01*
X34750500Y-14661079D01*
X34721659Y-14516092D01*
X34721658Y-14516091D01*
X34721658Y-14516087D01*
X34721656Y-14516082D01*
X34665086Y-14379508D01*
X34620669Y-14313033D01*
X34599792Y-14246356D01*
X34600244Y-14233335D01*
X34620659Y-14000000D01*
X34620659Y-13999999D01*
X34600063Y-13764596D01*
X34600063Y-13764592D01*
X34538903Y-13536337D01*
X34439035Y-13322171D01*
X34303495Y-13128599D01*
X34303494Y-13128597D01*
X34136402Y-12961506D01*
X34136395Y-12961501D01*
X33942834Y-12825967D01*
X33942830Y-12825965D01*
X33942828Y-12825964D01*
X33728663Y-12726097D01*
X33728659Y-12726096D01*
X33728655Y-12726094D01*
X33500413Y-12664938D01*
X33500403Y-12664936D01*
X33265001Y-12644341D01*
X33264999Y-12644341D01*
X33029596Y-12664936D01*
X33029586Y-12664938D01*
X32801344Y-12726094D01*
X32801335Y-12726098D01*
X32587171Y-12825964D01*
X32587169Y-12825965D01*
X32393600Y-12961503D01*
X32271673Y-13083430D01*
X32210350Y-13116914D01*
X32140658Y-13111930D01*
X32084725Y-13070058D01*
X32067810Y-13039081D01*
X32018797Y-12907671D01*
X32018793Y-12907664D01*
X31932547Y-12792455D01*
X31932544Y-12792452D01*
X31817335Y-12706206D01*
X31817328Y-12706202D01*
X31682482Y-12655908D01*
X31682483Y-12655908D01*
X31622883Y-12649501D01*
X31622881Y-12649500D01*
X31622873Y-12649500D01*
X31622864Y-12649500D01*
X29827129Y-12649500D01*
X29827123Y-12649501D01*
X29767516Y-12655908D01*
X29632671Y-12706202D01*
X29632664Y-12706206D01*
X29517455Y-12792452D01*
X29517452Y-12792455D01*
X29431206Y-12907664D01*
X29431202Y-12907671D01*
X29380908Y-13042517D01*
X29374501Y-13102116D01*
X29374500Y-13102135D01*
X29374500Y-14237769D01*
X29354815Y-14304808D01*
X29338181Y-14325450D01*
X28467052Y-15196578D01*
X28467049Y-15196581D01*
X28417812Y-15270271D01*
X28384921Y-15319496D01*
X28384914Y-15319508D01*
X28328342Y-15456086D01*
X28328340Y-15456092D01*
X28299500Y-15601079D01*
X28299500Y-16192670D01*
X28294576Y-16227265D01*
X28252402Y-16372426D01*
X28252401Y-16372432D01*
X28249500Y-16409298D01*
X28249500Y-17715701D01*
X28252401Y-17752567D01*
X28252402Y-17752573D01*
X28298254Y-17910393D01*
X28298255Y-17910396D01*
X28381917Y-18051862D01*
X28381923Y-18051870D01*
X28425680Y-18095626D01*
X28459166Y-18156949D01*
X28462000Y-18183308D01*
X28462000Y-20057808D01*
X28442315Y-20124847D01*
X28403099Y-20163345D01*
X28376652Y-20179657D01*
X28254661Y-20301648D01*
X28164093Y-20448481D01*
X28164091Y-20448486D01*
X28117706Y-20588467D01*
X28077933Y-20645912D01*
X28013417Y-20672735D01*
X27944641Y-20660420D01*
X27893442Y-20612877D01*
X27882294Y-20588467D01*
X27835908Y-20448484D01*
X27745340Y-20301650D01*
X27623350Y-20179660D01*
X27623347Y-20179657D01*
X27596773Y-20163266D01*
X27550050Y-20111318D01*
X27538829Y-20042355D01*
X27566673Y-19978273D01*
X27574192Y-19970047D01*
X27617678Y-19926561D01*
X27617685Y-19926552D01*
X27701282Y-19785196D01*
X27701283Y-19785193D01*
X27747099Y-19627495D01*
X27747100Y-19627489D01*
X27749999Y-19590649D01*
X27750000Y-19590634D01*
X27750000Y-19187500D01*
X26824000Y-19187500D01*
X26756961Y-19167815D01*
X26711206Y-19115011D01*
X26700000Y-19063500D01*
X26700000Y-18687500D01*
X27200000Y-18687500D01*
X27750000Y-18687500D01*
X27750000Y-18284365D01*
X27749999Y-18284350D01*
X27747100Y-18247510D01*
X27747099Y-18247504D01*
X27701283Y-18089806D01*
X27701282Y-18089803D01*
X27617685Y-17948447D01*
X27617678Y-17948438D01*
X27501561Y-17832321D01*
X27501552Y-17832314D01*
X27360196Y-17748717D01*
X27360193Y-17748716D01*
X27202494Y-17702900D01*
X27202497Y-17702900D01*
X27200000Y-17702703D01*
X27200000Y-18687500D01*
X26700000Y-18687500D01*
X26700000Y-18031814D01*
X26717267Y-17968694D01*
X26751744Y-17910398D01*
X26797598Y-17752569D01*
X26800500Y-17715694D01*
X26800500Y-16409306D01*
X26797598Y-16372431D01*
X26797597Y-16372426D01*
X26755424Y-16227265D01*
X26750500Y-16192670D01*
X26750500Y-14661079D01*
X26721659Y-14516092D01*
X26721658Y-14516091D01*
X26721658Y-14516087D01*
X26721656Y-14516082D01*
X26665086Y-14379508D01*
X26620669Y-14313033D01*
X26599792Y-14246356D01*
X26600244Y-14233335D01*
X26620659Y-14000000D01*
X26620659Y-13999999D01*
X26600063Y-13764596D01*
X26600063Y-13764592D01*
X26538903Y-13536337D01*
X26439035Y-13322171D01*
X26303495Y-13128599D01*
X26303494Y-13128597D01*
X26136402Y-12961506D01*
X26136395Y-12961501D01*
X25942834Y-12825967D01*
X25942830Y-12825965D01*
X25942828Y-12825964D01*
X25728663Y-12726097D01*
X25728659Y-12726096D01*
X25728655Y-12726094D01*
X25500413Y-12664938D01*
X25500403Y-12664936D01*
X25265001Y-12644341D01*
X25264999Y-12644341D01*
X25029596Y-12664936D01*
X25029586Y-12664938D01*
X24801344Y-12726094D01*
X24801335Y-12726098D01*
X24587171Y-12825964D01*
X24587169Y-12825965D01*
X24393600Y-12961503D01*
X24271673Y-13083430D01*
X24210350Y-13116914D01*
X24140658Y-13111930D01*
X24084725Y-13070058D01*
X24067810Y-13039081D01*
X24018797Y-12907671D01*
X24018793Y-12907664D01*
X23932547Y-12792455D01*
X23932544Y-12792452D01*
X23817335Y-12706206D01*
X23817328Y-12706202D01*
X23682482Y-12655908D01*
X23682483Y-12655908D01*
X23622883Y-12649501D01*
X23622881Y-12649500D01*
X23622873Y-12649500D01*
X23622864Y-12649500D01*
X21827129Y-12649500D01*
X21827123Y-12649501D01*
X21767516Y-12655908D01*
X21632671Y-12706202D01*
X21632664Y-12706206D01*
X21517455Y-12792452D01*
X21517452Y-12792455D01*
X21431206Y-12907664D01*
X21431202Y-12907671D01*
X21380908Y-13042517D01*
X21374501Y-13102116D01*
X21374500Y-13102135D01*
X21374500Y-14237769D01*
X21354815Y-14304808D01*
X21338181Y-14325450D01*
X20467052Y-15196578D01*
X20467049Y-15196581D01*
X20417812Y-15270271D01*
X20384921Y-15319496D01*
X20384914Y-15319508D01*
X20328342Y-15456086D01*
X20328340Y-15456092D01*
X20299500Y-15601079D01*
X20299500Y-16192670D01*
X20294576Y-16227265D01*
X20252402Y-16372426D01*
X20252401Y-16372432D01*
X20249500Y-16409298D01*
X20249500Y-17715701D01*
X20252401Y-17752567D01*
X20252402Y-17752573D01*
X20298254Y-17910393D01*
X20298255Y-17910396D01*
X20381917Y-18051862D01*
X20381923Y-18051870D01*
X20425680Y-18095626D01*
X20459166Y-18156949D01*
X20462000Y-18183308D01*
X20462000Y-20057808D01*
X20442315Y-20124847D01*
X20403099Y-20163345D01*
X20376652Y-20179657D01*
X20254661Y-20301648D01*
X20164093Y-20448481D01*
X20164091Y-20448486D01*
X20117706Y-20588467D01*
X20077933Y-20645912D01*
X20013417Y-20672735D01*
X19944641Y-20660420D01*
X19893442Y-20612877D01*
X19882294Y-20588467D01*
X19835908Y-20448484D01*
X19745340Y-20301650D01*
X19623350Y-20179660D01*
X19623347Y-20179657D01*
X19596773Y-20163266D01*
X19550050Y-20111318D01*
X19538829Y-20042355D01*
X19566673Y-19978273D01*
X19574192Y-19970047D01*
X19617678Y-19926561D01*
X19617685Y-19926552D01*
X19701282Y-19785196D01*
X19701283Y-19785193D01*
X19747099Y-19627495D01*
X19747100Y-19627489D01*
X19749999Y-19590649D01*
X19750000Y-19590634D01*
X19750000Y-19187500D01*
X18824000Y-19187500D01*
X18756961Y-19167815D01*
X18711206Y-19115011D01*
X18700000Y-19063500D01*
X18700000Y-18687500D01*
X19200000Y-18687500D01*
X19750000Y-18687500D01*
X19750000Y-18284365D01*
X19749999Y-18284350D01*
X19747100Y-18247510D01*
X19747099Y-18247504D01*
X19701283Y-18089806D01*
X19701282Y-18089803D01*
X19617685Y-17948447D01*
X19617678Y-17948438D01*
X19501561Y-17832321D01*
X19501552Y-17832314D01*
X19360196Y-17748717D01*
X19360193Y-17748716D01*
X19202494Y-17702900D01*
X19202497Y-17702900D01*
X19200000Y-17702703D01*
X19200000Y-18687500D01*
X18700000Y-18687500D01*
X18700000Y-18031814D01*
X18717267Y-17968694D01*
X18751744Y-17910398D01*
X18797598Y-17752569D01*
X18800500Y-17715694D01*
X18800500Y-16409306D01*
X18797598Y-16372431D01*
X18797597Y-16372426D01*
X18755424Y-16227265D01*
X18750500Y-16192670D01*
X18750500Y-14661079D01*
X18721659Y-14516092D01*
X18721658Y-14516091D01*
X18721658Y-14516087D01*
X18721656Y-14516082D01*
X18665086Y-14379508D01*
X18620669Y-14313033D01*
X18599792Y-14246356D01*
X18600244Y-14233335D01*
X18620659Y-14000000D01*
X18620659Y-13999999D01*
X18600063Y-13764596D01*
X18600063Y-13764592D01*
X18538903Y-13536337D01*
X18439035Y-13322171D01*
X18303495Y-13128599D01*
X18303494Y-13128597D01*
X18136402Y-12961506D01*
X18136395Y-12961501D01*
X17942834Y-12825967D01*
X17942830Y-12825965D01*
X17942828Y-12825964D01*
X17728663Y-12726097D01*
X17728659Y-12726096D01*
X17728655Y-12726094D01*
X17500413Y-12664938D01*
X17500403Y-12664936D01*
X17265001Y-12644341D01*
X17264999Y-12644341D01*
X17029596Y-12664936D01*
X17029586Y-12664938D01*
X16801344Y-12726094D01*
X16801335Y-12726098D01*
X16587171Y-12825964D01*
X16587169Y-12825965D01*
X16393600Y-12961503D01*
X16271673Y-13083430D01*
X16210350Y-13116914D01*
X16140658Y-13111930D01*
X16084725Y-13070058D01*
X16067810Y-13039081D01*
X16018797Y-12907671D01*
X16018793Y-12907664D01*
X15932547Y-12792455D01*
X15932544Y-12792452D01*
X15817335Y-12706206D01*
X15817328Y-12706202D01*
X15682482Y-12655908D01*
X15682483Y-12655908D01*
X15622883Y-12649501D01*
X15622881Y-12649500D01*
X15622873Y-12649500D01*
X15622864Y-12649500D01*
X13827129Y-12649500D01*
X13827123Y-12649501D01*
X13767516Y-12655908D01*
X13632671Y-12706202D01*
X13632664Y-12706206D01*
X13517455Y-12792452D01*
X13517452Y-12792455D01*
X13431206Y-12907664D01*
X13431202Y-12907671D01*
X13380908Y-13042517D01*
X13374501Y-13102116D01*
X13374500Y-13102135D01*
X13374500Y-14237769D01*
X13354815Y-14304808D01*
X13338181Y-14325450D01*
X12467052Y-15196578D01*
X12467049Y-15196581D01*
X12417812Y-15270271D01*
X12384921Y-15319496D01*
X12384914Y-15319508D01*
X12328342Y-15456086D01*
X12328340Y-15456092D01*
X12299500Y-15601079D01*
X12299500Y-16192670D01*
X12294576Y-16227265D01*
X12252402Y-16372426D01*
X12252401Y-16372432D01*
X12249500Y-16409298D01*
X12249500Y-17715701D01*
X12252401Y-17752567D01*
X12252402Y-17752573D01*
X12298254Y-17910393D01*
X12298255Y-17910396D01*
X12381917Y-18051862D01*
X12381923Y-18051870D01*
X12425680Y-18095626D01*
X12459166Y-18156949D01*
X12462000Y-18183308D01*
X12462000Y-20057808D01*
X12442315Y-20124847D01*
X12403099Y-20163345D01*
X12376652Y-20179657D01*
X12254660Y-20301649D01*
X12254657Y-20301653D01*
X12229538Y-20342378D01*
X12177590Y-20389103D01*
X12108628Y-20400324D01*
X12044546Y-20372481D01*
X12005690Y-20314412D01*
X12000000Y-20277281D01*
X12000000Y-12124000D01*
X12019685Y-12056961D01*
X12072489Y-12011206D01*
X12124000Y-12000000D01*
X75876000Y-12000000D01*
X75943039Y-12019685D01*
G37*
%TD.AperFunction*%
%TD*%
M02*
