%TF.GenerationSoftware,KiCad,Pcbnew,8.0.4*%
%TF.CreationDate,2024-08-11T12:29:12-04:00*%
%TF.ProjectId,Inhibit Sense Circuit,496e6869-6269-4742-9053-656e73652043,rev?*%
%TF.SameCoordinates,Original*%
%TF.FileFunction,Copper,L3,Inr*%
%TF.FilePolarity,Positive*%
%FSLAX46Y46*%
G04 Gerber Fmt 4.6, Leading zero omitted, Abs format (unit mm)*
G04 Created by KiCad (PCBNEW 8.0.4) date 2024-08-11 12:29:12*
%MOMM*%
%LPD*%
G01*
G04 APERTURE LIST*
%TA.AperFunction,ComponentPad*%
%ADD10R,1.700000X1.700000*%
%TD*%
%TA.AperFunction,ComponentPad*%
%ADD11O,1.700000X1.700000*%
%TD*%
%TA.AperFunction,ViaPad*%
%ADD12C,0.800000*%
%TD*%
%TA.AperFunction,ViaPad*%
%ADD13C,1.000000*%
%TD*%
%TA.AperFunction,Conductor*%
%ADD14C,1.250000*%
%TD*%
%TA.AperFunction,Conductor*%
%ADD15C,0.500000*%
%TD*%
%TA.AperFunction,Conductor*%
%ADD16C,1.000000*%
%TD*%
%TA.AperFunction,Conductor*%
%ADD17C,0.250000*%
%TD*%
G04 APERTURE END LIST*
D10*
%TO.N,/IS_LINES.A8*%
%TO.C,IS8*%
X70725000Y-14000000D03*
D11*
%TO.N,/IS_LINES.B8*%
X73265000Y-14000000D03*
%TD*%
D10*
%TO.N,/IS_LINES.A1*%
%TO.C,IS1*%
X14725000Y-14000000D03*
D11*
%TO.N,/IS_LINES.B1*%
X17265000Y-14000000D03*
%TD*%
D10*
%TO.N,/IS_LINES.A5*%
%TO.C,IS5*%
X46725000Y-14000000D03*
D11*
%TO.N,/IS_LINES.B5*%
X49265000Y-14000000D03*
%TD*%
D10*
%TO.N,/IS_LINES.A4*%
%TO.C,IS4*%
X38725000Y-14000000D03*
D11*
%TO.N,/IS_LINES.B4*%
X41265000Y-14000000D03*
%TD*%
D10*
%TO.N,/IS_LINES.A7*%
%TO.C,IS7*%
X62725000Y-14000000D03*
D11*
%TO.N,/IS_LINES.B7*%
X65265000Y-14000000D03*
%TD*%
D10*
%TO.N,VCC*%
%TO.C,J2*%
X13500000Y-27725000D03*
D11*
%TO.N,GND*%
X13500000Y-30265000D03*
%TD*%
D10*
%TO.N,/IS_LINES.A2*%
%TO.C,IS2*%
X22725000Y-14000000D03*
D11*
%TO.N,/IS_LINES.B2*%
X25265000Y-14000000D03*
%TD*%
D10*
%TO.N,/IS_LINES.A3*%
%TO.C,IS3*%
X30725000Y-14000000D03*
D11*
%TO.N,/IS_LINES.B3*%
X33265000Y-14000000D03*
%TD*%
D10*
%TO.N,/IS_LINES.A6*%
%TO.C,IS6*%
X54725000Y-14000000D03*
D11*
%TO.N,/IS_LINES.B6*%
X57265000Y-14000000D03*
%TD*%
D10*
%TO.N,VDD*%
%TO.C,J1*%
X28800000Y-42000000D03*
D11*
%TO.N,GND*%
X31340000Y-42000000D03*
%TO.N,/BUS1*%
X33880000Y-42000000D03*
%TO.N,/BUS2*%
X36420000Y-42000000D03*
%TO.N,/BUS3*%
X38960000Y-42000000D03*
%TO.N,/BUS4*%
X41500000Y-42000000D03*
%TO.N,/BUS5*%
X44040000Y-42000000D03*
%TO.N,/BUS6*%
X46580000Y-42000000D03*
%TO.N,/BUS7*%
X49120000Y-42000000D03*
%TO.N,/BUS8*%
X51660000Y-42000000D03*
%TO.N,/RST*%
X54200000Y-42000000D03*
%TO.N,/Read Out*%
X56740000Y-42000000D03*
%TO.N,/Inhibit EN*%
X59280000Y-42000000D03*
%TD*%
D12*
%TO.N,/BUS3*%
X22085353Y-34670371D03*
%TO.N,/BUS2*%
X24500000Y-36500000D03*
%TO.N,/BUS7*%
X73000000Y-38000000D03*
%TO.N,/BUS6*%
X74500000Y-38000000D03*
D13*
%TO.N,VDD*%
X36000000Y-38000000D03*
X45833364Y-31333364D03*
X61500000Y-33500000D03*
X30905786Y-30945968D03*
X72291218Y-34320963D03*
X38560332Y-30725784D03*
X23929013Y-30901050D03*
X61405786Y-30762500D03*
X53500000Y-31000000D03*
X63500000Y-35500000D03*
X55500000Y-34500000D03*
X68500000Y-31000000D03*
X16500000Y-32500000D03*
X49000000Y-34500000D03*
X33500000Y-34463000D03*
%TO.N,GND*%
X51500000Y-17500000D03*
X75000000Y-25000000D03*
X70248724Y-25158991D03*
X19500000Y-17500000D03*
X66000000Y-26500000D03*
X23987500Y-24425000D03*
X16000000Y-24425000D03*
X32931348Y-40123380D03*
X55000000Y-24412500D03*
X62750426Y-25159622D03*
X38500000Y-40000000D03*
X59500000Y-17500000D03*
X74500000Y-40000000D03*
D12*
X41770309Y-29527310D03*
D13*
X47500000Y-24425000D03*
X32000000Y-24425000D03*
X50916636Y-26416636D03*
D12*
X64500000Y-28500000D03*
D13*
X58500000Y-26500000D03*
D12*
X53000000Y-39500000D03*
D13*
X35500000Y-17500000D03*
X43500000Y-26500000D03*
D12*
X27000000Y-28500000D03*
X42565992Y-33544286D03*
D13*
X75450000Y-17500000D03*
D12*
X20000000Y-28500000D03*
X48000000Y-36500000D03*
D13*
X40000000Y-24425000D03*
D12*
X57000000Y-28500000D03*
D13*
X27500000Y-17500000D03*
X67500000Y-17500000D03*
X13500000Y-32500000D03*
X43500000Y-17500000D03*
D12*
X25500000Y-41000000D03*
D13*
%TO.N,VCC*%
X46000000Y-20000000D03*
X70000000Y-20000000D03*
X30000056Y-20000000D03*
X54000000Y-20000000D03*
X62000000Y-20000000D03*
X38000000Y-20000000D03*
X22000000Y-20000000D03*
X14000000Y-20000000D03*
D12*
%TO.N,Net-(IC1-3S)*%
X31500000Y-39500000D03*
X18000000Y-37650002D03*
%TO.N,Net-(IC1-4S)*%
X31500000Y-36000000D03*
X16000000Y-34500000D03*
%TO.N,/Sense Circuit/Sense Ch 3/Sense Out 1*%
X36162294Y-30576751D03*
X34500000Y-38500000D03*
%TO.N,/Sense Circuit/Sense Ch 2/Sense Out 2*%
X25511694Y-30507473D03*
X29000000Y-38500000D03*
%TO.N,/Sense Circuit/Sense Ch 6/Sense Out 1*%
X52452000Y-35653007D03*
X58725000Y-30500000D03*
%TO.N,/Sense Circuit/Sense Ch 7/Sense Out 1*%
X55012653Y-38487347D03*
X66419150Y-30587291D03*
%TO.N,Net-(Q10-G)*%
X64000000Y-18500000D03*
X32000000Y-18500000D03*
X40000000Y-18500000D03*
X72000000Y-18500000D03*
X63500000Y-41500000D03*
X48000000Y-18500000D03*
X56000000Y-18500000D03*
X24000000Y-18500000D03*
X16000000Y-18500000D03*
%TO.N,/RST*%
X72000000Y-39000000D03*
X16595000Y-39000000D03*
X65987347Y-37775000D03*
X22365153Y-40365153D03*
%TO.N,/Read Out*%
X20286720Y-40037718D03*
X70000000Y-40348000D03*
%TO.N,/Inhibit Circuit/INHIBIT_DATA8*%
X74043903Y-22543903D03*
X41625000Y-34875000D03*
%TO.N,/Inhibit Circuit/INHIBIT_DATA1*%
X20107034Y-22375126D03*
X43000000Y-35000000D03*
%TO.N,/Inhibit Circuit/INHIBIT_DATA6*%
X41000000Y-37475000D03*
X59052762Y-22422660D03*
%TO.N,/Inhibit Circuit/INHIBIT_DATA4*%
X43398288Y-21819384D03*
X44000000Y-39500000D03*
%TO.N,/Inhibit Circuit/INHIBIT_DATA5*%
X51270427Y-22302312D03*
X40775000Y-40015922D03*
%TO.N,/Inhibit Circuit/INHIBIT_DATA7*%
X41500000Y-36175000D03*
X66557867Y-22712873D03*
%TO.N,/Inhibit Circuit/INHIBIT_DATA3*%
X44000000Y-38000000D03*
X36000000Y-22500000D03*
%TO.N,/Inhibit Circuit/INHIBIT_DATA2*%
X43500000Y-36500000D03*
X28000000Y-22500000D03*
%TD*%
D14*
%TO.N,GND*%
X14702081Y-30265000D02*
X18000000Y-26967081D01*
D15*
X23987500Y-21012500D02*
X23987500Y-24425000D01*
X38888840Y-40700000D02*
X40422918Y-39165922D01*
D14*
X18000000Y-19000000D02*
X19500000Y-17500000D01*
D15*
X67500000Y-17500000D02*
X62750426Y-22249574D01*
X27500000Y-17500000D02*
X23987500Y-21012500D01*
X42463840Y-39165922D02*
X43647918Y-40350000D01*
X40422918Y-39165922D02*
X42463840Y-39165922D01*
X44352082Y-40350000D02*
X48000000Y-36702082D01*
D14*
X18000000Y-26967081D02*
X18000000Y-19000000D01*
D15*
X62750426Y-22249574D02*
X62750426Y-25159622D01*
D14*
X13500000Y-30265000D02*
X14702081Y-30265000D01*
D15*
X51500000Y-20425000D02*
X47500000Y-24425000D01*
X48000000Y-36702082D02*
X48000000Y-36500000D01*
X43647918Y-40350000D02*
X44352082Y-40350000D01*
D16*
X14702081Y-30265000D02*
X16000000Y-28967081D01*
D15*
X32640000Y-40700000D02*
X38888840Y-40700000D01*
X31340000Y-42000000D02*
X32640000Y-40700000D01*
X51500000Y-17500000D02*
X51500000Y-20425000D01*
D16*
X16000000Y-28967081D02*
X16000000Y-24425000D01*
D17*
%TO.N,/Sense Circuit/Sense Ch 3/Sense Out 1*%
X34500000Y-32239045D02*
X36162294Y-30576751D01*
X34500000Y-38500000D02*
X34500000Y-32239045D01*
%TO.N,/Sense Circuit/Sense Ch 2/Sense Out 2*%
X29000000Y-33995779D02*
X25511694Y-30507473D01*
X29000000Y-38500000D02*
X29000000Y-33995779D01*
%TO.N,/Sense Circuit/Sense Ch 7/Sense Out 1*%
X58508773Y-38487347D02*
X55012653Y-38487347D01*
X66419150Y-30587291D02*
X66408829Y-30587291D01*
X66408829Y-30587291D02*
X58508773Y-38487347D01*
%TO.N,Net-(Q10-G)*%
X72000000Y-33000000D02*
X72000000Y-18500000D01*
X63500000Y-41500000D02*
X72000000Y-33000000D01*
%TO.N,/Inhibit Circuit/INHIBIT_DATA1*%
X32110848Y-25500000D02*
X23231908Y-25500000D01*
X43000000Y-35000000D02*
X42350000Y-35000000D01*
X41925305Y-34150000D02*
X40650000Y-34150000D01*
X36887294Y-30387294D02*
X36887294Y-30276446D01*
X42350000Y-35000000D02*
X42350000Y-34574695D01*
X36887294Y-30276446D02*
X32110848Y-25500000D01*
X42350000Y-34574695D02*
X41925305Y-34150000D01*
X40650000Y-34150000D02*
X36887294Y-30387294D01*
X23231908Y-25500000D02*
X20107034Y-22375126D01*
%TO.N,/Inhibit Circuit/INHIBIT_DATA4*%
X44000000Y-39500000D02*
X44725000Y-38775000D01*
X44725000Y-23146096D02*
X43398288Y-21819384D01*
X44725000Y-38775000D02*
X44725000Y-23146096D01*
%TO.N,/Inhibit Circuit/INHIBIT_DATA3*%
X44225000Y-30725000D02*
X36000000Y-22500000D01*
X44000000Y-38000000D02*
X44000000Y-37500000D01*
X44225000Y-37275000D02*
X44225000Y-30725000D01*
X44000000Y-37500000D02*
X44225000Y-37275000D01*
%TO.N,/Inhibit Circuit/INHIBIT_DATA2*%
X43725000Y-35775000D02*
X43725000Y-33225000D01*
X33000000Y-22500000D02*
X28000000Y-22500000D01*
X43500000Y-36000000D02*
X43725000Y-35775000D01*
X43725000Y-33225000D02*
X33000000Y-22500000D01*
X43500000Y-36500000D02*
X43500000Y-36000000D01*
%TD*%
M02*
